<?xml version="1.0" standalone="no"?>
<!DOCTYPE svg PUBLIC "-//W3C//DTD SVG 1.1//EN" "http://www.w3.org/Graphics/SVG/1.1/DTD/svg11.dtd" >
<svg xmlns="http://www.w3.org/2000/svg">
<metadata>
This is a custom SVG webfont generated by Font Squirrel.
Copyright   : Cimatics was designed by Ludi and Ivan OSP July 2009 httpospublishconstantvzworgIt is based on URW Gothic LCopyright URW Copyright 1999 by URW Design  Development Cyrillic glyphs added by Valek Filippov C 20012005
Designer    : Ludi and Ivan
Foundry     : OSP
</metadata>
<defs>
<font id="CimaticsTrash" horiz-adv-x="1146" >
<font-face units-per-em="2048" ascent="1638" descent="-410" />
<missing-glyph horiz-adv-x="573" />
<glyph unicode=" " horiz-adv-x="573" d="M942 1751q25 51 100 129q96 80 222 80v43l2 4h24v-4v-43h2q176 0 289 -174q16 -31 16 -35v-2q-10 4 -16 20q-14 8 -37 9h-18q-59 0 -105 -35v-19q0 -4 -4 -6l-12 23q-61 23 -115 22v-243q0 -37 -43 -45h-12q-35 0 -51 34v11v8l2 2h18v-2v-4q4 -37 31 -37h4q20 0 29 20 l2 17v239q-84 0 -119 -22q-6 -18 -12 -19l-2 2v5l2 18q-29 23 -107 31h-26q-39 0 -54 -21l-8 -6h-2zM1018 2025q0 23 74 64q-10 -82 -48 -82h-4q-22 4 -22 18zM1184 2126q0 23 73 65q-12 -84 -49 -84h-2q-22 5 -22 19zM1327 2173v2q0 20 74 63q-10 -82 -47 -81h-2 q-25 2 -25 16zM1354 2056v2q0 23 71 64h2q-12 -82 -49 -82h-2q-22 4 -22 16zM1497 2142q0 23 74 64q-10 -82 -47 -82h-4q-23 2 -23 18zM1505 1921q0 23 72 66h2q-12 -84 -49 -84h-2q-23 4 -23 18zM1542 2056v2q0 23 72 64h2q-12 -82 -49 -82h-2q-23 2 -23 16zM5327 -991 q0 55 19.5 103t59.5 87t87 59.5t102 20.5t103.5 -20.5t87.5 -59.5t58 -87t19 -103t-19 -102.5t-58 -87.5t-87.5 -59.5t-103.5 -19.5t-102 19.5t-87 59.5t-59.5 87.5t-19.5 102.5zM5386 -991q0 -43 15.5 -80t46.5 -68t67.5 -46t79.5 -15t80 15.5t68 45.5q31 31 46 68t15 80 t-15.5 80t-45.5 67q-31 31 -68 47q-37 14 -80 14.5t-80 -14.5q-37 -16 -67 -47q-31 -31 -46.5 -67.5t-15.5 -79.5zM5468 -991q0 53 37 90t90 37q27 0 50.5 -9.5t39.5 -27.5q18 -18 27.5 -41t9.5 -49q0 -53 -37 -90t-91 -37t-90 37t-36 90zM5519 -991q0 -33 21.5 -54.5 t54.5 -21.5t54.5 21.5t21.5 53t-21.5 54.5t-54.5 23t-54.5 -21.5t-21.5 -54.5z" />
<glyph unicode="!" horiz-adv-x="573" d="M147 0v262h273v-262h-273zM147 385v1128h273v-1128h-273z" />
<glyph unicode="&#x22;" horiz-adv-x="737" d="M152 1051v462h155v-462h-155zM424 1051v462h156v-462h-156z" />
<glyph unicode="#" d="M70 477v205h225l24 182h-196v203h225l60 446h184l-60 -446h179l59 446h184l-59 -446h182v-203h-211l-24 -182h182v-205h-209l-65 -477h-185l66 477h-178l-64 -477h-186l65 477h-198zM479 682h178l25 182h-176z" />
<glyph unicode="$" d="M121 483v27h274q4 -80 51.5 -128t121 -48t122.5 49t49 121q0 92 -80 143q-37 25 -215 92q-264 96 -264 369q0 180 115 295q57 55 156 78v272h260v-272q104 -20 177 -120.5t77 -232.5h-258q-25 127 -134 127q-53 0 -86.5 -36.5t-33.5 -94.5q0 -80 59 -123q39 -31 174 -81 q150 -51 213 -107q113 -100 113 -299q0 -158 -79 -269.5t-222 -150.5v-270h-260v270q-106 31 -177 86q-72 57 -112.5 138t-40.5 165z" />
<glyph unicode="%" horiz-adv-x="1761" d="M43 1169q0 156 108.5 263.5t264.5 107.5q150 0 259 -108.5t109 -260.5q0 -154 -108.5 -262t-262 -108t-262 108t-108.5 260zM264 1171.5q0 -63.5 44 -107.5t105.5 -44t106.5 45t45 106.5t-45 106.5t-106.5 45t-105.5 -44t-44 -107.5zM457 0l624 1513h211l-626 -1513h-209 zM969 342q0 156 108.5 263.5t263.5 107.5q150 0 259.5 -108.5t109.5 -260.5q0 -154 -108.5 -262.5t-262 -108.5t-262 108.5t-108.5 260.5zM1190 344.5q0 -63.5 44 -107.5t105.5 -44t106.5 45t45 106.5t-45 106.5t-106.5 45t-105.5 -44t-44 -107.5z" />
<glyph unicode="&#x26;" horiz-adv-x="1392" d="M72 457q0 137 67.5 239.5t214.5 190.5q-74 84 -100.5 141t-26.5 137q0 158 111 266.5t272 108.5q166 0 277.5 -106.5t111.5 -266.5q0 -154 -92 -258q-41 -45 -145 -112l137 -154l148 244h305l-262 -449l270 -288l-195 -177l-215 228q-96 -129 -180 -178.5t-205 -49.5 q-207 0 -350 140.5t-143 343.5zM344 440q0 -84 58.5 -140t146.5 -56q68 0 115 34.5t98 127.5l-236 253q-182 -82 -182 -219zM487 1161q0 -41 22.5 -80t82.5 -96q86 47 116.5 82t30.5 92q0 55 -34.5 90t-90.5 35q-53 0 -90 -36t-37 -87z" />
<glyph unicode="'" horiz-adv-x="450" d="M152 1051v462h155v-462h-155z" />
<glyph unicode="(" horiz-adv-x="778" d="M152 614q0 217 83.5 415t231.5 331q104 94 248 153v-294q-287 -221 -287 -605q0 -180 81 -348t206 -250v-297q-92 33 -160 78t-141 125q-125 139 -193.5 320.5t-68.5 371.5z" />
<glyph unicode=")" horiz-adv-x="778" d="M76 14q287 221 286 604q0 180 -80.5 348.5t-205.5 250.5v296q92 -33 159.5 -77.5t141.5 -124.5q125 -139 193.5 -320.5t68.5 -372.5q0 -217 -84 -414.5t-231 -330.5q-104 -94 -248 -154v295z" />
<glyph unicode="*" horiz-adv-x="901" d="M143 1135v145l203 -10l-108 176l129 65l90 -176l94 178l121 -73l-111 -170l199 12v-147l-199 10l109 -164l-117 -78l-96 180l-88 -180l-131 64l106 182z" />
<glyph unicode="+" horiz-adv-x="1228" d="M104 639v242h394v399h245v-399h394v-242h-394v-399h-245v399h-394z" />
<glyph unicode="," horiz-adv-x="573" d="M147 0v262h273v-276q0 -168 -131 -240q-55 -33 -142 -33v137q66 12 93.5 39t27.5 76q0 23 -2 35h-119z" />
<glyph unicode="-" horiz-adv-x="860" d="M152 469v242h567v-242h-567z" />
<glyph unicode="." horiz-adv-x="573" d="M147 0v262h273v-262h-273z" />
<glyph unicode="/" horiz-adv-x="942" d="M53 -262l662 1775h192l-661 -1775h-193z" />
<glyph unicode="0" d="M61 506v514q0 240 137.5 380t370.5 140q229 0 367.5 -137t138.5 -369v-528q0 -211 -96 -346q-133 -186 -397 -187q-279 0 -424 193q-97 131 -97 340zM287 -502q0 109 31.5 147t123.5 40v47l148 147h170v-194q92 -2 125 -40t33 -147v-51q0 -115 -38 -151.5t-151 -36.5 h-256q-113 0 -149.5 36.5t-36.5 151.5v51zM319 -502v-51q0 -100 28 -128t126 -28h256q98 0 127 29t29 127v51q0 94 -24.5 123t-100.5 31v-246h-318v246q-78 -2 -100.5 -31t-22.5 -123zM334 514q0 -141 61.5 -216t177.5 -75q123 0 181 84q49 66 49 201v512q0 131 -60.5 200.5 t-171 69.5t-174 -72.5t-63.5 -197.5v-506zM475 -295v-266h252v407h-109v-141h-143zM494 -262h92v90z" />
<glyph unicode="1" d="M313 1257v256h463v-1513h-272v1257h-191z" />
<glyph unicode="2" d="M70 991q0 201 80 326q63 104 175.5 163.5t245.5 59.5q211 0 352.5 -141.5t141.5 -349.5q0 -160 -90 -291q-57 -90 -203 -221l-309 -281h596v-256h-979v240l538 510q174 166 175 303q0 102 -62.5 169.5t-157.5 67.5q-106 0 -170.5 -82t-64.5 -217h-268z" />
<glyph unicode="3" d="M31 459h274q14 -106 81 -171t165 -65q102 0 169.5 72t67.5 180q0 115 -80.5 184.5t-215.5 69.5h-46v262q102 2 146 21q88 37 88 135q0 63 -37 103t-96 40q-109 0 -127 -137h-277q8 92 30 149.5t69 108.5q119 129 303 129q176 0 291.5 -116.5t115.5 -290.5 q0 -168 -127 -261q236 -104 236 -391q0 -219 -144.5 -363.5t-363.5 -144.5q-217 0 -363.5 136.5t-158.5 349.5z" />
<glyph unicode="4" d="M0 227v222l696 1064h230v-1042h159v-244h-159v-227h-273v227h-653zM276 471h377v584z" />
<glyph unicode="5" d="M25 453h272q20 -111 83.5 -170.5t162.5 -59.5q111 0 180.5 78t69.5 201q0 115 -71 192.5t-175 77.5q-119 0 -211 -115l-242 66l142 790h684v-256h-480l-49 -278q102 43 195 43q207 0 343 -146.5t136 -369.5q0 -227 -147.5 -380t-366.5 -153q-256 0 -416 195 q-102 125 -110 285z" />
<glyph unicode="6" d="M43 496q0 109 34 205t116 219l395 593h325l-362 -538q61 20 123 20q180 0 299 -136t119 -343q0 -236 -146.5 -389.5t-372.5 -153.5q-229 0 -379.5 149t-150.5 374zM315 489q0 -117 73 -191.5t185 -74.5q109 0 177.5 74t68.5 192q0 117 -70.5 193t-179.5 76 q-113 0 -183.5 -74t-70.5 -195z" />
<glyph unicode="7" d="M133 1257v256h891v-256l-553 -1257h-307l573 1257h-604z" />
<glyph unicode="8" d="M63 473q0 160 87 264q41 53 131 105q-70 76 -97.5 137t-27.5 145q0 174 120.5 295t294.5 121q178 0 296 -117.5t118 -294.5q0 -184 -127 -286q84 -51 121 -92q92 -109 92 -275q0 -215 -143.5 -358.5t-358.5 -143.5q-213 0 -359.5 144.5t-146.5 355.5zM336 463 q0 -102 67.5 -171t167.5 -69q96 0 162 68.5t66 169.5q0 98 -66.5 167.5t-161.5 69.5q-98 0 -166.5 -67.5t-68.5 -167.5zM416 1124q0 -68 46 -115.5t109.5 -47.5t108.5 48t45 117.5t-44 116.5t-108 47q-68 0 -112.5 -47t-44.5 -119z" />
<glyph unicode="9" d="M45 997q0 238 145.5 390.5t368.5 152.5q229 0 380 -149.5t151 -374.5q0 -199 -150 -422l-395 -594h-326l365 539q-66 -25 -123 -25q-176 0 -296 139t-120 344zM317 1024q0 -117 70 -192.5t178 -75.5q113 0 182.5 74.5t69.5 193.5q0 117 -72.5 191.5t-185.5 74.5 q-106 0 -174 -74.5t-68 -191.5zM1810 -205h623v-102h-623v102zM2433 0h623v-307h-623v307zM5738 2228q0 55 19.5 103.5t59.5 87.5t87 59.5t102.5 20.5t102.5 -20.5t87 -59.5t59.5 -87t19.5 -104q0 -55 -19.5 -102t-59.5 -87t-87 -59.5t-102.5 -19.5t-102.5 19.5t-87 59.5 t-59.5 87t-19.5 102zM5798 2228q0 -43 15.5 -80t45.5 -67q31 -31 68 -46.5t80 -15.5t80 15.5t67 46.5q31 31 46.5 67.5t15.5 79.5t-15.5 80t-46.5 68t-67 47q-37 14 -80 14t-80 -14q-37 -16 -68 -47t-46 -68t-15 -80zM5880 2228q0 53 37 90t90 37q27 0 49 -9t41 -28 q18 -18 27.5 -40.5t9.5 -49.5q0 -53 -37 -90t-91.5 -37t-90 37t-35.5 90zM5931 2228q0 -33 21.5 -54.5t53.5 -21.5t54.5 21.5t22.5 53.5t-22.5 54.5t-54.5 22.5t-53.5 -21.5t-21.5 -54.5zM13887 -3222q0 55 19.5 102.5t59.5 87.5t87 59.5t102.5 19.5t103.5 -19.5t87 -59.5 t58.5 -87t19.5 -103q0 -55 -19.5 -102t-58.5 -87t-87 -59.5t-103.5 -19.5t-102.5 19.5t-87 59.5t-59.5 87t-19.5 102zM13947 -3222q0 -43 15.5 -79.5t45.5 -67.5q31 -31 68 -46t80 -15t80 15t67 46q31 31 46.5 67.5t15.5 79.5t-15.5 80t-46.5 68t-67 47q-37 14 -80 14 t-80 -14q-37 -16 -68 -47t-46 -68t-15 -80zM14029 -3222q0 53 37 90t90 37q27 0 50.5 -9t39.5 -27q18 -18 27.5 -41t9.5 -50q0 -53 -37 -89.5t-91.5 -36.5t-90 35.5t-35.5 90.5zM14080 -3222.5q0 -31.5 21.5 -53t54.5 -21.5t54.5 21.5t21.5 53t-21.5 54t-54.5 22.5 t-54.5 -22.5t-21.5 -54z" />
<glyph unicode=":" horiz-adv-x="573" d="M147 0v262h273v-262h-273zM147 756v272h273v-272h-273z" />
<glyph unicode=";" horiz-adv-x="573" d="M147 0v262h273v-276q0 -137 -88 -211q-70 -61 -185 -62v137q66 12 93.5 39t27.5 76v35h-121zM147 756v272h273v-272h-273z" />
<glyph unicode="&#x3c;" horiz-adv-x="1228" d="M100 528v201l1043 463v-240l-699 -321l699 -326v-237z" />
<glyph unicode="=" horiz-adv-x="1228" d="M104 430v242h1033v-242h-1033zM104 829v242h1033v-242h-1033z" />
<glyph unicode="&#x3e;" horiz-adv-x="1228" d="M98 68v237l701 322l-701 325v240l1043 -463v-201z" />
<glyph unicode="?" d="M66 1065q14 190 98 297q63 84 161.5 131t206.5 47q197 0 329 -134t132 -335q0 -102 -45 -182t-164 -184q-84 -72 -107.5 -129.5t-25.5 -192.5h-272q-2 190 48 293.5t202 228.5q92 80 92 174q0 82 -55.5 136.5t-139.5 54.5q-162 0 -188 -205h-272zM379 0v262h272v-262 h-272z" />
<glyph unicode="@" horiz-adv-x="1515" d="M6 772q0 340 226.5 568.5t562.5 228.5q217 0 393 -102.5t262 -276.5q76 -156 76 -377q0 -236 -135 -377q-125 -121 -297 -121q-164 0 -203 111q-74 -111 -232 -111q-154 0 -245.5 105.5t-91.5 286.5q0 203 118.5 339t294.5 136q84 0 137.5 -27t104.5 -92l14 111h197 l-68 -605q-2 -10 -2 -30q0 -53 56 -54q82 0 142 107.5t60 253.5q0 256 -159.5 415.5t-417.5 159.5q-279 0 -463 -186t-184 -469q0 -137 54 -264t152 -217q178 -162 463 -162q176 0 305 96l95 -123q-158 -123 -404 -123q-393 0 -620 271q-191 219 -191 528zM567 727 q0 -90 43 -142.5t117 -52.5q90 0 147.5 66t57.5 168q0 86 -42 136t-114 50q-86 0 -147.5 -65.5t-61.5 -159.5z" />
<glyph unicode="A" horiz-adv-x="1515" d="M0 1065h57l201 -479l387 927h221l635 -1513h-309l-162 391h-538l-168 -391h-310l215 516zM594 659h324l-162 459zM1204 -582h58l254 -606h-58zM1581 307h57l254 -606h-57zM4022 2363v156h475v-156h-475zM4022 2603l238 264l237 -264h-475zM6144 377h57l254 -606h-57z M7158 -722q0 48 23.5 103.5t68.5 97.5t98 42q41 0 63.5 -22.5t22.5 -63.5q0 -57 -40 -116.5t-95 -61.5q-29 0 -41 20.5t-12 42.5q0 31 20.5 52.5t40.5 21.5q29 0 29 -39q0 -25 -18.5 -45.5t-34.5 -20.5h-2q10 -8 26 -8q37 0 70 50.5t33 95.5q0 33 -17.5 51t-50.5 18 q-59 0 -108.5 -69.5t-49.5 -139.5q0 -25 6.5 -47t29 -40.5t54.5 -18.5q39 0 70 19.5t58.5 58.5t60.5 96l74 133h8l-8 -205l82 172h6l-2 -164l80 146l2 -131l59 102l14 -70q8 -37 29 -36q12 0 25 10l32 26l19 -12q-8 -6 -22.5 -18.5t-19.5 -16.5t-17.5 -8t-26.5 -6 q-20 0 -27.5 13.5t-17.5 56.5l-64 -111l-4 127l-82 -154v164l-84 -178h-6l6 213l-51 -90l-43 -70l-47 -53l-49 -29l-62 -10q-57 0 -82.5 37t-25.5 85zM7268 -676q0 -16 15 -16h2q10 0 19 14t9 31q0 18 -14 18q-12 0 -21.5 -15.5t-9.5 -31.5zM16728 1896h57l254 -606h-57z " />
<glyph unicode="B" horiz-adv-x="1187" d="M139 0v1513h312q170 0 256 -15t153 -58q172 -111 172 -330q0 -106 -39 -172t-129 -113q129 -53 185 -127q74 -96 73 -247q0 -117 -51 -213.5t-145 -153.5q-135 -84 -383 -84h-404zM420 268h139q147 0 214 45t67 144q0 199 -287 198h-133v-387zM420 930h90q127 0 184.5 37 t57.5 118q0 154 -217 154h-115v-309z" />
<glyph unicode="C" horiz-adv-x="1597" d="M61 762q0 164 66 310.5t180 256.5l-190 250q-23 31 -32 62.5t-7 59.5t13 52.5t29.5 41.5t43 27.5t53.5 10.5q33 0 60.5 -10.5t43 -27.5t27.5 -37.5t16.5 -41t6.5 -37t2 -28.5v-9v-258q16 12 33 23v235v9q0 12 3 28.5t7 37t15 41t27.5 37.5t43 27.5t59.5 10.5 q29 0 54.5 -10.5t44 -27.5t29.5 -41.5t13.5 -52.5t-8 -59.5t-32.5 -62.5l-58 -76q115 37 236 37q287 0 501 -174q76 -63 123 -125.5t92 -161.5h-313q-78 100 -172 145.5t-225 45.5q-236 0 -377 -166q-125 -145 -125 -344q0 -213 149.5 -364.5t358.5 -151.5q111 0 197 41 t178 137h329q-88 -207 -277 -328t-421 -121q-332 0 -564.5 230.5t-232.5 558.5zM3387 1491v51v51v52v51v51h52v-51v-51v-52v-51v-51h-52zM3439 1440v51h51v-51h-51zM3439 1747v51h51v-51h-51zM3490 1389v51h205v-51h-205zM3490 1542v51h51v-51h-51zM3490 1645v51h51v-51h-51 zM3490 1798v51h205v-51h-205zM3541 1491v51h102v51h52v-51h-52v-51h-102zM3643 1645v51h52v-51h-52zM3695 1440v51h51v-51h-51zM3695 1747v51h51v-51h-51zM3746 1491v51v51v52v51v51h51v-51v-51v-52v-51v-51h-51zM8823 78l149 41l-106 106l143 -37l-37 144l109 -107l37 146 l41 -146l114 107l-41 -144l144 37l-103 -106l142 -41l-142 -45l103 -107l-144 37l41 -143l-114 106l-41 -145l-37 145l-109 -106l37 143l-143 -37l106 107zM16318 -1620h52v-51v-51v-52v-51v-51h-52v51v51v52v51v51zM16370 -1569h51v-51h-51v51zM16370 -1876h51v-51h-51v51z M16421 -1518h205v-51h-205v51zM16421 -1671h51v-51h-51v51zM16421 -1774h51v-51h-51v51zM16421 -1927h205v-51h-205v51zM16472 -1825h102v51h52v-51h-52v-51h-102v51zM16574 -1671h52v-51h-52v51zM16626 -1569h51v-51h-51v51zM16626 -1876h51v-51h-51v51zM16677 -1620h51 v-51v-51v-52v-51v-51h-51v51v51v52v51v51z" />
<glyph unicode="D" horiz-adv-x="1433" d="M139 0v1513h346q356 0 537 -108q158 -94 244 -265t86 -386q0 -229 -98.5 -406.5t-272.5 -263.5q-168 -84 -489 -84h-353zM420 268h61q248 0 369 68q100 55 159.5 167.5t59.5 250.5q0 145 -61.5 259.5t-169.5 170.5q-121 61 -363 61h-55v-977z" />
<glyph unicode="E" horiz-adv-x="1064" d="M139 0v1513h813v-268h-532v-356h510v-268h-510v-353h532v-268h-813z" />
<glyph unicode="F" horiz-adv-x="983" d="M139 0v1513h770v-268h-489v-356h467v-268h-467v-621h-281z" />
<glyph unicode="G" horiz-adv-x="1720" d="M61 760q0 326 232.5 553t564.5 227q248 0 457 -133t282 -338h-329q-143 201 -416 201q-229 0 -367 -150q-63 -68 -102 -167t-39 -197q0 -217 150.5 -364.5t373.5 -147.5q150 0 266.5 69.5t178.5 196.5h-627v262h989v-37q0 -301 -217 -528q-227 -233 -573 -234 q-348 0 -586 227.5t-238 559.5z" />
<glyph unicode="H" horiz-adv-x="1392" d="M139 0v1513h281v-610h541v610h280v-1513h-280v635h-541v-635h-281z" />
<glyph unicode="I" horiz-adv-x="573" d="M-326 723q2 6 1 14t-1 15q2 4 20.5 22.5t33.5 28.5q35 27 96 39q-2 4 -4 9t-2 7q-2 0 -6.5 -5t-6.5 -7q0 2 -2 4q-12 -10 -28 -19l12 15l-18 -6l8 18l-19 -10l11 12q-4 -2 -14.5 -8t-16.5 -8l8 8l-14 -4l-7 7l-10 9q18 8 58 21q4 6 10 12q-12 2 -21 2q10 8 38 14.5 t55 6.5h8q-2 2 -6 4l12 12q-2 -2 -8 -5t-13 -3q-2 8 -6 20h-16l-4 17q-2 2 -8.5 1t-8.5 -1q0 8 2 12q6 4 17 6q0 4 2 8l22 -6q25 -6 35 -12q0 -10 2 -17v7l2 4q2 0 9.5 -3t9.5 -3q-2 -6 -4 -11q4 6 6 6q6 -4 24.5 -21t22.5 -24h2l2 -2l-2 19q2 4 10 4h4q0 23 -2 29 q6 4 11.5 4t9.5 -2q4 6 12 15t10 13q12 4 19 4q8 0 16 -4q-4 -4 -2 -12q6 2 18.5 -1t20.5 -11h-2h-6h-6l-2 -2l10 -13l-15 -10l-2 -10q-2 -2 -8 -5t-10 -4t-10 -1q8 -6 8 -15q-2 0 -7 -4t-7 -4q23 10 41 16q37 12 71 19v579h281v-1101q57 -53 96 -109q33 -43 59 -70h-71 q-35 72 -84 127v-360h-281v610l-18 19q-43 43 -78 94q-2 2 -4 6q0 -2 -2 -2l4 -10v-2q20 -47 33 -62l-39 47v-4q12 -33 18 -84q-4 -6 -8 -10v-10q-2 -2 -5 -4t-5 -2q4 -4 6 -17q-8 -2 -12 -8q-2 -4 -11 -12q0 6 -6 14q-4 -4 -8 -4q-2 4 -4 10q-4 6 -4 9q-4 0 -10 4 q0 14 -2 22q-4 2 -13 0q4 12 9 19l-13 2v12q0 12 2 12q-2 2 -6 4t-6 4q4 6 6 13l-14 20q8 10 8 33q6 14 10 18q0 2 -8 23q2 8 2 22l-12 7q4 -14 8 -21q-10 12 -16 25q10 -31 10 -33q-4 6 -6 10q2 -8 0 -18q-6 -2 -8 -4v-2q-6 -6 -9 -7q0 -6 6.5 -20t6.5 -21l-4 -4 q-4 -4 -9 -6v-7q0 -3 1 -7t3 -8l-6 -2q-6 -2 -10 -2t-8 -7l-2 -2q2 -6 3 -11t1 -13t2 -10l-8 4q-2 -4 -1 -14.5t-1 -14.5l-11 8l7 -12l-7 -4l-6 -12q-2 0 -4 1t-4 1v-5v-6h-10q-2 12 -8 25l-2 -8v-11q-2 2 -3 6.5t-4 6.5q-6 -6 -6 -13q-2 4 -4 12.5t-4 10.5l-6 -10 q-2 8 0 23.5t2 19.5l-2 2l-4 4q4 16 14 33q-2 4 -6 6q-2 4 -4 6q4 -12 4 -14l-8 12v-2v-10l-2 -13q-4 8 -8 15q2 -10 6 -19l-6 4q-6 6 -9 11l7 -23l-7 8q4 -10 5 -16q-4 8 -13 16q0 -8 2 -16l-10 12l8 -20l-12 12q-2 -10 2 -21q-2 2 -6 5.5t-6 7.5q0 -10 -4 -17l-6 13 q0 -4 1 -15.5t-1 -15.5l-5 6l-2 -10q-4 10 -6 18q4 33 23 70q6 12 25.5 37.5t29.5 38.5q18 18 41 39q4 6 6 12l-4 4q-2 0 -4 -2l4 4q-2 2 -2 6l-2 -2q-2 -2 -6 -7t-6 -9v6v8q-10 -14 -15 -31l-2 11q-2 12 -2 16q0 -4 -5 -12t-7 -13q0 8 4 23l-14 -29v13v12q-10 -16 -15 -29 q-2 14 0 19q-14 -14 -18 -27l-4 18q-12 -12 -19 -20q-2 6 0 20q-2 -4 -5 -13t-7 -13q0 10 2 20l-10 -26q-2 8 0 20q-8 -12 -12 -20l-2 20q-2 -4 -2 -9t-1 -11t-1 -11q-4 8 -7 15q-4 -6 -4 -17q-4 14 -2 25l-10 -35q-2 25 -4 31q-2 -4 -4 -14.5t-2 -12.5v9v10 q-10 -20 -10 -23l2 17q-2 -2 -3.5 -6.5t-2.5 -9.5t-3 -9zM63 768q4 -20 15 -35q10 -18 21.5 -35.5t29.5 -40.5l10 -10v66q-4 8 -4 28q-4 -8 -4 -16l-2 2q4 -23 2 -41q-2 0 -3 6t-3 10q-2 -10 -8 -14q-14 27 -21 53q0 6 -1 10.5t-3 8.5t-4 6h-6v2h-2l-2 -6q0 -4 -2 -6 q-2 10 -2 20l-2 2q-5 -4 -9 -10zM3244 1460v408l406 -203zM3650 1665v408l405 -205zM8307 -1212l405 -205l-405 -203v408zM8712 -1417l406 -203l-406 -205v408z" />
<glyph unicode="J" horiz-adv-x="983" d="M18 358h281q29 -115 133 -114q135 0 135 198v1071h281v-1079q0 -213 -109.5 -337t-300.5 -124q-199 0 -323 138q-45 51 -66 104t-31 143z" />
<glyph unicode="K" horiz-adv-x="1269" d="M139 0v1513h281v-653l469 653h338l-570 -743l570 -770h-338l-469 666v-666h-281z" />
<glyph unicode="L" horiz-adv-x="901" d="M139 0v1513h281v-1245h463v-268h-744z" />
<glyph unicode="M" horiz-adv-x="1843" d="M139 0v1513h385l281 -788q14 -4 26 -12q16 -16 19 -47h-25l31 -88q31 0 47 -15q16 -16 19 -47h-25q-2 16 -12 25q-8 4 -17 6l64 -180l31 88q2 29 16 43l229 653h-2q-10 8 -28 8t-28.5 -8t-14.5 -25h-25q2 31 19.5 46.5t48.5 15.5q25 0 41 -8l116 333h385v-1001 q6 -2 11 -6q18 -16 18 -47h-25q0 8 -4 14v-258q6 -4 11 -8q18 -14 18 -45h-25q0 8 -4 14v-176h-280v946q-6 2 -17 2q-18 0 -28.5 -7t-12.5 -23h-18l-31 -91q8 2 19 2q31 0 48 -15t19 -46h-26q-2 14 -13 23q-10 8 -28 8t-29 -6l-4 -5l-23 -63q16 -4 27 -12q16 -16 20 -47h-26 q-2 16 -12 24q-6 4 -17 6l-45 -127q4 -2 8 -6q16 -16 19 -47h-25q-2 16 -12 25l-189 -541h-229l-395 1135v-1135h-281zM788 815q0 31 17.5 46.5t48.5 15.5t48.5 -15.5t19.5 -46.5h-25q-2 16 -13.5 24.5t-29.5 8.5t-28.5 -8.5t-12.5 -24.5h-25zM864 918q2 29 18.5 45t48.5 16 t48 -16q12 -12 16 -31q14 6 33 6q33 0 49.5 -15.5t18.5 -45.5h-25q-2 16 -12 24q-12 8 -31 8q-16 0 -26.5 -8t-14.5 -24h-24q0 25 12 41h-2q-2 14 -12 22t-31 8q-16 0 -26.5 -7t-14.5 -23h-25zM936 768q2 31 19.5 46t48 15t48 -15t17.5 -46h-25q-2 14 -12 22.5t-28 8.5 t-28.5 -7.5t-12.5 -23.5h-27zM936 1065q2 31 19.5 46t48 15t48 -15t17.5 -46h-25q-2 16 -12 24.5t-28 8.5t-28.5 -8.5t-12.5 -24.5h-27zM1380 967q16 12 43 12q8 0 17 -2v158l-23 -62q2 -4 2 -8h-4zM1790 98q2 33 19.5 47.5t48 14.5t47 -14.5t20.5 -47.5h-27q-2 16 -12 25 q-10 8 -28 8t-28.5 -8t-14.5 -25h-25zM1790 520q2 31 19.5 46.5t48 15.5t47 -15.5t20.5 -46.5h-27q-2 16 -12 25q-10 8 -28 8t-28.5 -8t-14.5 -25h-25zM1964 162q2 31 19.5 46t48 15t48 -15t19.5 -46h-26q-2 14 -13 22q-10 8 -28 9q-18 0 -28.5 -7.5t-12.5 -23.5h-27z M1964 459q2 31 19.5 46t48 15t48 -15.5t19.5 -45.5h-26q-2 16 -13 24q-10 8 -28 9q-18 0 -28.5 -8.5t-12.5 -24.5h-27zM2036 311q4 29 20.5 45.5t47 16.5t48 -16.5t19.5 -45.5h-25q-4 14 -14 23q-10 8 -29 8q-18 0 -28.5 -7t-12.5 -24h-26zM2683 2040q2 29 18.5 45t48 16 t48 -16.5t18.5 -44.5h-25q-2 14 -12 22t-31 9q-16 0 -26 -7.5t-15 -23.5h-24zM2755 1890q2 31 19 46.5t48 15.5t48.5 -15.5t17.5 -46.5h-25q-2 14 -12 22.5t-29 8.5q-18 0 -28.5 -7t-12.5 -24h-26zM2755 2187q2 31 19 46.5t48 15.5t48.5 -15.5t17.5 -46.5h-25 q-2 16 -12 24.5t-29 8.5q-18 0 -28.5 -8t-12.5 -25h-26zM2929 1827q2 33 19.5 47t48 14t47 -14t20.5 -47h-27q-2 16 -12 24t-29 9q-18 0 -28.5 -8.5t-14.5 -24.5h-24zM2929 2249q2 31 19.5 46t48 15t47 -15.5t20.5 -45.5h-27q-2 16 -12 24t-29 8q-18 0 -28.5 -8t-14.5 -24 h-24zM3103 1890q2 31 19.5 46.5t48 15.5t48 -15.5t19.5 -46.5h-27q-2 14 -12 23q-10 8 -29 8q-18 0 -28.5 -7t-12.5 -24h-26zM3103 2187q2 31 19.5 46.5t48 15.5t48 -15.5t19.5 -46.5h-27q-2 16 -12 25q-10 8 -29 8q-18 0 -28.5 -8t-12.5 -25h-26zM3174 2040q4 29 20.5 45 t47.5 16t48.5 -16.5t19.5 -44.5h-25q-4 14 -14 22t-29 9q-18 0 -28.5 -7.5t-12.5 -23.5h-27zM5894 -150q0 31 17.5 46.5t48 15.5t48 -15.5t19.5 -46.5h-26q-2 16 -13 25q-10 8 -28 8t-28.5 -8t-12.5 -25h-25zM5966 0q2 31 18.5 46t47 15t48 -15t19.5 -46h-25q-2 16 -13 24.5 t-30 8.5q-18 0 -28.5 -8.5t-12.5 -24.5h-24zM5966 -299q2 31 18.5 46t47 15t48 -15t19.5 -46h-25q-2 16 -13 24.5t-30 8.5q-18 0 -28.5 -8.5t-12.5 -24.5h-24zM6140 61q2 31 18.5 46.5t48 15.5t48 -15.5t18.5 -46.5h-25q-2 16 -12 25q-10 8 -31 8q-16 0 -26 -8t-15 -25h-24z M6140 -360q2 31 18.5 46t48 15t48 -15.5t18.5 -45.5h-25q-2 16 -12 24t-31 8q-16 0 -26 -8t-15 -24h-24zM6314 0q2 31 18.5 46t48 15t48 -15t18.5 -46h-24q-2 16 -13 25q-10 8 -28 8t-29.5 -8.5t-13.5 -24.5h-25zM6314 -299q2 31 18.5 46t48 15t48 -15t18.5 -46h-24 q-2 16 -13 25q-10 8 -28 8t-29.5 -8.5t-13.5 -24.5h-25zM6386 -150q2 31 19.5 46.5t48 15.5t47 -15.5t20.5 -46.5h-27q-2 16 -12 25q-10 8 -29 8q-18 0 -28.5 -8t-14.5 -25h-24zM7353 -520q11 25 29.5 42t43.5 27.5t53 10.5q33 0 60.5 -10.5t43 -28t28 -38t16.5 -41t6 -36.5 t2 -29v-8v-401l-256 338q-23 31 -32 62q-8 26 -7 49q-1 33 13 63zM7668 -623q0 12 2 29q4 16 8 37q4 20 15.5 40.5t27.5 38t43 28t59 10.5q29 0 54.5 -10.5t44 -28t30 -42t13.5 -52t-8.5 -59.5t-32.5 -62l-256 -338v401v8zM16056 3375q0 31 17.5 46.5t48.5 15.5t48 -15.5 t19 -46.5h-26q-2 16 -12 25q-10 8 -29 8q-18 0 -28.5 -8.5t-12.5 -24.5h-25zM16128 3226q2 31 18.5 46t47 15t48 -15.5t19.5 -45.5h-24q-2 16 -13.5 24t-29.5 8t-28.5 -8t-12.5 -24h-25zM16128 3525q2 31 18.5 46t47 15t48 -15.5t19.5 -45.5h-24q-2 14 -13.5 22t-29.5 8 t-28.5 -7t-12.5 -23h-25zM16302 3164q2 31 18.5 46.5t48 15.5t48 -15.5t18.5 -46.5h-24q-2 16 -13 25q-10 6 -30 6q-16 0 -26.5 -7t-14.5 -24h-25zM16302 3586q2 31 18.5 46t48 15t48 -15t18.5 -46h-24q-2 16 -13 23q-10 8 -30 8q-16 0 -26.5 -7.5t-14.5 -23.5h-25z M16476 3226q2 31 18.5 46t48 15t48 -15.5t18.5 -45.5h-24q-2 16 -13 24q-10 8 -28 8t-29.5 -8t-13.5 -24h-25zM16476 3525q2 31 18.5 46t48 15t48 -15.5t18.5 -45.5h-24q-2 14 -13 22q-10 8 -28 8t-29.5 -7t-13.5 -23h-25zM16548 3375q2 31 19.5 46.5t48 15.5t47 -15.5 t20.5 -46.5h-27q-2 16 -12 25q-10 8 -29 8q-18 0 -28 -8.5t-15 -24.5h-24z" />
<glyph unicode="N" horiz-adv-x="1515" d="M139 0v1513h320l626 -1101v1101h281v-1513h-313l-633 1100v-1100h-281z" />
<glyph unicode="O" horiz-adv-x="1720" d="M61 756q0 332 230.5 558t568.5 226q324 0 551 -229.5t227 -552.5q0 -332 -225 -558.5t-555 -226.5q-334 0 -565.5 227.5t-231.5 555.5zM344 756q0 -215 148.5 -363.5t363.5 -148.5t357.5 145.5t142.5 364.5q0 217 -144.5 366.5t-355.5 149.5q-219 0 -365.5 -147.5 t-146.5 -366.5z" />
<glyph unicode="P" d="M139 0v1513h375q270 0 387 -69q205 -125 205 -397q0 -131 -53.5 -239t-145.5 -165q-63 -39 -149 -53.5t-248 -14.5h-90v-575h-281zM420 844h82q164 0 229 35q92 51 92 163q0 72 -34.5 122t-96.5 67q-63 14 -178 14h-94v-401z" />
<glyph unicode="Q" horiz-adv-x="1720" d="M61 758q0 330 233.5 556t573.5 226q344 0 572.5 -225t228.5 -565q0 -297 -182 -486q88 -45 153 -45q12 0 56 6v-254q-16 -2 -37 -2q-178 0 -359 123q-172 -119 -419 -119q-342 0 -581 228.5t-239 556.5zM342 756q0 -35 4 -72q100 27 234 27q180 0 362 -78t322 -215 q123 127 122 327q0 225 -148 375t-374 150q-223 0 -372.5 -147.5t-149.5 -366.5zM432 465q168 -221 449 -221q96 0 182 39q-248 199 -485 198q-58 0 -146 -16z" />
<glyph unicode="R" horiz-adv-x="1187" d="M139 0v1513h436q156 0 248 -24.5t166 -87.5q160 -135 160 -373q0 -225 -156 -358q-86 -74 -239 -111l409 -559h-346l-397 580v-580h-281zM420 791h137q162 0 235.5 54t73.5 175q0 115 -73 172q-61 53 -248 53h-125v-454z" />
<glyph unicode="S" horiz-adv-x="1064" d="M29 432h293q18 -188 204 -188q90 0 147.5 51t57.5 133q0 96 -69 154q-51 39 -263 116q-152 57 -233.5 163t-81.5 249q0 180 129 305t311 125q223 0 355 -162q86 -106 94 -268h-291q-6 78 -47 119t-113 41q-70 0 -112.5 -43t-42.5 -111q0 -84 84 -137q20 -12 167 -68 q90 -35 138 -57v4v6h10h10h4v13h4h7h6v8v6h14h12v8v6h15h14v8v7h2h2v4v4h8h8v-4v-4h7h6v6v6h14h12v4v4h4h5v-4v-4h6h6v4v4h8h8v4v4h10h11v-4v-4h-8h-9v-6v-6h-6h-6v2v2h-4h-4v-2v-2h4h4v-4v-4h4h4v-11v-10h-8h-8v4v2h-2h-2v-12v-14h2h2v2v4h4h4v-6v-7h4v5h6h2v8v6h4h5v-2v-4 h10h10v-4v-2h6h6v-5v-2h-4h-4v-18v-18h4h4v14v14h4h4v-4v-4h33h35v-6v-6h4h4v14h13v-8v-6h16h18v-4v-4h13v-13v-8h8h8v8v8h2h2v-4v-4h6h6v-4v-4h9h8v4v4h2h2v-12v-12h4h4v6v6h6h6v2v2h4h5v-2v-2h4h4v-4v-4h-4h-4v-6v-6h8h4v4v4h12h10v-13v-10h13v10v5h4h4v-11v-10h4h2v4v2h4 h2v-6v-8h6h8v-4v-2h3h4v-4v-2h-4h-3v-13v-10h3h4v4v4h4h4v10v11h-4h-4v2v4h6h8v-4v-2h4h2v-4v-2h-2h-4v-5v-4h4h2v4v5h4h4v-13v-10h6h9v-10v-10h-13h-10v-2v-3h10h13v-10v-10h-4h-5v-4v-4h9h6v14v14h2h4v7v6h4h4v-10v-11h-4h-4v-6v-6h14h15h4v-14h8v-11v-10h-4h-4v4v2h-6h-7 v-2v-4h4h5v-4v-4h-5h-4v4v4h-4h-4v-4v-4h-6h-6v4v4h6v10v2h-2h-2v-2v-4h-2h-6v-8v-6v-6h10h8v-4v-2h4h4v-4v-5h-10h-10v-4v-4h4h4v-2v-2h-4h-4v-2v-12h-25v18h-6h-4v-16v-16h-6h-6v-3v-2h-4h-4v7v6h-4h-3v4v4h-10h-10v-8v-8h-2h-4v-3v-2h6h6v-8v-8h-10h-10v4v4h-2h-4v-4v-4 h-5h-2v-2v-2h2h5v-4v-4h-5h-2v4v4h-4h-4v-4v-4h-10h-8v4v4h-4h-4v-4v-4h-15h-14v-8v-7h4h4v-6v-6h-4h-4v-4v-4h-2h-2v10v10h-4h-4v-2v-4h-4h-5v-18v-17h-2h-2v7v8h-14h-14v2v4h-7h-6v-4v-2h6h7v-4v-2h-7h-6v-4v-5h-8h-6v5v4h-10h-10v2v4h-5h-4v2v4h-2h-2v-4v-2h-4h-4v2v4h4 h4v6v8h-4h-4v4v2h-4h-4v-2v-4h4h4v-4v-2h-4h-4v-4v-4h-2h-2v-4v-2h-10h-13v-4v-2h35v-4v-5h-10h-10v-4v-4h-5h-4v4v4h-6h-6v-4v-4h-2h-4v4v4h-4h-4v-4v-4h-4v-22q0 -205 -139.5 -345.5t-344.5 -140.5q-121 0 -226 48.5t-173 136.5q-84 108 -98 274zM831 879h5h2v2v4h-2h-5 v-4v-2zM850 854h4h4v2v2h-8v-4zM856 864h4h4v-4v-4h4h4v4v4h2h5v-6v-6h2h4v2v2h6h8v4v4h-4h-2v4v4h12h15v2v5h-5h-4v2v4h-2h-4v-4v-2h-10h-10v-5v-2h-15h-14v-4v-4zM858 844h2h4v4v4h-4h-2v-4v-4zM864 885h6h9v8v6h-5h-2v-4v-4h-4h-4v-2v-4zM885 885h4h4v4v2h-4h-4v-2v-4z M893 844h2h4v4v4h-4h-2v-4v-4zM899 750q18 -20 33 -41v6h4h4v6v6h4h4v6v8h2h2v4v5h4h5v6v6h6h6v4v4h14h14v4v2h21h18v-2v-4h9h8v-4v-4h6h6v-4v-2h4h4v-4v-2h2h2v-5v-4h4h5v-8v-6h-13h-14h-4v-10v-2h-6h-4v-10v-11h4h4v-4v-4h10h10v4v4h6h7v4v4h4h4v7v6h2h4v-6v-7h2h4v-18 v-16h-4h-2v-11v-10h-4h-2v-8v-6h-4h-4v-6v-9h-5h-4v-12h-12v-6v-6h-14h-15v-4v-4h-2h-4v4v4h-16h-17v-4v-4h7h6v-4v-4h-4h-2v-3v-2h-7h-6l4 -16h2v4v4h11h10v-4v-4h20h19v4v4h8h8v-4v-4h13h14v4v4h4h8v6v7h-6v-5h-6h-6v2v3h-4h-4v-3v-2h-21h-20v2v3h4h4v4v4h6h6v-4v-4h6h6v8 v8h4h5v2v2h6h8v4v4h2h4v-6v-6h2h4v-4v-4h4h4v6v6h-4h-4v4v4h8h6v-6v-6h7v4h4h4v4v4h6h6v2v2h4h4v4v4h2h2v9v6h5h4v-6v-9h4h4v5v4h6h6v2v4h6h6v6v8h4h5v-8v-6h4h4v6v8h6h6v4v2h12h9v4v2h-5h-2v5v4h-14h-12v4v2h8h10v4v4h-6h-8v2v2h4h4v4v4h-10h-10v15v14h-7h-6v2v2h-4h-4v4v4 h-2h-10v15h-4h-4v-5v-4h-4h-5v9v6h-4h-6h-8v14h-10h-11v4v2h-6h-8v4v2h-12h-14v9v8h-5h-4v-4v-4h-22h-25v4v4h-16h-17v-8v-9h-4h-4v4v5h-10h-10v-5v-4h-6h-6v-2v-4h-5h-4v4q0 2 -2 2h-2v-6v-6h-8h-8v-4v-4h-6h-6v-4v-2h-5h-4v-4v-2h-6h-6zM905 856h10h13v4v4h2h2v4v4h-6h-6 v-4v-4h-9h-6v-4v-4zM911 911h4h5v4v5h-5h-4v-5v-4zM928 836h2h2v4v4h-2h-2v-4v-4zM932 856h4h4v4v4h-4h-4v-4v-4zM948 803h2h2v4v4h-2h-2v-4v-4zM948 864h6h7v4v4h-7h-6v-4v-4zM961 799h4h4v6v6h-4h-4v-6v-6zM969 864h6h6v4v4h-4h-4v7h-4v-7v-8zM969 932v4v4h2h2v-4v-4h-2 h-2zM973 811h4h4v-4v-4h2h2v4v4v4v4v4h-2h-2v-4v-4h-4h-4v-2v-2zM973 940v4v4h4h4v-4v-4h-4h-4zM993 578h4h4v4v4h-4h-4v-4v-4zM993 578zM993 803h15h14v10v10h-8h-6v-4v-4h-7h-8v-6v-6zM993 928v2v2h4h4v-2v-2h-4h-4zM1001 844h3h4v4v4h-4h-3v-4v-4zM1014 498h4h4v2v4h-4 h-4v-4v-2zM1028 469v4v4h4h2v-4v-4h-2h-4zM1028 573v2v3h4h2v-3v-2h-2h-4zM1028 836h6h6v4v4h4h5v4v4h-7h-8v-4v-4h-2h-4v-4v-4zM1034 510h4h2v4v4h-2h-4v-4v-4zM1040 803h4h5v4v4h-5h-4v-4v-4zM1040 831h4h5v3v2h-5h-4v-2v-3zM1057 477v2v2h6h6v-2v-2h-6h-6zM1057 811h4v-4 v-4h10h10v2v10h-6h-10h-8v-4zM1057 823h2h2v4v4h-2h-2v-4v-4zM1057 836h2h2v4v4h-2h-2v-4v-4zM1069 481v4v4h4h4v-4v-4h-4h-4zM1081 836h4h5v4v4h-5h-4v-4v-4zM1090 510h4h4v4v4h-4h-4v-4v-4zM1090 803h10h10v-2v-2h6h8v-4v-4h4h2v4v4h3h4v-4v-4h4h4v-5v-4h4h4v4v5h4h8v4v4 h-8h-4v2v2h-8h-8v4v4h-7h-6v2v2h-4h-4v-2v-2h-10h-8v2v2h-4h-4v-6v-6zM1110 477v2v2h6h8v-2v-2h-8h-6zM1116 545h4h4v4v4h-4h-4v-4v-4zM1124 565h6h7v4v4h-7h-6v-4v-4zM1137 477v2v2h4h4v-2v-2h-4h-4zM1137 578h4h4v4v4h-4h-4v-4v-4zM1153 510h2h2v10v10h-2h-2v-10v-10z M1165 770h6h7v-4v-4h6h6v-4v-2h4h4v-6v-9h6h6v4v5h4h5v2v4h-11v14h-6h-4v4v2h-4h-4v-2v-4h-2h-2v4v2h-10h-11v-2v-4zM1165 782h2h2v4v5h-2h-2v-5v-4zM1178 803h4h4v4v4h-4h-4v-4v-4zM1186 586h2h2v4v4h4h4v2v2h-12v-12zM1190 498v6v6h4h4v-6v-6h-4h-4zM1198 530v2v5h4h8v-11 v-2h-2h-2v4v2h-4h-4zM1198 618h4h4v5v4h-4h-4v-4v-5zM1206 782h2h2v9v8h-2h-2v-8v-9zM1210 594h9h8v2v2h-8h-9v-2v-2zM1210 823v4v4h4h5v-4v-4h-5h-4zM1219 524v6v7h16h4v-5v-2h-4h-4v-2v-4h-4h-8zM1219 727h4h4v4v4h2h2v-4v-4h8h6v12h-14v6v5h-2h-2v-5v-4h-4h-4v-8v-6z M1227 606h6h6v2v2h-6h-6v-2v-2zM1231 627h8h6v2v4h-6h-8v-4v-2zM1239 770h4h2v4v2h-2h-4v-2v-4zM1239 782h4h2v4v5h-2h-4v-5v-4zM1245 606h8h7v6v6h-5h-2v5v4h-4h-4v-11v-10zM1253 578h2h5v4v4h-5h-2v-4v-4zM1253 627h7h6v6v6h4h4v4v4h-10h-11v-4v-4h2h5v-4v-2h-5h-2v-4v-2z M1253 762h2h5v4v4h-5h-2v-4v-4zM1266 610h4h4v8v9h-4h-4v-9v-8zM1266 694h4h4v4v4h-4h-4v-4v-4zM1274 741h4h2v4v5h-2h-4v-5v-4zM1286 578v4v4h4h4v-4v-4h-4h-4zM1286 598h6h6v14h-12v-8v-6zM1286 618h4h4v9v6h-4h-4v-6v-9zM1286 723h4h4v2v2h-4h-4v-2v-2zM1286 782v4v5h4h4 v-5v-4h-4h-4zM1307 594h6h8v2v2h-8h-6v-2v-2zM1307 702h4h4v3v2h-4h-4v-2v-3zM1315 682h6h6v2v2h-6h-6v-2v-2zM1321 633h6h8v2v4h-8h-6v-4v-2zM1321 715h10h10v4v4h-10h-10v-4v-4zM1337 610h4h9v-2v-2h2h4v6v6h-6h-9v5v4h-4v-9v-8zM1350 702v3v2h2h4v-2v-3h-4h-2zM1374 702 v3v2h4h4v-2v-3h-4h-4zM1374 723v2v2h4h4v-2v-2h-4h-4zM1382 659h4h5v9v6h-5h-4v-6v-9zM1382 707v4v4h4h5v-4v-4h-5h-4zM1395 633v2v4h4h4v-4v-2h-4h-4zM1423 653v4v2h2h5v-2v-4h-5h-2zM2552 2013l178 299l403 -176l29 -178l-70 -197l-307 -205l-135 27zM2597 2005l88 -387 l92 -19l283 189l61 174l-24 145l-351 154zM5745 -465q25 51 100 129q96 80 221 80v43l2 4h25v-4v-43h2q176 0 289 -174q16 -31 16 -35v-2q-10 4 -16 21q-14 8 -37 8h-19q-59 0 -104 -35v-19q0 -4 -4 -6l-13 23q-61 23 -114 22v-243q0 -37 -43 -45h-12q-35 0 -52 34v11v8l2 2 h19v-2v-4q4 -37 31 -37h4q20 0 28 20l2 17v239q-84 0 -118 -22q-6 -18 -13 -19l-2 2v5l2 18q-29 23 -106 31h-27q-39 0 -53 -21l-8 -6h-2zM5820 -190q0 23 74 63q-10 -82 -47 -82h-4q-23 5 -23 19zM5986 -90q0 23 74 65q-12 -84 -49 -84h-2q-23 5 -23 19zM6130 -41 q0 20 73 64q-10 -82 -47 -82h-2q-25 2 -24 16v2zM6156 -158q0 23 72 64h2q-12 -82 -49 -82h-2q-23 4 -23 16v2zM6300 -74q0 23 73 64q-10 -82 -47 -82h-4q-22 2 -22 18zM6308 -295q0 23 72 66h2q-12 -84 -50 -84h-2q-22 4 -22 18zM6345 -158q0 23 71 64h2q-12 -82 -49 -82 h-2q-23 2 -22 16v2zM8049 -1266l178 299l403 -176l29 -178l-70 -197l-307 -204l-135 26zM8094 -1274l88 -387l92 -18l283 188l61 174l-25 146l-350 151zM27863 -2056l176 299l404 -176l28 -178l-69 -197l-308 -205l-135 27zM27906 -2064l88 -387l92 -19l283 189l61 174 l-24 145l-348 152z" />
<glyph unicode="T" horiz-adv-x="860" d="M14 1245v268h842v-268h-281v-1245h-280v1245h-281zM555 -264l238 264l237 -264h-475zM555 -348h475v-156h-475v156zM2730 1698q174 176 389 176h2h4q215 0 389 -176q-90 -90 -182 -142.5t-203 -52.5h-8h-6q-111 0 -203 52.5t-182 142.5zM2789 1698l25 -25q70 51 143.5 83 t161.5 32h2h4q88 0 162 -32t141 -83q10 8 27 25q-162 137 -330 137h-4h-2q-168 0 -330 -137zM2847 1649q86 -68 176 -90q-35 37 -35 88q0 47 33 88q-84 -23 -174 -86zM3027 1647q0 -39 27.5 -67t67.5 -28t66.5 28t26.5 67t-26.5 67.5t-66.5 28.5t-67.5 -28.5t-27.5 -67.5z M3060 1645q0 29 17.5 45t45 16t45 -16.5t17.5 -44.5q0 -25 -18.5 -43.5t-45.5 -18.5q-25 0 -43 18.5t-18 43.5zM3101 1645.5q0 -9.5 6 -15.5t14 -6q10 0 16.5 6t6.5 15.5t-6.5 15.5t-16.5 6q-8 0 -14 -6t-6 -15.5zM3222 1559q88 23 176 90q-90 63 -174 86q33 -41 32 -88 q1 -51 -34 -88zM9400 -739h2h2v10v10h5h4v4v2h4h4v13v14h6h6v6v10v11h6h6v8v8h4h5v10v10h6h8v7v6h2h8v8v6v8h6h4v-4v-4h4h3v10v11h4h2v4v4h4h4v6v6h10h10h4v12h5h6h6v8v5h12h12v8v8h17h12v6v6h4h2v4v4h8h7v-4v-4h8h6v8v7h12h15v4v2h4h2v-2v-4h6h8v-2v-5h4h4v-4v-4h2h4v-8 v-12h-6h-8v4v4h-4h-2v-14v-15h2h4v4v4h4h4v-6v-6h2v4h6h4v8v5h5h4v-2v-3h8h12v-4v-4h6h6v-2v-2h-4h-4v-18v-19h4h4v15v14h5h4v-4v-4h32h33v-6v-6h4h4v12h15v-6v-6h-4h-5v-5v-4h5h4v4v5h16h16v-5v-4h13v-14v-6h8h8v8v8h2h4v-4v-4h6h7v-4v-4h8h8v4v4h2h2v-14v-13h4h4v7v6h6h7 v4v2h4h4v-2v-4h4h4v-2v-4h-4h-4v-9v-6h6h6v4v4h10h10v-10v-10h13v10v2h4h4v-10v-10h4h4v4v4h4h2v-8v-8h6h7v-3v-2h4h4v2v3h6h6v-3v-2h4h4v-4v-4h4h4v-10v-10h7h6v-10v-11h4h4v-2v-4h-4h-4v4v2h-11h-10v-2v-4h10h11v-10v-10h-4h-2v-4v-5h6h8v15v14h2h2v8v6h4h4v-10v-12h-4h-4 v-6v-6h14h15h6v-13h8v-10v-10h-4h-4v2v2h-6h-6v-2v-2h-5h-4v-4v-4h-8h-6v4v4h8v10v2h-2h-2v-4v-4h-4h-4v-6v-6v-8h8h10v-3v-2h4h5v-4v-4h-13h-10v-4v-4h4h4v-2v-2h-4h-4v-4v-10h-25v18h7h6v-2v-2h4h4v6v6h-8h-8v4v4h-3h-2v-8v-8h-4h-4v-16v-17h-6h-6v-4v-2h-4h-4v6v8h-4h-4 v3v4h-9h-10v-7v-8h-4h-4v-4v-2h8h6v-8v-6h-10h-10v4v2h-4h-2v-2v-4h-4h-5v-4v-2h-4h-4v-4v-5h-8h-8v5v4h-4h-4v-4v-5h-15h-14v-6v-6h4h4v2v4h2h11v-12v-2h-3h-2v4v4h-4h-4v-6v-6h-4h-4v-4v-4h4h4v-6v-9h-4h-4v9v6h-2h-2v10v10h-4h-4v-4v-4h-4h-4v-16v-17h-2h-5v6v6h-14h-12 v-2v-4h-8h-7v-2v-4h-6h-6v4v2h-10h-10v4v2h-4h-5v5v4h-2h-4v6v6h-4h-4v-2v-2h-2h-4v-4v-4h-2h-4v-4v-5h-10h-11v-2v-4h33v-2v-4h4h4v-4v-4h-4h-4v-2v-4h-4h-8v4v2h8h4v4v4h-8h-12v-4v-4h-4h-2v4v4h-7h-8v-4v-4h-2h-2v4v4h-4h-4v-4v-4h-4h-4v4v4h-2h-2v17v16h-9h-8v-6v-6h4h4 v-4v-5h-6h-6v-2v-4h6h6v-2v-4h5h4v-4v-4h-9h-8v4v4h-6h-6v6v6h-6h-6v-2v-4h-4h-5v-2v-4h-4h-2v-4v-4h-4h-2v4v4h-4h-4v-6v-8h-4h-2v8v6h-14h-15v6v6h-6h-6v9v8h-6h-8v-8v-9h-2h-5v5v4h-4h-4v6v6h-10h-8v6v8h-4h-4v-4v-2h-5h-4v6v6h-6h-6v-4v-2h-4h-4v2v4h-6h-6v5v4h-4h-5v8 h-4v-4h-12v8h-4h-4v4v4h-4h-4v-4v-4h4h4v-2v-4h-4h-4v4v2h-2h-4v4v4h-11h-10v2v4h-14h-15v4v4h-10h-10v7v6h-2h-2v4v4h-4h-4v2v2h-4h-5v10v11h-2h-2v4v4h2h2v10v10h-2h-2v10v11zM9413 -821h4h4v-4v-2h-4h-4v2v4zM9583 -535v-4v-4h4h4v4v4h-4h-4zM9603 -561v-6h2h4v-4v-4h4h4 v4v4h-4h-4v2v4h-6zM9609 -547v-4v-4h4h4v-4v-4h5h2v4v4h4h2v-6v-6h4h4v2v2h6h6v4v4h-2h-2v4v4h12h13v-4v-4h-6h-7v-4v-4h11h10v4v4h2h4v4v4h-8h-6v2v2h-2h-4v4v4h-5h-2v-4v-4h-10h-10v-2v-2h-14h-15zM9617 -530v-2v-3h7h6v7v6h-2h-4v-4v-4h-2h-5zM9617 -760v-4v-4h5h2v4v4 h-2h-5zM9624 -719v-4v-4h4h2v-8v-13h4h4v-2v-2h-4h-4v-4v-4h4h4v-10v-10h4h4v-13h12v-4v-4h2h5v-4v-4h12h16v-2v-2h-4h-4v-4v-4h4h4v-4v-2h17h16v-4v-3h4h4v-8v-6h-4h-4v6v8h-10h-11v-4v-4h5h4v-4v-2h6h6v-4v-4h10h10v-2v-4h5h4v4v2h10h10v-2v-4h19h20v4v2h6h8v-2v-4h15h12 v4v2h6h6v6v8h-4v-6h-6h-8v2v4h-4h-2v-4v-2h-23h-20v2v4h4h4v4v4h8h4v-4v-4h8h6v8v7h5h4v2v4h6h6v4v4h4h4v-8v-6h2h2v-4v-3h4h4v7v6h-4h-4v4v4h8h9v-8v-6h6v6h2h4v4v4h6h8v2v2h4h2v4v4h5h2v6v7h4h4v-7v-6h4h4v4v4h6h6v2v3h6h7v8v8h4h4v-8v-8h4h4v8v8h6h6v2v2h10h11v4v4h-4h-5 v4v4h-12h-12v2v2h8h8v5v4h-6h-6v4v2h4h4v4v2h-10h-10v16v13h-6h-7v4v2h-4h-4v4v4h-4h-8v12h-4h-4v-4v-4h-4h-4v8v8h-7h-4h-8v13h-10h-10v4v4h-9h-8v2v4h-12h-12v6v8h-4h-5v-4v-4h-22h-25v4v4h-16h-16v-8v-6h-4h-5v2v4h-10h-10v-4v-2h-6h-6v-4v-2h-4h-5v2q0 4 -4 4h-2v-8v-6 h-6h-8v-4v-4h-8h-6v-3v-2h-2h-4v-4v-4h-9h-6v-6v-6h-2h-2v-6v-8h-8h-8v-11v-10h-2h-4zM9638 -530v-2v-3h4h4v3v2h-4h-4zM9646 -567v-4v-4h2h2v4v4h-2h-2zM9658 -909v-6v-9h2h5v6h4h2v5v4h4h4v6v6h-4h-4v-2v-2h-2h-4v-4v-4h-5h-2zM9665 -502v-4v-2h4h2v2v4h-2h-4zM9679 -575 v-5v-4h2h4v4v5h-4h-2zM9679 -739h2h4v16v18h4h4v7v6h2h4v6v6h2h4v4v4h5h4v6v7h6h6v4v4h14h15v4v4h18h21v-4v-4h6h8v-4v-4h8h4v-3v-2h4h4v-4v-4h4h2v-4v-4h5h4v-6v-6h-15h-12h-6v-10v-3h-6h-4v-10v-12h4h4v-2v-4h10h10v4v2h9h6v4v4h2h4v8v6h4h2v-6v-8h4h4v-16v-17h-4h-4v-10 v-10h-2h-4v-8v-8h-4h-2v-7v-6h-4h-5v-14h-14v-6v-6h-12h-14v-4v-3h-3h-4v3v4h-16h-16v-4v-3h-4h-5v-4v-4h5h4v4v4h6h6v-4v-4h-4h-4v-4v-2h-6h-7v2v4h-4h-4v11v10h-2h-2v4v4h-8h-6v2v2h-2h-4v4v4h-4h-5v4v4h-4h-2v7v6h-4h-2v6v6h-4h-4v10v10h-4h-2v5v4zM9685 -481h8h6v4v4h11 h10v-4v-4h2h4v4v4h4h4v-4v-4h-4h-4v-2v-4h-4h-2v4v2h-6h-9v-4v-9h-8h-4v5v2h-4h-4v4v2zM9685 -555v-4v-4h4h4v4v4h-4h-4zM9699 -547v-4v-4h6h9v4v4h-9h-6zM9699 -610v-2v-4h2h4v4v2h-4h-2zM9705 -930h5h4v-4v-4h-4h-5v4v4zM9714 -610v-6v-7h4h2v7v6h-2h-4zM9720 -543v-6v-6 h6h8v4v4h-4h-4v4h-6zM9726 -604v-2v-4h4h4v-2v-4h2h2v2v4v6v4v4h-2h-2v-4v-4h-4h-4zM9746 -487h5h4v-2v-5h-4h-5v5v2zM9746 -604v-6v-6h15h14v10v10h-8h-8v-4v-4h-6h-7zM9755 -567v-4v-4h2h2v4v4h-2h-2zM9767 -918v-2v-4h4h4v4v2h-4h-4zM9779 -575v-5v-4h8h7v-2v-2h2h4v2v2 h-4h-2v4v5h2h4v4v4h-6h-7v-4v-4h-4h-4zM9779 -842h4h4v-4v-2h-4h-4v2v4zM9779 -944h4h4v-4v-2h-4h-4v2v4zM9787 -901v-4v-4h4h3v4v4h-3h-4zM9794 -610v-2v-4h2h4v4v2h-4h-2zM9808 -575v-5v-4h4h2v4v5h-2h-4zM9808 -588v-4v-4h4h2v4v4h-2h-4zM9808 -604v-4h6v-4v-4h10h10v2 v10h-8h-8h-10zM9814 -889v-4v-4h4h2v4v4h-2h-4zM9820 -909h4h4v-4v-5h-4h-4v5v4zM9843 -604v-6v-6h10h10v-5v-2h6h6v-4v-4h5h4v4v4h2h4v-4v-4h2h4v-4v-2h4h4v2v4h6h6v-4v-2h5h2v2v4h-2h-5v4v4h-6h-6v2v5h-8h-6v4v2h-8h-7v4v2h-4h-4v-2v-4h-8h-10v4v2h-4h-2zM9843 -901v-4v-4 h2h4v4v4h-4h-2zM9863 -938h6h6v-2v-4h-6h-6v4v2zM9867 -868v-4v-5h4h4v5v4h-4h-4zM9875 -848v-4v-4h7h8v4v4h-8h-7zM9875 -909v-4v-5h7h8v5v4h-8h-7zM9890 -834v-4v-4h2h4v4v4h-4h-2zM9890 -938h2h4v-2v-4h-4h-2v4v2zM9904 -889v-10v-10h2h4v10v10h-4h-2zM9916 -643v-4v-4h7 h8v-4v-4h6h6v-3v-2h4h4v-8v-8h6h7v4v4h4h4v4v4h-13v13h-4h-4v4v4h-4h-4v-4v-4h-2h-2v4v4h-12h-11zM9931 -610v-2v-4h4h4v4v2h-4h-4zM9939 -821v-13h2h2v3v4h4h4v2v4h-12zM9951 -793v-4v-4h4h4v4v4h-4h-4zM9959 -623v-8v-6h2h3v6v8h-3h-2zM9964 -588h4h4v-4v-4h-4h-4v4v4z M9964 -821v-4v-2h8h8v2v4h-8h-8zM9972 -680v-6v-6h4h4v4v4h2h2v-4v-4h6h6v12h-12v4v4h-2h-2v-4v-4h-4h-4zM9972 -883h16h4v-4v-2h-4h-4v-4v-4h-6h-6v6v8zM9980 -809v-2v-2h6h6v2v2h-6h-6zM9984 -788v-3v-2h6h6v-10v-10h8h9v6v6h-4h-5v4v4h9h6v-8v-8h2h4v8v8h-4h-2v7v6h2h4v4 v4h-10h-11v-4v-4h5h4v-4v-4h-4h-5v-3v-2h-4h-4v2v3h-6h-6zM9992 -631v-4v-2h2h2v2v4h-2h-2zM9992 -643v-4v-4h2h2v4v4h-2h-2zM10004 -651v-4v-4h5h4v4v4h-4h-5zM10004 -834v-4v-4h5h4v4v4h-4h-5zM10004 -868h5h4v-4v-5h-4h-5v5v4zM10019 -719v-4v-4h2h4v4v4h-4h-2z M10025 -672v-4v-4h4h4v4v4h-4h-4zM10039 -631h4h2v-4v-2h-2h-4v2v4zM10039 -692v-2v-4h4h2v4v2h-2h-4zM10039 -788v-7v-6h4h2v6v7h-2h-4zM10039 -809v-6v-6h6h5v12h-11zM10039 -834h4h2v-4v-4h-2h-4v4v4zM10052 -672v-10v-10h4h4v4v4h4h4v10v10h-4h-4v-4v-4h-4h-4z M10060 -713v-2v-4h4h4v4v2h-4h-4zM10060 -821v-4v-2h6h6v2v4h-6h-6zM10068 -733v-2v-4h6h6v4v2h-6h-6zM10072 -672v-4v-4h4h4v4v4h-4h-4zM10072 -698v-4v-3h10h11v3v4h-11h-10zM10072 -780v-4v-4h8h8v4v4h-8h-8zM10127 -692h4h5v-2v-4h-5h-4v4v2zM10127 -713h4h5v4v4h2h4v-4 v-4h-4h-2v-2v-4h-5h-4v4v2zM10136 -748v-6v-6h2h4v6v6h-4h-2zM10136 -772h2h4v-4v-4h-4h-2v4v4zM10148 -780h4h4v-4v-4h-4h-4v4v4zM10177 -760h2h2v-4v-4h-2h-2v4v4zM16925 -2546q172 176 389 176h2h2q215 0 389 -176q-90 -90 -182 -142t-203 -52h-6h-8q-109 0 -202 52 t-181 142zM16982 -2546q16 -14 27 -24q68 51 141.5 82.5t163.5 31.5h2h2q90 0 162.5 -31.5t142.5 -82.5q10 10 27 24q-164 137 -332 138h-2h-2q-170 -1 -332 -138zM17039 -2595q88 -68 176 -90q-35 37 -34 88q0 47 32 88q-84 -23 -174 -86zM17222 -2597q0 -39 27.5 -66.5 t66.5 -27.5t66.5 27.5t27.5 66.5t-27.5 67.5t-66.5 28.5t-66.5 -28.5t-27.5 -67.5zM17254 -2593q0 25 17 39q18 16 44.5 16.5t44 -16t17.5 -45.5q0 -25 -18.5 -43t-42.5 -18q-27 0 -44.5 18.5t-17.5 48.5zM17293 -2598q0 -9 6.5 -15t16.5 -6t16 6t6 15t-6 15.5t-16 6.5 t-16.5 -6.5t-6.5 -15.5zM17414 -2685q90 23 176 90q-88 63 -174 86q35 -41 33 -88q0 -51 -35 -88z" />
<glyph unicode="U" horiz-adv-x="1310" d="M139 555v958h281v-958q0 -145 37 -209q63 -102 194 -102q129 0 193 102q37 63 37 209v958h280v-958q0 -250 -102 -387q-68 -90 -177.5 -142.5t-232.5 -52.5q-133 0 -247.5 60.5t-180.5 165.5q-82 131 -82 356z" />
<glyph unicode="V" horiz-adv-x="1433" d="M16 1513h295l408 -1151l407 1151h295l-585 -1513h-230z" />
<glyph unicode="W" horiz-adv-x="1843" d="M14 1513h287l266 -1056l258 1056h205l254 -1056l268 1056h287l-442 -1513h-223l-244 1001l-250 -1001h-221z" />
<glyph unicode="X" horiz-adv-x="1392" d="M10 0l520 754l-520 759h334l352 -528l363 528h325l-524 -759l524 -754h-325l-363 522l-352 -522h-334z" />
<glyph unicode="Y" horiz-adv-x="1269" d="M6 1513h303l336 -696l334 696h303l-498 -954v-559h-280v559z" />
<glyph unicode="Z" horiz-adv-x="1024" d="M37 0v238l573 1007h-542v268h876v-251l-569 -994h608v-268h-946z" />
<glyph unicode="[" horiz-adv-x="655" d="M152 383v530q0 279 155 443q55 57 117.5 91t173.5 66v-301q-98 -41 -129 -108q-41 -92 -41 -246v-522q0 -123 41 -209q35 -72 129 -107v-301q-121 29 -202 83.5t-144 150.5q-100 158 -100 430z" />
<glyph unicode="\" horiz-adv-x="1310" d="M172 1513h193l665 -1513h-192z" />
<glyph unicode="]" horiz-adv-x="655" d="M76 20q98 41 129 109q41 92 41 246v522q0 123 -41 209q-33 68 -129 106v301q123 -29 203.5 -83t142.5 -150q100 -158 100 -430v-531q0 -279 -155 -442q-98 -102 -291 -158v301z" />
<glyph unicode="^" horiz-adv-x="1228" d="M129 743l367 770h249l367 -770l-213 -102l-278 565l-279 -565z" />
<glyph unicode="_" horiz-adv-x="1024" d="M0 -98h1024v-185h-1024v185z" />
<glyph unicode="`" horiz-adv-x="860" d="M152 1509l116 181l455 -273l-109 -162z" />
<glyph unicode="a" horiz-adv-x="1351" d="M61 563q0 260 163 429t415 169q236 0 371 -178v152h250v-1135h-250v147q-82 -92 -170 -133t-207 -41q-248 0 -410 167t-162 423zM336 557q0 -150 93 -242t243 -92q162 0 248 103q82 96 81 233q0 156 -94 254t-239.5 98t-238.5 -99t-93 -255zM3814 3000q11 25 30 43.5 t44.5 27.5t51.5 9q35 0 61.5 -9t43 -26.5t28 -38t15.5 -41t7 -38t3 -27.5v-10v-402l-256 338q-23 31 -33 64q-9 27 -8 50q-1 30 13 60zM4129 2488v402v10q0 10 3 27.5t7 38t15.5 41t27.5 38t43 26.5t61 9q29 0 53.5 -9t43 -27.5t30 -43t13.5 -51.5t-8.5 -59.5t-30.5 -63.5z M4960 -2879l312 626l313 -626h-625zM5028 -2834h489l-245 489zM6431 2425q2 4 1 12t-1 14q2 6 20.5 23.5t32.5 30.5q35 25 96 39q-2 2 -4 7t-2 9q-4 -2 -7 -7t-5 -7q0 2 -2 4q-12 -10 -29 -19l12 15l-18 -6l8 20l-18 -12l10 12q-4 -2 -14.5 -8t-16.5 -8l8 10l-14 -6 q-4 2 -8 7t-8 9q18 10 57 21q4 8 10 12q-12 2 -20 2q10 8 36.5 15t55.5 5h8q-2 2 -6 4l12 13q-2 0 -8 -4t-12 -4q-4 8 -6 20h-17l-4 16q-2 2 -8 1t-8 1q0 6 2 11q6 4 16 6q0 4 2 10l25 -6q23 -6 33 -14q0 -10 2 -17q0 2 2 6v4q2 0 9 -2t9 -4q-2 -6 -4 -8q4 4 6 4 q6 -4 24.5 -21.5t22.5 -21.5l2 -2q2 0 2 -2l-2 21q2 2 9 2h6q0 23 -2 28q4 4 10 4t10 -2q4 6 12.5 15.5t10.5 15.5q12 2 18 2q8 0 16 -4q-4 -4 -4 -12q8 4 20.5 1t20.5 -14h-8h-8l10 -14l-14 -10l-2 -10q-2 -2 -8.5 -5.5t-10.5 -4.5t-10 -1q8 -6 8 -12q-2 -2 -7 -6t-7 -4 q23 10 41 16q51 18 102 23q23 2 55.5 -7.5t47.5 -17.5q25 -12 39 -28q-33 -4 -35 -5q-8 4 -23.5 15.5t-23.5 15.5l22 -20q-29 16 -41 26l6.5 -13l6.5 -13q-4 4 -11 8l-14 7q-6 3 -10 7q0 -8 4 -18q-8 2 -14 10q-8 -4 -17 -10q-4 0 -11 -1t-11 -1q23 -10 43 -31 q20 -23 24 -55q-8 8 -14 18q-4 -4 -6 -10l4 -2q16 -10 33.5 -30.5t27.5 -37.5q-2 0 -4 4l-4 2q8 -12 8 -30q-4 4 -12 6v-4l4 -8l-4 -17q-8 0 -14 4h-13l11 -12q-4 -6 -13 -8l-4 4q-2 -4 -8 -4l-6 8v-10q-6 -2 -14 2q0 10 -3 20q-2 -14 -4 -20q-6 2 -16 6v12v13q-10 -2 -16 0 q-4 8 -4 28q-4 -8 -5 -16l-2 2q2 -20 2 -41q-2 2 -3 7t-3 9q-2 -10 -10 -14q-12 27 -18 53q0 6 -1 10.5t-3.5 8.5t-4.5 6h-6v2h-2v-6q-2 -4 -4 -6q-2 12 -2 20l-2 2l-8 -8q4 -23 14 -37q10 -16 21.5 -33.5t29.5 -42.5q18 -20 43 -41l187 -149q98 -82 157 -162q33 -45 60 -72 h-72q-43 88 -106 150q-55 53 -121 108l-60 52q-80 70 -96 86q-43 43 -78 94q-2 2 -4 6l-2 -2l4 -10v-2q20 -47 33 -62l-41 47l2 -4q12 -33 19 -84q-4 -6 -9 -10v-10q-2 0 -5 -2t-5 -4q4 -4 6 -17q-8 -2 -12 -6q-2 -6 -10 -14q0 6 -6 14q-4 -2 -11 -2q0 2 -4 8q-2 6 -2 8 q-4 2 -10 4q0 14 -2 25h-12q4 10 8 16l-12 2v13q0 12 2 12q-2 2 -6.5 4t-6.5 4q4 6 4 13l-12 20q8 10 8 33q6 14 11 20q0 2 -9 21q2 8 2 22l-12 6q4 -12 8 -20q-10 12 -16 27q10 -33 10 -35q-4 6 -6 12v-20q-6 -2 -8 -5v-2v2l-8 -8q0 -4 6 -19.5t6 -19.5q0 -2 -5 -6t-7 -6 v-7q0 -3 1 -7t1 -8l-6 -3q-4 -2 -9 0q-4 -2 -8 -6l-2 -4q2 -4 3 -10t1 -13t2 -12l-8 7q-2 -6 -2 -17v-14l-10 8l6 -12l-6 -4l-6 -13q-2 0 -4 1t-5 1v-2v-8q-6 0 -10 2q-2 10 -8 23v-8q-2 -6 -2 -11q-2 2 -3 7.5t-3 7.5q-6 -8 -6 -15q-2 4 -5 12.5t-6 12.5l-4 -10 q-2 8 0 22.5t2 20.5l-2 2q-2 2 -4 2q2 16 15 33q-2 4 -7 8q-4 4 -4 6q4 -14 4 -17l-8 13v-13l-2 -10q-4 6 -10 13q4 -10 8 -19l-6 4q-6 6 -8 10l6 -22l-6 10q4 -10 4 -18l-12 16q0 -8 2 -16l-11 14l7 -20l-11 10q-2 -10 2 -21l-6 6l-6 7q0 -10 -4 -17l-6 13v-16v-15l-4 6 l-2 -10q-4 10 -6 20q4 31 22 70q6 10 25.5 36.5t29.5 37.5q18 20 41 38l7 13l-5 4q-2 0 -4 -2q2 4 4 6q-2 2 -2 4l-4 -2l-4 -6q-4 -6 -6 -10v8v6q-10 -14 -14 -31l-2 10q-2 12 -2 19q-2 -6 -7 -14l-6 -13q0 8 4 23l-14 -29v12v13q-10 -14 -14 -27q-2 12 0 19 q-14 -16 -19 -29l-4 20q-14 -14 -18 -22q-2 8 0 20l-6 -12l-7 -12q0 8 3 18l-11 -26q-2 10 0 20q-8 -12 -12 -20l-2 20q-2 -4 -3 -9t-1 -11v-9q-4 6 -6 15q-4 -8 -4 -19q-4 14 -2 27q0 -2 -11 -37q-2 25 -4 31q-2 -4 -4 -14.5t-2 -12.5v10q0 6 -2 9q-8 -20 -8 -23l2 18 q-2 -4 -3 -8t-2 -9t-3 -7zM12629 -676q11 25 29.5 43.5t43 28.5t53.5 10q33 0 60.5 -10t43 -27.5t27.5 -38t16 -41t6.5 -38t2.5 -27.5v-10v-402l-256 340q-23 29 -32 62q-8 27 -8 49q0 31 14 61zM12943 -776q0 10 2 28q4 14 9 37q4 20 15 41t27.5 38.5t43 27.5t59.5 10 q29 0 54.5 -10t44 -28.5t29.5 -43t13 -51.5t-8 -59.5t-33 -61.5l-256 -340v402v10zM17953 1622l28 10l-26 97l41 -7l61 -80l29 3q20 2 45 4t43 2l27 2q31 0 30 20q0 2 1 6t1 7q0 23 -20 67l-72 164h31q12 0 17 -4t16 -21l32 -45h50q4 0 7 -4t3 -8q0 -6 -3 -10t-7 -4h-27 l41 -58h49q2 0 6 -4t4 -8q0 -6 -4 -10t-8 -4h-25l62 -82h6l57 -4q98 -4 99 -29q0 -16 -38 -23.5t-124 -9.5l-62 -82h25q4 0 8 -4t4 -10t-3 -10t-7 -4h-49l-41 -58h27q4 0 7 -4t3 -8q0 -6 -3 -10t-7 -4h-50l-32 -45q-10 -14 -16.5 -18.5t-16.5 -4.5h-31l72 162q18 72 18 80 q0 16 -11 19t-52 3q-16 0 -111 11l-61 -82l-41 -4l26 96z" />
<glyph unicode="b" horiz-adv-x="1351" d="M111 0v1513h272v-483q78 78 160 112t192 34q244 0 408 -172.5t164 -428.5q0 -231 -133 -403q-156 -199 -420 -199q-127 0 -216 39t-178 133v-145h-249zM367 575q0 -156 94 -254t241 -98q145 0 237.5 97.5t92.5 252.5q0 152 -95 252.5t-241 100.5q-143 0 -236 -98.5 t-93 -252.5z" />
<glyph unicode="c" horiz-adv-x="1310" d="M61 567q0 250 173.5 422t424.5 172q246 0 418 -160q102 -94 154 -245h-307q-82 156 -265 155q-141 0 -232 -96t-91 -245.5t94 -248t236 -98.5q162 0 258 150h307q-72 -190 -218.5 -295t-344.5 -105q-252 0 -429.5 173t-177.5 421zM346 563l150 41l-109 107l145 -37 l-36 143l106 -106l37 147l41 -147l115 106l-41 -143l143 37l-102 -107l143 -41l-143 -45l102 -106l-143 37l41 -144l-115 107l-41 -146l-37 146l-106 -107l36 144l-145 -37l109 106zM889 -266l82 114l196 54l109 65l-21 80l31 -10l12 33l25 -23l25 35l14 -33l31 14l10 -49 h55l23 -73l-70 -113l72 -90l69 20l9 -12l-27 -10v-8l51 6l2 -15l-53 -6v-6l39 -8l-8 -12l-39 8l-74 -12l-76 69l-49 -57l53 -55l123 4v-23l-65 2l-8 -8l92 -12l-6 -19l-103 15l-2 -5l57 -20l-10 -16l-102 26l-80 -10h-307l-80 68v92zM1380 -35v-28h37v28h-37zM1827 1958h57 l254 -606h-57zM6144 377h57l254 -606h-57zM9644 1851l150 41l-109 107l145 -37l-36 143l106 -106l37 147l41 -147l115 106l-41 -143l143 37l-102 -107l143 -41l-143 -45l102 -106l-143 37l41 -144l-115 107l-41 -146l-37 146l-106 -107l36 144l-145 -37l109 106z" />
<glyph unicode="d" horiz-adv-x="1351" d="M61 569q0 254 165 430.5t403 176.5q225 0 354 -142v479h272v-1513h-249v147q-154 -174 -375 -174q-242 0 -406 172t-164 424zM336 582q0 -152 97 -255.5t241 -103.5q139 0 234.5 101.5t95.5 248.5q0 150 -96.5 251.5t-239.5 101.5q-139 0 -235.5 -99.5t-96.5 -244.5z" />
<glyph unicode="e" horiz-adv-x="1310" d="M61 563q0 250 174.5 424t423.5 174q254 0 420 -173t166 -437q0 -55 -10 -105h-879q25 -102 109 -162.5t205 -60.5q84 0 140 25.5t110 87.5h297q-25 -76 -91 -158q-178 -205 -450 -205q-260 0 -437.5 170t-177.5 420zM348 686h629q-27 109 -108 167t-205 58 q-248 0 -316 -225z" />
<glyph unicode="f" horiz-adv-x="573" d="M20 887v227h99q18 188 90 272q104 127 285 127q35 0 67 -4v-258h-26q-80 0 -111 -29.5t-33 -107.5h154v-227h-154v-887h-272v887h-99z" />
<glyph unicode="g" horiz-adv-x="1351" d="M61 575q0 252 159 419t401 167q246 0 370 -170v144h260v-920q0 -311 -114 -461q-164 -207 -473 -207q-209 0 -361.5 95.5t-222.5 265.5h309q59 -66 124 -93.5t161 -27.5q303 0 317 363q-80 -94 -167 -135.5t-206 -41.5q-244 0 -400.5 170t-156.5 432zM336 563 q0 -156 87 -248t232.5 -92t234.5 93.5t89 246.5q0 156 -91 252t-237 96q-143 0 -229 -95t-86 -253z" />
<glyph unicode="h" horiz-adv-x="1228" d="M111 0v1513h272v-456q119 106 289 106q252 0 368 -180q76 -115 76 -342v-641h-272v580q0 178 -51.5 254.5t-169.5 76.5q-139 0 -201 -108q-39 -70 -39 -228v-575h-272z" />
<glyph unicode="i" horiz-adv-x="491" d="M111 0v1135h272v-1135h-272zM111 1257v256h272v-256h-272zM465 -168q0 129 93 212t237 83q143 0 235 -84t92 -211t-93 -210t-241 -83q-143 0 -233 84t-90 209zM492 -164q0 -111 77.5 -189.5t188.5 -78.5q109 0 186.5 78t77.5 188q0 51 -14.5 93t-39 70t-53 48.5 t-59.5 31.5t-54.5 16t-39.5 5q-123 0 -203 -86q-67 -76 -67 -176zM4047 578v102h622v-102h-622zM5222 -1335h623v-103h-623v103zM7471 1487v102h625v-102h-625zM8098 1487v512h622v-512h-622zM9159 1487v307h622v-307h-622z" />
<glyph unicode="j" horiz-adv-x="532" d="M35 -115q76 14 94 45t18 152v1053h273v-1059q0 -244 -121 -357q-104 -98 -264 -98v264zM147 1257v256h273v-256h-273z" />
<glyph unicode="k" horiz-adv-x="1187" d="M111 0v1513h272v-913l362 535h326l-405 -555l471 -580h-367l-387 530v-530h-272z" />
<glyph unicode="l" horiz-adv-x="491" d="M111 0v1513h272v-1513h-272z" />
<glyph unicode="m" horiz-adv-x="1925" d="M111 0v1135h249v-107q59 72 127 102.5t168 30.5q223 0 334 -176q133 176 365 176q127 0 229.5 -47t155.5 -133q74 -117 73 -326v-323l72 -37l-72 -37v-258h-272v123l-61 -33v410l61 -33v156q0 160 -51 219q-57 70 -162 69q-135 0 -190 -108q-39 -72 -39 -244v-559h-273 v623q0 156 -47 217q-59 72 -174 71q-141 0 -192 -116q-4 -8 -6 -19l323 -162l-346 -174v-440h-272zM1124 -537h52v-51v-51v-51v-51v-52h-52v52v51v51v51v51zM1176 -485h51v-52h-51v52zM1176 -793h51v-51h-51v51zM1227 -434h205v-51h-205v51zM1227 -588h51v-51h-51v51z M1227 -690h51v-51h-51v51zM1227 -844h205v-51h-205v51zM1278 -741h102v51h52v-51h-52v-52h-102v52zM1380 -588h52v-51h-52v51zM1432 -485h51v-52h-51v52zM1432 -793h51v-51h-51v51zM1483 -537h51v-51v-51v-51v-51v-52h-51v52v51v51v51v51zM2896 1442v407l405 -204z M6486 -1026h51v-51v-51v-52v-51v-51h-51v51v51v52v51v51zM6537 -975h51v-51h-51v51zM6537 -1282h51v-51h-51v51zM6588 -924h205v-51h-205v51zM6588 -1077h52v-51h-52v51zM6588 -1180h52v-51h-52v51zM6588 -1333h205v-51h-205v51zM6640 -1231h102v51h51v-51h-51v-51h-102v51z M6742 -1077h51v-51h-51v51zM6793 -975h51v-51h-51v51zM6793 -1282h51v-51h-51v51zM6844 -1026h52v-51v-51v-52v-51v-51h-52v51v51v52v51v51zM7193 -498l405 -204l-405 -205v409zM13896 2664v93l84 114l194 54l109 65l-21 78l33 -10l10 34l27 -24l22 37l15 -35l30 16l11 -51 h55l23 -74l-70 -110l72 -90l71 20l8 -14l-28 -10v-9l51 9l2 -17l-53 -4v-6l41 -8l-10 -12l-39 6l-74 -13l-76 70l-49 -57l55 -54l121 4l2 -22l-67 2l-9 -8l93 -12l-7 -19l-100 14l-4 -4l57 -20l-8 -19l-102 29l-82 -10h-307zM14389 2959h35v27h-35v-27z" />
<glyph unicode="n" horiz-adv-x="1228" d="M111 0v1135h251v-109q141 135 320 135q242 0 354 -164q45 -66 63.5 -151.5t18.5 -237.5v-608h-272v555q0 213 -53 285q-55 72 -164 71q-135 0 -201 -104q-45 -72 -45 -272v-535h-272z" />
<glyph unicode="o" horiz-adv-x="1310" d="M61 567q0 244 176.5 419t424.5 175q256 0 431 -174t175 -428q0 -240 -178.5 -413t-425.5 -173q-250 0 -426.5 174t-176.5 420zM336 571q0 -145 96 -246.5t234 -101.5q135 0 231 100.5t96 243.5q0 141 -96 242.5t-233 101.5q-133 0 -230.5 -100.5t-97.5 -239.5z" />
<glyph unicode="p" horiz-adv-x="1351" d="M111 -379v1514h249v-134q137 160 373 160q246 0 405.5 -167t159.5 -423q0 -258 -160.5 -428t-406.5 -170q-201 0 -348 133v-485h-272zM367 569q0 -150 95 -248t240 -98q135 0 228.5 99.5t93.5 242.5q0 147 -93 246.5t-233 99.5q-141 0 -236 -98.5t-95 -243.5z" />
<glyph unicode="q" horiz-adv-x="1351" d="M61 571q0 246 167 418t405 172q242 0 368 -172v146h250v-1514h-272v488q-135 -135 -342 -136q-244 0 -410 172t-166 426zM336 565q0 -147 95 -244.5t239 -97.5q139 0 232 97.5t93 242.5q0 150 -92 249t-231 99q-145 0 -240.5 -98t-95.5 -248z" />
<glyph unicode="r" horiz-adv-x="655" d="M111 0v1135h249v-111q53 78 105.5 107.5t140.5 29.5h21v-262q-244 -6 -244 -268v-631h-272z" />
<glyph unicode="s" horiz-adv-x="901" d="M39 360h274q20 -72 56.5 -104.5t95.5 -32.5q53 0 88 32t35 79q0 55 -51 88q-33 20 -142 57q-170 57 -242.5 134t-72.5 202t82 218t209 120l-2 2q-2 23 -17 49q-20 37 -20 51q0 31 -10 68q-8 25 -9 39q0 23 15 41q10 2 16 14l21 39q6 8 24 19h2h2q-12 18 -28 69 q-10 37 -19 49q-14 25 -14 39q0 10 10 23q10 12 25 12q6 0 14 -2q18 -4 25 -14q29 -43 59 -119l16 -39q6 -14 11 -23q8 6 10 31q2 18 6 31q2 6 8 59v27v8v4q0 14 12 29q12 12 29 12q20 0 33 -24q4 -10 6 -17q4 -49 4 -82q0 -8 -2 -14l-2 -121v-6v-21l2 -10v-49v-31l2 -51 q0 -8 -10 -63v-43q94 -31 158 -103q76 -86 81 -215h-266q-18 90 -106 90q-45 0 -75 -27.5t-30 -68.5q0 -51 56 -76q27 -12 137 -47q154 -47 209 -96q106 -84 106 -236q0 -162 -117.5 -274.5t-287.5 -112.5q-102 0 -193.5 42t-146.5 116q-60 79 -76 229zM338 1360 q33 -27 47 -49q6 -4 10 -4q6 0 11 8q2 4 2 8q0 6 -7 14q-2 4 -6 6l-49 41l-2 2q-6 -8 -6 -26zM346 1319q4 -14 6 -47q2 -18 6 -29l37 -84v-2q31 4 62 4q25 0 49 -2q-45 20 -62 62q-2 4 -6 8q-6 10 -4 18l2 31q2 6 -2 10q-2 4 -8 6q-12 -10 -29 -10q-4 0 -10 2q-10 2 -16 6 q-20 27 -23 27h-2zM358 1630q0 -12 11 -33q6 -10 14 -32l37 -101l55 -41q37 -29 76 -65q2 -4 2 -8q0 -6 -8 -9h-4q-8 0 -17 7q-2 4 -4 6q-18 20 -63 55l-23 14q-2 2 -18 15q-12 8 -21 8q-4 0 -6 -4q-2 -2 -4 -8q4 -8 23 -23q16 -14 22 -20q2 -6 21 -25q20 -20 20 -39 q0 -16 -8 -41q-6 -16 -6 -31q0 -20 22 -45q8 -10 19 -18q20 -14 24 -21q2 -4 2 -6q0 -4 -8 -8q25 -4 49 -10v12q0 23 5 43.5t5 44.5v2v29q2 23 3 43q0 35 -5 65q-2 18 -2 35v4l4 131v5v22l-2 41q-2 23 -16 23t-16 -29l-2 -43q0 -10 -4 -35l-15 -78q-2 -10 -10 -12l-23 -6 l-10 4q-2 6 -20 45l-6 14q-18 45 -50 105q-10 20 -18 26q-6 4 -12 4t-11 -4q-2 -4 -2 -8zM362 1407q14 -18 37 -35q23 -20 29 -45q2 -4 2 -8q8 -8 12 -8t4 8q2 2 3 6q0 8 -7 18q0 2 -4 5q-43 45 -69 65zM2443 -152l148 150h315l55 70l136 -150v-94l-369 -156v76h-285v104z M2462 -160h338l-47 -63l325 137l-117 127l-47 -57h-315zM4440 -905h623v-307h-623v307zM4753 -598l148 152h315l56 69l135 -149v-97l-369 -155v76h-285v104zM4772 -606h338l-47 -64l325 138l-116 129l-48 -60h-315zM7987 2169q0 23 15 41q10 4 16 16l20 37q6 8 25 18h2 q-10 18 -27 70q-12 37 -20 51q-12 23 -12 37q0 12 8 23q12 12 24 12q8 0 15 -2q18 -4 26 -14q29 -43 60 -119l14 -39q6 -14 12 -23q8 6 11 31q2 18 6 31q2 6 6 59q2 25 2 27v8v4q0 14 12 29q10 12 27 12q23 0 35 -24q4 -10 4 -17q4 -47 4 -80v-16l-4 -121v-6q0 -8 2 -21v-8 q2 -16 2 -51v-31v-49q0 -10 -8 -65v-64v-55h-219v74q0 6 -3 20q-4 20 -18 47q-18 37 -18 51q0 33 -13 68q-6 25 -6 39zM8010 2167q33 -27 49 -49q6 -2 10 -2q6 0 10 6v8q0 6 -4 14q-4 4 -8 6l-47 41l-2 2q-6 -8 -8 -26zM8020 2126q4 -14 6 -47q2 -18 6 -29l37 -84v-8v-64 h170v74q0 20 5 41t5 45v4l-2 27q2 23 2 43q0 37 -4 65q-2 18 -2 35v6l6 129v4q0 6 -2 23l-2 41q0 23 -16 23q-14 0 -14 -27l-5 -45q0 -10 -4 -33l-12 -78q-4 -12 -12 -14l-21 -6l-10 4q-4 6 -20 45l-9 16q-18 43 -47 103q-10 20 -18 26q-6 4 -12 4q-8 0 -11 -4q-4 -2 -4 -6 q0 -12 12 -35l13 -30l39 -103l55 -41q37 -29 74 -65q2 -4 2 -8q0 -6 -8 -9h-2q-10 0 -17 9q-4 2 -4 4q-18 20 -65 55l-21 14q-2 2 -20 15q-10 8 -19 8q-4 0 -8 -4q-2 -2 -2 -6q2 -10 22 -25q16 -12 21 -20q4 -4 22 -25q20 -20 21 -39q0 -14 -8 -39q-6 -18 -8 -33 q0 -20 22 -45l18 -18q23 -14 25 -21q2 -2 2 -6q0 -6 -10 -8q-49 20 -70 64q-2 6 -4 10q-6 8 -6 16l4 31q0 6 -2 10q-4 4 -8 6q-12 -10 -29 -10q-4 0 -12 2t-17 6q-18 29 -22 29q-1 -1 0 -2zM8034 2214q16 -16 39 -35q23 -20 29 -43q2 -6 2 -10q6 -6 10 -6t6 6v6q0 8 -4 18 q-2 2 -4 7q-43 45 -70 65z" />
<glyph unicode="t" horiz-adv-x="614" d="M18 887v248h134v378h272v-178l197 256l-185 72l344 274l-213 -256l189 -65l-332 -297v-184h164v-248h-164v-887h-272v887h-134zM2093 -2621l238 309l-185 71l344 275l-213 -256l189 -66zM5091 -569q174 176 389 176h2h5q215 0 389 -176q-90 -90 -182.5 -142.5 t-202.5 -52.5h-9h-6q-111 0 -203 52.5t-182 142.5zM5151 -569l24 -25q70 51 143.5 83t161.5 32h2h5q88 0 161.5 -32t141.5 -83q10 8 26 25q-162 137 -329 137h-5h-2q-167 0 -329 -137zM5208 -618q86 -68 176 -91q-35 37 -35 88q0 47 33 89q-84 -23 -174 -86zM5388 -620.5 q0 -38.5 28 -66.5t67.5 -28t66.5 28t27 66.5t-27 67.5t-66.5 29t-67.5 -29t-28 -67.5zM5421 -623q0 29 17.5 45.5t45 16.5t45 -16.5t17.5 -45.5q0 -25 -18.5 -43t-45.5 -18q-25 0 -43 18t-18 43zM5462 -621.5q0 -9.5 6 -15.5t14 -6q10 0 16.5 6t6.5 15.5t-6 15.5t-17 6 q-8 0 -14 -6t-6 -15.5zM5583 -709q88 23 176 91q-90 63 -174 86q33 -41 33 -89q0 -51 -35 -88zM5730 2021l238 310l-184 71l344 275l-213 -256l188 -66zM5730 2021l238 310l-184 71l344 275l-213 -256l188 -66zM6255 -942l43 -6l59 -82l31 4q18 0 43.5 3t44.5 3h26 q31 2 31 23v5v7q0 23 -18 67l-72 162h31q10 0 16 -4t16 -18l33 -45h49q4 0 7.5 -4t3.5 -9q0 -6 -3 -10t-8 -4h-26l41 -57h49q2 0 5 -4t3 -11q0 -4 -3 -9t-7 -5h-25l60 -80l65 -4q98 -12 99 -29q0 -16 -38 -23t-126 -11l-60 -80h25q4 0 7 -5.5t3 -9.5q0 -6 -2 -10t-6 -4h-49 l-41 -57h26q4 0 7.5 -4t3.5 -11q0 -4 -3 -8t-8 -4h-49l-33 -45q-10 -14 -16 -18t-16 -4h-31l72 161q18 72 18 80q0 14 -12 17.5t-53 5.5q-16 0 -111 10l-59 -82l-43 -6l28 96l-28 12l28 9zM12671 1919l238 309l-185 72l344 274l-213 -256l189 -65zM12671 1919l238 309 l-185 72l344 274l-213 -256l189 -65z" />
<glyph unicode="u" horiz-adv-x="1228" d="M111 526v609h272v-555q0 -215 55 -285q53 -72 160 -72q145 0 207 105q43 66 43 272v535h272v-1135h-252v109q-76 -76 -149.5 -106t-175.5 -30q-229 0 -346 168q-47 72 -66.5 157t-19.5 228z" />
<glyph unicode="v" d="M2 1135h303l262 -752l258 752h308l-457 -1135h-217z" />
<glyph unicode="w" horiz-adv-x="1638" d="M20 1135h293l203 -693l191 693h217l186 -693l207 693h291l-410 -1135h-170l-215 735l-219 -735h-168z" />
<glyph unicode="x" d="M2 0l401 586l-348 549h307l205 -342l201 342h307l-346 -549l404 -586h-328l-238 389l-237 -389h-328z" />
<glyph unicode="y" horiz-adv-x="1187" d="M12 1135h312l251 -736l275 736h313l-655 -1514h-293l213 485z" />
<glyph unicode="z" horiz-adv-x="942" d="M41 0v244l500 647h-443v244h768v-244l-499 -647h538v-244h-864z" />
<glyph unicode="{" horiz-adv-x="696" d="M76 543v166q166 20 166 200v322q0 152 68.5 218.5t224.5 66.5q53 0 83 -3v-163q-109 -8 -135 -43t-26 -166v-252q0 -121 -41 -179.5t-144 -84.5q102 -25 143.5 -84.5t41.5 -178.5v-251q0 -131 26.5 -166t134.5 -43v-164q-31 -2 -83 -2q-156 0 -224.5 66.5t-68.5 217.5 v322q0 181 -166 201z" />
<glyph unicode="|" horiz-adv-x="1228" d="M498 0v1513h243v-1513h-243z" />
<glyph unicode="}" horiz-adv-x="696" d="M78 -98q109 8 135.5 43t26.5 166v251q0 121 41 179.5t143 85.5q-102 25 -143 84t-41 178v252q0 131 -27 165.5t-135 43.5v163q31 2 84 3q156 0 224.5 -67t68.5 -218v-322q0 -180 166 -200v-166q-166 -20 -166 -201v-322q0 -152 -69 -218t-224 -66q-53 0 -84 2v164z" />
<glyph unicode="~" horiz-adv-x="1228" d="M104 592q68 111 99 147q82 104 205 105q80 0 157 -33l137 -55q111 -45 146 -45q74 0 158 151l131 -151q-80 -131 -146.5 -185.5t-150.5 -54.5q-68 0 -187 49l-110 45q-90 39 -131 39q-53 0 -97 -45q-12 -12 -67 -100q-4 -6 -15 -21z" />
<glyph unicode="&#xa0;" horiz-adv-x="573" d="M942 1751q25 51 100 129q96 80 222 80v43l2 4h24v-4v-43h2q176 0 289 -174q16 -31 16 -35v-2q-10 4 -16 20q-14 8 -37 9h-18q-59 0 -105 -35v-19q0 -4 -4 -6l-12 23q-61 23 -115 22v-243q0 -37 -43 -45h-12q-35 0 -51 34v11v8l2 2h18v-2v-4q4 -37 31 -37h4q20 0 29 20 l2 17v239q-84 0 -119 -22q-6 -18 -12 -19l-2 2v5l2 18q-29 23 -107 31h-26q-39 0 -54 -21l-8 -6h-2zM1018 2025q0 23 74 64q-10 -82 -48 -82h-4q-22 4 -22 18zM1184 2126q0 23 73 65q-12 -84 -49 -84h-2q-22 5 -22 19zM1327 2173v2q0 20 74 63q-10 -82 -47 -81h-2 q-25 2 -25 16zM1354 2056v2q0 23 71 64h2q-12 -82 -49 -82h-2q-22 4 -22 16zM1497 2142q0 23 74 64q-10 -82 -47 -82h-4q-23 2 -23 18zM1505 1921q0 23 72 66h2q-12 -84 -49 -84h-2q-23 4 -23 18zM1542 2056v2q0 23 72 64h2q-12 -82 -49 -82h-2q-23 2 -23 16zM5327 -991 q0 55 19.5 103t59.5 87t87 59.5t102 20.5t103.5 -20.5t87.5 -59.5t58 -87t19 -103t-19 -102.5t-58 -87.5t-87.5 -59.5t-103.5 -19.5t-102 19.5t-87 59.5t-59.5 87.5t-19.5 102.5zM5386 -991q0 -43 15.5 -80t46.5 -68t67.5 -46t79.5 -15t80 15.5t68 45.5q31 31 46 68t15 80 t-15.5 80t-45.5 67q-31 31 -68 47q-37 14 -80 14.5t-80 -14.5q-37 -16 -67 -47q-31 -31 -46.5 -67.5t-15.5 -79.5zM5468 -991q0 53 37 90t90 37q27 0 50.5 -9.5t39.5 -27.5q18 -18 27.5 -41t9.5 -49q0 -53 -37 -90t-91 -37t-90 37t-36 90zM5519 -991q0 -33 21.5 -54.5 t54.5 -21.5t54.5 21.5t21.5 53t-21.5 54.5t-54.5 23t-54.5 -21.5t-21.5 -54.5z" />
<glyph unicode="&#xa1;" horiz-adv-x="573" d="M147 -379v1129h273v-1129h-273zM147 872v263h273v-263h-273z" />
<glyph unicode="&#xa2;" d="M80 780q0 213 151 359q82 80 215 112v213h256v-213q131 -33 223.5 -125t121.5 -219h-291q-68 94 -191 94q-90 0 -151.5 -64.5t-61.5 -160.5t62.5 -159.5t158.5 -63.5q100 0 175 82h299q-106 -268 -345 -332v-223h-256v223q-139 33 -229 127q-137 141 -137 350z" />
<glyph unicode="&#xa3;" d="M0 635v256h119q-35 78 -35 166q0 203 142.5 343t346.5 140q195 0 329 -120t151 -312h-277q-23 88 -75 135t-126 47q-92 0 -155.5 -70.5t-63.5 -172.5q0 -88 56 -156h424v-256h-220q66 -129 66 -225q0 -78 -27 -154q84 0 127 25q98 53 99 170q0 45 -21 110h270 q23 -59 23 -106q0 -211 -154 -344q-72 -61 -156.5 -86t-226.5 -25h-532v256h285q41 70 41 150q0 119 -119 229h-291z" />
<glyph unicode="&#xa4;" d="M55 469l86 88q-45 84 -59 135t-14 127t14 128t59 136l-86 93l164 163l92 -90q121 74 262 74q139 0 271 -74l92 88l158 -166l-86 -88q76 -131 75 -266q0 -139 -77 -262l86 -88l-158 -164l-90 86q-127 -76 -269 -76q-139 0 -268 76l-90 -86zM313 819q0 -106 78 -183 t184 -77q109 0 184 75t75 183q0 106 -75 183t-177 77q-113 0 -191 -74.5t-78 -183.5z" />
<glyph unicode="&#xa5;" d="M-72 1513h305l328 -698l330 698h315l-293 -555h189v-180h-287l-117 -215h404v-180h-404v-383h-272v383h-401v180h401l-115 215h-286v180h192z" />
<glyph unicode="&#xa6;" horiz-adv-x="1228" d="M498 0v618h243v-618h-243zM498 895v618h243v-618h-243z" />
<glyph unicode="&#xa7;" d="M82 711q0 180 160 299q-57 88 -58 190q0 150 115 245t297 95t289.5 -98.5t132.5 -288.5h-258q-27 137 -176 137q-63 0 -101.5 -26.5t-38.5 -71.5q0 -84 125 -143l336 -166q82 -41 130 -118t48 -167q0 -176 -153 -291q102 -104 102 -244q0 -170 -124 -277.5t-316 -107.5 q-246 0 -375 168q-80 102 -94 267h274q0 -59 13 -88q47 -96 184 -97q76 0 127 38t51 95q0 43 -30.5 73t-118.5 77l-334 172q-207 105 -207 328zM322 725q0 -66 122 -129l310 -156q76 53 75 129q0 37 -24.5 62.5t-97.5 62.5l-306 152q-79 -64 -79 -121z" />
<glyph unicode="&#xa8;" horiz-adv-x="1024" d="M152 1290v273h272v-273h-272zM582 1290v273h272v-273h-272z" />
<glyph unicode="&#xa9;" horiz-adv-x="1515" d="M-25 757.5q0 323.5 231.5 553t557.5 229.5q332 0 561 -230.5t229 -561.5q0 -317 -233.5 -546t-554.5 -229q-328 0 -559.5 230.5t-231.5 554zM139 758q0 -256 183.5 -438.5t441.5 -182.5q256 0 441.5 181.5t185.5 431.5q0 266 -182.5 449t-444.5 183q-258 0 -441.5 -183 t-183.5 -441zM330 764q0 184 128 312t314 128q158 0 283 -98t149 -242h-227q-25 70 -80 110t-125 40q-96 0 -161.5 -72t-65.5 -176q0 -106 65.5 -180t161.5 -74q137 0 205 143h227q-37 -150 -154.5 -241.5t-273.5 -91.5q-186 0 -316 129t-130 313z" />
<glyph unicode="&#xaa;" horiz-adv-x="737" d="M57 1212q0 135 88 229.5t213 94.5q119 0 199 -102v79h135v-610h-135v84q-80 -104 -209 -104q-123 0 -207 95t-84 234zM63 635v143h637v-143h-637zM213 1206q0 -72 48 -122t118 -50t118 51.5t48 125t-48 123.5t-118 50t-118 -52t-48 -126z" />
<glyph unicode="&#xab;" horiz-adv-x="942" d="M74 489v205l284 267v-252l-137 -117l137 -119v-252zM510 489v205l285 267v-252l-138 -117l138 -119v-252z" />
<glyph unicode="&#xac;" horiz-adv-x="1228" d="M104 735v234h1033v-596h-234v362h-799z" />
<glyph unicode="&#xad;" horiz-adv-x="860" d="M152 469v242h567v-242h-567z" />
<glyph unicode="&#xae;" horiz-adv-x="1515" d="M-25 757.5q0 323.5 231.5 553t557.5 229.5q332 0 561 -230.5t229 -561.5q0 -317 -233.5 -546t-554.5 -229q-328 0 -559.5 230.5t-231.5 554zM139 758q0 -256 183.5 -438.5t441.5 -182.5q256 0 441.5 181.5t185.5 431.5q0 266 -182.5 449t-444.5 183q-258 0 -441.5 -183 t-183.5 -441zM469 340v846h268q106 0 160.5 -13.5t97.5 -48.5q104 -82 105 -229q0 -104 -57.5 -177t-151.5 -89l229 -289h-248l-196 274v-274h-207zM676 762h76q141 0 141 119q0 115 -139 114h-78v-233z" />
<glyph unicode="&#xaf;" horiz-adv-x="860" d="M152 1327v205h567v-205h-567z" />
<glyph unicode="&#xb0;" horiz-adv-x="819" d="M102 1094q0 131 91.5 221t224.5 90q127 0 213 -91t86 -222t-89 -222.5t-218 -91.5t-218.5 91.5t-89.5 224.5zM217 1092q0 -82 57.5 -139.5t135.5 -57.5q80 0 135 57.5t55 139.5t-54 139t-132 57q-82 0 -139.5 -57t-57.5 -139z" />
<glyph unicode="&#xb1;" horiz-adv-x="1228" d="M104 0v242h1033v-242h-1033zM104 696v242h394v399h245v-399h394v-242h-394v-338h-245v338h-394z" />
<glyph unicode="&#xb2;" horiz-adv-x="688" d="M20 1192q0 125 52 205q43 61 115.5 97t158.5 36q137 0 229.5 -86t92.5 -213q0 -162 -183 -307l-192 -154h371v-164h-637v152l348 303q63 57 87.5 95t24.5 79q0 57 -39.5 95t-99.5 38q-70 0 -108.5 -46t-40.5 -130h-179z" />
<glyph unicode="&#xb3;" horiz-adv-x="688" d="M8 891h180q10 -66 52.5 -102.5t108 -36.5t108.5 39.5t43 101.5q0 66 -52.5 104.5t-142.5 38.5h-43v168q94 2 132 21.5t38 64.5q0 35 -24.5 56.5t-63.5 21.5q-72 0 -86 -82h-182q10 106 65 164q82 78 201 78q117 0 193.5 -71t76.5 -177q0 -98 -69 -152q135 -63 135 -229 q0 -133 -93 -221t-236.5 -88t-238 84t-102.5 217z" />
<glyph unicode="&#xb4;" horiz-adv-x="860" d="M152 1415l458 275l111 -189l-465 -246z" />
<glyph unicode="&#xb5;" horiz-adv-x="1179" d="M111 -379v1514h272v-535q0 -125 8 -172t37 -92q74 -113 199 -113t184 105q37 68 37 272v535h272v-1135h-252v109q-61 -74 -118.5 -105t-135.5 -31q-135 0 -231 133v-485h-272z" />
<glyph unicode="&#xb6;" horiz-adv-x="1228" d="M76 1092q0 119 52 213t146 145q115 63 359 63h446v-1775h-207v1556h-172v-1556h-206v938q-186 2 -302 118t-116 298z" />
<glyph unicode="&#xb7;" horiz-adv-x="573" d="M147 614v273h273v-273h-273z" />
<glyph unicode="&#xb8;" horiz-adv-x="696" d="M152 -340h124q27 -61 78 -61q33 0 56.5 27.5t23.5 66.5q0 37 -23.5 63.5t-56.5 26.5q-39 0 -78 -55l-106 53l74 219h106l-43 -119q37 14 60 15q76 0 131 -61.5t55 -145.5q0 -90 -54.5 -146.5t-142.5 -56.5q-78 0 -135 48t-69 126z" />
<glyph unicode="&#xb9;" horiz-adv-x="688" d="M193 1350v163h301v-907h-181v744h-120z" />
<glyph unicode="&#xba;" horiz-adv-x="737" d="M63 637v143h629v-143h-629zM63 1227q0 127 93.5 218t222.5 91q131 0 222 -92t91 -223t-92 -223.5t-223 -92.5q-129 0 -221.5 94.5t-92.5 227.5zM213 1227q0 -74 46 -122t118 -48q70 0 118 47t48 119q0 70 -49.5 120t-114.5 50q-68 0 -117 -49t-49 -117z" />
<glyph unicode="&#xbb;" horiz-adv-x="942" d="M150 221v252l137 119l-137 117v252l284 -267v-205zM586 221v252l137 119l-137 117v252l284 -267v-205z" />
<glyph unicode="&#xbc;" horiz-adv-x="1720" d="M193 1350v163h301v-907h-181v744h-120zM451 0l626 1513h195l-627 -1513h-194zM1036 135v137l426 635h152v-616h98v-156h-98v-135h-180v135h-398zM1225 291h209v315z" />
<glyph unicode="&#xbd;" horiz-adv-x="1720" d="M193 1350v163h301v-907h-181v744h-120zM408 0l626 1513h195l-627 -1513h-194zM1053 586q0 125 51 205q43 61 115.5 97t158.5 36q137 0 229.5 -86t92.5 -213q0 -162 -182 -308l-193 -153h371v-164h-637v152l348 303q63 57 88 95t25 79q0 57 -40 95t-100 38 q-70 0 -108.5 -46t-40.5 -130h-178z" />
<glyph unicode="&#xbe;" horiz-adv-x="1720" d="M8 891h180q10 -66 52.5 -102.5t108 -36.5t108.5 39.5t43 101.5q0 66 -52.5 104.5t-142.5 38.5h-43v168q94 2 132 21.5t38 64.5q0 35 -24.5 56.5t-63.5 21.5q-72 0 -86 -82h-182q10 106 65 164q82 78 201 78q117 0 193.5 -71t76.5 -177q0 -98 -69 -152q135 -63 135 -229 q0 -133 -93 -221t-236.5 -88t-238 84t-102.5 217zM512 0l627 1513h194l-626 -1513h-195zM1036 135v137l426 635h152v-616h98v-156h-98v-135h-180v135h-398zM1225 291h209v315z" />
<glyph unicode="&#xbf;" d="M141 63q0 102 45 182.5t164 184.5q94 84 113 143q20 57 20 142v37h273v-41q0 -184 -78 -303q-33 -49 -60.5 -78t-111.5 -101q-92 -76 -92 -174q0 -82 55 -136t139 -54q164 0 189 205h272q-16 -195 -98 -297q-63 -84 -161.5 -131.5t-207.5 -47.5q-197 0 -329 134t-132 335 zM483 872v263h273v-263h-273z" />
<glyph unicode="&#xc0;" horiz-adv-x="1515" d="M14 0l631 1513h221l635 -1513h-309l-162 391h-538l-168 -391h-310zM403 1868l117 180l455 -272l-109 -162zM594 659h324l-162 459z" />
<glyph unicode="&#xc1;" horiz-adv-x="1515" d="M14 0l631 1513h221l635 -1513h-309l-162 391h-538l-168 -391h-310zM541 1774l458 274l111 -188l-465 -246zM594 659h324l-162 459z" />
<glyph unicode="&#xc2;" horiz-adv-x="1515" d="M14 0l631 1513h221l635 -1513h-309l-162 391h-538l-168 -391h-310zM350 1649l301 282h219l297 -282h-297l-108 131l-111 -131h-301zM594 659h324l-162 459z" />
<glyph unicode="&#xc3;" horiz-adv-x="1515" d="M14 0l631 1513h221l635 -1513h-309l-162 391h-538l-168 -391h-310zM420 1825q53 53 100 74.5t111 21.5q53 0 123 -29q55 -23 96 -22q76 0 137 69l111 -165q-92 -113 -193 -113q-43 0 -121 27q-70 25 -110 24q-37 0 -60.5 -8t-83.5 -43zM594 659h324l-162 459z" />
<glyph unicode="&#xc4;" horiz-adv-x="1515" d="M14 0l631 1513h221l635 -1513h-309l-162 391h-538l-168 -391h-310zM408 1649v272h272v-272h-272zM594 659h324l-162 459zM838 1649v272h272v-272h-272z" />
<glyph unicode="&#xc5;" horiz-adv-x="1515" d="M14 0l631 1513h221l635 -1513h-309l-162 391h-538l-168 -391h-310zM547 1819q0 88 62.5 149.5t150.5 61.5q86 0 147.5 -62.5t61.5 -148.5q0 -88 -62.5 -149.5t-148.5 -61.5q-88 0 -149.5 61.5t-61.5 149.5zM594 659h324l-162 459zM684 1818.5q0 -30.5 21.5 -52t52 -21.5 t52 21.5t21.5 52t-21.5 52t-52 21.5t-52 -21.5t-21.5 -52z" />
<glyph unicode="&#xc6;" horiz-adv-x="1843" d="M35 0l997 1513h694v-268h-446v-356h424v-268h-424v-353h446v-268h-727v391h-397l-229 -391h-338zM764 659h235v392z" />
<glyph unicode="&#xc7;" horiz-adv-x="1597" d="M61 762q0 322 228.5 550t550.5 228q287 0 501 -174q76 -63 123 -125.5t92 -161.5h-313q-78 100 -172 145.5t-225 45.5q-236 0 -377 -166q-125 -145 -125 -344q0 -213 149.5 -364.5t358.5 -151.5q111 0 197 41t178 137h329q-94 -217 -291.5 -337t-447.5 -112l-33 -92 q41 14 60 15q78 0 133 -61.5t55 -145.5q0 -90 -54 -146.5t-142 -56.5q-80 0 -137.5 48t-69.5 126h127q25 -61 78 -61q33 0 56 27.5t23 66.5q0 37 -23.5 63.5t-55.5 26.5q-41 0 -78 -55l-109 53l68 205q-274 41 -464 266t-190 510z" />
<glyph unicode="&#xc8;" horiz-adv-x="1064" d="M139 0v1513h813v-268h-532v-356h510v-268h-510v-353h532v-268h-813zM178 1868l117 180l455 -272l-109 -162z" />
<glyph unicode="&#xc9;" horiz-adv-x="1064" d="M139 0v1513h813v-268h-532v-356h510v-268h-510v-353h532v-268h-813zM356 1774l459 274l111 -188l-465 -246z" />
<glyph unicode="&#xca;" horiz-adv-x="1064" d="M131 1649l301 282h219l297 -282h-297l-108 131l-111 -131h-301zM139 0v1513h813v-268h-532v-356h510v-268h-510v-353h532v-268h-813z" />
<glyph unicode="&#xcb;" horiz-adv-x="1064" d="M139 0v1513h813v-268h-532v-356h510v-268h-510v-353h532v-268h-813zM195 1649v272h272v-272h-272zM625 1649v272h272v-272h-272z" />
<glyph unicode="&#xcc;" horiz-adv-x="573" d="M8 1868l117 180l455 -272l-109 -162zM139 0v1513h281v-1513h-281z" />
<glyph unicode="&#xcd;" horiz-adv-x="573" d="M8 1774l459 274l111 -188l-465 -246zM139 0v1513h281v-1513h-281z" />
<glyph unicode="&#xce;" horiz-adv-x="573" d="M-115 1649l301 282h220l296 -282h-296l-109 131l-111 -131h-301zM139 0v1513h281v-1513h-281z" />
<glyph unicode="&#xcf;" horiz-adv-x="573" d="M-74 1649v272h273v-272h-273zM139 0v1513h281v-1513h-281zM356 1649v272h273v-272h-273z" />
<glyph unicode="&#xd0;" horiz-adv-x="1519" d="M29 645v219h196v649h346q356 0 537 -108q158 -94 244 -265t86 -388q0 -229 -98.5 -405.5t-272.5 -262.5q-168 -84 -489 -84h-353v645h-196zM506 268h61q248 0 369 68q102 55 160.5 167.5t58.5 250.5q0 145 -62.5 259.5t-168.5 170.5q-121 61 -363 61h-55v-381h315v-219 h-315v-377z" />
<glyph unicode="&#xd1;" horiz-adv-x="1515" d="M139 0v1513h320l626 -1101v1101h281v-1513h-313l-633 1100v-1100h-281zM428 1825q53 53 100 74.5t111 21.5q53 0 123 -29q57 -23 96 -22q76 0 137 69l111 -165q-92 -113 -193 -113q-43 0 -120 27q-70 25 -111 24q-37 0 -60.5 -8t-82.5 -43z" />
<glyph unicode="&#xd2;" horiz-adv-x="1720" d="M61 756q0 332 230.5 558t568.5 226q324 0 551 -229.5t227 -552.5q0 -332 -225 -558.5t-555 -226.5q-334 0 -565.5 227.5t-231.5 555.5zM344 756q0 -215 148.5 -363.5t363.5 -148.5t357.5 145.5t142.5 364.5q0 217 -144.5 366.5t-355.5 149.5q-219 0 -365.5 -147.5 t-146.5 -366.5zM565 1868l117 180l455 -272l-109 -162z" />
<glyph unicode="&#xd3;" horiz-adv-x="1720" d="M61 756q0 332 230.5 558t568.5 226q324 0 551 -229.5t227 -552.5q0 -332 -225 -558.5t-555 -226.5q-334 0 -565.5 227.5t-231.5 555.5zM344 756q0 -215 148.5 -363.5t363.5 -148.5t357.5 145.5t142.5 364.5q0 217 -144.5 366.5t-355.5 149.5q-219 0 -365.5 -147.5 t-146.5 -366.5zM565 1774l459 274l111 -188l-465 -246z" />
<glyph unicode="&#xd4;" horiz-adv-x="1720" d="M61 756q0 332 230.5 558t568.5 226q324 0 551 -229.5t227 -552.5q0 -332 -225 -558.5t-555 -226.5q-334 0 -565.5 227.5t-231.5 555.5zM344 756q0 -215 148.5 -363.5t363.5 -148.5t357.5 145.5t142.5 364.5q0 217 -144.5 366.5t-355.5 149.5q-219 0 -365.5 -147.5 t-146.5 -366.5zM442 1649l301 282h220l297 -282h-297l-109 131l-111 -131h-301z" />
<glyph unicode="&#xd5;" horiz-adv-x="1720" d="M61 756q0 332 230.5 558t568.5 226q324 0 551 -229.5t227 -552.5q0 -332 -225 -558.5t-555 -226.5q-334 0 -565.5 227.5t-231.5 555.5zM344 756q0 -215 148.5 -363.5t363.5 -148.5t357.5 145.5t142.5 364.5q0 217 -144.5 366.5t-355.5 149.5q-219 0 -365.5 -147.5 t-146.5 -366.5zM512 1825q53 53 100 74.5t111 21.5q53 0 123 -29q55 -23 96 -22q76 0 137 69l111 -165q-92 -113 -193 -113q-43 0 -120 27q-70 25 -111 24q-37 0 -60.5 -8t-82.5 -43z" />
<glyph unicode="&#xd6;" horiz-adv-x="1720" d="M61 756q0 332 230.5 558t568.5 226q324 0 551 -229.5t227 -552.5q0 -332 -225 -558.5t-555 -226.5q-334 0 -565.5 227.5t-231.5 555.5zM344 756q0 -215 148.5 -363.5t363.5 -148.5t357.5 145.5t142.5 364.5q0 217 -144.5 366.5t-355.5 149.5q-219 0 -365.5 -147.5 t-146.5 -366.5zM500 1649v272h272v-272h-272zM930 1649v272h272v-272h-272z" />
<glyph unicode="&#xd7;" horiz-adv-x="1228" d="M104 401l349 349l-349 348l168 168l349 -348l348 348l168 -168l-349 -348l349 -349l-168 -168l-348 349l-349 -349z" />
<glyph unicode="&#xd8;" horiz-adv-x="1720" d="M61 758q0 326 230.5 554t560.5 228q174 0 338 -72l127 189l194 -135l-125 -185q258 -236 259 -579q0 -332 -226.5 -558.5t-556.5 -226.5q-182 0 -344 74l-123 -180l-196 133l120 178q-123 111 -190.5 263.5t-67.5 316.5zM344 758q0 -195 133 -346l557 827q-88 31 -182 31 q-213 0 -360.5 -148.5t-147.5 -363.5zM674 276q92 -33 186 -32q215 0 358.5 145.5t143.5 364.5q0 199 -131 352z" />
<glyph unicode="&#xd9;" horiz-adv-x="1310" d="M139 555v958h281v-958q0 -145 37 -209q63 -102 194 -102q129 0 193 102q37 63 37 209v958h280v-958q0 -250 -102 -387q-68 -90 -177.5 -142.5t-232.5 -52.5q-133 0 -247.5 60.5t-180.5 165.5q-82 131 -82 356zM283 1868l116 180l455 -272l-109 -162z" />
<glyph unicode="&#xda;" horiz-adv-x="1310" d="M139 555v958h281v-958q0 -145 37 -209q63 -102 194 -102q129 0 193 102q37 63 37 209v958h280v-958q0 -250 -102 -387q-68 -90 -177.5 -142.5t-232.5 -52.5q-133 0 -247.5 60.5t-180.5 165.5q-82 131 -82 356zM449 1774l458 274l111 -188l-465 -246z" />
<glyph unicode="&#xdb;" horiz-adv-x="1310" d="M139 555v958h281v-958q0 -145 37 -209q63 -102 194 -102q129 0 193 102q37 63 37 209v958h280v-958q0 -250 -102 -387q-68 -90 -177.5 -142.5t-232.5 -52.5q-133 0 -247.5 60.5t-180.5 165.5q-82 131 -82 356zM242 1649l301 282h219l297 -282h-297l-109 131l-110 -131 h-301z" />
<glyph unicode="&#xdc;" horiz-adv-x="1310" d="M139 555v958h281v-958q0 -145 37 -209q63 -102 194 -102q129 0 193 102q37 63 37 209v958h280v-958q0 -250 -102 -387q-68 -90 -177.5 -142.5t-232.5 -52.5q-133 0 -247.5 60.5t-180.5 165.5q-82 131 -82 356zM299 1649v272h272v-272h-272zM729 1649v272h272v-272h-272z " />
<glyph unicode="&#xdd;" horiz-adv-x="1269" d="M6 1513h303l336 -696l334 696h303l-498 -954v-559h-280v559zM442 1774l459 274l111 -188l-465 -246z" />
<glyph unicode="&#xde;" d="M139 0v1513h281v-268h94q270 0 387 -69q205 -125 205 -398q0 -131 -53.5 -238.5t-145.5 -166.5q-63 -39 -149 -53.5t-248 -14.5h-90v-305h-281zM420 573h82q164 0 229 35q92 51 92 164q0 72 -34.5 123t-96.5 68q-59 14 -178 14h-94v-404z" />
<glyph unicode="&#xdf;" horiz-adv-x="1228" d="M104 0v997q0 188 66 320q55 104 158.5 163.5t228.5 59.5q188 0 317.5 -121t129.5 -301q0 -197 -154 -282q129 -29 203 -91q143 -113 143 -303q0 -207 -134 -338t-345 -131q-248 0 -363 189v-162h-250zM377 387h168q14 -70 68.5 -117t121.5 -47q80 0 133.5 56.5 t53.5 140.5q0 135 -117 190q-74 35 -260 35h-23v242h23q80 0 132 60.5t52 150.5q0 88 -48 140t-126 52q-178 0 -178 -260v-643z" />
<glyph unicode="&#xe0;" horiz-adv-x="1351" d="M61 563q0 260 163 429t415 169q236 0 371 -178v152h250v-1135h-250v147q-82 -92 -170 -133t-207 -41q-248 0 -410 167t-162 423zM336 557q0 -150 93 -242t243 -92q162 0 248 103q82 96 81 233q0 156 -94 254t-239.5 98t-238.5 -99t-93 -255zM348 1509l117 181l455 -273 l-109 -162z" />
<glyph unicode="&#xe1;" horiz-adv-x="1351" d="M61 563q0 260 163 429t415 169q236 0 371 -178v152h250v-1135h-250v147q-82 -92 -170 -133t-207 -41q-248 0 -410 167t-162 423zM336 557q0 -150 93 -242t243 -92q162 0 248 103q82 96 81 233q0 156 -94 254t-239.5 98t-238.5 -99t-93 -255zM500 1415l458 275l111 -189 l-465 -246z" />
<glyph unicode="&#xe2;" horiz-adv-x="1351" d="M61 563q0 260 163 429t415 169q236 0 371 -178v152h250v-1135h-250v147q-82 -92 -170 -133t-207 -41q-248 0 -410 167t-162 423zM299 1290l301 283h219l297 -283h-297l-108 131l-111 -131h-301zM336 557q0 -150 93 -242t243 -92q162 0 248 103q82 96 81 233 q0 156 -94 254t-239.5 98t-238.5 -99t-93 -255z" />
<glyph unicode="&#xe3;" horiz-adv-x="1351" d="M61 563q0 260 163 429t415 169q236 0 371 -178v152h250v-1135h-250v147q-82 -92 -170 -133t-207 -41q-248 0 -410 167t-162 423zM336 557q0 -150 93 -242t243 -92q162 0 248 103q82 96 81 233q0 156 -94 254t-239.5 98t-238.5 -99t-93 -255zM369 1466q53 53 100 75 t111 22q53 0 122 -29q57 -23 97 -23q76 0 137 70l111 -166q-92 -113 -193 -112q-43 0 -121 26q-70 25 -110 25q-37 0 -60.5 -8.5t-83.5 -42.5z" />
<glyph unicode="&#xe4;" horiz-adv-x="1351" d="M61 563q0 260 163 429t415 169q236 0 371 -178v152h250v-1135h-250v147q-82 -92 -170 -133t-207 -41q-248 0 -410 167t-162 423zM336 557q0 -150 93 -242t243 -92q162 0 248 103q82 96 81 233q0 156 -94 254t-239.5 98t-238.5 -99t-93 -255zM356 1290v273h273v-273h-273z M786 1290v273h273v-273h-273z" />
<glyph unicode="&#xe5;" horiz-adv-x="1351" d="M61 563q0 260 163 429t415 169q236 0 371 -178v152h250v-1135h-250v147q-82 -92 -170 -133t-207 -41q-248 0 -410 167t-162 423zM336 557q0 -150 93 -242t243 -92q162 0 248 103q82 96 81 233q0 156 -94 254t-239.5 98t-238.5 -99t-93 -255zM498 1460q0 88 62.5 149.5 t150.5 61.5q86 0 147.5 -62.5t61.5 -148.5q0 -88 -62.5 -149.5t-148.5 -61.5q-88 0 -149.5 61.5t-61.5 149.5zM635 1460.5q0 -30.5 21.5 -52.5t52 -22t52 22t21.5 52.5t-21.5 52t-52 21.5t-52 -21.5t-21.5 -52z" />
<glyph unicode="&#xe6;" horiz-adv-x="2211" d="M61 563q0 254 170 426t420 172q209 0 342 -139v113h250v-113q137 139 342 139q238 0 402.5 -166t164.5 -405q0 -61 -18 -141h-877q35 -106 120 -166t200 -60q145 0 240 113h297q-51 -156 -201 -259.5t-324 -103.5q-217 0 -346 150v-123h-250v123q-70 -82 -145.5 -116 t-192.5 -34q-256 0 -425 168t-169 422zM336 573q0 -152 93 -251t237 -99q137 0 228 98.5t91 243.5q0 147 -93 246.5t-230.5 99.5t-231.5 -98.5t-94 -239.5zM1243 690h623q-59 221 -307 221q-238 0 -316 -221z" />
<glyph unicode="&#xe7;" horiz-adv-x="1310" d="M61 567q0 250 173.5 422t424.5 172q246 0 418 -160q102 -94 154 -245h-307q-82 156 -265 155q-141 0 -232 -96t-91 -245.5t94 -248t236 -98.5q162 0 258 150h307q-66 -190 -219.5 -297t-358.5 -103l-39 -92q37 14 64 15q78 0 129 -58.5t51 -146.5q0 -92 -53 -148.5 t-141 -56.5q-78 0 -135.5 49t-67.5 125h123q25 -61 78 -61q35 0 56 24.5t21 63.5t-22.5 64.5t-54.5 25.5q-41 0 -78 -49l-107 53l86 201q-219 39 -360.5 203.5t-141.5 381.5z" />
<glyph unicode="&#xe8;" horiz-adv-x="1310" d="M61 563q0 250 174.5 424t423.5 174q254 0 420 -173t166 -437q0 -55 -10 -105h-879q25 -102 109 -162.5t205 -60.5q84 0 140 25.5t110 87.5h297q-25 -76 -91 -158q-178 -205 -450 -205q-260 0 -437.5 170t-177.5 420zM293 1509l117 181l454 -273l-108 -162zM348 686h629 q-27 109 -108 167t-205 58q-248 0 -316 -225z" />
<glyph unicode="&#xe9;" horiz-adv-x="1310" d="M61 563q0 250 174.5 424t423.5 174q254 0 420 -173t166 -437q0 -55 -10 -105h-879q25 -102 109 -162.5t205 -60.5q84 0 140 25.5t110 87.5h297q-25 -76 -91 -158q-178 -205 -450 -205q-260 0 -437.5 170t-177.5 420zM348 686h629q-27 109 -108 167t-205 58 q-248 0 -316 -225zM465 1415l459 275l110 -189l-465 -246z" />
<glyph unicode="&#xea;" horiz-adv-x="1310" d="M61 563q0 250 174.5 424t423.5 174q254 0 420 -173t166 -437q0 -55 -10 -105h-879q25 -102 109 -162.5t205 -60.5q84 0 140 25.5t110 87.5h297q-25 -76 -91 -158q-178 -205 -450 -205q-260 0 -437.5 170t-177.5 420zM258 1290l301 283h219l297 -283h-297l-108 131 l-111 -131h-301zM348 686h629q-27 109 -108 167t-205 58q-248 0 -316 -225z" />
<glyph unicode="&#xeb;" horiz-adv-x="1310" d="M61 563q0 250 174.5 424t423.5 174q254 0 420 -173t166 -437q0 -55 -10 -105h-879q25 -102 109 -162.5t205 -60.5q84 0 140 25.5t110 87.5h297q-25 -76 -91 -158q-178 -205 -450 -205q-260 0 -437.5 170t-177.5 420zM317 1290v273h273v-273h-273zM348 686h629 q-27 109 -108 167t-205 58q-248 0 -316 -225zM748 1290v273h272v-273h-272z" />
<glyph unicode="&#xec;" horiz-adv-x="491" d="M-33 1509l117 181l455 -273l-109 -162zM111 0v1135h272v-1135h-272z" />
<glyph unicode="&#xed;" horiz-adv-x="491" d="M-33 1415l459 275l111 -189l-465 -246zM111 0v1135h272v-1135h-272z" />
<glyph unicode="&#xee;" horiz-adv-x="491" d="M-156 1290l301 283h220l297 -283h-297l-109 131l-111 -131h-301zM111 0v1135h272v-1135h-272z" />
<glyph unicode="&#xef;" horiz-adv-x="491" d="M-115 1290v273h273v-273h-273zM111 0v1135h272v-1135h-272zM315 1290v273h273v-273h-273z" />
<glyph unicode="&#xf0;" horiz-adv-x="1310" d="M61 569q0 154 79 291t210 209q129 70 260 70q53 0 138 -19l-58 58q-57 57 -100 94l-178 -82l-82 94l159 76q-88 74 -143 117l211 71q8 -6 19.5 -13t13.5 -9l61 -47q2 0 39 -27l178 82l84 -100l-159 -72q178 -154 264 -260q211 -262 211 -520q0 -256 -174 -432.5 t-428 -176.5q-250 0 -427.5 175t-177.5 421zM336 571q0 -145 96 -246.5t234 -101.5q135 0 231 100.5t96 243.5q0 141 -96 242.5t-233 101.5q-133 0 -230.5 -100.5t-97.5 -239.5z" />
<glyph unicode="&#xf1;" horiz-adv-x="1228" d="M111 0v1135h251v-109q141 135 320 135q242 0 354 -164q45 -66 63.5 -151.5t18.5 -237.5v-608h-272v555q0 213 -53 285q-55 72 -164 71q-135 0 -201 -104q-45 -72 -45 -272v-535h-272zM256 1466q53 53 100 75t111 22q53 0 123 -29q57 -23 96 -23q76 0 137 70l111 -166 q-92 -113 -193 -112q-43 0 -120 26q-70 25 -111 25q-37 0 -60.5 -8.5t-82.5 -42.5z" />
<glyph unicode="&#xf2;" horiz-adv-x="1310" d="M61 567q0 244 176.5 419t424.5 175q256 0 431 -174t175 -428q0 -240 -178.5 -413t-425.5 -173q-250 0 -426.5 174t-176.5 420zM311 1509l117 181l455 -273l-109 -162zM336 571q0 -145 96 -246.5t234 -101.5q135 0 231 100.5t96 243.5q0 141 -96 242.5t-233 101.5 q-133 0 -230.5 -100.5t-97.5 -239.5z" />
<glyph unicode="&#xf3;" horiz-adv-x="1310" d="M61 567q0 244 176.5 419t424.5 175q256 0 431 -174t175 -428q0 -240 -178.5 -413t-425.5 -173q-250 0 -426.5 174t-176.5 420zM336 571q0 -145 96 -246.5t234 -101.5q135 0 231 100.5t96 243.5q0 141 -96 242.5t-233 101.5q-133 0 -230.5 -100.5t-97.5 -239.5zM449 1415 l458 275l111 -189l-465 -246z" />
<glyph unicode="&#xf4;" horiz-adv-x="1310" d="M61 567q0 244 176.5 419t424.5 175q256 0 431 -174t175 -428q0 -240 -178.5 -413t-425.5 -173q-250 0 -426.5 174t-176.5 420zM256 1290l301 283h219l297 -283h-297l-108 131l-111 -131h-301zM336 571q0 -145 96 -246.5t234 -101.5q135 0 231 100.5t96 243.5 q0 141 -96 242.5t-233 101.5q-133 0 -230.5 -100.5t-97.5 -239.5z" />
<glyph unicode="&#xf5;" horiz-adv-x="1310" d="M61 567q0 244 176.5 419t424.5 175q256 0 431 -174t175 -428q0 -240 -178.5 -413t-425.5 -173q-250 0 -426.5 174t-176.5 420zM332 1466q53 53 100 75t111 22q53 0 123 -29q55 -23 96 -23q76 0 137 70l111 -166q-92 -113 -193 -112q-43 0 -121 26q-70 25 -110 25 q-37 0 -60.5 -8.5t-83.5 -42.5zM336 571q0 -145 96 -246.5t234 -101.5q135 0 231 100.5t96 243.5q0 141 -96 242.5t-233 101.5q-133 0 -230.5 -100.5t-97.5 -239.5z" />
<glyph unicode="&#xf6;" horiz-adv-x="1310" d="M61 567q0 244 176.5 419t424.5 175q256 0 431 -174t175 -428q0 -240 -178.5 -413t-425.5 -173q-250 0 -426.5 174t-176.5 420zM313 1290v273h273v-273h-273zM336 571q0 -145 96 -246.5t234 -101.5q135 0 231 100.5t96 243.5q0 141 -96 242.5t-233 101.5 q-133 0 -230.5 -100.5t-97.5 -239.5zM743 1290v273h273v-273h-273z" />
<glyph unicode="&#xf7;" horiz-adv-x="1228" d="M104 639v242h1033v-242h-1033zM481 150v268h277v-268h-277zM481 1102v268h277v-268h-277z" />
<glyph unicode="&#xf8;" horiz-adv-x="1351" d="M61 567q0 246 178.5 420t428.5 174q115 0 223 -43l106 158l177 -119l-103 -149q199 -182 199 -441q0 -246 -176 -420t-426 -174q-135 0 -258 58l-115 -168l-174 117l117 172q-177 165 -177 415zM336 569q0 -102 55 -190l352 522q-39 10 -77 10q-135 0 -232.5 -100.5 t-97.5 -241.5zM555 244q55 -20 111 -21q137 0 233 100.5t96 241.5q0 121 -73 219z" />
<glyph unicode="&#xf9;" horiz-adv-x="1228" d="M111 526v609h272v-555q0 -215 55 -285q53 -72 160 -72q145 0 207 105q43 66 43 272v535h272v-1135h-252v109q-76 -76 -149.5 -106t-175.5 -30q-229 0 -346 168q-47 72 -66.5 157t-19.5 228zM248 1509l117 181l454 -273l-108 -162z" />
<glyph unicode="&#xfa;" horiz-adv-x="1228" d="M111 526v609h272v-555q0 -215 55 -285q53 -72 160 -72q145 0 207 105q43 66 43 272v535h272v-1135h-252v109q-76 -76 -149.5 -106t-175.5 -30q-229 0 -346 168q-47 72 -66.5 157t-19.5 228zM414 1415l458 275l111 -189l-465 -246z" />
<glyph unicode="&#xfb;" horiz-adv-x="1228" d="M111 526v609h272v-555q0 -215 55 -285q53 -72 160 -72q145 0 207 105q43 66 43 272v535h272v-1135h-252v109q-76 -76 -149.5 -106t-175.5 -30q-229 0 -346 168q-47 72 -66.5 157t-19.5 228zM207 1290l301 283h219l297 -283h-297l-109 131l-110 -131h-301z" />
<glyph unicode="&#xfc;" horiz-adv-x="1228" d="M111 526v609h272v-555q0 -215 55 -285q53 -72 160 -72q145 0 207 105q43 66 43 272v535h272v-1135h-252v109q-76 -76 -149.5 -106t-175.5 -30q-229 0 -346 168q-47 72 -66.5 157t-19.5 228zM264 1290v273h273v-273h-273zM694 1290v273h273v-273h-273z" />
<glyph unicode="&#xfd;" horiz-adv-x="1187" d="M12 1135h312l251 -736l275 736h313l-655 -1514h-293l213 485zM315 1415l459 275l111 -189l-465 -246z" />
<glyph unicode="&#xfe;" horiz-adv-x="1351" d="M111 -379v1892h272v-499q135 147 352 147q246 0 404.5 -168t158.5 -426q0 -260 -158.5 -427t-404.5 -167q-217 0 -352 148v-500h-272zM367 571q0 -150 94 -249t237 -99q137 0 231.5 99.5t94.5 245t-94 244.5t-232 99q-141 0 -236 -97.5t-95 -242.5z" />
<glyph unicode="&#xff;" horiz-adv-x="1187" d="M12 1135h312l251 -736l275 736h313l-655 -1514h-293l213 485zM238 1290v273h272v-273h-272zM668 1290v273h272v-273h-272z" />
<glyph unicode="&#x152;" horiz-adv-x="2170" d="M78 756q0 336 219 560t549 224q309 0 479 -194v167h731v-268h-446v-356h424v-268h-424v-353h446v-268h-731v166q-174 -193 -469 -193q-332 0 -555 224.5t-223 558.5zM360 748q0 -213 141.5 -358.5t350.5 -145.5q211 0 347 144t136 365.5t-138 369t-347 147.5 q-217 0 -352 -150q-138 -153 -138 -372z" />
<glyph unicode="&#x153;" horiz-adv-x="2211" d="M61 567q0 248 172.5 421t421.5 173q199 0 342 -110q53 -39 115 -117q98 121 204.5 174t244.5 53q190 0 344 -102q242 -162 241 -477q0 -66 -10 -136h-879q35 -102 118 -162.5t196 -60.5q70 0 138.5 31t109.5 80h290q-59 -164 -205.5 -262.5t-330.5 -98.5q-299 0 -461 232 q-160 -231 -448 -232q-258 0 -430.5 170t-172.5 424zM336 575q0 -152 96 -252t242 -100q137 0 229 98.5t92 243.5q0 147 -95 246.5t-234 99.5q-137 0 -233.5 -98.5t-96.5 -237.5zM1245 686h619q-66 225 -308 225q-233 0 -311 -225z" />
<glyph unicode="&#x178;" horiz-adv-x="1269" d="M6 1513h303l336 -696l334 696h303l-498 -954v-559h-280v559zM293 1649v272h272v-272h-272zM723 1649v272h272v-272h-272z" />
<glyph unicode="&#x2c6;" horiz-adv-x="1105" d="M152 1290l301 283h219l297 -283h-297l-109 131l-110 -131h-301z" />
<glyph unicode="&#x2dc;" horiz-adv-x="983" d="M152 1466q53 53 100 75t110 22q53 0 123 -29q55 -23 97 -23q76 0 137 70l110 -166q-92 -113 -192 -112q-43 0 -121 26q-70 25 -110 25q-37 0 -60.5 -8.5t-83.5 -42.5z" />
<glyph unicode="&#x3bc;" horiz-adv-x="1179" d="M111 -379v1514h272v-535q0 -125 8 -172t37 -92q74 -113 199 -113t184 105q37 68 37 272v535h272v-1135h-252v109q-61 -74 -118.5 -105t-135.5 -31q-135 0 -231 133v-485h-272z" />
<glyph unicode="&#x2000;" horiz-adv-x="1822" />
<glyph unicode="&#x2001;" horiz-adv-x="3647" />
<glyph unicode="&#x2002;" horiz-adv-x="1822" />
<glyph unicode="&#x2003;" horiz-adv-x="3647" />
<glyph unicode="&#x2004;" horiz-adv-x="1214" />
<glyph unicode="&#x2005;" horiz-adv-x="911" />
<glyph unicode="&#x2006;" horiz-adv-x="606" />
<glyph unicode="&#x2007;" horiz-adv-x="606" />
<glyph unicode="&#x2008;" horiz-adv-x="454" />
<glyph unicode="&#x2009;" horiz-adv-x="729" />
<glyph unicode="&#x200a;" horiz-adv-x="200" />
<glyph unicode="&#x2010;" horiz-adv-x="860" d="M152 469v242h567v-242h-567z" />
<glyph unicode="&#x2011;" horiz-adv-x="860" d="M152 469v242h567v-242h-567z" />
<glyph unicode="&#x2012;" horiz-adv-x="860" d="M152 469v242h567v-242h-567z" />
<glyph unicode="&#x2013;" horiz-adv-x="1024" d="M0 469v242h1024v-242h-1024z" />
<glyph unicode="&#x2014;" horiz-adv-x="2048" d="M0 469v242h2048v-242h-2048z" />
<glyph unicode="&#x2018;" horiz-adv-x="573" d="M147 954v287q0 137 89 211q74 61 184 61v-137q-66 -12 -93.5 -38.5t-27.5 -77.5q0 -20 2 -33h119v-273h-273z" />
<glyph unicode="&#x2019;" horiz-adv-x="573" d="M147 954v138q66 12 93.5 40.5t27.5 81.5q0 23 -2 37h-119v262h273v-286q0 -172 -131 -240q-56 -33 -142 -33z" />
<glyph unicode="&#x201a;" horiz-adv-x="573" d="M143 0v262h273v-276q0 -168 -131 -240q-55 -33 -142 -33v137q66 12 93.5 39t27.5 76q0 23 -2 35h-119z" />
<glyph unicode="&#x201c;" horiz-adv-x="983" d="M143 954v287q0 137 88 211q74 61 185 61v-137q-66 -12 -93.5 -38.5t-27.5 -80.5q0 -18 2 -30h119v-273h-273zM567 954v287q0 137 88 211q74 61 185 61v-137q-66 -12 -93.5 -38.5t-27.5 -75.5q0 -23 2 -35h119v-273h-273z" />
<glyph unicode="&#x201d;" horiz-adv-x="983" d="M143 954v138q63 12 92 41.5t29 80.5q0 23 -2 37h-119v262h273v-286q0 -168 -131 -240q-58 -33 -142 -33zM567 954v138q66 12 93.5 40.5t27.5 81.5q0 23 -2 37h-119v262h273v-286q0 -168 -131 -240q-58 -33 -142 -33z" />
<glyph unicode="&#x201e;" horiz-adv-x="983" d="M143 0v262h273v-276q0 -168 -131 -240q-55 -33 -142 -33v137q66 12 93.5 39t27.5 76q0 23 -2 35h-119zM567 0v262h273v-276q0 -168 -131 -240q-57 -33 -142 -33v137q66 12 93.5 39t27.5 76q0 23 -2 35h-119z" />
<glyph unicode="&#x2022;" horiz-adv-x="1228" d="M274 647q0 141 101.5 242.5t242.5 101.5q143 0 245 -100t102 -244q0 -145 -101.5 -245.5t-249.5 -100.5q-139 0 -239.5 102.5t-100.5 243.5z" />
<glyph unicode="&#x2026;" horiz-adv-x="2048" d="M205 0v262h272v-262h-272zM885 0v262h272v-262h-272zM1567 0v262h274v-262h-274z" />
<glyph unicode="&#x202f;" horiz-adv-x="729" />
<glyph unicode="&#x2039;" horiz-adv-x="491" d="M74 489v205l284 267v-252l-137 -117l137 -119v-252z" />
<glyph unicode="&#x203a;" horiz-adv-x="491" d="M150 221v252l137 119l-137 117v252l284 -267v-205z" />
<glyph unicode="&#x205f;" horiz-adv-x="911" />
<glyph unicode="&#x20ac;" d="M-68 805l50 180h161q47 201 111 297q174 254 516 254q127 0 224.5 -29.5t224.5 -105.5l-80 -211q-201 119 -375 119q-76 0 -148.5 -33t-111.5 -84q-49 -63 -90 -207h645l-68 -180h-592v-92h557l-69 -181h-477q27 -102 71 -167q45 -70 125 -110t170 -40q100 0 299 82v-252 q-166 -68 -327 -68q-182 0 -338 95q-106 66 -167 170t-102 290h-207l50 181h141v39q0 31 2 53h-195z" />
<glyph unicode="&#x2122;" horiz-adv-x="2048" d="M145 1360v153h723v-153h-278v-653h-166v653h-279zM930 707v806h248l233 -526l250 526h242v-806h-166v587l-271 -587h-108l-262 585v-585h-166z" />
<glyph unicode="&#xe000;" horiz-adv-x="1135" d="M0 1135h1135v-1135h-1135v1135z" />
<glyph unicode="&#xfb01;" horiz-adv-x="1064" d="M16 887v227h99q18 188 90 272q104 127 284 127q35 0 68 -4v-258h-27q-80 0 -110.5 -29.5t-32.5 -107.5h154v-227h-154v-887h-272v887h-99zM672 0v1135h272v-1135h-272zM672 1257v256h272v-256h-272z" />
<glyph unicode="&#xfb02;" horiz-adv-x="1064" d="M16 887v227h99q18 188 90 272q104 127 284 127q35 0 68 -4v-258h-27q-80 0 -110.5 -29.5t-32.5 -107.5h154v-227h-154v-887h-272v887h-99zM672 0v1513h272v-1513h-272z" />
<glyph unicode="&#xfb03;" horiz-adv-x="1638" d="M1258 0v1135h272v-1135h-272zM1258 1257v256h272v-256h-272zM1612 -168q0 129 93 212t237 83q143 0 235 -84t92 -211t-93 -210t-241 -83q-143 0 -233 84t-90 209zM1639 -164q0 -111 77.5 -189.5t188.5 -78.5q109 0 186.5 78t77.5 188q0 51 -14.5 93t-39 70t-53 48.5 t-59.5 31.5t-54.5 16t-39.5 5q-123 0 -203 -86q-67 -76 -67 -176zM5194 578v102h622v-102h-622zM6369 -1335h623v-103h-623v103zM8618 1487v102h625v-102h-625zM9245 1487v512h622v-512h-622zM10306 1487v307h622v-307h-622zM593 887v227h99q18 188 90 272q104 127 285 127 q35 0 67 -4v-258h-26q-80 0 -111 -29.5t-33 -107.5h154v-227h-154v-887h-272v887h-99zM20 887v227h99q18 188 90 272q104 127 285 127q35 0 67 -4v-258h-26q-80 0 -111 -29.5t-33 -107.5h154v-227h-154v-887h-272v887h-99z" />
<glyph unicode="&#xfb04;" horiz-adv-x="1638" d="M1258 0v1513h272v-1513h-272zM593 887v227h99q18 188 90 272q104 127 285 127q35 0 67 -4v-258h-26q-80 0 -111 -29.5t-33 -107.5h154v-227h-154v-887h-272v887h-99zM20 887v227h99q18 188 90 272q104 127 285 127q35 0 67 -4v-258h-26q-80 0 -111 -29.5t-33 -107.5h154 v-227h-154v-887h-272v887h-99z" />
</font>
</defs>
</svg>
