<?xml version="1.0" standalone="no"?>
<!DOCTYPE svg PUBLIC "-//W3C//DTD SVG 1.1//EN" "http://www.w3.org/Graphics/SVG/1.1/DTD/svg11.dtd" >
<svg xmlns="http://www.w3.org/2000/svg">
<metadata>
This is a custom SVG webfont generated by Font Squirrel.
Copyright   : Copyright 20032009 by B Jackowski and JM Nowacki on behalf of TeX USERS GROUPS
</metadata>
<defs>
<font id="LMMono9Regular" horiz-adv-x="1075" >
<font-face units-per-em="2048" ascent="1638" descent="-410" />
<missing-glyph horiz-adv-x="500" />
<glyph unicode=" " />
<glyph unicode="!" d="M432 104q0 43 31 74t74 31t73.5 -31t30.5 -74t-30.5 -73.5t-73.5 -30.5t-74 30.5t-31 73.5zM432 1157q0 49 24.5 78t44 34t36 5t36 -5t44 -34t24.5 -78q0 -59 -5 -169.5t-5 -153.5l-8 -351q-2 -43 -5.5 -60t-23 -30.5t-58 -13.5t-58 13.5t-22.5 30.5t-5 54l-5 146z" />
<glyph unicode="&#x22;" d="M260 1157q-4 63 29 90t67 27q33 0 64 -24.5t31 -73.5l-27 -431q-2 -74 -68 -73q-63 0 -69 76zM623 1157q-4 63 28.5 90t67.5 27q33 0 63.5 -24.5t30.5 -73.5l-27 -431q-4 -74 -67.5 -73.5t-69.5 76.5z" />
<glyph unicode="#" d="M72 403q0 78 102 78h90l35 289h-125q-102 0 -102 78q0 76 100 76h147l31 239q8 88 78 88q33 0 57.5 -24.5t18.5 -77.5l-29 -225h197l30 239q8 88 78 88q33 0 57.5 -24.5t18.5 -77.5l-29 -225h74q100 0 100 -76q0 -78 -102 -78h-92l-35 -289h127q102 0 102 -78 q0 -76 -100 -75h-149l-25 -201q-4 -45 -10 -67.5t-23.5 -41t-48.5 -18.5q-33 0 -55.5 22.5t-22.5 55.5l29 250h-197l-24 -201q-4 -45 -10.5 -67.5t-23.5 -41t-48 -18.5q-33 0 -55.5 22.5t-22.5 55.5l29 250h-72q-100 -1 -100 75zM420 481h196l35 289h-196z" />
<glyph unicode="$" d="M119 344q0 57 30.5 81t65.5 24q39 0 66.5 -28t27.5 -67q0 -47 -30 -71q37 -129 192 -156v461q-193 35 -272.5 134t-79.5 200q0 123 95 218t257 117v76q0 88 68 88q66 0 65 -86v-78q96 -8 167 -41.5t110 -82t56 -98.5t17 -103q0 -59 -31.5 -82t-64.5 -23q-35 0 -64.5 26 t-29.5 71t29 69q-37 106 -189 131v-409q184 -37 267 -141.5t83 -219.5q0 -131 -98 -234.5t-252 -125.5v-78q0 -86 -65 -86q-68 0 -68 88v76q-178 16 -265 119.5t-87 230.5zM258 932q0 -70 61.5 -121t151.5 -70v381q-102 -18 -157.5 -73.5t-55.5 -116.5zM604 129 q96 18 153.5 79.5t57.5 135.5t-57.5 134.5t-153.5 80.5v-430z" />
<glyph unicode="%" d="M72 1149q0 113 50 192.5t128 79.5t128 -78.5t50 -195.5q0 -113 -50 -193t-128 -80t-128 79t-50 196zM174 -92q0 12 10 43l561 1407q23 63 78 63q29 0 52.5 -21.5t23.5 -56.5q0 -16 -12 -45l-559 -1404q-23 -51 -54 -62q-10 -2 -22 -2q-33 0 -55.5 22.5t-22.5 55.5z M195 1147q0 -41 10 -74t22.5 -48t22.5 -15t22.5 14t22.5 48t10 77q0 41 -10 73.5t-22.5 48t-22.5 15.5t-22.5 -14.5t-22.5 -48t-10 -76.5zM645 102.5q0 114.5 50 193.5t128 79t128 -79t50 -193.5t-50 -193.5t-128 -79t-128 79t-50 193.5zM768 102q0 -41 10 -74.5t22.5 -48 t23 -14.5t22.5 14.5t22.5 48t10.5 74.5t-10.5 75t-22.5 48.5t-22.5 14.5t-23 -14.5t-22.5 -48.5t-10 -75z" />
<glyph unicode="&#x26;" d="M57 285q0 127 76 219q14 18 66.5 71.5t64.5 67.5q-57 164 -57 330q0 139 63.5 220t157.5 81q96 0 144.5 -85t48.5 -200q0 -92 -48.5 -179t-162.5 -206q39 -90 145 -266q51 92 168 412q-63 8 -64 67q0 66 86 66h173q86 0 86 -68q0 -66 -86 -65h-62l-106 -281 q-74 -170 -115 -244q88 -115 168 -114q29 0 49 28.5t22 77.5q0 68 62 68q6 0 16.5 -2t27.5 -19.5t17 -48.5q0 -84 -50 -161t-144 -77q-117 0 -242 140q-117 -139 -252 -140q-113 0 -182.5 91.5t-69.5 216.5zM209 291q0 -66 24.5 -123t75.5 -57q88 0 174 110 q-29 43 -87 143.5t-79 143.5q-68 -66 -88 -110t-20 -107zM330 973q0 -113 32 -225q135 158 136 239v17q0 10 -4.5 36.5t-11.5 47t-21.5 37t-34.5 16.5q-39 0 -67.5 -45t-28.5 -123z" />
<glyph unicode="'" d="M440 1178q0 41 29 68.5t68 27.5q20 0 38.5 -5t39 -36t16.5 -82l-27 -397q-2 -25 -5 -39.5t-18.5 -28.5t-44 -14t-44 14t-18.5 28.5t-5 39.5l-25 385z" />
<glyph unicode="(" d="M350 627q0 272 144 497q78 121 184 209t149 88q37 0 52.5 -19.5t15.5 -41.5q0 -33 -27 -51q-182 -121 -278 -303q-88 -180 -88 -381q0 -184 84 -367.5t270 -306.5q39 -31 39 -60q0 -23 -15.5 -42t-52.5 -19q-41 0 -141 83t-172 187q-164 236 -164 527z" />
<glyph unicode=")" d="M178 -109q0 31 27 52q182 121 278 303q88 180 88 381q0 184 -84 367.5t-270 305.5q-39 27 -39 60q0 12 4 24.5t20.5 24.5t43.5 12q43 0 142 -83t171 -187q164 -236 164 -526q0 -272 -143 -498q-78 -121 -184.5 -209t-149.5 -88q-37 0 -52.5 20.5t-15.5 40.5z" />
<glyph unicode="*" d="M139 440q0 45 47 70l217 117l-217 114q-47 27 -47 70q0 29 20.5 50.5t51.5 21.5q14 0 49 -19l211 -125q-6 76 -6 240q0 88 71.5 88t71.5 -88q0 -164 -6 -240l221 131q20 12 39 13q31 0 51.5 -21.5t20.5 -50.5q0 -45 -47 -70l-217 -116l223 -121q41 -20 41 -64 q0 -29 -20.5 -50t-51.5 -21q-23 0 -71 30l-189 113q6 -78 6 -240q0 -88 -71.5 -88t-71.5 88q0 162 6 240l-221 -131q-20 -12 -39 -12q-31 0 -51.5 21t-20.5 50z" />
<glyph unicode="+" d="M76 627q0 76 100 75h285v285q0 100 78 100q76 0 75 -100v-285h283q100 0 100 -77q0 -76 -100 -76h-283v-285q0 -100 -77 -100q-76 0 -76 100v285h-285q-100 0 -100 78z" />
<glyph unicode="," d="M365 -217q0 45 55 63q125 41 151 158q-8 -4 -32 -4q-57 0 -94 37t-37 94q0 53 36.5 91t94.5 38q72 0 122 -59.5t50 -147.5q0 -152 -102.5 -245t-174.5 -93q-29 0 -49 21.5t-20 46.5z" />
<glyph unicode="-" d="M115 627q0 76 100 75h643q100 0 100 -77q0 -76 -100 -76h-643q-100 0 -100 78z" />
<glyph unicode="." d="M408 131q0 51 37.5 90t93.5 39q51 0 90 -38t39 -93q0 -51 -38 -90t-93 -39q-51 0 -90 38t-39 93z" />
<glyph unicode="/" d="M119 -92q0 16 16 49l666 1405q31 59 78 59q29 0 52 -21.5t23 -56.5q0 -16 -16 -49l-666 -1405q-27 -59 -77 -59q-29 0 -52.5 21.5t-23.5 56.5z" />
<glyph unicode="0" d="M98 627q0 274 130 460.5t309 186.5q176 0 307 -185.5t131 -463.5q0 -274 -130 -461t-308 -187q-176 0 -307.5 185.5t-131.5 464.5zM250 647q0 -221 84 -378.5t202.5 -157.5t202.5 156.5t84 379.5q0 215 -86 354.5t-200.5 139.5t-200.5 -139.5t-86 -354.5z" />
<glyph unicode="1" d="M211 956q0 63 76 68q141 10 227 205q20 45 64 45q66 0 65 -86v-1055h182q86 0 86 -67q0 -66 -86 -66h-516q-86 0 -86 66q0 68 86 67h183v842q-96 -84 -209 -84q-72 -1 -72 65z" />
<glyph unicode="2" d="M106 68q0 33 31 59l486 410q193 160 192 333q0 127 -92 199t-223 72q-80 0 -141.5 -38t-88.5 -106q27 -27 27 -67q0 -43 -29.5 -69.5t-64.5 -26.5q-33 0 -65 24.5t-32 77.5q0 135 115 236.5t289 101.5q195 0 326 -111.5t131 -292.5q0 -72 -21.5 -136t-64.5 -122.5 t-68 -84t-70 -70.5q-25 -23 -179 -150t-210 -174h461q0 27 1 40t8 29.5t23.5 22.5t43.5 6q35 0 53.5 -15t20.5 -29.5t2 -41.5v-59q0 -51 -17.5 -68.5t-68.5 -17.5h-686q-89 0 -89 68z" />
<glyph unicode="3" d="M90 274q0 49 27.5 75t68.5 26q39 0 67 -28t28 -66l-2 -15q-6 -27 -17 -43l-4 -6q78 -106 281 -106q127 0 209.5 74.5t82.5 174.5q0 92 -77.5 170t-223.5 78h-86q-86 0 -86 68q0 43 26 54t95 15q82 6 116 12.5t71 30.5q106 68 106 193q0 66 -65.5 113t-169.5 47 q-145 0 -213 -56q16 -23 16 -55q0 -39 -27.5 -66.5t-66.5 -27.5q-41 0 -68.5 26.5t-27.5 71.5q0 109 101 174.5t286 65.5q170 0 278.5 -86t108.5 -207q0 -180 -164 -297q86 -39 154.5 -125t68.5 -201q0 -152 -126 -266.5t-318 -114.5q-195 0 -322 82t-127 215z" />
<glyph unicode="4" d="M59 432q0 47 19 74l461 729q18 31 33.5 38t56.5 7h59q53 0 70.5 -17.5t17.5 -70.5v-715h152q86 0 86 -67q0 -66 -86 -66h-152v-211h123q86 0 86 -67q0 -66 -86 -66h-369q-86 0 -86 68q0 66 86 65h123v211h-508q-55 0 -70.5 19.5t-15.5 68.5zM213 477h440v699z" />
<glyph unicode="5" d="M106 289q0 53 30 77.5t67 24.5q39 0 66.5 -27.5t27.5 -66.5l-2 -14q-4 -27 -21 -50l-2 -2q31 -61 97.5 -90.5t136.5 -29.5q127 0 218 80.5t91 197.5q0 106 -68.5 190.5t-183.5 84.5q-168 0 -254 -103q-25 -31 -63 -31q-33 0 -50.5 17.5t-19.5 33t-2 44.5v532 q0 57 17.5 75.5t70.5 18.5h547q86 0 86 -67q0 -66 -86 -66h-483v-377q109 55 239 56q174 0 288 -123t114 -285q0 -170 -134.5 -291t-326.5 -121q-170 0 -285 92.5t-115 219.5z" />
<glyph unicode="6" d="M102 614q0 293 167 476.5t386 183.5q143 0 209 -65.5t66 -149.5q0 -45 -26.5 -73t-69.5 -28t-69 29t-26 66q0 33 19 55q-33 33 -103 33q-143 0 -258.5 -122t-138.5 -321q129 113 301 113t292 -121t120 -295q0 -180 -128 -299t-300 -119q-84 0 -159 33t-140.5 103.5 t-103.5 198.5t-38 302zM274 455q0 -72 24 -145.5t88.5 -136t154.5 -62.5q113 0 195.5 80.5t82.5 203.5q0 115 -75.5 198t-194.5 83q-117 0 -196 -65.5t-79 -155.5z" />
<glyph unicode="7" d="M90 1106v92q0 27 2 41t20.5 29.5t53.5 15.5q53 0 67 -33h664q86 0 86 -67q0 -23 -7 -32t-38 -40q-182 -178 -310 -445.5t-134 -586.5q0 -102 -76 -102.5t-76 100.5q0 297 123 586q109 250 291 454h-514q0 -27 -1 -40t-8.5 -29.5t-23.5 -22.5t-43 -6q-35 0 -53.5 15.5 t-20.5 29.5t-2 41z" />
<glyph unicode="8" d="M90 358q0 115 86 200t199 118q-102 29 -179 99.5t-77 168.5q0 131 119.5 230.5t298 99.5t298 -99.5t119.5 -230.5q0 -98 -76.5 -167.5t-179.5 -100.5q111 -33 198 -117t87 -201q0 -154 -129 -267.5t-317 -113.5q-190 0 -318.5 113.5t-128.5 267.5zM242 360 q0 -102 86 -175.5t208.5 -73.5t208.5 73.5t86 175.5q0 98 -82.5 173t-211.5 75t-212 -75t-83 -173zM270 942q0 -84 79 -142.5t187.5 -58.5t187.5 58.5t79 142.5q0 80 -77 139.5t-189.5 59.5t-189.5 -59.5t-77 -139.5z" />
<glyph unicode="9" d="M102 856q0 180 131.5 299t309.5 119t303 -151.5t125 -485.5q0 -291 -157 -475.5t-372 -184.5q-158 0 -228.5 64.5t-70.5 151.5q0 45 27 72.5t70 27.5t68.5 -28.5t25.5 -65.5q0 -35 -17 -56q43 -33 127 -32q139 0 245 124.5t126 317.5q-131 -113 -301 -113 q-172 0 -292 121t-120 295zM254 856q0 -115 76 -198t194 -83q117 0 196 67t79 157q0 82 -15 121q-72 221 -241 221q-115 0 -202 -80t-87 -205z" />
<glyph unicode=":" d="M408 131q0 51 37.5 90t93.5 39q51 0 90 -38t39 -93q0 -51 -38 -90t-93 -39q-51 0 -90 38t-39 93zM408 754q0 51 37.5 90t93.5 39q51 0 90 -38t39 -93q0 -51 -38 -90t-93 -39q-51 0 -90 38t-39 93z" />
<glyph unicode=";" d="M365 -217q0 41 45 59q100 51 129 158q-70 2 -100.5 43t-30.5 88q0 53 36.5 91t92.5 38q66 0 103.5 -54t37.5 -149q0 -150 -93 -246t-151 -96q-29 0 -49 21.5t-20 46.5zM408 754q0 51 37.5 90t93.5 39q51 0 90 -38t39 -93q0 -51 -38 -90t-93 -39q-51 0 -90 38t-39 93z" />
<glyph unicode="&#x3c;" d="M115 625q0 41 47 71l661 426q14 10 29.5 15.5t24.5 5.5l6 2q27 0 51 -21.5t24 -56.5q0 -39 -49 -74l-575 -368l577 -367q47 -33 47 -74q0 -33 -24.5 -55.5t-52.5 -22.5q-18 2 -33 9l-688 440q-45 29 -45 70z" />
<glyph unicode="=" d="M76 471q0 76 96 76h729q96 0 96 -76q0 -78 -108 -78h-705q-108 0 -108 78zM76 780q0 78 108 78h705q109 0 108 -78q0 -76 -96 -75h-729q-96 -1 -96 75z" />
<glyph unicode="&#x3e;" d="M115 184q0 39 24 58l600 385l-577 366q-47 33 -47 74q0 33 24.5 55.5t53.5 22.5q18 -2 32 -8l688 -441q45 -29 45 -69.5t-47 -71.5l-688 -440q-25 -8 -33 -9q-27 0 -51 21.5t-24 56.5z" />
<glyph unicode="?" d="M127 1010q0 102 95 177t294 75q121 0 209 -26t129 -56.5t63.5 -73.5t25.5 -62.5t3 -37.5q0 -123 -129 -195q-137 -74 -182 -149.5t-45 -161.5v-33q0 -31 -3 -45t-22.5 -28.5t-58.5 -14.5q-57 0 -70.5 22.5t-13.5 85.5q0 47 6 82t28.5 97.5t87 125t165.5 119.5 q25 14 35 20.5t24 19t20.5 25.5t6.5 30q0 55 -72 88.5t-207 33.5q-156 0 -215 -65q16 -25 16 -57q0 -39 -27.5 -67t-66.5 -28q-41 0 -68.5 27t-27.5 72zM401 104q0 43 31 74t74 31t73.5 -31t30.5 -74t-30.5 -73.5t-73.5 -30.5t-74 30.5t-31 73.5z" />
<glyph unicode="@" d="M90 626.5q0 268.5 159 452t374 183.5q360 0 360 -605q0 -125 -31.5 -216t-81 -137t-96.5 -66.5t-90 -20.5q-121 0 -209 117t-88 293q0 170 87 288.5t212 118.5q63 0 121 -35q-23 57 -71 93t-113 36q-160 0 -285 -143t-125 -360q0 -211 124 -356.5t288 -145.5 q119 0 204 82q20 18 31.5 22t40.5 4q82 0 82 -61q0 -51 -113.5 -115.5t-242.5 -64.5q-219 0 -378 184t-159 452.5zM510 625q0 -115 52 -195t124 -80q68 0 121 79t53 198q0 115 -52 194.5t-124 79.5q-68 0 -121 -78.5t-53 -197.5z" />
<glyph unicode="A" d="M57 68q0 66 86 65h37l242 1067q10 47 31.5 63.5t72.5 16.5h21q51 0 72.5 -16.5t31.5 -63.5l242 -1067h37q86 0 86 -67q0 -66 -86 -66h-223q-86 0 -86 66q0 33 16 48t35.5 17t64.5 2l-43 193h-315l-43 -193q45 0 64.5 -2t36 -17.5t16.5 -47.5q0 -66 -86 -66h-224 q-86 0 -86 68zM408 459h256l-99 471q0 4 -6 35.5t-12 67.5t-8 57h-2q-12 -111 -129 -631z" />
<glyph unicode="B" d="M41 68q0 66 88 65h53v985h-53q-88 0 -88 68q0 66 88 65h463q160 0 256 -98t96 -221q0 -84 -54 -161t-163 -114q129 -37 194.5 -125t65.5 -188q0 -131 -95 -237.5t-259 -106.5h-504q-88 0 -88 68zM334 133h254q119 0 183.5 65.5t64.5 149.5t-56.5 160t-169.5 76h-276v-451 zM334 717h205q133 0 193.5 69.5t60.5 143.5q0 66 -49.5 127t-159.5 61h-250v-401z" />
<glyph unicode="C" d="M82 627q0 272 145.5 459.5t347.5 187.5q145 0 261 -94q27 57 43 75.5t47 18.5q66 0 65 -86v-285q0 -27 -2 -41t-20.5 -29.5t-53.5 -15.5q-68 0 -75 51q-14 88 -49 148.5t-79 84t-73 32t-55 8.5q-137 0 -244 -147.5t-107 -368.5q0 -217 105.5 -365.5t247.5 -148.5 q16 0 34.5 2t58.5 15t71.5 37.5t58.5 76t31 120.5q4 53 75 54q76 0 76 -70q0 -147 -120.5 -258t-292.5 -111q-205 0 -350.5 188t-145.5 462z" />
<glyph unicode="D" d="M33 68q0 66 88 65h43v985h-43q-88 0 -88 68q0 66 88 65h424q197 0 322.5 -189.5t125.5 -445.5q0 -254 -126 -435t-322 -181h-424q-88 0 -88 68zM315 133h189q156 0 247 145.5t91 338t-89 347t-251 154.5h-187v-985z" />
<glyph unicode="E" d="M45 68q0 66 88 65h60v985h-60q-88 0 -88 68q0 66 88 65h764q51 0 68.5 -17t17.5 -69v-157q0 -27 -2 -41.5t-20.5 -29.5t-53.5 -15t-53 15t-20.5 29.5t-2.5 41.5v110h-487v-403h258q0 47 3 66.5t19.5 34.5t53.5 15q35 0 53.5 -15t20.5 -29.5t2 -41.5v-194q0 -27 -2 -41 t-20.5 -29.5t-53.5 -15.5q-37 0 -53.5 15.5t-19.5 35t-3 66.5h-258v-449h533v143q0 27 2 41.5t20.5 29.5t53 15t53 -15t20.5 -29.5t2 -41.5v-190q0 -51 -17.5 -68.5t-68.5 -17.5h-809q-88 0 -88 68z" />
<glyph unicode="F" d="M51 66q0 68 88 67h66v985h-66q-88 0 -88 66q0 68 88 67h779q51 0 68.5 -17t17.5 -69v-157q0 -27 -2.5 -41.5t-20.5 -29.5t-53 -15t-53.5 15t-20.5 29.5t-2 41.5v110h-496v-426h267q0 47 3 66.5t19.5 35t52.5 15.5q35 0 53.5 -15.5t20.5 -29.5t2 -41v-195q0 -27 -2 -41 t-20.5 -29.5t-53.5 -15.5q-37 0 -53 15.5t-19 35t-3 66.5h-267v-426h105q88 0 88 -67q0 -66 -88 -66h-322q-88 0 -88 66z" />
<glyph unicode="G" d="M76 627q0 274 135 460.5t321 186.5q129 0 236 -88q16 37 24.5 50t23.5 25.5t38 12.5q66 0 66 -86v-285q0 -27 -2.5 -41t-20.5 -29.5t-53 -15.5q-25 0 -40.5 5t-22.5 17.5t-9 20.5t-4 25q-16 117 -79.5 186.5t-147.5 69.5q-123 0 -218.5 -147.5t-95.5 -368.5 q0 -219 95.5 -366.5t216.5 -147.5q96 0 153.5 89t71.5 222h-82q-86 0 -86 67q0 66 86 66h246q88 0 88 -66q0 -31 -17.5 -47t-33 -18t-45.5 -2v-336q0 -27 -2.5 -41t-20.5 -29.5t-53 -15.5q-41 0 -58.5 17.5t-17.5 58.5q-98 -98 -236 -99q-186 0 -321 185.5t-135 464.5z" />
<glyph unicode="H" d="M37 68q0 66 86 65h49v985h-49q-86 0 -86 68q0 66 86 65h250q86 0 86 -67q0 -66 -86 -66h-49v-401h426v401h-50q-86 0 -86 66q0 68 86 67h250q86 0 86 -67q0 -66 -86 -66h-49v-985h49q86 0 86 -67q0 -66 -86 -66h-250q-86 0 -86 66q0 68 86 67h50v451h-426v-451h49 q86 0 86 -67q0 -66 -86 -66h-250q-86 0 -86 68z" />
<glyph unicode="I" d="M152 68q0 66 88 65h221v985h-221q-88 0 -88 68q0 66 88 65h594q88 0 88 -67q0 -66 -88 -66h-222v-985h222q88 0 88 -67q0 -66 -88 -66h-594q-88 0 -88 68z" />
<glyph unicode="J" d="M137 205q0 43 26.5 70.5t69.5 27.5q41 0 68 -27.5t27 -66.5q0 -33 -15 -53q59 -45 168 -45q25 0 50.5 5t63.5 20.5t62.5 54t24.5 94.5v833h-168q-86 0 -86 66q0 68 86 67h379q88 0 88 -67q0 -66 -88 -66h-59v-842q0 -139 -105.5 -219t-247.5 -80q-156 0 -250 63t-94 165z " />
<glyph unicode="K" d="M47 68q0 66 88 65h43v985h-43q-88 0 -88 68q0 66 88 65h209q88 0 88 -67q0 -66 -88 -66h-43v-524l416 524q-82 0 -82 66q0 68 88 67h184q86 0 86 -65q0 -47 -25.5 -57.5t-93.5 -10.5l-307 -387l338 -598q39 0 57.5 -2t35 -17.5t16.5 -47.5q0 -66 -86 -66h-158 q-88 0 -88 68q0 66 82 65l-279 494l-184 -232v-262h43q88 0 88 -67q0 -66 -88 -66h-209q-88 0 -88 68z" />
<glyph unicode="L" d="M57 68q0 66 86 65h74v985h-74q-86 0 -86 68q0 66 86 65h338q88 0 88 -67q0 -66 -88 -66h-112v-985h479v141q0 27 2 42.5t20.5 30.5t53 15t53 -15t20.5 -30.5t2 -42.5v-188q0 -51 -17 -68.5t-69 -17.5h-770q-86 0 -86 68z" />
<glyph unicode="M" d="M29 66q0 33 17 48t35.5 17t57.5 2v985q-39 0 -57.5 2t-35.5 17.5t-17 48.5q0 66 88 65h119q53 0 74.5 -15t37.5 -62l133 -408q41 -125 56 -191h2q12 68 65 230l121 369q16 47 37.5 62t75.5 15h118q88 0 88 -65q0 -33 -17 -48.5t-35.5 -17.5t-57.5 -2v-985q39 0 57.5 -2 t35.5 -17.5t17 -47.5q0 -66 -88 -66h-168q-88 0 -88 66q0 33 17.5 48t36 17t57.5 2v957h-2l-57 -199l-129 -395q-27 -78 -86.5 -78t-85.5 78l-140 426q-37 119 -47 168h-2v-957q39 0 57.5 -2t36 -17.5t17.5 -47.5q0 -66 -88 -66h-168q-88 0 -88 66z" />
<glyph unicode="N" d="M51 68q0 66 86 65h49v985h-49q-86 0 -86 68q0 66 86 65h146q31 0 46 -3t35.5 -20.5t34.5 -53.5l265 -730l98 -286h2v960h-49q-86 0 -86 68q0 66 86 65h221q86 0 86 -67q0 -66 -86 -66h-49v-1032q0 -39 -13.5 -59.5t-29 -23.5t-49.5 -3q-33 0 -49.5 3t-37 20.5t-34.5 54.5 l-264 729l-99 287h-2v-961h49q86 0 86 -67q0 -66 -86 -66h-221q-86 0 -86 68z" />
<glyph unicode="O" d="M115 624.5q0 159.5 4 255t22.5 176.5t42 117.5t76.5 62.5t112.5 32t164.5 6q78 0 128 -3t97 -15.5t74.5 -30t52 -55t36 -79.5t20.5 -115t11 -153t2 -198q0 -160 -4 -255.5t-22.5 -175t-42 -116.5t-76.5 -62.5t-113.5 -32t-162.5 -6.5q-104 0 -164 6.5t-113 32t-76.5 62.5 t-42 116.5t-22.5 175t-4 255zM266 643q0 -287 25 -393q18 -76 68.5 -107.5t177.5 -31.5t178 32.5t67 110.5q25 109 25 389q0 268 -23 363q-18 80 -71.5 107.5t-176 27.5t-174 -25.5t-71.5 -103.5q-25 -93 -25 -369z" />
<glyph unicode="P" d="M45 68q0 66 88 65h60v985h-60q-88 0 -88 68q0 66 88 65h461q174 0 281.5 -114.5t107.5 -264t-107.5 -264t-281.5 -114.5h-250v-361h59q88 0 89 -67q0 -66 -89 -66h-270q-88 0 -88 68zM344 627h209q133 0 205.5 76.5t72.5 169t-72.5 169t-205.5 76.5h-209v-491z" />
<glyph unicode="Q" d="M115 624.5q0 159.5 4 255t22.5 176.5t42 117.5t76.5 62.5t112.5 32t164.5 6q78 0 128 -3t97 -15.5t74.5 -30t52 -55t36 -79.5t20.5 -115t11 -153t2 -198q0 -231 -12 -342q-12 -119 -44 -181.5t-99 -93.5l67 -125q59 -115 60 -125q0 -43 -68 -43h-24q-55 0 -72 23 q-4 6 -31.5 59t-57.5 112.5t-36 70.5q-27 -2 -104 -3q-104 0 -164 6.5t-113 32t-76.5 62.5t-42 116.5t-22.5 175t-4 255zM266 625q0 -231 15 -328q16 -100 61 -143t180 -43h51q-94 184 -94 196q0 43 68 43h28q33 0 41.5 -3t18.5 -19l92 -178q49 37 64.5 139t15.5 338 q0 256 -19 354q-18 90 -68 125t-183 35q-131 0 -182.5 -33t-69.5 -123q-19 -98 -19 -360z" />
<glyph unicode="R" d="M37 68q0 66 86 65h49v985h-49q-86 0 -86 68q0 66 86 65h366q174 0 286 -104.5t112 -241.5q0 -178 -168 -284q66 -49 94 -121q14 -37 16 -63.5t2 -129.5q0 -49 1.5 -74.5t5.5 -59.5t15 -48t30 -14q35 0 35 86q2 68 75 67q76 0 76 -69q0 -78 -48 -148t-134 -70 q-113 0 -170 99q-18 31 -26.5 71.5t-9.5 74.5t-1 112q0 51 -2 74.5t-11.5 50t-31.5 45.5q-61 55 -158 55h-153v-426h49q86 0 86 -67q0 -66 -86 -66h-250q-86 0 -86 68zM324 692h141q131 0 200.5 66.5t69.5 146.5t-70.5 146.5t-199.5 66.5h-141v-426z" />
<glyph unicode="S" d="M106 63v265q0 29 2.5 43t20.5 29.5t53 15.5q33 0 50.5 -13.5t20.5 -25.5t5 -35q6 -121 104 -180q86 -51 222 -51q109 0 174 67.5t65 153.5q0 63 -41 124.5t-129 90.5q-4 0 -77.5 17.5t-90.5 21.5q-129 29 -184 52.5t-115 86.5q-80 96 -80 211q0 135 108 236.5 t271.5 101.5t282.5 -88q10 47 27.5 67.5t50.5 20.5q66 0 65 -86v-266q0 -27 -2 -41.5t-20.5 -29.5t-52.5 -15q-20 0 -32.5 2t-26 17t-17.5 44q-39 242 -275 242q-100 0 -167.5 -59.5t-67.5 -137.5q0 -66 47 -118t119 -68q16 -4 219 -53q168 -37 250 -136q82 -102 82 -227 q0 -145 -107.5 -255t-277.5 -110q-205 0 -332 89q-10 -47 -27.5 -68t-50.5 -21q-66 0 -66 86z" />
<glyph unicode="T" d="M53 1008v155q0 53 17.5 70.5t70.5 17.5h793q51 0 68.5 -17t17.5 -69v-157q0 -27 -2 -41.5t-20.5 -29.5t-53.5 -15t-53.5 15t-20.5 29.5t-2 41.5v110h-256v-985h105q88 0 88 -67q0 -66 -88 -66h-361q-88 0 -88 68q0 66 88 65h105v985h-256v-110q0 -27 -2 -41.5 t-20.5 -29.5t-53.5 -15t-53.5 15t-20.5 29.5t-2 41.5z" />
<glyph unicode="U" d="M0 1184q0 68 88 67h270q88 0 88 -67q0 -66 -88 -66h-59v-690q0 -147 73.5 -232t164 -85t164 85t73.5 232v690h-59q-88 0 -88 66q0 68 88 67h270q88 0 88 -67q0 -66 -88 -66h-59v-698q0 -188 -116 -315.5t-273.5 -127.5t-273.5 127t-116 316v698h-59q-88 0 -88 66z" />
<glyph unicode="V" d="M37 1186q0 66 88 65h215q88 0 88 -65q0 -33 -17.5 -48.5t-37 -17.5t-62.5 -2l193 -792q27 -113 31 -166h2q12 96 81 377l144 581q-43 0 -62.5 2t-37 17.5t-17.5 48.5q0 66 88 65h215q88 0 88 -65q0 -33 -17.5 -48.5t-36.5 -17.5t-64 -2l-265 -1063q-8 -35 -27.5 -52 t-37 -19t-51.5 -2q-29 0 -41.5 1t-31 8t-28.5 24.5t-18 45.5l-262 1057q-45 0 -64.5 2t-37 17.5t-17.5 48.5z" />
<glyph unicode="W" d="M25 1184q0 68 86 67h163q88 0 88 -67q0 -66 -88 -66h-47l88 -686q25 -190 31 -266q2 88 49 307t60 242q20 37 81.5 37t81.5 -37q14 -23 60.5 -243t48.5 -306h2q6 84 33 301l86 651h-49q-88 0 -88 68q0 66 88 65h164q86 0 86 -67q0 -66 -78 -66l-144 -1055q-2 -25 -7 -39 t-24.5 -28t-56.5 -14q-63 0 -84 47q-8 14 -60 257.5t-58 301.5q-6 -55 -59.5 -299t-59.5 -258q-20 -49 -84 -49q-35 0 -55.5 14t-24.5 27.5t-8 42.5l-144 1052h-2q-75 0 -75 66z" />
<glyph unicode="X" d="M57 68q0 66 86 65h45l263 535l-238 450h-45q-88 0 -88 68q0 66 88 65h217q88 0 88 -65q0 -68 -90 -68l143 -274l131 274q-29 0 -45 2t-32.5 18.5t-16.5 47.5q0 66 86 65h219q86 0 86 -67q0 -66 -86 -66h-45l-221 -450l279 -535h45q88 0 88 -67q0 -66 -88 -66h-217 q-88 0 -88 66q0 31 17 47t32.5 18t42.5 2l-187 377l-174 -377q31 0 47.5 -2t33 -18.5t16.5 -46.5q0 -66 -87 -66h-219q-86 0 -86 68z" />
<glyph unicode="Y" d="M39 1186q0 66 88 65h217q88 0 88 -65q0 -31 -17.5 -47.5t-32.5 -18.5t-46 -2q182 -385 199 -463h4q14 68 198 463q-31 0 -46 2t-32.5 18.5t-17.5 47.5q0 66 88 65h217q88 0 88 -67q0 -66 -88 -66h-41l-293 -618v-367h50q86 0 86 -67q0 -66 -86 -66h-250q-86 0 -86 66 q0 68 86 67h49v367l-293 618h-41q-88 0 -88 68z" />
<glyph unicode="Z" d="M98 76q0 33 21 63l661 979h-506v-110q0 -27 -2 -41.5t-20.5 -29.5t-53 -15t-53 15t-20.5 29.5t-2 41.5v155q0 53 17.5 70.5t70.5 17.5h676q29 0 43 -2t29.5 -20.5t15.5 -52.5q0 -33 -21 -64l-661 -979h541v150q0 27 2 41t20 29.5t53 15.5t53.5 -15.5t20.5 -30t2 -40.5 v-197q0 -51 -17.5 -68.5t-68.5 -17.5h-713q-29 0 -43 2t-29.5 20.5t-15.5 53.5z" />
<glyph unicode="[" d="M446 -84v1419q0 51 17.5 68.5t68.5 17.5h373q86 0 86 -65q0 -68 -86 -68h-307v-1325h307q86 0 86 -65q0 -68 -86 -68h-373q-51 0 -68.5 17.5t-17.5 68.5z" />
<glyph unicode="\" d="M119 1343q0 35 23.5 56.5t52.5 21.5q51 0 77 -59l672 -1415q10 -31 10 -39q0 -35 -23.5 -56.5t-51.5 -21.5q-51 0 -80 61l-670 1414q-10 30 -10 38z" />
<glyph unicode="]" d="M82 -102q0 66 86 65h307v1325h-307q-86 0 -86 68q0 66 86 65h373q51 0 68.5 -17.5t17.5 -68.5v-1419q0 -51 -17.5 -68.5t-68.5 -17.5h-373q-86 0 -86 68z" />
<glyph unicode="^" d="M144 1062q1 34 36 50l334 162q23 10 47 0l334 -162q53 -27 28.5 -80t-77.5 -31l-309 134l-310 -134q-33 -14 -58.5 6.5t-24.5 54.5z" />
<glyph unicode="_" d="M115 -229q0 76 100 75h643q100 0 100 -77q0 -76 -100 -76h-643q-100 0 -100 78z" />
<glyph unicode="`" d="M317 1196q0 29 21.5 52.5t54.5 23.5q12 0 39 -10l268 -109q55 -20 56 -63q0 -33 -21.5 -59.5t-52.5 -26.5q-20 0 -41 10l-258 104q-66 25 -66 78z" />
<glyph unicode="a" d="M98 272q0 143 171 220t442 81q0 92 -66.5 142.5t-189.5 50.5q-55 0 -113 -6q0 -111 -96 -111q-39 0 -66.5 26.5t-27.5 69.5q0 53 30.5 88t88 47.5t93 15.5t89.5 3q201 0 305 -93t104 -226v-433q39 -14 113 -14q88 0 88 -65q0 -31 -16.5 -47.5t-35 -18.5t-55.5 -2 q-178 0 -227 70q-111 -80 -291 -80q-147 0 -243.5 81.5t-96.5 200.5zM250 272q0 -63 57.5 -106t147.5 -43q100 0 174 35q55 27 68.5 55.5t13.5 75.5v155q-195 -2 -328 -50t-133 -122z" />
<glyph unicode="b" d="M16 1186q0 66 86 65h156q51 0 68.5 -17t17.5 -69v-366q115 94 254 94q170 0 288 -133t118 -318q0 -190 -126 -321t-300 -131q-131 0 -234 98q0 -29 -2 -43t-20.5 -29.5t-53.5 -15.5t-53 15.5t-20 29.5t-2 43v1030h-91q-86 0 -86 68zM344 395q0 -92 62.5 -182t162.5 -90 q115 0 199 92t84 227q0 133 -78 225.5t-184 92.5q-96 0 -171 -65.5t-75 -155.5v-144z" />
<glyph unicode="c" d="M145 442q0 74 27 149t79 146.5t150.5 116.5t223.5 45q43 0 70.5 -1t76.5 -9t79 -22.5t54.5 -46.5t24.5 -75q0 -41 -28 -68.5t-68 -27.5q-31 0 -61 21.5t-34 68.5q-2 14 -8 18.5t-37 6.5l-26 2h-45q-92 0 -161 -35t-101.5 -89t-48 -104.5t-15.5 -95.5q0 -133 92 -226 t223 -93q49 0 87 12t59.5 36t29 36t17.5 33q18 45 74 45q76 0 75 -62q0 -12 -8 -35.5t-33.5 -59.5t-62.5 -65.5t-103.5 -51t-148.5 -21.5q-188 0 -320.5 132t-132.5 320z" />
<glyph unicode="d" d="M70 440q0 190 126 321.5t298 131.5q135 0 235 -86v311h-90q-86 0 -86 68q0 66 86 65h156q51 0 68.5 -17t17.5 -69v-1032h90q86 0 86 -67q0 -66 -86 -66h-156q-59 0 -72.5 20.5t-13.5 77.5q-109 -109 -254 -108q-166 0 -285.5 131t-119.5 319zM221 440q0 -133 78 -225 t184.5 -92t176 91t69.5 185v144q0 84 -67.5 150.5t-157.5 66.5q-115 0 -199 -92.5t-84 -227.5z" />
<glyph unicode="e" d="M109 446q0 184 129 318.5t315 134.5q190 0 293.5 -123t103.5 -311q0 -37 -14 -54.5t-28.5 -20.5t-43.5 -3h-598q29 -133 127.5 -198.5t204.5 -65.5q154 0 203 117q18 45 73 45q76 0 76 -62q0 -23 -19.5 -58.5t-59.5 -76.5t-115.5 -69.5t-171.5 -28.5q-197 0 -336 133 t-139 323zM268 518h527q-10 117 -73 182.5t-169 65.5q-94 0 -176 -64.5t-109 -183.5z" />
<glyph unicode="f" d="M78 68q0 66 88 65h207v617h-199q-86 0 -86 65q0 68 88 68h197v102q0 133 96 205t227 72q199 0 199 -127q0 -45 -28.5 -70t-63.5 -25t-61.5 25t-30.5 63q-27 0 -44.5 -1t-47 -9t-48 -23.5t-33 -45t-14.5 -72.5v-94h240q86 0 86 -68q0 -66 -86 -65h-240v-617h207 q88 0 88 -67q0 -66 -88 -66h-565q-88 0 -88 68z" />
<glyph unicode="g" d="M59 -164q0 160 146 250q-4 4 -14.5 20.5t-21.5 52.5t-11 74q0 70 39 140q-63 84 -64 190q0 135 100.5 232.5t243.5 97.5q106 0 199 -59q92 72 213 71q76 0 114.5 -35.5t38.5 -83.5q0 -37 -25.5 -61.5t-60.5 -24.5q-68 0 -84 70q-55 -4 -104 -31q53 -82 53 -176 q0 -135 -100 -232.5t-244 -97.5q-94 0 -182 50q-10 -18 -10 -52q0 -47 24 -71q23 -25 64 -25q16 -6 59 -6h146q23 0 43 -1t68 -6t86 -15.5t85 -32t79 -52t53.5 -78.5t21.5 -108q0 -133 -139.5 -218t-338 -85t-338 85t-139.5 218zM186 -164q0 -68 101.5 -120t249.5 -52 q150 0 250 52.5t100 117.5q0 49 -26.5 83t-61.5 50.5t-99.5 25.5t-104.5 10t-116 1h-123q-76 -6 -123 -57.5t-47 -110.5zM285 563q0 -82 57 -140t135 -58t135.5 58t57.5 140t-57.5 140.5t-135.5 58.5t-135 -58.5t-57 -140.5z" />
<glyph unicode="h" d="M16 68q0 66 86 65h91v985h-91q-86 0 -86 68q0 66 86 65h156q51 0 68.5 -17t17.5 -69v-374q119 102 268 102q268 0 269 -295v-465h90q86 0 86 -67q0 -66 -86 -66h-307q-88 0 -89 68q0 66 89 65h65v457q0 92 -27.5 131t-101.5 39q-92 0 -174 -68.5t-82 -204.5v-354h90 q86 0 86 -67q0 -66 -86 -66h-332q-86 0 -86 68z" />
<glyph unicode="i" d="M152 68q0 66 86 65h249v617h-231q-88 0 -88 67q0 66 88 66h297q51 0 68.5 -17.5t17.5 -68.5v-664h215q88 0 88 -67q0 -66 -88 -66h-616q-86 0 -86 68zM434 1139q0 43 31 73.5t74 30.5t73.5 -30.5t30.5 -73.5t-30.5 -74t-73.5 -31t-74 31t-31 74z" />
<glyph unicode="j" d="M98 -307q0 45 30 71.5t67 26.5q29 0 60.5 -23.5t33.5 -74.5q0 -12 5 -16.5t30 -6.5q31 -2 71 -2q106 0 160 70q53 74 53 184v828h-266q-86 0 -86 67q0 66 86 66h332q51 0 68.5 -17.5t17.5 -68.5v-881q0 -59 -17.5 -119.5t-57.5 -122t-118 -100.5t-182 -39 q-287 0 -287 158zM553 1139q0 43 30.5 73.5t73.5 30.5t74 -30.5t31 -73.5t-31 -74t-74 -31t-73.5 31t-30.5 74z" />
<glyph unicode="k" d="M35 68q0 66 88 65h98v985h-98q-88 0 -88 68q0 66 88 65h135q51 0 68.5 -17t17.5 -69v-708l311 293h-67q-88 0 -88 67q0 66 88 66h319q86 0 86 -68q0 -66 -86 -65h-71l-244 -230l297 -387h63q86 0 86 -67q0 -66 -86 -66h-245q-88 0 -89 66q0 33 17.5 48t37 17t60.5 2 l-231 303l-158 -149v-154h98q88 0 88 -67q0 -66 -88 -66h-319q-88 0 -88 68z" />
<glyph unicode="l" d="M109 68q0 66 86 65h266v985h-266q-86 0 -86 68q0 66 86 65h331q51 0 68.5 -17t17.5 -69v-1032h267q86 0 86 -67q0 -66 -86 -66h-684q-86 0 -86 68z" />
<glyph unicode="m" d="M-12 66q0 33 16 48t35.5 17t64.5 2v617q-45 0 -64.5 2t-35.5 17t-16 48q0 66 86 66h67q25 0 38.5 -2t28.5 -16.5t19 -41.5q78 70 174 70q102 0 154 -102q84 102 203 102q63 0 104 -34t55.5 -89t18.5 -86t4 -66v-485q45 0 64.5 -2t36 -17.5t16.5 -47.5q0 -66 -86 -66h-146 q-86 0 -86 68q0 66 78 65v471q0 90 -17.5 123t-49.5 33q-66 0 -116 -72t-50 -194v-361q45 0 64.5 -2t35.5 -17.5t16 -47.5q0 -66 -86 -66h-145q-86 0 -86 68q0 66 78 65v471q0 90 -17.5 123t-50.5 33q-66 0 -116 -72t-50 -194v-361q45 0 64.5 -2t36 -17.5t16.5 -47.5 q0 -66 -86 -66h-184q-86 0 -86 66z" />
<glyph unicode="n" d="M16 68q0 66 86 65h91v617h-91q-86 0 -86 67q0 66 86 66h156q41 0 60.5 -12.5t22.5 -29t3 -50.5q119 102 268 102q268 0 269 -295v-465h90q86 0 86 -67q0 -66 -86 -66h-307q-88 0 -89 68q0 66 89 65h65v457q0 92 -27.5 131t-101.5 39q-92 0 -174 -68.5t-82 -204.5v-354h90 q86 0 86 -67q0 -66 -86 -66h-332q-86 0 -86 68z" />
<glyph unicode="o" d="M113 442q0 190 124.5 323.5t299 133.5t299.5 -133t125 -324q0 -188 -125 -320t-299.5 -132t-299 132t-124.5 320zM264 457q0 -137 80 -235.5t192.5 -98.5t192.5 98t80 236q0 133 -81 221t-191 88q-109 0 -191 -88t-82 -221z" />
<glyph unicode="p" d="M16 -387q0 66 86 65h91v1072h-91q-86 0 -86 67q0 66 86 66h156q49 0 67.5 -15.5t18.5 -68.5q115 94 254 94q170 0 288 -133t118 -318q0 -190 -126 -321t-300 -131q-131 0 -234 98v-410h90q86 0 86 -67q0 -66 -86 -66h-332q-86 0 -86 68zM344 395q0 -92 62.5 -182 t162.5 -90q115 0 199 92t84 227q0 133 -78 225.5t-184 92.5q-96 0 -171 -65.5t-75 -155.5v-144z" />
<glyph unicode="q" d="M78 440q0 190 132 321.5t310 131.5q141 0 252 -105q0 39 3 56.5t19.5 33t53.5 15.5q35 0 53.5 -15.5t20.5 -29.5t2 -41v-1129h98q88 0 88 -67q0 -66 -88 -66h-348q-88 0 -88 68q0 66 88 65h98v426q-115 -115 -272 -114q-174 0 -298 132t-124 318zM229 440q0 -131 83 -224 t196 -93q115 0 189.5 89t74.5 183v84q0 102 -67.5 191.5t-176.5 89.5q-119 0 -209 -92.5t-90 -227.5z" />
<glyph unicode="r" d="M55 68q0 66 88 65h164v617h-164q-88 0 -88 67q0 66 88 66h230q51 0 68.5 -17.5t17.5 -68.5v-64q141 160 344 160q59 0 101 -14.5t60.5 -37t25.5 -42t7 -37.5q0 -41 -26.5 -66.5t-63.5 -25.5q-16 0 -33.5 6t-36 27.5t-20.5 56.5q-162 0 -260 -111.5t-98 -271.5v-244h227 q88 0 88 -67q0 -66 -88 -66h-543q-88 0 -88 68z" />
<glyph unicode="s" d="M147 76v186q0 29 2.5 43t20.5 29.5t53 15.5q39 0 53.5 -13t26.5 -50q55 -164 248 -164q135 0 195.5 40t60.5 95q0 104 -215 137q-168 27 -228.5 41.5t-109.5 44.5q-106 72 -107 174q0 23 5.5 48.5t29 62.5t62.5 64.5t114.5 48t178.5 20.5q135 0 213 -39q16 39 63 39 q66 0 66 -86v-133q0 -27 -2.5 -41t-20.5 -29.5t-53 -15.5q-72 0 -76 57q-2 23 -6 38.5t-21.5 35.5t-59.5 30.5t-108 10.5q-129 0 -190 -33t-61 -78q0 -80 221 -110q152 -25 209 -40.5t116 -51.5q113 -70 113 -195q0 -37 -14.5 -77t-51 -86t-120.5 -75.5t-203 -29.5 q-160 0 -262 71q-20 -72 -76 -71q-66 0 -66 86z" />
<glyph unicode="t" d="M51 815q0 68 88 68h170v164q0 29 2 43t20.5 29.5t53.5 15.5t53.5 -15.5t20.5 -30t2 -40.5v-166h325q86 0 86 -68q0 -66 -86 -65h-325v-467q0 -29 3 -47.5t15.5 -49t46 -47t86.5 -16.5q59 0 106.5 38t49.5 105q2 70 76 70q76 0 76 -72q0 -115 -93.5 -194.5t-224.5 -79.5 q-123 0 -208 68.5t-85 215.5v476h-172q-86 -1 -86 65z" />
<glyph unicode="u" d="M16 817q0 66 86 66h156q51 0 68.5 -17.5t17.5 -68.5v-551q0 -31 3 -47.5t16.5 -37t47 -29.5t91.5 -9q33 0 65.5 7t72.5 25.5t64.5 61.5t24.5 102v431h-90q-86 0 -86 67q0 66 86 66h156q51 0 68.5 -17.5t17.5 -68.5v-664h90q86 0 86 -67q0 -66 -86 -66h-156q-25 0 -38 2 t-28.5 16.5t-19.5 42.5q-102 -72 -242 -71q-295 0 -294 246v514h-91q-86 -1 -86 67z" />
<glyph unicode="v" d="M49 817q0 66 88 66h242q88 0 88 -68q0 -66 -88 -65h-53l211 -639l211 639h-54q-88 0 -88 67q0 66 88 66h242q88 0 88 -68q0 -66 -88 -65h-59l-226 -687q-12 -35 -33.5 -52t-38 -19t-42.5 -2q-29 0 -45.5 2t-37 20.5t-32.5 53.5l-225 684h-60q-88 -1 -88 67z" />
<glyph unicode="w" d="M33 817q0 66 86 66h248q88 0 88 -68q0 -66 -88 -65h-103l103 -592h2q10 66 57 223q27 96 45 122.5t70 26.5q53 0 71.5 -25.5t42.5 -115.5q51 -195 58 -231h2l94 592h-102q-88 0 -89 67q0 66 89 66h247q86 0 86 -66q0 -31 -16 -47t-34.5 -18t-55.5 -2l-119 -682 q-6 -37 -24.5 -55.5t-33 -20.5t-38.5 -2q-59 0 -77.5 24.5t-47.5 124.5q-47 174 -53 230h-2q-6 -74 -52 -236q-27 -96 -46 -119.5t-83 -23.5q-29 0 -43 3t-32.5 20.5t-24.5 54.5l-119 682q-37 0 -55 2t-34.5 18t-16.5 47z" />
<glyph unicode="x" d="M59 66q0 68 86 67h82l244 322l-231 295h-82q-86 0 -86 67q0 66 86 66h243q86 0 86 -66q0 -31 -16 -47t-32.5 -18t-49.5 -2l141 -191l138 191q-35 0 -51.5 2t-33 18t-16.5 47q0 66 86 66h244q86 0 86 -68q0 -66 -86 -65h-82l-223 -295l252 -322h82q86 0 86 -67 q0 -66 -86 -66h-244q-86 0 -86 66q0 31 16.5 47t34 18t51.5 2l-168 238l-161 -238q39 0 56 -2t33.5 -17.5t16.5 -47.5q0 -66 -86 -66h-244q-86 0 -86 66z" />
<glyph unicode="y" d="M53 817q0 66 92 66h234q27 0 42 -2t32.5 -17.5t17.5 -46.5q0 -47 -41 -63q-12 -4 -94 -4l110 -285q96 -260 109 -309h2q10 43 90 286l101 308q-88 0 -99 4q-43 12 -43 63q0 66 92 66h234q92 0 92 -66q0 -51 -45 -63q-10 -4 -102 -4l-306 -912q-47 -137 -128 -220 t-185 -83q-76 0 -123 52.5t-47 117.5q0 41 25.5 67.5t68.5 26.5q35 0 62.5 -21.5t29.5 -70.5l-14 -39q100 8 156 109q14 27 33.5 82t31.5 98l13 43q-8 27 -11 31l-280 719q-96 0 -107 4q-43 14 -43 63z" />
<glyph unicode="z" d="M68 76q0 41 28 67l639 607h-483v-54q0 -27 -2 -41t-20.5 -29.5t-53.5 -15.5t-53.5 15.5t-20.5 30t-2 40.5v99q0 53 17.5 70.5t70.5 17.5h689q29 0 43 -2t29.5 -20.5t15.5 -53.5q0 -41 -29 -68l-639 -606h524v78q0 27 2 41t20.5 29.5t53.5 15.5t53.5 -15.5t20.5 -29.5 t2 -41v-125q0 -51 -17.5 -68.5t-68.5 -17.5h-731q-29 0 -43.5 2t-29.5 20.5t-15 53.5z" />
<glyph unicode="{" d="M113 627q0 66 75 65q96 2 157 16.5t83.5 40t27.5 43t5 44.5v327q0 139 119 201q111 57 290 57q27 0 42.5 -2t32 -18.5t16.5 -46.5q0 -66 -80 -66q-94 -2 -153.5 -14t-82 -36t-28 -40t-5.5 -43v-328q0 -137 -114 -202q115 -61 114 -201v-328q0 -29 5.5 -45t28 -39.5 t84 -35t157.5 -13.5q74 0 74 -65q0 -31 -16.5 -47.5t-32 -18.5t-42.5 -2q-176 0 -276 49q-133 63 -133 209v328q0 29 -5 45t-27.5 41.5t-84 40t-158.5 16.5q-73 0 -73 68z" />
<glyph unicode="|" d="M461 -70v1391q0 100 78 100q76 0 75 -100v-1391q0 -100 -77 -100q-76 0 -76 100z" />
<glyph unicode="}" d="M113 -102q0 66 80 65q94 2 153.5 14.5t82 36t27.5 40t5 42.5v328q0 137 114 203q-115 61 -114 200v328q0 29 -5 45.5t-27.5 40t-84 34.5t-158.5 13q-74 0 -73 66q0 31 16 47t31.5 18t42.5 2q176 0 276 -49q133 -63 133 -209v-327q0 -29 5.5 -45.5t28 -42t84 -40 t157.5 -16.5q74 0 74 -67q0 -66 -76 -66q-96 -2 -156.5 -16.5t-83 -40t-28 -43t-5.5 -43.5v-328q0 -139 -118 -201q-111 -57 -291 -57q-27 0 -42.5 2t-31.5 18.5t-16 47.5z" />
<glyph unicode="~" d="M180 569q0 37 101 117q90 68 161 68q68 0 136 -68q45 -43 63 -43q45 0 129 78q33 33 59.5 33t47 -21.5t20.5 -48.5q0 -37 -100 -117q-90 -68 -162 -67q-68 0 -135 67q-45 43 -64 43q-45 0 -129 -78q-33 -33 -59.5 -32.5t-47 21.5t-20.5 48z" />
<glyph unicode="&#xa0;" />
<glyph unicode="&#xa1;" d="M432 -360q0 59 5 169.5t5 153.5l9 350q2 43 5 60.5t22.5 31t58 13.5t58 -13.5t23 -31t5.5 -54.5l4 -145l14 -534q0 -49 -24.5 -78t-44 -34t-36 -5t-36 5t-44 34t-24.5 78zM432 692q0 43 31 74t74 31t73.5 -31t30.5 -74t-30.5 -73.5t-73.5 -30.5t-74 30.5t-31 73.5z" />
<glyph unicode="&#xa2;" d="M145 442q0 145 95.5 281.5t285.5 167.5v123q0 27 19.5 46t46 19t46 -19.5t19.5 -45.5v-115q272 -6 273 -154q0 -41 -28 -68.5t-68 -27.5q-31 0 -61 21.5t-34 68.5q-2 14 -8 18.5t-37 6.5l-37 2v-639q102 14 148 113q18 45 74 45q76 0 75 -62q0 -16 -13 -46t-43 -69.5 t-93.5 -72.5t-147.5 -43v-123q0 -27 -19.5 -46.5t-46 -19.5t-46 18.5t-19.5 47.5v127q-164 27 -272.5 152.5t-108.5 293.5zM297 442q0 -109 64.5 -193.5t164.5 -113.5v619q-121 -31 -175 -126.5t-54 -185.5z" />
<glyph unicode="&#xa3;" d="M33 170q0 88 77.5 141.5t184.5 53.5q39 0 94 -19q-25 80 -94 205h-125q-31 0 -53.5 21.5t-22.5 54.5q0 31 22.5 53t53.5 22h49q-39 98 -39 181q0 154 110.5 261t268.5 107q154 0 265.5 -97t111.5 -239q0 -39 -27.5 -66.5t-66.5 -27.5t-66.5 28t-27.5 66q0 35 24 64 q-25 55 -84 88t-129 33q-94 0 -160.5 -63.5t-66.5 -153.5q0 -82 39 -181h338q31 0 53 -22.5t22 -52.5q0 -33 -22.5 -54.5t-52.5 -21.5h-263q106 -201 113 -311q51 -37 79 -55.5t76 -37t93 -18.5q84 0 84 166q0 31 22.5 53.5t53.5 22.5q33 0 54 -22.5t21 -53.5 q0 -129 -64.5 -223.5t-170.5 -94.5q-51 0 -106.5 25t-81 43t-91.5 68q-41 -63 -121.5 -99.5t-173.5 -36.5q-84 0 -142 55.5t-58 137.5zM184 170q0 -18 14.5 -29.5t34.5 -11.5q139 0 168 61q-59 23 -106 23q-111 0 -111 -43z" />
<glyph unicode="&#xa4;" d="M211 301q-55 53 16 125l41 41q-43 76 -43 160t43 159l-41 41q-68 76 -16 127q53 53 125 -18l41 -41q74 45 162 45q86 0 159 -45l39 39q68 76 125 16q55 -53 -16 -125l-39 -39q43 -76 43 -159.5t-43 -159.5l41 -41q66 -76 14 -127q-57 -57 -123 18l-41 41 q-74 -45 -159 -45q-88 0 -162 45l-41 -41q-68 -75 -125 -16zM377 626.5q0 -65.5 47 -113.5t115 -48q66 0 112.5 48t46.5 113.5t-47 113.5t-112 48q-68 0 -115 -48t-47 -113.5z" />
<glyph unicode="&#xa5;" d="M39 1186q0 66 88 65h217q88 0 88 -65q0 -31 -17.5 -47.5t-32.5 -18.5t-46 -2l119 -256h163l119 256q-31 0 -46 2t-32.5 18.5t-17.5 47.5q0 66 88 65h217q88 0 88 -67q0 -66 -88 -66h-41l-121 -256h76q31 0 53.5 -22.5t22.5 -53.5q0 -33 -22.5 -54t-53.5 -21h-147 l-80 -168h227q31 0 53.5 -21.5t22.5 -54.5q0 -31 -22.5 -53.5t-53.5 -22.5h-248v-258h50q86 0 86 -67q0 -66 -86 -66h-250q-86 0 -86 66q0 68 86 67h49v258h-246q-31 0 -53.5 22.5t-22.5 53.5q0 33 22.5 54.5t53.5 21.5h225l-80 168h-145q-31 0 -53.5 21.5t-22.5 53.5 q0 31 22.5 53.5t53.5 22.5h74l-121 256h-41q-88 0 -88 68zM518 711q14 -39 17 -56h4q2 16 16 56h-37z" />
<glyph unicode="&#xa6;" d="M461 -70v557q0 27 23.5 46.5t54 19.5t53 -19.5t22.5 -46.5v-557q0 -100 -77 -100q-76 0 -76 100zM461 764v557q0 100 78 100q76 0 75 -100v-557q0 -27 -22.5 -46.5t-53 -19.5t-54 19.5t-23.5 46.5z" />
<glyph unicode="&#xa7;" d="M78 627q0 131 108 204q-47 63 -47 140q0 135 119 219t280.5 84t280.5 -67.5t119 -192.5q0 -39 -27.5 -66.5t-66.5 -27.5t-66.5 27.5t-27.5 66.5q0 31 18 55q-45 53 -229 53q-102 0 -175 -39t-73 -112q0 -41 34.5 -74t67.5 -47t96 -37l209 -74q131 -45 216 -134t85 -208 q0 -131 -108 -204q47 -68 47 -140q0 -135 -119 -219t-280.5 -84t-280.5 67.5t-119 192.5q0 39 28 66.5t66.5 27.5t66.5 -27.5t28 -66.5q0 -31 -19 -55q45 -53 230 -53q102 0 174.5 39t72.5 112q0 41 -34.5 74t-67.5 47t-96 37l-209 74q-131 45 -216 134t-85 208zM229 627 q0 -127 199 -201l209 -74q90 -33 141 -65q70 31 70 110q0 127 -199 201l-209 74q-84 29 -141 63q-70 -28 -70 -108z" />
<glyph unicode="&#xa8;" d="M270 1139q0 39 28 66.5t66.5 27.5t66.5 -27.5t28 -66.5t-28 -67t-66.5 -28t-66.5 28t-28 67zM616 1139q0 39 28 66.5t67 27.5t66.5 -27.5t27.5 -66.5t-27.5 -67t-66.5 -28t-67 28t-28 67z" />
<glyph unicode="&#xa9;" d="M0 539q0 221 157.5 378.5t381.5 157.5q221 0 378.5 -157.5t157.5 -378.5q0 -223 -157.5 -381t-378.5 -158q-223 0 -381 158t-158 381zM82 538.5q0 -188.5 134 -322.5t322.5 -134t321.5 134t133 323q0 186 -134 320t-320 134q-188 0 -322.5 -133t-134.5 -321.5zM256 539 q0 143 78 242.5t184 99.5q78 0 137 -50q12 29 21.5 39.5t25.5 10.5q35 0 35 -45v-152q0 -45 -39 -45q-37 0 -41 27q-10 61 -40.5 97t-52 42t-42.5 6q-74 0 -130 -79t-56 -195q0 -115 55 -194t131 -79q18 0 41 4t56.5 37t37.5 92q2 29 41 29t39 -37q0 -78 -64.5 -136 t-154.5 -58q-109 0 -185.5 99.5t-76.5 244.5z" />
<glyph unicode="&#xaa;" d="M201 836q0 100 118.5 153t309.5 58q0 135 -180 135q-37 0 -78 -4q0 -78 -68 -78q-27 0 -46 18.5t-19 48.5q0 106 211 107q141 0 213.5 -65.5t72.5 -157.5v-303q27 -10 78 -11q61 0 61 -45q0 -23 -11 -33t-23.5 -12t-38.5 -2q-125 0 -160 49q-78 -57 -203 -57 q-102 0 -169.5 58.5t-67.5 140.5zM266 530.5q0 18.5 19.5 31.5t46.5 13h411q27 0 46.5 -13t19.5 -31.5t-19.5 -32t-46.5 -13.5h-411q-27 0 -46.5 13.5t-19.5 32zM305 836q0 -43 41 -74t103 -31q72 0 122 25q27 14 40.5 30.5t15.5 27.5t2 34v108q-135 -2 -229.5 -35.5 t-94.5 -84.5z" />
<glyph unicode="&#xab;" d="M96 627q0 33 29 61l440 381q23 18 37 18q18 0 31.5 -17t13.5 -48q0 -35 -31 -61l-385 -334l385 -334q31 -27 31 -62q0 -31 -13 -48t-32 -17q-14 0 -37 18l-446 385q-23 23 -23 58zM428 627q0 33 29 61l440 381q23 18 37 18q18 0 31.5 -17t13.5 -48q0 -35 -31 -61 l-385 -334l385 -334q31 -27 31 -62q0 -31 -13.5 -48t-31.5 -17q-14 0 -37 18l-446 385q-23 23 -23 58z" />
<glyph unicode="&#xac;" d="M76 782.5q0 30.5 22.5 53t53.5 22.5h770q31 0 53 -22.5t22 -53.5v-313q0 -31 -22.5 -53.5t-53 -22.5t-53 22.5t-22.5 53.5v238h-694q-31 0 -53.5 22.5t-22.5 53z" />
<glyph unicode="&#xad;" d="M115 627q0 76 100 75h643q100 0 100 -77q0 -76 -100 -76h-643q-100 0 -100 78z" />
<glyph unicode="&#xae;" d="M0 539q0 221 157.5 378.5t381.5 157.5q221 0 378.5 -157.5t157.5 -378.5q0 -223 -157.5 -381t-378.5 -158q-223 0 -381 158t-158 381zM82 538.5q0 -188.5 134 -322.5t322.5 -134t321.5 134t133 323q0 186 -134 320t-320 134q-188 0 -322.5 -133t-134.5 -321.5zM295 248 q0 35 45 35h27v522h-27q-45 0 -45 37q0 35 45 35h195q92 0 151 -56.5t59 -128.5q0 -94 -90 -151q6 -2 23.5 -21.5t28.5 -42.5q10 -27 10 -102q0 -104 26 -105q18 0 19 45q0 37 41 37q39 0 39 -37q0 -43 -24.5 -79.5t-72.5 -36.5q-59 0 -90 53q-20 35 -20 137q0 70 -23 90 q-33 29 -84 29h-82v-225h27q45 0 45 -37q0 -35 -45 -35h-133q-45 0 -45 37zM446 580h76q70 0 107 35.5t37 76.5q0 43 -37 78t-107 35h-76v-225z" />
<glyph unicode="&#xaf;" d="M152 1139q0 68 86 67h602q86 0 86 -69q0 -68 -86 -68h-600q-25 0 -40.5 2t-31.5 18.5t-16 49.5z" />
<glyph unicode="&#xb0;" d="M240 952q0 125 87 212t212 87q123 0 210 -87t87 -212q0 -123 -87 -211t-210 -88q-125 0 -212 88t-87 211zM391 952q0 -59 43 -103t105 -44q59 0 102 44t43 103q0 61 -43 104.5t-102 43.5q-61 0 -104.5 -43.5t-43.5 -104.5z" />
<glyph unicode="&#xb1;" d="M76 78q0 76 100 76h285v231h-285q-100 0 -100 78q0 76 100 76h285v284q0 100 78 101q76 0 75 -101v-284h283q100 0 100 -78q0 -76 -100 -76h-283v-231h283q100 0 100 -78q0 -76 -100 -76h-721q-100 0 -100 78z" />
<glyph unicode="&#xb2;" d="M324 672q0 18 14 28l244 205q96 82 96 168q0 63 -46 99t-112 36q-88 0 -114 -71q12 -18 12 -35q0 -20 -15.5 -33.5t-32 -13.5t-31.5 12t-15 39q0 68 57 118t143 50q96 0 163 -56.5t67 -144.5q0 -100 -113 -207q-10 -10 -46 -39.5t-82 -66.5t-67 -55h232q0 16 1 24 t10 16.5t26 8.5q39 0 39 -43v-31q0 -27 -9.5 -35t-33.5 -8h-344q-43 0 -43 35z" />
<glyph unicode="&#xb3;" d="M315 774q0 51 47 51q20 0 34 -14t14 -33v-8q-2 -12 -9 -20l-2 -5q37 -53 140 -53q63 0 105 38t42 87q0 47 -39 86t-112 39h-43q-43 0 -43 33q0 20 13 26.5t48 8.5q68 6 92 22q53 33 53 96q0 33 -32.5 56.5t-83.5 23.5q-74 0 -107 -28q8 -12 8 -27q0 -20 -14 -33.5 t-33 -13.5q-20 0 -34.5 13.5t-14.5 35.5q0 53 51 86t144 33q84 0 138 -43t54 -103q0 -92 -82 -149q43 -18 78 -61.5t35 -100.5q0 -76 -63.5 -133t-160 -57t-160 40.5t-63.5 106.5z" />
<glyph unicode="&#xb4;" d="M319 1090q0 43 56 63l268 109q27 10 39 10q33 0 54.5 -23.5t21.5 -52.5q0 -53 -66 -78l-258 -104q-20 -10 -41 -10q-31 0 -52.5 26.5t-21.5 59.5z" />
<glyph unicode="&#xb5;" d="M16 -387q0 66 93 65h84v1070h-84q-92 0 -93 67q0 66 93 66h145q57 0 73.5 -17.5t16.5 -75.5v-536q0 -35 3 -51.5t16.5 -38t47 -30.5t91.5 -9q113 0 168 55q29 25 42 52.5t15 45t2 50.5v422h-84q-92 0 -92 67q0 66 92 66h146q57 0 73.5 -17.5t16.5 -75.5v-655h84 q92 0 92 -67q0 -66 -92 -66h-146q-84 0 -92 61q-100 -72 -238 -71q-90 0 -145 20v-332h84q92 0 92 -67q0 -66 -92 -66h-319q-93 0 -93 68z" />
<glyph unicode="&#xb6;" d="M98 944q0 203 130 340t309 137h428q59 0 59 -45q0 -43 -59 -43h-88v-1659q0 -72 -37 -71.5t-37 71.5v1659h-123v-1659q0 -72 -37 -71.5t-37 71.5v793q-121 6 -232.5 55t-193.5 160.5t-82 261.5z" />
<glyph unicode="&#xb7;" d="M408 627q0 51 37.5 90t93.5 39q51 0 90 -38t39 -93q0 -51 -38 -90t-93 -39q-51 0 -90 38t-39 93z" />
<glyph unicode="&#xb8;" d="M326 -358q0 33 18 48t40 17t69 2q276 0 276 78q0 33 -37 53.5t-96 24.5q-31 2 -47.5 17.5t-18.5 29.5t-2 39v63q0 27 2 41.5t20.5 29.5t53.5 15q37 0 53.5 -15t19.5 -33.5t3 -63.5q104 -20 152.5 -76.5t48.5 -124.5q0 -51 -20.5 -89t-63.5 -60.5t-83 -37t-106.5 -19.5 t-104.5 -6t-108 -1q-31 0 -50 18.5t-19 49.5z" />
<glyph unicode="&#xb9;" d="M362 1116q0 33 39 33q72 8 113 102q10 23 33 23q33 0 33 -43v-526h90q43 0 43 -35q0 -33 -43 -33h-258q-43 0 -43 33q0 35 43 35h92v419q-49 -41 -105 -41q-37 0 -37 33z" />
<glyph unicode="&#xba;" d="M242 954q0 133 87 226.5t210 93.5q121 0 208 -93.5t87 -226.5t-87.5 -225t-207.5 -92q-123 0 -210 92t-87 225zM307 530.5q0 18.5 19.5 31.5t46.5 13h329q27 0 46.5 -13t19.5 -31.5t-19.5 -32t-46.5 -13.5h-329q-27 0 -46.5 13.5t-19.5 32zM346 965q0 -96 56.5 -165 t136.5 -69q78 0 134 68.5t56 165.5q0 92 -57.5 154.5t-132.5 62.5q-78 0 -135.5 -62.5t-57.5 -154.5z" />
<glyph unicode="&#xbb;" d="M94 231q0 35 31 62l385 334l-385 334q-31 27 -31 61q0 31 13.5 48t31.5 17q14 0 37 -18l440 -381q29 -29 29 -61q0 -35 -22 -58l-447 -385q-23 -18 -37 -18q-18 0 -31.5 17t-13.5 48zM426 231q0 35 31 62l385 334l-385 334q-31 27 -31 61q0 31 13.5 48t31.5 17 q14 0 37 -18l440 -381q29 -29 29 -61q0 -35 -23 -58l-446 -385q-23 -18 -37 -18q-18 0 -31.5 17t-13.5 48z" />
<glyph unicode="&#xbc;" d="M53 1116q0 33 37 33q72 6 115 102q10 23 31 23q33 0 32 -43v-526h92q43 0 43 -35q0 -33 -43 -33h-258q-43 0 -43 33q0 35 43 35h91v419q-45 -41 -105 -41q-35 0 -35 33zM193 41q0 20 10 37l645 1169q20 39 65 39q33 0 54.5 -21.5t21.5 -54.5q0 -20 -8 -36l-645 -1170 q-25 -39 -68 -39q-31 0 -53 22.5t-22 53.5zM545 217q0 23 10 37l229 364q16 23 45 23h31q27 0 35 -9t8 -36v-356h76q43 0 43 -35q0 -33 -43 -33h-76v-104h62q43 0 43 -35q0 -33 -43 -33h-185q-43 0 -43 35q0 33 43 33h62v104h-254q-27 0 -35 10t-8 35zM623 240h219v348z" />
<glyph unicode="&#xbd;" d="M53 1116q0 33 37 33q72 6 115 102q10 23 31 23q33 0 32 -43v-526h92q43 0 43 -35q0 -33 -43 -33h-258q-43 0 -43 33q0 35 43 35h91v419q-45 -41 -105 -41q-35 0 -35 33zM139 41q0 20 11 37l645 1169q20 39 65 39q31 0 53.5 -21.5t22.5 -54.5q0 -16 -10 -36l-645 -1170 q-20 -39 -66 -39q-31 0 -53.5 22.5t-22.5 53.5zM592 35q0 16 16 28l242 205q96 82 96 168q0 63 -46 99t-112 36q-86 0 -114 -71q14 -14 14 -35t-15.5 -34t-31.5 -13t-32.5 12t-16.5 39q0 68 57.5 118t145.5 50q96 0 161.5 -55.5t65.5 -145.5q0 -47 -23.5 -93t-39 -63.5 t-48.5 -50.5q-12 -12 -89 -74.5t-105 -86.5h229q0 16 1 24t10.5 16.5t27.5 8.5q37 0 37 -43v-31q0 -27 -8 -35t-35 -8h-342q-45 0 -45 35z" />
<glyph unicode="&#xbe;" d="M45 774q0 25 14.5 38t35 13t33.5 -14t13 -33l-2 -8q-2 -12 -8 -20l-2 -5q39 -53 141 -53q63 0 104.5 38t41.5 87q0 47 -39 86t-111 39h-43q-43 0 -43 33q0 20 13.5 26.5t46.5 8.5q70 6 94 22q53 33 53 96q0 33 -34 56.5t-85 23.5q-72 0 -106 -28q8 -8 8 -27 q0 -20 -13.5 -33.5t-33.5 -13.5q-18 0 -32.5 13.5t-14.5 35.5q0 53 50 86t142 33q86 0 140.5 -43t54.5 -103q0 -90 -82 -149q43 -18 77 -61.5t34 -100.5q0 -76 -62.5 -133t-159.5 -57q-98 0 -161.5 39.5t-63.5 107.5zM193 41q0 20 10 37l645 1169q20 39 65 39 q33 0 54.5 -21.5t21.5 -54.5q0 -20 -8 -36l-645 -1170q-25 -39 -68 -39q-31 0 -53 22.5t-22 53.5zM545 217q0 23 10 37l229 364q16 23 45 23h31q27 0 35 -9t8 -36v-356h76q43 0 43 -35q0 -33 -43 -33h-76v-104h62q43 0 43 -35q0 -33 -43 -33h-185q-43 0 -43 35q0 33 43 33 h62v104h-254q-27 0 -35 10t-8 35zM623 240h219v348z" />
<glyph unicode="&#xbf;" d="M127 -209q0 121 111 193q184 121 184 311v35q0 31 3 45t22.5 28.5t58.5 14.5q57 0 70.5 -22.5t13.5 -88.5q0 -254 -246 -420q-66 -47 -65 -96q0 -123 231 -123q193 0 262 64q-16 23 -16 59q0 39 27.5 66.5t66.5 27.5t67.5 -25.5t28.5 -74.5q0 -59 -26.5 -105.5t-73.5 -71 t-92 -42t-103.5 -23.5t-84 -7t-56.5 -1q-162 0 -258 53q-125 66 -125 203zM401 692q0 43 31 74t74 31t73.5 -31t30.5 -74t-30.5 -73.5t-73.5 -30.5t-74 30.5t-31 73.5z" />
<glyph unicode="&#xc0;" d="M57 68q0 66 86 65h37l242 1067q10 47 31.5 63.5t72.5 16.5h21q51 0 72.5 -16.5t31.5 -63.5l242 -1067h37q86 0 86 -67q0 -66 -86 -66h-223q-86 0 -86 66q0 33 16 48t35.5 17t64.5 2l-43 193h-315l-43 -193q45 0 64.5 -2t36 -17.5t16.5 -47.5q0 -66 -86 -66h-224 q-86 0 -86 68zM317 1575q0 29 21.5 52.5t54.5 23.5q12 0 39 -11l268 -108q55 -20 56 -64q0 -33 -21.5 -59.5t-52.5 -26.5q-20 0 -41 11l-258 104q-66 25 -66 78zM408 459h256l-99 471q0 4 -6 35.5t-12 67.5t-8 57h-2q-12 -111 -129 -631z" />
<glyph unicode="&#xc1;" d="M57 68q0 66 86 65h37l242 1067q10 47 31.5 63.5t72.5 16.5h21q51 0 72.5 -16.5t31.5 -63.5l242 -1067h37q86 0 86 -67q0 -66 -86 -66h-223q-86 0 -86 66q0 33 16 48t35.5 17t64.5 2l-43 193h-315l-43 -193q45 0 64.5 -2t36 -17.5t16.5 -47.5q0 -66 -86 -66h-224 q-86 0 -86 68zM319 1468q0 43 56 64l268 108q27 10 39 11q33 0 54.5 -23.5t21.5 -52.5q0 -53 -66 -78l-258 -104q-20 -10 -41 -11q-31 0 -52.5 26.5t-21.5 59.5zM408 459h256l-99 471q0 4 -6 35.5t-12 67.5t-8 57h-2q-12 -111 -129 -631z" />
<glyph unicode="&#xc2;" d="M57 68q0 66 86 65h37l242 1067q10 47 31.5 63.5t72.5 16.5h21q51 0 72.5 -16.5t31.5 -63.5l242 -1067h37q86 0 86 -67q0 -66 -86 -66h-223q-86 0 -86 66q0 33 16 48t35.5 17t64.5 2l-43 193h-315l-43 -193q45 0 64.5 -2t36 -17.5t16.5 -47.5q0 -66 -86 -66h-224 q-86 0 -86 68zM241.5 1405q-18.5 55 37.5 76l241 88q20 6 39 0l242 -88q53 -20 34.5 -75.5t-73.5 -39.5l-223 68l-224 -68q-55 -16 -73.5 39zM408 459h256l-99 471q0 4 -6 35.5t-12 67.5t-8 57h-2q-12 -111 -129 -631z" />
<glyph unicode="&#xc3;" d="M57 68q0 66 86 65h37l242 1067q10 47 31.5 63.5t72.5 16.5h21q51 0 72.5 -16.5t31.5 -63.5l242 -1067h37q86 0 86 -67q0 -66 -86 -66h-223q-86 0 -86 66q0 33 16 48t35.5 17t64.5 2l-43 193h-315l-43 -193q45 0 64.5 -2t36 -17.5t16.5 -47.5q0 -66 -86 -66h-224 q-86 0 -86 68zM180 1432q0 37 101 116q90 68 161 68q68 0 136 -68q45 -43 63 -43q45 0 129 78q33 33 59.5 33t47 -21.5t20.5 -48.5q0 -37 -100 -116q-90 -68 -162 -68q-68 0 -135 68q-45 43 -64 43q-45 0 -129 -78q-33 -33 -59.5 -33t-47 21.5t-20.5 48.5zM408 459h256 l-99 471q0 4 -6 35.5t-12 67.5t-8 57h-2q-12 -111 -129 -631z" />
<glyph unicode="&#xc4;" d="M57 68q0 66 86 65h37l242 1067q10 47 31.5 63.5t72.5 16.5h21q51 0 72.5 -16.5t31.5 -63.5l242 -1067h37q86 0 86 -67q0 -66 -86 -66h-223q-86 0 -86 66q0 33 16 48t35.5 17t64.5 2l-43 193h-315l-43 -193q45 0 64.5 -2t36 -17.5t16.5 -47.5q0 -66 -86 -66h-224 q-86 0 -86 68zM240 1456q0 39 27.5 66.5t66.5 27.5t66.5 -27.5t27.5 -66.5t-27.5 -66.5t-66.5 -27.5t-66.5 27.5t-27.5 66.5zM408 459h256l-99 471q0 4 -6 35.5t-12 67.5t-8 57h-2q-12 -111 -129 -631zM647 1456q0 39 27.5 66.5t66.5 27.5t67 -27.5t28 -66.5t-28 -66.5 t-67 -27.5t-66.5 27.5t-27.5 66.5z" />
<glyph unicode="&#xc5;" d="M57 68q0 66 86 65h37l242 1067q10 47 31.5 63.5t72.5 16.5h21q51 0 72.5 -16.5t31.5 -63.5l242 -1067h37q86 0 86 -67q0 -66 -86 -66h-223q-86 0 -86 66q0 33 16 48t35.5 17t64.5 2l-43 193h-315l-43 -193q45 0 64.5 -2t36 -17.5t16.5 -47.5q0 -66 -86 -66h-224 q-86 0 -86 68zM340 1427.5q0 59.5 57.5 103.5t141.5 44t141 -44t57 -103.5t-57 -103.5t-141 -44t-141.5 44t-57.5 103.5zM408 459h256l-99 471q0 4 -6 35.5t-12 67.5t-8 57h-2q-12 -111 -129 -631zM442 1427.5q0 -28.5 30 -49t66.5 -20.5t66.5 20.5t30 49t-30 49t-66.5 20.5 t-66.5 -20.5t-30 -49z" />
<glyph unicode="&#xc6;" d="M47 66q0 31 17.5 47t34 18t51.5 2l196 985q-82 0 -82 66q0 68 86 67h570q51 0 68.5 -17t17.5 -69v-157q0 -86 -61.5 -86t-61.5 86v110h-219v-403h223q86 0 86 -68q0 -66 -86 -65h-223v-449h235v143q0 86 61.5 86t61.5 -86v-190q0 -51 -17.5 -68.5t-68.5 -17.5h-391 q-86 0 -86 68q0 66 82 65v234h-219l-48 -234q29 0 44.5 -2t33 -18.5t17.5 -46.5q0 -66 -88 -66h-146q-88 0 -88 66zM348 500h193v618h-70z" />
<glyph unicode="&#xc7;" d="M82 627q0 272 145.5 459.5t347.5 187.5q145 0 261 -94q27 57 43 75.5t47 18.5q66 0 65 -86v-285q0 -27 -2 -41t-20.5 -29.5t-53.5 -15.5q-68 0 -75 51q-14 88 -49 148.5t-79 84t-73 32t-55 8.5q-137 0 -244 -147.5t-107 -368.5q0 -217 105.5 -365.5t247.5 -148.5 q16 0 34.5 2t58.5 15t71.5 37.5t58.5 76t31 120.5q4 53 75 54q76 0 76 -70q0 -117 -80 -214t-204 -136v-8q104 -20 152 -76.5t48 -124.5q0 -51 -20.5 -89t-63.5 -60.5t-83 -37t-106.5 -19.5t-104 -6t-107.5 -1q-31 0 -50.5 18.5t-19.5 49.5q0 33 18.5 48t40 17t68.5 2 q276 0 277 78q0 33 -37 53.5t-96 24.5q-31 2 -47.5 17.5t-18.5 29.5t-2 39v26q-197 12 -335 198t-138 452z" />
<glyph unicode="&#xc8;" d="M45 68q0 66 88 65h60v985h-60q-88 0 -88 68q0 66 88 65h764q51 0 68.5 -17t17.5 -69v-157q0 -27 -2 -41.5t-20.5 -29.5t-53.5 -15t-53 15t-20.5 29.5t-2.5 41.5v110h-487v-403h258q0 47 3 66.5t19.5 34.5t53.5 15q35 0 53.5 -15t20.5 -29.5t2 -41.5v-194q0 -27 -2 -41 t-20.5 -29.5t-53.5 -15.5q-37 0 -53.5 15.5t-19.5 35t-3 66.5h-258v-449h533v143q0 27 2 41.5t20.5 29.5t53 15t53 -15t20.5 -29.5t2 -41.5v-190q0 -51 -17.5 -68.5t-68.5 -17.5h-809q-88 0 -88 68zM317 1575q0 29 21.5 52.5t54.5 23.5q12 0 39 -11l268 -108q55 -20 56 -64 q0 -33 -21.5 -59.5t-52.5 -26.5q-20 0 -41 11l-258 104q-66 25 -66 78z" />
<glyph unicode="&#xc9;" d="M45 68q0 66 88 65h60v985h-60q-88 0 -88 68q0 66 88 65h764q51 0 68.5 -17t17.5 -69v-157q0 -27 -2 -41.5t-20.5 -29.5t-53.5 -15t-53 15t-20.5 29.5t-2.5 41.5v110h-487v-403h258q0 47 3 66.5t19.5 34.5t53.5 15q35 0 53.5 -15t20.5 -29.5t2 -41.5v-194q0 -27 -2 -41 t-20.5 -29.5t-53.5 -15.5q-37 0 -53.5 15.5t-19.5 35t-3 66.5h-258v-449h533v143q0 27 2 41.5t20.5 29.5t53 15t53 -15t20.5 -29.5t2 -41.5v-190q0 -51 -17.5 -68.5t-68.5 -17.5h-809q-88 0 -88 68zM319 1468q0 43 56 64l268 108q27 10 39 11q33 0 54.5 -23.5t21.5 -52.5 q0 -53 -66 -78l-258 -104q-20 -10 -41 -11q-31 0 -52.5 26.5t-21.5 59.5z" />
<glyph unicode="&#xca;" d="M45 68q0 66 88 65h60v985h-60q-88 0 -88 68q0 66 88 65h764q51 0 68.5 -17t17.5 -69v-157q0 -27 -2 -41.5t-20.5 -29.5t-53.5 -15t-53 15t-20.5 29.5t-2.5 41.5v110h-487v-403h258q0 47 3 66.5t19.5 34.5t53.5 15q35 0 53.5 -15t20.5 -29.5t2 -41.5v-194q0 -27 -2 -41 t-20.5 -29.5t-53.5 -15.5q-37 0 -53.5 15.5t-19.5 35t-3 66.5h-258v-449h533v143q0 27 2 41.5t20.5 29.5t53 15t53 -15t20.5 -29.5t2 -41.5v-190q0 -51 -17.5 -68.5t-68.5 -17.5h-809q-88 0 -88 68zM241.5 1405q-18.5 55 37.5 76l241 88q20 6 39 0l242 -88 q53 -20 34.5 -75.5t-73.5 -39.5l-223 68l-224 -68q-55 -16 -73.5 39z" />
<glyph unicode="&#xcb;" d="M45 68q0 66 88 65h60v985h-60q-88 0 -88 68q0 66 88 65h764q51 0 68.5 -17t17.5 -69v-157q0 -27 -2 -41.5t-20.5 -29.5t-53.5 -15t-53 15t-20.5 29.5t-2.5 41.5v110h-487v-403h258q0 47 3 66.5t19.5 34.5t53.5 15q35 0 53.5 -15t20.5 -29.5t2 -41.5v-194q0 -27 -2 -41 t-20.5 -29.5t-53.5 -15.5q-37 0 -53.5 15.5t-19.5 35t-3 66.5h-258v-449h533v143q0 27 2 41.5t20.5 29.5t53 15t53 -15t20.5 -29.5t2 -41.5v-190q0 -51 -17.5 -68.5t-68.5 -17.5h-809q-88 0 -88 68zM240 1456q0 39 27.5 66.5t66.5 27.5t66.5 -27.5t27.5 -66.5t-27.5 -66.5 t-66.5 -27.5t-66.5 27.5t-27.5 66.5zM647 1456q0 39 27.5 66.5t66.5 27.5t67 -27.5t28 -66.5t-28 -66.5t-67 -27.5t-66.5 27.5t-27.5 66.5z" />
<glyph unicode="&#xcc;" d="M152 68q0 66 88 65h221v985h-221q-88 0 -88 68q0 66 88 65h594q88 0 88 -67q0 -66 -88 -66h-222v-985h222q88 0 88 -67q0 -66 -88 -66h-594q-88 0 -88 68zM317 1575q0 29 21.5 52.5t54.5 23.5q12 0 39 -11l268 -108q55 -20 56 -64q0 -33 -21.5 -59.5t-52.5 -26.5 q-20 0 -41 11l-258 104q-66 25 -66 78z" />
<glyph unicode="&#xcd;" d="M152 68q0 66 88 65h221v985h-221q-88 0 -88 68q0 66 88 65h594q88 0 88 -67q0 -66 -88 -66h-222v-985h222q88 0 88 -67q0 -66 -88 -66h-594q-88 0 -88 68zM319 1468q0 43 56 64l268 108q27 10 39 11q33 0 54.5 -23.5t21.5 -52.5q0 -53 -66 -78l-258 -104q-20 -10 -41 -11 q-31 0 -52.5 26.5t-21.5 59.5z" />
<glyph unicode="&#xce;" d="M152 68q0 66 88 65h221v985h-221q-88 0 -88 68q0 66 88 65h594q88 0 88 -67q0 -66 -88 -66h-222v-985h222q88 0 88 -67q0 -66 -88 -66h-594q-88 0 -88 68zM241.5 1405q-18.5 55 37.5 76l241 88q20 6 39 0l242 -88q53 -20 34.5 -75.5t-73.5 -39.5l-223 68l-224 -68 q-55 -16 -73.5 39z" />
<glyph unicode="&#xcf;" d="M152 68q0 66 88 65h221v985h-221q-88 0 -88 68q0 66 88 65h594q88 0 88 -67q0 -66 -88 -66h-222v-985h222q88 0 88 -67q0 -66 -88 -66h-594q-88 0 -88 68zM240 1456q0 39 27.5 66.5t66.5 27.5t66.5 -27.5t27.5 -66.5t-27.5 -66.5t-66.5 -27.5t-66.5 27.5t-27.5 66.5z M647 1456q0 39 27.5 66.5t66.5 27.5t67 -27.5t28 -66.5t-28 -66.5t-67 -27.5t-66.5 27.5t-27.5 66.5z" />
<glyph unicode="&#xd0;" d="M33 68q0 66 88 65h43v428h-55q-27 0 -46.5 18.5t-19.5 47.5q0 27 19.5 46t46.5 19h55v426h-43q-88 0 -88 68q0 66 88 65h424q197 0 322.5 -189.5t125.5 -445.5q0 -254 -126 -435t-322 -181h-424q-88 0 -88 68zM315 133h189q156 0 247 145.5t91 338t-89 347t-251 154.5 h-187v-426h115q27 0 46.5 -19.5t19.5 -45.5q0 -29 -18.5 -47.5t-47.5 -18.5h-115v-428z" />
<glyph unicode="&#xd1;" d="M51 68q0 66 86 65h49v985h-49q-86 0 -86 68q0 66 86 65h146q31 0 46 -3t35.5 -20.5t34.5 -53.5l265 -730l98 -286h2v960h-49q-86 0 -86 68q0 66 86 65h221q86 0 86 -67q0 -66 -86 -66h-49v-1032q0 -39 -13.5 -59.5t-29 -23.5t-49.5 -3q-33 0 -49.5 3t-37 20.5t-34.5 54.5 l-264 729l-99 287h-2v-961h49q86 0 86 -67q0 -66 -86 -66h-221q-86 0 -86 68zM180 1432q0 37 101 116q90 68 161 68q68 0 136 -68q45 -43 63 -43q45 0 129 78q33 33 59.5 33t47 -21.5t20.5 -48.5q0 -37 -100 -116q-90 -68 -162 -68q-68 0 -135 68q-45 43 -64 43 q-45 0 -129 -78q-33 -33 -59.5 -33t-47 21.5t-20.5 48.5z" />
<glyph unicode="&#xd2;" d="M115 624.5q0 159.5 4 255t22.5 176.5t42 117.5t76.5 62.5t112.5 32t164.5 6q78 0 128 -3t97 -15.5t74.5 -30t52 -55t36 -79.5t20.5 -115t11 -153t2 -198q0 -160 -4 -255.5t-22.5 -175t-42 -116.5t-76.5 -62.5t-113.5 -32t-162.5 -6.5q-104 0 -164 6.5t-113 32t-76.5 62.5 t-42 116.5t-22.5 175t-4 255zM266 643q0 -287 25 -393q18 -76 68.5 -107.5t177.5 -31.5t178 32.5t67 110.5q25 109 25 389q0 268 -23 363q-18 80 -71.5 107.5t-176 27.5t-174 -25.5t-71.5 -103.5q-25 -93 -25 -369zM317 1575q0 29 21.5 52.5t54.5 23.5q12 0 39 -11l268 -108 q55 -20 56 -64q0 -33 -21.5 -59.5t-52.5 -26.5q-20 0 -41 11l-258 104q-66 25 -66 78z" />
<glyph unicode="&#xd3;" d="M115 624.5q0 159.5 4 255t22.5 176.5t42 117.5t76.5 62.5t112.5 32t164.5 6q78 0 128 -3t97 -15.5t74.5 -30t52 -55t36 -79.5t20.5 -115t11 -153t2 -198q0 -160 -4 -255.5t-22.5 -175t-42 -116.5t-76.5 -62.5t-113.5 -32t-162.5 -6.5q-104 0 -164 6.5t-113 32t-76.5 62.5 t-42 116.5t-22.5 175t-4 255zM266 643q0 -287 25 -393q18 -76 68.5 -107.5t177.5 -31.5t178 32.5t67 110.5q25 109 25 389q0 268 -23 363q-18 80 -71.5 107.5t-176 27.5t-174 -25.5t-71.5 -103.5q-25 -93 -25 -369zM319 1468q0 43 56 64l268 108q27 10 39 11 q33 0 54.5 -23.5t21.5 -52.5q0 -53 -66 -78l-258 -104q-20 -10 -41 -11q-31 0 -52.5 26.5t-21.5 59.5z" />
<glyph unicode="&#xd4;" d="M115 624.5q0 159.5 4 255t22.5 176.5t42 117.5t76.5 62.5t112.5 32t164.5 6q78 0 128 -3t97 -15.5t74.5 -30t52 -55t36 -79.5t20.5 -115t11 -153t2 -198q0 -160 -4 -255.5t-22.5 -175t-42 -116.5t-76.5 -62.5t-113.5 -32t-162.5 -6.5q-104 0 -164 6.5t-113 32t-76.5 62.5 t-42 116.5t-22.5 175t-4 255zM241.5 1405q-18.5 55 37.5 76l241 88q20 6 39 0l242 -88q53 -20 34.5 -75.5t-73.5 -39.5l-223 68l-224 -68q-55 -16 -73.5 39zM266 643q0 -287 25 -393q18 -76 68.5 -107.5t177.5 -31.5t178 32.5t67 110.5q25 109 25 389q0 268 -23 363 q-18 80 -71.5 107.5t-176 27.5t-174 -25.5t-71.5 -103.5q-25 -93 -25 -369z" />
<glyph unicode="&#xd5;" d="M115 624.5q0 159.5 4 255t22.5 176.5t42 117.5t76.5 62.5t112.5 32t164.5 6q78 0 128 -3t97 -15.5t74.5 -30t52 -55t36 -79.5t20.5 -115t11 -153t2 -198q0 -160 -4 -255.5t-22.5 -175t-42 -116.5t-76.5 -62.5t-113.5 -32t-162.5 -6.5q-104 0 -164 6.5t-113 32t-76.5 62.5 t-42 116.5t-22.5 175t-4 255zM180 1432q0 37 101 116q90 68 161 68q68 0 136 -68q45 -43 63 -43q45 0 129 78q33 33 59.5 33t47 -21.5t20.5 -48.5q0 -37 -100 -116q-90 -68 -162 -68q-68 0 -135 68q-45 43 -64 43q-45 0 -129 -78q-33 -33 -59.5 -33t-47 21.5t-20.5 48.5z M266 643q0 -287 25 -393q18 -76 68.5 -107.5t177.5 -31.5t178 32.5t67 110.5q25 109 25 389q0 268 -23 363q-18 80 -71.5 107.5t-176 27.5t-174 -25.5t-71.5 -103.5q-25 -93 -25 -369z" />
<glyph unicode="&#xd6;" d="M115 624.5q0 159.5 4 255t22.5 176.5t42 117.5t76.5 62.5t112.5 32t164.5 6q78 0 128 -3t97 -15.5t74.5 -30t52 -55t36 -79.5t20.5 -115t11 -153t2 -198q0 -160 -4 -255.5t-22.5 -175t-42 -116.5t-76.5 -62.5t-113.5 -32t-162.5 -6.5q-104 0 -164 6.5t-113 32t-76.5 62.5 t-42 116.5t-22.5 175t-4 255zM240 1456q0 39 27.5 66.5t66.5 27.5t66.5 -27.5t27.5 -66.5t-27.5 -66.5t-66.5 -27.5t-66.5 27.5t-27.5 66.5zM266 643q0 -287 25 -393q18 -76 68.5 -107.5t177.5 -31.5t178 32.5t67 110.5q25 109 25 389q0 268 -23 363q-18 80 -71.5 107.5 t-176 27.5t-174 -25.5t-71.5 -103.5q-25 -93 -25 -369zM647 1456q0 39 27.5 66.5t66.5 27.5t67 -27.5t28 -66.5t-28 -66.5t-67 -27.5t-66.5 27.5t-27.5 66.5z" />
<glyph unicode="&#xd7;" d="M211 301q-55 53 16 125l201 201l-201 200q-68 76 -16 127q53 53 125 -18l201 -201l200 199q68 76 125 16q55 -53 -16 -125l-201 -198l203 -201q66 -76 14 -127q-57 -57 -123 18l-202 201l-201 -201q-68 -75 -125 -16z" />
<glyph unicode="&#xd8;" d="M115 625q0 160 4 255t22.5 176t42 117.5t76.5 62.5t112.5 32t164.5 6q84 0 129 -4q12 53 30 102q16 57 64 58q29 0 49 -19.5t20 -46.5q0 -10 -32 -121q63 -25 98 -80t51 -184q12 -113 12 -354q0 -160 -4 -255.5t-22.5 -175t-42 -116.5t-76.5 -62.5t-113.5 -32 t-162.5 -6.5q-84 0 -129 5q-12 -53 -31 -103q-16 -57 -64 -57q-8 0 -19 3t-30.5 19.5t-19.5 42.5q0 10 32 121q-63 25 -98 80t-51 184q-12 113 -12 353zM238 625q0 -139 3 -209t21.5 -152t56.5 -112l306 987q-25 2 -88 2q-127 0 -187.5 -24.5t-85.5 -106.5q-26 -96 -26 -385 zM449 113q25 -2 88 -2q127 0 187 24.5t85 106.5q27 96 27 385q0 193 -13.5 298t-28 128.5t-42.5 46.5z" />
<glyph unicode="&#xd9;" d="M0 1184q0 68 88 67h270q88 0 88 -67q0 -66 -88 -66h-59v-690q0 -147 73.5 -232t164 -85t164 85t73.5 232v690h-59q-88 0 -88 66q0 68 88 67h270q88 0 88 -67q0 -66 -88 -66h-59v-698q0 -188 -116 -315.5t-273.5 -127.5t-273.5 127t-116 316v698h-59q-88 0 -88 66z M317 1575q0 29 21.5 52.5t54.5 23.5q12 0 39 -11l268 -108q55 -20 56 -64q0 -33 -21.5 -59.5t-52.5 -26.5q-20 0 -41 11l-258 104q-66 25 -66 78z" />
<glyph unicode="&#xda;" d="M0 1184q0 68 88 67h270q88 0 88 -67q0 -66 -88 -66h-59v-690q0 -147 73.5 -232t164 -85t164 85t73.5 232v690h-59q-88 0 -88 66q0 68 88 67h270q88 0 88 -67q0 -66 -88 -66h-59v-698q0 -188 -116 -315.5t-273.5 -127.5t-273.5 127t-116 316v698h-59q-88 0 -88 66z M319 1468q0 43 56 64l268 108q27 10 39 11q33 0 54.5 -23.5t21.5 -52.5q0 -53 -66 -78l-258 -104q-20 -10 -41 -11q-31 0 -52.5 26.5t-21.5 59.5z" />
<glyph unicode="&#xdb;" d="M0 1184q0 68 88 67h270q88 0 88 -67q0 -66 -88 -66h-59v-690q0 -147 73.5 -232t164 -85t164 85t73.5 232v690h-59q-88 0 -88 66q0 68 88 67h270q88 0 88 -67q0 -66 -88 -66h-59v-698q0 -188 -116 -315.5t-273.5 -127.5t-273.5 127t-116 316v698h-59q-88 0 -88 66z M241.5 1405q-18.5 55 37.5 76l241 88q20 6 39 0l242 -88q53 -20 34.5 -75.5t-73.5 -39.5l-223 68l-224 -68q-55 -16 -73.5 39z" />
<glyph unicode="&#xdc;" d="M0 1184q0 68 88 67h270q88 0 88 -67q0 -66 -88 -66h-59v-690q0 -147 73.5 -232t164 -85t164 85t73.5 232v690h-59q-88 0 -88 66q0 68 88 67h270q88 0 88 -67q0 -66 -88 -66h-59v-698q0 -188 -116 -315.5t-273.5 -127.5t-273.5 127t-116 316v698h-59q-88 0 -88 66z M240 1456q0 39 27.5 66.5t66.5 27.5t66.5 -27.5t27.5 -66.5t-27.5 -66.5t-66.5 -27.5t-66.5 27.5t-27.5 66.5zM647 1456q0 39 27.5 66.5t66.5 27.5t67 -27.5t28 -66.5t-28 -66.5t-67 -27.5t-66.5 27.5t-27.5 66.5z" />
<glyph unicode="&#xdd;" d="M39 1186q0 66 88 65h217q88 0 88 -65q0 -31 -17.5 -47.5t-32.5 -18.5t-46 -2q182 -385 199 -463h4q14 68 198 463q-31 0 -46 2t-32.5 18.5t-17.5 47.5q0 66 88 65h217q88 0 88 -67q0 -66 -88 -66h-41l-293 -618v-367h50q86 0 86 -67q0 -66 -86 -66h-250q-86 0 -86 66 q0 68 86 67h49v367l-293 618h-41q-88 0 -88 68zM319 1468q0 43 56 64l268 108q27 10 39 11q33 0 54.5 -23.5t21.5 -52.5q0 -53 -66 -78l-258 -104q-20 -10 -41 -11q-31 0 -52.5 26.5t-21.5 59.5z" />
<glyph unicode="&#xde;" d="M57 66q0 53 47 65q8 2 113 2v985q-104 0 -111 2q-49 12 -49 66q0 66 90 65h291q90 0 90 -65q0 -53 -47 -66q-8 -2 -112 -2v-76h229q174 0 275.5 -109.5t101.5 -248.5q0 -141 -102.5 -249.5t-272.5 -108.5h-231v-193q104 0 110 -2q49 -12 49 -65q0 -66 -90 -66h-291 q-90 0 -90 66zM369 459h180q133 0 203.5 70.5t70.5 154.5q0 82 -62.5 153.5t-191.5 71.5h-200v-450z" />
<glyph unicode="&#xdf;" d="M27 68q0 66 88 65h108v617h-108q-88 0 -88 67q0 66 88 66h108v137q0 74 41 125t105.5 74.5t118 33t102.5 9.5q150 0 257 -61.5t107 -164.5q0 -59 -37.5 -122.5t-121.5 -106.5q219 -168 219 -449q0 -162 -114 -265t-259 -103q-94 0 -149.5 46t-55.5 109q0 41 25.5 66 t62.5 25q41 0 68 -31q16 -23 16 -78q16 -4 33 -4q82 0 151.5 63.5t69.5 171.5q0 154 -84 267q-86 115 -231 125q-53 12 -53 65q0 29 15 45.5t27.5 18.5t34.5 4q102 4 167 52t65 99q0 35 -62.5 64.5t-152.5 29.5q-82 0 -139 -24q-35 -14 -51.5 -30.5t-19.5 -29t-3 -34.5v-924 q0 -51 -17.5 -68.5t-68.5 -17.5h-174q-88 0 -88 68z" />
<glyph unicode="&#xe0;" d="M98 272q0 143 171 220t442 81q0 92 -66.5 142.5t-189.5 50.5q-55 0 -113 -6q0 -111 -96 -111q-39 0 -66.5 26.5t-27.5 69.5q0 53 30.5 88t88 47.5t93 15.5t89.5 3q201 0 305 -93t104 -226v-433q39 -14 113 -14q88 0 88 -65q0 -31 -16.5 -47.5t-35 -18.5t-55.5 -2 q-178 0 -227 70q-111 -80 -291 -80q-147 0 -243.5 81.5t-96.5 200.5zM250 272q0 -63 57.5 -106t147.5 -43q100 0 174 35q55 27 68.5 55.5t13.5 75.5v155q-195 -2 -328 -50t-133 -122zM317 1196q0 29 21.5 52.5t54.5 23.5q12 0 39 -10l268 -109q55 -20 56 -63 q0 -33 -21.5 -59.5t-52.5 -26.5q-20 0 -41 10l-258 104q-66 25 -66 78z" />
<glyph unicode="&#xe1;" d="M98 272q0 143 171 220t442 81q0 92 -66.5 142.5t-189.5 50.5q-55 0 -113 -6q0 -111 -96 -111q-39 0 -66.5 26.5t-27.5 69.5q0 53 30.5 88t88 47.5t93 15.5t89.5 3q201 0 305 -93t104 -226v-433q39 -14 113 -14q88 0 88 -65q0 -31 -16.5 -47.5t-35 -18.5t-55.5 -2 q-178 0 -227 70q-111 -80 -291 -80q-147 0 -243.5 81.5t-96.5 200.5zM250 272q0 -63 57.5 -106t147.5 -43q100 0 174 35q55 27 68.5 55.5t13.5 75.5v155q-195 -2 -328 -50t-133 -122zM319 1090q0 43 56 63l268 109q27 10 39 10q33 0 54.5 -23.5t21.5 -52.5q0 -53 -66 -78 l-258 -104q-20 -10 -41 -10q-31 0 -52.5 26.5t-21.5 59.5z" />
<glyph unicode="&#xe2;" d="M98 272q0 143 171 220t442 81q0 92 -66.5 142.5t-189.5 50.5q-55 0 -113 -6q0 -111 -96 -111q-39 0 -66.5 26.5t-27.5 69.5q0 53 30.5 88t88 47.5t93 15.5t89.5 3q201 0 305 -93t104 -226v-433q39 -14 113 -14q88 0 88 -65q0 -31 -16.5 -47.5t-35 -18.5t-55.5 -2 q-178 0 -227 70q-111 -80 -291 -80q-147 0 -243.5 81.5t-96.5 200.5zM244.5 1029q-31.5 50 19.5 83l242 154q31 20 61 0l246 -156q51 -33 19.5 -82t-82.5 -18l-211 127l-211 -127q-52 -31 -83.5 19zM250 272q0 -63 57.5 -106t147.5 -43q100 0 174 35q55 27 68.5 55.5 t13.5 75.5v155q-195 -2 -328 -50t-133 -122z" />
<glyph unicode="&#xe3;" d="M98 272q0 143 171 220t442 81q0 92 -66.5 142.5t-189.5 50.5q-55 0 -113 -6q0 -111 -96 -111q-39 0 -66.5 26.5t-27.5 69.5q0 53 30.5 88t88 47.5t93 15.5t89.5 3q201 0 305 -93t104 -226v-433q39 -14 113 -14q88 0 88 -65q0 -31 -16.5 -47.5t-35 -18.5t-55.5 -2 q-178 0 -227 70q-111 -80 -291 -80q-147 0 -243.5 81.5t-96.5 200.5zM180 1081q0 37 101 117q90 68 161 68q68 0 136 -68q45 -43 63 -43q45 0 129 78q33 33 59.5 33t47 -21.5t20.5 -48.5q0 -37 -100 -117q-90 -68 -162 -67q-68 0 -135 67q-45 43 -64 43q-45 0 -129 -78 q-33 -33 -59.5 -32.5t-47 21.5t-20.5 48zM250 272q0 -63 57.5 -106t147.5 -43q100 0 174 35q55 27 68.5 55.5t13.5 75.5v155q-195 -2 -328 -50t-133 -122z" />
<glyph unicode="&#xe4;" d="M98 272q0 143 171 220t442 81q0 92 -66.5 142.5t-189.5 50.5q-55 0 -113 -6q0 -111 -96 -111q-39 0 -66.5 26.5t-27.5 69.5q0 53 30.5 88t88 47.5t93 15.5t89.5 3q201 0 305 -93t104 -226v-433q39 -14 113 -14q88 0 88 -65q0 -31 -16.5 -47.5t-35 -18.5t-55.5 -2 q-178 0 -227 70q-111 -80 -291 -80q-147 0 -243.5 81.5t-96.5 200.5zM250 272q0 -63 57.5 -106t147.5 -43q100 0 174 35q55 27 68.5 55.5t13.5 75.5v155q-195 -2 -328 -50t-133 -122zM270 1139q0 39 28 66.5t66.5 27.5t66.5 -27.5t28 -66.5t-28 -67t-66.5 -28t-66.5 28 t-28 67zM616 1139q0 39 28 66.5t67 27.5t66.5 -27.5t27.5 -66.5t-27.5 -67t-66.5 -28t-67 28t-28 67z" />
<glyph unicode="&#xe5;" d="M98 272q0 143 171 220t442 81q0 92 -66.5 142.5t-189.5 50.5q-55 0 -113 -6q0 -111 -96 -111q-39 0 -66.5 26.5t-27.5 69.5q0 53 30.5 88t88 47.5t93 15.5t89.5 3q201 0 305 -93t104 -226v-433q39 -14 113 -14q88 0 88 -65q0 -31 -16.5 -47.5t-35 -18.5t-55.5 -2 q-178 0 -227 70q-111 -80 -291 -80q-147 0 -243.5 81.5t-96.5 200.5zM250 272q0 -63 57.5 -106t147.5 -43q100 0 174 35q55 27 68.5 55.5t13.5 75.5v155q-195 -2 -328 -50t-133 -122zM340 1159.5q0 59.5 57.5 103.5t141.5 44t141 -44t57 -103.5t-57 -103.5t-141 -44 t-141.5 44t-57.5 103.5zM442 1159q0 -29 30 -49t66.5 -20t66.5 20t30 49t-30 49.5t-66.5 20.5t-66.5 -20.5t-30 -49.5z" />
<glyph unicode="&#xe6;" d="M63 250q0 125 120 192.5t292 69.5v63q0 92 -43 141.5t-115 49.5q-33 0 -47 -2q0 -55 -18 -82q-33 -33 -74 -33t-68.5 28t-27.5 68q0 80 69.5 117t170.5 37q152 0 235 -141q92 141 217 141q111 0 184.5 -109.5t73.5 -316.5q0 -51 -17.5 -68.5t-68.5 -17.5h-344 q12 -115 72.5 -189.5t130.5 -74.5q74 0 104 102q12 59 62 60q27 0 44 -17.5t17 -44.5q0 -57 -63.5 -145t-173.5 -88q-135 0 -230 135q-41 -66 -115.5 -100.5t-146.5 -34.5q-111 0 -175.5 82t-64.5 178zM186 250q0 -45 35 -86t92 -41q74 0 119 43q29 27 35 48.5t6 74.5 q0 70 2 94q-35 0 -77 -6t-93 -19.5t-85 -41t-34 -66.5zM602 518h305q-8 129 -46 188.5t-87 59.5q-59 0 -108.5 -73t-63.5 -175z" />
<glyph unicode="&#xe7;" d="M145 442q0 74 27 149t79 146.5t150.5 116.5t223.5 45q43 0 70.5 -1t76.5 -9t79 -22.5t54.5 -46.5t24.5 -75q0 -41 -28 -68.5t-68 -27.5q-31 0 -61 21.5t-34 68.5q-2 14 -8 18.5t-37 6.5l-26 2h-45q-92 0 -161 -35t-101.5 -89t-48 -104.5t-15.5 -95.5q0 -133 92 -226 t223 -93q49 0 87 12t59.5 36t29 36t17.5 33q18 45 74 45q76 0 75 -62q0 -14 -11 -40.5t-35.5 -63.5t-78 -71t-122.5 -48v-12q104 -20 152 -76.5t48 -124.5q0 -51 -20.5 -89t-63.5 -60.5t-83 -37t-106.5 -19.5t-104 -6t-107.5 -1q-31 0 -50.5 18.5t-19.5 49.5q0 33 18.5 48 t40 17t68.5 2q276 0 277 78q0 33 -37 53.5t-96 24.5q-31 2 -47.5 17.5t-18.5 29.5t-2 39v41q-174 16 -292 145t-118 305z" />
<glyph unicode="&#xe8;" d="M109 446q0 184 129 318.5t315 134.5q190 0 293.5 -123t103.5 -311q0 -37 -14 -54.5t-28.5 -20.5t-43.5 -3h-598q29 -133 127.5 -198.5t204.5 -65.5q154 0 203 117q18 45 73 45q76 0 76 -62q0 -23 -19.5 -58.5t-59.5 -76.5t-115.5 -69.5t-171.5 -28.5q-197 0 -336 133 t-139 323zM268 518h527q-10 117 -73 182.5t-169 65.5q-94 0 -176 -64.5t-109 -183.5zM317 1196q0 29 21.5 52.5t54.5 23.5q12 0 39 -10l268 -109q55 -20 56 -63q0 -33 -21.5 -59.5t-52.5 -26.5q-20 0 -41 10l-258 104q-66 25 -66 78z" />
<glyph unicode="&#xe9;" d="M109 446q0 184 129 318.5t315 134.5q190 0 293.5 -123t103.5 -311q0 -37 -14 -54.5t-28.5 -20.5t-43.5 -3h-598q29 -133 127.5 -198.5t204.5 -65.5q154 0 203 117q18 45 73 45q76 0 76 -62q0 -23 -19.5 -58.5t-59.5 -76.5t-115.5 -69.5t-171.5 -28.5q-197 0 -336 133 t-139 323zM268 518h527q-10 117 -73 182.5t-169 65.5q-94 0 -176 -64.5t-109 -183.5zM319 1090q0 43 56 63l268 109q27 10 39 10q33 0 54.5 -23.5t21.5 -52.5q0 -53 -66 -78l-258 -104q-20 -10 -41 -10q-31 0 -52.5 26.5t-21.5 59.5z" />
<glyph unicode="&#xea;" d="M109 446q0 184 129 318.5t315 134.5q190 0 293.5 -123t103.5 -311q0 -37 -14 -54.5t-28.5 -20.5t-43.5 -3h-598q29 -133 127.5 -198.5t204.5 -65.5q154 0 203 117q18 45 73 45q76 0 76 -62q0 -23 -19.5 -58.5t-59.5 -76.5t-115.5 -69.5t-171.5 -28.5q-197 0 -336 133 t-139 323zM244.5 1029q-31.5 50 19.5 83l242 154q31 20 61 0l246 -156q51 -33 19.5 -82t-82.5 -18l-211 127l-211 -127q-52 -31 -83.5 19zM268 518h527q-10 117 -73 182.5t-169 65.5q-94 0 -176 -64.5t-109 -183.5z" />
<glyph unicode="&#xeb;" d="M109 446q0 184 129 318.5t315 134.5q190 0 293.5 -123t103.5 -311q0 -37 -14 -54.5t-28.5 -20.5t-43.5 -3h-598q29 -133 127.5 -198.5t204.5 -65.5q154 0 203 117q18 45 73 45q76 0 76 -62q0 -23 -19.5 -58.5t-59.5 -76.5t-115.5 -69.5t-171.5 -28.5q-197 0 -336 133 t-139 323zM268 518h527q-10 117 -73 182.5t-169 65.5q-94 0 -176 -64.5t-109 -183.5zM270 1139q0 39 28 66.5t66.5 27.5t66.5 -27.5t28 -66.5t-28 -67t-66.5 -28t-66.5 28t-28 67zM616 1139q0 39 28 66.5t67 27.5t66.5 -27.5t27.5 -66.5t-27.5 -67t-66.5 -28t-67 28t-28 67z " />
<glyph unicode="&#xec;" d="M152 68q0 66 86 65h249v617h-231q-88 0 -88 67q0 66 88 66h297q51 0 68.5 -17.5t17.5 -68.5v-664h215q88 0 88 -67q0 -66 -88 -66h-616q-86 0 -86 68zM317 1196q0 29 21.5 52.5t54.5 23.5q12 0 39 -10l268 -109q55 -20 56 -63q0 -33 -21.5 -59.5t-52.5 -26.5 q-20 0 -41 10l-258 104q-66 25 -66 78z" />
<glyph unicode="&#xed;" d="M152 68q0 66 86 65h249v617h-231q-88 0 -88 67q0 66 88 66h297q51 0 68.5 -17.5t17.5 -68.5v-664h215q88 0 88 -67q0 -66 -88 -66h-616q-86 0 -86 68zM319 1090q0 43 56 63l268 109q27 10 39 10q33 0 54.5 -23.5t21.5 -52.5q0 -53 -66 -78l-258 -104q-20 -10 -41 -10 q-31 0 -52.5 26.5t-21.5 59.5z" />
<glyph unicode="&#xee;" d="M152 68q0 66 86 65h249v617h-231q-88 0 -88 67q0 66 88 66h297q51 0 68.5 -17.5t17.5 -68.5v-664h215q88 0 88 -67q0 -66 -88 -66h-616q-86 0 -86 68zM244.5 1029q-31.5 50 19.5 83l242 154q31 20 61 0l246 -156q51 -33 19.5 -82t-82.5 -18l-211 127l-211 -127 q-52 -31 -83.5 19z" />
<glyph unicode="&#xef;" d="M152 68q0 66 86 65h249v617h-231q-88 0 -88 67q0 66 88 66h297q51 0 68.5 -17.5t17.5 -68.5v-664h215q88 0 88 -67q0 -66 -88 -66h-616q-86 0 -86 68zM270 1139q0 39 28 66.5t66.5 27.5t66.5 -27.5t28 -66.5t-28 -67t-66.5 -28t-66.5 28t-28 67zM616 1139q0 39 28 66.5 t67 27.5t66.5 -27.5t27.5 -66.5t-27.5 -67t-66.5 -28t-67 28t-28 67z" />
<glyph unicode="&#xf0;" d="M113 440q0 190 124.5 323.5t299.5 133.5q66 0 133 -23q-51 66 -121 117q-8 6 -51 35l-185 -76q-12 -6 -30 -6q-29 0 -48.5 18.5t-19.5 45.5q0 49 49 67l58 25q-66 14 -123 16q-72 2 -72 62q0 25 23.5 49t68.5 24q51 0 111 -12q98 -18 186 -61l174 71q14 6 33 6 q29 0 48.5 -18t19.5 -45q0 -49 -50 -70l-82 -32q76 -57 140 -138q162 -203 162 -477q0 -209 -111 -338q-125 -147 -313 -147q-174 0 -299 131t-125 319zM264 457q0 -139 81 -236.5t192 -97.5q117 0 194.5 99.5t77.5 226.5q0 121 -78 218t-196 97q-109 0 -190 -88t-81 -219z " />
<glyph unicode="&#xf1;" d="M16 68q0 66 86 65h91v617h-91q-86 0 -86 67q0 66 86 66h156q41 0 60.5 -12.5t22.5 -29t3 -50.5q119 102 268 102q268 0 269 -295v-465h90q86 0 86 -67q0 -66 -86 -66h-307q-88 0 -89 68q0 66 89 65h65v457q0 92 -27.5 131t-101.5 39q-92 0 -174 -68.5t-82 -204.5v-354h90 q86 0 86 -67q0 -66 -86 -66h-332q-86 0 -86 68zM180 1081q0 37 101 117q90 68 161 68q68 0 136 -68q45 -43 63 -43q45 0 129 78q33 33 59.5 33t47 -21.5t20.5 -48.5q0 -37 -100 -117q-90 -68 -162 -67q-68 0 -135 67q-45 43 -64 43q-45 0 -129 -78q-33 -33 -59.5 -32.5 t-47 21.5t-20.5 48z" />
<glyph unicode="&#xf2;" d="M113 442q0 190 124.5 323.5t299 133.5t299.5 -133t125 -324q0 -188 -125 -320t-299.5 -132t-299 132t-124.5 320zM264 457q0 -137 80 -235.5t192.5 -98.5t192.5 98t80 236q0 133 -81 221t-191 88q-109 0 -191 -88t-82 -221zM317 1196q0 29 21.5 52.5t54.5 23.5 q12 0 39 -10l268 -109q55 -20 56 -63q0 -33 -21.5 -59.5t-52.5 -26.5q-20 0 -41 10l-258 104q-66 25 -66 78z" />
<glyph unicode="&#xf3;" d="M113 442q0 190 124.5 323.5t299 133.5t299.5 -133t125 -324q0 -188 -125 -320t-299.5 -132t-299 132t-124.5 320zM264 457q0 -137 80 -235.5t192.5 -98.5t192.5 98t80 236q0 133 -81 221t-191 88q-109 0 -191 -88t-82 -221zM319 1090q0 43 56 63l268 109q27 10 39 10 q33 0 54.5 -23.5t21.5 -52.5q0 -53 -66 -78l-258 -104q-20 -10 -41 -10q-31 0 -52.5 26.5t-21.5 59.5z" />
<glyph unicode="&#xf4;" d="M113 442q0 190 124.5 323.5t299 133.5t299.5 -133t125 -324q0 -188 -125 -320t-299.5 -132t-299 132t-124.5 320zM244.5 1029q-31.5 50 19.5 83l242 154q31 20 61 0l246 -156q51 -33 19.5 -82t-82.5 -18l-211 127l-211 -127q-52 -31 -83.5 19zM264 457q0 -137 80 -235.5 t192.5 -98.5t192.5 98t80 236q0 133 -81 221t-191 88q-109 0 -191 -88t-82 -221z" />
<glyph unicode="&#xf5;" d="M113 442q0 190 124.5 323.5t299 133.5t299.5 -133t125 -324q0 -188 -125 -320t-299.5 -132t-299 132t-124.5 320zM180 1081q0 37 101 117q90 68 161 68q68 0 136 -68q45 -43 63 -43q45 0 129 78q33 33 59.5 33t47 -21.5t20.5 -48.5q0 -37 -100 -117q-90 -68 -162 -67 q-68 0 -135 67q-45 43 -64 43q-45 0 -129 -78q-33 -33 -59.5 -32.5t-47 21.5t-20.5 48zM264 457q0 -137 80 -235.5t192.5 -98.5t192.5 98t80 236q0 133 -81 221t-191 88q-109 0 -191 -88t-82 -221z" />
<glyph unicode="&#xf6;" d="M113 442q0 190 124.5 323.5t299 133.5t299.5 -133t125 -324q0 -188 -125 -320t-299.5 -132t-299 132t-124.5 320zM264 457q0 -137 80 -235.5t192.5 -98.5t192.5 98t80 236q0 133 -81 221t-191 88q-109 0 -191 -88t-82 -221zM270 1139q0 39 28 66.5t66.5 27.5t66.5 -27.5 t28 -66.5t-28 -67t-66.5 -28t-66.5 28t-28 67zM616 1139q0 39 28 66.5t67 27.5t66.5 -27.5t27.5 -66.5t-27.5 -67t-66.5 -28t-67 28t-28 67z" />
<glyph unicode="&#xf7;" d="M76 627q0 78 108 78h705q109 0 108 -78q0 -76 -96 -76h-729q-96 0 -96 76zM406 184q0 51 37.5 90t93.5 39q51 0 90 -37.5t39 -93.5q0 -51 -38 -90t-93 -39q-51 0 -90 38t-39 93zM406 1073q0 51 37.5 90t93.5 39q51 0 90 -38t39 -93q0 -51 -38 -90t-93 -39q-51 0 -90 38 t-39 93z" />
<glyph unicode="&#xf8;" d="M84 -225q0 18 31 69l141 246q-72 53 -120 146.5t-48 205.5q0 188 131 322.5t318 134.5q88 0 168 -33l151 262q12 18 17.5 24.5t17.5 14t29 7.5q23 0 46 -17.5t23 -48.5q0 -20 -35 -78l-135 -233q74 -59 120 -153.5t46 -201.5q0 -188 -132 -320t-316 -132q-104 0 -166 30 l-154 -266q-31 -45 -63 -45q-23 0 -46.5 17.5t-23.5 48.5zM211 442q0 -141 108 -239l318 547q-45 16 -100 16q-135 0 -230.5 -95.5t-95.5 -228.5zM438 137q43 -14 99 -14q135 0 230 93t95 226q0 150 -110 240z" />
<glyph unicode="&#xf9;" d="M16 817q0 66 86 66h156q51 0 68.5 -17.5t17.5 -68.5v-551q0 -31 3 -47.5t16.5 -37t47 -29.5t91.5 -9q33 0 65.5 7t72.5 25.5t64.5 61.5t24.5 102v431h-90q-86 0 -86 67q0 66 86 66h156q51 0 68.5 -17.5t17.5 -68.5v-664h90q86 0 86 -67q0 -66 -86 -66h-156q-25 0 -38 2 t-28.5 16.5t-19.5 42.5q-102 -72 -242 -71q-295 0 -294 246v514h-91q-86 -1 -86 67zM317 1196q0 29 21.5 52.5t54.5 23.5q12 0 39 -10l268 -109q55 -20 56 -63q0 -33 -21.5 -59.5t-52.5 -26.5q-20 0 -41 10l-258 104q-66 25 -66 78z" />
<glyph unicode="&#xfa;" d="M16 817q0 66 86 66h156q51 0 68.5 -17.5t17.5 -68.5v-551q0 -31 3 -47.5t16.5 -37t47 -29.5t91.5 -9q33 0 65.5 7t72.5 25.5t64.5 61.5t24.5 102v431h-90q-86 0 -86 67q0 66 86 66h156q51 0 68.5 -17.5t17.5 -68.5v-664h90q86 0 86 -67q0 -66 -86 -66h-156q-25 0 -38 2 t-28.5 16.5t-19.5 42.5q-102 -72 -242 -71q-295 0 -294 246v514h-91q-86 -1 -86 67zM319 1090q0 43 56 63l268 109q27 10 39 10q33 0 54.5 -23.5t21.5 -52.5q0 -53 -66 -78l-258 -104q-20 -10 -41 -10q-31 0 -52.5 26.5t-21.5 59.5z" />
<glyph unicode="&#xfb;" d="M16 817q0 66 86 66h156q51 0 68.5 -17.5t17.5 -68.5v-551q0 -31 3 -47.5t16.5 -37t47 -29.5t91.5 -9q33 0 65.5 7t72.5 25.5t64.5 61.5t24.5 102v431h-90q-86 0 -86 67q0 66 86 66h156q51 0 68.5 -17.5t17.5 -68.5v-664h90q86 0 86 -67q0 -66 -86 -66h-156q-25 0 -38 2 t-28.5 16.5t-19.5 42.5q-102 -72 -242 -71q-295 0 -294 246v514h-91q-86 -1 -86 67zM244.5 1029q-31.5 50 19.5 83l242 154q31 20 61 0l246 -156q51 -33 19.5 -82t-82.5 -18l-211 127l-211 -127q-52 -31 -83.5 19z" />
<glyph unicode="&#xfc;" d="M16 817q0 66 86 66h156q51 0 68.5 -17.5t17.5 -68.5v-551q0 -31 3 -47.5t16.5 -37t47 -29.5t91.5 -9q33 0 65.5 7t72.5 25.5t64.5 61.5t24.5 102v431h-90q-86 0 -86 67q0 66 86 66h156q51 0 68.5 -17.5t17.5 -68.5v-664h90q86 0 86 -67q0 -66 -86 -66h-156q-25 0 -38 2 t-28.5 16.5t-19.5 42.5q-102 -72 -242 -71q-295 0 -294 246v514h-91q-86 -1 -86 67zM270 1139q0 39 28 66.5t66.5 27.5t66.5 -27.5t28 -66.5t-28 -67t-66.5 -28t-66.5 28t-28 67zM616 1139q0 39 28 66.5t67 27.5t66.5 -27.5t27.5 -66.5t-27.5 -67t-66.5 -28t-67 28t-28 67z " />
<glyph unicode="&#xfd;" d="M53 817q0 66 92 66h234q27 0 42 -2t32.5 -17.5t17.5 -46.5q0 -47 -41 -63q-12 -4 -94 -4l110 -285q96 -260 109 -309h2q10 43 90 286l101 308q-88 0 -99 4q-43 12 -43 63q0 66 92 66h234q92 0 92 -66q0 -51 -45 -63q-10 -4 -102 -4l-306 -912q-47 -137 -128 -220 t-185 -83q-76 0 -123 52.5t-47 117.5q0 41 25.5 67.5t68.5 26.5q35 0 62.5 -21.5t29.5 -70.5l-14 -39q100 8 156 109q14 27 33.5 82t31.5 98l13 43q-8 27 -11 31l-280 719q-96 0 -107 4q-43 14 -43 63zM319 1090q0 43 56 63l268 109q27 10 39 10q33 0 54.5 -23.5t21.5 -52.5 q0 -53 -66 -78l-258 -104q-20 -10 -41 -10q-31 0 -52.5 26.5t-21.5 59.5z" />
<glyph unicode="&#xfe;" d="M16 -387q0 66 86 65h91v1440h-91q-86 0 -86 68q0 66 86 65h156q51 0 68.5 -17t17.5 -69v-366q115 94 254 94q170 0 288 -133t118 -318q0 -190 -126 -321t-300 -131q-131 0 -234 98v-410h90q86 0 86 -67q0 -66 -86 -66h-332q-86 0 -86 68zM344 395q0 -92 62.5 -182 t162.5 -90q115 0 199 92t84 227q0 133 -78 225.5t-184 92.5q-96 0 -171 -65.5t-75 -155.5v-144z" />
<glyph unicode="&#xff;" d="M53 817q0 66 92 66h234q27 0 42 -2t32.5 -17.5t17.5 -46.5q0 -47 -41 -63q-12 -4 -94 -4l110 -285q96 -260 109 -309h2q10 43 90 286l101 308q-88 0 -99 4q-43 12 -43 63q0 66 92 66h234q92 0 92 -66q0 -51 -45 -63q-10 -4 -102 -4l-306 -912q-47 -137 -128 -220 t-185 -83q-76 0 -123 52.5t-47 117.5q0 41 25.5 67.5t68.5 26.5q35 0 62.5 -21.5t29.5 -70.5l-14 -39q100 8 156 109q14 27 33.5 82t31.5 98l13 43q-8 27 -11 31l-280 719q-96 0 -107 4q-43 14 -43 63zM270 1139q0 39 28 66.5t66.5 27.5t66.5 -27.5t28 -66.5t-28 -67 t-66.5 -28t-66.5 28t-28 67zM616 1139q0 39 28 66.5t67 27.5t66.5 -27.5t27.5 -66.5t-27.5 -67t-66.5 -28t-67 28t-28 67z" />
<glyph unicode="&#x152;" d="M59 627q0 338 31 473q23 98 91.5 136t213.5 38q51 0 121 -12q53 -10 96 -11h316q51 0 68.5 -17t17.5 -69v-157q0 -86 -61.5 -86t-61.5 86v110h-232v-403h238q86 0 86 -68q0 -66 -86 -65h-238v-449h246v143q0 86 61.5 86t61.5 -86v-190q0 -51 -17.5 -68.5t-68.5 -17.5 h-330q-47 0 -98 -10q-63 -12 -119 -13q-160 0 -222 44.5t-85 144.5q-29 129 -29 461zM182 643q0 -319 23 -403q29 -102 127 -123q31 -6 76 -6q76 0 102.5 48t26.5 195v543q0 150 -27 197t-104 47q-141 0 -183 -76q-39 -70 -41 -317v-105z" />
<glyph unicode="&#x153;" d="M39 444.5q0 194.5 88 324.5t211 130q141 0 235 -170q86 170 220 170q109 0 175 -110.5t66 -313.5q0 -51 -16.5 -69.5t-69.5 -18.5h-307q10 -113 64.5 -188.5t115.5 -75.5q63 0 90 102q12 59 62 60q27 0 44 -17.5t17 -44.5q0 -31 -19.5 -81t-73.5 -101t-128 -51 q-145 0 -238 174q-39 -76 -100 -125t-137 -49q-123 0 -211 130t-88 324.5zM162 457q0 -139 54 -236.5t122 -97.5t122 97t54 237q0 135 -55.5 222t-121 87t-120.5 -87t-55 -222zM641 518h268q-4 109 -36.5 178.5t-79.5 69.5q-51 0 -95.5 -73t-56.5 -175z" />
<glyph unicode="&#x178;" d="M39 1186q0 66 88 65h217q88 0 88 -65q0 -31 -17.5 -47.5t-32.5 -18.5t-46 -2q182 -385 199 -463h4q14 68 198 463q-31 0 -46 2t-32.5 18.5t-17.5 47.5q0 66 88 65h217q88 0 88 -67q0 -66 -88 -66h-41l-293 -618v-367h50q86 0 86 -67q0 -66 -86 -66h-250q-86 0 -86 66 q0 68 86 67h49v367l-293 618h-41q-88 0 -88 68zM240 1456q0 39 27.5 66.5t66.5 27.5t66.5 -27.5t27.5 -66.5t-27.5 -66.5t-66.5 -27.5t-66.5 27.5t-27.5 66.5zM647 1456q0 39 27.5 66.5t66.5 27.5t67 -27.5t28 -66.5t-28 -66.5t-67 -27.5t-66.5 27.5t-27.5 66.5z" />
<glyph unicode="&#x2c6;" d="M244.5 1029q-31.5 50 19.5 83l242 154q31 20 61 0l246 -156q51 -33 19.5 -82t-82.5 -18l-211 127l-211 -127q-52 -31 -83.5 19z" />
<glyph unicode="&#x2dc;" d="M180 1081q0 37 101 117q90 68 161 68q68 0 136 -68q45 -43 63 -43q45 0 129 78q33 33 59.5 33t47 -21.5t20.5 -48.5q0 -37 -100 -117q-90 -68 -162 -67q-68 0 -135 67q-45 43 -64 43q-45 0 -129 -78q-33 -33 -59.5 -32.5t-47 21.5t-20.5 48z" />
<glyph unicode="&#x3bc;" d="M16 -387q0 66 93 65h84v1070h-84q-92 0 -93 67q0 66 93 66h145q57 0 73.5 -17.5t16.5 -75.5v-536q0 -35 3 -51.5t16.5 -38t47 -30.5t91.5 -9q113 0 168 55q29 25 42 52.5t15 45t2 50.5v422h-84q-92 0 -92 67q0 66 92 66h146q57 0 73.5 -17.5t16.5 -75.5v-655h84 q92 0 92 -67q0 -66 -92 -66h-146q-84 0 -92 61q-100 -72 -238 -71q-90 0 -145 20v-332h84q92 0 92 -67q0 -66 -92 -66h-319q-93 0 -93 68z" />
<glyph unicode="&#x2000;" horiz-adv-x="825" />
<glyph unicode="&#x2001;" horiz-adv-x="1650" />
<glyph unicode="&#x2002;" horiz-adv-x="825" />
<glyph unicode="&#x2003;" horiz-adv-x="1650" />
<glyph unicode="&#x2004;" horiz-adv-x="548" />
<glyph unicode="&#x2005;" horiz-adv-x="411" />
<glyph unicode="&#x2006;" horiz-adv-x="274" />
<glyph unicode="&#x2007;" horiz-adv-x="274" />
<glyph unicode="&#x2008;" horiz-adv-x="204" />
<glyph unicode="&#x2009;" horiz-adv-x="329" />
<glyph unicode="&#x200a;" horiz-adv-x="90" />
<glyph unicode="&#x2010;" d="M115 627q0 76 100 75h643q100 0 100 -77q0 -76 -100 -76h-643q-100 0 -100 78z" />
<glyph unicode="&#x2011;" d="M115 627q0 76 100 75h643q100 0 100 -77q0 -76 -100 -76h-643q-100 0 -100 78z" />
<glyph unicode="&#x2012;" d="M115 627q0 76 100 75h643q100 0 100 -77q0 -76 -100 -76h-643q-100 0 -100 78z" />
<glyph unicode="&#x2013;" d="M115 627q0 76 100 75h643q100 0 100 -77q0 -76 -100 -76h-643q-100 0 -100 78z" />
<glyph unicode="&#x2014;" d="M115 627q0 76 100 75h643q100 0 100 -77q0 -76 -100 -76h-643q-100 0 -100 78z" />
<glyph unicode="&#x2018;" d="M373 993q0 92 34.5 173t82 128t89.5 74t62 27q25 0 46.5 -20.5t21.5 -47.5q0 -39 -41 -59q-162 -96 -162 -275q0 -25 4 -26h27q45 -2 70.5 -28t29.5 -44t4 -33q0 -39 -27.5 -71.5t-78.5 -32.5q-70 0 -116 62t-46 173z" />
<glyph unicode="&#x2019;" d="M365 682q0 39 41 59q162 96 161 275q0 25 -4 26h-26q-45 2 -71 28t-30 44.5t-4 32.5q0 39 27.5 71.5t79.5 32.5q70 0 115.5 -62.5t45.5 -172.5q0 -92 -34.5 -173t-81.5 -128t-89 -74t-63 -27q-25 0 -46 20.5t-21 47.5z" />
<glyph unicode="&#x201a;" d="M442 72q-4 63 29 89.5t68 26.5q33 0 63.5 -24.5t30.5 -73.5l-27 -430q-4 -74 -67.5 -74t-69.5 76z" />
<glyph unicode="&#x201c;" d="M260 1157q-4 63 29 90t67 27q33 0 64 -24.5t31 -73.5l-27 -431q-2 -74 -68 -73q-63 0 -69 76zM623 1157q-4 63 28.5 90t67.5 27q33 0 63.5 -24.5t30.5 -73.5l-27 -431q-4 -74 -67.5 -73.5t-69.5 76.5z" />
<glyph unicode="&#x201d;" d="M260 1157q-4 63 29 90t67 27q33 0 64 -24.5t31 -73.5l-27 -431q-2 -74 -68 -73q-63 0 -69 76zM623 1157q-4 63 28.5 90t67.5 27q33 0 63.5 -24.5t30.5 -73.5l-27 -431q-4 -74 -67.5 -73.5t-69.5 76.5z" />
<glyph unicode="&#x201e;" d="M260 72q-4 63 29 89.5t67 26.5q33 0 64 -24.5t31 -73.5l-27 -430q-2 -74 -68 -74q-63 0 -69 76zM623 72q-4 63 28.5 89.5t67.5 26.5q33 0 63.5 -24.5t30.5 -73.5l-27 -430q-4 -74 -67.5 -74t-69.5 76z" />
<glyph unicode="&#x2022;" d="M244 469q0 115 86 204t211 89q115 0 204 -86t89 -211q0 -115 -86 -204t-211 -89q-115 0 -204 86t-89 211z" />
<glyph unicode="&#x2026;" d="M49 131q0 51 38 90t93 39q51 0 90 -38t39 -93q0 -51 -38 -90t-93 -39q-51 0 -90 38t-39 93zM408 131q0 51 37.5 90t93.5 39q51 0 90 -38t39 -93q0 -51 -38 -90t-93 -39q-51 0 -90 38t-39 93zM766 131q0 51 38 90t93 39q51 0 90 -38t39 -93q0 -51 -38 -90t-93 -39 q-51 0 -90 38t-39 93z" />
<glyph unicode="&#x202f;" horiz-adv-x="329" />
<glyph unicode="&#x2039;" d="M262 627q0 33 29 61l440 381q23 18 37 18q18 0 31.5 -17t13.5 -48q0 -35 -31 -61l-385 -334l385 -334q31 -27 31 -62q0 -31 -13.5 -48t-31.5 -17q-14 0 -37 18l-446 385q-23 23 -23 58z" />
<glyph unicode="&#x203a;" d="M262 231q0 35 31 62l385 334l-385 334q-31 27 -31 61q0 31 13.5 48t31.5 17q14 0 37 -18l440 -381q29 -29 29 -61q0 -35 -22 -58l-447 -385q-23 -18 -37 -18q-18 0 -31.5 17t-13.5 48z" />
<glyph unicode="&#x205f;" horiz-adv-x="411" />
<glyph unicode="&#x20ac;" d="M131 485l8 33q6 39 47 39h54q-2 23 -2 70q0 45 2 69h-62q-23 0 -38 18.5t-9 41.5l8 32q6 39 47 39h70q25 131 92 244q119 203 299 203q90 0 170 -43l21 22q20 20 47 21h8q27 0 45 -18.5t18 -45.5v-186q0 -27 -18 -45t-45 -18h-25q-25 0 -42 16t-21 39q-6 55 -50 91 t-104 36q-98 0 -174 -137q-43 -78 -67 -179h348q23 0 38 -14t11 -35l-8 -45q-6 -37 -49 -37h-359q-2 -25 -2 -69q0 -47 2 -70h303q23 0 37 -14.5t12 -34.5l-10 -45q-6 -37 -47 -37h-276q23 -102 67 -180q76 -137 174 -137q59 0 103.5 35.5t50.5 91.5q4 23 21.5 39t41.5 16 h25q27 0 45 -18.5t18 -45.5v-186q0 -27 -18 -45.5t-45 -18.5h-8q-27 0 -47 21l-21 25q-78 -45 -170 -46q-180 0 -299 203q-68 113 -92 246h-78q-23 0 -38 18t-9 41z" />
<glyph unicode="&#x2122;" horiz-adv-x="2150" d="M1104 66q0 33 17 48t35.5 17t57.5 2v985q-39 0 -57.5 2t-35.5 17.5t-17 48.5q0 66 88 65h119q53 0 74.5 -15t37.5 -62l133 -408q41 -125 56 -191h2q12 68 65 230l121 369q16 47 37.5 62t75.5 15h118q88 0 88 -65q0 -33 -17 -48.5t-35.5 -17.5t-57.5 -2v-985q39 0 57.5 -2 t35.5 -17.5t17 -47.5q0 -66 -88 -66h-168q-88 0 -88 66q0 33 17.5 48t36 17t57.5 2v957h-2l-57 -199l-129 -395q-27 -78 -86.5 -78t-85.5 78l-140 426q-37 119 -47 168h-2v-957q39 0 57.5 -2t36 -17.5t17.5 -47.5q0 -66 -88 -66h-168q-88 0 -88 66zM53 1008v155 q0 53 17.5 70.5t70.5 17.5h793q51 0 68.5 -17t17.5 -69v-157q0 -27 -2 -41.5t-20.5 -29.5t-53.5 -15t-53.5 15t-20.5 29.5t-2 41.5v110h-256v-985h105q88 0 88 -67q0 -66 -88 -66h-361q-88 0 -88 68q0 66 88 65h105v985h-256v-110q0 -27 -2 -41.5t-20.5 -29.5t-53.5 -15 t-53.5 15t-20.5 29.5t-2 41.5z" />
<glyph unicode="&#xe000;" horiz-adv-x="885" d="M0 885h885v-885h-885v885z" />
<glyph unicode="&#xfb01;" horiz-adv-x="2150" d="M1227 68q0 66 86 65h249v617h-231q-88 0 -88 67q0 66 88 66h297q51 0 68.5 -17.5t17.5 -68.5v-664h215q88 0 88 -67q0 -66 -88 -66h-616q-86 0 -86 68zM1509 1139q0 43 31 73.5t74 30.5t73.5 -30.5t30.5 -73.5t-30.5 -74t-73.5 -31t-74 31t-31 74zM78 68q0 66 88 65h207 v617h-199q-86 0 -86 65q0 68 88 68h197v102q0 133 96 205t227 72q199 0 199 -127q0 -45 -28.5 -70t-63.5 -25t-61.5 25t-30.5 63q-27 0 -44.5 -1t-47 -9t-48 -23.5t-33 -45t-14.5 -72.5v-94h240q86 0 86 -68q0 -66 -86 -65h-240v-617h207q88 0 88 -67q0 -66 -88 -66h-565 q-88 0 -88 68z" />
<glyph unicode="&#xfb02;" horiz-adv-x="2150" d="M1184 68q0 66 86 65h266v985h-266q-86 0 -86 68q0 66 86 65h331q51 0 68.5 -17t17.5 -69v-1032h267q86 0 86 -67q0 -66 -86 -66h-684q-86 0 -86 68zM78 68q0 66 88 65h207v617h-199q-86 0 -86 65q0 68 88 68h197v102q0 133 96 205t227 72q199 0 199 -127q0 -45 -28.5 -70 t-63.5 -25t-61.5 25t-30.5 63q-27 0 -44.5 -1t-47 -9t-48 -23.5t-33 -45t-14.5 -72.5v-94h240q86 0 86 -68q0 -66 -86 -65h-240v-617h207q88 0 88 -67q0 -66 -88 -66h-565q-88 0 -88 68z" />
<glyph unicode="&#xfb03;" horiz-adv-x="3225" d="M2302 68q0 66 86 65h249v617h-231q-88 0 -88 67q0 66 88 66h297q51 0 68.5 -17.5t17.5 -68.5v-664h215q88 0 88 -67q0 -66 -88 -66h-616q-86 0 -86 68zM2584 1139q0 43 31 73.5t74 30.5t73.5 -30.5t30.5 -73.5t-30.5 -74t-73.5 -31t-74 31t-31 74zM1153 68q0 66 88 65 h207v617h-199q-86 0 -86 65q0 68 88 68h197v102q0 133 96 205t227 72q199 0 199 -127q0 -45 -28.5 -70t-63.5 -25t-61.5 25t-30.5 63q-27 0 -44.5 -1t-47 -9t-48 -23.5t-33 -45t-14.5 -72.5v-94h240q86 0 86 -68q0 -66 -86 -65h-240v-617h207q88 0 88 -67q0 -66 -88 -66 h-565q-88 0 -88 68zM78 68q0 66 88 65h207v617h-199q-86 0 -86 65q0 68 88 68h197v102q0 133 96 205t227 72q199 0 199 -127q0 -45 -28.5 -70t-63.5 -25t-61.5 25t-30.5 63q-27 0 -44.5 -1t-47 -9t-48 -23.5t-33 -45t-14.5 -72.5v-94h240q86 0 86 -68q0 -66 -86 -65h-240 v-617h207q88 0 88 -67q0 -66 -88 -66h-565q-88 0 -88 68z" />
<glyph unicode="&#xfb04;" horiz-adv-x="3225" d="M2259 68q0 66 86 65h266v985h-266q-86 0 -86 68q0 66 86 65h331q51 0 68.5 -17t17.5 -69v-1032h267q86 0 86 -67q0 -66 -86 -66h-684q-86 0 -86 68zM1153 68q0 66 88 65h207v617h-199q-86 0 -86 65q0 68 88 68h197v102q0 133 96 205t227 72q199 0 199 -127 q0 -45 -28.5 -70t-63.5 -25t-61.5 25t-30.5 63q-27 0 -44.5 -1t-47 -9t-48 -23.5t-33 -45t-14.5 -72.5v-94h240q86 0 86 -68q0 -66 -86 -65h-240v-617h207q88 0 88 -67q0 -66 -88 -66h-565q-88 0 -88 68zM78 68q0 66 88 65h207v617h-199q-86 0 -86 65q0 68 88 68h197v102 q0 133 96 205t227 72q199 0 199 -127q0 -45 -28.5 -70t-63.5 -25t-61.5 25t-30.5 63q-27 0 -44.5 -1t-47 -9t-48 -23.5t-33 -45t-14.5 -72.5v-94h240q86 0 86 -68q0 -66 -86 -65h-240v-617h207q88 0 88 -67q0 -66 -88 -66h-565q-88 0 -88 68z" />
</font>
</defs>
</svg>
