<?xml version="1.0" standalone="no"?>
<!DOCTYPE svg PUBLIC "-//W3C//DTD SVG 1.1//EN" "http://www.w3.org/Graphics/SVG/1.1/DTD/svg11.dtd" >
<svg xmlns="http://www.w3.org/2000/svg">
<metadata>
This is a custom SVG webfont generated by Font Squirrel.
Copyright   : 2010  Sebastien SanfilippoThis Font Software is licensed under the SIL Open Font License Version 11httpscriptssilorgOFL
Designer    : Sebastien Sanfilippo
</metadata>
<defs>
<font id="PolskuRegular" horiz-adv-x="1704" >
<font-face units-per-em="2048" ascent="1536" descent="-512" />
<missing-glyph horiz-adv-x="1024" />
<glyph unicode=" "  horiz-adv-x="1024" />
<glyph unicode="&#x09;" horiz-adv-x="1024" />
<glyph unicode="&#xa0;" horiz-adv-x="1024" />
<glyph unicode="," horiz-adv-x="712" d="M64 224q0 46 20 86t58 71t91 49t117 18q96 0 166 -40t100 -100q26 -36 31 -107t-8 -147t-36 -141t-51 -91h-224q46 52 69 97t31 87q-36 -6 -78 -6q-64 0 -117 17t-91 48t-58 71t-20 88z" />
<glyph unicode="-" horiz-adv-x="740" d="M64 462v210h614v-210h-614z" />
<glyph unicode="." horiz-adv-x="698" d="M64 224q0 46 20 86t58 71t91 49t117 18t116 -18t90 -49t58 -72t20 -85q0 -48 -20 -88t-58 -71t-90 -48t-116 -17t-117 17t-91 48t-58 71t-20 88z" />
<glyph unicode="A" horiz-adv-x="2000" d="M-4 0l622 1434h724l630 -1434h-602l-130 316h-790l-130 -316h-324zM580 626h530l-266 642z" />
<glyph unicode="B" horiz-adv-x="2164" d="M118 0v1434h1390q76 0 142 -27t115 -74t78 -109t29 -134q0 -86 -41 -158t-111 -118q80 -8 149 -43t119 -90t80 -124t30 -149q0 -84 -33 -159t-91 -130t-134 -87t-162 -32h-1560zM646 268h704q30 2 63 19t60 42t44 60t17 73t-17 74t-44 61t-60 42t-63 21h-704v-392z M646 954h564q52 4 87 41t35 91q0 52 -35 88t-87 40h-564v-260z" />
<glyph unicode="C" horiz-adv-x="1966" d="M96 716q0 156 72 294t196 242t290 163t354 59t343 -31t270 -96t187 -161t92 -224l-220 -72q-32 88 -89 148t-130 95t-159 49t-174 14q-98 0 -179 -38t-137 -100t-88 -145t-32 -173t27 -173t82 -147t141 -102t206 -38q180 0 321 60t215 192l212 -94q-24 -96 -105 -182 t-200 -152t-268 -104t-315 -38q-226 0 -396 59t-285 161t-173 240t-58 294z" />
<glyph unicode="D" horiz-adv-x="2110" d="M164 0v1434h1120q168 0 306 -57t239 -153t156 -226t55 -280t-66 -280t-175 -228t-254 -154t-301 -56h-1080zM694 250h316q100 0 190 35t158 97t108 147t40 185t-31 191t-89 158t-143 107t-193 40h-356v-960z" />
<glyph unicode="E" horiz-adv-x="1862" d="M164 2v1438h1540v-252h-1014v-338h964v-248h-964v-342h1018v-258h-1544z" />
<glyph unicode="F" d="M148 0v1436h1556v-252h-1030v-334h980v-248h-980v-602h-526z" />
<glyph unicode="G" horiz-adv-x="2026" d="M96 716q0 156 72 294t196 242t290 163t354 59t343 -31t270 -96t187 -161t92 -224l-220 -72q-32 88 -89 148t-130 95t-159 49t-174 14q-98 0 -179 -38t-137 -100t-88 -145t-32 -173t27 -173t82 -147t141 -102t206 -38q148 0 270 40t204 128v194l274 102v-744h-274v120 q-122 -72 -280 -115t-334 -43q-226 0 -396 59t-285 161t-173 240t-58 294z" />
<glyph unicode="H" horiz-adv-x="2144" d="M164 0v1434h524v-630h766v630h526v-1434h-526v566h-766v-566h-524z" />
<glyph unicode="I" horiz-adv-x="818" d="M126 0v1434h530v-1434h-530z" />
<glyph unicode="J" horiz-adv-x="1772" d="M72 594v164h320l-2 -80v-13q0 -82 24 -148q26 -71 74 -118t114 -71t140 -24q76 0 137 22t105 71t68 128t24 193v716h526v-696q0 -170 -49 -313t-150 -245t-250 -160t-353 -58q-150 0 -282 46t-232 129t-157 199t-57 258z" />
<glyph unicode="K" horiz-adv-x="1956" d="M130 2v1432h526v-648l844 648h408l-760 -594l758 -840h-624l-492 560l-134 -106v-452h-526z" />
<glyph unicode="L" horiz-adv-x="1892" d="M206 0v1434h528v-1172h1054v-262h-1582z" />
<glyph unicode="M" horiz-adv-x="2596" d="M232 0v1434h624l514 -1030l536 1030h564v-1434h-526v938l-470 -938h-502l-480 958v-958h-260z" />
<glyph unicode="N" horiz-adv-x="2054" d="M166 2v1432h690l708 -1088v1088h326v-1432h-100l-612 -2l-686 1064v-1062h-326z" />
<glyph unicode="O" horiz-adv-x="1944" d="M56 716q0 156 71 294t195 242t290 163t354 59q210 0 381 -52t289 -150t181 -239t63 -317q0 -158 -72 -295t-196 -239t-289 -161t-357 -59q-226 0 -395 59t-284 161t-173 240t-58 294zM652 744q0 -98 38 -187t103 -154t153 -103t186 -38q100 0 189 38t155 103t105 154 t39 187q0 100 -39 190t-105 156t-155 104t-189 38q-98 0 -186 -38t-153 -104t-103 -156t-38 -190z" />
<glyph unicode="P" horiz-adv-x="2178" d="M166 0v1434h1478q100 0 190 -34t155 -92t103 -134t38 -160q0 -108 -55 -186t-141 -127t-191 -73t-203 -24h-848v-604h-526zM692 840h668q50 0 93 14t75 40t51 60t19 70q0 38 -19 72t-51 60t-75 40t-93 14h-668v-370z" />
<glyph unicode="Q" horiz-adv-x="2056" d="M56 716q0 156 71 294t195 242t290 163t354 59q204 0 373 -53t288 -148t186 -228t67 -295q0 -122 -45 -237t-125 -213q22 -30 49 -47t67 -17q44 0 91 25t83 69l98 -182q-22 -38 -58 -74t-79 -61t-93 -41t-100 -16q-98 0 -173 29t-143 101q-106 -60 -228 -92t-258 -32 q-226 0 -395 59t-284 161t-173 240t-58 294zM672 760q0 -68 18 -132q26 20 64 44t86 46t107 36t125 14q148 0 261 -51t221 -161q38 88 40 184q0 98 -40 184t-107 151t-155 103t-184 38q-90 0 -170 -38t-139 -100t-93 -145t-34 -173zM774 452q60 -86 146 -138t188 -52 q48 0 94 10t88 28q-28 36 -64 72t-79 64t-95 46t-112 18q-62 0 -103 -16t-63 -32z" />
<glyph unicode="R" horiz-adv-x="2516" d="M166 0v1434h1478q100 0 190 -34t155 -92t103 -134t38 -160q0 -108 -55 -186t-141 -127t-191 -73t-203 -24h-338q46 -64 104 -124t130 -107t157 -76t185 -29q110 0 204 45t164 99q82 64 148 144l210 -194q-142 -194 -339 -298t-439 -104q-228 0 -403 71t-329 241l-302 320 v-592h-526zM692 840h668q50 0 93 14t75 40t51 60t19 70q0 38 -19 72t-51 60t-75 40t-93 14h-668v-370z" />
<glyph unicode="S" horiz-adv-x="2160" d="M98 282l222 154q116 -104 311 -167t459 -63q230 0 332 43t102 113q0 52 -39 79t-125 45q-80 18 -220 30l-332 34q-192 20 -314 66q-126 48 -201 110t-107 132t-32 136q0 76 40 161t141 156t277 118t448 47q180 0 325 -22t256 -59t189 -84t128 -97l-178 -152 q-28 18 -87 46t-142 56t-185 47t-216 19q-244 0 -351 -32t-107 -98q0 -46 40 -70t132 -41t244 -32t374 -41q290 -36 435 -154t145 -272q0 -40 -13 -95t-52 -114t-107 -117t-177 -104t-265 -73t-368 -27q-222 0 -383 32t-276 81t-192 106t-131 103z" />
<glyph unicode="T" horiz-adv-x="1818" d="M0 1186v248h1826v-248h-654v-1184h-526v1184h-646z" />
<glyph unicode="U" horiz-adv-x="2064" d="M176 594v840h616v-756q0 -114 34 -187t93 -114t139 -57t170 -16q88 0 171 18t146 62t101 116t38 178l-2 756h318v-840q0 -158 -71 -276t-195 -198t-290 -119t-356 -39q-452 0 -682 158t-230 474z" />
<glyph unicode="V" horiz-adv-x="1738" d="M-62 1434h602l474 -1146l474 1146h324l-622 -1434h-620z" />
<glyph unicode="W" horiz-adv-x="2876" d="M-60 1434h602l328 -1090l376 1090h582l316 -1104l396 1104h314l-540 -1434h-620l-306 976l-340 -976h-620z" />
<glyph unicode="X" horiz-adv-x="1956" d="M0 1434h650l404 -464l466 464h388l-668 -674l666 -760h-664l-382 440l-432 -440h-426l668 660z" />
<glyph unicode="Y" horiz-adv-x="2156" d="M22 1434h650l546 -678l560 678h358l-786 -952v-480h-528v466h-10z" />
<glyph unicode="Z" horiz-adv-x="1956" d="M124 -2v272l1032 898h-1026v264h1756l-2 -262v-2h-2l-1040 -908h1048v-262h-1766z" />
<glyph unicode="]" horiz-adv-x="2048" />
<glyph unicode="^" horiz-adv-x="1226" d="M172 1598l310 246l280 2l292 -248h-388l-154 130l-156 -130h-184z" />
<glyph unicode="`" horiz-adv-x="1238" d="M224 1848l532 -248h258l-352 248h-438z" />
<glyph unicode="a" horiz-adv-x="1586" d="M64 282q0 74 38 126t99 88t143 59t170 34t177 15t165 4h190q-12 126 -106 188t-294 62q-68 0 -129 -17t-111 -43t-88 -58t-60 -62l-116 68q54 90 140 145t187 85t203 40t186 10q150 0 273 -27t211 -82t135 -142t47 -209v-566h-476v172q-52 -48 -104 -86t-114 -66 t-138 -44t-174 -16q-84 0 -165 15t-145 52t-104 99t-40 156zM540 282q0 -60 44 -87t104 -27q86 0 180 36t180 134v126q-50 0 -97 1t-95 1q-38 0 -93 -6t-104 -25t-84 -55t-35 -98z" />
<glyph unicode="b" d="M64 0v1434h488v-568q78 72 195 116t271 44q138 0 253 -38t197 -105t128 -159t46 -198q0 -118 -50 -222t-139 -180t-211 -120t-266 -44q-164 0 -262 29t-162 87v-76h-488zM552 252q94 -84 294 -84q68 0 126 27t102 72t69 102t25 119q0 68 -24 127t-67 104t-102 72t-129 27 q-112 0 -180 -26t-114 -80v-460z" />
<glyph unicode="c" horiz-adv-x="1550" d="M64 492q0 110 56 207t154 170t229 115t281 42q148 0 270 -23t213 -68t147 -112t72 -157l-152 -32q-66 124 -160 170t-234 46q-86 0 -160 -30t-129 -78t-86 -109t-31 -125t22 -125t68 -109t118 -78t172 -30q70 0 139 12t129 36t108 60t76 82l118 -60q-20 -68 -83 -128 t-158 -106t-212 -73t-247 -27q-178 0 -313 42t-225 113t-136 167t-46 208z" />
<glyph unicode="d" d="M64 458q0 118 50 222t139 181t211 121t266 44q164 0 261 -31t163 -87v526h488v-1434h-488v116q-78 -70 -195 -113t-271 -43q-140 0 -254 37t-196 105t-128 159t-46 197zM538 498q0 -68 24 -127t67 -104t102 -72t129 -27q112 0 179 25t115 77v464q-98 84 -294 84 q-68 0 -126 -27t-102 -72t-69 -102t-25 -119z" />
<glyph unicode="e" horiz-adv-x="1570" d="M64 492q0 110 56 207t154 170t229 115t281 42q148 0 273 -25t220 -76t154 -129t77 -182v-158h-972q8 -58 34 -110t72 -91t114 -64t158 -25q70 0 139 12t129 36t108 60t76 82l118 -60q-20 -68 -83 -128t-158 -106t-212 -73t-247 -27q-178 0 -313 42t-225 113t-136 167 t-46 208zM558 614h746q-18 68 -53 114t-82 73t-105 38t-124 11q-68 0 -128 -19t-110 -51t-87 -75t-57 -91z" />
<glyph unicode="f" horiz-adv-x="1120" d="M64 838v186h188q16 94 66 173t131 137t191 91t244 33q140 0 228 -13t146 -38t100 -59l92 -78l-110 -130q-48 36 -84 60t-69 38t-72 19t-95 5q-136 0 -200 -61t-80 -177h368v-186h-372v-838h-490v838h-182z" />
<glyph unicode="g" d="M64 500q0 118 50 222t139 180t211 121t266 45q164 0 261 -31t163 -89v76h488v-814q0 -124 -50 -241t-150 -206t-251 -143t-351 -54q-202 0 -346 61t-240 147l110 130q96 -72 183 -107t199 -35q130 0 209 30t122 80t58 117t19 143v26q-78 -70 -195 -114t-271 -44 q-140 0 -254 38t-196 105t-128 159t-46 198zM538 538q0 -68 24 -127t67 -104t102 -72t129 -27q112 0 179 25t115 79v462q-98 84 -294 84q-68 0 -126 -27t-102 -72t-69 -102t-25 -119z" />
<glyph unicode="h" d="M64 0v1436h488v-590q78 76 201 128t305 52q302 0 443 -109t141 -351v-566h-474v524q0 150 -73 222t-229 72q-112 0 -189 -56t-125 -128v-634h-488z" />
<glyph unicode="i" horiz-adv-x="698" d="M64 1248q0 46 20 86t58 71t91 49t117 18t116 -18t90 -49t58 -72t20 -85q0 -48 -20 -88t-58 -71t-90 -48t-116 -17t-117 17t-91 48t-58 71t-20 88zM106 0v1004q114 -63 245 -63h4q133 1 241 63v-1004h-490z" />
<glyph unicode="j" horiz-adv-x="772" d="M-324 -344l70 132q20 -12 66 -19t84 -7q154 0 217 78t67 230v934q56 -30 118 -46t127 -16t127 15t118 47v-936q-4 -106 -49 -199t-128 -160t-200 -105t-263 -38q-130 0 -225 29t-129 61zM138 1248q0 46 20 86t58 71t91 49t117 18t116 -18t90 -49t58 -72t20 -85 q0 -48 -20 -88t-58 -71t-90 -48t-116 -17t-117 17t-91 48t-58 71t-20 88z" />
<glyph unicode="k" d="M84 2v1432h490v-858l744 448h340l-528 -324l528 -700h-632l-318 440l-134 -84v-354h-490z" />
<glyph unicode="l" horiz-adv-x="616" d="M64 0v1434h488v-1434h-488z" />
<glyph unicode="m" horiz-adv-x="2728" d="M64 0v1024h488v-174q74 76 190 126t296 50q220 0 347 -56t179 -182q36 50 85 93t113 76t148 51t194 18q150 0 257 -27t175 -82t99 -142t31 -209v-566h-474v524q0 150 -63 222t-219 72q-60 0 -106 -18t-82 -45t-65 -64t-51 -75l-6 4q0 -14 1 -27t1 -27v-566h-476v524 q0 150 -62 222t-218 72q-56 0 -101 -16t-80 -41t-62 -58t-51 -69v-634h-488z" />
<glyph unicode="n" d="M64 0v1024h488v-178q78 76 201 128t305 52q302 0 443 -109t141 -351v-566h-474v524q0 150 -73 222t-229 72q-112 0 -189 -56t-125 -128v-634h-488z" />
<glyph unicode="o" horiz-adv-x="1466" d="M64 510q0 114 52 216t143 176t212 118t261 44q156 0 279 -37t210 -109t134 -176t47 -232q0 -114 -53 -215t-144 -176t-213 -119t-260 -44q-164 0 -289 44t-209 119t-127 176t-43 215zM516 542q0 -68 25 -125t68 -100t101 -67t126 -24q66 0 124 24t101 67t69 101t26 124 t-26 124t-69 102t-101 69t-124 25q-68 0 -126 -25t-101 -69t-68 -102t-25 -124z" />
<glyph unicode="p" d="M64 -412v1434h488v-156q78 72 195 116t271 44q138 0 253 -38t197 -105t128 -159t46 -198q0 -118 -50 -222t-139 -180t-211 -120t-266 -44q-164 0 -262 29t-162 87v-488h-488zM552 252q94 -84 294 -84q68 0 126 27t102 72t69 102t25 119q0 68 -24 127t-67 104t-102 72 t-129 27q-112 0 -180 -26t-114 -80v-460z" />
<glyph unicode="q" d="M64 458q0 118 50 222t139 181t211 121t266 44q164 0 261 -31t163 -87v116h488v-1434h-488v526q-78 -70 -195 -113t-271 -43q-140 0 -254 37t-196 105t-128 159t-46 197zM538 498q0 -68 24 -127t67 -104t102 -72t129 -27q112 0 179 25t115 77v464q-98 84 -294 84 q-68 0 -126 -27t-102 -72t-69 -102t-25 -119z" />
<glyph unicode="r" horiz-adv-x="1406" d="M64 0v1024h488v-186q72 80 184 134t282 54q80 0 158 -31t128 -99t63 -180q3 -26 3 -54q0 -95 -34 -220l-476 -40q28 54 42 125q9 43 9 84q0 26 -4 52q-9 65 -43 110t-100 45q-74 0 -126 -54t-86 -120v-644h-488z" />
<glyph unicode="s" d="M98 186l166 108q86 -74 234 -117t344 -43q118 0 169 19t51 49q0 40 -68 61t-170 39l-224 38q-120 20 -220 60q-104 40 -172 108t-68 176q0 54 29 113t106 110t210 84t335 33q144 0 257 -15t200 -42t149 -60t102 -67l-134 -106q-22 12 -69 32t-114 39t-150 33t-175 14 q-130 0 -185 -18t-55 -54q0 -30 39 -48t104 -30t149 -22t170 -24t170 -37t148 -60t104 -92t40 -135q0 -44 -25 -107t-104 -122t-223 -101t-384 -42q-166 0 -286 23t-207 58t-145 74t-98 71z" />
<glyph unicode="t" horiz-adv-x="1170" d="M64 838v186h222v410h490v-410h332v-186h-332v-428q0 -34 2 -92t18 -119t49 -117t95 -82h-490q-54 18 -86 60t-50 92t-23 103t-5 93v490h-222z" />
<glyph unicode="u" d="M64 458v566h474v-524q0 -150 73 -222t229 -72q112 0 189 56t125 126v636h488v-1024h-488v176q-78 -78 -201 -128t-305 -50q-302 0 -443 109t-141 351z" />
<glyph unicode="v" horiz-adv-x="1570" d="M64 1024h534l338 -818l340 818h232l-446 -1024h-546z" />
<glyph unicode="w" horiz-adv-x="2516" d="M64 1024h522l282 -762l288 762h522l282 -760l284 760h210l-400 -1024h-492l-302 762l-298 -762h-490z" />
<glyph unicode="x" horiz-adv-x="1490" d="M64 1024h586l214 -284l284 284h280l-442 -444l440 -580h-598l-208 276l-272 -276h-282l438 432z" />
<glyph unicode="y" horiz-adv-x="1570" d="M64 1024h534l370 -724l308 724h232l-446 -1024h-34l-4 -2h38q-108 -234 -260 -372t-358 -138q-66 0 -128 19t-110 61t-72 108q-16 44 -16 100q0 28 4 58l188 22q4 -92 48 -126t120 -34q78 0 133 42t101 108z" />
<glyph unicode="z" horiz-adv-x="1390" d="M64 -2v194l672 644h-670v188h1260l-2 -186v-2h-4l-678 -650h686v-188h-1264z" />
<glyph unicode="~" horiz-adv-x="2048" d="M560 1590q-12 120 66 206t220 88q90 -2 156 -28t100 -61t59 -70t49 -58t50 -21q50 -8 86 34t36 122h108q2 -290 -342 -286q-64 -2 -109 24t-71 62l-48 72q-24 36 -63 59t-93 21q-50 -2 -73 -53t-21 -111h-110z" />
<glyph unicode="&#xa8;" horiz-adv-x="1394" d="M64 1740q0 44 20 84t58 72t91 50t117 18t116 -18t90 -50t58 -72t20 -84q0 -48 -20 -88t-58 -72t-90 -48t-116 -16t-117 16t-91 48t-58 72t-20 88zM760 1740q0 44 20 84t58 72t91 50t117 18t116 -18t90 -50t58 -72t20 -84q0 -48 -20 -88t-58 -72t-90 -48t-116 -16t-117 16 t-91 48t-58 72t-20 88z" />
<glyph unicode="&#xaa;" horiz-adv-x="1586" d="M64 282q0 74 38 126t99 88t143 59t170 34t177 15t165 4h190q-12 126 -106 188t-294 62q-68 0 -129 -17t-111 -43t-88 -58t-60 -62l-116 68q54 90 140 145t187 85t203 40t186 10q150 0 273 -27t211 -82t135 -142t47 -209v-566h-476v172q-52 -48 -104 -86t-114 -66 t-138 -44t-174 -16q-84 0 -165 15t-145 52t-104 99t-40 156zM540 282q0 -60 44 -87t104 -27q86 0 180 36t180 134v126q-50 0 -97 1t-95 1q-38 0 -93 -6t-104 -25t-84 -55t-35 -98z" />
<glyph unicode="&#xad;" horiz-adv-x="740" d="M64 462v210h614v-210h-614z" />
<glyph unicode="&#xb4;" horiz-adv-x="1238" d="M224 1600l352 248h438l-532 -248h-258z" />
<glyph unicode="&#xb5;" d="M64 -412v870v564v2h474v-524q0 -150 73 -222t229 -72q112 0 189 56t125 126v636h488v-1024h-488v176q-78 -78 -201 -128t-305 -50q-50 0 -96 4v-414h-488z" />
<glyph unicode="&#xb8;" horiz-adv-x="890" d="M190 -460l30 70q44 -10 96 -10q70 0 122 32t54 100q-2 58 -62 94t-126 36q-38 0 -68 -6l88 162h186l-62 -92q60 -8 115 -30t100 -67t45 -103t-33 -100t-85 -63t-105 -31t-109 -10q-108 0 -186 18z" />
<glyph unicode="&#xba;" horiz-adv-x="1466" d="M64 510q0 114 52 216t143 176t212 118t261 44q156 0 279 -37t210 -109t134 -176t47 -232q0 -114 -53 -215t-144 -176t-213 -119t-260 -44q-164 0 -289 44t-209 119t-127 176t-43 215zM516 542q0 -68 25 -125t68 -100t101 -67t126 -24q66 0 124 24t101 67t69 101t26 124 t-26 124t-69 102t-101 69t-124 25q-68 0 -126 -25t-101 -69t-68 -102t-25 -124z" />
<glyph unicode="&#xc0;" horiz-adv-x="2000" d="M-4 0l622 1434h724l630 -1434h-602l-130 316h-790l-130 -316h-324zM480 1848l532 -248h258l-352 248h-438zM580 626h530l-266 642z" />
<glyph unicode="&#xc1;" horiz-adv-x="2000" d="M-4 0l622 1434h724l630 -1434h-602l-130 316h-790l-130 -316h-324zM580 626h530l-266 642zM780 1600l352 248h438l-532 -248h-258z" />
<glyph unicode="&#xc2;" horiz-adv-x="2000" d="M-4 0l622 1434h724l630 -1434h-602l-130 316h-790l-130 -316h-324zM512 1598l310 246l280 2l292 -248h-388l-154 130l-156 -130h-184zM580 626h530l-266 642z" />
<glyph unicode="&#xc3;" horiz-adv-x="2000" d="M-4 0l622 1434h724l630 -1434h-602l-130 316h-790l-130 -316h-324zM504 1590q-12 120 66 206t220 88q90 -2 156 -28t100 -61t59 -70t49 -58t50 -21q50 -8 86 34t36 122h108q2 -290 -342 -286q-64 -2 -109 24t-71 62l-48 72q-24 36 -63 59t-93 21q-50 -2 -73 -53t-21 -111 h-110zM580 626h530l-266 642z" />
<glyph unicode="&#xc4;" horiz-adv-x="2000" d="M-4 0l622 1434h724l630 -1434h-602l-130 316h-790l-130 -316h-324zM328 1740q0 44 20 84t58 72t91 50t117 18t116 -18t90 -50t58 -72t20 -84q0 -48 -20 -88t-58 -72t-90 -48t-116 -16t-117 16t-91 48t-58 72t-20 88zM580 626h530l-266 642zM1024 1740q0 44 20 84t58 72 t91 50t117 18t116 -18t90 -50t58 -72t20 -84q0 -48 -20 -88t-58 -72t-90 -48t-116 -16t-117 16t-91 48t-58 72t-20 88z" />
<glyph unicode="&#xc5;" horiz-adv-x="2000" d="M-4 0l622 1434h724l630 -1434h-602l-130 316h-790l-130 -316h-324zM580 626h530l-266 642zM710 1768q0 38 18 72t48 59t70 39t88 14q52 0 93 -12t70 -36t45 -59t16 -77q0 -38 -18 -72t-48 -59t-71 -40t-87 -15q-56 0 -97 15t-69 40t-43 59t-15 72zM900 1764q0 -16 6 -30 t17 -24t25 -16t30 -6t30 6t24 16t17 24t7 30t-7 30t-17 25t-24 17t-30 6t-30 -6t-25 -17t-17 -25t-6 -30z" />
<glyph unicode="&#xc6;" horiz-adv-x="2682" d="M-4 48l622 1434h70v6h296h724h816v-252h-816h-198v-338h964v-248h-964v-342h1018v-258h-1544v314h-534l-130 -316h-324zM580 674h404v562h-172z" />
<glyph unicode="&#xc7;" horiz-adv-x="1966" d="M96 716q0 156 72 294t196 242t290 163t354 59t343 -31t270 -96t187 -161t92 -224l-220 -72q-32 88 -89 148t-130 95t-159 49t-174 14q-98 0 -179 -38t-137 -100t-88 -145t-32 -173t27 -173t82 -147t141 -102t206 -38q180 0 321 60t215 192l212 -94q-24 -96 -105 -182 t-200 -152t-267 -104q-110 -28 -230 -36l-26 -38q60 -8 115 -30t100 -67t45 -103t-33 -100t-85 -63t-105 -31t-109 -10q-108 0 -186 18l30 70q44 -10 96 -10q70 0 122 32t54 100q-2 58 -62 94t-126 36q-38 0 -68 -6l58 108q-168 10 -302 56q-170 60 -285 162t-173 240 t-58 294z" />
<glyph unicode="&#xc8;" horiz-adv-x="1862" d="M164 2v1438h1540v-252h-1014v-338h964v-248h-964v-342h1018v-258h-1544zM480 1848l532 -248h258l-352 248h-438z" />
<glyph unicode="&#xc9;" horiz-adv-x="1862" d="M164 2v1438h1540v-252h-1014v-338h964v-248h-964v-342h1018v-258h-1544zM780 1600l352 248h438l-532 -248h-258z" />
<glyph unicode="&#xca;" horiz-adv-x="1862" d="M164 2v1438h1540v-252h-1014v-338h964v-248h-964v-342h1018v-258h-1544zM492 1598l310 246l280 2l292 -248h-388l-154 130l-156 -130h-184z" />
<glyph unicode="&#xcb;" horiz-adv-x="1862" d="M164 2v1438h1540v-252h-1014v-338h964v-248h-964v-342h1018v-258h-1544zM328 1740q0 44 20 84t58 72t91 50t117 18t116 -18t90 -50t58 -72t20 -84q0 -48 -20 -88t-58 -72t-90 -48t-116 -16t-117 16t-91 48t-58 72t-20 88zM1024 1740q0 44 20 84t58 72t91 50t117 18 t116 -18t90 -50t58 -72t20 -84q0 -48 -20 -88t-58 -72t-90 -48t-116 -16t-117 16t-91 48t-58 72t-20 88z" />
<glyph unicode="&#xcc;" horiz-adv-x="818" d="M-140 1848l532 -248h258l-352 248h-438zM126 0v1434h530v-1434h-530z" />
<glyph unicode="&#xcd;" horiz-adv-x="818" d="M126 0v1434h530v-1434h-530zM148 1600l352 248h438l-532 -248h-258z" />
<glyph unicode="&#xce;" horiz-adv-x="818" d="M24 1598l310 246l280 2l292 -248h-388l-154 130l-156 -130h-184zM126 0v1434h530v-1434h-530z" />
<glyph unicode="&#xcf;" horiz-adv-x="818" d="M-244 1740q0 44 20 84t58 72t91 50t117 18t116 -18t90 -50t58 -72t20 -84q0 -48 -20 -88t-58 -72t-90 -48t-116 -16t-117 16t-91 48t-58 72t-20 88zM126 0v1434h530v-1434h-530zM452 1740q0 44 20 84t58 72t91 50t117 18t116 -18t90 -50t58 -72t20 -84q0 -48 -20 -88 t-58 -72t-90 -48t-116 -16t-117 16t-91 48t-58 72t-20 88z" />
<glyph unicode="&#xd1;" horiz-adv-x="2054" d="M166 2v1432h690l708 -1088v1088h326v-1432h-100l-612 -2l-686 1064v-1062h-326zM560 1590q-12 120 66 206t220 88q90 -2 156 -28t100 -61t59 -70t49 -58t50 -21q50 -8 86 34t36 122h108q2 -290 -342 -286q-64 -2 -109 24t-71 62l-48 72q-24 36 -63 59t-93 21 q-50 -2 -73 -53t-21 -111h-110z" />
<glyph unicode="&#xd2;" horiz-adv-x="1944" d="M56 716q0 156 71 294t195 242t290 163t354 59q210 0 381 -52t289 -150t181 -239t63 -317q0 -158 -72 -295t-196 -239t-289 -161t-357 -59q-226 0 -395 59t-284 161t-173 240t-58 294zM480 1848l532 -248h258l-352 248h-438zM652 744q0 -98 38 -187t103 -154t153 -103 t186 -38q100 0 189 38t155 103t105 154t39 187q0 100 -39 190t-105 156t-155 104t-189 38q-98 0 -186 -38t-153 -104t-103 -156t-38 -190z" />
<glyph unicode="&#xd3;" horiz-adv-x="1944" d="M56 716q0 156 71 294t195 242t290 163t354 59q210 0 381 -52t289 -150t181 -239t63 -317q0 -158 -72 -295t-196 -239t-289 -161t-357 -59q-226 0 -395 59t-284 161t-173 240t-58 294zM632 1600l352 248h438l-532 -248h-258zM652 744q0 -98 38 -187t103 -154t153 -103 t186 -38q100 0 189 38t155 103t105 154t39 187q0 100 -39 190t-105 156t-155 104t-189 38q-98 0 -186 -38t-153 -104t-103 -156t-38 -190z" />
<glyph unicode="&#xd4;" horiz-adv-x="1944" d="M56 716q0 156 71 294t195 242t290 163t354 59q210 0 381 -52t289 -150t181 -239t63 -317q0 -158 -72 -295t-196 -239t-289 -161t-357 -59q-226 0 -395 59t-284 161t-173 240t-58 294zM552 1598l310 246l280 2l292 -248h-388l-154 130l-156 -130h-184zM652 744 q0 -98 38 -187t103 -154t153 -103t186 -38q100 0 189 38t155 103t105 154t39 187q0 100 -39 190t-105 156t-155 104t-189 38q-98 0 -186 -38t-153 -104t-103 -156t-38 -190z" />
<glyph unicode="&#xd5;" horiz-adv-x="1944" d="M56 716q0 156 71 294t195 242t290 163t354 59q210 0 381 -52t289 -150t181 -239t63 -317q0 -158 -72 -295t-196 -239t-289 -161t-357 -59q-226 0 -395 59t-284 161t-173 240t-58 294zM452 1590q-12 120 66 206t220 88q90 -2 156 -28t100 -61t59 -70t49 -58t50 -21 q50 -8 86 34t36 122h108q2 -290 -342 -286q-64 -2 -109 24t-71 62l-48 72q-24 36 -63 59t-93 21q-50 -2 -73 -53t-21 -111h-110zM652 744q0 -98 38 -187t103 -154t153 -103t186 -38q100 0 189 38t155 103t105 154t39 187q0 100 -39 190t-105 156t-155 104t-189 38 q-98 0 -186 -38t-153 -104t-103 -156t-38 -190z" />
<glyph unicode="&#xd6;" horiz-adv-x="1944" d="M56 716q0 156 71 294t195 242t290 163t354 59q210 0 381 -52t289 -150t181 -239t63 -317q0 -158 -72 -295t-196 -239t-289 -161t-357 -59q-226 0 -395 59t-284 161t-173 240t-58 294zM328 1740q0 44 20 84t58 72t91 50t117 18t116 -18t90 -50t58 -72t20 -84 q0 -48 -20 -88t-58 -72t-90 -48t-116 -16t-117 16t-91 48t-58 72t-20 88zM652 744q0 -98 38 -187t103 -154t153 -103t186 -38q100 0 189 38t155 103t105 154t39 187q0 100 -39 190t-105 156t-155 104t-189 38q-98 0 -186 -38t-153 -104t-103 -156t-38 -190zM1024 1740 q0 44 20 84t58 72t91 50t117 18t116 -18t90 -50t58 -72t20 -84q0 -48 -20 -88t-58 -72t-90 -48t-116 -16t-117 16t-91 48t-58 72t-20 88z" />
<glyph unicode="&#xd8;" horiz-adv-x="1944" d="M52 0l230 186q-112 100 -168 236q-58 138 -58 294t71 294t195 242t290 163t354 59q210 0 382 -52q166 -50 282 -146l94 76h276l-250 -200q38 -56 66 -120q64 -140 64 -316q0 -158 -72 -295t-196 -239t-289 -161t-357 -59q-226 0 -394 58q-82 30 -152 68l-108 -88h-260z M652 744q0 -98 38 -188q6 -14 14 -28l736 594q-54 44 -120 72q-88 38 -188 38q-98 0 -186 -38t-153 -104t-103 -156t-38 -190zM802 394q62 -58 144 -94q88 -38 186 -38q100 0 189 38t155 103t105 154t39 187q0 100 -40 190q-12 30 -28 58z" />
<glyph unicode="&#xd9;" horiz-adv-x="2064" d="M176 594v840h616v-756q0 -114 34 -187t93 -114t139 -57t170 -16q88 0 171 18t146 62t101 116t38 178l-2 756h318v-840q0 -158 -71 -276t-195 -198t-290 -119t-356 -39q-452 0 -682 158t-230 474zM580 1848l532 -248h258l-352 248h-438z" />
<glyph unicode="&#xda;" horiz-adv-x="2064" d="M176 594v840h616v-756q0 -114 34 -187t93 -114t139 -57t170 -16q88 0 171 18t146 62t101 116t38 178l-2 756h318v-840q0 -158 -71 -276t-195 -198t-290 -119t-356 -39q-452 0 -682 158t-230 474zM780 1600l352 248h438l-532 -248h-258z" />
<glyph unicode="&#xdb;" horiz-adv-x="2064" d="M176 594v840h616v-756q0 -114 34 -187t93 -114t139 -57t170 -16q88 0 171 18t146 62t101 116t38 178l-2 756h318v-840q0 -158 -71 -276t-195 -198t-290 -119t-356 -39q-452 0 -682 158t-230 474zM736 1598l310 246l280 2l292 -248h-388l-154 130l-156 -130h-184z" />
<glyph unicode="&#xdc;" horiz-adv-x="2064" d="M176 594v840h616v-756q0 -114 34 -187t93 -114t139 -57t170 -16q88 0 171 18t146 62t101 116t38 178l-2 756h318v-840q0 -158 -71 -276t-195 -198t-290 -119t-356 -39q-452 0 -682 158t-230 474zM476 1740q0 44 20 84t58 72t91 50t117 18t116 -18t90 -50t58 -72t20 -84 q0 -48 -20 -88t-58 -72t-90 -48t-116 -16t-117 16t-91 48t-58 72t-20 88zM1172 1740q0 44 20 84t58 72t91 50t117 18t116 -18t90 -50t58 -72t20 -84q0 -48 -20 -88t-58 -72t-90 -48t-116 -16t-117 16t-91 48t-58 72t-20 88z" />
<glyph unicode="&#xdd;" horiz-adv-x="2156" d="M22 1434h650l546 -678l560 678h358l-786 -952v-480h-528v466h-10zM780 1600l352 248h438l-532 -248h-258z" />
<glyph unicode="&#xde;" horiz-adv-x="2178" d="M166 0l2 1434h530v-224h946q100 0 190 -34t155 -92t103 -134t38 -160q0 -108 -55 -186t-141 -127t-191 -73t-203 -24h-842v-380h-6h-524h-2zM698 616h662q50 0 93 14t75 40t51 60t19 70q0 38 -19 72t-51 60t-75 40t-93 14h-662v-370z" />
<glyph unicode="&#xe0;" horiz-adv-x="1586" d="M64 282q0 74 38 126t99 88t143 59t170 34t177 15t165 4h190q-12 126 -106 188t-294 62q-68 0 -129 -17t-111 -43t-88 -58t-60 -62l-116 68q54 90 140 145t187 85t203 40t186 10q150 0 273 -27t211 -82t135 -142t47 -209v-566h-476v172q-52 -48 -104 -86t-114 -66 t-138 -44t-174 -16q-84 0 -165 15t-145 52t-104 99t-40 156zM336 1368l532 -248h258l-352 248h-438zM540 282q0 -60 44 -87t104 -27q86 0 180 36t180 134v126q-50 0 -97 1t-95 1q-38 0 -93 -6t-104 -25t-84 -55t-35 -98z" />
<glyph unicode="&#xe1;" horiz-adv-x="1586" d="M64 282q0 74 38 126t99 88t143 59t170 34t177 15t165 4h190q-12 126 -106 188t-294 62q-68 0 -129 -17t-111 -43t-88 -58t-60 -62l-116 68q54 90 140 145t187 85t203 40t186 10q150 0 273 -27t211 -82t135 -142t47 -209v-566h-476v172q-52 -48 -104 -86t-114 -66 t-138 -44t-174 -16q-84 0 -165 15t-145 52t-104 99t-40 156zM436 1128l352 248h438l-532 -248h-258zM540 282q0 -60 44 -87t104 -27q86 0 180 36t180 134v126q-50 0 -97 1t-95 1q-38 0 -93 -6t-104 -25t-84 -55t-35 -98z" />
<glyph unicode="&#xe2;" horiz-adv-x="1586" d="M64 282q0 74 38 126t99 88t143 59t170 34t177 15t165 4h190q-12 126 -106 188t-294 62q-68 0 -129 -17t-111 -43t-88 -58t-60 -62l-116 68q54 90 140 145t187 85t203 40t186 10q150 0 273 -27t211 -82t135 -142t47 -209v-566h-476v172q-52 -48 -104 -86t-114 -66 t-138 -44t-174 -16q-84 0 -165 15t-145 52t-104 99t-40 156zM420 1118l310 246l280 2l292 -248h-388l-154 130l-156 -130h-184zM540 282q0 -60 44 -87t104 -27q86 0 180 36t180 134v126q-50 0 -97 1t-95 1q-38 0 -93 -6t-104 -25t-84 -55t-35 -98z" />
<glyph unicode="&#xe3;" horiz-adv-x="1586" d="M64 282q0 74 38 126t99 88t143 59t170 34t177 15t165 4h190q-12 126 -106 188t-294 62q-68 0 -129 -17t-111 -43t-88 -58t-60 -62l-116 68q54 90 140 145t187 85t203 40t186 10q150 0 273 -27t211 -82t135 -142t47 -209v-566h-476v172q-52 -48 -104 -86t-114 -66 t-138 -44t-174 -16q-84 0 -165 15t-145 52t-104 99t-40 156zM356 1150q-12 120 66 206t220 88q90 -2 156 -28t100 -61t59 -70t49 -58t50 -21q50 -8 86 34t36 122h108q2 -290 -342 -286q-64 -2 -109 24t-71 62l-48 72q-24 36 -63 59t-93 21q-50 -2 -73 -53t-21 -111h-110z M540 282q0 -60 44 -87t104 -27q86 0 180 36t180 134v126q-50 0 -97 1t-95 1q-38 0 -93 -6t-104 -25t-84 -55t-35 -98z" />
<glyph unicode="&#xe4;" horiz-adv-x="1586" d="M64 282q0 74 38 126t99 88t143 59t170 34t177 15t165 4h190q-12 126 -106 188t-294 62q-68 0 -129 -17t-111 -43t-88 -58t-60 -62l-116 68q54 90 140 145t187 85t203 40t186 10q150 0 273 -27t211 -82t135 -142t47 -209v-566h-476v172q-52 -48 -104 -86t-114 -66 t-138 -44t-174 -16q-84 0 -165 15t-145 52t-104 99t-40 156zM180 1328q0 44 20 84t58 72t91 50t117 18t116 -18t90 -50t58 -72t20 -84q0 -48 -20 -88t-58 -72t-90 -48t-116 -16t-117 16t-91 48t-58 72t-20 88zM540 282q0 -60 44 -87t104 -27q86 0 180 36t180 134v126 q-50 0 -97 1t-95 1q-38 0 -93 -6t-104 -25t-84 -55t-35 -98zM876 1328q0 44 20 84t58 72t91 50t117 18t116 -18t90 -50t58 -72t20 -84q0 -48 -20 -88t-58 -72t-90 -48t-116 -16t-117 16t-91 48t-58 72t-20 88z" />
<glyph unicode="&#xe5;" horiz-adv-x="1586" d="M64 282q0 74 38 126t99 88t143 59t170 34t177 15t165 4h190q-12 126 -106 188t-294 62q-68 0 -129 -17t-111 -43t-88 -58t-60 -62l-116 68q54 90 140 145t187 85t203 40t186 10q150 0 273 -27t211 -82t135 -142t47 -209v-566h-476v172q-52 -48 -104 -86t-114 -66 t-138 -44t-174 -16q-84 0 -165 15t-145 52t-104 99t-40 156zM540 282q0 -60 44 -87t104 -27q86 0 180 36t180 134v126q-50 0 -97 1t-95 1q-38 0 -93 -6t-104 -25t-84 -55t-35 -98zM606 1260q0 38 18 72t48 59t70 39t88 14q52 0 93 -12t70 -36t45 -59t16 -77q0 -38 -18 -72 t-48 -59t-71 -40t-87 -15q-56 0 -97 15t-69 40t-43 59t-15 72zM796 1256q0 -16 6 -30t17 -24t25 -16t30 -6t30 6t24 16t17 24t7 30t-7 30t-17 25t-24 17t-30 6t-30 -6t-25 -17t-17 -25t-6 -30z" />
<glyph unicode="&#xe6;" horiz-adv-x="2590" d="M64 330q0 74 38 126t99 88t143 59t170 34t177 15t165 4h190q-12 126 -106 188t-294 62q-68 0 -129 -17t-111 -43t-88 -58t-60 -62l-116 68q54 90 140 145t187 85t203 40t186 10q150 0 273 -27t211 -83l12 -8q76 46 170 76q130 42 280 42q148 0 273 -25t220 -76t154 -129 t77 -182v-158h-972q8 -58 34 -110t72 -91t114 -64t158 -25q70 0 139 12t129 36t108 60t76 82l118 -60q-20 -68 -83 -128t-158 -106t-212 -73t-247 -27q-178 0 -313 42t-225 112q-54 44 -92 94q-162 -128 -313 -192t-343 -58q-84 -2 -162 16t-144 55t-107 102t-41 149z M540 330q0 -60 44 -87t104 -27q86 0 180 36t180 134v126q-50 0 -97 1t-95 1q-38 0 -93 -6t-104 -25t-84 -55t-35 -98zM1578 662h746q-18 68 -53 114t-82 73t-105 38t-124 11q-68 0 -128 -19t-110 -51t-87 -75t-57 -91z" />
<glyph unicode="&#xe7;" horiz-adv-x="1550" d="M64 492q0 110 56 207t154 170t229 115t281 42q148 0 270 -23t213 -68t147 -112t72 -157l-152 -32q-66 124 -160 170t-234 46q-86 0 -160 -30t-129 -78t-86 -109t-31 -125t22 -125t68 -109t118 -78t172 -30q70 0 139 12t129 36t108 60t76 82l118 -60q-20 -68 -83 -128 t-158 -106t-211 -74q-78 -16 -162 -22l-26 -40q60 -8 115 -30t100 -67t45 -103t-33 -100t-85 -63t-105 -31t-109 -10q-108 0 -186 18l30 70q44 -10 96 -10q70 0 122 32t54 100q-2 58 -62 94t-126 36q-38 0 -68 -6l60 110q-122 8 -220 38q-136 42 -226 113t-136 167t-46 208z " />
<glyph unicode="&#xe8;" horiz-adv-x="1570" d="M64 492q0 110 56 207t154 170t229 115t281 42q148 0 273 -25t220 -76t154 -129t77 -182v-158h-972q8 -58 34 -110t72 -91t114 -64t158 -25q70 0 139 12t129 36t108 60t76 82l118 -60q-20 -68 -83 -128t-158 -106t-212 -73t-247 -27q-178 0 -313 42t-225 113t-136 167 t-46 208zM336 1368l532 -248h258l-352 248h-438zM558 614h746q-18 68 -53 114t-82 73t-105 38t-124 11q-68 0 -128 -19t-110 -51t-87 -75t-57 -91z" />
<glyph unicode="&#xe9;" horiz-adv-x="1570" d="M64 492q0 110 56 207t154 170t229 115t281 42q148 0 273 -25t220 -76t154 -129t77 -182v-158h-972q8 -58 34 -110t72 -91t114 -64t158 -25q70 0 139 12t129 36t108 60t76 82l118 -60q-20 -68 -83 -128t-158 -106t-212 -73t-247 -27q-178 0 -313 42t-225 113t-136 167 t-46 208zM436 1128l352 248h438l-532 -248h-258zM558 614h746q-18 68 -53 114t-82 73t-105 38t-124 11q-68 0 -128 -19t-110 -51t-87 -75t-57 -91z" />
<glyph unicode="&#xea;" horiz-adv-x="1570" d="M64 492q0 110 56 207t154 170t229 115t281 42q148 0 273 -25t220 -76t154 -129t77 -182v-158h-972q8 -58 34 -110t72 -91t114 -64t158 -25q70 0 139 12t129 36t108 60t76 82l118 -60q-20 -68 -83 -128t-158 -106t-212 -73t-247 -27q-178 0 -313 42t-225 113t-136 167 t-46 208zM420 1118l310 246l280 2l292 -248h-388l-154 130l-156 -130h-184zM558 614h746q-18 68 -53 114t-82 73t-105 38t-124 11q-68 0 -128 -19t-110 -51t-87 -75t-57 -91z" />
<glyph unicode="&#xeb;" horiz-adv-x="1570" d="M64 492q0 110 56 207t154 170t229 115t281 42q148 0 273 -25t220 -76t154 -129t77 -182v-158h-972q8 -58 34 -110t72 -91t114 -64t158 -25q70 0 139 12t129 36t108 60t76 82l118 -60q-20 -68 -83 -128t-158 -106t-212 -73t-247 -27q-178 0 -313 42t-225 113t-136 167 t-46 208zM156 1320q0 44 20 84t58 72t91 50t117 18t116 -18t90 -50t58 -72t20 -84q0 -48 -20 -88t-58 -72t-90 -48t-116 -16t-117 16t-91 48t-58 72t-20 88zM558 614h746q-18 68 -53 114t-82 73t-105 38t-124 11q-68 0 -128 -19t-110 -51t-87 -75t-57 -91zM852 1320 q0 44 20 84t58 72t91 50t117 18t116 -18t90 -50t58 -72t20 -84q0 -48 -20 -88t-58 -72t-90 -48t-116 -16t-117 16t-91 48t-58 72t-20 88z" />
<glyph unicode="&#xec;" horiz-adv-x="698" d="M-228 1368l532 -248h258l-352 248h-438zM106 0v1004q0 -2 250 0h240v-1004h-490z" />
<glyph unicode="&#xed;" horiz-adv-x="698" d="M106 0v1004q0 -2 250 0h240v-1004h-490zM128 1128l352 248h438l-532 -248h-258z" />
<glyph unicode="&#xee;" horiz-adv-x="698" d="M-108 1118l310 246l280 2l292 -248h-388l-154 130l-156 -130h-184zM106 0v1004q0 -2 250 0h240v-1004h-490z" />
<glyph unicode="&#xef;" horiz-adv-x="698" d="M-252 1320q0 44 20 84t58 72t91 50t117 18t116 -18t90 -50t58 -72t20 -84q0 -48 -20 -88t-58 -72t-90 -48t-116 -16t-117 16t-91 48t-58 72t-20 88zM106 0v1004q0 -2 250 0h240v-1004h-490zM444 1320q0 44 20 84t58 72t91 50t117 18t116 -18t90 -50t58 -72t20 -84 q0 -48 -20 -88t-58 -72t-90 -48t-116 -16t-117 16t-91 48t-58 72t-20 88z" />
<glyph unicode="&#xf0;" horiz-adv-x="1466" d="M64 510q0 114 52 216t143 176t212 118t261 44q156 0 279 -37t210 -109t134 -176t47 -232q0 -114 -53 -215t-144 -176t-213 -119t-260 -44q-164 0 -289 44t-209 119t-127 176t-43 215zM516 542q0 -68 25 -125t68 -100t101 -67t126 -24q66 0 124 24t101 67t69 101t26 124 t-26 124t-69 102t-101 69t-124 25q-68 0 -126 -25t-101 -69t-68 -102t-25 -124z" />
<glyph unicode="&#xf1;" d="M64 0v1024h488v-178q78 76 201 128t305 52q302 0 443 -109t141 -351v-566h-474v524q0 150 -73 222t-229 72q-112 0 -189 -56t-125 -128v-634h-488zM356 1150q-12 120 66 206t220 88q90 -2 156 -28t100 -61t59 -70t49 -58t50 -21q50 -8 86 34t36 122h108q2 -290 -342 -286 q-64 -2 -109 24t-71 62l-48 72q-24 36 -63 59t-93 21q-50 -2 -73 -53t-21 -111h-110z" />
<glyph unicode="&#xf2;" horiz-adv-x="1466" d="M64 510q0 114 52 216t143 176t212 118t261 44q156 0 279 -37t210 -109t134 -176t47 -232q0 -114 -53 -215t-144 -176t-213 -119t-260 -44q-164 0 -289 44t-209 119t-127 176t-43 215zM168 1368l532 -248h258l-352 248h-438zM516 542q0 -68 25 -125t68 -100t101 -67 t126 -24q66 0 124 24t101 67t69 101t26 124t-26 124t-69 102t-101 69t-124 25q-68 0 -126 -25t-101 -69t-68 -102t-25 -124z" />
<glyph unicode="&#xf3;" horiz-adv-x="1466" d="M64 510q0 114 52 216t143 176t212 118t261 44q156 0 279 -37t210 -109t134 -176t47 -232q0 -114 -53 -215t-144 -176t-213 -119t-260 -44q-164 0 -289 44t-209 119t-127 176t-43 215zM436 1128l352 248h438l-532 -248h-258zM516 542q0 -68 25 -125t68 -100t101 -67 t126 -24q66 0 124 24t101 67t69 101t26 124t-26 124t-69 102t-101 69t-124 25q-68 0 -126 -25t-101 -69t-68 -102t-25 -124z" />
<glyph unicode="&#xf4;" horiz-adv-x="1466" d="M64 510q0 114 52 216t143 176t212 118t261 44q156 0 279 -37t210 -109t134 -176t47 -232q0 -114 -53 -215t-144 -176t-213 -119t-260 -44q-164 0 -289 44t-209 119t-127 176t-43 215zM332 1118l310 246l280 2l292 -248h-388l-154 130l-156 -130h-184zM516 542 q0 -68 25 -125t68 -100t101 -67t126 -24q66 0 124 24t101 67t69 101t26 124t-26 124t-69 102t-101 69t-124 25q-68 0 -126 -25t-101 -69t-68 -102t-25 -124z" />
<glyph unicode="&#xf5;" horiz-adv-x="1466" d="M64 510q0 114 52 216t143 176t212 118t261 44q156 0 279 -37t210 -109t134 -176t47 -232q0 -114 -53 -215t-144 -176t-213 -119t-260 -44q-164 0 -289 44t-209 119t-127 176t-43 215zM252 1150q-12 120 66 206t220 88q90 -2 156 -28t100 -61t59 -70t49 -58t50 -21 q50 -8 86 34t36 122h108q2 -290 -342 -286q-64 -2 -109 24t-71 62l-48 72q-24 36 -63 59t-93 21q-50 -2 -73 -53t-21 -111h-110zM516 542q0 -68 25 -125t68 -100t101 -67t126 -24q66 0 124 24t101 67t69 101t26 124t-26 124t-69 102t-101 69t-124 25q-68 0 -126 -25 t-101 -69t-68 -102t-25 -124z" />
<glyph unicode="&#xf6;" horiz-adv-x="1466" d="M64 510q0 114 52 216t143 176t212 118t261 44q156 0 279 -37t210 -109t134 -176t47 -232q0 -114 -53 -215t-144 -176t-213 -119t-260 -44q-164 0 -289 44t-209 119t-127 176t-43 215zM72 1320q0 44 20 84t58 72t91 50t117 18t116 -18t90 -50t58 -72t20 -84q0 -48 -20 -88 t-58 -72t-90 -48t-116 -16t-117 16t-91 48t-58 72t-20 88zM516 542q0 -68 25 -125t68 -100t101 -67t126 -24q66 0 124 24t101 67t69 101t26 124t-26 124t-69 102t-101 69t-124 25q-68 0 -126 -25t-101 -69t-68 -102t-25 -124zM768 1320q0 44 20 84t58 72t91 50t117 18 t116 -18t90 -50t58 -72t20 -84q0 -48 -20 -88t-58 -72t-90 -48t-116 -16t-117 16t-91 48t-58 72t-20 88z" />
<glyph unicode="&#xf8;" horiz-adv-x="1466" d="M52 0l160 140q-68 68 -104 156q-44 100 -44 214t52 216t143 176t212 118t261 44q156 0 280 -36q78 -24 142 -64l36 32h276l-174 -150q38 -48 64 -104q46 -104 46 -232q0 -114 -53 -215t-144 -176t-213 -119t-260 -44q-164 0 -288 44q-48 16 -90 38l-42 -38h-260zM516 542 q0 -64 22 -116l452 396q-14 8 -30 14q-58 26 -124 26q-68 0 -126 -25t-101 -69t-68 -102t-25 -124zM644 288q30 -24 66 -38q58 -24 126 -24q66 0 124 24t101 67t69 101t26 124t-26 124q-6 14 -14 28z" />
<glyph unicode="&#xf9;" d="M64 458v566h474v-524q0 -150 73 -222t229 -72q112 0 189 56t125 126v636h488v-1024h-488v176q-78 -78 -201 -128t-305 -50q-302 0 -443 109t-141 351zM336 1368l532 -248h258l-352 248h-438z" />
<glyph unicode="&#xfa;" d="M64 458v566h474v-524q0 -150 73 -222t229 -72q112 0 189 56t125 126v636h488v-1024h-488v176q-78 -78 -201 -128t-305 -50q-302 0 -443 109t-141 351zM436 1128l352 248h438l-532 -248h-258z" />
<glyph unicode="&#xfb;" d="M64 458v566h474v-524q0 -150 73 -222t229 -72q112 0 189 56t125 126v636h488v-1024h-488v176q-78 -78 -201 -128t-305 -50q-302 0 -443 109t-141 351zM420 1118l310 246l280 2l292 -248h-388l-154 130l-156 -130h-184z" />
<glyph unicode="&#xfc;" d="M64 458v566h474v-524q0 -150 73 -222t229 -72q112 0 189 56t125 126v636h488v-1024h-488v176q-78 -78 -201 -128t-305 -50q-302 0 -443 109t-141 351zM188 1320q0 44 20 84t58 72t91 50t117 18t116 -18t90 -50t58 -72t20 -84q0 -48 -20 -88t-58 -72t-90 -48t-116 -16 t-117 16t-91 48t-58 72t-20 88zM884 1320q0 44 20 84t58 72t91 50t117 18t116 -18t90 -50t58 -72t20 -84q0 -48 -20 -88t-58 -72t-90 -48t-116 -16t-117 16t-91 48t-58 72t-20 88z" />
<glyph unicode="&#xfd;" horiz-adv-x="1570" d="M64 1024h534l370 -724l308 724h232l-446 -1024h-34l-4 -2h38q-108 -234 -260 -372t-358 -138q-66 0 -128 19t-110 61t-72 108t-12 158l188 22q4 -92 48 -126t120 -34q78 0 133 42t101 108zM572 1128l352 248h438l-532 -248h-258z" />
<glyph unicode="&#xfe;" d="M64 -412v1848h488v-570q78 72 195 116t271 44q138 0 253 -38t197 -105t128 -159t46 -198q0 -118 -50 -222t-139 -180t-211 -120t-266 -44q-164 0 -262 29t-162 87v-488h-488zM552 252q94 -84 294 -84q68 0 126 27t102 72t69 102t25 119q0 68 -24 127t-67 104t-102 72 t-129 27q-112 0 -180 -26t-114 -80v-460z" />
<glyph unicode="&#xff;" horiz-adv-x="1570" d="M64 1024h534l370 -724l308 724h232l-446 -1024h-34l-4 -2h38q-108 -234 -260 -372t-358 -138q-66 0 -128 19t-110 61t-72 108t-12 158l188 22q4 -92 48 -126t120 -34q78 0 133 42t101 108zM156 1320q0 44 20 84t58 72t91 50t117 18t116 -18t90 -50t58 -72t20 -84 q0 -48 -20 -88t-58 -72t-90 -48t-116 -16t-117 16t-91 48t-58 72t-20 88zM852 1320q0 44 20 84t58 72t91 50t117 18t116 -18t90 -50t58 -72t20 -84q0 -48 -20 -88t-58 -72t-90 -48t-116 -16t-117 16t-91 48t-58 72t-20 88z" />
<glyph unicode="&#x152;" horiz-adv-x="3102" d="M56 764q0 156 71 294t195 242t290 163t354 59q210 0 380 -52q32 -10 62 -20v38h1540v-252h-1014v-338h964v-248h-964v-342h1018v-258h-1544v54q-42 -20 -86 -36q-164 -58 -356 -58q-226 0 -395 59t-284 161t-173 240t-58 294zM652 792q0 -98 38 -187t103 -154t153 -103 t186 -38q100 0 188 38q48 20 88 48v798q-40 28 -88 48q-88 38 -188 38q-98 0 -186 -38t-153 -104t-103 -156t-38 -190z" />
<glyph unicode="&#x153;" horiz-adv-x="2636" d="M64 558q0 114 52 216t143 176t212 118t261 44q156 0 279 -37t209 -109q46 -36 80 -82q18 18 40 32q98 74 229 116t279 42q150 0 275 -25t219 -76t154 -129t76 -182v-158h-972q10 -58 35 -110t72 -91t114 -64t159 -25q68 0 138 12t130 36t108 60t76 82l116 -60 q-20 -68 -82 -128t-158 -106t-212 -73t-248 -27q-176 0 -312 42t-224 112q-30 24 -56 50q-24 -24 -52 -46q-90 -76 -212 -120t-260 -44q-164 0 -289 44t-209 119t-127 176t-43 215zM516 590q0 -68 25 -125t68 -100t101 -67t126 -24q66 0 124 24t101 67t69 101l4 8 q-6 32 -6 66q0 64 20 122q-6 26 -18 52q-26 58 -69 102t-101 69t-124 25q-68 0 -126 -25t-101 -69t-68 -102t-25 -124zM1624 662h744q-16 68 -52 114t-82 73t-104 38t-126 11t-128 -19t-109 -51t-87 -75t-56 -91z" />
<glyph unicode="&#x178;" horiz-adv-x="2156" d="M446 1820q0 44 20 84t58 72t91 50t117 18t116 -18t90 -50t58 -72t20 -84q0 -48 -20 -88t-58 -72t-90 -48t-116 -16t-117 16t-91 48t-58 72t-20 88zM1142 1820q0 44 20 84t58 72t91 50t117 18t116 -18t90 -50t58 -72t20 -84q0 -48 -20 -88t-58 -72t-90 -48t-116 -16 t-117 16t-91 48t-58 72t-20 88zM22 1434h650l546 -678l560 678h358l-786 -952v-480h-528v466h-10z" />
<glyph unicode="&#x2c6;" horiz-adv-x="1226" d="M172 1598l310 246l280 2l292 -248h-388l-154 130l-156 -130h-184z" />
<glyph unicode="&#x2000;" horiz-adv-x="1022" />
<glyph unicode="&#x2001;" horiz-adv-x="2044" />
<glyph unicode="&#x2002;" horiz-adv-x="1022" />
<glyph unicode="&#x2003;" horiz-adv-x="2044" />
<glyph unicode="&#x2004;" horiz-adv-x="680" />
<glyph unicode="&#x2005;" horiz-adv-x="510" />
<glyph unicode="&#x2006;" horiz-adv-x="340" />
<glyph unicode="&#x2007;" horiz-adv-x="340" />
<glyph unicode="&#x2008;" horiz-adv-x="254" />
<glyph unicode="&#x2009;" horiz-adv-x="408" />
<glyph unicode="&#x200a;" horiz-adv-x="112" />
<glyph unicode="&#x2010;" horiz-adv-x="740" d="M64 462v210h614v-210h-614z" />
<glyph unicode="&#x2011;" horiz-adv-x="740" d="M64 462v210h614v-210h-614z" />
<glyph unicode="&#x2012;" horiz-adv-x="740" d="M64 462v210h614v-210h-614z" />
<glyph unicode="&#x2013;" horiz-adv-x="1024" d="M64 462v210h898v-210h-898z" />
<glyph unicode="&#x2014;" horiz-adv-x="2048" d="M64 462v210h1922v-210h-1922z" />
<glyph unicode="&#x2018;" horiz-adv-x="1238" d="M224 1848l532 -248h258l-352 248h-438z" />
<glyph unicode="&#x2019;" horiz-adv-x="712" d="M64 1248q0 46 20 86t58 71t91 49t117 18q96 0 166 -40t100 -100q26 -36 31 -107t-8 -147t-36 -141t-51 -91h-224q46 52 69 96t31 88q-36 -6 -78 -6q-64 0 -117 17t-91 48t-58 71t-20 88z" />
<glyph unicode="&#x2026;" horiz-adv-x="2094" d="M1460 224q0 46 20 86t58 71t91 49t117 18t116 -18t90 -49t58 -72t20 -85q0 -48 -20 -88t-58 -71t-90 -48t-116 -17t-117 17t-91 48t-58 71t-20 88zM762 224q0 46 20 86t58 71t91 49t117 18t116 -18t90 -49t58 -72t20 -85q0 -48 -20 -88t-58 -71t-90 -48t-116 -17t-117 17 t-91 48t-58 71t-20 88zM64 224q0 46 20 86t58 71t91 49t117 18t116 -18t90 -49t58 -72t20 -85q0 -48 -20 -88t-58 -71t-90 -48t-116 -17t-117 17t-91 48t-58 71t-20 88z" />
<glyph unicode="&#x202f;" horiz-adv-x="408" />
<glyph unicode="&#x205f;" horiz-adv-x="510" />
<glyph unicode="&#x2122;" horiz-adv-x="4414" d="M2050 0v1434h624l514 -1030l536 1030h564v-1434h-526v938l-470 -938h-502l-480 958v-958h-260zM0 1186v248h1826v-248h-654v-1184h-526v1184h-646z" />
<glyph unicode="&#xe000;" horiz-adv-x="1025" d="M0 1025h1025v-1025h-1025v1025z" />
<glyph unicode="&#xfb01;" horiz-adv-x="1818" d="M1184 1248q0 46 20 86t58 71t91 49t117 18t116 -18t90 -49t58 -72t20 -85q0 -48 -20 -88t-58 -71t-90 -48t-116 -17t-117 17t-91 48t-58 71t-20 88zM1226 0v1004q114 -63 245 -63h4q133 1 241 63v-1004h-490zM64 838v186h188q16 94 66 173t131 137t191 91t244 33 q140 0 228 -13t146 -38t100 -59l92 -78l-110 -130q-48 36 -84 60t-69 38t-72 19t-95 5q-136 0 -200 -61t-80 -177h368v-186h-372v-838h-490v838h-182z" />
<glyph unicode="&#xfb02;" horiz-adv-x="1736" d="M1184 0v1434h488v-1434h-488zM64 838v186h188q16 94 66 173t131 137t191 91t244 33q140 0 228 -13t146 -38t100 -59l92 -78l-110 -130q-48 36 -84 60t-69 38t-72 19t-95 5q-136 0 -200 -61t-80 -177h368v-186h-372v-838h-490v838h-182z" />
<glyph unicode="&#xfb03;" horiz-adv-x="2938" d="M2304 1248q0 46 20 86t58 71t91 49t117 18t116 -18t90 -49t58 -72t20 -85q0 -48 -20 -88t-58 -71t-90 -48t-116 -17t-117 17t-91 48t-58 71t-20 88zM2346 0v1004q114 -63 245 -63h4q133 1 241 63v-1004h-490zM1184 838v186h188q16 94 66 173t131 137t191 91t244 33 q140 0 228 -13t146 -38t100 -59l92 -78l-110 -130q-48 36 -84 60t-69 38t-72 19t-95 5q-136 0 -200 -61t-80 -177h368v-186h-372v-838h-490v838h-182zM64 838v186h188q16 94 66 173t131 137t191 91t244 33q140 0 228 -13t146 -38t100 -59l92 -78l-110 -130q-48 36 -84 60 t-69 38t-72 19t-95 5q-136 0 -200 -61t-80 -177h368v-186h-372v-838h-490v838h-182z" />
<glyph unicode="&#xfb04;" horiz-adv-x="2856" d="M2304 0v1434h488v-1434h-488zM1184 838v186h188q16 94 66 173t131 137t191 91t244 33q140 0 228 -13t146 -38t100 -59l92 -78l-110 -130q-48 36 -84 60t-69 38t-72 19t-95 5q-136 0 -200 -61t-80 -177h368v-186h-372v-838h-490v838h-182zM64 838v186h188q16 94 66 173 t131 137t191 91t244 33q140 0 228 -13t146 -38t100 -59l92 -78l-110 -130q-48 36 -84 60t-69 38t-72 19t-95 5q-136 0 -200 -61t-80 -177h368v-186h-372v-838h-490v838h-182z" />
</font>
</defs>
</svg>
