<?xml version="1.0" encoding="UTF-8" standalone="no"?>
<!-- Created with Inkscape (http://www.inkscape.org/) -->

<svg
   xmlns:dc="http://purl.org/dc/elements/1.1/"
   xmlns:cc="http://creativecommons.org/ns#"
   xmlns:rdf="http://www.w3.org/1999/02/22-rdf-syntax-ns#"
   xmlns:svg="http://www.w3.org/2000/svg"
   xmlns="http://www.w3.org/2000/svg"
   xmlns:sodipodi="http://sodipodi.sourceforge.net/DTD/sodipodi-0.dtd"
   xmlns:inkscape="http://www.inkscape.org/namespaces/inkscape"
   id="svg2"
   version="1.1"
   inkscape:version="0.48.1 r9760"
   width="200"
   height="200"
   xml:space="preserve"
   sodipodi:docname="vgc.svg"><metadata
     id="metadata8"><rdf:RDF><cc:Work
         rdf:about=""><dc:format>image/svg+xml</dc:format><dc:type
           rdf:resource="http://purl.org/dc/dcmitype/StillImage" /><dc:title /></cc:Work></rdf:RDF></metadata><defs
     id="defs6" /><sodipodi:namedview
     pagecolor="#ffffff"
     bordercolor="#666666"
     borderopacity="1"
     objecttolerance="10"
     gridtolerance="10"
     guidetolerance="10"
     inkscape:pageopacity="0"
     inkscape:pageshadow="2"
     inkscape:window-width="640"
     inkscape:window-height="480"
     id="namedview4"
     showgrid="false"
     inkscape:zoom="0.61577933"
     inkscape:cx="58.462502"
     inkscape:cy="58.462502"
     inkscape:window-x="89"
     inkscape:window-y="28"
     inkscape:window-maximized="0"
     inkscape:current-layer="g12" /><g
     id="g10"
     inkscape:groupmode="layer"
     inkscape:label="ink_ext_XXXXXX"
     transform="matrix(1.25,0,0,-1.25,0,200)"><g
       id="g12"
       transform="scale(0.1,0.1)"><path
         d="m 265.97911,1453.8323 27.79127,0 -49.90971,-182.7036 -38.59112,0 -49.35555,182.7036 27.79128,0 40.99108,-155.2227 0.52915,0 40.7536,155.2227"
         style="fill:#231f20;fill-opacity:1;fill-rule:nonzero;stroke:none"
         id="path14"
         inkscape:connector-curvature="0" /><path
         d="m 487.9968,1296.4534 0,-25.3247 -121.41703,0 0,182.7036 27.81627,0 0,-157.3789 93.60076,0"
         style="fill:#231f20;fill-opacity:1;fill-rule:nonzero;stroke:none"
         id="path16"
         inkscape:connector-curvature="0" /><path
         d="m 613.71169,1428.239 -0.55208,0 -19.95597,-79.2385 40.20152,0 -19.69347,79.2385 z m -27.00171,-104.5715 -12.91439,-52.5388 -28.0767,0 49.90346,182.7036 35.34117,0 49.92638,-182.7036 -28.07461,0 -13.20814,52.5388 -52.89717,0"
         style="fill:#231f20;fill-opacity:1;fill-rule:nonzero;stroke:none"
         id="path18"
         inkscape:connector-curvature="0" /><path
         d="m 807.92352,1428.239 -0.52917,0 -19.96221,-79.2385 40.18485,0 -19.69347,79.2385 z m -26.9767,-104.5715 -12.9394,-52.5388 -28.06003,0 49.90971,182.7036 35.33492,0 49.90971,-182.7036 -28.07668,0 -13.18315,52.5388 -52.89508,0"
         style="fill:#231f20;fill-opacity:1;fill-rule:nonzero;stroke:none"
         id="path20"
         inkscape:connector-curvature="0" /><path
         d="m 1023.4559,1453.8323 42.9035,0 0,-182.7036 -27.7683,0 0,152.252 -0.5521,0 -25.0809,-92.9674 -22.13509,0 -25.06423,92.9674 -0.57082,0 0,-152.252 -27.77461,0 0,182.7036 42.88689,0 21.34556,-70.3281 0.5291,0 21.281,70.3281"
         style="fill:#231f20;fill-opacity:1;fill-rule:nonzero;stroke:none"
         id="path22"
         inkscape:connector-curvature="0" /><path
         d="m 1138.4043,1316.1322 0,5.6479 27.7892,0 c 0.2604,-17.2456 12.3706,-27.7517 29.6641,-27.7517 15.6644,0 30.2308,7.5353 30.2308,25.3246 0,19.9476 -20.7747,27.76 -41.5681,37.4682 -20.7664,9.9603 -41.8036,21.5643 -41.8036,48.7536 0,31.5433 26.1392,50.6909 56.3951,50.6909 25.0662,0 52.8555,-17.5206 52.8555,-45.0015 l 0,-3.5083 -27.7893,0 c 1.0729,15.3644 -11.0685,23.1601 -25.6183,23.1601 -14.5831,0 -28.0518,-5.6561 -28.0518,-22.8997 0,-13.2164 10.5145,-20.2142 21.0352,-25.0641 l 16.1705,-7.527 c 24.8455,-11.8582 46.1661,-24.8143 46.1661,-55.8034 0,-32.0787 -27.7913,-50.9263 -58.0221,-50.9263 -27.5058,0 -57.4533,17.2517 -57.4533,47.4367"
         style="fill:#231f20;fill-opacity:1;fill-rule:nonzero;stroke:none"
         id="path24"
         inkscape:connector-curvature="0" /><path
         d="m 1366.0781,1379.1918 71.2302,0 0,-25.3246 -71.2302,0 0,-57.4138 84.9593,0 0,-25.3247 -112.7256,0 0,182.7036 109.536,0 0,-25.3245 -81.7697,0 0,-49.316"
         style="fill:#231f20;fill-opacity:1;fill-rule:nonzero;stroke:none"
         id="path26"
         inkscape:connector-curvature="0" /><path
         d="m 219.56935,973.07044 0,25.32464 65.55115,0 0,-89.19248 c -16.1706,-6.74573 -35.0745,-11.04151 -52.61175,-11.04151 -55.29714,0 -70.40942,47.14309 -70.40942,94.04866 0,49.05555 16.19352,93.49665 73.11771,93.49665 26.71004,0 49.90346,-18.3352 49.90346,-36.9058 l 0,-2.1562 -27.79127,0 c -2.68538,10.7748 -9.96861,13.729 -22.11219,13.729 -38.84111,0 -45.32643,-31.2496 -45.32643,-65.73035 0,-32.09537 4.59785,-71.15732 45.05977,-71.15732 8.07905,0 15.36437,1.61873 22.37885,4.31243 l 0,45.27228 -37.75988,0"
         style="fill:#231f20;fill-opacity:1;fill-rule:nonzero;stroke:none"
         id="path28"
         inkscape:connector-curvature="0" /><path
         d="m 394.9252,1008.6408 71.2219,0 0,-25.333 -71.2219,0 0,-57.38877 84.97587,0 0,-25.33298 -112.76714,0 0,182.68705 109.53595,0 0,-25.3164 -81.74468,0 0,-49.3159"
         style="fill:#231f20;fill-opacity:1;fill-rule:nonzero;stroke:none"
         id="path30"
         inkscape:connector-curvature="0" /><path
         d="m 634.99264,1083.2731 42.92647,0 0,-182.68705 -27.81419,0 0,152.25205 -0.54582,0 -25.06424,-92.9758 -22.11844,0 -25.08089,92.9758 -0.52915,0 0,-152.25205 -27.79128,0 0,182.68705 42.88689,0 21.29762,-70.3032 0.55208,0 21.28095,70.3032"
         style="fill:#231f20;fill-opacity:1;fill-rule:nonzero;stroke:none"
         id="path32"
         inkscape:connector-curvature="0" /><path
         d="m 783.38637,1008.6408 71.22399,0 0,-25.333 -71.22399,0 0,-57.38877 84.96129,0 0,-25.33298 -112.75049,0 0,182.68705 109.53595,0 0,-25.3164 -81.74675,0 0,-49.3159"
         style="fill:#231f20;fill-opacity:1;fill-rule:nonzero;stroke:none"
         id="path34"
         inkscape:connector-curvature="0" /><path
         d="m 977.5982,1008.6408 71.224,0 0,-25.333 -71.224,0 0,-57.38877 85.0008,0 0,-25.33298 -112.77541,0 0,182.68705 109.53601,0 0,-25.3164 -81.7614,0 0,-49.3159"
         style="fill:#231f20;fill-opacity:1;fill-rule:nonzero;stroke:none"
         id="path36"
         inkscape:connector-curvature="0" /><path
         d="m 1231.4612,1083.2731 25.3643,0 0,-182.68705 -30.2079,0 -65.2886,138.23765 -0.5459,0 0,-138.23765 -25.3496,0 0,182.68705 32.3474,0 63.1512,-132.57526 0.5291,0 0,132.57526"
         style="fill:#231f20;fill-opacity:1;fill-rule:nonzero;stroke:none"
         id="path38"
         inkscape:connector-curvature="0" /><path
         d="m 1332.6557,945.57083 0,5.66451 27.7663,0 c 0.2686,-17.24351 12.4102,-27.74961 29.6454,-27.74961 15.706,0 30.2329,7.55197 30.2329,25.34131 0,19.9143 -20.7769,27.74961 -41.5265,37.44322 -20.7685,9.99361 -41.8057,21.56424 -41.8057,48.77844 0,31.5329 26.1642,50.6577 56.3554,50.6577 25.0643,0 52.8555,-17.504 52.8555,-45.0015 l 0,-3.4916 -27.7912,0 c 1.1396,15.3644 -11.027,23.1601 -25.5934,23.1601 -14.5665,0 -28.0767,-5.6562 -28.0767,-22.908 0,-13.1915 10.5395,-20.1977 21.0539,-25.0497 l 16.1789,-7.552 c 24.8205,-11.85604 46.141,-24.78711 46.141,-55.77625 0,-32.07246 -27.7912,-50.92636 -58.0241,-50.92636 -27.4893,0 -57.4117,17.23517 -57.4117,47.40974"
         style="fill:#231f20;fill-opacity:1;fill-rule:nonzero;stroke:none"
         id="path40"
         inkscape:connector-curvature="0" /><path
         d="m 254.35844,671.52054 c -0.78958,11.04152 -11.04359,18.32475 -22.63926,18.32475 -29.41834,0 -34.00161,-46.09935 -34.00161,-67.64071 0,-21.83511 4.05411,-69.27818 34.00161,-69.27818 11.59567,0 21.84968,8.0978 22.63926,19.93721 l 27.79127,0 c 0,-27.19753 -23.45383,-45.24727 -49.35764,-45.24727 -49.37221,0 -62.86368,53.34508 -62.86368,93.2216 0,42.05565 13.49147,94.3174 62.86368,94.3174 25.90381,0 49.35764,-17.49767 49.35764,-43.6348 l -27.79127,0"
         style="fill:#231f20;fill-opacity:1;fill-rule:nonzero;stroke:none"
         id="path42"
         inkscape:connector-curvature="0" /><path
         d="m 388.71487,612.23597 0,-82.21759 -27.79127,0 0,182.73701 27.79127,0 0,-75.19478 60.9533,0 0,75.19478 27.79128,0 0,-182.73701 -27.79128,0 0,82.21759 -60.9533,0"
         style="fill:#231f20;fill-opacity:1;fill-rule:nonzero;stroke:none"
         id="path44"
         inkscape:connector-curvature="0" /><path
         d="m 613.71169,687.15991 -0.55208,0 -19.95597,-79.22179 40.20152,0 -19.69347,79.22179 z m -27.00171,-104.57143 -12.91439,-52.5701 -28.0767,0 49.90346,182.73701 35.34117,0 49.92638,-182.73701 -28.07461,0 -13.20814,52.5701 -52.89717,0"
         style="fill:#231f20;fill-opacity:1;fill-rule:nonzero;stroke:none"
         id="path46"
         inkscape:connector-curvature="0" /><path
         d="m 813.05053,630.80654 c 19.16431,0 35.60366,5.9395 35.60366,28.03502 0,23.98925 -14.52688,28.56418 -35.32033,28.56418 l -32.89953,0 0,-56.5992 32.6162,0 z m -60.42415,81.94885 61.78246,0 c 36.41824,0 62.03454,-16.43936 62.03454,-54.44299 0,-38.00363 -29.9475,-52.81591 -63.92201,-52.81591 l -32.08704,0 0,-75.47811 -27.80795,0 0,182.73701"
         style="fill:#231f20;fill-opacity:1;fill-rule:nonzero;stroke:none"
         id="path48"
         inkscape:connector-curvature="0" /><path
         d="m 944.15076,575.01984 0,5.69783 27.79126,0 c 0.28542,-17.29351 12.41025,-27.79127 29.70378,-27.79127 15.6248,0 30.1912,7.56864 30.1912,25.34963 0,19.93722 -20.7518,27.74961 -41.54315,37.4578 -20.77679,9.96861 -41.82857,21.54137 -41.82857,48.78682 0,31.50996 26.1788,50.63469 56.39502,50.63469 25.1059,0 52.8722,-17.49767 52.8722,-45.00353 l 0,-3.49786 -27.7663,0 c 1.0583,15.37895 -11.0686,23.19134 -25.635,23.19134 -14.56651,0 -28.06006,-5.67075 -28.06006,-22.90802 0,-13.18313 10.52276,-20.22262 21.03719,-25.06422 l 16.19357,-7.52698 c 24.8059,-11.88107 46.1014,-24.82047 46.1014,-55.80129 0,-32.06413 -27.7663,-50.92844 -57.9575,-50.92844 -27.54756,0 -57.49504,17.23725 -57.49504,47.4035"
         style="fill:#231f20;fill-opacity:1;fill-rule:nonzero;stroke:none"
         id="path50"
         inkscape:connector-curvature="0" /><path
         d="m 1225.5613,671.52054 c -0.8395,11.04152 -11.0935,18.32475 -22.7059,18.32475 -29.3766,0 -33.9995,-46.09935 -33.9995,-67.64071 0,-21.83511 4.052,-69.27818 33.9995,-69.27818 11.6124,0 21.8664,8.0978 22.7059,19.93721 l 27.7664,0 c 0,-27.19753 -23.4539,-45.24727 -49.3973,-45.24727 -49.3577,0 -62.8408,53.34508 -62.8408,93.2216 0,42.05565 13.4831,94.3174 62.8408,94.3174 25.9434,0 49.3973,-17.49767 49.3973,-43.6348 l -27.7664,0"
         style="fill:#231f20;fill-opacity:1;fill-rule:nonzero;stroke:none"
         id="path52"
         inkscape:connector-curvature="0" /><path
         d="m 1353.4074,620.30877 c 0,-22.90801 5.1271,-67.38237 36.9621,-67.38237 31.5578,0 36.9307,44.47436 36.9307,67.38237 0,23.43717 -4.8438,69.53652 -36.9307,69.53652 -32.3642,0 -36.9621,-46.09935 -36.9621,-69.53652 z m 101.6819,1.34165 c 0,-40.15985 -18.0246,-94.03408 -64.7198,-94.03408 -46.6869,0 -64.7533,53.87423 -64.7533,94.03408 0,36.93072 18.3518,93.50492 64.7533,93.50492 46.3868,0 64.7198,-56.5742 64.7198,-93.50492"
         style="fill:#231f20;fill-opacity:1;fill-rule:nonzero;stroke:none"
         id="path54"
         inkscape:connector-curvature="0" /><path
         d="m 246.54605,342.19605 42.88689,0 0,-182.69742 -27.76627,0 0,152.26035 -0.55416,0 -25.0809,-92.97577 -22.11843,0 -25.1059,92.97577 -0.52915,0 0,-152.26035 -27.79128,0 0,182.69742 42.91189,0 21.29762,-70.31151 0.52915,0 21.32054,70.31151"
         style="fill:#231f20;fill-opacity:1;fill-rule:nonzero;stroke:none"
         id="path56"
         inkscape:connector-curvature="0" /><path
         d="m 440.7808,342.19605 42.90356,0 0,-182.69742 -27.79127,0 0,152.26035 -0.54374,0 -25.08924,-92.97577 -22.1351,0 -25.06631,92.97577 -0.54374,0 0,-152.26035 -27.79128,0 0,182.69742 42.8869,0 21.32053,-70.31151 0.54582,0 21.30387,70.31151"
         style="fill:#231f20;fill-opacity:1;fill-rule:nonzero;stroke:none"
         id="path58"
         inkscape:connector-curvature="0" /><path
         d="m 627.18024,184.80869 32.91829,0 0,-25.31006 -93.58618,0 0,25.31006 32.87662,0 0,132.0773 -27.4892,0 0,25.31006 82.54258,0 0,-25.31006 -27.26211,0 0,-132.0773"
         style="fill:#231f20;fill-opacity:1;fill-rule:nonzero;stroke:none"
         id="path60"
         inkscape:connector-curvature="0" /><path
         d="m 749.941,204.4855 0,5.69575 27.79128,0 c 0.24375,-17.27684 12.41024,-27.77461 29.66207,-27.77461 15.64145,0 30.23291,7.55198 30.23291,25.31006 0,19.93722 -20.79345,27.74961 -41.54524,37.4578 -20.79138,9.98528 -41.82857,21.60595 -41.82857,48.78681 0,31.50997 26.18088,50.67429 56.37211,50.67429 25.08923,0 52.87842,-17.51226 52.87842,-45.01812 l 0,-3.48328 -27.78919,0 c 1.0979,15.36436 -11.06859,23.17675 -25.63505,23.17675 -14.56646,0 -28.03503,-5.65617 -28.03503,-22.908 0,-13.20815 10.49778,-20.22264 21.03721,-25.08923 l 16.16852,-7.52698 c 24.82048,-11.85817 46.14309,-24.7809 46.14309,-55.78672 0,-32.07871 -27.76627,-50.91802 -57.99918,-50.91802 -27.54752,0 -57.45335,17.25183 -57.45335,47.4035"
         style="fill:#231f20;fill-opacity:1;fill-rule:nonzero;stroke:none"
         id="path62"
         inkscape:connector-curvature="0" /><path
         d="m 944.15076,204.4855 0,5.69575 27.79126,0 c 0.28542,-17.27684 12.41025,-27.77461 29.70378,-27.77461 15.6248,0 30.1912,7.55198 30.1912,25.31006 0,19.93722 -20.7518,27.74961 -41.54315,37.4578 -20.77679,9.98528 -41.82857,21.60595 -41.82857,48.78681 0,31.50997 26.1788,50.67429 56.39502,50.67429 25.1059,0 52.8722,-17.51226 52.8722,-45.01812 l 0,-3.48328 -27.7663,0 c 1.0583,15.36436 -11.0686,23.17675 -25.635,23.17675 -14.56651,0 -28.06006,-5.65617 -28.06006,-22.908 0,-13.20815 10.52276,-20.22264 21.03719,-25.08923 l 16.19357,-7.52698 c 24.8059,-11.85817 46.1014,-24.7809 46.1014,-55.78672 0,-32.07871 -27.7663,-50.91802 -57.9575,-50.91802 -27.54756,0 -57.49504,17.25183 -57.49504,47.4035"
         style="fill:#231f20;fill-opacity:1;fill-rule:nonzero;stroke:none"
         id="path64"
         inkscape:connector-curvature="0" /><path
         d="m 1209.8949,184.80869 32.8933,0 0,-25.31006 -93.6029,0 0,25.31006 32.9183,0 0,132.0773 -27.5309,0 0,25.31006 82.5594,0 0,-25.31006 -27.2372,0 0,-132.0773"
         style="fill:#231f20;fill-opacity:1;fill-rule:nonzero;stroke:none"
         id="path66"
         inkscape:connector-curvature="0" /><path
         d="m 1366.0781,267.55336 71.2302,0 0,-25.33298 -71.2302,0 0,-57.41169 84.9593,0 0,-25.31006 -112.7256,0 0,182.69742 109.536,0 0,-25.31006 -81.7697,0 0,-49.33263"
         style="fill:#231f20;fill-opacity:1;fill-rule:nonzero;stroke:none"
         id="path68"
         inkscape:connector-curvature="0" /></g></g></svg>