<?xml version="1.0" encoding="UTF-8" standalone="no"?>
<!-- Created with Inkscape (http://www.inkscape.org/) -->

<svg
   xmlns:dc="http://purl.org/dc/elements/1.1/"
   xmlns:cc="http://creativecommons.org/ns#"
   xmlns:rdf="http://www.w3.org/1999/02/22-rdf-syntax-ns#"
   xmlns:svg="http://www.w3.org/2000/svg"
   xmlns="http://www.w3.org/2000/svg"
   xmlns:sodipodi="http://sodipodi.sourceforge.net/DTD/sodipodi-0.dtd"
   xmlns:inkscape="http://www.inkscape.org/namespaces/inkscape"
   width="200"
   height="200"
   id="svg18343"
   version="1.1"
   inkscape:version="0.48.1 r9760"
   sodipodi:docname="New document 53">
  <defs
     id="defs18345">
    <clipPath
       clipPathUnits="userSpaceOnUse"
       id="clipPath18022">
      <path
         inkscape:connector-curvature="0"
         d="m 274.733,335.339 104.882,0 0,82.299 -104.882,0 0,-82.299 z"
         id="path18024" />
    </clipPath>
  </defs>
  <sodipodi:namedview
     id="base"
     pagecolor="#ffffff"
     bordercolor="#666666"
     borderopacity="1.0"
     inkscape:pageopacity="0.0"
     inkscape:pageshadow="2"
     inkscape:zoom="0.4632456"
     inkscape:cx="8.5029354"
     inkscape:cy="68.571429"
     inkscape:document-units="px"
     inkscape:current-layer="layer1"
     showgrid="false"
     inkscape:window-width="1280"
     inkscape:window-height="776"
     inkscape:window-x="0"
     inkscape:window-y="24"
     inkscape:window-maximized="1" />
  <metadata
     id="metadata18348">
    <rdf:RDF>
      <cc:Work
         rdf:about="">
        <dc:format>image/svg+xml</dc:format>
        <dc:type
           rdf:resource="http://purl.org/dc/dcmitype/StillImage" />
        <dc:title></dc:title>
      </cc:Work>
    </rdf:RDF>
  </metadata>
  <g
     inkscape:label="Layer 1"
     inkscape:groupmode="layer"
     id="layer1"
     transform="translate(0,-852.36218)">
    <g
       transform="matrix(1.5277329,0,0,-1.5277329,-397.40593,1527.536)"
       id="g18018">
      <g
         id="g18020"
         clip-path="url(#clipPath18022)">
        <path
           inkscape:connector-curvature="0"
           d="m 285.985,347.316 0,2.336 c -1.724,0 -2.922,-0.704 -2.922,-2.542 0.483,0.307 2.922,0.206 2.922,0.206"
           style="fill:#7b7979;fill-opacity:1;fill-rule:nonzero;stroke:none"
           id="path18026" />
        <path
           inkscape:connector-curvature="0"
           d="m 292.031,341.018 -1.761,1.761 c -1.265,-1.264 -1.487,-2.638 -0.163,-3.974 0.126,0.56 1.924,2.213 1.924,2.213"
           style="fill:#7b7979;fill-opacity:1;fill-rule:nonzero;stroke:none"
           id="path18028" />
        <path
           inkscape:connector-curvature="0"
           d="m 294.25,338.785 -1.51,1.511 c -1.222,-1.224 -1.737,-2.389 -0.413,-3.721 0.124,0.556 1.923,2.21 1.923,2.21"
           style="fill:#7b7979;fill-opacity:1;fill-rule:nonzero;stroke:none"
           id="path18030" />
        <path
           inkscape:connector-curvature="0"
           d="m 286.586,344.06 0,2.337 5.743,0 -2.358,-2.354 -3.385,0.017 z"
           style="fill:#7b7979;fill-opacity:1;fill-rule:nonzero;stroke:none"
           id="path18032" />
        <path
           inkscape:connector-curvature="0"
           d="m 285.957,344.06 0,2.337 c -1.725,0 -2.922,-0.706 -2.922,-2.54 0.481,0.305 2.922,0.203 2.922,0.203"
           style="fill:#7b7979;fill-opacity:1;fill-rule:nonzero;stroke:none"
           id="path18034" />
        <path
           inkscape:connector-curvature="0"
           d="m 328.029,342.725 0,2.337 6.186,0 -2.354,-2.354 -3.832,0.017 z"
           style="fill:#7b7979;fill-opacity:1;fill-rule:nonzero;stroke:none"
           id="path18036" />
        <path
           inkscape:connector-curvature="0"
           d="m 327.401,342.725 0,2.337 c -1.726,0 -2.924,-0.705 -2.924,-2.541 0.482,0.306 2.924,0.204 2.924,0.204"
           style="fill:#7b7979;fill-opacity:1;fill-rule:nonzero;stroke:none"
           id="path18038" />
        <path
           inkscape:connector-curvature="0"
           d="m 327.42,345.81 0,2.336 c -1.726,0 -2.922,-0.705 -2.922,-2.542 0.48,0.307 2.922,0.206 2.922,0.206"
           style="fill:#7b7979;fill-opacity:1;fill-rule:nonzero;stroke:none"
           id="path18040" />
        <path
           inkscape:connector-curvature="0"
           d="m 297.279,341.823 -2.552,-2.553 -1.494,1.496 3.851,3.851 c 1.051,-1.053 1.21,-1.781 0.195,-2.794"
           style="fill:#7b7979;fill-opacity:1;fill-rule:nonzero;stroke:none"
           id="path18042" />
        <path
           inkscape:connector-curvature="0"
           d="m 336.165,337.55 -1.512,1.511 c -1.221,-1.224 -1.734,-2.39 -0.41,-3.722 0.122,0.558 1.922,2.211 1.922,2.211"
           style="fill:#7b7979;fill-opacity:1;fill-rule:nonzero;stroke:none"
           id="path18044" />
        <path
           inkscape:connector-curvature="0"
           d="m 333.819,339.895 -1.51,1.512 c -1.223,-1.226 -1.737,-2.389 -0.413,-3.723 0.125,0.556 1.923,2.211 1.923,2.211"
           style="fill:#7b7979;fill-opacity:1;fill-rule:nonzero;stroke:none"
           id="path18046" />
        <path
           inkscape:connector-curvature="0"
           d="m 339.193,340.587 -2.551,-2.551 -1.494,1.496 3.85,3.849 c 1.052,-1.052 1.21,-1.778 0.195,-2.794"
           style="fill:#7b7979;fill-opacity:1;fill-rule:nonzero;stroke:none"
           id="path18048" />
        <path
           inkscape:connector-curvature="0"
           d="m 282.313,409.153 c 0,0 0,-1.666 0,-2.739 l -2.009,0 0,-2.003 4.012,0 0,4.742 -2.003,0"
           style="fill:#7b7979;fill-opacity:1;fill-rule:nonzero;stroke:none"
           id="path18050" />
        <path
           inkscape:connector-curvature="0"
           d="m 276.952,404.197 c 0,1.614 0.973,2.223 2.696,2.223 l 0,-2.01 c -0.662,0 -2.266,0.034 -2.696,-0.213"
           style="fill:#7b7979;fill-opacity:1;fill-rule:nonzero;stroke:none"
           id="path18052" />
        <path
           inkscape:connector-curvature="0"
           d="m 282.116,412.49 c 1.616,0 2.225,-0.974 2.225,-2.695 l -2.011,0 c 0,0.66 0.035,2.266 -0.214,2.695"
           style="fill:#7b7979;fill-opacity:1;fill-rule:nonzero;stroke:none"
           id="path18054" />
        <path
           inkscape:connector-curvature="0"
           d="m 276.929,400.77 c 0,1.618 0.613,2.432 2.719,2.432 l -0.003,-2.244 c -0.661,0 -2.287,0.062 -2.716,-0.188"
           style="fill:#7b7979;fill-opacity:1;fill-rule:nonzero;stroke:none"
           id="path18056" />
        <path
           inkscape:connector-curvature="0"
           d="m 285.347,412.541 c 1.616,0 2.431,-0.614 2.431,-2.72 l -2.245,10e-4 c 0,0.663 0.063,2.289 -0.186,2.719"
           style="fill:#7b7979;fill-opacity:1;fill-rule:nonzero;stroke:none"
           id="path18058" />
        <path
           inkscape:connector-curvature="0"
           d="m 277.232,380.764 c 0,0 1.177,-1.176 1.937,-1.935 -0.631,-0.631 -1.419,-1.419 -1.419,-1.419 l 1.415,-1.418 2.837,2.837 -3.353,3.353 -1.417,-1.418"
           style="fill:#7b7979;fill-opacity:1;fill-rule:nonzero;stroke:none"
           id="path18060" />
        <path
           inkscape:connector-curvature="0"
           d="m 276.946,373.469 c -1.143,1.142 -0.885,2.263 0.333,3.478 l 1.421,-1.421 c -0.467,-0.468 -1.625,-1.577 -1.754,-2.057"
           style="fill:#7b7979;fill-opacity:1;fill-rule:nonzero;stroke:none"
           id="path18062" />
        <path
           inkscape:connector-curvature="0"
           d="m 274.733,382.985 c 1.142,1.143 2.261,0.885 3.479,-0.332 l -1.423,-1.422 c -0.466,0.467 -1.575,1.628 -2.056,1.754"
           style="fill:#7b7979;fill-opacity:1;fill-rule:nonzero;stroke:none"
           id="path18064" />
        <path
           inkscape:connector-curvature="0"
           d="m 279.35,371.03 c -1.142,1.144 -1.283,2.153 0.206,3.641 l 1.585,-1.586 c -0.469,-0.469 -1.662,-1.574 -1.791,-2.055"
           style="fill:#7b7979;fill-opacity:1;fill-rule:nonzero;stroke:none"
           id="path18066" />
        <path
           inkscape:connector-curvature="0"
           d="m 276.98,385.307 c 1.143,1.142 2.154,1.282 3.641,-0.206 l -1.587,-1.585 c -0.467,0.467 -1.571,1.661 -2.054,1.791"
           style="fill:#7b7979;fill-opacity:1;fill-rule:nonzero;stroke:none"
           id="path18068" />
        <path
           inkscape:connector-curvature="0"
           d="m 311.921,408.828 0.881,-0.723 c 0,0 -11.179,-3.934 -15.734,2.849 1.807,1.165 3.894,2.408 6.222,-0.481 2.328,-2.89 3.17,-2.529 8.631,-1.645"
           style="fill:#7b7979;fill-opacity:1;fill-rule:nonzero;stroke:none"
           id="path18070" />
        <path
           inkscape:connector-curvature="0"
           d="m 328.751,406.058 6.155,-5.177 c 0,0 0.093,-0.814 -0.417,-1.324 -0.513,-0.511 -1.428,-0.558 -1.428,-0.558 0,0 -3.087,2.612 -3.404,2.881 -1.833,1.554 -1.345,3.389 -0.906,4.178"
           style="fill:#7b7979;fill-opacity:1;fill-rule:nonzero;stroke:none"
           id="path18072" />
        <path
           inkscape:connector-curvature="0"
           d="m 315.395,404.612 c 3.402,-3.875 -1.186,-6.361 -0.474,-10.471 l 1.217,1.318 c 0.202,3.857 3.29,5.171 -0.161,9.789 0.583,0.503 0.77,1.68 0.618,2.036 1.929,-0.356 3.857,-2.536 3.857,-4.618 0,-2.08 -0.509,-2.639 -1.218,-4.314 0.811,0.508 2.231,1.878 2.231,4.162 0,4.922 -4.058,5.835 -5.784,5.835 0.71,-4.365 -5.28,-4.719 -6.952,-4.719 -0.154,0.761 0.1,2.131 0.354,2.945 0,0 0.509,-0.662 0.76,-1.016 2.958,0.697 3.93,1.011 3.93,3.119 0,1.793 -0.164,1.805 -1.29,1.904 -0.71,0.063 -2.232,0.102 -3.045,0 0,0 -0.304,-0.913 -0.762,-1.774 -0.202,0.506 -0.608,2.486 -0.71,4.718 -0.101,2.234 0.813,2.184 1.523,2.335 0.712,0.153 3.298,0.457 5.074,0.71 0,0 0.609,0.814 0.711,1.067 3.756,0 8.732,-0.457 10.353,-0.762 -0.304,-1.015 -0.506,-1.371 -1.471,-2.436 0.051,-1.066 0.608,-1.268 0.608,-9.49 0,-8.223 -8.373,-10.505 -10.809,-16.494 -5.126,9.997 2.792,10.454 -0.914,14.919 0,0 1.852,0.628 2.354,1.237 m -0.019,10.741 0,-1.621 2.232,1.57 -2.232,0.051 z"
           style="fill:#7b7979;fill-opacity:1;fill-rule:nonzero;stroke:none"
           id="path18074" />
        <path
           inkscape:connector-curvature="0"
           d="m 300.756,386.972 -16.281,16.213 -0.013,-0.015 0,0.01 -4.162,0 0,-2.226 2.946,0 14.155,-14.095 -5.072,-5.073 -8.324,0 -2.847,2.847 -1.729,-1.731 3.637,-3.638 0.005,0.005 0,-0.013 10.152,0.003 7.533,7.713 m 0.892,-4.402 c 0.935,-0.935 4.999,-4.999 7.876,-7.876 -2.412,-0.849 -4.891,-2.212 -7.252,-3.597 -4.363,-2.557 -4.391,-5.815 -4.391,-7.466 l 0,-8.254 -5.629,-5.725 -5.637,0 0,-2.336 6.643,0.023 6.867,6.984 2.822,0 0,4.993 c 0,2.74 0.17,3.057 2.179,5.064 l 9.076,9.108 c 0.009,0.007 0,0 0,0 l -12.554,12.543 -7.881,-7.88 -10.666,0 -0.003,0.005 -0.004,-0.005 -0.005,0 0,-0.005 -3.042,-3.042 1.572,-1.574 2.092,2.092 10.953,0.003 6.984,6.945 z m -16.268,21.395 18.942,-18.871 1.73,1.734 -0.014,0.015 c 2.837,2.839 1.941,3.239 1.238,6.105 -0.688,2.804 0.609,5.185 1.164,5.687 l 1.083,0.078 c -2.776,-4.654 -0.317,-6.321 -0.449,-9.019 l 2.275,2.274 c -1.349,6.614 2.989,7.778 1.217,10.132 -0.425,-0.477 -1.402,-0.451 -5.608,-0.873 -5.546,-0.558 -6.349,-3.757 -6.349,-4.973 0,-1.084 0.119,-1.998 0.238,-2.512 l 3.121,-3.122 c -1.586,7.089 1.377,7.538 2.328,7.776 -1.667,-1.744 -1.984,-3.28 -1.667,-5.236 0.588,-3.61 0.559,-3.49 -0.502,-4.416 l -16.302,16.241 0,4.126 -2.449,0 0,-5.146 0.007,0 -0.003,0 z m 49.529,-42.506 -8.651,0.008 -11.174,11.123 -9.094,-9.074 c -1.139,-1.096 -1.827,-1.758 -1.827,-3.614 0,-1.048 0.018,-4.431 0.029,-6.824 l -3.628,0 -9.812,-9.814 1.783,-1.78 c 0,0 8.391,8.391 9.072,9.073 l 5.046,0.017 c 0,0.076 -0.041,7.667 -0.041,9.328 0,0.814 0.061,0.873 1.074,1.848 l 7.392,7.375 10.15,-10.096 7.233,-0.01 0,-10.839 -4.435,0 0,-2.449 6.888,0 -0.005,15.728 z m -0.584,3.591 0,0 -9.633,9.635 c 3.425,0.183 7.483,1.618 7.483,5.06 0,3.628 -1.555,4.301 -3.732,5.597 0.052,0.467 0.468,0.776 1.089,1.036 0.622,0.261 4.561,1.867 7.204,2.903 2.643,1.036 2.177,2.954 1.917,3.939 -0.157,-0.467 -1.192,-1.037 -2.02,-1.347 -0.829,-0.312 -8.086,-3.266 -9.018,-3.628 -0.935,-0.364 -1.142,-0.829 -1.504,-1.763 0,0 -0.649,0.337 -0.882,0.571 0,1.14 1.193,1.813 2.184,2.177 0.992,0.362 6.565,2.67 9.53,3.781 2.073,0.779 2.178,2.645 1.607,4.305 -0.208,-0.572 -1.452,-1.608 -2.333,-1.972 -0.793,-0.326 -6.789,-2.798 -9.381,-3.678 -2.592,-0.883 -2.901,-1.919 -3.368,-3.421 -1.555,2.124 0.881,3.628 2.074,4.042 1.19,0.415 4.352,1.555 8.862,3.369 4.509,1.814 4.404,4.302 4.404,6.219 l 0,6.738 c 0,2.798 -2.123,5.753 -5.192,5.753 -3.41,0 -5.224,-2.593 -5.224,-4.511 0,-2.331 1.554,-3.435 1.554,-3.435 l 5.131,-4.441 0,3.316 c -2.378,2.379 -3.991,2.904 -3.991,4.613 0,0.674 0.778,1.919 2.282,1.919 2.173,0 2.849,-2.126 2.849,-2.8 0,-0.881 -0.052,-5.65 -0.052,-7.878 0,-2.228 -1.709,-2.797 -2.549,-3.161 -0.838,-0.363 -7.557,-3.058 -8.747,-3.577 -1.194,-0.516 -4.562,-1.191 -4.562,-4.715 0,-5.857 9.432,-5.132 9.068,-9.744 -0.229,-2.913 -4.151,-3.143 -6.707,-3.241 l -5.976,5.974 c -2.23,2.126 -4.235,5.878 -4.973,8.169 -0.708,-0.707 -6.569,-6.574 -6.569,-6.574 l 21.639,-21.659 9.253,-0.019 0,-17.362 -3.285,-3.306 1.58,-1.568 4.153,4.181 0,20.521 -4.165,-0.018 z"
           style="fill:#7b7979;fill-opacity:1;fill-rule:nonzero;stroke:none"
           id="path18076" />
        <path
           inkscape:connector-curvature="0"
           d="m 379.3,414.397 -29.775,0 0,-4.626 29.775,0 0,4.626 z"
           style="fill:#fddd04;fill-opacity:1;fill-rule:nonzero;stroke:none"
           id="path18078" />
        <path
           inkscape:connector-curvature="0"
           d="m 379.615,363.8 -30.312,0 0,-4.627 30.312,0 0,4.627 z"
           style="fill:#fddd04;fill-opacity:1;fill-rule:nonzero;stroke:none"
           id="path18080" />
        <path
           inkscape:connector-curvature="0"
           d="m 379.522,397.585 -30.311,0 0,-4.626 30.311,0 0,4.626 z"
           style="fill:#fddd04;fill-opacity:1;fill-rule:nonzero;stroke:none"
           id="path18082" />
        <path
           inkscape:connector-curvature="0"
           d="m 379.615,380.667 -30.312,0 0,-4.627 30.312,0 0,4.627 z"
           style="fill:#fddd04;fill-opacity:1;fill-rule:nonzero;stroke:none"
           id="path18084" />
        <path
           inkscape:connector-curvature="0"
           d="m 379.346,347.302 -30.043,0 0,-4.626 30.043,0 0,4.626 z"
           style="fill:#fddd04;fill-opacity:1;fill-rule:nonzero;stroke:none"
           id="path18086" />
      </g>
    </g>
  </g>
</svg>
