<?xml version="1.0" standalone="no"?>
<!DOCTYPE svg PUBLIC "-//W3C//DTD SVG 1.1//EN" "http://www.w3.org/Graphics/SVG/1.1/DTD/svg11.dtd" >
<svg xmlns="http://www.w3.org/2000/svg">
<metadata>
This is a custom SVG webfont generated by Font Squirrel.
Copyright   : Cimatics was designed by Ludi and Ivan OSP July 2009 httpospublishconstantvzworgIt is based on URW Gothic LCopyright URW Copyright 1999 by URW Design  Development Cyrillic glyphs added by Valek Filippov C 20012005
Designer    : Ludi and Ivan
Foundry     : OSP
</metadata>
<defs>
<font id="CimaticsDust" horiz-adv-x="1134" >
<font-face units-per-em="2048" ascent="1638" descent="-410" />
<missing-glyph horiz-adv-x="567" />
<glyph unicode=" " horiz-adv-x="567" d="M334 -180q0 6 6 12q2 0 4 4l6 12q2 2 8 5q-4 6 -8 20q-4 12 -6 16q-4 6 -4 13q0 2 4 6q2 4 6 4q2 0 4 -2q6 0 8 -4q8 -12 19 -35l4 -12q2 -4 4 -6q2 2 2 8t2 10q0 2 2 18v7v2v2q0 4 4 8t9 4q6 0 10 -6q2 -4 2 -6v-25v-4v-37v-8v-2v-14v-11v-14q0 -4 -2 -21v-18v-16h-66 v22v6q-2 6 -6 15q-6 10 -6 14q0 10 -2 20q-4 9 -4 13zM342 -180q10 -8 14 -17h2q2 0 4 2v2q0 2 -2 5q0 2 -2 2l-14 12q-2 -2 -2 -6zM344 -193v-2q2 -4 2 -12q0 -6 2 -8l10 -27v-2v-18h54l-2 20q0 8 2 14.5t2 12.5v8v14q0 10 -2 19v10v2l2 39v2v6l-2 13q0 8 -4 8t-5 -10 l-2 -13v-10l-4 -23q-2 -4 -4 -4l-6 -2h-4q0 2 -6 15l-2 4q-4 14 -15 31q-2 6 -4 8t-4 2t-4 -2v-2q0 -4 4 -11q0 -2 4 -8l11 -31l16 -12q12 -8 23 -20v-2q0 -2 -3 -2q-4 0 -6 2v2q-6 6 -20 16l-6 4l-6 4q-2 2 -7 2h-2v-4q0 -2 6 -6t7 -6q2 -2 8 -6q6 -8 6 -12q0 -6 -4 -13 q-2 -6 -2 -10q0 -6 8 -12q2 -4 4 -6q6 -4 8 -7v-2q0 -2 -2 -2q-16 6 -20 19l-2 2q-2 4 -2 6v10q2 0 1 2t-3 2q-4 -2 -9 -2h-4q-2 0 -4 2q-6 8 -8 8zM350 -168l10 -10q6 -6 9 -12q2 -2 2 -5l2 -2q2 0 2 2v5q0 2 -2 4v2l-21 18z" />
<glyph unicode="!" horiz-adv-x="604" d="M227 0v258h152v-258h-152zM227 403v1110h152v-1110h-152z" />
<glyph unicode="&#x22;" horiz-adv-x="632" d="M152 1051v462h102v-462h-102zM383 1051v462h102v-462h-102z" />
<glyph unicode="#" d="M10 485v125h228l59 318h-254v125h276l87 460h131l-84 -460h333l82 460h138l-84 -460h202v-125h-225l-57 -318h252v-125h-277l-88 -485h-135l88 485h-336l-92 -485h-133l92 485h-203zM371 610h334l59 318h-334z" />
<glyph unicode="$" d="M154 467h141q8 -133 79.5 -208t192.5 -75q115 0 188.5 78t73.5 197q0 125 -86 198q-57 47 -190 86q-115 35 -171 67t-97 83q-80 96 -80 237q0 139 80 236.5t217 124.5v168h135v-168q152 -23 239 -121t93 -250h-144q-6 115 -68.5 178.5t-169 63.5t-169 -65.5t-62.5 -178.5 q0 -94 52.5 -144t197.5 -97q190 -61 262 -134q113 -106 113 -280q0 -162 -96.5 -274.5t-247.5 -129.5v-174h-135v174q-176 33 -265 137.5t-83 270.5z" />
<glyph unicode="%" horiz-adv-x="1587" d="M27 1174q0 152 105.5 256t256.5 104q145 0 250.5 -106.5t105.5 -253.5q0 -150 -105 -255.5t-255 -105.5q-147 0 -252.5 105.5t-105.5 255.5zM162 1174q0 -92 65.5 -159t157.5 -67q90 0 155.5 65.5t65.5 160.5q0 92 -64.5 158.5t-154.5 66.5q-94 0 -159.5 -65.5 t-65.5 -159.5zM373 0l680 1513h151l-684 -1513h-147zM821 332q0 152 105.5 256t257.5 104q145 0 250.5 -106.5t105.5 -251.5q0 -150 -105.5 -255.5t-254.5 -105.5q-147 0 -253 106t-106 253zM958 332q0 -92 66 -157.5t156 -65.5t155.5 65.5t65.5 157.5t-64.5 158.5 t-154.5 66.5q-94 0 -159 -65.5t-65 -159.5z" />
<glyph unicode="&#x26;" horiz-adv-x="1550" d="M117 436q0 205 166 338q74 57 182 113q-94 98 -131 168.5t-37 148.5q0 141 104.5 238.5t253.5 97.5q158 0 261.5 -98.5t103.5 -247.5q0 -160 -137 -262q-39 -31 -158 -90l287 -283l221 426h168l-279 -534l383 -373l-104 -105l-350 340q-90 -178 -199 -259t-258 -81 q-209 0 -342 133q-135 140 -135 330zM266 420q0 -129 92.5 -219t225.5 -90q109 0 190.5 71.5t163.5 239.5l-365 356q-168 -82 -237.5 -162.5t-69.5 -195.5zM449 1208q0 -106 165 -258q135 51 199 113.5t64 142.5q0 84 -62.5 140.5t-155.5 56.5q-88 0 -149 -56.5t-61 -138.5z " />
<glyph unicode="'" horiz-adv-x="405" d="M152 1051v462h102v-462h-102z" />
<glyph unicode="(" horiz-adv-x="755" d="M117 633q0 195 78.5 384t216.5 326q111 113 274 170v-129q-170 -102 -264 -256q-154 -236 -154 -495q0 -301 195 -561q82 -106 223 -195v-133q-119 43 -205 111.5t-168 183.5q-196 270 -196 594z" />
<glyph unicode=")" horiz-adv-x="755" d="M70 -125q166 96 264 254q154 240 153 498q0 299 -194 559q-86 113 -223 194v133q117 -41 203.5 -109.5t168.5 -184.5q197 -270 197 -594q0 -193 -78 -382.5t-217 -328.5q-115 -115 -274 -170v131z" />
<glyph unicode="*" horiz-adv-x="870" d="M131 1194v106l215 -6l-115 189l101 57l108 -184l107 184l96 -57l-117 -189l211 6v-106l-209 4l113 -184l-96 -56l-109 187l-108 -187l-99 58l117 182z" />
<glyph unicode="+" horiz-adv-x="1241" d="M104 547v151h439v443h157v-443h437v-151h-437v-447h-157v447h-439z" />
<glyph unicode="," horiz-adv-x="567" d="M186 -137l181 395h151l-180 -395h-152z" />
<glyph unicode="-" horiz-adv-x="679" d="M63 477v129h555v-129h-555z" />
<glyph unicode="." horiz-adv-x="567" d="M207 0v258h151v-258h-151z" />
<glyph unicode="/" horiz-adv-x="894" d="M82 -262l588 1775h143l-594 -1775h-137z" />
<glyph unicode="0" d="M61 551v430q0 254 109 389q135 170 397 170q281 0 420 -203q49 -70 68.5 -148.5t19.5 -207.5v-430q0 -256 -90 -389q-129 -188 -405 -189q-311 0 -445 228q-74 127 -74 350zM211 575q0 -225 68 -321q96 -143 294 -143q219 0 304 163q49 94 49 301v371q0 227 -70 322 q-100 135 -287 135q-100 0 -180 -42t-125 -118q-53 -92 -53 -297v-371z" />
<glyph unicode="1" d="M317 1376v137h408v-1513h-150v1376h-258z" />
<glyph unicode="2" d="M68 0v137l530 512q135 129 180 185q106 125 107 253q0 137 -92.5 226.5t-235.5 89.5q-96 0 -172 -45t-117 -125q-39 -80 -39 -209h-149q0 133 33 221q51 137 169.5 216t276.5 79q207 0 342 -130t135 -331q0 -121 -59 -223t-219 -254l-486 -465h756v-137h-960z" />
<glyph unicode="3" d="M68 473h149q10 -141 59 -215q100 -147 277 -147q139 0 233.5 98t94.5 242q0 119 -71 211t-185 120q-49 10 -176 13v135l34 -2q18 -2 39 -2q119 0 188.5 64.5t69.5 172.5q0 106 -63.5 173t-165.5 67q-111 0 -171.5 -69.5t-62.5 -196.5h-149q6 186 109.5 294.5t273.5 108.5 q168 0 274.5 -107.5t106.5 -275.5q0 -182 -156 -291q256 -129 256 -407q0 -205 -137 -345.5t-338 -140.5q-135 0 -247.5 63.5t-176.5 174.5q-59 104 -65 262z" />
<glyph unicode="4" d="M25 276v138l737 1099h178v-1099h139v-138h-139v-276h-149v276h-766zM199 414h592v891z" />
<glyph unicode="5" d="M53 475h148q20 -162 121.5 -263t244.5 -101q152 0 257.5 113.5t105.5 279.5t-104.5 277.5t-258.5 111.5q-176 0 -313 -170l-117 45l135 745h682v-137h-561l-74 -418q129 72 261 72q211 0 356 -152.5t145 -373.5q0 -223 -147.5 -377t-360.5 -154q-152 0 -277.5 81 t-191.5 220q-33 74 -51 201z" />
<glyph unicode="6" d="M51 500q0 113 36 204t144 252l375 557h174l-356 -526q94 43 178 43q201 0 341 -151.5t140 -368.5q0 -231 -144 -384t-366 -153q-223 0 -372.5 151t-149.5 376zM203 508q0 -172 105.5 -284.5t264.5 -112.5q156 0 257.5 111.5t101.5 281.5t-102.5 279.5t-260.5 109.5 q-156 0 -261 -110.5t-105 -274.5z" />
<glyph unicode="7" d="M131 1376v137h873v-137l-619 -1376h-160l623 1376h-717z" />
<glyph unicode="8" d="M86 440q0 283 256 406q-70 41 -98 78q-78 90 -78 225q0 168 115.5 279.5t287.5 111.5q174 0 287 -110.5t113 -280.5q0 -219 -181 -303q260 -115 261 -400q0 -207 -134.5 -340t-341.5 -133q-209 0 -348 133t-139 334zM238 442q0 -145 93 -238t240 -93q143 0 234.5 93 t91.5 238q0 143 -92 234.5t-236 91.5q-145 0 -238 -91.5t-93 -234.5zM317 1161q0 -109 73 -180.5t185 -71.5q102 0 172 71t70 177.5t-70.5 176t-179 69.5t-179.5 -68t-71 -174z" />
<glyph unicode="9" d="M51 1004q0 231 144.5 383.5t365.5 152.5q223 0 372.5 -150.5t149.5 -375.5q0 -113 -35.5 -204t-144.5 -253l-375 -557h-174l357 526q-94 -43 -179 -43q-201 0 -341 152t-140 369zM203 1010q0 -170 102.5 -279.5t259.5 -109.5q156 0 261.5 110.5t105.5 274.5 q0 172 -105.5 284.5t-265.5 112.5q-156 0 -257 -110.5t-101 -282.5z" />
<glyph unicode=":" horiz-adv-x="567" d="M207 0v258h151v-258h-151zM207 780v258h151v-258h-151z" />
<glyph unicode=";" horiz-adv-x="567" d="M84 -137l180 395h152l-180 -395h-152zM256 780v258h152v-258h-152z" />
<glyph unicode="&#x3c;" horiz-adv-x="1241" d="M100 549v133l1043 475v-160l-821 -383l821 -378v-160z" />
<glyph unicode="=" horiz-adv-x="1241" d="M104 336v151h1033v-151h-1033zM104 741v152h1033v-152h-1033z" />
<glyph unicode="&#x3e;" horiz-adv-x="1241" d="M98 76v160l824 382l-824 379v160l1043 -473v-133z" />
<glyph unicode="?" horiz-adv-x="1210" d="M133 1040q6 180 74 289q135 211 405 211q201 0 332 -126t131 -318q0 -100 -41 -178t-143 -170q-115 -100 -161 -178t-48 -175h-143q2 125 49 217.5t164 200.5q104 98 138 154.5t34 132.5q0 131 -88 217t-224 86q-92 0 -168.5 -42t-117.5 -116q-39 -68 -50 -205h-143z M535 0v258h151v-258h-151z" />
<glyph unicode="@" horiz-adv-x="1775" d="M145 752q0 328 228.5 558t554.5 230q281 0 483 -174q221 -186 221 -479q0 -289 -209 -481q-129 -121 -268 -121q-72 0 -114 26.5t-66 89.5q-106 -106 -244 -106q-125 0 -203.5 85t-78.5 218q0 236 154.5 426t344.5 190q96 0 164 -45q41 -25 72 -96l35 103h124l-190 -570 q-41 -125 -41 -157q0 -25 19.5 -41.5t50.5 -16.5q86 0 182 101q166 162 166 397q0 231 -173 389t-431 158q-279 0 -476.5 -201t-197.5 -481q0 -283 196.5 -480.5t479 -197.5t479.5 207l82 -68q-94 -113 -246.5 -177.5t-318.5 -64.5q-326 0 -552.5 226.5t-226.5 552.5z M596 602q0 -84 45 -136t119 -52q133 0 235 182q45 82 78 184.5t33 159.5q0 76 -41 120t-111 44q-135 0 -246.5 -157t-111.5 -345z" />
<glyph unicode="A" horiz-adv-x="1515" d="M23 0l649 1513h170l651 -1513h-166l-219 510h-705l-221 -510h-159zM461 647h588l-291 694zM1143 1886l37 10l-27 27l35 -8l-8 35l26 -27l11 37l10 -37l28 27l-10 -35l35 8l-25 -27l35 -10l-35 -10l25 -29l-35 11l10 -35l-28 24l-10 -35l-11 35l-26 -24l8 35l-35 -11 l27 29zM3752 -358l37 10l-27 26l37 -8l-10 35l28 -27l9 37l10 -37l29 27l-11 -35l37 8l-26 -26l34 -10l-34 -11l26 -26l-37 10l11 -37l-29 27l-10 -37l-9 37l-28 -27l10 37l-37 -10l27 26z" />
<glyph unicode="B" horiz-adv-x="1175" d="M156 0v1513h354q260 0 383 -88q135 -100 135 -305q0 -219 -168 -313q254 -102 254 -373q0 -117 -45 -211t-125 -143q-133 -80 -414 -80h-374zM307 137h207q225 0 328 56q53 29 86 92t33 141q0 184 -142 256q-88 43 -332 43h-180v-588zM307 862h185q180 0 266 39 q117 53 116 217q0 66 -24.5 122t-63.5 83q-78 53 -297 53h-182v-514z" />
<glyph unicode="C" horiz-adv-x="1665" d="M90 752q0 340 223.5 564t560.5 224q236 0 422.5 -112.5t274.5 -307.5h-170q-78 123 -166 178q-152 102 -354 103q-270 0 -453.5 -185.5t-183.5 -457.5q0 -266 188.5 -455.5t450.5 -189.5q217 0 374 125q61 47 152 159h168q-229 -424 -692 -424q-340 0 -567.5 223.5 t-227.5 555.5zM1481 2003q0 8 4 16.5t9 13.5t13.5 8t16.5 3q10 0 18 -3t13.5 -8t8.5 -11.5t4 -12.5t2 -11t1 -9v-4v-121l-78 102q-6 10 -9 19.5t-3 17.5zM1581 1864v121v4q0 4 1 9t2 11t4 12.5t8.5 11.5t13.5 8t18 3q8 0 16.5 -3t13.5 -8t8 -13.5t4 -16.5t-2 -17.5t-9 -19.5 zM4119 -926h14v-14v-14v-15v-14v-14h-14v14v14v15v14v14zM4133 -913h12v-13h-12v13zM4133 -997h12v-15h-12v15zM4145 -899h57v-14h-57v14zM4145 -940h14v-14h-14v14zM4145 -969h14v-14h-14v14zM4145 -1012h57v-14h-57v14zM4159 -983h29v14h14v-14h-14v-14h-29v14zM4188 -940 h14v-14h-14v14zM4202 -913h15v-13h-15v13zM4202 -997h15v-15h-15v15zM4217 -926h14v-14v-14v-15v-14v-14h-14v14v14v15v14v14zM4464 -582q3 8 8 13.5t13 8.5t17 3q10 0 18 -3t13 -8t8.5 -11.5t5.5 -12.5t2 -11v-9v-4v-121l-78 102q-6 10 -9 20q-2 7 -3 13q1 8 5 20z M4559 -612q0 4 1 9t2 11t4 12.5t8 11.5t13.5 8t18.5 3q8 0 9 1t7 -4t16.5 -17.5t10.5 -20.5t-2 -18q-4 -10 -10 -19l-78 -102v121v4zM9851 2396v14v15v14v15v12h14v-12v-15v-14v-15v-14h-14zM9865 2382v14h15v-14h-15zM9865 2466v14h15v-14h-15zM9880 2367v15h55v-15h-55z M9880 2410v15h12v-15h-12zM9880 2439v15h12v-15h-12zM9880 2480v14h55v-14h-55zM9892 2396v14h29v15h14v-15h-14v-14h-29zM9921 2439v15h14v-15h-14zM9935 2382v14h14v-14h-14zM9935 2466v14h14v-14h-14zM9949 2396v14v15v14v15v12h15v-12v-15v-14v-15v-14h-15z" />
<glyph unicode="D" horiz-adv-x="1523" d="M156 0v1513h356q207 0 339 -27.5t239 -90.5q344 -203 344 -643q0 -432 -351 -639q-193 -113 -520 -113h-407zM307 137h211q201 0 328 32t217 103q217 176 217 486q0 170 -71.5 306t-202.5 214q-162 98 -488 98h-211v-1239z" />
<glyph unicode="E" horiz-adv-x="1097" d="M156 0v1513h827v-137h-676v-542h654v-138h-654v-559h676v-137h-827z" />
<glyph unicode="F" horiz-adv-x="993" d="M156 0v1513h768v-137h-617v-547h594v-137h-594v-692h-151z" />
<glyph unicode="G" horiz-adv-x="1785" d="M90 760q0 328 232.5 554t570.5 226q248 0 444.5 -118.5t272.5 -311.5h-170q-78 137 -218.5 214t-316.5 77q-281 0 -471 -186.5t-190 -458.5q0 -270 192.5 -456.5t470.5 -186.5q272 0 453 180q127 127 160 268h-846v137h1028q-16 -258 -199 -469q-225 -256 -590 -256 q-348 0 -585.5 227.5t-237.5 559.5z" />
<glyph unicode="H" horiz-adv-x="1398" d="M156 0v1513h151v-665h785v665h151v-1513h-151v711h-785v-711h-151z" />
<glyph unicode="I" horiz-adv-x="462" d="M156 0v1513h151v-1513h-151zM307 -260l103 -51l-103 -51v102zM377 1942q2 8 6 12t11 4t12.5 -4t5.5 -12h-6q-2 4 -4.5 6t-7.5 2t-7 -2t-2 -6h-8zM395 1905q2 8 6.5 11t11.5 3t11 -3t6 -11h-8q0 4 -2 6t-7 2t-7.5 -2t-4.5 -6h-6zM395 1978q2 8 6.5 12.5t11.5 4.5t11 -4 t6 -13h-8q0 4 -2 6.5t-7 2.5t-7.5 -2.5t-4.5 -6.5h-6zM438 1888q2 8 6.5 12.5t11.5 4.5t12 -4.5t5 -12.5h-6q0 4 -3 6t-8 2t-7.5 -2t-2.5 -6h-8zM438 1995q2 6 6.5 10t11.5 4t12 -4t5 -10h-6q0 4 -3 6t-8 2t-7.5 -2t-2.5 -6h-8zM483 1905q0 8 4.5 11t12.5 3t12 -3t4 -11h-6 q0 4 -3 6t-7 2t-7.5 -2t-3.5 -6h-6zM483 1978q0 8 4.5 12.5t12.5 4.5t12 -4t4 -13h-6q0 4 -3 6.5t-7 2.5t-7.5 -2.5t-3.5 -6.5h-6zM502 1942q0 8 4 12t12 4t12.5 -4t4.5 -12h-7q0 4 -3 6t-7 2t-7 -2t-3 -6h-6zM2085 1667v102l102 -51zM2187 1513v103l103 -51zM2187 1616v102 l103 -51z" />
<glyph unicode="J" horiz-adv-x="987" d="M23 358h149q8 -115 76.5 -181t181.5 -66q250 0 250 362v1040h151v-1040q0 -193 -59 -305q-96 -197 -344 -197q-180 0 -287.5 102.5t-117.5 284.5z" />
<glyph unicode="K" horiz-adv-x="1210" d="M156 0v1513h151v-870l701 870h190l-598 -737l598 -776h-190l-504 655l-197 -241v-414h-151z" />
<glyph unicode="L" horiz-adv-x="946" d="M156 0v1513h151v-1376h627v-137h-778z" />
<glyph unicode="M" horiz-adv-x="1882" d="M156 0v1513h235l551 -1288l549 1288h235v-1513h-151v1348l-569 -1348h-132l-567 1348v-1348h-151zM1141 6v2v4v2v2v2v2v5v2v2h2v2h2v2v4h2h2v2v2v2h2v2v2h2v4v2h2h2v2h2v2v2v2h2v-2h2v2v5h2h2v2v2h2h2h3v4h2h2v2h2h4v2v2h4h4v2v2v2h2h2v-2h2h2v2h2h4v2h2v-2h2h2v-2h2v-2 v-4h-2h-2v2v-4v-2v2h2v-2v-2h2v2h3v2h2h2h2v-2h2h2v-2h-2v-4v-5h2v3v4h2v-2h8h8v-2h2v2h4v-2h-2v-3h2v3h4h5v-3h2v-4v-2h2h2v2v2h2v-2h2v-2h2h2v2h2v-4v-2h2v2h2v2h2v-2h2v-2h-2v-2h2h2v2h2h2v-2v-4h4v4h2v-2v-4h2v2h2v-2v-2h3h2h2h2h2v-2h2v-2v-4h2v-2v-2h2v-2h-2v2h-2h-2 v-2h2h2v-2v-2h-2v-2h2h2v2v4h2v2v2h2v-4v-2h-2v-2h4h2h2v-5h2v-2v-2h-2h-2h-2h-2v-2h-2v2h2v2h-2v-2h-2v-2v-2h2h2v-2h2v-2h-2h-2v-2h2v-2h-2v-2h-6v4h2v-2h2v2v2h-2h-2v2v-2v-2h-2v-4v-4h-2h-2v-2h-2v2v2h-2v2h-3h-2v-2v-2h-2v-2h2h2v-2v-2h-4h-2v2h-2v-2h-2v-2h-4h-2v2h-2 v-2h-2h-4v-2v-2h2v2h2v-2v-2v2h-2v-2h-2v-2h2v-2v-3h-2v3v2h-2v2v2h-2v-2h-2v-4v-5v2v3h-4h-4v-3h-2v-2h-3h-2v2h-2h-2v3h-2v2h-2v2h-2h-2v-2h-2v-2h-2h-2v-3h8v-2h2v-2h-2h-2h-2h2h2v2h-2h-2v-2h-2v2h-2h-2v-2h-2v2h-2v-2h-2v2v5v4h-2h-2v-2h2v-2h-2h-2v-3h2h2v-2h2v-2h-2 h-2v2h-2h-2v2v3h-2v-3h-2v-2h-3v-2h-2v2h-2v-2v2h-4h-4v2v3h-2v2v2h-2h-2v-2v-2h-2v2h-2v2h-2h-2v2v2h-2v-2h-2v2v2h-2h-2v-2v2h-2h-2v2h-2v2h-3v-2h-2v2h-2v2h-2v-2h2v-2h-2v2h-2v2h-2h-2v2h-4h-4v2h-2h-2v2v2h-2h-2v2h-2zM1143 2v2h2v-2h-2zM1186 74h2v2h-2v-2zM1190 68h2 v-2h2h-2v2h-2zM1192 70h2v-2h2v2h2v-2v-2h2v2h2v2v2h2h4v-2h-2h-2v-2h2h4v2v2h-2v2h-2v2h-2v-2h-2h-2v-2h-4h-4v-2zM1194 16h2v2h-2v-2zM1194 76h2h2v2h-2v-2h-2zM1196 27h2v-2v-2h2v-3h-2v-2h2v-2v-2h2v-4h2v-2h2v-2h2h4v-2h-2h2v-2h5h4v-2h2v-2v-2h-2v2v2h-2h-2v-2h2v-2h2 v-2h4h2v-2h2v2h2h2v-2h6h4v2h2h2v-2h4h2v2h2h2v2v2h-2v-2h-2v2h-2v-2h-6h-4v2v2h2h2v-2h2h2v2v2h2v2h2h2v-2h2v-2h3v2v2h-3h3h2v-2v2h2h2h2v2h2v2v2v2h2v-2v-2h2v2h2h2v2h2v2v2h2v-2v-2h2v2v2h2h2h2h2v2h-2v2h-2h-4v3h2h4v2h-2h-2h2v2h-2h-4v4v4h-2h-2v2h-4v4h-2v-2h-2v2v2 h-2h-2v2h-2h-2v2h-2h-3v2h-4h-2v2v2h-2v-2h-6h-6v2h-4h-4v-2v-2h-2v2h-2h-4v-2h-2v-2h-2v2h-3v-2v-2h-2h-2v-2h-2h-2v-2h-2h-2v-2v-2v-2h-2h-2v-4v-2h-2v-2zM1200 76h2h-2zM1202 66zM1204 -18v-2v-3h2v3h2v2h2v2h-2h-2v-2h-2zM1206 82h2v2h-2v-2zM1210 16v2v5v2v4v4h2v2h2v2 v2h3v2h2v2h2v2h4h4v2h4h6v-2h2v-2h2h2h2v-2h2v-2h2v-2v-2h-4h-4v-2h-2v-4v-2v-2h4h2v2h2h2v2h2v2v2v-2v-2h2v-4v-5h-2v-2v-2v-2v-2h-2v-2v-2h-2v-4h-4v-2h-4h-2v-2h-2v2h-4h-4v-2h-2v-2h2v2h2v-2h-2v-2h-2v2h-2v2v4h-2h-2v2h-2v2h-2v2h-3v2v2h-2v2h-2zM1210 63v3v-3z M1210 68h2v2h-2v-2zM1210 86v2h2h2v2h3h4v-2v2h2v-2h-2v-2v2h-2h-2v-2h-3h-2h-2zM1214 53h3v2h-3v-2zM1214 70h3h2v2h-2h-3v-2zM1217 -25h2v-2h-2v2zM1219 53h2v2h-2v-2zM1221 55h2v-2h2v2v2v2h-2v-2h-2v-2zM1221 70h2v2h-2v2v-2v-2zM1227 53h4h2v4v2h-2h-2v-2h-2v-2v-2z M1227 86h2h-2zM1229 66zM1231 -20v-3h2v3h-2zM1235 -2h2v-2h-2v2zM1235 -27h2v-2h-2v2zM1235 63h2h2v-2h2v2h-2v3h2h-2h-2h-2v-3zM1237 -16v-2h2v2h-2zM1239 53h2v2h-2v-2zM1241 57h2v-2v-2h2h4v2v2h-2h-2h-4zM1241 59h2v2h-2v-2zM1241 63h2v3h-2v-3zM1243 -14v-2h2v2h-2z M1245 -18h2v-2h-2v2zM1251 -16v-2h2v2h-2zM1251 53h2h2h2h3v-2h2v2v-2h2v-2h2v2h2h2v-2v2v2h-2h-2h-2h-2v2h-2v2h-3v-2h-2h-2v2h-2v-2v-2zM1255 -27h2h3h-3h-2zM1257 -8v-2h3v2h-3zM1260 -4v-2h2v2h-2zM1260 -18v-2h2v2h-2zM1262 0v-2h2v2h-2zM1262 -27h2h-2zM1266 -14v-2 v-2h2v2v2h-2zM1270 45h2v-2h2h2h2v-2v-2h2v2h2v2h-2v2h-2v2h-2v-2h-2v2h-2h-2v-2zM1272 53h2v2h-2v-2zM1274 0h2v2h2v2h-4v-4zM1278 8h2v2h-2v-2zM1280 2h2h2v2h-2h-2v-2zM1280 49v2v2v-2v-2zM1280 59v2h2v-2h-2zM1282 -12h4h2v-2h-2v-2h-2h-2v2v2zM1282 35h2v2h2v-2h2h2v4 h-4v2h-2v-2h-2v-2v-2zM1284 4h2h2v2h-2h-2v-2zM1286 10h2h2v-2v-4h2v2v2h-2v2h2h2v-2v-2h2v2v2h-2v2v2h2v2h-2h-4v-2h2v-2h-2v-2v2h-2h-2v-2zM1288 45h2v2h-2v-2zM1288 49h2v2h-2v-2zM1290 0v-2h2v2h-2zM1290 -8h2v-2h-2v2zM1290 43h2v2h-2v-2zM1294 27h2v2h-2v-2zM1296 39 h2v2h-2v-2zM1300 0h3v-2h-3v2zM1300 4h3v2h-3v-2zM1300 8h3v2v2h-3v-2v-2zM1300 35h3h-3zM1300 49v2h3v-2h-3zM1303 35h2v2h2v4v2h-2v-2h-2v-2v-4zM1305 2h2h2v2h-2h-2v-2zM1305 29h2v2h-2v-2zM1307 25h2h2h-2h-2zM1309 12h2h2v2h-2h-2v-2zM1309 33h2h2v2h-2h-2v-2zM1309 39 h2v2h-2v-2zM1321 29v2h2v2h2v-2h-2v-2h-2zM1321 35h2h-2zM1323 14v2h2v-2h-2zM1323 18h2v2v3h-2v-3v-2zM1327 12v2h2v-2h-2zM1333 16v2h2v-2h-2zM5573 2347v2v4v2v2v2v2v4v2v3h2v2h2v2v4h2h2v2v2v2h2v2v2h2v4v2h2h2v2h2v2v2v2h2v-2h2v2v2h2v2h2v2v2h2h2h2v3h2h2v2v2h3h4v2v2 h4h4v2v2v2h2h2v-2h2h2v2h2h4v2h2v-2h2h2v-2h2v-4v-2h-2h-2v2v-4v-2v2h2v-2v-2h2h2v4h2h2h3v-2h2h2v-2h-2v-5v-4h2v2v4h2v-2h8h8v-2v-2h2v4h4v-2v-2h-2h2h4h4h2v-4v-2h2h3v2v2h2v-2h2v-2h2h2v2h2v-4v-2h2v2h2v2h2v-2h2v-2h-2v-2h2h2v2h2h2v-2v-4h4v4h2v-2v-4h2v2h2v-2v-2h2h2 h2h3h2v-2h2v-2v-4h2v-2v-2h2v-2h-2v2h-2h-2v-2h2h2v-3v-2h-2v-2h2h2v2v5h2v2v2h2v-4v-3h-2v-2h4h2h2v-4h2v-2v-4h-2v2h-2h-2v-2h-2h-2h2v4h-2v-2h-2v-2v-2h2h2v-2h2v-2h-2h-2v-2h2v-2h-2v-2h-6v4h2v-2h2v2v2h-2h-2v2v-2v-2h-2v-4v-4h-2h-3v-2h-2v2v2h-2v2h-2h-2v-2v-2h-2v-2 h2h2v-2v-2h-4h-2v2h-2v-2h-2v-2h-4h-2v2h-2v-2h-2h-4v-2v-2h2v2h2v-2v-3v3h-2v-3h-2v-2h2v-2v-2h-2v2v2h-2v2v3h-2v-3h-2v-4v-4v2v2h-4h-5v-2h-2v-2h-2h-2v2h-2h-2v2h-2v2h-2v2h-2h-2v-2h-2v-2h-2h-2v-2h8v-2h2v-2h-2h-2h-2h2h2v2h-2h-2v-2h-2v2h-2h-2v-2h-2v2h-2v-2h-2v2v4 v4h-2h-2v-2h2v-2h-2h-2v-2h2h2v-2h2v-2h-2h-2v2h-2h-3v2v2h-2v-2h-2v-2h-2v-2h-2v2h-2v-2v2h-4h-4v2v2h-2v2v2h-2h-2v-2v-2h-2v2h-2v2h-2h-2v3v2h-2v-2h-2v2v2h-2h-2v-2v2h-3h-2v2h-2v2h-2v-2h-2v2h-2v2h-2v-2h2v-2h-2v2h-2v2h-2h-2v2h-4h-4v2h-2h-2v2h-2v2h-2v2h-2z M5575 2343h2h-2zM5618 2415h2v2h-2v-2zM5622 2408h2v-2v-2h2v2h-2v2h-2zM5624 2410h2v-2h2v2h2v-2v-2h2v2h2v2v3h2h4v-3h-2h-2v-2h2h4v2v3h-2v2h-2v2h-2v-2h-2h-2v-2h-4h-4v-3zM5626 2357h2v2h-2v-2zM5626 2417h2h2v2h-2v-2h-2zM5628 2367h2v-2v-2h2v-2h-2v-2h2v-2v-2h2v-4 h2v-2h2v-2h2h4v-2h-2v-2h2h4h4v-2h3v-2v-2h-3v2v2h-2h-2v-2h2v-2h2v-2h5h2v-2h2v2h2h2v-2h6h4v2h2h2v-2h4h2v2h2h2v2v2h-2v-2h-2v2h-2v-2h-6h-4v2v2h2h2v-2h2h2v2v2h2h2v2h2v-2h2v-2h2v2h-2v2h2h2v-2h2v2h3h2v2h2v2v2v2h2v-2v-2h2v2h2h2v2h2v2h2v-2h2v2h2h2v2h2h2v2h-2v2h-2 h-4v2h2h4v2h-2h-2h2v2h-2h-4v5v4h-2h-2v2h-4v4h-2v-2h-2v2v2h-2h-2v2h-3h-2v2h-2h-2v2h-4h-2v2v2h-2v-2h-6h-6v2h-4h-4v-2v-2h-2v2h-2h-5v-2h-2v-2h-2v2h-2v-2v-2h-2h-2v-2h-2h-2v-2h-2h-2v-2v-2v-2h-2h-2v-4v-2h-2v-3zM5632 2417h2h-2zM5634 2404v2v-2zM5636 2318h2v2h2v2 h2v2h-2h-2v-2h-2v-2v-2zM5638 2423h2v2h-2v-2zM5642 2357v2v4v2v5v4h2v2h2v2v2h2v2h2v2h2v2h5h4v2h4h6v-2h2v-2h2h2h2v-2h2v-2h2v-2v-2h-4h-4v-2h-2v-4v-3v-2h4h2v2h2h2v3h2v2v2v-2v-2h2v-5v-4h-2v-2v-4v-2h-2v-2v-2h-2v-4h-4v-2h-4h-2v-2h-2v2h-4h-4v-2h-2v-2h2v2h2v-2h-2 v-2h-2v2h-2v2v2h-2v2h-3v2h-2v2h-2v2h-2v2v2h-2v2h-2zM5642 2404zM5642 2408h2v2h-2v-2zM5642 2427v2h2h2v2h2h4v-2v2h3v-2h-3v-2v2h-2h-2v-2h-2h-2h-2zM5646 2394h2v2h-2v-2zM5646 2410h2h2v3h-2h-2v-3zM5648 2314v2h2v-2h-2zM5650 2394h2v2h-2v-2zM5652 2396h3v-2h2v2v2v2 h-2v-2h-3v-2zM5652 2410h3v3h-3v2v-2v-3zM5659 2394h4h2v4v2h-2h-2v-2h-2v-2v-2zM5659 2427h2h-2zM5661 2404v2v-2zM5663 2318h2v2h-2v-2zM5667 2312v2h2v-2h-2zM5667 2337v2h2v-2h-2zM5667 2404h2h2v-2h2v2h-2h2v2h-2h-2v-2h-2zM5669 2322h2v2h-2v-2zM5671 2394h2v2h-2v-2z M5673 2396h2v-2h2h4v2v2h-2h-2h-4v-2zM5673 2400h2v2h-2v-2zM5673 2404h2h-2zM5675 2324h2v3h-2v-3zM5677 2320v2h2v-2h-2zM5683 2322h2v2h-2v-2zM5683 2394h2h2h2h2v-2h2v2v-2h2v-2h3v2h2h2v-2v2v2h-2h-2h-3h-2v2h-2v2h-2v-2h-2h-2v2h-2v-2v-2zM5687 2314h2h2h-2h-2z M5689 2331h2v2h-2v-2zM5691 2320h2v2h-2v-2zM5691 2335h2v2h-2v-2zM5693 2314h2h-2zM5693 2339h2v2h-2v-2zM5698 2322h2v2v3h-2v-3v-2zM5702 2386h2v-2h2h2h2v-2v-2h2v2h2v2h-2v2h-2v2h-2v-2h-2v2h-2h-2v-2zM5704 2394h2v2h-2v-2zM5706 2341h2v2h2h-4v-2zM5710 2349h2v2h-2 v-2zM5712 2343h2h2h-2h-2zM5712 2390v2v2v-2v-2zM5712 2400v2h2v-2h-2zM5714 2324v3v2h4h2v-2h-2v-3h-2h-2zM5714 2376h2v2h2v-2h2h2v4h-4v2h-2v-2h-2v-2v-2zM5716 2345h2h2v2h-2h-2v-2zM5718 2351h2h2v-2v-4h2v2v2h-2v2h2h2v-2v-2h2v2v2h-2v2v2h2h-2h-4h2v-2h-2v-2v2h-2h-2 v-2zM5720 2386h2v2h-2v-2zM5720 2390h2v2h-2v-2zM5722 2331v2h2v-2h-2zM5722 2339h2v2h-2v-2zM5722 2384h2v2h-2v-2zM5726 2367h2v3h-2v-3zM5728 2380h2v2h-2v-2zM5732 2339v2h2v-2h-2zM5732 2343h2v4h-2v-2v-2zM5732 2349h2v2v2h-2v-2v-2zM5732 2376h2h-2zM5732 2390v2h2 v-2h-2zM5734 2376h2v2h2v2v4h-2v-2h-2v-2v-4zM5736 2343h2h3h-3h-2zM5736 2370h2v2h-2v-2zM5738 2365h3h2h-2h-3zM5741 2353h2h2v2h-2h-2v-2zM5741 2374h2h2v2h-2h-2v-2zM5741 2380h2v2h-2v-2zM5753 2370v2h2v2h2v-2h-2v-2h-2zM5753 2376h2h-2zM5755 2355h2h-2zM5755 2359h2 v2v2h-2v-2v-2zM5759 2353v2h2v-2h-2zM5765 2357v2h2v-2h-2z" />
<glyph unicode="N" horiz-adv-x="1515" d="M156 0v1513h204l848 -1255v1255h152v-1513h-152l-901 1331v-1331h-151z" />
<glyph unicode="O" horiz-adv-x="1779" d="M90 766q0 315 237.5 544.5t563.5 229.5q330 0 564.5 -230.5t234.5 -553.5q0 -322 -235.5 -552.5t-563.5 -230.5q-334 0 -567.5 231.5t-233.5 561.5zM244 762q0 -268 189.5 -458.5t457.5 -190.5q264 0 454.5 189.5t190.5 451.5q0 266 -190.5 456.5t-454.5 190.5 q-262 0 -454.5 -189.5t-192.5 -449.5z" />
<glyph unicode="P" horiz-adv-x="1212" d="M156 0v1513h417q272 0 404 -79q180 -106 180 -379q0 -238 -151 -348q-129 -94 -408 -95h-291v-612h-151zM307 750h281q203 0 291 51q125 70 125 254q0 207 -138 276q-90 45 -344 45h-215v-626z" />
<glyph unicode="Q" horiz-adv-x="1783" d="M90 756q0 336 234.5 560t584.5 224q348 0 578.5 -222t230.5 -558q0 -354 -252 -570q109 -78 197 -77q18 0 31 2v-142q-106 2 -180 31t-152 100q-193 -131 -455 -131q-340 0 -578.5 228.5t-238.5 554.5zM244 743q0 -72 22 -172q160 53 324 54q322 0 575 -181 q111 -82 193 -153q207 199 207 469q0 272 -189.5 456.5t-470 184.5t-471 -189.5t-190.5 -468.5zM330 442q59 -109 176 -196q174 -133 401 -133q182 0 332 92q-164 150 -321.5 215t-350.5 65q-128 0 -237 -43z" />
<glyph unicode="R" horiz-adv-x="1243" d="M156 0v1513h374q289 0 424 -73q227 -123 228 -414q0 -201 -115 -319.5t-332 -141.5l424 -565h-188l-510 686q233 0 338 27q229 61 229 319q0 213 -160 289q-117 55 -348 55h-213v-1376h-151z" />
<glyph unicode="S" horiz-adv-x="1019" d="M45 424h162q14 -127 72 -199q90 -113 243 -112q129 0 214 85t85 216q0 143 -104 217q-70 49 -234 100q-131 39 -184 64.5t-98 68.5q-106 100 -107 269q0 176 119 291.5t301 115.5q186 0 303 -112.5t121 -297.5h-158q-8 123 -81.5 197t-188.5 74q-113 0 -187.5 -75 t-74.5 -189q0 -111 71 -176q49 -43 224 -95q197 -59 280 -121q152 -113 152 -323q0 -193 -130 -321t-327 -128q-205 0 -334 123t-139 328zM860 -283q0 37 10.5 49.5t42.5 14.5v16l50 49h57v-65q31 -2 42 -14.5t11 -49.5v-16q0 -39 -12 -51t-51 -12h-86q-39 0 -51.5 12 t-12.5 51v16zM870 -283v-16q0 -35 10.5 -44t43.5 -9h86q33 0 42 9t9 44v16q0 33 -7 42.5t-34 11.5v-84h-107v84q-27 -2 -35 -11.5t-8 -42.5zM924 -213v-90h86v139h-37v-49h-49zM930 -201h31v29z" />
<glyph unicode="T" horiz-adv-x="872" d="M14 1376v137h844v-137h-346v-1376h-152v1376h-346zM652 208q0 2 1 3q0 2 7.5 10t13.5 12q14 10 39 15q0 2 -1 4t-1 4l-3 -3l-3 -3v2q-4 -4 -13 -8l6 6l-8 -2l4 8l-8 -6l4 6q-2 0 -6 -3t-6 -3l4 4l-6 -4l-4 4q-2 2 -2 4q6 4 22 8l4 4q-4 2 -8 2q4 2 15.5 5.5t21.5 3.5h4 h-2q2 4 4 6l-3 -2q-3 -2 -5 -2q-2 4 -2 8h-8v8h-4h-4q0 2 2 4t6 2v4l10 -2q10 -2 14 -6v-6l1 2l1 2l3 -1l3 -1q0 -2 -2 -4q2 2 5 2l9 -9l9 -10h2l-2 7q2 2 4 2h2v12q2 0 4 1t4 -1q0 2 4 6t4 6q6 2 9 2q4 0 6 -2q-2 -2 0 -6q2 2 7 1t7 -5h-3h-3l4 -6l-4 -4l-2 -4l-3 -1 q-3 -1 -5 -2t-4 -1q4 -2 4 -7q-2 0 -3 -1l-3 -3q10 6 16 9q23 8 43 8q8 2 21.5 -2t19.5 -6q10 -6 16 -13l-14 -2q-4 2 -10 6t-10 6l10 -8q-12 6 -17 11q0 -2 2 -5.5t2 -5.5q-2 2 -5 3t-5 3t-4 2q0 -2 2 -6q-4 0 -6 4q-4 -2 -6 -4q-2 0 -5 -1t-5 1q10 -6 18 -14t10 -23 q-4 4 -6 9q-2 -2 -2 -4h2q6 -4 13.5 -12.5t11.5 -16.5q-2 0 -3 1t-1 3q4 -6 4 -14q-2 2 -6 2l2 -4l-2 -7q-2 0 -4 3h-7l4 -7q-2 -2 -6 -2q-2 0 -4 -2l-2 4v-4h-6v11q-2 -6 -2 -9q-2 0 -6 2v4q0 4 -2 5q-2 0 -6 2v10q-2 -2 -2 -6l-2 2q2 -10 2 -19q0 2 -1 4t-1 5q-2 -4 -5 -7 q-6 10 -8 21q0 4 -1 5t-1 3t-2 2h-2v2l-1 -2q-1 -2 -1 -4q-2 4 -2 8v2l-4 -4q2 -8 6 -14q4 -8 9 -15.5t12.5 -16.5t17.5 -15l76 -62l63 -65q12 -18 25 -29h-31q-16 35 -43 61q-20 20 -47 43l-25 21q-33 29 -38 35q-18 18 -33 39v2q-2 0 -2 -2l2 -4q8 -18 12 -25l-14 18v-2 q4 -12 6 -32q-2 -2 -2 -4v-5q-2 0 -3 -1l-1 -1q2 -2 2 -8q-4 0 -4 -2q-2 -2 -4 -6q-2 2 -5 6h-4l-1 3l-1 3q-2 0 -4 2v11q-2 0 -6 -2q2 6 4 8h-6v5q0 5 2 5q-2 0 -3 1l-3 3q2 2 2 4l-4 8q2 4 2 15q4 6 4 8l-2 8v8l-4 4q2 -6 2 -8q-4 4 -6 10l4 -14q-2 2 -2 4v-8q-2 0 -4 -2 l-2 -2q0 -2 2 -8t2 -8l-2 -3l-2 -2v-3v-3v-4l-2 -1q-2 -1 -4 1q0 -2 -2 -4h-3q2 -2 3 -5v-5v-4l-3 2q-2 -2 -1 -6t-1 -6l-4 4l4 -7l-4 -2l-2 -4l-1 1l-1 1q0 -2 -1 -3t-1 -3q-2 0 -2 2l-4 8l-1 -3q-1 -3 1 -3q-2 0 -2 2t-2 2q-2 -2 -2 -4l-1 4q-1 4 -3 5l-2 -5q0 4 1 10.5 t1 8.5q-2 2 -4 2q2 6 6 12q0 2 -1 4t-3 2l2 -6l-4 4v-4v-4l-4 4q2 -4 4 -6l-3 2l-3 2l2 -8l-2 4v-8q0 4 -5 6q0 -2 3 -6l-7 6l4 -8l-4 4q-2 -4 0 -8l-2 2l-2 2q0 -4 -2 -6l-2 6v-6v-6l-2 2l-2 -5q0 4 -2 9q2 12 10 26q2 6 10.5 16.5t12.5 14.5q6 8 16 16q0 2 2 4q0 2 -2 3 h-2q2 0 2 2v2l-2 -2l-2 -2q-2 -2 -2 -5v5v2q-4 -6 -6 -13l-1 4q-1 4 -1 7q0 -2 -2 -5.5t-2 -5.5q0 4 2 11l-6 -13v5v5q-4 -6 -6 -12v8q-6 -6 -9 -10l-2 6q-4 -4 -6 -8q-2 4 0 8q-2 -2 -3 -5t-1 -5v8l-4 -10q-2 4 0 8q-4 -6 -6 -8v8q0 -2 -1 -4t-1 -4v-4q-2 2 -2 6 q-2 -4 -2 -8q-2 6 0 10l-4 -14q-2 10 -2 14q0 -2 -1.5 -6t-1.5 -6v4q0 2 -2 4l-2 -10v8q0 -2 -1 -3t-1 -3v-4q0 1 -0.5 3.5t-0.5 3.5zM2998 1079v5v6l9 9l14 13q14 8 39 14q-2 2 -2 4.5t-2 2.5l-1 -3q-1 -2 -3 -2v2l-13 -8l4 6l-6 -2l2 7l-6 -5l4 7q-2 -2 -6 -4.5t-6 -4.5 l4 4l-6 -2l-4 5q-2 2 -4 2q8 4 24 8q0 4 4 6h-8q4 4 14.5 7t22.5 1h4q-2 2 -4 2q4 4 6 4q-2 0 -4 -1t-4 -1l-4 8h-6l-2 7q0 2 -3 1l-3 -1v6q4 2 8 2v4l10 -3q10 -3 12 -5q2 -4 2 -6v2v2q2 0 5 -1t3 -3l-2 -3q2 0 2 3q4 -2 12 -10l9 -9q0 -2 2 -2l-2 8q2 2 4 2h2q0 8 -2 11 q4 2 6 2h4q0 2 4 6t4 6h9h6q-2 -2 -2 -6q4 2 9 0t7 -4h-3h-3l4 -7l-6 -4v-4q-2 -2 -4 -3t-4 -1h-4q4 -2 4 -6q-2 0 -4 -2l-2 -2l16 8q20 6 41 8q10 0 23.5 -3t17.5 -7q10 -4 16 -10l-14 -2q-2 2 -8 6t-10 6l8 -8q-10 6 -15 10q0 -2 2.5 -5t2.5 -5q-2 0 -5.5 2t-5.5 3t-4 3 q0 -4 2 -6q-4 0 -6 2q-4 0 -6 -4q-2 2 -5 1t-5 -1q10 -4 18 -12q8 -10 10 -23q-4 4 -6 8q-2 -2 -2 -4v-2q6 -4 14.5 -12t10.5 -15l-1 2l-1 1q2 -4 2 -13q0 2 -4 2v-2l2 -2l-2 -6h-6h-5l5 -4q-2 -2 -7 -4l-2 2q0 -2 -2 -2l-2 4v-4h-6q0 6 -2 10v-10l-8 4v4v4h-6q-2 4 -2 12 v-6h-2q2 -8 2 -16q-2 0 -2 3t-2 3q0 -4 -5 -4l-8 20q2 2 1 5l-2 4l-1 2h-2q-2 0 -2 -2v-2q-2 4 -2 8q-2 -2 -4 -2q2 -10 6 -17q4 -6 8 -13t12.5 -16.5t18.5 -17.5l74 -59q41 -33 65 -66q12 -18 23 -28h-29q-16 35 -43 59q-23 23 -49 45l-23 21q-33 29 -41 34q-16 16 -30 37 q0 2 -2 4v-2l2 -4q8 -18 12 -24l-16 18l2 -2q4 -12 6 -33l-2 -4l-2 -4q0 -2 -1 -2t-1 -2t2 -6q-4 0 -6 -2q0 -2 -4 -6q0 2 -3 6q-2 -2 -4 -2q0 2 -1 5l-1 3q-2 0 -4 2q0 4 -2 8h-4l4 8h-6v5v6q-2 2 -4 2q2 4 2 6l-4 8q2 4 2 12q2 6 4 8q0 2 -4 9q2 4 2 10l-4 2q0 -4 2 -8 q-4 6 -6 10q4 -12 4 -14q-2 4 -2 6v-8q-2 0 -4 -2l-2 -3q0 -2 2 -8t2 -8l-2 -2l-2 -2v-4v-3v-3l-2 -1q-2 -1 -4 -1t-5 -2v-2q0 -2 1.5 -4.5t1.5 -5.5v-5l-5 4v-6v-6l-4 2l2 -4l-2 -2l-2 -4h-4v-4h-4q0 6 -2 10l-1 -3q-1 -3 -1 -5q0 2 -1 4l-1 2q-2 -4 -2 -6q-2 2 -3 5t-1 5 l-2 -4q0 4 1 10t-1 6q0 2 -2 2q2 8 6 15q0 2 -2 3t-2 3l2 -8l-4 6v-5v-5q-2 4 -4 6q0 -4 2 -8l-2 2q-2 2 -2 4l2 -8l-2 4v-9q-2 4 -5 7v-7l-4 7l4 -9l-6 4q0 -4 2 -8q-2 0 -3 2l-1 2q-2 -4 -2 -6l-2 6q-2 -2 -1 -7t1 -7l-4 4v-4q-2 2 -2 6q2 14 8 29q4 6 11.5 16t13.5 15 q6 8 16 16q0 2 2 4l-2 2h-2h2q0 2 -2 2l-2 -2q-2 -2 -2 -4v2v4q-4 -6 -6 -12l-1 4q-1 4 -1 6q0 -2 -2 -5t-2 -5v8l-4 -10v5v5q-4 -6 -6 -12q-2 6 0 8q-6 -6 -9 -12l-2 8q-4 -4 -6 -8q-2 2 0 8q-2 -2 -3 -5t-3 -5q0 4 2 8l-6 -10q0 2 2 8q-4 -6 -6 -8v6q-2 0 -2 -2v-5v-4 q-2 2 -2 7q-2 -4 -2 -9q-2 6 0 11l-6 -15v13q-2 -2 -2.5 -6.5t-2.5 -4.5v3v4l-4 -9l2 9q-2 -2 -2 -5v-4q0 -2 -2 -2z" />
<glyph unicode="U" horiz-adv-x="1341" d="M156 569v944h151v-944q0 -207 70 -313q43 -66 122 -104.5t173 -38.5q92 0 171 38.5t122 104.5q70 106 69 313v944h152v-944q0 -268 -107 -409q-68 -88 -176 -137.5t-233 -49.5t-232.5 49.5t-175.5 137.5q-106 141 -106 409z" />
<glyph unicode="V" horiz-adv-x="1437" d="M20 1513h166l533 -1325l534 1325h164l-626 -1513h-148z" />
<glyph unicode="W" horiz-adv-x="1966" d="M20 1513h156l373 -1316l362 1316h144l362 -1316l373 1316h156l-435 -1513h-194l-336 1241l-332 -1241h-196z" />
<glyph unicode="X" horiz-adv-x="1247" d="M16 0l514 774l-485 739h178l402 -606l399 606h176l-485 -739l516 -774h-178l-428 647l-430 -647h-179z" />
<glyph unicode="Y" horiz-adv-x="1212" d="M4 1513h168l430 -847l440 847h166l-528 -1007v-506h-152v506z" />
<glyph unicode="Z" horiz-adv-x="983" d="M35 0v137l743 1239h-721v137h891v-137l-741 -1239h764v-137h-936z" />
<glyph unicode="[" horiz-adv-x="718" d="M229 336v610q0 258 150 414q111 113 262 153v-153q-150 -66 -209 -163t-59 -279v-556q0 -197 58 -297t210 -167v-154q-162 47 -276 168q-72 80 -104 178.5t-32 245.5z" />
<glyph unicode="\" horiz-adv-x="1239" d="M172 1513h143l635 -1513h-143z" />
<glyph unicode="]" horiz-adv-x="718" d="M78 -102q152 68 210 165t58 277v557q0 195 -58.5 295t-209.5 168v153q166 -47 276 -167q72 -80 103.5 -178.5t31.5 -245.5v-609q0 -260 -149 -415q-111 -113 -262 -154v154z" />
<glyph unicode="^" horiz-adv-x="1241" d="M37 369l498 1144h174l495 -1144h-166l-415 983l-420 -983h-166z" />
<glyph unicode="_" horiz-adv-x="1024" d="M0 -137h1024v-119h-1024v119z" />
<glyph unicode="`" horiz-adv-x="774" d="M152 1470l65 119l406 -225l-68 -115z" />
<glyph unicode="a" horiz-adv-x="1398" d="M86 557q0 252 169 421t421 169q283 0 442 -225v198h152v-1120h-152v197q-90 -121 -189.5 -172.5t-242.5 -51.5q-258 0 -429 167t-171 417zM240 567q0 -193 129 -323.5t319 -130.5q180 0 305 131t125 321q0 186 -127 314.5t-311 128.5q-182 0 -311 -129.5t-129 -311.5z M3052 -694l94 188l94 -188h-188zM3072 -680h147l-73 148zM3146 -506l94 189l94 -189h-188zM3166 -492h148l-74 148zM4116 -918l95 187l94 -187h-189zM4137 -905h147l-73 147zM6101 2003q0 18 8 38.5t25.5 36t38.5 15.5q14 0 22 -8t8 -25q0 -20 -14 -42.5t-37 -22.5 q-10 0 -14 7t-4 17t7 18.5t15 8.5q10 0 11 -14q0 -10 -6.5 -17.5t-12.5 -7.5h-2q4 -4 10 -4q14 0 26.5 19.5t12.5 35.5q0 12 -7 19.5t-19 7.5q-20 0 -40 -26.5t-20 -51.5q0 -10 3 -18.5t11.5 -15.5t20.5 -7q14 0 25.5 7t22.5 21.5t24 37.5l26 49h2l-2 -76l31 63h2v-61l29 55 l2 -49l22 39l4 -27q4 -14 13 -14q4 0 8 4l12 10l6 -4l-7 -7q-5 -5 -7 -6t-7 -3t-9 -2q-8 0 -11.5 5t-7.5 20l-22 -41l-2 47l-31 -58v62l-31 -66h-4l4 80l-20 -35l-17 -26l-16 -19l-19 -12l-22 -4q-23 0 -32 14.5t-9 32.5zM6142 2019q0 -6 6 -6q4 0 7 5t3 12q0 8 -5 8 t-8 -6.5t-3 -12.5z" />
<glyph unicode="b" horiz-adv-x="1396" d="M129 0v1513h152v-585q150 219 440 219q250 0 420 -169t170 -417q0 -252 -169 -420t-423 -168q-137 0 -253 57.5t-185 162.5v-193h-152zM270 565q0 -188 129 -319q131 -133 316 -133q188 0 315 130t127 322q0 188 -126 315.5t-314.5 127.5t-317.5 -128.5t-129 -314.5z" />
<glyph unicode="c" horiz-adv-x="1325" d="M86 563q0 244 174 414t426 170q188 0 338 -98l18 -15l-36 90h22l47 -114q113 -90 168 -230h-170q-133 227 -389 228q-186 0 -315 -130t-129 -319q0 -186 131 -316t319 -130q119 0 207 50t176 167h172q-80 -154 -176 -230q-162 -127 -373 -127q-258 0 -434 170t-176 420z M1067 1464h23l94 -227h-21zM1174 1386h22l94 -227h-20zM1964 137h23l94 -227h-21z" />
<glyph unicode="d" horiz-adv-x="1402" d="M86 559q0 250 171 419t425 169q270 0 440 -205v571h152v-1513h-152v203q-84 -121 -185 -175.5t-241 -54.5q-260 0 -435 168t-175 418zM240 565q0 -193 130 -322.5t322 -129.5q180 0 308 133t128 317.5t-132 314.5t-318 130q-182 0 -310 -129.5t-128 -313.5z" />
<glyph unicode="e" horiz-adv-x="1331" d="M86 565q0 244 169 413t413 169q160 0 296 -79t212 -212q76 -135 75 -346h-1013q8 -166 136 -281.5t300 -115.5q127 0 235.5 70.5t155.5 185.5h158q-43 -131 -164 -246q-160 -150 -381 -150q-248 0 -420 171t-172 421zM242 647h858q-39 168 -155 264.5t-279 96.5 q-160 0 -276.5 -99.5t-147.5 -261.5z" />
<glyph unicode="f" horiz-adv-x="643" d="M33 983v137h174v11q0 382 430 382v-137q-156 -2 -218.5 -59t-60.5 -197h279v-137h-279v-983h-151v983h-174z" />
<glyph unicode="g" horiz-adv-x="1378" d="M86 555q0 254 164 423t409 169q272 0 439 -225v198h151v-919q0 -164 -23.5 -263.5t-80.5 -177.5q-152 -201 -455 -200q-211 0 -356.5 104.5t-206.5 300.5h147q63 -113 111 -153q119 -113 301 -113q129 0 225.5 53t141.5 149.5t45 250.5v75q-129 -254 -428 -254 q-246 0 -415 168t-169 414zM240 567q0 -195 122.5 -324.5t307.5 -129.5q182 0 305 132t123 328q0 182 -125 308.5t-305 126.5q-186 0 -307 -124t-121 -317z" />
<glyph unicode="h" horiz-adv-x="1249" d="M129 0v1513h152v-538q119 172 356 172q254 0 387 -174q96 -129 96 -371v-602h-151v602q0 188 -76 283q-96 123 -270 123q-184 0 -281 -140q-61 -84 -61 -254v-614h-152z" />
<glyph unicode="i" horiz-adv-x="409" d="M129 0v1120h152v-1120h-152zM129 1255v258h152v-258h-152zM281 1513v93h186v-93h-186zM1729 -211q63 61 139 64h2q76 -2 139 -64q-33 -33 -65.5 -51.5t-71.5 -18.5h-4h-2q-39 0 -71.5 18.5t-65.5 51.5zM1749 -211q6 -6 10 -8q25 16 50.5 27.5t58.5 11.5h2 q31 0 57.5 -11.5t50.5 -27.5q4 2 9 8q-57 49 -117 49h-2q-60 0 -119 -49zM1772 -229q31 -25 61 -33q-12 14 -12 33q0 16 12 30q-30 -7 -61 -30zM1835 -229.5q0 -14.5 10 -24.5t23 -10q14 0 24.5 10t10.5 24.5t-10.5 23.5t-24.5 9q-12 0 -22.5 -9t-10.5 -23.5zM1847 -229 q0 8 6.5 14t14.5 6q10 0 16 -6t6 -14q0 -10 -6 -16.5t-16 -6.5q-8 0 -14.5 6.5t-6.5 16.5zM1862 -230q0 -3 2 -5.5t4 -2.5q4 0 6 2.5t2 5.5t-2 5t-5 2t-5 -2t-2 -5zM1905 -199q12 -14 12 -30q0 -18 -12 -33q31 8 61 33q-30 22 -61 30zM7881 172q61 63 137 64h2q78 0 139 -64 q-33 -33 -65.5 -51.5t-71.5 -18.5h-2h-2q-39 0 -72.5 18.5t-64.5 51.5zM7901 172l8 -8q25 18 51.5 29.5t57.5 11.5h2q33 0 58.5 -11.5t50.5 -29.5q4 2 10 8q-57 49 -119 49h-2q-60 0 -117 -49zM7922 154q31 -23 63 -31q-12 12 -12 31q0 16 10 30q-28 -7 -61 -30zM7985 153.5 q0 -14.5 10.5 -23.5t24.5 -9t23.5 9t9.5 23.5t-9.5 24.5t-23.5 10t-24.5 -10t-10.5 -24.5zM7997 154q0 10 6.5 16t16.5 6t16 -6t6 -16q0 -8 -7 -15.5t-15 -7.5q-10 0 -16.5 7.5t-6.5 15.5zM8012 154q0 -4 2 -6.5t6 -2.5t6 2.5t2 6.5t-2 6t-6 2t-6 -2t-2 -6zM8055 123 q33 8 63 31q-33 23 -61 30q10 -14 10 -30q0 -19 -12 -31z" />
<glyph unicode="j" horiz-adv-x="415" d="M-92 -248q127 8 177 80t50 246v1042h152v-1042q0 -164 -31 -249t-113 -146q-96 -70 -235 -76v145zM135 1255v258h152v-258h-152z" />
<glyph unicode="k" horiz-adv-x="1028" d="M129 0v1513h152v-1073l522 680h186l-436 -563l465 -557h-189l-372 449l-176 -218v-231h-152z" />
<glyph unicode="l" horiz-adv-x="409" d="M129 0v1513h152v-1513h-152z" />
<glyph unicode="m" horiz-adv-x="1921" d="M129 0v1120h152v-129q63 84 135.5 120t179.5 36q125 0 213 -51.5t154 -163.5q137 217 389 217q229 0 350 -160q90 -113 90 -323v-666h-152v649q0 168 -61 254q-80 106 -236 107q-170 0 -253 -129q-53 -78 -54 -232v-649h-151v653q0 170 -70 252q-86 102 -233 103 q-141 0 -221 -93.5t-80 -261.5v-653h-152zM1101 -70q3 8 8 13.5t13 8.5t17 3q10 0 18 -3t13.5 -8t8.5 -11.5t5 -12.5t2 -11v-9v-4v-121l-78 102q-6 10 -9 20q-2 7 -3 13q1 8 5 20zM1196 -100q0 4 1 9t2 11t4 12.5t8.5 11.5t13.5 8t18 3q8 0 16.5 -3t13.5 -8t9 -13.5t4 -16.5 t-3 -17.5t-9 -19.5l-78 -102v121v4z" />
<glyph unicode="n" horiz-adv-x="1249" d="M129 0v1120h152v-145q141 172 360 172q242 0 381 -174q53 -72 75.5 -158t22.5 -227v-588h-151v588q0 203 -74 299q-98 121 -272 121q-188 0 -283 -138q-59 -88 -59 -254v-616h-152z" />
<glyph unicode="o" horiz-adv-x="1341" d="M86 567q0 246 169 413t419 167q252 0 416.5 -167t164.5 -423q0 -252 -161.5 -418t-407.5 -166q-260 0 -430 168t-170 426zM240 563q0 -197 124.5 -323.5t317.5 -126.5q182 0 301 124.5t119 317.5q0 195 -122 324t-306 129q-186 0 -310 -127.5t-124 -317.5z" />
<glyph unicode="p" horiz-adv-x="1396" d="M129 -393v1513h152v-192q145 219 440 219q250 0 420 -170t170 -420q0 -246 -172 -415t-422 -169q-287 0 -436 220v-586h-152zM270 565q0 -195 127 -323.5t320 -128.5q186 0 313 128t127 316q0 193 -127 322t-315 129q-186 0 -315.5 -128.5t-129.5 -314.5z" />
<glyph unicode="q" horiz-adv-x="1396" d="M86 559q0 250 170 419t420 169q297 0 440 -219v192h152v-1513h-152v586q-150 -219 -436 -220q-250 0 -422 169t-172 417zM240 557q0 -188 127 -316t315 -128q186 0 315 128t129 312q0 195 -127 325t-317 130q-188 0 -315 -129t-127 -322z" />
<glyph unicode="r" horiz-adv-x="616" d="M129 0v1120h152v-159q45 92 120.5 136t196.5 50v-150q-317 -31 -317 -344v-653h-152z" />
<glyph unicode="s" horiz-adv-x="794" d="M37 330h149q6 -102 61.5 -159.5t149.5 -57.5q82 0 135.5 55t53.5 139q0 96 -72 146q-49 33 -145 69q-121 51 -146.5 64.5t-60.5 44.5q-84 78 -84 200q0 137 90 226.5t227 89.5q135 0 223.5 -84t92.5 -219h-154q-12 164 -164 164q-68 0 -115 -47.5t-47 -114.5 q0 -96 103 -148q41 -20 211 -90q195 -82 194 -286q0 -154 -95 -251.5t-247 -97.5q-162 0 -260 97.5t-100 259.5zM1786 1294l72 92l-56 23l103 82l-64 -76l57 -20z" />
<glyph unicode="t" horiz-adv-x="694" d="M25 983v137h241v393h152v-393h252v-137h-252v-983h-152v983h-241zM870 920l9 28l-9 4l9 2l-9 29l13 -2l18 -25l8 2q6 0 14.5 1.5t12.5 1.5h8q10 0 10 6v4q0 6 -6 20l-20 47h8q4 0 5 -1l5 -5l10 -12h15v-2q2 -2 2 -3t-2 -3h-8l12 -19h14l2 -2v-2v-2l-2 -2h-8l18 -24h2h19 q29 -2 29 -9q0 -6 -11.5 -8t-38.5 -4l-18 -22h8l2 -3v-2v-4h-2h-14l-12 -18h8v-2q2 0 2 -2t-2 -2v-2h-15l-10 -13q-4 -4 -5 -6t-5 -2h-8l20 49q6 23 6 25q0 4 -4 5t-16 1q-4 0 -33 2l-18 -22z" />
<glyph unicode="u" horiz-adv-x="1245" d="M129 516v604h152v-604q0 -174 53 -262q39 -68 113.5 -104.5t168.5 -36.5q180 0 281 139q68 100 68 293v575h151v-1120h-151v174q-109 -201 -361 -201q-258 0 -387 179q-88 120 -88 364z" />
<glyph unicode="v" d="M16 1120h154l393 -942l402 942h153l-471 -1120h-160z" />
<glyph unicode="w" horiz-adv-x="1701" d="M14 1120h152l356 -938l264 801h125l265 -801l364 938h148l-435 -1120h-161l-244 743l-242 -743h-164z" />
<glyph unicode="x" horiz-adv-x="983" d="M16 0l390 571l-390 549h172l304 -432l301 432h174l-392 -549l392 -571h-174l-301 449l-304 -449h-172z" />
<glyph unicode="y" horiz-adv-x="1097" d="M18 1120h166l355 -893l379 893h161l-647 -1513h-162l183 430z" />
<glyph unicode="z" horiz-adv-x="870" d="M20 0v137l619 846h-598v137h770v-129l-612 -854h651v-137h-830z" />
<glyph unicode="{" horiz-adv-x="718" d="M76 557v141q100 16 131 51t31 132v348q0 180 94 241q37 25 78 32t145 11v-137q-92 -10 -113 -20q-47 -25 -47 -125v-348q0 -106 -31.5 -158.5t-113.5 -83.5q-25 -8 -37 -14q33 -12 37 -13q84 -33 114.5 -84t30.5 -157v-348q0 -78 28 -107t109 -37l23 -2v-137 q-102 2 -144 10t-79 33q-94 61 -94 242v348q0 94 -31 129t-131 53z" />
<glyph unicode="|" horiz-adv-x="1376" d="M623 0v1513h131v-1513h-131z" />
<glyph unicode="}" horiz-adv-x="718" d="M78 -121l22 2q92 8 113 39q25 35 25 105v348q0 106 30.5 157.5t114.5 83.5q4 0 37 13q-12 6 -37 14q-84 33 -114.5 84t-30.5 158v348q0 76 -29 110q-20 25 -109 33l-22 2v137q119 -4 169 -17t89 -54q59 -63 59 -213v-348q0 -96 30 -131t126 -52v-141q-96 -16 -126 -51 t-30 -131v-348q0 -160 -69 -224q-39 -35 -88.5 -47t-159.5 -14v137z" />
<glyph unicode="~" horiz-adv-x="1241" d="M104 526q74 133 140.5 189.5t152.5 56.5q68 0 158 -39l133 -55q113 -47 164 -47q96 0 195 168l90 -97q-53 -104 -131 -166.5t-156 -62.5q-68 0 -191 53l-112 45q-102 43 -150 43q-80 0 -135 -71q-25 -35 -72 -113z" />
<glyph unicode="&#xa0;" horiz-adv-x="567" d="M334 -180q0 6 6 12q2 0 4 4l6 12q2 2 8 5q-4 6 -8 20q-4 12 -6 16q-4 6 -4 13q0 2 4 6q2 4 6 4q2 0 4 -2q6 0 8 -4q8 -12 19 -35l4 -12q2 -4 4 -6q2 2 2 8t2 10q0 2 2 18v7v2v2q0 4 4 8t9 4q6 0 10 -6q2 -4 2 -6v-25v-4v-37v-8v-2v-14v-11v-14q0 -4 -2 -21v-18v-16h-66 v22v6q-2 6 -6 15q-6 10 -6 14q0 10 -2 20q-4 9 -4 13zM342 -180q10 -8 14 -17h2q2 0 4 2v2q0 2 -2 5q0 2 -2 2l-14 12q-2 -2 -2 -6zM344 -193v-2q2 -4 2 -12q0 -6 2 -8l10 -27v-2v-18h54l-2 20q0 8 2 14.5t2 12.5v8v14q0 10 -2 19v10v2l2 39v2v6l-2 13q0 8 -4 8t-5 -10 l-2 -13v-10l-4 -23q-2 -4 -4 -4l-6 -2h-4q0 2 -6 15l-2 4q-4 14 -15 31q-2 6 -4 8t-4 2t-4 -2v-2q0 -4 4 -11q0 -2 4 -8l11 -31l16 -12q12 -8 23 -20v-2q0 -2 -3 -2q-4 0 -6 2v2q-6 6 -20 16l-6 4l-6 4q-2 2 -7 2h-2v-4q0 -2 6 -6t7 -6q2 -2 8 -6q6 -8 6 -12q0 -6 -4 -13 q-2 -6 -2 -10q0 -6 8 -12q2 -4 4 -6q6 -4 8 -7v-2q0 -2 -2 -2q-16 6 -20 19l-2 2q-2 4 -2 6v10q2 0 1 2t-3 2q-4 -2 -9 -2h-4q-2 0 -4 2q-6 8 -8 8zM350 -168l10 -10q6 -6 9 -12q2 -2 2 -5l2 -2q2 0 2 2v5q0 2 -2 4v2l-21 18z" />
<glyph unicode="&#xa1;" horiz-adv-x="604" d="M227 -393v1114h152v-1114h-152zM227 862v258h152v-258h-152z" />
<glyph unicode="&#xa2;" d="M92 782q0 193 122 324t316 151v191h136v-191q131 -18 231 -100t145 -209h-170q-96 172 -292 172q-145 0 -240.5 -95t-95.5 -241q0 -143 97 -241.5t237 -98.5q158 0 286 150h166q-41 -113 -141.5 -189.5t-222.5 -93.5v-184h-136v184q-188 14 -313 148.5t-125 322.5z" />
<glyph unicode="&#xa3;" d="M37 711v137h153q-45 109 -45 201q0 215 136.5 353t345.5 138q205 0 345 -120t163 -312h-142q-31 139 -127 217t-237 78q-147 0 -239.5 -98.5t-92.5 -253.5q0 -96 57 -203h582v-137h-440q147 -156 147 -334q0 -104 -59 -240h116q180 0 263 76q45 39 71.5 104.5t26.5 131.5 q0 39 -12 100h147q16 -63 16 -113q0 -102 -42 -193t-115 -149q-121 -94 -350 -94h-584v137h285q86 96 86 238q0 94 -40 162.5t-157 173.5h-258z" />
<glyph unicode="&#xa4;" d="M53 621q0 170 97 305l-91 86l113 110l88 -86q150 96 305 97q174 0 307 -95l89 86l110 -112l-84 -86q94 -139 94 -312q0 -182 -96 -301l86 -86l-110 -108l-84 86q-86 -57 -155 -80t-157 -23q-158 0 -307 103l-86 -86l-109 110l84 84q-94 130 -94 308zM199 618 q0 -158 106.5 -263t265.5 -105q156 0 260.5 106.5t104.5 264t-103.5 263t-259.5 105.5q-164 0 -269 -104.5t-105 -266.5z" />
<glyph unicode="&#xa5;" d="M0 1513h156l452 -843l443 843h155l-299 -565h211v-137h-284l-99 -188h369v-138h-422v-485h-150v485h-430v138h375l-100 188h-289v137h215z" />
<glyph unicode="&#xa6;" horiz-adv-x="1376" d="M623 0v604h131v-604h-131zM623 909v604h131v-604h-131z" />
<glyph unicode="&#xa7;" horiz-adv-x="1259" d="M178 694q0 186 176 312q-78 84 -78 200q0 143 100.5 238.5t252.5 95.5q150 0 250 -83t110 -216h-145q-35 162 -215 162q-94 0 -153.5 -54.5t-59.5 -138.5q0 -117 121 -176l323 -151q223 -106 223 -291q0 -178 -155 -293q98 -104 98 -223q0 -156 -110.5 -260.5 t-274.5 -104.5q-180 0 -299 118t-125 302h139q10 -127 88 -205t197 -78q104 0 175 64.5t71 159.5q0 61 -45 109t-148 100l-293 143q-127 63 -175 121.5t-48 148.5zM317 717q0 -92 111 -148l406 -196q111 80 110 200q0 117 -125 175l-385 182q-117 -80 -117 -213z" />
<glyph unicode="&#xa8;" horiz-adv-x="755" d="M152 1276v258h151v-258h-151zM453 1276v258h151v-258h-151z" />
<glyph unicode="&#xa9;" horiz-adv-x="1529" d="M-18 758q0 324 229 553t551 229q330 0 557 -229.5t227 -562.5q0 -317 -230.5 -546t-551.5 -229q-324 0 -553 229.5t-229 555.5zM96 758q0 -281 195.5 -479.5t472.5 -198.5q272 0 470 197.5t198 470.5q0 289 -195 487.5t-475 198.5q-274 0 -470 -198.5t-196 -477.5z M334 763.5q0 188.5 132 321t318 132.5q266 0 402 -240h-152q-104 125 -248 125q-135 0 -231 -99.5t-96 -240.5q0 -139 96 -241.5t229 -102.5q143 0 242 117h154q-61 -109 -167 -170.5t-231 -61.5q-184 0 -316 136t-132 324.5z" />
<glyph unicode="&#xaa;" horiz-adv-x="755" d="M63 653v105h631v-105h-631zM63 1216.5q0 126.5 91.5 218t220.5 91.5q63 0 121.5 -30t87.5 -75v92h98v-595h-98v92q-84 -106 -211 -107q-125 0 -217.5 93.5t-92.5 220zM172 1219q0 -86 61.5 -150.5t143.5 -64.5q80 0 140.5 63t60.5 145q0 86 -60.5 149.5t-140.5 63.5 t-142.5 -62t-62.5 -144z" />
<glyph unicode="&#xab;" horiz-adv-x="870" d="M82 614l231 408l121 -66l-192 -342l192 -344l-121 -67zM432 614l236 408l120 -66l-192 -342l192 -344l-120 -67z" />
<glyph unicode="&#xac;" horiz-adv-x="1241" d="M104 743v150h1033v-590h-148v440h-885z" />
<glyph unicode="&#xad;" horiz-adv-x="679" d="M63 477v129h555v-129h-555z" />
<glyph unicode="&#xae;" horiz-adv-x="1529" d="M-18 758q0 324 229 553t551 229q330 0 557 -229.5t227 -562.5q0 -317 -230.5 -546t-551.5 -229q-324 0 -553 229.5t-229 555.5zM96 758q0 -281 195.5 -479.5t472.5 -198.5q272 0 470 197.5t198 470.5q0 289 -195 487.5t-475 198.5q-274 0 -470 -198.5t-196 -477.5z M508 322v876h270q160 0 236 -74q80 -80 80 -206q0 -150 -111 -222q-49 -33 -145 -47l247 -327h-155l-297 413v-413h-125zM633 748h90q242 0 242 170q0 74 -53.5 117.5t-141.5 43.5h-137v-331z" />
<glyph unicode="&#xaf;" horiz-adv-x="993" d="M152 1317v131h690v-131h-690z" />
<glyph unicode="&#xb0;" horiz-adv-x="819" d="M102 1094q0 131 91.5 221t224.5 90q127 0 213 -91t86 -222t-89 -222.5t-218 -91.5t-218.5 91.5t-89.5 224.5zM217 1092q0 -82 57.5 -139.5t135.5 -57.5q80 0 135 57.5t55 139.5t-54 139t-132 57q-82 0 -139.5 -57t-57.5 -139z" />
<glyph unicode="&#xb1;" horiz-adv-x="1241" d="M104 0v152h1033v-152h-1033zM104 604v152h439v442h157v-442h437v-152h-437v-350h-157v350h-439z" />
<glyph unicode="&#xb2;" horiz-adv-x="679" d="M25 590v104l333 307q84 76 111 107q61 72 61 137q0 70 -55 121t-131 51q-109 0 -164 -92q-25 -41 -24 -121v-10h-123q2 100 22 152q35 84 115 134t180 50q127 0 216 -84t89 -205q0 -72 -40 -137.5t-136 -153.5l-272 -248h444v-112h-626z" />
<glyph unicode="&#xb3;" horiz-adv-x="679" d="M27 899h125q4 -90 34 -133q59 -80 152 -80q76 0 133 55.5t57 128.5q0 63 -41 114.5t-104 66.5q-33 8 -121 8v110q37 -2 43 -2q76 0 120 34t44 91q0 53 -37 89t-92 36q-82 0 -115 -76q-12 -29 -12 -81h-125q2 123 70.5 196.5t183.5 73.5q106 0 179 -70.5t73 -173.5 q0 -53 -18.5 -89t-65.5 -79q143 -88 143 -244q0 -123 -93 -212t-220 -89q-82 0 -154.5 40t-113.5 108q-39 63 -45 178z" />
<glyph unicode="&#xb4;" horiz-adv-x="768" d="M152 1364l395 238l69 -119l-395 -234z" />
<glyph unicode="&#xb5;" horiz-adv-x="1245" d="M129 -393v1513h152v-575q0 -141 21.5 -210t86.5 -128q102 -96 240 -96q176 0 272 141q63 98 64 293v575h151v-1120h-151v174q-102 -201 -336 -201q-227 0 -348 201v-567h-152z" />
<glyph unicode="&#xb6;" horiz-adv-x="1155" d="M76 1124q0 211 168 322q106 68 288 67h474v-1785h-154v1648h-234v-1648h-153v999q-180 18 -284.5 124.5t-104.5 272.5z" />
<glyph unicode="&#xb7;" horiz-adv-x="567" d="M207 469v258h151v-258h-151z" />
<glyph unicode="&#xb8;" horiz-adv-x="663" d="M152 -287l90 11q20 -72 92 -72q39 0 64.5 26.5t25.5 67.5q0 47 -26.5 77t-67.5 30q-47 0 -88 -50l-60 35l72 162h74l-39 -96q41 16 67 16q70 0 113 -46t43 -120q0 -82 -51 -136t-129 -54q-145 -1 -180 149z" />
<glyph unicode="&#xb9;" horiz-adv-x="679" d="M201 1401v112h276v-923h-123v811h-153z" />
<glyph unicode="&#xba;" horiz-adv-x="755" d="M66 653v105h624v-105h-624zM66 1221q0 123 93 214t220 91t219 -92.5t92 -216.5q0 -127 -93 -219.5t-220 -92.5q-129 0 -220 92.5t-91 223.5zM174 1217q0 -88 59.5 -149.5t145.5 -61.5q82 0 142.5 61t60.5 145q0 90 -58.5 151.5t-146.5 61.5q-84 0 -143.5 -61t-59.5 -147z " />
<glyph unicode="&#xbb;" horiz-adv-x="870" d="M82 270l192 344l-192 342l121 66l235 -408l-235 -411zM436 270l193 344l-193 342l121 66l231 -408l-231 -411z" />
<glyph unicode="&#xbc;" horiz-adv-x="1701" d="M207 1401v112h276v-923h-123v811h-153zM432 0l698 1513h113l-700 -1513h-111zM963 162v102l462 660h134v-650h86v-112h-86v-162h-123v162h-473zM1116 274h320v461z" />
<glyph unicode="&#xbd;" horiz-adv-x="1701" d="M197 1401v112h276v-923h-123v811h-153zM422 0l698 1513h113l-701 -1513h-110zM1036 0v104l334 308q84 76 111 106q61 72 61 137q0 70 -55 121t-131 51q-109 0 -164 -92q-25 -41 -25 -121v-10h-123q2 100 23 152q35 84 115 134t180 50q127 0 216 -84t89 -205 q0 -72 -40 -137t-136 -154l-272 -247h444v-113h-627z" />
<glyph unicode="&#xbe;" horiz-adv-x="1701" d="M27 899h125q4 -90 34 -133q57 -80 152 -80q76 0 133 55.5t57 128.5q0 63 -41 114.5t-104 66.5q-35 8 -121 8v110q37 -2 43 -2q76 0 120 34t44 91q0 53 -37 89t-92 36q-82 0 -115 -76q-12 -29 -12 -81h-125q2 123 70.5 196.5t183.5 73.5q106 0 179 -70.5t73 -173.5 q0 -53 -18.5 -89t-65.5 -79q143 -90 143 -244q0 -123 -93 -212t-220 -89q-82 0 -154.5 40t-113.5 108q-43 67 -45 178zM489 0l699 1513h112l-700 -1513h-111zM963 162v102l462 660h134v-650h86v-112h-86v-162h-123v162h-473zM1116 274h320v461z" />
<glyph unicode="&#xbf;" horiz-adv-x="1210" d="M135 25q0 100 41 178t143 170q115 100 162 179t49 173h144v-31q0 -111 -68 -219q-37 -63 -147 -168q-104 -98 -138 -155.5t-34 -131.5q0 -133 88 -218t225 -85q90 0 167 42t118 116q41 76 49 205h143q-2 -176 -73 -289q-135 -211 -406 -211q-201 0 -332 126t-131 319z M524 862v258h152v-258h-152z" />
<glyph unicode="&#xc0;" horiz-adv-x="1515" d="M23 0l649 1513h170l651 -1513h-166l-219 510h-705l-221 -510h-159zM455 1843l65 119l406 -225l-68 -115zM461 647h588l-291 694z" />
<glyph unicode="&#xc1;" horiz-adv-x="1515" d="M23 0l649 1513h170l651 -1513h-166l-219 510h-705l-221 -510h-159zM461 647h588l-291 694zM594 1737l395 237l70 -119l-395 -233z" />
<glyph unicode="&#xc2;" horiz-adv-x="1515" d="M23 0l649 1513h170l651 -1513h-166l-219 510h-705l-221 -510h-159zM395 1649l297 258h135l293 -258h-182l-176 151l-180 -151h-187zM461 647h588l-291 694z" />
<glyph unicode="&#xc3;" horiz-adv-x="1515" d="M23 0l649 1513h170l651 -1513h-166l-219 510h-705l-221 -510h-159zM461 647h588l-291 694zM467 1763q78 100 190 101q47 0 121 -35q66 -29 99 -29q55 0 116 64l68 -95q-25 -41 -80 -70.5t-107 -29.5q-43 0 -135 45q-51 20 -82 21q-29 0 -48 -9.5t-60 -44.5l-14 -12z" />
<glyph unicode="&#xc4;" horiz-adv-x="1515" d="M23 0l649 1513h170l651 -1513h-166l-219 510h-705l-221 -510h-159zM461 647h588l-291 694zM532 1649v258h152v-258h-152zM834 1649v258h151v-258h-151z" />
<glyph unicode="&#xc5;" horiz-adv-x="1515" d="M23 0l649 1513h170l651 -1513h-166l-219 510h-705l-221 -510h-159zM461 647h588l-291 694zM569 1808q0 80 55.5 135.5t135.5 55.5q76 0 131 -55.5t55 -133t-55 -133t-133 -55.5t-133.5 54t-55.5 132zM653 1808q0 -41 31 -71.5t74 -30.5t73.5 30.5t30.5 73.5 q0 41 -30.5 73t-73.5 32t-74 -31t-31 -76z" />
<glyph unicode="&#xc6;" horiz-adv-x="2031" d="M23 0l1046 1513h848v-137h-653v-542h630v-138h-630v-559h653v-137h-805v512h-555l-354 -512h-180zM653 649h459v670z" />
<glyph unicode="&#xc7;" horiz-adv-x="1665" d="M90 752q0 340 223.5 564t560.5 224q236 0 422.5 -112.5t274.5 -307.5h-170q-78 123 -166 178q-152 102 -354 103q-270 0 -453.5 -185.5t-183.5 -457.5q0 -266 188.5 -455.5t450.5 -189.5q217 0 374 125q61 47 152 159h168q-109 -209 -287 -317.5t-411 -106.5l-50 -112 q41 14 70 14q70 0 114 -47t44 -125q0 -86 -52.5 -140.5t-136.5 -54.5q-145 0 -190 152l96 14q23 -70 92 -69q43 0 67.5 25.5t24.5 68.5t-26.5 70.5t-67.5 27.5q-47 0 -90 -45l-61 37l86 186q-225 33 -367 131q-166 113 -254 279t-88 367z" />
<glyph unicode="&#xc8;" horiz-adv-x="1097" d="M156 0v1513h827v-137h-676v-542h654v-138h-654v-559h676v-137h-827zM266 1843l66 119l405 -225l-67 -115z" />
<glyph unicode="&#xc9;" horiz-adv-x="1097" d="M156 0v1513h827v-137h-676v-542h654v-138h-654v-559h676v-137h-827zM406 1737l395 237l69 -119l-395 -233z" />
<glyph unicode="&#xca;" horiz-adv-x="1097" d="M156 0v1513h827v-137h-676v-542h654v-138h-654v-559h676v-137h-827zM207 1649l297 258h135l293 -258h-182l-177 151l-180 -151h-186z" />
<glyph unicode="&#xcb;" horiz-adv-x="1097" d="M156 0v1513h827v-137h-676v-542h654v-138h-654v-559h676v-137h-827zM344 1649v258h152v-258h-152zM645 1649v258h152v-258h-152z" />
<glyph unicode="&#xcc;" horiz-adv-x="462" d="M-4 1843l65 119l406 -225l-68 -115zM156 0v1513h151v-1513h-151z" />
<glyph unicode="&#xcd;" horiz-adv-x="462" d="M-2 1737l395 237l70 -119l-395 -233zM156 0v1513h151v-1513h-151z" />
<glyph unicode="&#xce;" horiz-adv-x="462" d="M-131 1649l297 258h135l293 -258h-182l-176 151l-181 -151h-186zM156 0v1513h151v-1513h-151z" />
<glyph unicode="&#xcf;" horiz-adv-x="462" d="M6 1649v258h152v-258h-152zM158 0v1513h151v-1513h-151zM307 1649v258h152v-258h-152z" />
<glyph unicode="&#xd0;" horiz-adv-x="1617" d="M53 711v137h197v665h356q207 0 339 -27.5t239 -90.5q168 -100 256 -265t88 -378q0 -432 -350 -639q-193 -113 -521 -113h-407v711h-197zM401 137h211q201 0 328 32t217 103q217 176 217 486q0 170 -71.5 306t-202.5 214q-162 98 -488 98h-211v-528h420v-137h-420v-574z " />
<glyph unicode="&#xd1;" horiz-adv-x="1515" d="M156 0v1513h204l848 -1255v1255h152v-1513h-152l-901 1331v-1331h-151zM475 1763q78 100 191 101q47 0 120 -35q66 -29 99 -29q55 0 116 64l68 -95q-25 -41 -80 -70.5t-106 -29.5q-43 0 -135 45q-51 20 -82 21q-29 0 -48.5 -9.5t-60.5 -44.5l-14 -12z" />
<glyph unicode="&#xd2;" horiz-adv-x="1779" d="M90 766q0 315 237.5 544.5t563.5 229.5q330 0 564.5 -230.5t234.5 -553.5q0 -322 -235.5 -552.5t-563.5 -230.5q-334 0 -567.5 231.5t-233.5 561.5zM244 762q0 -268 189.5 -458.5t457.5 -190.5q264 0 454.5 189.5t190.5 451.5q0 266 -190.5 456.5t-454.5 190.5 q-262 0 -454.5 -189.5t-192.5 -449.5zM586 1843l65 119l406 -225l-68 -115z" />
<glyph unicode="&#xd3;" horiz-adv-x="1779" d="M90 766q0 315 237.5 544.5t563.5 229.5q330 0 564.5 -230.5t234.5 -553.5q0 -322 -235.5 -552.5t-563.5 -230.5q-334 0 -567.5 231.5t-233.5 561.5zM244 762q0 -268 189.5 -458.5t457.5 -190.5q264 0 454.5 189.5t190.5 451.5q0 266 -190.5 456.5t-454.5 190.5 q-262 0 -454.5 -189.5t-192.5 -449.5zM725 1737l395 237l70 -119l-395 -233z" />
<glyph unicode="&#xd4;" horiz-adv-x="1779" d="M90 766q0 315 237.5 544.5t563.5 229.5q330 0 564.5 -230.5t234.5 -553.5q0 -322 -235.5 -552.5t-563.5 -230.5q-334 0 -567.5 231.5t-233.5 561.5zM244 762q0 -268 189.5 -458.5t457.5 -190.5q264 0 454.5 189.5t190.5 451.5q0 266 -190.5 456.5t-454.5 190.5 q-262 0 -454.5 -189.5t-192.5 -449.5zM526 1649l297 258h135l293 -258h-182l-176 151l-180 -151h-187z" />
<glyph unicode="&#xd5;" horiz-adv-x="1779" d="M90 766q0 315 237.5 544.5t563.5 229.5q330 0 564.5 -230.5t234.5 -553.5q0 -322 -235.5 -552.5t-563.5 -230.5q-334 0 -567.5 231.5t-233.5 561.5zM244 762q0 -268 189.5 -458.5t457.5 -190.5q264 0 454.5 189.5t190.5 451.5q0 266 -190.5 456.5t-454.5 190.5 q-262 0 -454.5 -189.5t-192.5 -449.5zM614 1763q78 100 191 101q47 0 121 -35q66 -29 98 -29q55 0 117 64l67 -95q-25 -41 -80 -70.5t-106 -29.5q-43 0 -135 45q-51 20 -82 21q-29 0 -48.5 -9.5t-60.5 -44.5l-14 -12z" />
<glyph unicode="&#xd6;" horiz-adv-x="1779" d="M90 766q0 315 237.5 544.5t563.5 229.5q330 0 564.5 -230.5t234.5 -553.5q0 -322 -235.5 -552.5t-563.5 -230.5q-334 0 -567.5 231.5t-233.5 561.5zM244 762q0 -268 189.5 -458.5t457.5 -190.5q264 0 454.5 189.5t190.5 451.5q0 266 -190.5 456.5t-454.5 190.5 q-262 0 -454.5 -189.5t-192.5 -449.5zM664 1649v258h151v-258h-151zM965 1649v258h151v-258h-151z" />
<glyph unicode="&#xd7;" horiz-adv-x="1241" d="M104 203l410 409l-410 412l107 104l410 -409l409 409l107 -104l-410 -412l410 -409l-107 -105l-409 410l-410 -410z" />
<glyph unicode="&#xd8;" horiz-adv-x="1777" d="M90 758q0 330 229.5 556t563.5 226q252 0 420 -115l192 256l111 -86l-189 -252q270 -227 271 -581q0 -330 -230.5 -559.5t-562.5 -229.5q-229 0 -418 113l-192 -256l-115 84l190 254q-270 225 -270 590zM244 750q0 -274 205 -467l770 1030q-145 88 -338 88 q-268 0 -452.5 -189.5t-184.5 -461.5zM561 199q164 -86 332 -86q268 0 454.5 187t186.5 456q0 276 -203 473z" />
<glyph unicode="&#xd9;" horiz-adv-x="1341" d="M156 569v944h151v-944q0 -207 70 -313q43 -66 122 -104.5t173 -38.5q92 0 171 38.5t122 104.5q70 106 69 313v944h152v-944q0 -268 -107 -409q-68 -88 -176 -137.5t-233 -49.5t-232.5 49.5t-175.5 137.5q-106 141 -106 409zM367 1843l65 119l406 -225l-68 -115z" />
<glyph unicode="&#xda;" horiz-adv-x="1341" d="M156 569v944h151v-944q0 -207 70 -313q43 -66 122 -104.5t173 -38.5q92 0 171 38.5t122 104.5q70 106 69 313v944h152v-944q0 -268 -107 -409q-68 -88 -176 -137.5t-233 -49.5t-232.5 49.5t-175.5 137.5q-106 141 -106 409zM506 1737l395 237l70 -119l-396 -233z" />
<glyph unicode="&#xdb;" horiz-adv-x="1341" d="M156 569v944h151v-944q0 -207 70 -313q43 -66 122 -104.5t173 -38.5q92 0 171 38.5t122 104.5q70 106 69 313v944h152v-944q0 -268 -107 -409q-68 -88 -176 -137.5t-233 -49.5t-232.5 49.5t-175.5 137.5q-106 141 -106 409zM307 1649l297 258h135l293 -258h-182l-176 151 l-180 -151h-187z" />
<glyph unicode="&#xdc;" horiz-adv-x="1341" d="M156 569v944h151v-944q0 -207 70 -313q43 -66 122 -104.5t173 -38.5q92 0 171 38.5t122 104.5q70 106 69 313v944h152v-944q0 -268 -107 -409q-68 -88 -176 -137.5t-233 -49.5t-232.5 49.5t-175.5 137.5q-106 141 -106 409zM444 1649v258h152v-258h-152zM745 1649v258 h152v-258h-152z" />
<glyph unicode="&#xdd;" horiz-adv-x="1212" d="M4 1513h168l430 -847l440 847h166l-528 -1007v-506h-152v506zM442 1737l396 237l69 -119l-395 -233z" />
<glyph unicode="&#xde;" horiz-adv-x="1212" d="M156 0v1513h137v-272h280q272 0 404 -80q180 -106 180 -379q0 -238 -151 -348q-129 -94 -408 -94h-291v-340h-151zM307 477h281q203 0 291 51q125 70 125 254q0 207 -138 277q-90 45 -344 45h-215v-627z" />
<glyph unicode="&#xdf;" d="M121 0v985q0 250 74 375q47 82 140 131t204 49q186 0 309 -122t123 -304q0 -213 -174 -317q133 -43 204.5 -143.5t71.5 -245.5q0 -186 -119.5 -310.5t-300.5 -124.5q-266 0 -381 250v-223h-151zM272 416h105q2 -133 78.5 -218t193.5 -85q115 0 193 84t78 206 q0 139 -98.5 219t-270.5 80q-25 0 -92 -4v138h18q160 0 250 75.5t90 210.5q0 121 -77.5 200t-196.5 79q-74 0 -134.5 -35t-89.5 -94q-47 -94 -47 -287v-569z" />
<glyph unicode="&#xe0;" horiz-adv-x="1398" d="M86 557q0 252 169 421t421 169q283 0 442 -225v198h152v-1120h-152v197q-90 -121 -189.5 -172.5t-242.5 -51.5q-258 0 -429 167t-171 417zM240 567q0 -193 129 -323.5t319 -130.5q180 0 305 131t125 321q0 186 -127 314.5t-311 128.5q-182 0 -311 -129.5t-129 -311.5z M416 1470l65 119l406 -225l-68 -115z" />
<glyph unicode="&#xe1;" horiz-adv-x="1398" d="M86 557q0 252 169 421t421 169q283 0 442 -225v198h152v-1120h-152v197q-90 -121 -189.5 -172.5t-242.5 -51.5q-258 0 -429 167t-171 417zM240 567q0 -193 129 -323.5t319 -130.5q180 0 305 131t125 321q0 186 -127 314.5t-311 128.5q-182 0 -311 -129.5t-129 -311.5z M555 1364l395 238l70 -119l-395 -234z" />
<glyph unicode="&#xe2;" horiz-adv-x="1398" d="M86 557q0 252 169 421t421 169q283 0 442 -225v198h152v-1120h-152v197q-90 -121 -189.5 -172.5t-242.5 -51.5q-258 0 -429 167t-171 417zM240 567q0 -193 129 -323.5t319 -130.5q180 0 305 131t125 321q0 186 -127 314.5t-311 128.5q-182 0 -311 -129.5t-129 -311.5z M356 1276l297 258h135l293 -258h-182l-176 151l-180 -151h-187z" />
<glyph unicode="&#xe3;" horiz-adv-x="1398" d="M86 557q0 252 169 421t421 169q283 0 442 -225v198h152v-1120h-152v197q-90 -121 -189.5 -172.5t-242.5 -51.5q-258 0 -429 167t-171 417zM240 567q0 -193 129 -323.5t319 -130.5q180 0 305 131t125 321q0 186 -127 314.5t-311 128.5q-182 0 -311 -129.5t-129 -311.5z M422 1391q78 100 190 100q47 0 121 -35q66 -29 98 -29q55 0 117 64l68 -94q-25 -41 -80 -71t-107 -30q-43 0 -135 45q-51 20 -82 21q-29 0 -48 -9.5t-60 -43.5l-15 -13z" />
<glyph unicode="&#xe4;" horiz-adv-x="1398" d="M86 557q0 252 169 421t421 169q283 0 442 -225v198h152v-1120h-152v197q-90 -121 -189.5 -172.5t-242.5 -51.5q-258 0 -429 167t-171 417zM240 567q0 -193 129 -323.5t319 -130.5q180 0 305 131t125 321q0 186 -127 314.5t-311 128.5q-182 0 -311 -129.5t-129 -311.5z M494 1276v258h151v-258h-151zM795 1276v258h151v-258h-151z" />
<glyph unicode="&#xe5;" horiz-adv-x="1398" d="M86 557q0 252 169 421t421 169q283 0 442 -225v198h152v-1120h-152v197q-90 -121 -189.5 -172.5t-242.5 -51.5q-258 0 -429 167t-171 417zM240 567q0 -193 129 -323.5t319 -130.5q180 0 305 131t125 321q0 186 -127 314.5t-311 128.5q-182 0 -311 -129.5t-129 -311.5z M530 1436q0 80 55.5 135t135.5 55q76 0 131 -55t55 -133t-55 -133.5t-133 -55.5t-133.5 54.5t-55.5 132.5zM614 1436q0 -41 31 -72t74 -31t73.5 31t30.5 74q0 41 -30.5 72.5t-73.5 31.5t-74 -30.5t-31 -75.5z" />
<glyph unicode="&#xe6;" horiz-adv-x="2369" d="M86 557q0 240 158 410q164 180 432 180q285 0 446 -221v194h146v-194q176 221 442 221q152 0 281 -69.5t211 -196.5q88 -141 88 -375h-1014q14 -168 141 -280.5t301 -112.5q129 0 234.5 68.5t152.5 183.5h158q-59 -176 -208.5 -284t-336.5 -108q-266 0 -450 215v-188 h-146v188q-94 -113 -199.5 -164t-244.5 -51q-252 0 -422 168t-170 416zM242 561q0 -188 127 -318t313 -130t315 130t129 318q0 195 -126 321t-318 126q-188 0 -314 -128.5t-126 -318.5zM1282 643h860q-31 166 -148.5 265.5t-281.5 99.5q-168 0 -286.5 -101.5t-143.5 -263.5z " />
<glyph unicode="&#xe7;" horiz-adv-x="1325" d="M86 563q0 244 174 414t426 170q188 0 339 -99.5t218 -267.5h-170q-133 227 -389 228q-186 0 -315 -130t-129 -319q0 -186 131 -316t319 -130q119 0 207 50t176 167h172q-168 -350 -543 -357l-38 -92q43 14 65 15q70 0 114 -46.5t44 -117.5q0 -84 -51.5 -137.5 t-130.5 -53.5q-145 0 -179 150l90 10q20 -72 91 -72q41 0 66.5 27t25.5 68q0 45 -28 74.5t-69 29.5q-45 0 -86 -49l-61 37l72 161q-238 25 -389.5 190t-151.5 396z" />
<glyph unicode="&#xe8;" horiz-adv-x="1331" d="M86 565q0 244 169 413t413 169q160 0 296 -79t212 -212q76 -135 75 -346h-1013q8 -166 136 -281.5t300 -115.5q127 0 235.5 70.5t155.5 185.5h158q-43 -131 -164 -246q-160 -150 -381 -150q-248 0 -420 171t-172 421zM242 647h858q-39 168 -155 264.5t-279 96.5 q-160 0 -276.5 -99.5t-147.5 -261.5zM373 1470l65 119l406 -225l-68 -115z" />
<glyph unicode="&#xe9;" horiz-adv-x="1331" d="M86 565q0 244 169 413t413 169q160 0 296 -79t212 -212q76 -135 75 -346h-1013q8 -166 136 -281.5t300 -115.5q127 0 235.5 70.5t155.5 185.5h158q-43 -131 -164 -246q-160 -150 -381 -150q-248 0 -420 171t-172 421zM242 647h858q-39 168 -155 264.5t-279 96.5 q-160 0 -276.5 -99.5t-147.5 -261.5zM504 1364l395 238l70 -119l-396 -234z" />
<glyph unicode="&#xea;" horiz-adv-x="1331" d="M86 565q0 244 169 413t413 169q160 0 296 -79t212 -212q76 -135 75 -346h-1013q8 -166 136 -281.5t300 -115.5q127 0 235.5 70.5t155.5 185.5h158q-43 -131 -164 -246q-160 -150 -381 -150q-248 0 -420 171t-172 421zM242 647h858q-39 168 -155 264.5t-279 96.5 q-160 0 -276.5 -99.5t-147.5 -261.5zM313 1276l297 258h135l293 -258h-182l-176 151l-180 -151h-187z" />
<glyph unicode="&#xeb;" horiz-adv-x="1331" d="M86 565q0 244 169 413t413 169q160 0 296 -79t212 -212q76 -135 75 -346h-1013q8 -166 136 -281.5t300 -115.5q127 0 235.5 70.5t155.5 185.5h158q-43 -131 -164 -246q-160 -150 -381 -150q-248 0 -420 171t-172 421zM242 647h858q-39 168 -155 264.5t-279 96.5 q-160 0 -276.5 -99.5t-147.5 -261.5zM449 1276v258h151v-258h-151zM750 1276v258h151v-258h-151z" />
<glyph unicode="&#xec;" horiz-adv-x="409" d="M-31 1470l66 119l405 -225l-67 -115zM129 0v1120h152v-1120h-152z" />
<glyph unicode="&#xed;" horiz-adv-x="409" d="M-27 1364l396 238l69 -119l-395 -234zM129 0v1120h152v-1120h-152z" />
<glyph unicode="&#xee;" horiz-adv-x="409" d="M-158 1276l297 258h135l293 -258h-182l-176 151l-180 -151h-187zM129 0v1120h152v-1120h-152z" />
<glyph unicode="&#xef;" horiz-adv-x="409" d="M-20 1276v258h151v-258h-151zM131 0v1120h152v-1120h-152zM281 1276v258h151v-258h-151z" />
<glyph unicode="&#xf0;" horiz-adv-x="1341" d="M86 561q0 246 161 412t400 166q84 0 197 -37q-129 131 -195 188l-178 -80l-74 95l162 71q-35 35 -67 64l-56 49l109 59q84 -61 139 -112l195 86l79 -90l-182 -80q115 -100 256 -252q119 -131 171 -254t52 -275q0 -264 -159.5 -431t-411.5 -167q-258 0 -428 167t-170 421z M240 563q0 -197 124.5 -323.5t317.5 -126.5q184 0 302 124.5t118 319.5t-122 323t-306 128q-186 0 -310 -127.5t-124 -317.5z" />
<glyph unicode="&#xf1;" horiz-adv-x="1249" d="M129 0v1120h152v-145q141 172 360 172q242 0 381 -174q53 -72 75.5 -158t22.5 -227v-588h-151v588q0 203 -74 299q-98 121 -272 121q-188 0 -283 -138q-59 -88 -59 -254v-616h-152zM313 1391q78 100 191 100q47 0 121 -35q66 -29 98 -29q55 0 117 64l67 -94 q-25 -41 -80 -71t-106 -30q-43 0 -135 45q-51 20 -82 21q-29 0 -48.5 -9.5t-60.5 -43.5l-14 -13z" />
<glyph unicode="&#xf2;" horiz-adv-x="1341" d="M86 567q0 246 169 413t419 167q252 0 416.5 -167t164.5 -423q0 -252 -161.5 -418t-407.5 -166q-260 0 -430 168t-170 426zM240 563q0 -197 124.5 -323.5t317.5 -126.5q182 0 301 124.5t119 317.5q0 195 -122 324t-306 129q-186 0 -310 -127.5t-124 -317.5zM367 1470 l65 119l406 -225l-68 -115z" />
<glyph unicode="&#xf3;" horiz-adv-x="1341" d="M86 567q0 246 169 413t419 167q252 0 416.5 -167t164.5 -423q0 -252 -161.5 -418t-407.5 -166q-260 0 -430 168t-170 426zM240 563q0 -197 124.5 -323.5t317.5 -126.5q182 0 301 124.5t119 317.5q0 195 -122 324t-306 129q-186 0 -310 -127.5t-124 -317.5zM506 1364 l395 238l70 -119l-396 -234z" />
<glyph unicode="&#xf4;" horiz-adv-x="1341" d="M86 567q0 246 169 413t419 167q252 0 416.5 -167t164.5 -423q0 -252 -161.5 -418t-407.5 -166q-260 0 -430 168t-170 426zM240 563q0 -197 124.5 -323.5t317.5 -126.5q182 0 301 124.5t119 317.5q0 195 -122 324t-306 129q-186 0 -310 -127.5t-124 -317.5zM307 1276 l297 258h135l293 -258h-182l-176 151l-180 -151h-187z" />
<glyph unicode="&#xf5;" horiz-adv-x="1341" d="M86 567q0 246 169 413t419 167q252 0 416.5 -167t164.5 -423q0 -252 -161.5 -418t-407.5 -166q-260 0 -430 168t-170 426zM240 563q0 -197 124.5 -323.5t317.5 -126.5q182 0 301 124.5t119 317.5q0 195 -122 324t-306 129q-186 0 -310 -127.5t-124 -317.5zM387 1391 q78 100 191 100q47 0 120 -35q66 -29 99 -29q55 0 116 64l68 -94q-25 -41 -80 -71t-106 -30q-43 0 -136 45q-51 20 -81 21q-29 0 -48.5 -9.5t-60.5 -43.5l-14 -13z" />
<glyph unicode="&#xf6;" horiz-adv-x="1341" d="M86 567q0 246 169 413t419 167q252 0 416.5 -167t164.5 -423q0 -252 -161.5 -418t-407.5 -166q-260 0 -430 168t-170 426zM240 563q0 -197 124.5 -323.5t317.5 -126.5q182 0 301 124.5t119 317.5q0 195 -122 324t-306 129q-186 0 -310 -127.5t-124 -317.5zM444 1276v258 h152v-258h-152zM745 1276v258h152v-258h-152z" />
<glyph unicode="&#xf7;" horiz-adv-x="1241" d="M104 547v151h1033v-151h-1033zM530 229v179h179v-179h-179zM530 838v178h179v-178h-179z" />
<glyph unicode="&#xf8;" horiz-adv-x="1337" d="M86 557q0 246 171 418t415 172q164 0 299 -84l116 154l109 -87l-115 -151q170 -156 170 -404q0 -262 -162.5 -432t-416.5 -170q-150 0 -307 84l-107 -137l-108 82l104 137q-92 106 -130 201.5t-38 216.5zM240 545q0 -156 100 -297l549 710q-98 49 -215 50 q-184 0 -309 -133t-125 -330zM446 162q109 -49 216 -49q193 0 314.5 129t121.5 331q0 174 -101 299z" />
<glyph unicode="&#xf9;" horiz-adv-x="1245" d="M129 516v604h152v-604q0 -174 53 -262q39 -68 113.5 -104.5t168.5 -36.5q180 0 281 139q68 100 68 293v575h151v-1120h-151v174q-109 -201 -361 -201q-258 0 -387 179q-88 120 -88 364zM319 1470l66 119l406 -225l-68 -115z" />
<glyph unicode="&#xfa;" horiz-adv-x="1245" d="M129 516v604h152v-604q0 -174 53 -262q39 -68 113.5 -104.5t168.5 -36.5q180 0 281 139q68 100 68 293v575h151v-1120h-151v174q-109 -201 -361 -201q-258 0 -387 179q-88 120 -88 364zM459 1364l395 238l70 -119l-396 -234z" />
<glyph unicode="&#xfb;" horiz-adv-x="1245" d="M129 516v604h152v-604q0 -174 53 -262q39 -68 113.5 -104.5t168.5 -36.5q180 0 281 139q68 100 68 293v575h151v-1120h-151v174q-109 -201 -361 -201q-258 0 -387 179q-88 120 -88 364zM260 1276l297 258h135l293 -258h-182l-176 151l-181 -151h-186z" />
<glyph unicode="&#xfc;" horiz-adv-x="1245" d="M129 516v604h152v-604q0 -174 53 -262q39 -68 113.5 -104.5t168.5 -36.5q180 0 281 139q68 100 68 293v575h151v-1120h-151v174q-109 -201 -361 -201q-258 0 -387 179q-88 120 -88 364zM397 1276v258h152v-258h-152zM698 1276v258h152v-258h-152z" />
<glyph unicode="&#xfd;" horiz-adv-x="1097" d="M18 1120h166l355 -893l379 893h161l-647 -1513h-162l183 430zM399 1364l396 238l69 -119l-395 -234z" />
<glyph unicode="&#xfe;" horiz-adv-x="1396" d="M129 -393v1906h152v-585q145 219 440 219q250 0 420 -170t170 -420q0 -246 -172 -415t-422 -169q-287 0 -436 220v-586h-152zM270 565q0 -195 127 -323.5t320 -128.5q186 0 313 128t127 316q0 193 -127 322t-315 129q-186 0 -315.5 -128.5t-129.5 -314.5z" />
<glyph unicode="&#xff;" horiz-adv-x="1097" d="M18 1120h166l355 -893l379 893h161l-647 -1513h-162l183 430zM317 1276v258h152v-258h-152zM618 1276v258h152v-258h-152z" />
<glyph unicode="&#x152;" horiz-adv-x="2445" d="M90 760q0 334 226.5 557t568.5 223q213 0 380 -85t261 -243v301h805v-137h-654v-542h631v-138h-631v-559h654v-137h-805v309q-195 -336 -615 -336q-354 0 -587.5 223.5t-233.5 563.5zM244 768q0 -283 186 -469t469 -186q272 0 450.5 184t178.5 465q0 279 -181.5 459 t-461.5 180q-291 0 -471 -193q-78 -86 -124 -203.5t-46 -236.5z" />
<glyph unicode="&#x153;" horiz-adv-x="2328" d="M86 561q0 248 167 417t411 169q326 0 505 -299q174 299 504 299q244 0 410 -162t166 -399q0 -8 -4 -78h-1000q8 -133 94 -236q137 -160 349 -159q262 0 385 254h151q-37 -141 -172 -265q-147 -129 -356 -129q-176 0 -315.5 82t-211.5 228q-92 -162 -209.5 -236 t-281.5 -74q-250 0 -421 170t-171 418zM240 559q0 -188 126 -317t312 -129q178 0 299 129t121 317q0 193 -123 321t-307.5 128t-306 -128t-121.5 -321zM1245 645h858q-27 162 -147.5 262.5t-286.5 100.5q-156 0 -269.5 -96.5t-154.5 -266.5z" />
<glyph unicode="&#x178;" horiz-adv-x="1212" d="M4 1513h168l430 -847l440 847h166l-528 -1007v-506h-152v506zM381 1649v258h151v-258h-151zM682 1649v258h152v-258h-152z" />
<glyph unicode="&#x2c6;" horiz-adv-x="1028" d="M152 1276l297 258h135l293 -258h-183l-176 151l-180 -151h-186z" />
<glyph unicode="&#x2dc;" horiz-adv-x="899" d="M154 1391q78 100 190 100q47 0 121 -35q66 -29 98 -29q55 0 117 64l68 -94q-25 -41 -80.5 -71t-106.5 -30q-43 0 -135 45q-51 20 -82 21q-29 0 -48.5 -9.5t-59.5 -43.5l-15 -13z" />
<glyph unicode="&#x3bc;" horiz-adv-x="1245" d="M129 -393v1513h152v-575q0 -141 21.5 -210t86.5 -128q102 -96 240 -96q176 0 272 141q63 98 64 293v575h151v-1120h-151v174q-102 -201 -336 -201q-227 0 -348 201v-567h-152z" />
<glyph unicode="&#x2000;" horiz-adv-x="1247" />
<glyph unicode="&#x2001;" horiz-adv-x="2494" />
<glyph unicode="&#x2002;" horiz-adv-x="1247" />
<glyph unicode="&#x2003;" horiz-adv-x="2494" />
<glyph unicode="&#x2004;" horiz-adv-x="831" />
<glyph unicode="&#x2005;" horiz-adv-x="622" />
<glyph unicode="&#x2006;" horiz-adv-x="415" />
<glyph unicode="&#x2007;" horiz-adv-x="415" />
<glyph unicode="&#x2008;" horiz-adv-x="311" />
<glyph unicode="&#x2009;" horiz-adv-x="497" />
<glyph unicode="&#x200a;" horiz-adv-x="137" />
<glyph unicode="&#x2010;" horiz-adv-x="679" d="M63 477v129h555v-129h-555z" />
<glyph unicode="&#x2011;" horiz-adv-x="679" d="M63 477v129h555v-129h-555z" />
<glyph unicode="&#x2012;" horiz-adv-x="679" d="M63 477v129h555v-129h-555z" />
<glyph unicode="&#x2013;" horiz-adv-x="1024" d="M0 477v129h1024v-129h-1024z" />
<glyph unicode="&#x2014;" horiz-adv-x="2048" d="M0 477v129h2048v-129h-2048z" />
<glyph unicode="&#x2018;" horiz-adv-x="718" d="M201 1513h151l180 -393h-151z" />
<glyph unicode="&#x2019;" horiz-adv-x="718" d="M186 1120l181 393h151l-180 -393h-152z" />
<glyph unicode="&#x201a;" horiz-adv-x="724" d="M182 -137l180 395h152l-180 -395h-152z" />
<glyph unicode="&#x201c;" horiz-adv-x="1028" d="M197 1513h151l180 -393h-151zM500 1513h151l180 -393h-151z" />
<glyph unicode="&#x201d;" horiz-adv-x="991" d="M178 1120l180 393h152l-180 -393h-152zM473 1120l180 393h152l-180 -393h-152z" />
<glyph unicode="&#x201e;" horiz-adv-x="1028" d="M182 -137l180 395h152l-180 -395h-152zM483 -137l181 395h151l-180 -395h-152z" />
<glyph unicode="&#x2022;" horiz-adv-x="1241" d="M242 621q0 158 110.5 268t268 110t268 -109.5t110.5 -266.5q0 -160 -110.5 -270.5t-272.5 -110.5q-154 0 -264 111.5t-110 267.5z" />
<glyph unicode="&#x2026;" horiz-adv-x="2048" d="M266 0v258h152v-258h-152zM948 0v258h152v-258h-152zM1630 0v258h152v-258h-152z" />
<glyph unicode="&#x202f;" horiz-adv-x="497" />
<glyph unicode="&#x2039;" horiz-adv-x="514" d="M82 614l229 408l121 -66l-190 -342l190 -344l-121 -67z" />
<glyph unicode="&#x203a;" horiz-adv-x="514" d="M82 270l190 344l-190 342l121 66l229 -408l-229 -411z" />
<glyph unicode="&#x205f;" horiz-adv-x="622" />
<glyph unicode="&#x20ac;" d="M-66 819l50 121h153q29 160 66 253t96 165q154 182 424 182q139 0 248 -59q94 -51 203 -195l-64 -141q-100 147 -183 203.5t-202 56.5q-223 0 -336 -176q-55 -86 -98 -289h719l-52 -121h-679q-4 -70 -5 -78q0 -35 2 -63h621l-49 -121h-561q29 -217 139.5 -334t286.5 -117 q164 0 284 99q31 25 101 88v-166q-82 -82 -171 -118t-212 -36q-285 0 -436 203q-59 78 -90 159t-56 222h-196l49 121h139q-2 29 -2 63q0 8 4 78h-193z" />
<glyph unicode="&#x2122;" horiz-adv-x="2048" d="M129 1395v118h717v-118h-295v-699h-131v699h-291zM944 696v817h223l260 -581l277 581h217v-817h-131v705l-320 -705h-86l-309 707v-707h-131z" />
<glyph unicode="&#xe000;" horiz-adv-x="1120" d="M0 1120h1120v-1120h-1120v1120z" />
<glyph unicode="&#xfb01;" horiz-adv-x="997" d="M27 983v137h174q-6 393 430 393v-137q-156 -2 -218.5 -59t-60.5 -197h279v-137h-279v-983h-151v983h-174zM717 0v1120h151v-1120h-151zM717 1255v258h151v-258h-151z" />
<glyph unicode="&#xfb02;" horiz-adv-x="993" d="M27 983v137h174q-6 393 430 393v-137q-156 -2 -218.5 -59t-60.5 -197h279v-137h-279v-983h-151v983h-174zM713 0v1513h151v-1513h-151z" />
<glyph unicode="&#xfb03;" horiz-adv-x="1695" d="M1415 0v1120h152v-1120h-152zM1415 1255v258h152v-258h-152zM1567 1513v93h186v-93h-186zM3015 -211q63 61 139 64h2q76 -2 139 -64q-33 -33 -65.5 -51.5t-71.5 -18.5h-4h-2q-39 0 -71.5 18.5t-65.5 51.5zM3035 -211q6 -6 10 -8q25 16 50.5 27.5t58.5 11.5h2 q31 0 57.5 -11.5t50.5 -27.5q4 2 9 8q-57 49 -117 49h-2q-60 0 -119 -49zM3058 -229q31 -25 61 -33q-12 14 -12 33q0 16 12 30q-30 -7 -61 -30zM3121 -229.5q0 -14.5 10 -24.5t23 -10q14 0 24.5 10t10.5 24.5t-10.5 23.5t-24.5 9q-12 0 -22.5 -9t-10.5 -23.5zM3133 -229 q0 8 6.5 14t14.5 6q10 0 16 -6t6 -14q0 -10 -6 -16.5t-16 -6.5q-8 0 -14.5 6.5t-6.5 16.5zM3148 -230q0 -3 2 -5.5t4 -2.5q4 0 6 2.5t2 5.5t-2 5t-5 2t-5 -2t-2 -5zM3191 -199q12 -14 12 -30q0 -18 -12 -33q31 8 61 33q-30 22 -61 30zM9167 172q61 63 137 64h2q78 0 139 -64 q-33 -33 -65.5 -51.5t-71.5 -18.5h-2h-2q-39 0 -72.5 18.5t-64.5 51.5zM9187 172l8 -8q25 18 51.5 29.5t57.5 11.5h2q33 0 58.5 -11.5t50.5 -29.5q4 2 10 8q-57 49 -119 49h-2q-60 0 -117 -49zM9208 154q31 -23 63 -31q-12 12 -12 31q0 16 10 30q-28 -7 -61 -30zM9271 153.5 q0 -14.5 10.5 -23.5t24.5 -9t23.5 9t9.5 23.5t-9.5 24.5t-23.5 10t-24.5 -10t-10.5 -24.5zM9283 154q0 10 6.5 16t16.5 6t16 -6t6 -16q0 -8 -7 -15.5t-15 -7.5q-10 0 -16.5 7.5t-6.5 15.5zM9298 154q0 -4 2 -6.5t6 -2.5t6 2.5t2 6.5t-2 6t-6 2t-6 -2t-2 -6zM9341 123 q33 8 63 31q-33 23 -61 30q10 -14 10 -30q0 -19 -12 -31zM676 983v137h174v11q0 382 430 382v-137q-156 -2 -218.5 -59t-60.5 -197h279v-137h-279v-983h-151v983h-174zM33 983v137h174v11q0 382 430 382v-137q-156 -2 -218.5 -59t-60.5 -197h279v-137h-279v-983h-151v983 h-174z" />
<glyph unicode="&#xfb04;" horiz-adv-x="1695" d="M1415 0v1513h152v-1513h-152zM676 983v137h174v11q0 382 430 382v-137q-156 -2 -218.5 -59t-60.5 -197h279v-137h-279v-983h-151v983h-174zM33 983v137h174v11q0 382 430 382v-137q-156 -2 -218.5 -59t-60.5 -197h279v-137h-279v-983h-151v983h-174z" />
</font>
</defs>
</svg>
