<?xml version="1.0" standalone="no"?>
<!DOCTYPE svg PUBLIC "-//W3C//DTD SVG 1.1//EN" "http://www.w3.org/Graphics/SVG/1.1/DTD/svg11.dtd" >
<svg xmlns="http://www.w3.org/2000/svg">
<metadata>
This is a custom SVG webfont generated by Font Squirrel.
Copyright   : Copyright c HammerfontsSpeculoosOpen Source Publishing 20022011 All rights reserved
</metadata>
<defs>
<font id="CrickxSharkCut" horiz-adv-x="1288" >
<font-face units-per-em="2048" ascent="1638" descent="-410" />
<missing-glyph horiz-adv-x="768" />
<glyph unicode=" "  horiz-adv-x="768" />
<glyph unicode="&#x09;" horiz-adv-x="768" />
<glyph unicode="&#xa0;" horiz-adv-x="768" />
<glyph unicode="!" horiz-adv-x="698" d="M96 0l49 274h281l-43 -274h-287zM156 379l159 985h289l-155 -985h-293z" />
<glyph unicode="&#x22;" horiz-adv-x="956" d="M121 1034l26 330h322l-104 -578l-166 -2l39 250h-117zM510 1034l27 330l321 -2l-104 -576l-172 -2l45 250h-117z" />
<glyph unicode="#" horiz-adv-x="1310" d="M115 176l41 240h155l21 143h-158l39 234h156l26 170h252l-26 -170h149l23 170h254l-27 -170h143l-39 -234h-540l-23 -143h146l18 131l254 -2l-23 -129h146l-39 -240h-145l-29 -174h-254l31 174h-148l-26 -174h-254l30 174h-153z" />
<glyph unicode="$" horiz-adv-x="1013" d="M74 164q2 18 8 55q4 31 12 85t25 140l258 2q-6 -20 -8 -33.5t-4.5 -23.5t-2.5 -18q0 -25 14.5 -52.5t63.5 -27.5q39 0 61.5 20.5t34 49t14.5 60.5t7 54q2 25 -24.5 52.5t-68.5 57t-92 61.5t-91 62.5t-68 61.5t-20 59l14 121q8 55 29 123q12 39 35.5 73t56 60.5t69.5 46 t74 33.5l25 180h290l-28 -170q63 -23 113.5 -66.5t66.5 -109.5q2 -20 4 -51q2 -27 1 -66.5t-7 -93.5l-250 2q6 70 -20.5 93.5t-73.5 23.5q-37 0 -60.5 -12t-36 -30.5t-16.5 -38t-6 -32.5q-6 -41 21.5 -71.5t71.5 -58t98.5 -57.5t100.5 -65.5t76.5 -85t28.5 -114.5 q-10 -66 -23 -130.5t-34 -133.5q-14 -47 -85 -100.5t-177 -82.5l-25 -157h-286l24 157q-96 27 -145 73t-45 75z" />
<glyph unicode="%" horiz-adv-x="1290" d="M100 96l521 752l-91 211q10 2 19 10q6 6 12 17.5t6 27.5q0 25 -15 40t-37.5 15t-40 -14t-17.5 -41q0 -33 21.5 -46t35.5 -9l88 -215q-18 -12 -42.5 -21.5t-49.5 -9.5q-51 0 -105.5 17.5t-98.5 53.5t-72.5 90t-28.5 128q0 135 87 204.5t222 69.5q92 0 148.5 -33.5 t87 -78.5t41 -88t10.5 -64l182 264l227 -131l-475 -751l103 -228q-4 -2 -7 -6q-4 -8 -4 -18q0 -20 15.5 -39t42.5 -19q25 0 41 21.5t16 36.5q0 20 -13.5 37.5t-37.5 17.5q-10 0 -18.5 -3t-12.5 -7q-6 -4 -10 -8l-96 223q10 12 32 20q16 8 46 14.5t75 6.5q66 0 116 -25.5 t84 -67.5t51.5 -93.5t17.5 -100.5q0 -43 -17.5 -92t-53.5 -91t-93.5 -70t-137.5 -28q-98 0 -158.5 42t-92 96.5t-41 105.5t-4.5 68l-240 -338z" />
<glyph unicode="&#x26;" horiz-adv-x="1257" d="M72 362q23 123 58.5 197t72.5 115q41 47 90 67q12 -23 30.5 -52.5t41 -61t48 -62t50.5 -51.5q-29 -33 -39 -92q-2 -8 1 -21.5t12 -26t24.5 -20.5t40.5 -8q53 0 77.5 20.5t47.5 43.5q-23 10 -49 30q-23 16 -54.5 43t-68.5 66q-39 37 -77 91t-68.5 106.5t-49 96.5t-18.5 62 q0 35 17 99.5t34 148.5q10 51 51 90t93 66.5t108.5 42t97.5 14.5q68 0 126 -18.5t100 -46t65.5 -60.5t23.5 -63q0 -33 -3 -80t-19 -131q-10 -55 -47 -105.5t-78 -89.5q-47 -45 -104 -82q-23 27 -53.5 78t-45.5 92q29 12 73 38t60 81q2 8 2 21.5t-5 26.5t-18 23.5t-40 10.5 q-51 0 -81 -18.5t-44 -88.5q-4 -23 12.5 -62.5t41 -81.5t50 -79t37.5 -51q18 -23 41 -39l43 -29q23 -14 47 -24l244 182l10 -213l-80 -102l123 -62l-10 -211q-35 10 -77 24.5t-79 29.5l-88 34l-63 -75q-39 -45 -92 -89.5t-122 -76t-153 -31.5q-74 0 -147.5 17.5t-128.5 59.5 t-82.5 112.5t-9.5 174.5z" />
<glyph unicode="'" horiz-adv-x="550" d="M121 1034l18 330h330l-104 -578l-177 -2l39 250h-106z" />
<glyph unicode="(" horiz-adv-x="647" d="M49 598q0 94 20.5 195.5t60.5 201t97.5 189.5t131 161.5t163.5 119.5t197 63l-47 -309q-80 -18 -142.5 -92t-105.5 -169.5t-66.5 -193.5t-23.5 -166q0 -55 7 -116.5t24.5 -120t47 -110.5t74.5 -85l-45 -289q-106 45 -181 123t-123 175t-68.5 205.5t-20.5 217.5z" />
<glyph unicode=")" horiz-adv-x="761" d="M49 -123l49 309q80 18 142.5 92t105.5 169.5t66.5 193.5t23.5 166q0 55 -7 116.5t-24.5 120t-47 109.5t-74.5 86l45 289q106 -45 181 -123t123 -175t68.5 -207t20.5 -216q0 -94 -20.5 -195.5t-60.5 -201t-97.5 -189.5t-132 -161.5t-165 -120t-196.5 -62.5z" />
<glyph unicode="*" horiz-adv-x="1114" d="M162 303q-2 -2 4 34t14 77l19 110h180l-103 162l205 123l117 -184l143 188l187 -139l-115 -139l184 2l-34 -222h-164l78 -135l-197 -145l-109 188l-133 -186l-192 139l106 127q-82 -2 -135 0t-55 0z" />
<glyph unicode="+" horiz-adv-x="954" d="M66 246l38 243h273l41 240h260l-39 -233h252l-41 -246h-254l-45 -252l-260 2l43 246h-268z" />
<glyph unicode="," horiz-adv-x="598" d="M98 0l58 324h305q2 -66 0 -129q-2 -53 -6 -111.5t-13 -99.5q-6 -35 -14 -59.5t-17.5 -48t-21.5 -50.5t-27 -66l-133 -2l50 242h-181z" />
<glyph unicode="-" horiz-adv-x="712" d="M80 221l43 273h502l-43 -273h-502z" />
<glyph unicode="." horiz-adv-x="559" d="M102 0l48 301h325l-49 -301h-324z" />
<glyph unicode="/" horiz-adv-x="1052" d="M102 55l535 1327l291 -100l-527 -1329z" />
<glyph unicode="0" horiz-adv-x="1017" d="M49 264l103 719q41 123 108.5 197.5t144 115.5t151.5 54.5t128 13.5l-59 -377q-10 4 -20.5 5t-20.5 3l-25 4q-35 0 -66.5 -31.5t-37.5 -70.5l-9 -47q-6 -37 -12 -86l-16 -102l-15 -101l-12 -80q-6 -33 -6 -37q-2 -20 14.5 -46.5t55.5 -28.5q20 2 39 8q16 4 28.5 12 t16.5 23l161 950q49 0 98.5 -19.5t87.5 -55.5t60.5 -85t16.5 -108q-2 -10 -8.5 -55.5l-16.5 -112.5l-25 -146l-26 -162l-27 -159q-14 -76 -26 -133q-6 -31 -14.5 -59.5t-20.5 -51.5q-25 -47 -80 -86t-117.5 -67.5t-122 -45t-96.5 -16.5q-49 0 -108.5 18.5t-110.5 52t-84 83 t-31 110.5z" />
<glyph unicode="1" horiz-adv-x="860" d="M37 803l74 291l354 270h317l-241 -1364l-377 2l180 903z" />
<glyph unicode="2" horiz-adv-x="1038" d="M31 0q45 205 151.5 373t253.5 305q29 29 76 61.5t91 69.5t77 77t33 85q0 20 -11.5 36.5t-28 26.5t-32.5 16.5t-27 6.5q-20 0 -39.5 -5t-54.5 -40q0 -2 -22.5 -32t-46.5 -95l-238 149q16 55 47 113.5t83 107t130 79t191 30.5q63 0 126.5 -19.5t114.5 -61.5t83 -109.5 t32 -161.5q0 -92 -47 -169t-113 -145l-92 -90q-53 -53 -102 -110q-49 -59 -84 -114.5t-37 -100.5l319 2l-53 -285h-780z" />
<glyph unicode="3" horiz-adv-x="1052" d="M74 240q0 12 4 39q4 23 9 61.5t15 99.5l256 11q-10 -55 -3 -82t24 -37q14 -10 31 -10h32q8 0 21.5 3t28 12t25.5 23.5t15 38.5q4 29 13 60l12 61q8 33 12 66q0 12 -3 28.5t-14 32t-29.5 25.5t-47.5 10q-18 0 -37 -4q-37 -6 -76 -31l-182 164l320 256l-301 -2l39 299h731 l-43 -299l-160 -156q47 -25 73.5 -49t37.5 -47q12 -25 12 -49q-8 -72 -25.5 -201t-48.5 -282q-29 -147 -138.5 -214t-322.5 -67q-102 0 -159.5 31.5t-84 73.5t-31.5 81.5t-5 53.5z" />
<glyph unicode="4" horiz-adv-x="1112" d="M8 272l55 293l596 799h379l-147 -893h115l-33 -205h-121l-49 -264l-365 -2l140 829l-234 -303h168l-43 -254h-461z" />
<glyph unicode="5" horiz-adv-x="1032" d="M57 199q0 53 3 89t7.5 61.5t8.5 45.5l8 39h281q-2 -14 -3.5 -25.5t-1.5 -19.5v-16q-4 -33 18.5 -47.5t55.5 -14.5q20 2 41 11q16 8 31.5 22t21.5 43l33 191q2 8 2 23t-7 30.5t-23.5 27t-47.5 11.5q-20 -2 -39 -11q-16 -8 -33.5 -23t-31.5 -44h-270l118 772h736l-50 -299 l-391 -2l-22 -156q29 14 74 21.5t71 3.5q2 0 21.5 -2t48 -10.5t61.5 -22.5t58.5 -37.5t40 -59.5t6.5 -85l-62 -396q-12 -86 -56 -147t-108.5 -99t-144.5 -56.5t-166 -18.5q-4 0 -49 8t-98.5 30.5t-97.5 62t-44 100.5z" />
<glyph unicode="6" horiz-adv-x="1011" d="M57 250l54 352q23 150 41 250l38 201q16 96 66.5 156.5t115 95t135.5 47t128 12.5q100 0 161.5 -24.5t94.5 -57.5t43 -66.5t10 -52.5q2 -27 -2 -63l-10 -76q-6 -47 -17 -109h-249q2 14 4 24.5t2 16.5v13q0 8 -3 23.5t-10.5 30.5t-21.5 25.5t-37 10.5q-59 0 -80.5 -32 t-25.5 -58l-33 -181l-30.5 -181l-31.5 -201q-4 -31 4.5 -50.5t23.5 -32t33.5 -17.5t31 -5t30 3t33.5 16.5t30.5 40t20.5 73.5q2 20 0 44t-19.5 42.5t-53 26.5t-97.5 0l27 155q47 18 96 22.5t96 4.5q18 0 56.5 -11t76 -35t63.5 -61.5t19 -89.5l-30 -233q-6 -51 -43 -104.5 t-97.5 -96.5t-140.5 -70.5t-172 -27.5q-57 0 -116.5 13.5t-107.5 43t-78 76.5t-28 117z" />
<glyph unicode="7" horiz-adv-x="1040" d="M-12 0l555 1047h-332l47 317h758l-45 -309l-604 -1055h-379z" />
<glyph unicode="8" horiz-adv-x="1030" d="M29 207q12 104 21 171.5t16 106.5l12 68q8 47 47 82l70 63l86 35l129 49l120 54q55 23 66 32q10 8 16 25.5t10.5 36t6.5 35t2 22.5q0 43 -18.5 65.5t-65.5 22.5q-33 0 -55.5 -15.5t-36 -38t-19.5 -47t-6 -44.5q0 -29 11.5 -61.5t21.5 -49.5l-275 -106q-37 35 -50 94 t-13 123q2 100 33.5 180t91 137.5t143.5 88t189 30.5q166 0 256 -81t90 -230q0 -51 -6.5 -111.5t-23.5 -116t-48 -99.5t-80 -62q-8 -4 -39 -14.5t-72 -26t-87 -30.5t-85 -30l-65 -22q-27 -10 -29 -13q-31 -14 -42 -38.5t-11 -55.5q0 -43 21.5 -70.5t68.5 -27.5q39 0 63.5 12 t39 30.5t19.5 39t5 37.5q0 4 -8 35.5t-29 66.5l266 96q45 -43 60.5 -102t15.5 -115q0 -111 -40 -194.5t-110.5 -140t-166.5 -85t-205 -28.5q-2 0 -25.5 1t-57.5 7t-74 20.5t-73.5 38t-57 60.5t-23.5 90z" />
<glyph unicode="9" horiz-adv-x="1017" d="M39 252q0 20 2 47l4 55q4 31 10 72l262 2q-2 -14 -3 -22.5t-1 -14.5v-12q0 -23 20.5 -51.5t61.5 -28.5q33 0 55.5 11.5t36 27.5t18.5 33.5t7 29.5q0 8 6 48l14 92l21 116l18 119l17 101q8 43 10 57q8 53 -19.5 83t-74.5 30q-49 0 -83 -31t-44 -96q-6 -37 5 -63t29.5 -41 t40 -22.5t36 -7.5t26.5 2q18 2 45 11l-24 -158q-25 -10 -49.5 -13t-45.5 -7q-23 -4 -47 -5q-98 0 -155.5 26t-85 58.5t-35.5 63.5t-8 43q0 14 2 42t7 60.5t11 65.5t12 57q18 84 64.5 146.5t110 103.5t139 61.5t151.5 20.5q119 0 185.5 -37t98.5 -84t38 -95t4 -69l-10 -75 q-6 -57 -17 -140l-24 -174l-25 -174l-20 -139q-10 -61 -15 -78q-4 -23 -28.5 -72t-75.5 -99t-133 -88t-201 -38t-187.5 32t-103.5 75t-44 84t-9 59z" />
<glyph unicode=":" horiz-adv-x="598" d="M84 0l51 303h318l-52 -303h-317zM172 512l51 303h318l-52 -303h-317z" />
<glyph unicode=";" horiz-adv-x="598" d="M61 0h181l-49 -242l133 2q14 39 26.5 66t21.5 50.5t17 48t15 59.5q8 41 12 99t6 112q2 63 0 129h-305zM145 512l52 303h317l-51 -303h-318z" />
<glyph unicode="&#x37e;" horiz-adv-x="598" d="M61 0h181l-49 -242l133 2q14 39 26.5 66t21.5 50.5t17 48t15 59.5q8 41 12 99t6 112q2 63 0 129h-305zM145 512l52 303h317l-51 -303h-318z" />
<glyph unicode="&#x3c;" horiz-adv-x="890" d="M37 555l680 434l-60 -342l-202 -131l166 -192l-54 -324z" />
<glyph unicode="=" horiz-adv-x="794" d="M123 119l43 266h502l-43 -266h-502zM180 467l43 266h502l-43 -266h-502z" />
<glyph unicode="&#x3e;" horiz-adv-x="847" d="M78 0l59 342l203 131l-166 193l53 323l531 -555z" />
<glyph unicode="?" horiz-adv-x="1034" d="M104 1026q8 39 41 96.5t89.5 111.5t134 92t176.5 38q139 0 217 -47t115.5 -109.5t46 -123t8.5 -87.5q0 -102 -46 -180t-128 -160q-63 -61 -117.5 -134.5t-81.5 -192.5h-334q18 98 48 179t79 134l74 76q43 43 82 86t65.5 81t26.5 60q0 45 -28.5 64.5t-53.5 19.5 q-31 0 -58.5 -18.5t-49 -44t-36 -53t-20.5 -46.5zM174 0l43 279h334l-51 -279h-326z" />
<glyph unicode="@" horiz-adv-x="1699" d="M123 662q70 358 281.5 542.5t590.5 184.5q61 0 139 -11.5t156 -41t148.5 -81t120 -130t70 -190.5t-4.5 -261q-10 -59 -28.5 -133t-56.5 -138.5t-99.5 -108.5t-157.5 -44q-86 0 -145.5 24.5t-94.5 69.5q-10 16 -21 44l-22 56q-12 33 -24 70q0 6 6 48t14 89q8 55 23 123 h-94q-43 0 -70 -49t-47 -182q-4 -18 4 -30.5t19.5 -20t24.5 -10.5t21.5 -3t22.5 4l29 9l33 12l67 -166q-10 -6 -34.5 -16.5t-60.5 -20.5t-80 -17.5t-93 -7.5q-47 0 -96.5 18.5t-88 55.5t-58 92.5t-5.5 126.5q27 137 77 216t109.5 118t123 48.5t118.5 9.5h348 q-18 -109 -31 -197q-6 -37 -11 -74t-10 -66.5t-7 -48t-2 -20.5q0 -12 8 -31.5t39 -19.5q14 0 28.5 27.5t26.5 71.5t21.5 98.5t17.5 107.5q8 68 -6 123t-58 96t-119 63.5t-186 22.5q-72 0 -159.5 -12t-171.5 -63.5t-153 -155t-101 -283.5q-23 -129 13 -214t95.5 -135 t127 -70.5t106.5 -20.5q33 0 74.5 9t82.5 19q45 12 95 31l133 -156q-51 -41 -115 -71q-55 -27 -130 -48.5t-167 -21.5q-154 0 -278.5 61.5t-206.5 165t-116 237t-5 276.5z" />
<glyph unicode="A" d="M-72 0l719 1364h395l103 -1364l-344 2l-64 834l-143 -344h154l16 -252h-315l-123 -240h-398z" />
<glyph unicode="B" horiz-adv-x="1204" d="M59 -2l242 1364h346l-174 -1032q41 -4 81 -5h7q36 0 72 9q35 10 60.5 37.5t25.5 77.5q0 2 -6 19t-25.5 35.5t-55.5 32.5q-22 8 -54 8q-20 0 -43 -3l43 278q61 16 97 42t55.5 49.5t25.5 41t6 19.5q0 27 -11.5 44t-26.5 27.5t-30.5 13.5t-23.5 3h-49l51 303h239 q45 -10 87 -38t75 -70t52.5 -99t19.5 -125q-4 -55 -29 -112q-23 -49 -69 -109.5t-132 -120.5q76 -51 116 -113.5t61 -119.5q23 -68 26 -136q0 -80 -39 -137t-90 -96t-101 -60.5t-75 -27.5h-754z" />
<glyph unicode="C" horiz-adv-x="1013" d="M51 248q0 10 2 30.5t6 49.5q8 57 23 139l29 168l30 178q16 88 33 162q6 29 14 53l13 41q25 72 75 126t114.5 91t136 55.5t137.5 18.5h22q20 -2 52 -10.5t69 -24.5t69.5 -47t55 -77t26.5 -114l-30 -210l-289 -11q3 25 3 44q0 23 -4 39q-7 30 -20.5 45.5t-26.5 19.5t-18 4 q-35 0 -58 -21.5t-40 -50.5l-49 -246q-27 -127 -47 -243v-25q0 -16 7 -33.5t21.5 -30t41.5 -12.5q37 0 60 15.5t37.5 39t21.5 51t10 54.5q2 10 2 16v17q20 0 83.5 4t213.5 12q-2 -20 -5.5 -41.5t-7.5 -40.5q-16 -84 -47 -171t-84 -156.5t-135 -113.5t-201 -44 q-104 0 -171.5 28.5t-106.5 68.5t-53.5 82t-14.5 71z" />
<glyph unicode="D" horiz-adv-x="1095" d="M41 0l223 1364l303 -2l-147 -1028q27 6 56.5 16t56 28.5t48 50.5t31.5 81q12 55 24.5 123.5t23 135.5t15.5 123t5 85q0 25 -13.5 42t-34 27.5t-44 15.5t-43.5 5l45 297h186q92 -16 141.5 -71.5t73 -130.5t26.5 -158.5t3 -157.5q-4 -250 -79 -428t-181 -299 q-68 -55 -159 -81t-189 -34q-79 -7 -157 -6h-39q-97 2 -175 2z" />
<glyph unicode="E" horiz-adv-x="925" d="M57 0l222 1364l589 -2l-37 -293h-284l-39 -260h283l-43 -262h-291l-43 -248l295 2l-58 -301h-594z" />
<glyph unicode="F" horiz-adv-x="1007" d="M78 -2l104 651l39 244l37 221l25 164q10 68 12 84h633l-39 -309l-307 2l-33 -224h305l-43 -286h-311l-97 -545z" />
<glyph unicode="G" horiz-adv-x="1030" d="M78 301v43q0 20 4 47l41 293q20 145 43 287q31 98 85 168.5t118.5 114.5t132 65.5t123.5 21.5q100 0 160.5 -29.5t95 -72.5t50 -90t21.5 -80q0 -25 -2 -55l-4 -64q-4 -39 -10 -84h-283q2 12 3 21.5t1 15.5v15q0 12 -5 28.5t-15 32.5t-27.5 27.5t-38.5 11.5 q-41 0 -72.5 -40t-37.5 -89q-2 -16 -6 -56t-11 -94l-12 -108l-12 -105l-7 -81q-3 -34 -3 -39q0 -27 21.5 -45.5t49.5 -18.5l21 2q23 4 48 20.5t45.5 53.5t20.5 102h-67l18 158h344l-24 -164q-4 -31 -9 -61l-10 -56l-4 -41q-2 -14 -2 -16q-45 -174 -153.5 -266t-300.5 -92 q-123 0 -190.5 42t-98.5 97t-36 107.5t-5 72.5z" />
<glyph unicode="H" horiz-adv-x="1150" d="M63 -2l222 1366l305 -2l-86 -565h180l92 567l316 -2l-218 -1362h-307l80 479h-207l-82 -479z" />
<glyph unicode="I" horiz-adv-x="655" d="M74 -2l225 1364l307 2l-229 -1366h-303z" />
<glyph unicode="J" horiz-adv-x="1067" d="M16 227q-4 31 -3 62q0 56 12 114q18 90 41 170l272 62q-16 -66 -24.5 -108t-12.5 -66q-6 -29 -4 -43q0 -47 36 -71.5t68 -24.5q31 0 59.5 18t33.5 41l133 713l-221 -2l32 272h566l-168 -1020q-8 -55 -35 -117.5t-77 -115t-126 -87t-182 -34.5q-63 0 -131 9t-124.5 34.5 t-96.5 71.5t-48 122z" />
<glyph unicode="K" horiz-adv-x="1171" d="M51 0l244 1364l330 -2l-84 -510l430 444l159 -235l-428 -477l293 -584h-342l-200 379l-74 -379h-328z" />
<glyph unicode="L" horiz-adv-x="866" d="M61 0l228 1364h360l-166 -1034h297l-65 -330h-654z" />
<glyph unicode="M" horiz-adv-x="1345" d="M61 0l228 1364h295l143 -371l201 371h336l-224 -1364h-346l99 639l-195 -186l-98 147l-94 -600h-345z" />
<glyph unicode="N" horiz-adv-x="1136" d="M74 0l227 1364l277 -2l157 -342l64 344h334l-236 -1364h-315l65 414l-121 219l-123 -633h-329z" />
<glyph unicode="O" horiz-adv-x="1040" d="M78 262q0 25 1 43.5t1 26.5q0 14 7 78.5t20.5 160t35 211t52.5 236.5q18 76 57 130t87 92t100.5 61.5t96.5 37t75.5 17.5t39.5 4h23q10 0 18 -1t17 -1l-64 -342q-23 0 -48.5 -7.5t-48 -19.5t-41 -29.5t-24.5 -39.5q-6 -18 -16 -62.5t-21 -99.5l-20 -115l-18 -115 l-13.5 -86.5t-5.5 -44.5q0 -27 12.5 -46t53.5 -19q31 0 49 5t30.5 19.5t19.5 37t13 57.5l162 903q92 -8 142.5 -43t74.5 -76q29 -47 35 -107q-4 -18 -13.5 -78.5t-23.5 -142.5l-31 -174l-30 -178l-27 -149l-14 -93q-6 -39 -27.5 -93t-67 -104t-117 -85t-177.5 -35 q-70 0 -135.5 12t-118 43t-85 82t-36.5 129z" />
<glyph unicode="P" horiz-adv-x="958" d="M61 0l226 1362l436 4h9q51 0 98 -21q52 -24 93.5 -70t67 -111.5t25.5 -147.5q0 -113 -59.5 -200t-144.5 -150.5t-177 -102.5t-158 -55q4 27 13 80l18 100l10 74q4 25 0 -4q74 33 118 68.5t68.5 66.5t32.5 53.5t8 30.5q0 49 -24.5 70.5t-55.5 28.5q-20 5 -41 5 q-12 0 -24 -2q-33 -4 -47 -6l-186 -1073h-306z" />
<glyph unicode="Q" horiz-adv-x="1075" d="M70 274q0 27 1 57.5t7 65.5l26 162l31 178l29 168q12 82 24 144q10 57 49 113.5t96.5 100.5t126 71.5t138.5 27.5t132.5 -23.5t108.5 -66.5t72.5 -102.5t26.5 -131.5q-2 -82 -10 -192q-8 -94 -23.5 -227.5t-42.5 -307.5q-92 33 -161.5 48.5t-98.5 19.5l14 108l19 162 l20 156l11 88q2 14 2 37.5t-7.5 46t-26 38t-50.5 15.5q-31 0 -49.5 -16.5t-29.5 -41t-17.5 -52t-8.5 -50.5q-6 -31 -14 -96l-21 -153l-36 -250q27 -4 51 -5t43 -1h41q33 0 80 -9q41 -6 100 -21.5t137 -41.5q78 -78 129 -146l74 -94q-29 -4 -100.5 -16l-214.5 -35l-76 123 q-41 -49 -91.5 -74.5t-93.5 -38.5q-53 -14 -102 -16q-104 0 -166.5 38t-95.5 87t-43 94t-10 59z" />
<glyph unicode="R" horiz-adv-x="1230" d="M76 0l223 1364h522q45 0 102.5 -9t108.5 -46t86 -113t35 -207q-6 -78 -35 -158q-27 -70 -80 -150.5t-155 -152.5l235 -528h-368l-129 451l-95 -17l52 271q70 31 110.5 75.5t62 85.5t27.5 72l6 29q0 49 -26.5 68.5t-71.5 19.5q-6 0 -14 -2t-20.5 -4t-35.5 -7l-190 -1042 h-350z" />
<glyph unicode="S" horiz-adv-x="1001" d="M78 164q-1 8 -1 17q0 19 3 44l10 90q6 55 23 140l264 2q-6 -20 -8 -33.5t-4.5 -24t-2.5 -18.5q0 -25 14.5 -57.5t63.5 -32.5q43 0 66.5 23.5t35 56t14.5 68.5t3 59q-10 33 -41 64.5t-70.5 61t-84 57.5t-82 56.5t-62 56t-24.5 58.5q0 47 9 118.5t32 137.5q25 72 69.5 121 t99 79.5t111.5 44t104.5 13.5t98.5 -12.5t96 -37t78 -62t45 -89.5q2 -20 4 -51q1 -18 1 -41v-24q-1 -39 -7 -93h-250q-2 43 -16.5 67t-31.5 35t-32 13l-14 2q-27 0 -48.5 -14.5t-36.5 -33.5t-24.5 -40.5t-9.5 -34.5q0 -43 26.5 -73.5t66.5 -57t89.5 -54.5t93.5 -64.5 t77.5 -89t45.5 -126.5q-6 -70 -24.5 -145.5t-42.5 -140.5q-12 -29 -44 -64t-82 -65.5t-118.5 -51t-152.5 -20.5q-86 0 -148.5 19.5t-102.5 46t-59.5 54.5t-19.5 46z" />
<glyph unicode="T" horiz-adv-x="978" d="M98 1040l45 324l828 2l-41 -324h-221l-162 -1042h-359l164 1040h-254z" />
<glyph unicode="U" horiz-adv-x="1110" d="M84 338l162 1026h317l-121 -789q-10 -65 -10 -110t10 -72q20 -53 80 -53q25 0 41.5 14.5t27.5 37t18 48t12 47.5l143 877h301l-178 -1079q-8 -49 -40 -99.5t-86 -92.5t-127 -68.5t-165 -26.5q-143 0 -221 46t-115 105.5t-43 115t-6 73.5z" />
<glyph unicode="V" horiz-adv-x="1130" d="M137 1364h355l20 -789l426 789h358l-694 -1364h-426z" />
<glyph unicode="W" horiz-adv-x="1540" d="M141 1364h348l25 -487l262 487l228 2l12 -461l254 459h346l-670 -1364h-244l-14 352l-207 -352h-258z" />
<glyph unicode="X" horiz-adv-x="1269" d="M-57 0l467 674l-220 690h338l109 -352l260 352h401l-548 -725l178 -639h-340l-84 270l-162 -270h-399z" />
<glyph unicode="Y" horiz-adv-x="1169" d="M92 1364h365l131 -322l190 322h404l-463 -743l-49 -621l-385 -2l104 774z" />
<glyph unicode="Z" horiz-adv-x="1101" d="M63 0l70 420l440 618l-329 -2l47 328l751 -2l-73 -377l-465 -651h334l-56 -334h-719z" />
<glyph unicode="[" horiz-adv-x="749" d="M98 218q-8 52 2 114l76 459l29 167l22 148l17 106l8 39q10 63 34.5 110.5t57.5 81.5t71 56.5t74 36.5q88 33 195 33l-55 -342q-12 0 -27.5 -2t-30 -13.5t-27 -37t-20.5 -72.5l-116 -705q-6 -47 -3 -74.5t13 -44t24.5 -22.5t26.5 -10l-53 -355q-100 35 -176 97 q-33 25 -63 58.5t-50.5 76.5t-28.5 95z" />
<glyph unicode="\" horiz-adv-x="1052" d="M113 1282l278 127l537 -1335l-289 -121z" />
<glyph unicode="]" horiz-adv-x="749" d="M63 -109l56 342q12 0 27.5 2.5t29.5 13.5t26.5 36.5t20.5 72.5l117 705q6 47 1 74.5t-14.5 44t-22.5 22.5t-25 10l53 355q100 -35 176 -94q33 -25 62.5 -59t51 -77t31 -95t2.5 -116l-80 -460l-30 -168l-25 -148q-12 -76 -24 -143q-10 -63 -35 -110.5t-57.5 -81t-70.5 -56 t-75 -37.5q-89 -33 -195 -33z" />
<glyph unicode="^" horiz-adv-x="1232" d="M129 739l586 529l432 -533l-283 -2l-166 189l-276 -183h-293z" />
<glyph unicode="_" horiz-adv-x="1353" d="M106 -332l50 289h1087l-53 -289h-1084z" />
<glyph unicode="`" horiz-adv-x="532" d="M41 1599h319l86 -290h-319z" />
<glyph unicode="a" horiz-adv-x="1275" d="M63 213q0 14 2.5 36.5t8.5 53.5l30 170l25 129q12 63 18 88q33 72 82.5 123t107.5 84t121.5 48.5t129.5 15.5q29 0 65.5 -7.5t73.5 -20.5t68.5 -31.5t52.5 -43.5l16 103h318l-162 -963l-340 2l119 690l-4 23q-8 16 -23 30q-14 12 -36.5 22.5t-63.5 10.5t-71 -18.5 t-49.5 -42t-29.5 -46t-12 -30.5q-2 -10 -10 -47l-17.5 -83t-16.5 -90t-7 -67q0 -25 16.5 -38t39 -21t46 -10t37.5 -2q16 0 36.5 11t41.5 27q23 16 47 39l-43 -233q-47 -35 -84 -59.5t-70.5 -40t-68.5 -21.5t-78 -6q-68 0 -125 19.5t-99 50t-67 69.5t-25 76z" />
<glyph unicode="b" horiz-adv-x="1263" d="M102 0l224 1364h368l-184 -1110q14 -18 33 -33q16 -12 37.5 -21.5t50.5 -9.5q39 0 67.5 12.5t48 30t30.5 35l18 29.5q4 10 11 39t13 61l12 62q4 27 7 37q4 18 4 56t-11 62q-10 27 -34 34q-16 5 -38 5q-13 0 -28 -2q-20 -2 -43.5 -12t-46.5 -25q-25 -16 -49 -36l41 260 q37 31 82 55q39 23 92 41t115 22q4 0 8 1q35 0 82 -16q53 -17 101 -51t82 -84t34 -114q0 -117 -23.5 -218t-44.5 -175q-6 -23 -34.5 -72t-80 -100t-125 -89t-171.5 -38q-125 0 -189.5 26.5t-89.5 45.5l-14 -72h-355z" />
<glyph unicode="c" horiz-adv-x="1046" d="M79 245q-1 13 -1 24q0 15 2 28q10 53 18 109l19 102l16 104q8 47 34 87t54 71q33 33 79 67.5t100.5 62.5t117 46.5t127.5 18.5q139 0 209 -39t104 -101q27 -47 28 -94q0 -6 -1 -12q-4 -53 -33 -74q-24 -16 -43 -16q-14 0 -25 8q-28 18 -44 41q-16 35 -50 70.5t-88 35.5 q-12 0 -34.5 -2t-46 -11t-45 -26.5t-33.5 -48.5q-23 -74 -41.5 -144.5t-18.5 -148.5q0 -16 2 -32.5t11.5 -29.5t28 -22.5t48.5 -9.5q59 0 106.5 34t94.5 73q31 14 61.5 11t52 -20.5t31 -45t-3.5 -58.5q-86 -154 -229 -229.5t-317 -75.5q-45 0 -89 15.5t-83 43t-68 64.5 t-43 80q-4 14 -7 44z" />
<glyph unicode="d" horiz-adv-x="1280" d="M51 322q10 74 23.5 155.5t27.5 147.5q18 57 58.5 111.5t98.5 97.5t134 69.5t164 30.5q15 1 29 1q49 0 90 -11q53 -14 119 -50l-37 -219q-10 37 -34 54.5t-54 15.5q-70 -2 -107 -29.5t-56.5 -70.5t-28.5 -95.5t-21 -105.5q-8 -35 -8 -65.5t10 -53t35 -36.5q19 -10 47 -10 q9 0 18 1q59 4 105.5 42t62.5 91l174 971h346l-239 -1364l-346 -2l14 88q-47 -29 -104.5 -48.5t-119.5 -30.5q-57 -10 -115 -10h-10q-62 1 -116 17q-86 43 -125 129q-35 78 -35 161v18z" />
<glyph unicode="e" horiz-adv-x="964" d="M51 227l47 326q14 82 58.5 156.5t106 131t138 89.5t160.5 33q55 0 108.5 -12.5t97.5 -39t74.5 -69.5t37.5 -103q2 -18 1 -35q0 -58 -22 -98q-29 -51 -73 -79.5t-91 -41t-76 -14.5q-16 -2 -45.5 -2t-60.5 2q-37 0 -76 2l31 115q12 2 29 4q14 2 31.5 4t35.5 6q66 6 87.5 38 t17.5 54q0 2 -2 10.5t-8.5 17.5t-17.5 16t-32 7q-121 0 -159 -159q-6 -29 -14.5 -64t-14.5 -65.5t-10 -53t-4 -30.5q0 -18 12 -29.5t29.5 -15.5t34 -5t24.5 -1q27 0 72 26l90 55q23 14 50 8.5t48.5 -25t30.5 -50.5q3 -11 3 -23q0 -20 -9 -41q-4 -10 -38 -54t-89.5 -92 t-132 -87t-166.5 -39q-94 0 -156 29.5t-96.5 68.5t-49 77t-12.5 52z" />
<glyph unicode="f" horiz-adv-x="966" d="M72 690q8 53 16 96l12 70q6 35 9 41h208q23 125 42.5 211t59.5 138t113.5 74.5t202.5 22.5q39 0 85 -2t90 -6t86 -10t75 -12l-20 -119q-4 2 -21.5 3t-39 3t-41 3t-27.5 1q-96 0 -147.5 -34.5t-76 -84t-32.5 -102.5l-15 -90h213l-35 -207l-223 -2l-121 -684l-331 -2 l120 690z" />
<glyph unicode="g" horiz-adv-x="1245" d="M51 317l66 357q25 57 75 109.5t114.5 92t136 62.5t135.5 23q57 0 115.5 -15.5t105.5 -40.5l10 56h334l-158 -967q-23 -109 -72 -178.5t-131 -122.5q-55 -29 -111.5 -52.5t-115.5 -35.5q-57 -10 -116.5 -13.5t-108.5 -3.5q-57 0 -115 2q2 6 5 24.5t7 39.5q4 23 11 51 q78 6 145 19q59 10 114.5 29.5t80 54t48 85t33.5 107.5l29 164l27 168l22 155l17 131q1 8 0 17q0 43 -19 76q-21 37 -81 37h-7q-80 0 -123 -48.5t-65.5 -116t-30.5 -143.5l-14 -133q-2 -35 41 -57.5t102 -26.5h27q18 0 37.5 3t37 6.5t23.5 9.5l-31 -174q-61 -31 -134 -49.5 t-144.5 -18.5t-133 20.5t-105.5 60.5t-66 99q-18 47 -18 105q0 15 1 32z" />
<glyph unicode="h" horiz-adv-x="1286" d="M78 0l219 1364h369l-88 -555l94 53q49 27 97 48.5t99.5 34.5t104.5 13q117 0 194.5 -67.5t79.5 -190.5l-114 -700h-383l96 547q2 13 2 24q0 38 -21 66q-25 35 -74 35h-5q-72 -2 -115 -33t-68.5 -78t-38 -103.5t-20.5 -109.5l-57 -348h-371z" />
<glyph unicode="i" horiz-adv-x="724" d="M121 0l153 913h125l9 48h-125l39 256h335l-36 -256h-125l-7 -50h121l-159 -911h-330z" />
<glyph unicode="j" horiz-adv-x="772" d="M-182 -410l28 144q158 14 226.5 89t91.5 226l16 105l21 129l20 141l25 143l55 346h139l9 45h-140l43 259h365l-37 -256h-51q-23 0 -44.5 -1.5t-37.5 1.5l-8 -50h131l-140 -837q-18 -115 -72.5 -205t-134 -151.5t-180 -93.5t-211.5 -34h-114z" />
<glyph unicode="k" horiz-adv-x="1169" d="M68 0l225 1364h379l-94 -614l59 -60l295 221l100 -137q49 -66 101 -127l-144 -110l-135 -117l31 -43l41 -58l49 -69l51 -72l127 -178h-240l-383 498l-90 -498h-372z" />
<glyph unicode="l" horiz-adv-x="765" d="M51 362l27 150l33 164l28 168l31 160l68 360h376l-202 -993q-9 -45 -9 -81q0 -66 29 -101q43 -52 171 -52h9q23 0 50.5 6.5t50.5 10.5l-19 -107q-59 -18 -115.5 -32.5t-121.5 -16.5q-53 0 -117 8t-122 36t-103 82t-62 144z" />
<glyph unicode="m" horiz-adv-x="1955" d="M94 0l170 961h367l-19 -109q68 47 149 75.5t167 33.5q18 1 36 0q27 0 53 -2q44 -3 82 -17t68.5 -43t51.5 -74q12 10 54 33t102.5 45.5t136 40t155.5 17.5q47 0 91 -15.5t77 -45.5t48 -72q10 -27 10 -58q0 -17 -3 -35q-2 -12 -10 -51l-18.5 -93t-24.5 -118l-27 -131 l-71 -342h-371l131 623q3 14 3 27q0 36 -20 63q-25 33 -74 33q-5 0 -11 -1q-68 -2 -120 -36.5t-69 -102.5l-125 -606h-364l37 178q16 72 30 150l27 127q6 39 16 88q8 38 8 72v21q-3 44 -26 74.5t-82 30.5q-96 0 -139 -56t-62 -150l-100 -535h-334z" />
<glyph unicode="n" horiz-adv-x="1316" d="M96 0l174 961h361l-21 -119q31 27 83 49t112.5 39.5t118 27t96.5 9.5q57 0 106.5 -12.5t83 -40t50.5 -70.5q11 -29 10 -66q0 -18 -2 -39l-107 -739h-407l118 662q3 16 3 29q0 35 -19 53q-27 26 -76 26q-86 0 -141 -40t-66 -85l-18 -84l-18 -98l-21 -107q-10 -55 -18 -106 q-23 -121 -43 -250h-359z" />
<glyph unicode="o" horiz-adv-x="1024" d="M55 233v11q0 29 8 82l21 129q12 78 31 168q31 76 85 132t119.5 97t137 67.5t135.5 38.5l-45 -258q-10 -8 -18.5 -18t-16.5 -27q-16 -31 -28.5 -73.5t-21.5 -85.5t-15.5 -80t-8.5 -58q-2 -8 -1 -18t9.5 -19.5t27 -16.5t52.5 -7q88 0 131 32.5t54 57.5q4 12 13 48t17 77 l19 80q8 39 12 55q2 9 2 17q0 24 -13 48q-17 32 -71 31q-35 0 -57.5 -6t-36.5 -12q-16 -8 -27 -16l43 252l56 6q23 0 75 -9.5t106 -36t95 -70.5t43 -112q0 -23 -7 -69.5t-16.5 -101t-19.5 -105.5t-16 -78q-14 -59 -56.5 -127t-114 -126t-174 -96t-237.5 -38 q-98 0 -156.5 26.5t-87 64.5t-38 77.5t-9.5 66.5z" />
<glyph unicode="p" horiz-adv-x="1292" d="M23 -410l235 1371h350l-18 -107q25 10 61.5 28.5t78.5 36t86 31t85 13.5q57 0 111.5 -16.5t97.5 -46.5t70.5 -71t29.5 -90q1 -6 1 -15q0 -22 -4 -59q-5 -52 -13 -110.5t-16.5 -111t-12.5 -74.5q-18 -82 -62 -150.5t-107.5 -118t-143.5 -76t-166 -26.5q-33 0 -69.5 4 t-69.5 10q-37 6 -74 15l27 166q8 -6 20 -11q10 -4 26.5 -6t39.5 0q31 2 64.5 18.5t64 48t54.5 77t36 104.5l6 35q6 27 11 56.5t8.5 55t3.5 35.5q-2 23 -29 43q-22 17 -56 17h-14q-82 -4 -134 -41t-62 -88q-2 -6 -9.5 -49.5l-19.5 -110.5l-27 -152q-16 -84 -30 -172l-80 -463 h-350z" />
<glyph unicode="q" horiz-adv-x="1251" d="M63 213q0 12 4.5 39l10.5 61.5t14 75.5l17 86l45 215q25 63 69.5 113.5t99 85.5t114 53.5t114.5 18.5q53 0 91 -7.5t66.5 -17.5t52 -21.5t48.5 -21.5l14 68l351 -3l-213 -1368l-353 -2l84 549l33 203l27 178q12 78 19 128t7 54q-2 14 -32.5 37t-73.5 23 q-37 0 -65.5 -12.5t-49 -31t-33 -41t-14.5 -42.5l-23 -119q-10 -47 -17 -93q-6 -36 -6 -58q0 -6 1 -11q0 -25 12 -41t27.5 -25.5t33 -13.5t29.5 -4q23 0 45.5 10.5t42.5 24.5q23 16 45 37l-36 -238l-58 -41q-29 -20 -62.5 -37.5t-74.5 -29.5t-96 -14q-5 0 -11 -1 q-44 0 -94 15q-55 16 -100 47t-75 75t-30 97z" />
<glyph unicode="r" horiz-adv-x="1130" d="M63 0l158 961h375l-16 -103q33 14 65.5 31.5t66 33t70.5 27t80 11.5q47 0 78 -7.5t53.5 -23t40.5 -35.5l41 -51q20 -33 28.5 -66t10.5 -69l-135 -119l-133 -117q12 27 24 76q11 45 12 91q0 55 -22 92q-20 36 -76 36q-74 0 -124 -34t-83.5 -86t-53 -115.5t-31.5 -124.5 l-74 -408h-355z" />
<glyph unicode="s" horiz-adv-x="1001" d="M80 231v15q0 76 39 128q43 56 129 66q17 2 32 3q43 0 75 -17q44 -23 82 -52.5t77 -52.5q33 -20 78 -21q8 0 16 1q31 4 50.5 29.5t25.5 52.5q2 10 2 20q0 30 -24 52q-20 14 -69.5 21t-107 12.5t-110.5 12.5t-82 19q-23 10 -45.5 25.5t-41 35t-28.5 43t-6 50.5 q10 61 59.5 114.5t122 91.5t160.5 59.5t176 21.5q41 0 82 -7.5t78 -23t64.5 -41t43.5 -62.5q12 -29 17 -60q1 -11 1 -21q0 -20 -5 -36q-8 -26 -30.5 -44.5t-61.5 -20.5q-33 -2 -52.5 18.5t-36 45t-35 45t-50.5 18.5q-35 -2 -71 -24.5t-46 -57.5q-2 -20 10 -35.5t27 -25.5 l96 -33q55 -20 102 -52t76 -79q22 -37 22 -87q0 -14 -1 -30q-35 -186 -175.5 -267t-351.5 -81q-55 0 -109.5 11.5t-98.5 39t-72.5 71t-32.5 109.5z" />
<glyph unicode="t" horiz-adv-x="960" d="M68 655l38 228h240q10 18 16.5 44.5t28.5 41.5q98 59 168 139t123 172q25 33 61 39l-69 -404l303 3l-33 -222h-295l-106 -696h-336l110 653z" />
<glyph unicode="u" horiz-adv-x="1245" d="M91 184q-2 23 -2 47q0 28 3 56q2 8 7 41.5t14 83.5l18 108l21 121l51 320h172h205l-9 -43l-20 -109l-27 -141l-28 -148l-23 -121q-10 -53 -12 -67q-2 -11 -2 -21q0 -42 29 -56q36 -17 87 -17q16 0 41 10t49.5 26.5t43 39t24.5 44.5q2 14 9.5 48t15.5 79l18 99l21 106 q23 125 53 271h342l-154 -961h-360l16 96l-69 -30q-35 -16 -77 -32t-91 -26t-109 -10q-90 0 -143 25.5t-81 67.5t-33 93z" />
<glyph unicode="v" horiz-adv-x="1060" d="M57 961h322l29 -242q10 -96 21 -188.5t15 -133.5q8 6 31 35l55 70l72 92l78 100l205 267h295l-688 -961h-351z" />
<glyph unicode="w" horiz-adv-x="1853" d="M63 961h365l37 -553l438 553h223q2 -121 7 -234q2 -47 3 -98t3 -98.5t4 -89.5t4 -72q8 8 33 37l61 71l76 96l84 107l219 281h315l-729 -961h-372l-39 330l-303 -330h-396z" />
<glyph unicode="x" horiz-adv-x="1128" d="M-139 0l489 479l-227 482h381l117 -228l235 228h311l-446 -433l240 -528h-383l-121 268l-283 -268h-313z" />
<glyph unicode="y" horiz-adv-x="1333" d="M72 217l118 744h365l-45 -242l-21 -103l-16 -104l-16 -96l-13 -82q-4 -27 7.5 -47.5t30 -34.5t42 -21.5t45.5 -7.5q86 0 147.5 55.5t76.5 145.5l86 537h381l-183 -1067q-12 -70 -54 -126.5t-102.5 -96.5t-132 -61.5t-145.5 -21.5q-137 0 -271 38t-255 104q-2 25 4 49 t8 51l147 -35q58 -14 121 -14q21 0 41 2q94 6 153.5 22.5t95.5 50t51.5 88t21.5 136.5q-78 -49 -153 -86t-167 -43q-16 -1 -31 -1q-51 0 -100 10q-63 13 -114.5 47t-85 86t-37.5 124z" />
<glyph unicode="z" horiz-adv-x="1230" d="M63 0l29 160l490 563h-396l35 238h912l-31 -211l-451 -529h340l-41 -221h-887z" />
<glyph unicode="{" horiz-adv-x="800" d="M53 766q27 20 66 53t76.5 72t66.5 79t37 74l29 181q10 63 34.5 110t57.5 82t71.5 58.5t79.5 40.5q92 37 205 40l-53 -296q-29 -8 -69 -42t-58 -100l-4 -33l-4 -28q-2 -16 -4 -27q-6 -33 -26.5 -68.5t-49.5 -70.5t-63.5 -67.5t-71.5 -59.5l45 -82q23 -43 41 -84t28.5 -76 t6.5 -55l-9.5 -42t-5.5 -30l-4 -26l-6 -37q-8 -59 19.5 -99t60.5 -59l-43 -313q-98 33 -174 92q-66 51 -116 136t-40 212q4 31 10 59l9 48q4 25 8 41q4 31 -10.5 73.5t-37 86.5t-50 86t-52.5 71z" />
<glyph unicode="|" horiz-adv-x="698" d="M80 0l227 1364h287l-223 -1364h-291z" />
<glyph unicode="}" horiz-adv-x="800" d="M55 -139l51 297q29 8 70 41.5t60 101.5q2 14 4 31q2 14 3 28.5t5 26.5q6 33 26.5 69t49 70.5t63.5 68.5t72 60l-45 82q-23 43 -41.5 83t-28.5 74t-6 56q4 27 7 42.5t6 28.5t5 26.5t6 37.5q8 59 -20.5 99.5t-58.5 58.5l43 313q98 -33 174 -92q33 -25 62.5 -58.5t52 -76.5 t33.5 -96t7 -117q-4 -31 -10 -59l-8 -49q-4 -25 -8 -39q-4 -31 10 -74t36.5 -87t50.5 -86t52 -71q-27 -20 -65.5 -53t-76.5 -72t-66.5 -78.5t-37.5 -74.5l-28 -180q-10 -63 -35 -111.5t-58.5 -83.5t-72.5 -59.5t-78 -38.5q-94 -37 -205 -39z" />
<glyph unicode="~" horiz-adv-x="913" d="M111 274l43 256q18 12 50 21.5t63.5 15.5t58 9.5t34.5 3.5q41 0 83 -8.5t85 -18.5t88.5 -18.5t92.5 -8.5q41 0 66.5 16.5t47.5 28.5l-45 -270l-51 -18l-43 -13q-20 -4 -35 -4q-37 0 -78 9.5t-85 21.5t-90 21.5t-89 9.5t-78.5 -8.5t-62.5 -18.5q-30 -13 -55 -27z" />
<glyph unicode="&#xa1;" horiz-adv-x="698" d="M96 0l156 985h293l-160 -985h-289zM274 1090l43 274h287l-49 -274h-281z" />
<glyph unicode="&#xa2;" horiz-adv-x="1046" d="M79 244.5q-3 29.5 1 52.5q10 53 18 109l19 102l16 104q8 47 34 87t54 71q51 51 130 102.5t175 75.5l101 242l291 -100l-64 -164q37 -18 62.5 -44t41.5 -57q31 -53 27 -107t-33 -73q-41 -27 -68.5 -8.5t-43.5 41.5q-16 35 -50 70.5t-88 35.5q-12 0 -34.5 -2t-46 -11 t-45 -26.5t-33.5 -48.5q-23 -74 -41.5 -144.5t-18.5 -148.5q0 -16 2 -32.5t11.5 -29.5t28 -22.5t48.5 -9.5q59 0 106.5 34t94.5 73q31 14 61.5 11t52 -20.5t31 -45t-3.5 -58.5q-72 -129 -185.5 -202.5t-250.5 -94.5l-69 -182l-299 102l61 150q-66 55 -86 125q-4 14 -7 43.5z " />
<glyph unicode="&#xa3;" horiz-adv-x="1138" d="M43 340l33 215h114l7 35h-111l35 215h110l33 192q8 55 40 120t89.5 120t143.5 91t204 36q33 0 85.5 -9t104.5 -35t95 -72t59 -120q14 -63 5 -123.5t-23 -109.5l-279 -43l17 86q8 43 -21.5 68.5t-81.5 25.5q-31 0 -61.5 -24.5t-34.5 -46.5l-28 -156h114l-35 -215h-118 l-9 -35h119l-35 -215h-122l-15 -78l633 -2l-45 -260h-967l58 340h-113z" />
<glyph unicode="&#xa4;" horiz-adv-x="1110" d="M135 520l23 150h112l15 73h-121q2 10 7 38t9 57l13 73h106q6 25 11 53.5t12 57.5l12 55q4 25 10 41q31 72 82 124t113.5 86t131 50.5t134.5 16.5q23 0 59.5 -4.5t79.5 -15.5t86 -33.5t78 -59.5l-145 -250l-54 29q-20 12 -36.5 18t-37 7t-53.5 1q-76 0 -117.5 -29.5 t-46.5 -62.5l-12 -71h113q-4 -37 -8 -68l-7.5 -54.5l-5.5 -39.5h-120l-13 -78h121l-10 -72q-4 -41 -14 -94l-123 4l-17 -80q-2 -16 -2 -38.5t9.5 -44t32 -36t65.5 -14.5q94 0 161.5 16.5t85.5 26.5l109 -239l-76 -37q-43 -20 -98 -38t-121.5 -29t-146.5 -11 q-104 0 -174 26.5t-110 65.5t-54.5 81t-12.5 73l19 114l24 162h-98z" />
<glyph unicode="&#xa5;" horiz-adv-x="1251" d="M59 399l41 246h306l6 51h-299l41 246h184l-213 422h364l132 -322l190 322h403l-262 -422h191l-45 -246h-297l-33 -51h322l-46 -246h-309l-33 -399l-385 -2l54 401h-312z" />
<glyph unicode="&#xa6;" horiz-adv-x="698" d="M80 0l106 623h287l-102 -623h-291zM205 741l106 623h287l-102 -623h-291z" />
<glyph unicode="&#xa7;" horiz-adv-x="1001" d="M37 41q-2 20 4 57q4 33 12 86.5t25 139.5l256 2q-4 -20 -6 -33.5t-4 -24t-2 -20.5q0 -25 14 -52.5t63 -27.5q43 0 66.5 19.5t35 48t13.5 60.5t2 56q-10 33 -42 67t-73 66l-88 64q-45 33 -81.5 64.5t-59 64.5t-16.5 65q6 41 9 63.5t6 40t7 38.5l12 55q6 29 19.5 50.5 t30.5 33.5q-10 10 -15.5 29.5t-5.5 33.5q4 33 6 51.5t5 35t7.5 36t14.5 52.5q18 63 68.5 110t109.5 78t116.5 45t92.5 14q45 0 96 -12t96.5 -36.5t79 -62.5t45.5 -89l5 -52q2 -27 -0.5 -64.5t-8.5 -90.5h-252q0 43 -14 66.5t-30.5 33.5t-30.5 12l-15 3q-53 0 -87 -32 t-34 -59q0 -31 34 -56.5t83 -51.5l107 -55q55 -31 101 -71t72.5 -92t18.5 -124l-18 -133q-8 -63 -31 -101q-6 -10 -12 -24.5t-13 -18.5l-239 238q4 10 6 14l4 6q0 2 1 6.5t3 14.5q8 35 -2 64.5t-30.5 54t-47.5 43.5l-49 34q-23 -18 -35 -41.5t-12 -39.5q0 -35 47 -76 l103 -96l239 -238q4 -10 7 -34.5t-1 -35.5q-12 -68 -28 -118l-35 -119q-8 -29 -40 -64t-82 -65.5t-119.5 -51t-155.5 -20.5t-147.5 19.5t-101.5 46t-59.5 54.5t-19.5 46z" />
<glyph unicode="&#xa8;" horiz-adv-x="1071" d="M102 1272l54 327h311l-51 -327h-314zM590 1270l53 329h320l-52 -329h-321z" />
<glyph unicode="&#xa9;" horiz-adv-x="1411" d="M111 786q12 123 55 227.5t115.5 182.5t175 123t233.5 51q137 6 242.5 -27.5t179.5 -96t115 -146.5t49 -178l-287 -2q2 23 6 43q4 16 6.5 32.5t2.5 22.5q0 16 -6.5 49t-28 64.5t-63.5 56t-111 24.5q-72 0 -123 -19t-86 -49t-55.5 -66t-26.5 -68l-19 -97 q-12 -61 -23 -130.5t-19.5 -134t-8.5 -99.5t8.5 -70t32 -62.5t64.5 -45t106.5 -17.5t114.5 26t83 58.5t53 65.5l26 45q6 14 12 39l14 51q8 27 12.5 51.5t4.5 42.5h-203q-2 -35 -10 -59q-8 -23 -23.5 -41.5t-44.5 -18.5q-16 0 -23.5 8.5t-10.5 19.5t-2 23.5t3 22.5 q2 12 9.5 48t16.5 75t15 72l10 45q4 20 19.5 39.5t40.5 19.5q18 0 25.5 -13t7.5 -30q0 -18 -4 -41l483 2q2 -29 1 -59.5t-5 -59.5q-18 -121 -59.5 -223t-110 -180t-170 -126t-240.5 -56q-158 -10 -272.5 36t-187 127.5t-102 191t-17.5 230.5z" />
<glyph unicode="&#xaa;" horiz-adv-x="958" d="M88 1227q20 90 39.5 159.5t55.5 116.5t97.5 71.5t163.5 24.5q35 0 83 -12t79 -39l12 51l265 -2l-135 -589h-263l41 190l15 72q8 35 13 63.5t9 48t4 23.5q6 29 -19.5 41t-53.5 12q-23 0 -40.5 -11t-28.5 -24.5t-17.5 -27l-8.5 -17.5l-20 -71q-10 -35 -10 -76 q0 -27 22.5 -34t47 -5t48 25.5t39.5 46.5l-45 -195q-31 -23 -55.5 -36t-45 -19t-39.5 -7t-44 -1q-47 0 -88 18t-72 49t-45 71t-4 83z" />
<glyph unicode="&#xab;" horiz-adv-x="1200" d="M121 406l194 413h301l-170 -375h84l203 375h287l-201 -411l68 -406h-264l-103 367h-86l51 -369h-286z" />
<glyph unicode="&#xac;" horiz-adv-x="1306" d="M117 424l39 268h1034l-82 -495h-283l39 227h-747z" />
<glyph unicode="&#xad;" horiz-adv-x="712" d="M80 221l43 273h502l-43 -273h-502z" />
<glyph unicode="&#xae;" horiz-adv-x="1411" d="M117 799q14 123 69.5 227t140.5 179t197.5 117t243.5 42q137 0 240.5 -50t169 -133t92 -187.5t12.5 -213.5q-20 -139 -66.5 -246.5t-128 -181t-204.5 -112.5t-297 -39q-80 0 -147.5 29.5t-139.5 80.5l276 2l113 703q43 6 76 0q29 -4 50.5 -19.5t16.5 -50.5l-8 -24 q-6 -16 -23.5 -39t-50 -48.5t-85.5 -50.5q2 20 0 4t-9 -51l-10 -69q-6 -39 -8 -58q10 4 13 3t16 3l24 -151q10 -57 17.5 -104.5t9.5 -47.5h244l-111 389q39 25 67.5 47.5t50 50t36 64.5t22.5 86q8 59 -8.5 110.5t-48 88.5t-73.5 58.5t-83 21.5h-319l-146 -905h-61 q-106 82 -146 207t-24 268z" />
<glyph unicode="&#xaf;" horiz-adv-x="770" d="M121 1337l41 262h512l-41 -262h-512z" />
<glyph unicode="&#x2c9;" horiz-adv-x="770" d="M121 1337l41 262h512l-41 -262h-512z" />
<glyph unicode="&#xb0;" horiz-adv-x="624" d="M104 1153q0 57 23 99t56.5 70t73.5 41t77 13q43 0 85 -13t74.5 -41t53 -72t20.5 -103q0 -43 -11 -73t-24 -50q-16 -23 -34 -37l-113 135q2 4 6 11q2 4 4 11t2 13q0 10 -15 31.5t-37.5 21.5t-40 -17t-17.5 -42q0 -27 22.5 -41t34.5 -14q8 0 21 8q6 4 10 8l114 -135 q-14 -16 -36 -29q-18 -10 -46 -19t-67 -9q-63 0 -108.5 21.5t-73 55t-41 75.5t-13.5 81z" />
<glyph unicode="&#xb1;" horiz-adv-x="989" d="M49 123l39 244h784l-38 -244h-785zM127 696l39 244h272l41 240h260l-41 -238h252l-41 -246h-254l-43 -247l-260 2l43 245h-268z" />
<glyph unicode="&#xb2;" horiz-adv-x="860" d="M66 651q37 166 121.5 304.5t211.5 230.5q12 10 33 24.5t39 32t31.5 35.5t13.5 35q0 6 -12 15t-21 9q-18 0 -35.5 -12t-32 -28.5t-25.5 -35t-15 -32.5l-189 110q14 47 37 93.5t62 83t95 60t136 23.5q45 0 92 -14t85 -46t61.5 -82t23.5 -120q0 -72 -36.5 -128t-86.5 -105 l-100 -98q-51 -49 -78 -109h205l-45 -246h-571z" />
<glyph unicode="&#xb3;" horiz-adv-x="806" d="M70 838q0 10 2 30q2 33 20 129l230 11q-2 -16 -7.5 -31.5t-5.5 -28t6.5 -20.5t24.5 -8q4 0 14.5 5t14.5 21l12 70l10 49q0 10 -7 19.5t-24 9.5q-10 0 -20 -4q-25 -6 -55 -27l-164 147l168 133h-144l35 256h537l-35 -241l-82 -80q45 -33 53.5 -64.5t5.5 -39.5 q-4 -47 -15 -131.5t-32 -184.5q-23 -111 -104.5 -159t-224.5 -48q-78 0 -121 24.5t-63.5 57.5t-24.5 63t-4 42z" />
<glyph unicode="&#xb4;" horiz-adv-x="581" d="M119 1270l55 329h311l-53 -329h-313z" />
<glyph unicode="&#xb5;" horiz-adv-x="1310" d="M76 -250l207 1211h333l-4 -29l-14 -76l-19 -102l-22 -119l-57 -326q-4 -37 9 -60.5t35.5 -36.5t50.5 -17.5t52 -4.5q49 0 80 32t39 67l12 65l17 92l18 111l21 115l51 286l338 3l-170 -961h-334l8 47q-29 -18 -61.5 -31.5t-69.5 -16.5t-77 5t-79 35l-67 -289h-297z" />
<glyph unicode="&#x3bc;" horiz-adv-x="1310" d="M76 -250l207 1211h333l-4 -29l-14 -76l-19 -102l-22 -119l-57 -326q-4 -37 9 -60.5t35.5 -36.5t50.5 -17.5t52 -4.5q49 0 80 32t39 67l12 65l17 92l18 111l21 115l51 286l338 3l-170 -961h-334l8 47q-29 -18 -61.5 -31.5t-69.5 -16.5t-77 5t-79 35l-67 -289h-297z" />
<glyph unicode="&#xb6;" horiz-adv-x="1308" d="M66 961q18 106 65 175.5t109.5 110.5t134 57.5t141.5 16.5h768l-225 -1321h-303l174 1012h-53l-179 -1012h-323l180 1018h-51q-35 0 -72 -8.5t-68.5 -27.5t-39.5 -60q-4 -12 -4.5 -39t14 -59.5t47.5 -64.5t94 -57l-45 -249q-59 20 -132 56t-131 94.5t-89.5 145.5 t-11.5 212z" />
<glyph unicode="&#xb7;" horiz-adv-x="577" d="M133 522q16 84 58 121t120 37q27 0 54.5 -12.5t48 -34t31 -50t4.5 -61.5q-16 -82 -65.5 -118.5t-123.5 -36.5q-23 0 -47.5 12t-43.5 32.5t-30.5 49t-5.5 61.5z" />
<glyph unicode="&#x2219;" horiz-adv-x="577" d="M133 522q16 84 58 121t120 37q27 0 54.5 -12.5t48 -34t31 -50t4.5 -61.5q-16 -82 -65.5 -118.5t-123.5 -36.5q-23 0 -47.5 12t-43.5 32.5t-30.5 49t-5.5 61.5z" />
<glyph unicode="&#xb8;" horiz-adv-x="2048" d="M209 -262l84 278l262 -6l-149 -272h-197z" />
<glyph unicode="&#xb9;" horiz-adv-x="774" d="M119 1157l63 252l248 190h254l-168 -948h-309l115 574z" />
<glyph unicode="&#xba;" horiz-adv-x="1024" d="M213 1122q0 16 5 58.5t13 85.5q8 51 21 106q18 68 64 110t97.5 65.5t96.5 32.5t63 13l-30 -174q-14 -10 -23 -30q-20 -41 -30.5 -93.5t-14.5 -78.5q-4 -16 5 -34t50 -18q57 0 82 21.5t29 42.5q2 8 8 28.5l13 45.5l10 45l6 30q4 18 -10.5 42t-46.5 24q-14 0 -25.5 -3 t-20.5 -7l-16 -9l29 170l26 7q27 0 65 -7.5t70.5 -25t56 -48t23.5 -75.5q0 -14 -6 -45l-10 -66l-12 -67q-6 -33 -10 -51q-10 -39 -38 -83t-75 -82t-114.5 -62.5t-155.5 -24.5q-66 0 -105 18t-58.5 43t-25.5 51.5t-6 44.5z" />
<glyph unicode="&#xbb;" horiz-adv-x="1091" d="M111 0l200 412l-67 405h264l102 -373h107l-53 375h286l78 -405l-194 -414h-302l168 369h-104l-199 -369h-286z" />
<glyph unicode="&#xbc;" horiz-adv-x="1773" d="M119 1157l63 252l248 190h254l-168 -948h-309l115 574zM420 147l534 1328l291 -101l-526 -1329zM928 176l45 234l401 538h297l-96 -581l76 2l-33 -197h-78l-33 -172h-299l37 225l39 228l-39 -50l-49 -227h-268z" />
<glyph unicode="&#xbd;" horiz-adv-x="1773" d="M119 1157l63 252l248 190h254l-168 -948h-309l115 574zM420 147l534 1328l291 -101l-526 -1329zM952 0q35 166 121 304t213 231q12 10 32.5 24t39 31.5t32 36t13.5 35.5q0 6 -12.5 15t-20.5 9q-18 0 -35.5 -12t-33 -28.5t-25.5 -35t-16 -32.5l-187 110q14 47 37 93 t61.5 83t95 60.5t136.5 23.5q45 0 91 -14t84 -46t61.5 -82t23.5 -120q0 -72 -37 -128t-86 -105l-98 -99q-51 -49 -78 -108h205l-45 -246h-572z" />
<glyph unicode="&#xbe;" horiz-adv-x="1773" d="M70 838q0 10 2 30q2 33 20 129l230 11q-2 -16 -7.5 -31.5t-5.5 -28t6.5 -20.5t24.5 -8q4 0 14.5 5t14.5 21l12 70l10 49q0 10 -7 19.5t-24 9.5q-10 0 -20 -4q-25 -6 -55 -27l-164 147l168 133h-144l35 256h537l-35 -241l-82 -80q45 -33 53.5 -64.5t5.5 -39.5 q-4 -47 -15 -131.5t-32 -184.5q-23 -111 -104.5 -159t-224.5 -48q-78 0 -121 24.5t-63.5 57.5t-24.5 63t-4 42zM420 147l534 1328l291 -101l-526 -1329zM928 176l45 234l401 538h297l-96 -581l76 2l-33 -197h-78l-33 -172h-299l37 225l39 228l-39 -50l-49 -227h-268z" />
<glyph unicode="&#xbf;" horiz-adv-x="1034" d="M104 367q0 -27 8.5 -87.5t46.5 -123t115.5 -109.5t217.5 -47q98 0 175.5 38t134 92t89.5 111.5t41 96.5l-250 158q-6 -18 -20.5 -46t-36 -53.5t-49 -44t-58.5 -18.5q-25 0 -53.5 19.5t-28.5 64.5q0 23 26.5 60.5t65.5 80.5t82 85t74 77q49 53 79 134t48 179h-334 q-27 -119 -81 -192.5t-117 -134.5q-84 -82 -129.5 -160t-45.5 -180zM485 1085l52 279h325l-43 -279h-334z" />
<glyph unicode="&#xc0;" d="M-41 0l352 662l131 247l115 219l82 160q33 61 37 72l-90 239h293l73 -233l121 -2l98 -1364h-340l-63 836l-143 -344l153 -3l17 -249h-316l-123 -240h-397z" />
<glyph unicode="&#xc1;" d="M-47 0l358 670l221 417q94 180 140 277h110l90 235h265l-68 -235l98 -1364h-340l-65 836l-144 -344l154 -3l16 -249h-315l-123 -240h-397z" />
<glyph unicode="&#xc2;" d="M-70 0l713 1362l78 2l16 119l279 145l246 -104l-88 -164l-193 76l-119 -74l178 2l105 -1364h-342l-66 836l-145 -344l156 -3l14 -249h-316l-122 -240h-394z" />
<glyph unicode="&#xc3;" d="M-33 0l340 627l131 241l119 222l92 174q39 72 51 100q-31 6 -63.5 3t-61.5 -11q-33 -8 -63 -23l20 230q33 16 90.5 33.5t110.5 17.5q39 0 85 -8.5t95.5 -19.5t98.5 -19t96 -8q12 0 30.5 7t37.5 17q23 10 45 25l-21 -252q-12 -8 -51 -16.5t-66 -2.5l93 -1337h-340l-68 836 l-143 -344l153 -3l17 -249h-316l-123 -240h-389z" />
<glyph unicode="&#xc4;" d="M-35 0l268 500l193 374l129 261l78 161h-221l55 303h342l-41 -235l188 -2l41 237l326 -2l-45 -297l-193 -2l86 -1298h-340l-63 836l-143 -344h151l17 -252h-314l-123 -240h-391z" />
<glyph unicode="&#xc5;" d="M-68 0l717 1329l-8 17q-6 14 -6 38q0 39 11 78t38 70t71 49t109 18q78 0 123 -23.5t68.5 -57t30 -71.5t6.5 -67q0 -31 -11.5 -60.5t-21.5 -41.5l-137 88q4 12 -5.5 39t-42.5 27q-35 0 -49 -19.5t-14 -34.5q0 -23 15.5 -40t37.5 -17q25 0 39 14q8 6 12 15l138 -86 l90 -1264h-342l-64 836l-145 -344l156 -3l12 -249h-314l-122 -240h-392z" />
<glyph unicode="&#xc6;" horiz-adv-x="1697" d="M76 0l784 1364h760l-35 -283h-276l-39 -260h264l-37 -270h-272l-35 -248l270 2l-47 -305h-602l156 958l-283 -477l186 2l-39 -243h-235l-123 -240h-397z" />
<glyph unicode="&#xc7;" horiz-adv-x="1054" d="M98 315l2 45q2 16 10.5 70.5l20.5 126.5l25 152l24 151l21 119q8 49 10 59q6 45 42 101.5t96.5 106.5t140 84t176.5 34q76 0 132 -26.5t95 -63.5t61.5 -75t28.5 -60q4 -20 4 -56q0 -31 -4 -80t-14 -120h-254q4 18 5 32.5t3 24.5q2 12 4 22.5t1 33t-9 45t-26.5 39 t-49.5 16.5q-29 0 -50.5 -22.5t-36.5 -55.5t-24.5 -70t-15.5 -67l-18 -86l-25 -117l-24 -121q-12 -59 -19 -102q-12 -86 5.5 -131t70.5 -45q25 0 45 16t35.5 38.5t26 46t12.5 38.5q2 10 4 26q2 14 4 33t6 47h252q-18 -106 -27 -145q-6 -25 -8 -41q-29 -80 -67.5 -137.5 t-86 -97.5t-99.5 -64.5t-105 -36.5q4 -23 2 -45.5t-2 -44.5q-4 -27 -17 -49q-10 -20 -33.5 -42t-64.5 -36q-6 43 -19.5 67.5t-26.5 35t-23.5 12.5t-12.5 2h-16q-8 0 -19.5 -1t-21.5 -3q-2 10 -3 41.5t19 97.5q-72 20 -105.5 72.5t-46 107.5t-10.5 98z" />
<glyph unicode="&#xc8;" horiz-adv-x="925" d="M63 2l15 80l24 164l37 219l39 246l107 655h137l-64 233h318l69 -235h123l-37 -295h-286l-37 -260h283l-43 -262h-291l-41 -248l293 2l-58 -297q-154 -2 -278 -2h-310z" />
<glyph unicode="&#xc9;" horiz-adv-x="978" d="M76 0l219 1364h147l45 233l312 2l-45 -235h174l-47 -317h-285l-37 -240h293l-41 -297h-301l-35 -221h313l-38 -291z" />
<glyph unicode="&#xca;" horiz-adv-x="925" d="M63 2l13 76l26 160l33 211l39 237l102 629h56l22 162l275 149l245 -106l-83 -172l-201 90l-174 -121h274h176l-43 -268h-278l-37 -250h280l-40 -262h-291l-39 -248l291 2l-52 -287q-154 -2 -280 -2h-314z" />
<glyph unicode="&#xcb;" horiz-adv-x="925" d="M63 2l13 76l26 160l33 211l41 237l103 633h-123l41 280h282l-39 -235h187l37 235h294l-38 -278h-56l-33 -252h-286l-37 -260h283l-43 -262h-291l-41 -248l293 2l-58 -297q-154 -2 -278 -2h-310z" />
<glyph unicode="&#xcc;" horiz-adv-x="655" d="M76 0l217 1364h76l-162 235h248l67 -235h80l-223 -1364h-303z" />
<glyph unicode="&#xcd;" horiz-adv-x="665" d="M74 -2l225 1366l115 2l39 233h243l-151 -235h63l-231 -1366h-303z" />
<glyph unicode="&#xce;" horiz-adv-x="681" d="M76 0l211 1274q-10 53 -23.5 89t-23.5 85l67 43l86 49l86 49l68 37l221 -104l-98 -189l-25 8l-41 15l-43 12q-20 8 -35 12q-10 -8 -30 -22l-39 -27q-23 -16 -51 -33l194 2l-221 -1300h-303z" />
<glyph unicode="&#xcf;" horiz-adv-x="688" d="M82 1323l43 276h285l-39 -237h194l43 237h285l-57 -278h-213l-230 -1323h-303l221 1325h-229z" />
<glyph unicode="&#xd0;" horiz-adv-x="1095" d="M33 541l43 272h98l90 551l303 -2l-80 -549h91l-43 -272h-86l-29 -207q27 6 56.5 16t56 28.5t48 50.5t31.5 81q12 55 24.5 123.5t23 135.5t15.5 123t5 85q0 25 -13.5 42t-34 27.5t-44 15.5t-43.5 5l45 297h186q92 -16 141.5 -71.5t73 -130.5t26.5 -158.5t3 -157.5 q-4 -250 -79 -428t-181 -299q-68 -55 -159 -81t-189.5 -34t-195.5 -6t-175 2l88 541h-96z" />
<glyph unicode="&#xd1;" horiz-adv-x="1189" d="M76 0l221 1343h90l29 201q31 14 61 25q27 10 55.5 19t53 15.5t56.5 4.5t64.5 -5.5t62.5 -8.5t52 -5q23 -2 49.5 1t49.5 7l55 9l129 24l-31 -194l-51 -17q-23 -6 -46.5 -11t-39.5 -5q-78 0 -125 2l-80 6q-33 2 -55.5 1t-50.5 -9q-57 -16 -80 -30.5t-35 -26.5h92l146 -353 l55 355h315l-219 -1348h-330q18 119 35 211q6 39 13.5 77t11.5 68l8 47l4 19q-10 16 -20 35l-23 35q-10 18 -20 38l-64 109l-113 -639h-325z" />
<glyph unicode="&#xd2;" horiz-adv-x="1040" d="M78 229q0 20 8 82l18 142l27 175q14 93 28.5 176t25 148.5t16.5 91.5q8 35 28.5 83.5t59.5 96.5t98 87t143 53l-170 235h304l61 -235q51 -6 98 -21.5t82 -43t56.5 -70.5t25.5 -105q2 -27 0 -41t-2 -22q0 -14 -7 -84t-22.5 -171t-38 -223t-51.5 -241q-18 -76 -57 -131 t-87 -93t-100.5 -61.5t-97.5 -36t-76.5 -16.5t-39.5 -4h-58l64 342q20 2 46.5 9t50.5 19.5t42 29t25 38.5q6 18 16 64.5t21.5 107t21.5 123.5l18 121q10 57 15.5 96t5.5 47q0 27 -12.5 45.5t-53.5 18.5q-29 0 -47 -6t-29.5 -19.5t-18.5 -37t-15 -56.5l-170 -938 q-92 8 -142.5 44t-74.5 77q-29 47 -35 104z" />
<glyph unicode="&#xd3;" horiz-adv-x="1040" d="M72 256q0 18 8 77.5t22 139.5l29 170l29 170l26 145l15 91q6 39 30.5 93t71.5 103t122 84t183 35q16 0 25 -2l24 237h261l-119 -264q78 -25 128 -81t54 -156q4 -80 -7 -180.5t-28.5 -204t-39 -200.5t-40.5 -171q-31 -127 -96 -195.5t-138 -101.5t-136.5 -39t-87.5 -6h-21 h-18q-10 0 -19 2l64 342q49 0 78.5 8t46 22.5t24.5 32l15 33.5l12 64l18 100l23 115l18 112l15 87q6 37 6 45q0 27 -11.5 46t-52.5 19q-49 0 -75.5 -24.5t-36.5 -94.5l-164 -903q-92 6 -142.5 46t-76.5 85q-31 53 -39 119z" />
<glyph unicode="&#xd4;" horiz-adv-x="1040" d="M80 248q0 23 8 82t21 137l26 170q14 90 29 170l26 141l15 90q6 33 24.5 78t53 90t88 82t129.5 55l16 130l287 149l237 -109l-86 -170l-200 87l-103 -74q63 -4 123 -17.5t106 -44t74.5 -80t32.5 -122.5q2 -27 0 -45.5t-2 -26.5q0 -14 -7 -77.5t-21.5 -157t-36 -209 t-50.5 -234.5q-18 -76 -57 -130t-87 -92t-100.5 -61.5t-97.5 -37t-76.5 -17.5t-39.5 -4h-58l64 344q25 0 50.5 6t48 18.5t40.5 30t25 41.5l20 107l33 162l27 151q12 68 12 80q4 33 -8.5 56.5t-53.5 23.5q-55 0 -78.5 -27.5t-33.5 -89.5l-166 -899q-92 8 -142.5 46t-74.5 83 q-29 52 -37 115z" />
<glyph unicode="&#xd5;" horiz-adv-x="1040" d="M78 229q-4 27 4 91.5t21.5 148.5t31.5 176l33 176q14 84 27.5 148.5t17.5 91.5q6 29 19.5 68.5t40 79.5t66.5 77t97 62q-8 0 -19 4t-24 4q-18 0 -38.5 -4t-39.5 -9q-23 -6 -43 -10l33 236q25 12 55 22q27 10 63 17.5t77 7.5t95 -9.5t107 -21.5l97 -20q45 -8 65 -9 q23 0 43.5 5.5t38.5 11.5l41 16l-24 -250q-10 -6 -23 -12q-10 -4 -23.5 -8t-29.5 -4q45 -29 70.5 -82t25.5 -119q0 -78 -11 -181.5t-28.5 -211t-38 -207.5t-39.5 -174q-31 -127 -97.5 -195.5t-138 -101.5t-135 -39t-87.5 -6h-21h-18q-10 0 -19 2l64 342q25 0 50 4t48 14.5 t41 30t25 47.5l12 66q10 45 19 101l20 116l20 113q10 51 15.5 86.5t7.5 44.5q4 27 -9.5 52t-54.5 25q-59 0 -80.5 -30.5t-31.5 -87.5l-166 -920q-92 6 -142.5 42t-74.5 77q-29 47 -35 106z" />
<glyph unicode="&#xd6;" horiz-adv-x="1040" d="M78 266q0 25 1 44.5t1 25.5q2 18 12 80l25 155l35 209l43 242q8 53 31.5 100t53 85t63.5 65.5t63 44.5h-175l39 282h303l-34 -241q41 8 70.5 7t35.5 -1q27 0 39 -2t25 -6l-64 -336q-18 6 -40.5 4t-46 -13.5t-43 -33t-32.5 -53.5q-6 -18 -16 -62.5t-21 -99.5l-20 -115 l-18 -112l-14 -90q-5 -36 -5 -44q0 -27 12.5 -46t53.5 -19q59 0 80.5 29.5t31.5 89.5l80 448l49 285l31 164l16 94q6 35 13 65l16 86l301 2l-49 -282h-147q37 -27 57 -57.5t31 -59.5q12 -33 16 -67q-4 -18 -13.5 -79t-23.5 -143l-31 -174l-30 -178l-27 -149l-14 -93 q-6 -39 -27.5 -93t-67 -104t-117 -85t-177.5 -35q-70 0 -135.5 12.5t-118 43t-85 81.5t-36.5 129z" />
<glyph unicode="&#xd7;" horiz-adv-x="1114" d="M111 197l235 225l-149 182l206 195l164 -195l232 205l178 -205l-227 -196l186 -211l-225 -197l-183 219l-217 -219z" />
<glyph unicode="&#xd8;" horiz-adv-x="1239" d="M31 78l151 244v10q0 14 7.5 78.5t20.5 160t34.5 211t52.5 236.5q18 76 57 130t87 92t100.5 61.5t96.5 37t75.5 17.5t40.5 4h22q10 0 18.5 -1t16.5 -1l-63 -342q-23 0 -48.5 -7.5t-48 -19.5t-41 -29.5t-24.5 -39.5q-6 -18 -16.5 -62.5t-20.5 -99.5l-21 -115l-18 -113 l-13 -89q-5 -36 -5 -44q0 -27 12 -46t53 -19q59 0 79.5 24.5t33.5 94.5l161 903l119 194l256 -145l-131 -234q4 -10 4 -18t2 -12q0 -8 2 -11q-4 -18 -13 -78.5t-23 -142.5l-31 -174l-31 -180l-27 -147l-14 -93q-6 -39 -27.5 -93t-66.5 -104t-116.5 -85t-178.5 -35 q-53 0 -105.5 8t-99.5 25l-88 -117z" />
<glyph unicode="&#xd9;" horiz-adv-x="1124" d="M98 340l76 498l27 186l24 164l21 121q6 47 6 55h321l-116 -786q-18 -129 7 -182.5t83 -53.5q25 0 40 14.5t24.5 37t14.5 48l9 47.5l131 791h-80l-102 319h227l51 -235h209l-170 -1077q-8 -49 -40 -99.5t-85 -92.5t-127 -68.5t-166 -26.5q-143 0 -221 46t-114.5 105.5 t-43 115t-6.5 73.5z" />
<glyph unicode="&#xda;" horiz-adv-x="1124" d="M98 344l158 1020h225l92 235h258l-219 -301h-41l-114 -716q-20 -127 -6 -181.5t73 -54.5q31 0 50.5 14.5t31.5 37t18.5 48t10.5 48.5q2 10 8 53l19 106l22 142q14 76 27 155l67 414h299l-176 -1073q-8 -49 -40 -100.5t-86 -93.5t-127 -69.5t-165 -27.5q-96 0 -161.5 22.5 t-108.5 56.5t-66.5 75t-34 78.5t-12.5 68.5t-2 43z" />
<glyph unicode="&#xdb;" horiz-adv-x="1124" d="M98 295q-2 31 0 45l156 995h43l-4 144l278 145l240 -108l-80 -162l-201 78l-120 -97h155l-108 -757q-18 -129 -7 -182.5t68 -53.5q33 0 53.5 14.5t33.5 37t19.5 48t10.5 47.5l115 846h317l-166 -1048q-8 -49 -40 -99.5t-85 -92.5t-127 -68.5t-166 -26.5 q-96 0 -161.5 21.5t-109.5 54.5t-67.5 72.5t-34 77.5t-12.5 69z" />
<glyph unicode="&#xdc;" horiz-adv-x="1189" d="M98 332q27 193 56 373l49 321l51 315h139l4 33h-112l34 225h330l-37 -225h-129l-2 -31l105 -2l-129 -772q-20 -127 -7 -181t70 -54q25 0 44.5 14t33.5 37t23.5 48.5t13.5 47.5l137 860l139 2l2 31h-114l39 225h319l-35 -225h-112l-2 -33l77 -2l-69 -440l-29 -178 l-29 -176l-26 -152l-21 -114q-10 -49 -42.5 -98.5t-88 -89.5t-130.5 -65.5t-167 -25.5q-143 0 -222 45t-115.5 102.5t-43 112t-4.5 72.5z" />
<glyph unicode="&#xdd;" horiz-adv-x="1169" d="M92 1364h203l102 233l332 2l-237 -321l96 -236l180 322h414l-463 -743l-88 -621h-369l127 772z" />
<glyph unicode="&#xde;" horiz-adv-x="1222" d="M74 -2l225 1364l307 2l-153 -907q2 -4 11 -14.5t24.5 -20.5t37 -19.5t47.5 -9.5q41 0 70 12.5t48.5 30t29.5 34.5t16 30q6 10 12.5 38.5t12.5 61.5l12 59q4 29 6 39q4 18 5 56.5t-11 62.5q-10 27 -34.5 34t-65.5 3q-20 -2 -44 -12.5t-46 -24.5q-25 -16 -49 -37l40 260 q39 31 84 56q39 23 91.5 41t113.5 22q37 2 90.5 -15.5t101.5 -51t81.5 -84t33.5 -113.5q0 -117 -23.5 -218.5t-43.5 -174.5q-6 -23 -35 -72t-80 -100t-124.5 -89t-172.5 -38q-117 0 -179 23.5t-91 41.5l-45 -270h-303z" />
<glyph unicode="&#xdf;" horiz-adv-x="1204" d="M119 0l227 1348h399q37 0 96.5 -17.5t113 -61.5t87 -119t19.5 -189q-4 -23 -20.5 -53.5t-42 -60.5t-59.5 -54.5t-73 -32.5q37 -12 80 -39t80 -71t58.5 -108.5t13.5 -152.5q-8 -59 -38 -126.5t-81 -126t-125 -97.5t-172 -39q27 -2 31 -2t-14.5 0t-84.5 2l43 274 q16 0 37 9.5t39.5 25t32.5 37t18 43.5q12 61 4 114.5t-32.5 93.5t-61.5 62.5t-82 22.5l35 197q53 0 85 8t49.5 20.5t23.5 26.5t8 27q4 25 -7 41t-30.5 26t-42 14.5t-41.5 4.5h-57l-184 -1047h-332z" />
<glyph unicode="&#xe0;" horiz-adv-x="1275" d="M63 213q0 14 2.5 36.5t8.5 53.5l30 170l25 129q12 63 18 88q53 115 145.5 178.5t194.5 81.5l-157 267h307l68 -277q43 -12 81.5 -32.5t61.5 -49.5l16 103h318l-162 -963l-340 2l119 690l-4 23q-8 16 -23 30q-14 12 -36.5 22.5t-63.5 10.5t-71 -18.5t-49.5 -42t-29.5 -46 t-12 -30.5q-2 -10 -10 -47l-17.5 -83t-16.5 -90t-7 -67q0 -25 16.5 -38t39 -21t46 -10t37.5 -2q16 0 36.5 11t41.5 27q23 16 47 39l-43 -233q-47 -35 -84 -59.5t-70.5 -40t-68.5 -21.5t-78 -6q-68 0 -125 19.5t-99 50t-67 69.5t-25 76z" />
<glyph unicode="&#xe1;" horiz-adv-x="1275" d="M63 213q0 14 2.5 36.5t8.5 53.5l30 170l25 129q12 63 18 88q53 115 142.5 176.5t191.5 83.5l45 267h289l-115 -275q43 -14 84 -34.5t64 -49.5l16 103h318l-162 -963l-340 2l119 690l-4 23q-8 16 -23 30q-14 12 -36.5 22.5t-63.5 10.5t-71 -18.5t-49.5 -42t-29.5 -46 t-12 -30.5q-2 -10 -10 -47l-17.5 -83t-16.5 -90t-7 -67q0 -25 16.5 -38t39 -21t46 -10t37.5 -2q16 0 36.5 11t41.5 27q23 16 47 39l-43 -233q-47 -35 -84 -59.5t-70.5 -40t-68.5 -21.5t-78 -6q-68 0 -125 19.5t-99 50t-67 69.5t-25 76z" />
<glyph unicode="&#xe2;" horiz-adv-x="1275" d="M63 213q0 14 2.5 36.5t8.5 53.5l30 170l25 129q12 63 18 88q39 80 95.5 134.5t124.5 86.5l28 240l88 39q35 16 71 29.5t54 17.5q18 2 61.5 4t91.5 4t90 3t56 5q35 6 70 19l67 22q37 12 70 27l-33 -236q-27 -12 -59 -22q-29 -10 -63.5 -18.5t-71.5 -12.5q-10 -2 -51 -3 t-88.5 -3t-92.5 -5t-65 -7q-29 -6 -66 -26.5t-71 -43.5q72 16 135 17q29 0 65.5 -7.5t73.5 -20.5t68.5 -31.5t52.5 -43.5l16 103h318l-162 -963l-340 2l119 690l-4 23q-8 16 -23 30q-14 12 -36.5 22.5t-63.5 10.5t-71 -18.5t-49.5 -42t-29.5 -46t-12 -30.5q-2 -10 -10 -47 l-17.5 -83t-16.5 -90t-7 -67q0 -25 16.5 -38t39 -21t46 -10t37.5 -2q16 0 36.5 11t41.5 27q23 16 47 39l-43 -233q-47 -35 -84 -59.5t-70.5 -40t-68.5 -21.5t-78 -6q-68 0 -125 19.5t-99 50t-67 69.5t-25 76z" />
<glyph unicode="&#xe3;" horiz-adv-x="1275" d="M63 213q0 14 2.5 36.5t8.5 53.5l30 170l25 129q12 63 18 88q37 80 94.5 134.5t125.5 86.5l28 240q41 20 84 39q35 16 78 30.5t82 20.5q53 8 128 5t138 7q74 12 125 34t86 42l-35 -244q-35 -23 -88 -36t-114 -17q-76 -6 -140.5 -5t-117.5 -7q-31 -4 -70 -24.5t-72 -49.5 q35 10 54.5 12.5t54.5 2.5q29 0 65.5 -7.5t73.5 -20.5t68.5 -31.5t52.5 -43.5l16 103h318l-162 -963l-340 2l119 690l-4 23q-8 16 -23 30q-14 12 -36.5 22.5t-63.5 10.5t-71 -18.5t-49.5 -42t-29.5 -46t-12 -30.5q-2 -10 -10 -47l-17.5 -83t-16.5 -90t-7 -67q0 -25 16.5 -38 t39 -21t46 -10t37.5 -2q16 0 36.5 11t41.5 27q23 16 47 39l-43 -233q-47 -35 -84 -59.5t-70.5 -40t-68.5 -21.5t-78 -6q-68 0 -125 19.5t-99 50t-67 69.5t-25 76z" />
<glyph unicode="&#xe4;" horiz-adv-x="1275" d="M63 213q0 14 2.5 36.5t8.5 53.5l30 170l25 129q12 63 18 88q47 98 120 157.5t159 88.5l6 45h-113l43 236h285l-47 -236h-92l-4 -27q43 6 84 7q45 0 104 -17l10 41h-67l47 232h274l-49 -234h-119l-16 -70q49 -23 76 -55l16 103h318l-162 -963l-340 2l119 690l-4 23 q-8 16 -23 30q-14 12 -36.5 22.5t-63.5 10.5t-71 -18.5t-49.5 -42t-29.5 -46t-12 -30.5q-2 -10 -10 -47l-17.5 -83t-16.5 -90t-7 -67q0 -25 16.5 -38t39 -21t46 -10t37.5 -2q16 0 36.5 11t41.5 27q23 16 47 39l-43 -233q-47 -35 -84 -59.5t-70.5 -40t-68.5 -21.5t-78 -6 q-68 0 -125 19.5t-99 50t-67 69.5t-25 76z" />
<glyph unicode="&#xe5;" horiz-adv-x="1265" d="M63 213q0 14 2.5 36.5t8.5 53.5l30 170l25 129q12 63 18 88q45 94 117 155.5t158 86.5q-45 31 -67.5 82t-22.5 98q0 57 22.5 99t56 70t74.5 41t78 13q43 0 84 -13t74 -41t53.5 -71t20.5 -104q0 -43 -11.5 -72.5t-23.5 -50.5q-14 -23 -33 -37l-115 135q2 4 6 11 q2 4 4.5 11t2.5 13q0 10 -14.5 31.5t-39.5 21.5q-23 0 -39 -16t-16 -43t22.5 -41t33 -14t22.5 8q6 4 10 8l113 -135q39 -12 73.5 -31.5t57.5 -46.5l16 103h318l-162 -963l-340 2l119 690l-4 23q-8 16 -23 30q-14 12 -36.5 22.5t-63.5 10.5t-71 -18.5t-49.5 -42t-29.5 -46 t-12 -30.5q-2 -10 -10 -47l-17.5 -83t-16.5 -90t-7 -67q0 -25 16.5 -38t39 -21t46 -10t37.5 -2q16 0 36.5 11t41.5 27q23 16 47 39l-43 -233q-47 -35 -84 -59.5t-70.5 -40t-68.5 -21.5t-78 -6q-68 0 -125 19.5t-99 50t-67 69.5t-25 76z" />
<glyph unicode="&#xe6;" horiz-adv-x="1648" d="M111 209q-4 39 4 73.5t18 88.5q14 86 67.5 145t123 94t147.5 50.5t145 15.5q51 0 98.5 -17.5t90.5 -42.5l6 27q2 12 3 39t-9 52.5t-38 46t-83 20.5q-43 0 -69.5 -12.5t-43.5 -26.5q-18 -18 -24 -39l-174 100q31 39 76 70q39 27 96 48.5t139 21.5q119 0 190.5 -31 t116.5 -78q14 14 41 32.5t65 35t91 26.5t121 10q41 0 89 -15t88 -46t64.5 -78t18.5 -110q-8 -82 -46 -134.5t-89.5 -81t-108.5 -40t-106 -11.5h-62q-14 0 -29 2l21 123h35q31 0 71 6q33 2 53.5 13.5t32 25t15.5 28.5t4 26q2 18 -22.5 33.5t-65.5 15.5q-25 0 -48.5 -12.5 t-43 -31t-32.5 -41t-18 -44.5q-10 -61 -18 -123l-10 -98q-4 -29 23.5 -53.5t74.5 -24.5q39 0 84 31.5t92 60.5q14 8 37 -3t42.5 -31.5t29.5 -43t0 -37.5q-6 -10 -43 -52t-98.5 -89t-146.5 -85t-185 -38q-82 0 -138.5 14.5t-91 39t-48 56t-7.5 66.5l43 264q-10 8 -20.5 17.5 t-26.5 16.5t-42 11t-67 4q-25 0 -50 -9t-46.5 -24.5t-36 -35t-16.5 -39.5q-6 -33 2 -53.5t24.5 -30.5t38 -14t44 -2t49 15t53.5 30q29 18 61 43l-37 -228q-39 -39 -69.5 -65.5t-64.5 -44t-77 -24.5t-110.5 -7t-116.5 17.5t-82 47t-50 66.5t-19 78z" />
<glyph unicode="&#xe7;" horiz-adv-x="1046" d="M79 244.5q-3 29.5 1 52.5q10 53 18 109l19 102l16 104q8 47 34 87t54 71q33 33 79 67.5t100.5 62.5t117 46.5t127.5 18.5q139 0 209 -39t104 -101q31 -53 27 -107t-33 -73q-41 -27 -68.5 -8.5t-43.5 41.5q-16 35 -50 70.5t-88 35.5q-12 0 -34.5 -2t-46 -11t-45 -26.5 t-33.5 -48.5q-23 -74 -41.5 -144.5t-18.5 -148.5q0 -16 2 -32.5t11.5 -29.5t28 -22.5t48.5 -9.5q59 0 106.5 34t94.5 73q31 14 61.5 11t52 -20.5t31 -45t-3.5 -58.5q-70 -125 -178 -198.5t-241 -96.5q6 -31 9 -76t-9 -79q-10 -29 -27.5 -43.5t-34.5 -24.5q-20 -10 -41 -14 q-6 16 -14 32l-14 29q-6 16 -15 29q-8 10 -23.5 15t-31.5 5q-18 0 -39 -2q-6 47 0 75t16 62q-63 23 -114.5 72t-71.5 113q-4 14 -7 43.5z" />
<glyph unicode="&#xe8;" horiz-adv-x="964" d="M51 227l47 326q10 74 45 140.5t88.5 120.5t119 91t136.5 49l-157 263h311l66 -279q68 -23 114.5 -72t57.5 -127q8 -82 -21 -133t-73 -79.5t-91 -41t-76 -14.5q-16 -2 -45.5 -2t-60.5 2q-37 0 -76 2l31 115q12 2 29 4q14 2 31.5 4t35.5 6q66 6 87.5 38t17.5 54 q0 2 -2 10.5t-8.5 17.5t-17.5 16t-32 7q-121 0 -159 -159q-6 -29 -14.5 -64t-14.5 -65.5t-10 -53t-4 -30.5q0 -18 12 -29.5t29.5 -15.5t34 -5t24.5 -1q27 0 72 26l90 55q23 14 50 8.5t48.5 -25t30 -50.5t-5.5 -64q-4 -10 -38 -54t-89.5 -92t-132 -87t-166.5 -39 q-94 0 -156 29.5t-97.5 68.5t-49 77t-11.5 52z" />
<glyph unicode="&#xe9;" horiz-adv-x="964" d="M51 227l47 326q10 74 45 140.5t87.5 119.5t118 90t136.5 51l47 263h279l-113 -275q70 -23 120 -72t61 -131q8 -82 -21 -133t-73 -79.5t-91 -41t-76 -14.5q-16 -2 -45.5 -2t-60.5 2q-37 0 -76 2l31 115q12 2 29 4q14 2 31.5 4t35.5 6q66 6 87.5 38t17.5 54q0 2 -2 10.5 t-8.5 17.5t-17.5 16t-32 7q-121 0 -159 -159q-6 -29 -14.5 -64t-14.5 -65.5t-10 -53t-4 -30.5q0 -18 12 -29.5t29.5 -15.5t34 -5t24.5 -1q27 0 72 26l90 55q23 14 50 8.5t48.5 -25t30 -50.5t-5.5 -64q-4 -10 -38 -54t-89.5 -92t-132 -87t-166.5 -39q-94 0 -156 29.5 t-97.5 68.5t-49 77t-11.5 52z" />
<glyph unicode="&#xea;" horiz-adv-x="964" d="M51 227l47 326q8 68 39 130t77 113.5t104.5 89.5t121.5 56l25 168l256 166l231 -84l-34 -199l-234 66l-121 -96q55 0 109.5 -13.5t97.5 -40t72.5 -68.5t36.5 -102q8 -82 -21 -133t-73 -79.5t-91 -41t-76 -14.5q-16 -2 -45.5 -2t-60.5 2q-37 0 -76 2l31 115q12 2 29 4 q14 2 31.5 4t35.5 6q66 6 87.5 38t17.5 54q0 2 -2 10.5t-8.5 17.5t-17.5 16t-32 7q-121 0 -159 -159q-6 -29 -14.5 -64t-14.5 -65.5t-10 -53t-4 -30.5q0 -18 12 -29.5t29.5 -15.5t34 -5t24.5 -1q27 0 72 26l90 55q23 14 50 8.5t48.5 -25t30 -50.5t-5.5 -64q-4 -10 -38 -54 t-89.5 -92t-132 -87t-166.5 -39q-94 0 -156 29.5t-97.5 68.5t-49 77t-11.5 52z" />
<glyph unicode="&#xeb;" horiz-adv-x="964" d="M51 227l47 326q8 61 35 118.5t67 105.5t91 87t106 64l9 51h-115l35 238h280l-37 -238h-92l-4 -27q47 10 88 11q39 0 78 -6.5t74 -20.5l6 43h-115l35 238h281l-37 -238h-92l-13 -76q41 -27 67.5 -66.5t33.5 -97.5q8 -82 -21 -133t-73 -79.5t-91 -41t-76 -14.5 q-16 -2 -45.5 -2t-60.5 2q-37 0 -76 2l31 115q12 2 29 4q14 2 31.5 4t35.5 6q66 6 87.5 38t17.5 54q0 2 -2 10.5t-8.5 17.5t-17.5 16t-32 7q-121 0 -159 -159q-6 -29 -14.5 -64t-14.5 -65.5t-10 -53t-4 -30.5q0 -18 12 -29.5t29.5 -15.5t34 -5t24.5 -1q27 0 72 26l90 55 q23 14 50 8.5t48.5 -25t30 -50.5t-5.5 -64q-4 -10 -38 -54t-89.5 -92t-132 -87t-166.5 -39q-94 0 -156 29.5t-97.5 68.5t-49 77t-11.5 52z" />
<glyph unicode="&#xec;" horiz-adv-x="724" d="M121 0l153 913h74l-100 304h299l-21 -306h84l-159 -911h-330z" />
<glyph unicode="&#xed;" horiz-adv-x="724" d="M121 0l153 913h78l4 304h301l-122 -306h75l-159 -911h-330z" />
<glyph unicode="&#xee;" horiz-adv-x="880" d="M121 0l153 913h52l24 162l230 195l249 -96l-26 -183l-254 68l-158 -146h64h30h15h16q10 0 30.5 -1t63.5 -1l-159 -911h-330z" />
<glyph unicode="&#xef;" horiz-adv-x="837" d="M121 0l153 913h25l8 48h-125l39 256h256l-39 -256l-59 -3l-4 -47h141l6 50h-53l41 256h244l-37 -256h-123l-8 -50h24l-159 -911h-330z" />
<glyph unicode="&#xf0;" horiz-adv-x="1425" d="M86 231q-2 27 8 88l21 125q12 74 30 160q16 74 69.5 131.5t123.5 98t146.5 67.5t140.5 39l-45 -260q-25 -20 -39.5 -44t-23.5 -47.5t-13 -43t-6 -31.5l-15 -80q-6 -31 -10 -59.5t-6 -36.5q0 -6 2 -17.5t11 -20.5t27.5 -16.5t53.5 -7.5q27 0 58.5 10.5t60.5 29t50.5 43 t29.5 53.5q8 27 16 59l15 64q6 31 10 57l6 39q2 16 0 33.5t-10.5 31t-26.5 21.5t-51 8q-33 -2 -53.5 -7t-34.5 -13q-16 -8 -27 -19l47 256l45 6q25 2 83.5 -11t113.5 -42l39 158l-182 -11l43 181l180 12q2 37 8 71.5t-10.5 61.5t-69.5 43t-166 16q-8 0 -28 -2l-41 -4 q-23 -2 -41.5 -4t-22.5 -4l33 117q72 16 147.5 27.5t153.5 11.5q141 0 204.5 -26.5t80 -72t3 -102.5t-25.5 -121l150 8l-21 -188l-176 -8q-39 -180 -84 -357l-92 -352q-16 -59 -64.5 -120.5t-125 -112.5t-180 -84t-228.5 -33q-100 0 -157.5 25.5t-87.5 62.5t-38 75.5 t-8 67.5z" />
<glyph unicode="&#xf1;" horiz-adv-x="1316" d="M96 0l174 961h99l24 190q23 8 51 20l62 29q33 14 67.5 25.5t67.5 17.5q16 2 49 2h72q37 0 74.5 1t64.5 5q29 4 66 16.5t69 24.5q37 14 78 33l-37 -240q-31 -12 -63 -20l-60 -16q-31 -8 -59 -13q-23 -4 -61.5 -5t-81.5 -3t-86 -5t-76 -11q-27 -6 -49.5 -20.5t-42.5 -30.5 h133l-21 -119q31 27 83 49t112.5 39.5t118 27t96.5 9.5q57 0 106.5 -12.5t83 -40t50 -70.5t8.5 -105l-107 -739h-407l118 662q10 57 -16.5 82.5t-75.5 25.5q-86 0 -141 -40t-66 -85q-8 -37 -16 -84l-20 -98l-21 -107q-10 -55 -18 -106q-23 -121 -43 -250h-359z" />
<glyph unicode="&#xf2;" horiz-adv-x="1024" d="M55 233q-2 29 8 93l21 129q12 78 31 168q31 76 85 135t119.5 102t137 67.5t137.5 30.5l-45 -258q-10 -8 -19.5 -18t-17.5 -27q-16 -31 -28.5 -73.5t-21.5 -85.5t-15.5 -80t-8.5 -58q-2 -8 -1 -18t9.5 -19.5t27 -16.5t52.5 -7q88 0 131 32.5t54 57.5q4 12 13 48t17 77 l19 80q8 39 12 55q6 33 -11.5 64.5t-70.5 31.5q-27 0 -48 -5t-38 -11q-18 -8 -33 -16l84 506h226l-111 -267q37 -10 75 -26.5t69.5 -42t52 -61.5t20.5 -81q0 -23 -7 -69.5t-16.5 -101t-19.5 -105.5t-16 -78q-14 -59 -56.5 -127t-114 -126t-174 -96t-237.5 -38 q-98 0 -156.5 26.5t-87 64.5t-38 77.5t-9.5 66.5z" />
<glyph unicode="&#xf3;" horiz-adv-x="1024" d="M55 233q-2 29 8 93l21 129q12 78 31 168q31 76 84 132t118.5 97t136 67.5t134.5 38.5l-39 -258q-10 -8 -19.5 -18t-17.5 -27q-16 -31 -28.5 -73.5t-21.5 -85.5t-15.5 -80t-8.5 -58q-2 -8 -1 -18t9.5 -19.5t27 -16.5t52.5 -7q88 0 131 32.5t54 57.5q4 12 13 48t17 77 l19 80q8 39 12 55q6 33 -11.5 64.5t-70.5 31.5q-27 0 -48 -5t-38 -11l-33 -14l37 248l-147 256h276l72 -279q66 -25 121 -72t57 -127q0 -23 -7 -69.5t-16.5 -101t-19.5 -105.5t-16 -78q-14 -59 -56.5 -127t-114 -126t-174 -96t-237.5 -38q-98 0 -156.5 26.5t-87 64.5 t-38 77.5t-9.5 66.5z" />
<glyph unicode="&#xf4;" horiz-adv-x="1024" d="M55 233q-2 29 8 93l21 129q12 78 31 168q43 109 127 178t182 110l22 156l285 209l217 -94l-22 -195l-221 72l-111 -101l-43 -256q-10 -8 -20.5 -19t-18.5 -28q-16 -31 -28.5 -73.5t-21.5 -85.5t-15.5 -80t-8.5 -58q-2 -8 -1 -18t9.5 -19.5t27 -16.5t52.5 -7 q88 0 131 32.5t54 57.5q4 12 13 48l19 77l17 80q8 39 12 55q6 33 -11.5 64.5t-70.5 31.5q-27 0 -47 -5t-37 -11q-18 -8 -33 -16l41 247l54 9q23 2 75 -7.5t106 -36t95 -71.5t43 -113q0 -23 -7 -69.5t-16.5 -101t-19.5 -105.5t-16 -78q-14 -59 -56.5 -127t-114 -126t-174 -96 t-237.5 -38q-98 0 -156.5 26.5t-87 64.5t-38 77.5t-9.5 66.5z" />
<glyph unicode="&#xf5;" horiz-adv-x="1032" d="M55 233q-2 29 8 93l21 129q12 78 31 168q41 104 125 172.5t178 109.5l33 234q45 27 107.5 55.5t115.5 38.5t110.5 11t96.5 13q20 6 43 17l41 20q23 10 45 25l-39 -244q-16 -12 -35 -20l-35 -17q-20 -10 -43 -14q-23 -6 -55 -8l-66 -6q-33 -4 -60.5 -6.5t-35.5 -4.5 q-12 -4 -20 -10l-19 -14q-8 -8 -14 -17l-43 -258q-10 -8 -17.5 -18t-15.5 -27q-16 -31 -28.5 -73.5t-21.5 -85.5t-15.5 -80t-8.5 -58q-2 -8 -1 -18t9.5 -19.5t27 -16.5t52.5 -7q88 0 131 32.5t54 57.5q4 12 13 48l19 77l17 80q8 39 12 55q6 33 -11.5 64.5t-70.5 31.5 q-35 0 -58.5 -5t-37.5 -11q-18 -8 -27 -16l41 250l60 6q23 2 75 -8.5t106 -36t95 -70.5t43 -113q0 -23 -7 -69.5t-16.5 -101t-19.5 -105.5t-16 -78q-14 -59 -56.5 -127t-114 -126t-174 -96t-237.5 -38q-98 0 -156.5 26.5t-87 64.5t-38 77.5t-9.5 66.5z" />
<glyph unicode="&#xf6;" horiz-adv-x="1024" d="M55 233q-2 29 8 93l21 129q12 78 31 168q25 61 64.5 109t88.5 87t105.5 66.5t111.5 46.5l7 61l-127 2l30 222h277l-33 -222h-45l-6 -34h2l-41 -261l-21.5 -18t-15.5 -27q-16 -31 -28.5 -73.5t-21.5 -85.5t-15.5 -80t-8.5 -58q-2 -8 -1 -18t9.5 -19.5t27 -16.5t52.5 -7 q88 0 131 32.5t54 57.5q4 12 13 48t17 77l19 80q8 39 12 55q6 33 -11.5 64.5t-70.5 31.5q-31 0 -53.5 -5t-36.5 -11q-18 -8 -29 -16l39 252l58 4q16 2 45.5 -1t70.5 -16l9 43l-119 2l31 222h274l-33 -222h-51l-16 -88q41 -29 73.5 -70.5t34.5 -97.5q0 -23 -7 -69.5 t-16.5 -101t-19.5 -105.5t-16 -78q-14 -59 -56.5 -127t-114 -126t-174 -96t-237.5 -38q-98 0 -156.5 26.5t-87 64.5t-38 77.5t-9.5 66.5z" />
<glyph unicode="&#xf7;" horiz-adv-x="948" d="M84 332l45 266h735l-55 -266h-725zM246 0l45 272h301l-45 -272h-301zM342 659l45 275h291l-35 -275h-301z" />
<glyph unicode="&#xf8;" horiz-adv-x="1198" d="M59 39l54 82q-16 31 -20.5 60.5t-6.5 51.5q0 29 8 93l21 129q12 78 30 168q35 74 88.5 131t116 98t130 67.5t130.5 38.5l-24 -258q-25 -20 -37 -42.5t-18.5 -45t-10.5 -41.5l-4 -30q-14 -47 -22 -84q-10 -33 -16.5 -62.5t-8.5 -36.5q0 -8 -2 -18t5 -20.5t26.5 -16.5 t60.5 -6t70.5 11t50 25.5t33.5 28.5l20 25q8 10 19.5 46t22.5 79t19.5 83t12.5 56q8 33 -7.5 63.5t-78.5 28.5q-33 -2 -53.5 -7t-34.5 -11q-16 -8 -25 -18l25 254l65 6q16 2 47 -3.5t66 -17.5l96 162l236 -64l-137 -241q12 -29 12 -64q0 -23 -8 -69l-19 -101 q-10 -55 -21.5 -106t-19.5 -78q-16 -59 -60 -124.5t-116 -122t-171 -94.5t-226 -40q-10 -2 -20.5 -1t-20.5 1q-16 -20 -29 -39l-26 -35l-27 -34z" />
<glyph unicode="&#xf9;" horiz-adv-x="1245" d="M89 184.5q-5 51.5 3 102.5q2 8 7 41.5t14 83.5l18 108l19 121l53 320h268l-131 256h299l63 -334h-137l-28 -146l-33 -172l-29 -151q-12 -66 -14 -82q-4 -29 3 -47.5t23.5 -28.5t40 -14t47.5 -4q16 0 41 10t49.5 26.5t43 39t24.5 44.5q2 14 9.5 48t15.5 79l18 99l21 106 q23 125 53 271h342l-154 -961h-360l16 96l-69 -30q-35 -16 -77 -32t-91 -26t-109 -10q-90 0 -144 25.5t-82 67.5t-33 93.5z" />
<glyph unicode="&#xfa;" horiz-adv-x="1245" d="M89 184.5q-5 51.5 3 102.5q2 8 7 41.5t14 83.5l18 108l19 121l53 320h280l49 256h275l-148 -363h-100l-29 -147l-30 -162l-25 -137q-12 -61 -14 -76q-4 -29 3 -47.5t23.5 -28.5t40 -14t47.5 -4q16 0 41 10t49.5 26.5t43 39t24.5 44.5q2 14 9.5 48t15.5 79l18 99l21 106 q23 125 53 271h342l-154 -961h-360l16 96l-69 -30q-35 -16 -77 -32t-91 -26t-109 -10q-90 0 -144 25.5t-82 67.5t-33 93.5z" />
<glyph unicode="&#xfb;" horiz-adv-x="1245" d="M89 184.5q-5 51.5 3 102.5q2 8 7 41.5t14 83.5l18 108l19 121l53 320h192l15 110l245 197l254 -101l-26 -161l-244 57l-139 -102h80l-9 -43l-20 -109l-27 -141l-28 -148l-25 -123q-8 -51 -10 -65q-4 -29 3 -47.5t23.5 -28.5t40 -14t47.5 -4q16 0 41 10t49.5 26.5t43 39 t24.5 44.5q2 14 9.5 48t15.5 79l18 99l21 106q23 125 53 271h342l-154 -961h-360l16 96l-69 -30q-35 -16 -77 -32t-91 -26t-109 -10q-90 0 -144 25.5t-82 67.5t-33 93.5z" />
<glyph unicode="&#xfc;" horiz-adv-x="1245" d="M98 184.5q-4 51.5 4 102.5q2 8 6.5 39.5t12.5 76.5l14 101q8 55 19 112l47 297h159l9 48h-129l41 256h378l-38 -254l-134 -2l-10 -48h90l-6 -39l-18 -100l-25 -131l-26 -135l-20.5 -114t-10.5 -62q-4 -29 3 -47.5t23.5 -28.5t40 -14t47.5 -4q16 0 41 10t49.5 26.5t43 39 t24.5 44.5q2 14 9.5 46t14.5 74t17 91l19 97l47 245h139l10 50h-117l41 256h353l-39 -254l-119 -2l-12 -50h86l-144 -911h-360l16 96l-67 -30q-37 -16 -79 -32t-91 -26t-109 -10q-90 0 -142 25.5t-78 67.5t-30 93.5z" />
<glyph unicode="&#xfd;" horiz-adv-x="1333" d="M72 217l118 744h207l39 256h289l-150 -388h-45l-22 -118l-23 -136l-22 -131q-12 -63 -19 -110q-4 -27 7.5 -47.5t30 -34.5t42 -21.5t45.5 -7.5q86 0 147.5 55.5t76.5 145.5l86 537h381l-183 -1067q-12 -70 -54 -126.5t-102.5 -96.5t-132 -61.5t-145.5 -21.5 q-137 0 -271 38t-255 104q-2 25 4 49t8 51l150 -35q76 -18 159 -12q94 6 153.5 22.5t95.5 50t51.5 88t21.5 136.5q-78 -49 -153 -86t-167 -43q-68 -4 -131 9t-114.5 47t-85 86t-37.5 124z" />
<glyph unicode="&#xfe;" horiz-adv-x="1222" d="M74 -211l225 1364l307 2l-153 -907q2 -4 11 -14.5t24.5 -20.5t37 -19.5t47.5 -9.5q41 0 70 12.5t48.5 30t29.5 35t16 29.5q6 10 12.5 38.5t12.5 61.5l12 60q4 29 6 38q4 18 5 56.5t-11 62.5q-10 27 -34.5 34t-65.5 3q-20 -2 -44 -12t-46 -25q-25 -16 -49 -37l40 260 q39 31 84 56q39 23 91.5 41t113.5 22q37 2 90.5 -15t101.5 -51t81.5 -84t33.5 -114q0 -117 -23.5 -218t-43.5 -175q-6 -23 -35 -72t-80 -100t-124.5 -89t-172.5 -38q-117 0 -179 23.5t-91 41.5l-45 -270h-303z" />
<glyph unicode="&#xff;" horiz-adv-x="1333" d="M72 217l110 694h166l8 50h-125l37 256h365l-41 -256h-135l-6 -50h96l-41 -217l-35 -188l-27 -172q-4 -27 7.5 -47.5t30 -34.5t42 -21.5t45.5 -7.5q86 0 147.5 55.5t76.5 145.5l77 487h174l9 50h-125l37 256h364l-41 -256h-135l-6 -50h104l-174 -1017q-12 -70 -54 -126.5 t-102.5 -96.5t-132 -61.5t-145.5 -21.5q-137 0 -271 38t-255 104q-2 25 4 49t8 51l147 -35q78 -18 162 -12q94 6 153.5 22.5t95.5 50t51.5 88t21.5 136.5q-78 -49 -153 -86t-167 -43q-68 -4 -131 9t-114.5 47t-85 86t-37.5 124z" />
<glyph unicode="&#x152;" horiz-adv-x="1376" d="M78 293q0 33 10 114.5t25.5 187t36 221.5t41 214t77 162.5t123 102.5t133 53.5t111.5 15.5h690l-43 -287h-684q-33 0 -54.5 -16.5t-35.5 -43t-22.5 -61t-14.5 -71.5l-41 -244l-16 -90l-13 -80q-6 -37 -9 -60.5t-3 -25.5q0 -6 1 -16.5t6 -20.5t18.5 -17t38.5 -7 q37 0 58 11t32.5 27.5t15.5 36t6 35.5l115 627h311l-37 -240h287l-45 -274l-276 -2l-39 -242h274l-57 -303h-703q-113 0 -176 34t-95 80t-39 96t-7 83z" />
<glyph unicode="&#x153;" horiz-adv-x="1550" d="M39 233q-2 29 8 93l21 129q12 78 30 168q31 76 83 132t116.5 97t135.5 67.5t134 38.5l-37 -258q-10 -8 -18 -18t-16 -27q-16 -31 -28.5 -73.5t-22 -85.5t-15.5 -80t-8 -58q-2 -8 -1 -18t9 -19.5t26.5 -16.5t53.5 -7q84 0 133 28.5t59 55.5l54 266q6 33 -11.5 64.5 t-72.5 31.5q-27 0 -48.5 -6t-37.5 -12q-20 -8 -35 -16l39 252l59 6q16 2 48 -3.5t69 -16.5t75 -30.5t68 -46.5q53 41 122 67t149 26q55 0 109 -12.5t98.5 -39t74 -69.5t35.5 -103q8 -82 -19.5 -133t-71.5 -79.5t-91 -41t-76 -14.5q-16 -2 -48 -2t-61 2q-37 0 -73 2l28 115 q14 2 31 4q14 2 30.5 4t37.5 6q66 6 87 38t17 54q0 2 -2 10.5t-8 17.5t-17.5 16t-31.5 7q-121 0 -160 -159q-6 -29 -14 -64l-14.5 -65.5t-10.5 -53t-4 -30.5q0 -18 12.5 -29.5t28.5 -15.5t32.5 -5t24.5 -1q29 0 74 26l90 55q23 14 50.5 8.5t49 -25t29.5 -50.5t-6 -64 q-4 -10 -38 -54t-89 -92t-132 -87t-167 -39q-106 0 -169.5 35t-98.5 78q-72 -51 -168 -83t-219 -32q-98 0 -156.5 26.5t-88.5 64.5t-38 77.5t-8 66.5z" />
<glyph unicode="&#x178;" horiz-adv-x="1169" d="M92 1364h58q23 0 43 -1t26 1q2 8 8 45t11 80l12 110h287l-45 -321l96 -236l82 142l37 61q10 20 6 12l43 342h284l-10 -65q-6 -39 -10 -78l-12 -92h174l-463 -743l-88 -621h-369l127 772z" />
<glyph unicode="&#x2c6;" horiz-adv-x="784" d="M133 1204l49 172l264 148l166 -138l-39 -182l-170 125z" />
<glyph unicode="&#x2dc;" horiz-adv-x="1044" d="M164 1333l20 230q33 16 90.5 33.5t110.5 17.5q39 0 85 -8.5t95 -19.5t98.5 -19t96.5 -8q12 0 30.5 7t36.5 17q23 10 45 25l-20 -252q-12 -8 -51 -19.5t-66 -11.5q-33 0 -88 7l-112 16l-109 18q-49 8 -74 8q-33 0 -64.5 -6t-60.5 -14q-32 -9 -63 -21z" />
<glyph unicode="&#x2013;" horiz-adv-x="770" d="M102 215l41 262h512l-41 -262h-512z" />
<glyph unicode="&#x2014;" horiz-adv-x="1669" d="M123 221l41 266h1380l-41 -266h-1380z" />
<glyph unicode="&#x2018;" horiz-adv-x="579" d="M86 786l90 578h316l-101 -326h-110l-39 -252h-156z" />
<glyph unicode="&#x2019;" horiz-adv-x="550" d="M135 1038l23 326h315l-94 -578h-172l39 252h-111z" />
<glyph unicode="&#x201a;" horiz-adv-x="598" d="M102 0l21 324h328l4 -131q2 -53 3 -108.5t-1 -84.5q-4 -51 -15.5 -94t-23.5 -76q-14 -37 -31 -70l-158 -2l47 242h-174z" />
<glyph unicode="&#x201c;" horiz-adv-x="999" d="M86 786l90 578h316l-101 -326h-110l-39 -252h-156zM496 786l90 578h315l-100 -326h-111l-39 -252h-155z" />
<glyph unicode="&#x201d;" horiz-adv-x="999" d="M135 1038l23 326h315l-94 -578h-172l39 252h-111zM545 1038l22 326h316l-95 -578h-172l39 252h-110z" />
<glyph unicode="&#x201e;" horiz-adv-x="1069" d="M102 0l21 324h328l4 -131q2 -53 3 -108.5t-1 -84.5q-4 -51 -15.5 -94t-23.5 -76q-14 -37 -31 -70l-158 -2l47 242h-174zM614 0l21 324h328l4 -131q2 -53 3 -108.5t-1 -84.5q-4 -51 -15.5 -94t-23.5 -76q-14 -37 -31 -70l-158 -2l47 242h-174z" />
<glyph unicode="&#x2022;" horiz-adv-x="679" d="M127 535q0 43 16.5 80.5t45 66.5t66.5 45t81 16t81 -16t66.5 -45t45 -66.5t16.5 -80.5t-16.5 -81t-45 -67t-66.5 -45t-81 -16t-81 16t-66.5 45t-45 67t-16.5 81z" />
<glyph unicode="&#x2026;" horiz-adv-x="1464" d="M90 0l49 301h318l-49 -301h-318zM545 0l47 301h326l-50 -301h-323zM989 0l47 301h326l-47 -301h-326z" />
<glyph unicode="&#x2039;" horiz-adv-x="696" d="M100 416l273 420h270l-233 -420l149 -416h-289z" />
<glyph unicode="&#x203a;" horiz-adv-x="722" d="M70 -6l229 414l-98 430h309l86 -430l-219 -414h-307z" />
<glyph unicode="&#x2122;" horiz-adv-x="1529" d="M84 1067l33 240h608l-29 -238h-164l-118 -766h-264l120 764h-186zM598 305l168 1002h217l104 -273l148 271h248l-164 -1000h-256l74 467l-144 -135l-71 108l-70 -440h-254z" />
<glyph unicode="&#xe000;" horiz-adv-x="960" d="M0 960h960v-960h-960v960z" />
<glyph unicode="&#xfb01;" horiz-adv-x="1691" d="M1088 0l153 913h125l9 48h-125l39 256h335l-36 -256h-125l-7 -50h121l-159 -911h-330zM72 690q8 53 16 96l12 70q6 35 9 41h208q23 125 42.5 211t59.5 138t113.5 74.5t202.5 22.5q39 0 85 -2t90 -6t86 -10t75 -12l-20 -119q-4 2 -21.5 3t-39 3t-41 3t-27.5 1 q-96 0 -147.5 -34.5t-76 -84t-32.5 -102.5l-15 -90h213l-35 -207l-223 -2l-121 -684l-331 -2l120 690z" />
<glyph unicode="&#xfb02;" horiz-adv-x="1732" d="M1018 362l27 150l33 164l28 168l31 160l68 360h376l-202 -993q-9 -45 -9 -81q0 -66 29 -101q43 -52 171 -52h9q23 0 50.5 6.5t50.5 10.5l-19 -107q-59 -18 -115.5 -32.5t-121.5 -16.5q-53 0 -117 8t-122 36t-103 82t-62 144zM72 690q8 53 16 96l12 70q6 35 9 41h208 q23 125 42.5 211t59.5 138t113.5 74.5t202.5 22.5q39 0 85 -2t90 -6t86 -10t75 -12l-20 -119q-4 2 -21.5 3t-39 3t-41 3t-27.5 1q-96 0 -147.5 -34.5t-76 -84t-32.5 -102.5l-15 -90h213l-35 -207l-223 -2l-121 -684l-331 -2l120 690z" />
<glyph unicode="&#xfb03;" horiz-adv-x="2658" d="M2054 0l153 913h125l9 48h-125l39 256h335l-36 -256h-125l-7 -50h121l-159 -911h-330zM1039 690q8 53 16 96l12 70q6 35 9 41h208q23 125 42.5 211t59.5 138t113.5 74.5t202.5 22.5q39 0 85 -2t90 -6t86 -10t75 -12l-20 -119q-4 2 -21.5 3t-39 3t-41 3t-27.5 1 q-96 0 -147.5 -34.5t-76 -84t-32.5 -102.5l-15 -90h213l-35 -207l-223 -2l-121 -684l-331 -2l120 690zM72 690q8 53 16 96l12 70q6 35 9 41h208q23 125 42.5 211t59.5 138t113.5 74.5t202.5 22.5q39 0 85 -2t90 -6t86 -10t75 -12l-20 -119q-4 2 -21.5 3t-39 3t-41 3t-27.5 1 q-96 0 -147.5 -34.5t-76 -84t-32.5 -102.5l-15 -90h213l-35 -207l-223 -2l-121 -684l-331 -2l120 690z" />
<glyph unicode="&#xfb04;" horiz-adv-x="2699" d="M1984 362l27 150l33 164l28 168l31 160l68 360h376l-202 -993q-9 -45 -9 -81q0 -66 29 -101q43 -52 171 -52h9q23 0 50.5 6.5t50.5 10.5l-19 -107q-59 -18 -115.5 -32.5t-121.5 -16.5q-53 0 -117 8t-122 36t-103 82t-62 144zM1039 690q8 53 16 96l12 70q6 35 9 41h208 q23 125 42.5 211t59.5 138t113.5 74.5t202.5 22.5q39 0 85 -2t90 -6t86 -10t75 -12l-20 -119q-4 2 -21.5 3t-39 3t-41 3t-27.5 1q-96 0 -147.5 -34.5t-76 -84t-32.5 -102.5l-15 -90h213l-35 -207l-223 -2l-121 -684l-331 -2l120 690zM72 690q8 53 16 96l12 70q6 35 9 41h208 q23 125 42.5 211t59.5 138t113.5 74.5t202.5 22.5q39 0 85 -2t90 -6t86 -10t75 -12l-20 -119q-4 2 -21.5 3t-39 3t-41 3t-27.5 1q-96 0 -147.5 -34.5t-76 -84t-32.5 -102.5l-15 -90h213l-35 -207l-223 -2l-121 -684l-331 -2l120 690z" />
</font>
</defs>
</svg>
