<?xml version="1.0" standalone="no"?>
<!DOCTYPE svg PUBLIC "-//W3C//DTD SVG 1.1//EN" "http://www.w3.org/Graphics/SVG/1.1/DTD/svg11.dtd" >
<svg xmlns="http://www.w3.org/2000/svg">
<metadata>
This is a custom SVG webfont generated by Font Squirrel.
Copyright   : Copyright c HammerfontsSpeculoosOpen Source Publishing 20012011 All rights reserved
</metadata>
<defs>
<font id="CrickxRush" horiz-adv-x="1595" >
<font-face units-per-em="2048" ascent="1638" descent="-410" />
<missing-glyph horiz-adv-x="692" />
<glyph unicode=" "  horiz-adv-x="692" />
<glyph unicode="&#x09;" horiz-adv-x="692" />
<glyph unicode="&#xa0;" horiz-adv-x="692" />
<glyph unicode="!" horiz-adv-x="686" d="M129 -29l8 201h4q0 23 2 48.5t7 47.5q86 12 166.5 10t172.5 9l-10 -111q-4 -47 -8 -82l-8 -119q-86 -4 -167 -3t-167 -1zM183.5 610q-9.5 88 9.5 170l-5 25l68 567h4q0 23 2 48.5t6 47.5q86 12 177.5 15.5t183.5 13.5q-6 -197 -41 -395l-117 -653q-43 -2 -77 -4.5 t-65.5 -3.5t-65.5 -3t-77 -2q7 86 -2.5 174zM375 1098l10 -8l2 4l-10 8zM469 905l6 -4l2 2l-6 6z" />
<glyph unicode="&#x22;" horiz-adv-x="616" d="M-2 1321h4q0 27 1 53.5t5 52.5q74 14 144.5 11.5t148.5 9.5l-4 -51l8 -211l-59 -168l-35 -129l-49 -31l-60 8l-18 242q-18 0 -25.5 9t-11.5 19.5t-11 18.5t-28 8zM350 1321h4q0 53 6 106q76 14 145.5 11.5t147.5 9.5l-4 -51l-8 -250l-41 -129l-37 -129l-49 -31l-74 37 l-6 246q-18 0 -24.5 4t-10.5 8t-11 7t-26 3z" />
<glyph unicode="#" horiz-adv-x="1476" d="M-6 350l100 266h254l74 220h-258l98 268h258l129 366h289l-129 -366h227l129 366h289l-129 -366h256l-100 -268h-252l-76 -220h258l-100 -266h-254l-131 -366h-289l131 366h-227l-131 -366h-289l131 366h-258zM629 616h239l78 220h-239z" />
<glyph unicode="%" horiz-adv-x="1814" d="M104 1143q10 78 24.5 131t34 89t45 59.5t56.5 41.5q80 47 172 46t170 -62q12 -18 28.5 -29.5t31 -29t25.5 -50t16 -94.5q4 -57 2 -114.5t-14.5 -111.5t-39 -103.5t-71.5 -88.5q-86 -76 -179.5 -97t-197.5 36q-53 29 -72.5 72t-25 92t-1 103t0.5 104zM152 1153h4l2 4h-6 v-4zM221 1090l8 -5v7q-4 0 -5 -1t-3 -1zM340 68l102 176q51 90 109 168l8 26l596 971l4 -2q10 25 24.5 49.5t30.5 46.5q37 -10 64 -22l51 -23l51 -22l64 -23q-53 -102 -115 -199l-123 -196l-620 -1065q-68 33 -123 56.5t-123 58.5zM352 1083v7q0 6 1 6t1 -12.5t2 -47.5 q12 -16 25.5 -18t26 5t23.5 20.5t18 27.5q8 53 10 60.5t1 4.5t-3 3t-2 57l-6 23q-8 12 -24.5 10t-29.5 -2q-25 -10 -39 -33t-4 -49v-49v-13zM432 842l2 -2l6 -2l-2 4h-6zM457 1120l6 -2v4h-6v-2zM1063 99q-8 48 2 99.5t27.5 104.5t21.5 103l-2 8q25 74 47.5 124t48 82.5 t54 51t63.5 30.5q43 16 94 19.5t102.5 -6.5t96.5 -34t78 -60q10 -20 18 -33t12.5 -31t4.5 -52t-7 -95q-12 -115 -53 -220.5t-141 -169.5q-98 -59 -209 -68t-203 62q-47 37 -55 85zM1161 416h4v2l-4 2v-4zM1219 340l6 -4l2 6q-6 0 -8 -2zM1331 238q29 0 58.5 10t50.5 35 q10 35 15 48t5 15q-2 -4 -2 -2t1 14.5t7 47.5l-2 22q-4 12 -21.5 14t-31.5 2q-25 -4 -42 -23.5t-13 -47.5q-10 -53 -12.5 -61.5t-2.5 -7.5t-1 -6t-9 -60zM1382 57l7 -2v4h-7v-2zM1454 330l6 -2v4h-6v-2z" />
<glyph unicode="&#x26;" horiz-adv-x="1529" d="M158 440l2 4l6 -4l-2 -4zM160 408l2 2l6 -4l-2 -3zM165 396.5q-9 64.5 5 138.5h6q-10 6 -2 11t2 15h4v17l4 2q6 51 33 96q41 88 110.5 153.5t157.5 106.5v6l-14 -6q-16 27 -29.5 60.5t-20.5 68.5t-7 68.5t10 58.5q-4 12 -2 26.5t7 28t7 23.5t-2 16q12 25 10 39h7 q-4 4 -3 6t1 4l2 2q2 0 -2 4l6 2q4 59 39.5 101.5t80.5 85.5q82 57 193 82.5t213 -8.5q37 -6 76 -23.5t73.5 -42.5t61.5 -56.5t41 -68.5q25 -63 32 -131t-5.5 -134.5t-44 -125.5t-87.5 -109q-39 -35 -86 -58.5t-90 -51.5l2 -8l199 -144q18 6 26.5 6t22.5 17q72 41 139 84 l136 86l-2 -232q-31 -35 -70 -63l-76 -55q12 -16 38 -20.5t49.5 -10.5t36.5 -19.5t1 -46.5l-8 -118l-8 -121q-53 10 -104.5 30.5t-98.5 34.5l-137 66q-61 -59 -129 -115.5t-144.5 -96.5t-161.5 -57.5t-180 3.5q-98 23 -177 81t-109 156q-23 72 -32 136.5zM176 504l4 6z M381 188l6 -6l2 4l-6 4zM385 162l16 2v-8q8 8 4 20t-6 17h-4l8 -3q-4 -4 -4 -13t-10 -5q-4 -2 -4 -10zM406 188l6 -6l4 4l-6 4zM428 1262l2 2l6 -7l-2 -2zM481 944l6 -6l2 4l-6 4zM496 952l6 -4l2 4l-6 4zM512 954l6 -6l2 4l-6 6zM514 922l6 -7l2 5l-6 4zM617.5 544 q-9.5 -40 5.5 -75q16 -20 41.5 -25.5t53 -2.5t54.5 11.5t47 16.5q-41 35 -85 67.5t-79 67.5q-28 -20 -37.5 -60zM670 672l6 -6l2 4l-6 6zM756 428l6 -6l2 2l-6 6zM806 1114.5q1 -24.5 9 -45.5q2 -23 12.5 -28t24.5 -4t28.5 5.5t26.5 4.5q31 16 64 46.5t37 77.5 q-10 27 -34 42.5t-50 21.5q-41 8 -68 -18.5t-47 -53.5l6 -6q-10 -18 -9 -42.5zM1317 487l6 -4l2 4l-6 5z" />
<glyph unicode="'" horiz-adv-x="288" d="M-2 1321h4q0 27 1 53.5t5 52.5q74 14 144.5 11.5t148.5 9.5l-4 -51l8 -211l-59 -168l-35 -129l-49 -31l-60 8l-18 242q-18 0 -25.5 9t-11.5 19.5t-11 18.5t-28 8z" />
<glyph unicode="(" horiz-adv-x="989" d="M168 118.5q0 69.5 12.5 147.5t27.5 152t30.5 138.5t19.5 111.5l-4 10q23 70 34 152.5t24.5 167.5t30.5 168t53 155t92.5 126t146.5 81q51 16 113.5 12t121.5 -10q-2 0 -8 -26.5t-13 -65.5t-14 -85l-14 -85l-12 -66q-6 -27 -8 -26q-18 -4 -41 -13.5t-42.5 -25t-31.5 -34 t-8 -36.5q-10 -51 -21 -121l-24 -147l-25 -162l-24 -162l-23 -147q-10 -68 -16 -117q6 -12 20.5 -18.5t29.5 -11.5t25.5 -10t8.5 -11q-4 -14 -15.5 -70.5l-25.5 -120.5l-35 -164q-66 10 -123 23q-49 10 -101.5 27.5t-82.5 44.5q-43 35 -60.5 92t-17.5 126.5zM213 682v4l8 -2 l-2 -4zM367 977l8 -6l2 8q-6 2 -10 -2z" />
<glyph unicode=")" horiz-adv-x="847" d="M76 -188q-4 0 2 26.5t14 66.5t20.5 88t20.5 88l13.5 67.5t3.5 27.5q14 2 32.5 7t37 11.5t34.5 15.5t25 19q23 72 44 191t39 248l37 247q16 119 29 191l-68 59q-2 4 5 34l14 71l20 90q12 47 20.5 87t11.5 67.5t-1 27.5q86 -8 165 -41t132 -94q45 -84 47 -177t-14.5 -188.5 t-41 -189.5t-32.5 -180q-8 -80 -27.5 -192.5t-54.5 -225.5t-86 -209t-121 -139q-31 -18 -71.5 -34.5t-85.5 -28t-88 -19.5t-76 -12z" />
<glyph unicode="+" horiz-adv-x="1478" d="M254 475v273h459v473h280v-473h459v-273h-459v-475h-280v475h-459z" />
<glyph unicode="," horiz-adv-x="647" d="M86 -4l8 221h6q0 27 2 53.5t7 53.5q96 14 185 11t189 9l-4 -51l37 -195l-35 -196l-69 -133l-107 -15l-76 8l50 236q-47 -2 -95 -2h-98z" />
<glyph unicode="-" horiz-adv-x="755" d="M84 385q0 -4 6 16.5t14 55.5l19 75l16 76q8 33 15.5 55.5t9.5 18.5q2 2 43 3t88 1t88 -1t45 -1q59 -2 135 2t137 2l-30 -149l-31 -154q-39 0 -115 2l-162 2q-84 0 -161.5 -1t-116.5 -3z" />
<glyph unicode="." horiz-adv-x="647" d="M113 -29l8 222h4q0 27 2 53t8 53q94 14 184.5 11t190.5 9q-8 -74 -12 -123t-9 -90l-8 -131q-96 -4 -185 -3t-183 -1z" />
<glyph unicode="/" horiz-adv-x="589" d="M-43 -119l39 201q18 100 47 192v29l248 1112h4q6 57 22 111q76 4 156 -5.5t160 -9.5q-18 -115 -43 -227l-53 -223l-277 -1208q-76 8 -151.5 13t-151.5 15zM256 616l8 -10l2 4l-8 11zM319 383l7 -6v2l-4 8z" />
<glyph unicode="0" horiz-adv-x="1341" d="M138 302q-5 26 5 50q-12 49 9 105q37 174 83 336.5t78 341.5q33 84 88.5 156.5t139.5 119.5l-2 4q96 59 198.5 82t202.5 4q8 10 19.5 3t21.5 -3q86 -29 152.5 -82t91.5 -141q4 -55 -4.5 -110.5t-23.5 -111t-32.5 -109.5t-31.5 -109l-105 -406q-12 -47 -28.5 -94t-41 -89 t-60.5 -77t-85 -57q-72 -31 -149.5 -46.5t-154.5 -11.5t-149.5 30t-134.5 79l-35 41q-18 23 -32.5 46t-19.5 49zM332 334l8 -4v6l-8 2v-4zM535 1354q0 -4 10 -8.5t-4 2.5zM545 512q4 -12 12 -24.5t23 -16.5q25 -8 47 2l45 23l114 409q4 43 20.5 89t27.5 87q-14 4 -34 18.5 t-42 10.5q-45 -6 -67.5 -46t-33.5 -81q-29 -115 -52 -233.5t-60 -237.5zM926 1468l6 -2v4l-6 3v-5z" />
<glyph unicode="1" horiz-adv-x="1013" d="M88 836q27 80 39 164.5t33 168.5q66 53 133 100.5t133 100.5l4 -4l70 64q39 33 90 32h330l-134 -755l-96 -445q-14 -63 -25.5 -127.5t-31.5 -124.5l-377 -8q31 217 76 456.5t78 473.5h-33l-144 -47zM633 20v11h6v-11h-6z" />
<glyph unicode="2" horiz-adv-x="1284" d="M133 29q6 84 31.5 163.5t66.5 149.5q2 16 13.5 32.5t15.5 35.5q188 319 516 551q31 29 56.5 64.5t11.5 78.5q-8 23 -28.5 33l-39.5 20q-25 6 -45 0t-38.5 -19.5t-35 -30.5t-28.5 -34q-14 -25 -23.5 -49.5t-17.5 -52.5l-142 78q-72 37 -141 81q6 63 37 121t75 104t97 78.5 t107 49.5q29 8 50 9t52 11q92 10 183 -6t163 -76l4 4q45 -33 76 -79t45 -100t13 -110.5t-19 -109.5q-29 -84 -85 -154.5t-122 -136.5l-131 -131q-68 -68 -115 -143q-16 -23 -18 -49.5t-15 -49.5q92 2 187 21l184 33q-27 -90 -41 -185.5t-33 -187.5q-92 2 -174 0l-172 -4 l-467 -6zM709 1436h4v8h-4v-8zM862 692h2l2 8h-4v-8zM991 1339l8 52z" />
<glyph unicode="3" horiz-adv-x="1320" d="M159 304q3 50 12 101.5t15 98.5q70 10 148 13t151 13l-8 -73.5t29 -61.5q18 -16 37.5 -7t42.5 9l55 52q2 31 12.5 68.5t16.5 75.5t2 72.5t-29 63.5q-45 23 -93 13.5t-85 -37.5l-223 174q72 66 147.5 127t147.5 133l-140 -17q-74 -8 -145 -14l10 100l4 -6q2 4 4 4t0 4 q-12 12 -4 34t6 44q10 47 11.5 92t19.5 86q0 8 -8 4l446 9q90 2 180.5 7t188.5 1q-10 -82 -18.5 -172t-14.5 -168l-88 -70q-43 -35 -88 -63q49 -16 91 -56t46 -94l-67 -534q-10 -49 -37 -95.5t-65 -84t-84 -65.5t-97 -38q-55 -12 -120.5 -20.5t-130 -4t-123 26t-101.5 68.5 q-37 39 -47 88t-7 99zM528 1473v8h7v-8h-7zM897 1001l4 5zM1077 1247h6v8h-6v-8z" />
<glyph unicode="4" horiz-adv-x="1265" d="M51 315q0 80 15.5 160t25.5 160l410 543l100 135l98 129l86 -2l328 22l-53 -288l-84 -578q-2 -4 0 -8t-2 -6l6 -9h121l-35 -223l-133 2q-20 -70 -30.5 -142.5t-26.5 -143.5q-98 -4 -187.5 -4.5t-185.5 -10.5l20 133l21 138l-8 8q-127 2 -243 -4.5t-243 -10.5zM430 614 q29 -4 76 1.5t84 5.5q2 59 11 117.5t13 111.5zM846 276l2 -6h2v6h-4zM979 1100h4l-2 8h-2v-8zM1034 1382h6l-2 9h-4v-9z" />
<glyph unicode="5" horiz-adv-x="1320" d="M186 221q-4 74 4.5 139.5t12.5 133.5q78 18 160.5 29.5t160.5 25.5q0 -20 -3 -40t-2 -37t9.5 -32.5t30.5 -25.5q20 -4 37.5 1t32 17t24.5 27l23 28q10 53 18 101.5t15 103.5q2 23 -11.5 42.5t-31.5 29.5q-29 10 -53.5 3t-45.5 -24q-16 -8 -22 -22t-12.5 -26.5 t-16.5 -20.5t-33 -2q-63 -4 -128.5 -11.5t-135.5 -17.5q6 211 27.5 421t32.5 423l94 8l491 21q57 8 115.5 10t118.5 6l8 -16l-16 -326q-104 -6 -213 -14q-106 -6 -218 -7q-14 -23 -14 -49t-6 -51l8 -8q43 12 90 18t93.5 2t88.5 -19t74 -46q61 -55 74.5 -127t7.5 -149.5 t-19.5 -157.5t-6.5 -154q-14 -84 -72 -158q-49 -63 -109.5 -105t-128 -67.5t-142.5 -37t-153 -11.5q-41 4 -81.5 15.5t-75.5 33t-62 52t-39 71.5zM492 514h4v8h-4v-8zM512 475h4v4h-4v-4zM817 195h2v8h-2v-8zM1010 340h4v8h-4v-8z" />
<glyph unicode="6" horiz-adv-x="1265" d="M217 430q2 4 6 18.5t2 28.5q18 88 31 180l27 187q12 92 28.5 185t42.5 183q41 80 102.5 133.5t135.5 83t158 37t170 -5.5q66 -10 126 -48t97 -97q20 -33 26.5 -69t5.5 -73.5t-7.5 -75.5t-8.5 -75l-301 -25q4 23 5 48.5t-7 50.5l-27 22q-14 12 -30 17q-33 2 -60.5 -10.5 t-44.5 -41.5q-23 -63 -30 -131l-17 -135q53 12 112.5 16.5t116 -5t107.5 -37t88 -78.5q20 -37 23.5 -78t-4 -83t-17.5 -85t-14 -82q-12 -49 -39 -96t-64.5 -87t-84 -71t-93.5 -47q-113 -39 -239.5 -31t-229.5 62q-68 59 -90 144t-2 171zM591 471q1 -25 19 -47 q23 -18 56.5 -20.5t62.5 8.5q78 53 57 149q-20 37 -51 62q-31 6 -61.5 8t-59.5 -15q0 -25 -8 -48t-12 -47.5t-3 -49.5zM641 774h6v17h-6v-17zM647 813v10h2v-10h-2zM907 211h4v10h-4v-10z" />
<glyph unicode="7" horiz-adv-x="1282" d="M207 72q4 16 7 30.5t7 30.5q45 190 137.5 370.5t204.5 340.5l41 78q18 39 34.5 78.5t26 81.5t7.5 87l-23 9l-215 -13q-106 -6 -201 -2l46 172q23 86 53 172l-2 15q197 4 382 3t378 -7q2 -74 2 -149t-7.5 -147.5t-25 -143t-49.5 -134.5l-201 -397q-55 -111 -83 -229.5 t-46 -241.5zM567 854h6v-8h-4zM758 856l2 -8h4v10z" />
<glyph unicode="8" horiz-adv-x="1296" d="M238 309q-2 51 2 101.5t11 100.5t11 97q12 47 46 89t75 71l-46.5 67.5t-27.5 75.5q-2 41 -3 84t3 85t15.5 81t33.5 72q20 31 48 59.5t59 53t63.5 42t67.5 23.5q14 14 43 21.5t51 17.5q76 14 138.5 20.5t140.5 -16.5q10 -4 28.5 -9t34.5 -11q27 -12 57.5 -28.5t55 -39.5 t41 -51.5t14.5 -61.5q-4 -96 -18 -190l-29 -191q-18 -47 -53 -81.5t-74 -65.5q14 -18 29.5 -35.5t25.5 -42.5q12 -49 17.5 -105.5t0.5 -112.5t-25.5 -108.5t-61.5 -91.5q-53 -66 -122 -109.5t-145.5 -65t-158.5 -19.5t-162 26q-53 16 -103.5 53.5t-66.5 94.5q-14 49 -16 100 zM577.5 428q6.5 -25 26.5 -41q16 -16 37 -19t43 3q41 14 54.5 52t17.5 77l-8 45q-4 27 -16.5 33t-29 3t-35 -10.5t-32.5 -7.5q-31 -10 -38 -37.5t-17 -50.5q-9 -22 -2.5 -47zM657.5 966q4.5 -46 26.5 -81q12 -2 25 2l20 8l23 8q10 4 24 2q41 12 50.5 57.5t9.5 84.5 q-10 25 -31 34t-43.5 5.5t-45 -13.5t-36.5 -24q-27 -37 -22.5 -83z" />
<glyph unicode="9" horiz-adv-x="1296" d="M162 319.5q0 38.5 7 78.5t15.5 80t12.5 81q66 16 141.5 18.5t153.5 8.5q-4 -14 -8.5 -31.5t-5.5 -35t4 -34t18 -28.5q16 -16 39.5 -17.5t46.5 2.5q23 10 44 24.5t29 37.5l39 278q-35 -10 -75.5 -17t-83.5 -10t-86 2t-80 21q-47 23 -80 59.5t-47 84.5q14 63 21 128.5 t23.5 129t48.5 120t93 99.5q55 39 122 67.5t137.5 41t143 6t140.5 -32.5q53 -23 96 -67t59 -99l11 -88l-133 -686q-10 -55 -27.5 -113.5t-45.5 -111t-67 -94.5t-94 -62q-16 -2 -30.5 -15.5t-30.5 -7.5l4 -4q-55 -16 -118.5 -24.5t-126 -5.5t-122 18.5t-106.5 48.5l-66 72 q-16 39 -16 77.5zM385 1300h4v9h-4v-9zM567 1089.5q-8 -32.5 8 -67.5q23 -41 65 -51t85 -6q0 20 7 38.5l13.5 37t8.5 38t-4 43.5q-4 18 -18.5 30.5t-31.5 23.5q-35 4 -57 4t-45 -29t-31 -61.5zM567 1239l13 -8zM682 618h4v7h-4v-7zM698 803l2 20zM700 836h5v8h-5v-8z M705 864h4v8h-4v-8zM709 872h2v9h-2v-9zM711 893l4 8v10zM719 928h4v8h-4v-8z" />
<glyph unicode=":" horiz-adv-x="647" d="M86 -4l8 221h6q0 27 2 53.5t7 53.5q96 14 185 11t189 9l-10 -123l-10 -90l-8 -131q-96 -4 -184.5 -3t-184.5 -1zM174 768l10 221h4q0 27 2.5 54.5t6.5 52.5q96 14 185 11t189 9q-6 -72 -11 -122t-7 -91l-10 -131q-96 -4 -184.5 -3t-184.5 -1z" />
<glyph unicode=";" horiz-adv-x="647" d="M86 -4l8 221h6q0 27 2 53.5t7 53.5q96 14 185 11t189 9l-4 -51l37 -195l-35 -196l-69 -133l-107 -15l-76 8l50 236q-47 -2 -95 -2h-98zM174 707l10 221h4q0 27 2.5 54.5t6.5 51.5q96 14 185 11t189 10q-6 -72 -11 -122t-7 -91l-10 -131q-96 -4 -184.5 -3t-184.5 -1z" />
<glyph unicode="&#x37e;" horiz-adv-x="647" d="M86 -4l8 221h6q0 27 2 53.5t7 53.5q96 14 185 11t189 9l-4 -51l37 -195l-35 -196l-69 -133l-107 -15l-76 8l50 236q-47 -2 -95 -2h-98zM174 707l10 221h4q0 27 2.5 54.5t6.5 51.5q96 14 185 11t189 10q-6 -72 -11 -122t-7 -91l-10 -131q-96 -4 -184.5 -3t-184.5 -1z" />
<glyph unicode="&#x3c;" horiz-adv-x="1511" d="M264 471v281l1178 487v-301l-801 -328l801 -327v-299z" />
<glyph unicode="=" horiz-adv-x="1497" d="M254 240v272h1198v-272h-1198zM254 711v272h1198v-272h-1198z" />
<glyph unicode="&#x3e;" horiz-adv-x="1437" d="M264 -16v299l801 327l-801 328v301l1178 -487v-281z" />
<glyph unicode="?" horiz-adv-x="1095" d="M152 975q16 49 23 99t19.5 98.5t37 94.5t73.5 87q74 49 152 75.5t151.5 35t141 0t122.5 -26.5q100 -35 129 -115t17 -217q0 -43 -17.5 -92t-47 -98.5t-67.5 -93.5t-77 -77q-53 -37 -87 -58t-55.5 -40.5t-35 -46.5t-25.5 -72v-28q0 -25 -4 -45q2 0 -4 -1t-14 -1h-13 q-4 0 -2 0l-280 -11q0 23 -4 22t-6.5 0t-1 14.5t9.5 62.5q0 8 9 23.5t1 21.5q16 74 86 147.5t188 155.5q25 18 39.5 38.5t22.5 43t10 45t6 45.5q-6 4 -6 14l-2 23q-2 10 -5 20t-13 15q-23 6 -50.5 4t-56.5 -19q-43 -37 -49 -75.5t-14 -75.5h-287zM238 -20l10 225h4 q0 27 2 54.5t8 53.5q96 14 187.5 11.5t193.5 9.5q-6 -74 -12 -125l-8 -92l-9 -133q-98 -4 -188 -3t-188 -1z" />
<glyph unicode="@" horiz-adv-x="1908" d="M66 156q-4 80 7 172t29.5 184t43 180t48 162t44 129t32.5 82l52 102q31 63 69.5 127t81.5 116t84 72.5t70.5 39t69.5 34t101.5 24.5t164.5 13q104 2 207.5 -3t196.5 -22.5t171 -51t127 -84.5q49 -53 83 -127t52.5 -156t22.5 -166t-4 -154q-10 -72 -32 -167t-47.5 -186 t-49 -160.5t-37.5 -88.5q-41 -57 -101.5 -89t-121 -46t-109.5 -15t-68 3q-41 8 -83 26.5t-48 40.5l-22 175q-66 -4 -130.5 2t-121.5 4q-29 -45 -51 -92l-45 -93q-84 -4 -170 -1t-172 -1l202 394q98 197 213 397l-4 2q41 70 75 140.5t75 135.5l-4 2q86 4 166.5 1t173.5 1 q27 -197 44 -380t40 -379l16 -127q20 10 46 33.5t47.5 68.5t36.5 115.5t15 177.5q0 59 6.5 123.5t10.5 126t2 116t-14.5 93.5t-47 80t-90 74.5t-129 53t-166 13.5t-169 -12.5t-142 -25.5t-120 -61t-99.5 -118q-33 -55 -72 -141.5t-75.5 -186.5t-70.5 -207.5t-55.5 -208 t-29.5 -184.5t6 -135q20 -78 81.5 -125t135.5 -71.5t146.5 -32t117.5 -5.5q35 2 52.5 4.5t25.5 6.5v12q4 -2 6 -4q6 -6 -6 -8l4 -213l-90 -11l-203 -16q-63 6 -127 21q-53 10 -114.5 30.5t-110.5 52.5q-47 31 -75.5 75t-44 95.5t-21.5 108t-8 113.5zM719 324h4l-2 6h-2v-6z M829 932h5v6h-5v-6zM973 545q29 -4 51.5 -3t50.5 1q-8 47 -9 92t-13 88q-4 2 -4 4l-76 -170v-12zM997 1204h4v6h-4v-6zM1032 731l4 6q0 -2 -4 -6zM1106 1210l2 -4v6zM1153 236l2 -7l2 2v5h-4z" />
<glyph unicode="A" horiz-adv-x="1476" d="M47 -23l293 539q143 272 307 549l-6 2q57 96 106.5 191.5t108.5 187.5l-4 4q57 2 113 2t110 -2q43 -2 89 -2q69 0 143 4q23 -270 36 -522t33 -520l31 -414l-406 -10l-22 239q-31 -1 -63 -1l-109 4q-67 6 -129 6q-18 0 -35 -1q-41 -59 -74 -122l-63 -131q-68 -4 -136 -4 q-46 0 -91 1q-57 2 -115.5 2t-116.5 -2zM506 227l4 2l-2 9l-2 -2v-9zM657 1065h5v8h-5v-8zM823 532q37 -4 68 -4h67q-5 54 -5 109v13v13q0 60 -15 115q-10 4 -3 9.5t5 9.5l-117 -248v-17zM889 1438h4v8h-4v-8zM1036 1446l2 -6h2v8zM1102 106l2 -8l2 2v9z" />
<glyph unicode="B" horiz-adv-x="1325" d="M102 -47q12 162 29 313l33 299l37 303q18 152 35 316q6 61 11 126.5t17 112.5l4 -2l2 13q10 2 37 3t43 -3l8 8q51 2 103 6q34 3 66 3q16 0 32 -1l-4 4q16 -4 41 1t49 5q-8 -12 -5 -22.5t5 -20.5q10 12 7 22.5t5 24.5h58l-6 -2q4 -6 6 -6t4 2l4 8q2 2 6 0q47 4 96 7.5 t95 7.5q10 -4 24 -5t27 -6q27 -14 62.5 -25t66.5 -34q86 -59 117 -154q16 -49 15 -99q0 -48 -13 -97q-23 -80 -76 -147.5t-115 -122.5q55 -45 100.5 -99.5t75 -116t40.5 -129.5q5 -30 5 -60q0 -39 -8 -81q-8 -45 -30.5 -87t-54.5 -77t-70.5 -62.5t-81.5 -41.5 q-229 -16 -454 -42t-448 -42zM289 1430l2 8h2v-8h-4zM553 369q23 4 46.5 2t37.5 4q6 -8 13 0t12 4q10 -6 22 3t27 5l-4 4l16 8q6 6 16 7q8 18 20.5 34.5t8.5 44.5q-14 25 -40 36t-54.5 14.5t-58 -1t-50.5 -6.5q-2 -35 -4 -77.5t-8 -81.5zM604 897l53 35q31 18 55.5 40.5 t40.5 50.5q12 22 12 49q0 7 -1 15q-25 25 -59 26q-5 0 -10 -1q-40 -4 -77 -12zM637 1452v8h2v-8h-2zM645 1393l4 -2v14h-4v-12zM702 389v8h5v-8h-5zM741 981h4v8h-4v-8zM1010 776l12 10z" />
<glyph unicode="C" horiz-adv-x="1247" d="M216 325q-1 14 -1 28q0 53 9 109q11 71 24 132q25 139 56.5 274.5t60.5 278.5q20 63 61 116.5t95 93.5t117.5 65.5t129.5 33.5q35 4 70 7l29 2l40 -3l11 -12l8 12q86 -8 157.5 -62t104.5 -136q16 -41 18 -82q1 -12 1 -24q0 -29 -4 -58q-5 -41 -14 -82t-13 -82l-7 -8 q-88 -4 -166.5 -6t-166.5 -4q2 23 2 47t-4.5 45.5t-15.5 39t-34 29.5q-66 0 -100 -57l4 -2q-10 -6 -10 -18.5t-2 -22.5q-14 -45 -23.5 -100.5t-13.5 -100.5h-6q0 -35 -8 -69l-17 -76q-10 -39 -15 -80q-2 -16 -2 -32q0 -25 5 -50q12 -27 39 -32t53 1q31 14 46.5 37t24.5 50.5 t14 57t13 56.5q86 10 174.5 15.5t174.5 7.5q-12 -84 -31 -170t-53.5 -166t-92 -145.5t-145.5 -104.5q-53 -23 -115 -34q-52 -10 -104 -9h-20q-62 2 -123.5 18.5t-110.5 46.5q-68 39 -94.5 98.5t-29.5 126.5zM571 944l13 4h-13v-4z" />
<glyph unicode="D" horiz-adv-x="1306" d="M160 -20q10 156 28.5 300t32.5 298l86 897q-2 10 6.5 10t12.5 4q76 4 141 8l131 8l127 8l137 9q35 -8 68 -12.5t59 -32.5q-4 -4 -10 -8.5t-6 -10.5q18 0 22 15q33 -23 54.5 -46.5t37 -50t27.5 -55.5l27 -59q4 -14 8 -36t10 -34l-2 -14h4q18 -135 20 -280v-10 q0 -139 -27 -274q-28 -139 -90.5 -267t-170.5 -230q-43 -27 -89 -49.5t-97 -32.5l-527 -51q-4 -4 -10 -4h-10zM535 1128l4 -2l4 7l-2 2zM586 406q45 10 80.5 35.5t52.5 70.5q23 63 33 132t14 140.5t4 144t4 144.5q-4 23 -14 41.5t-33 34.5q-16 10 -40.5 9t-45.5 -3z M813 1065l4 -4l6 6l-4 2zM823 213l4 -4l7 6l-5 4zM971 528l4 -2l4 6l-2 3zM973 584l4 -4l6 6l-4 4zM977 1454l2 -2l6 6l-2 2z" />
<glyph unicode="E" horiz-adv-x="1159" d="M174 4l12 96l211 1143l33 197l53 4l572 -12l43 2q-10 -82 -25.5 -164t-32.5 -160q-62 -3 -123 -3h-30h-17q-68 0 -137 -7q-12 -57 -20 -113.5t-23 -114.5q2 -6 8.5 -7t14.5 0t15 2t11 -5q8 6 23 6q20 -1 39 0l80 2q40 3 80 3q20 0 40 -1l-30 -149l-31 -154 q-52 -1 -104 -1h-52h-22l-133 -5q-12 -57 -20.5 -116.5t-14.5 -112.5q42 1 80 1t72 -1q23 -1 48 -1q49 0 105 3q-20 -88 -35.5 -170t-34.5 -168q-77 -3 -152 -3q-88 0 -175 4q-126 6 -254 6q-37 -1 -74 -1zM377 606q-1 -2 -1 -3q0 -5 7 -11q-4 4 -3 8t-3 6zM569 334l9 4h-7z M569 983l6 -4l5 4l-9 4zM629 864l55 4zM717 1104l6 -4l2 4l-6 4z" />
<glyph unicode="F" horiz-adv-x="1103" d="M131 -55q12 166 33 336l37 344l41 401q10 104 16 200.5t23 205.5l489 20l219 12l4 -10l-32 -336l-164 -12q-84 -6 -166 -10q-8 -45 -13 -97l-8 -102q20 -1 40 -1q45 0 92 6q69 9 135 13l4 -4q10 4 26.5 7.5t32.5 3.5q-8 -86 -13 -172t-12 -168l-346 -29l-53 -451 l-14 -125q-94 -4 -186.5 -13t-184.5 -19zM430 6l4 -2l2 8l-4 2zM453 258l4 -2l2 8h-4zM471 82l4 -2l2 8l-4 2zM494 0h6l2 6l-6 2zM518 1432h4l2 8h-4zM520 1321q4 -3 8 -3q2 0 3 1q5 2 8 4q-4 2 -10.5 3t-8.5 -5zM926 1368h2l4 8h-4z" />
<glyph unicode="G" horiz-adv-x="1056" d="M100 356l52 707q39 158 149.5 267.5t263.5 150.5q51 6 108.5 6t112 -14.5t100.5 -44t77 -82.5q23 -33 34 -67t21 -69q-2 -30 -2 -59.5t2 -59.5q1 -15 1 -31q0 -45 -9 -89q-84 -4 -166 -9q-59 -4 -117 -4h-47q3 21 3 44q0 19 -2 39q-5 44 -44 67q-20 6 -44 7t-42 -15 q-29 -37 -40 -79t-14 -85q-2 -32 -3 -66q0 -11 1 -22v-13q0 -38 -6 -75l-6 -170q-4 2 -8 5t-10 -1q14 -18 13 -44t-1 -50.5t10.5 -45t44.5 -26.5q16 0 29.5 5t28.5 9q-2 -4 2 -8q31 29 56 70q18 29 18 60q0 13 -2 26q-18 10 -44 6t-49 2l41 188q72 10 140.5 15.5t138.5 15.5 l2 -8q25 10 52.5 9t55.5 7q-16 -74 -18 -149.5t-8 -151t-26.5 -149.5t-78.5 -144q-37 -59 -92 -102t-120.5 -70.5t-136.5 -36.5q-33 -4 -66 -5q-36 0 -72 6q-39 6 -79 21t-74.5 38.5t-61.5 55.5t-41 73q-16 37 -17.5 72.5t-9.5 72.5zM469 848l4 6l-4 4v-10zM680 1077l4 -2 l2 6l-2 2zM682 1157l2 -2l4 8l-2 2zM768 141l2 -2l4 6l-2 2zM872 969h5l4 6l-4 2zM993 1278l4 8l4 -2l-4 -8z" />
<glyph unicode="H" horiz-adv-x="1302" d="M76 -37l180 1036l66 431l362 2l-88 -535q-8 -6 -9 -12t1 -14.5t3 -15.5t-1 -15q39 -4 78 -4h73q16 29 19.5 59.5t9.5 58.5q4 43 14 80l-2 8h6q4 29 4.5 55.5t14.5 55.5h-6q6 2 6 8v15q0 6 1 13t7 13h-6l16 51h-4q4 31 14.5 63t6.5 58q6 16 8 28.5t6 29.5l369 2l-101 -609 l-147 -860l-336 2v6q-2 0 -3 1t-5 -1l-2 -6q4 4 2 6t-4 7l-4 2l-4 -13l10 35h-6q8 23 8 47.5t12 44.5l4 -2l-4 21l57 358q-39 5 -80 5h-14q-49 -1 -96 -5q-23 -121 -43 -250t-47 -258q-53 3 -107 3l-53 -1l-160 -4q-6 8 -13 4t-13 -4zM135 276l6 3l-2 4l-4 -4v-3zM477 1266 l10 -2v8zM649 1331l8 4l-2 4l-6 -4v-4z" />
<glyph unicode="I" horiz-adv-x="735" d="M109 25q6 86 13 175t25 171l-4 24l113 977h4q0 23 2 48.5t6 47.5q86 12 177.5 15.5t183.5 13.5q-4 -98 -17 -197l-24 -198l-131 -1063l-174 -8q-88 -4 -174 -6zM330 688l10 -8l2 4l-10 8zM424 496l6 -4l2 2l-6 6z" />
<glyph unicode="J" horiz-adv-x="1232" d="M82 346q0 70 14 143l29 148l162 41l162 41l-8.5 -60.5t-18.5 -56.5l6 -2q2 -16 -3 -35.5t-9 -42t-4 -44t12 -40.5q2 -29 25.5 -37t42.5 -22l12 -2q4 4 16 7t21 3q29 6 43 24.5t21 42t10 49t12 46.5l49 420q6 4 4 18t-2 25l12 112l-37 2q-38 0 -80 -6q-61 -8 -118 -10 l12 156l14 159l430 21l213 4l-112 -956q-10 -82 -38 -158t-74 -138.5t-110.5 -107.5t-144.5 -65q-57 -14 -120 -20q-28 -2 -56 -2q-34 0 -68 3q-61 6 -119.5 26.5t-103.5 57.5q-55 57 -75.5 121.5t-20.5 134.5zM465 1112l2 -2l6 6l-2 2zM502 1116l2 -2l6 6l-2 2zM508 371 l2 -2l6 4l-2 4zM659 262l5 -4l6 6l-2 4zM694 360l2 -2l9 7l-3 2zM948 494l4 -5l6 7l-4 4z" />
<glyph unicode="K" horiz-adv-x="1230" d="M45 53l2 -6q-2 2 -2 8t2 17q4 20 4 37q4 4 11.5 7t3.5 11l-11 -2l64 342l63 344l78 430q10 55 15.5 106.5t25.5 108.5q38 -1 75 -1q56 0 112 2q40 1 80 1q52 0 104 -2l-2 4l18 -6l-4 -2q-4 -35 -10 -69.5t-15 -65.5q-16 -72 -27 -149.5t-36 -155.5q2 -16 18 -17l7 13 l288 303q31 27 52.5 54.5t52.5 53.5q37 -51 81 -105t74 -110q4 6 5.5 5t3.5 -5l4 -8q2 -4 6 -2q-4 -4 -2 -7t4 -7l4 2q2 -10 -4 -20.5t-16 -22.5l-19 -21q-8 -10 -12 -18q-4 -2 -12.5 -12.5t-16.5 -16.5l-67 -80q-37 -43 -66 -84q-10 -4 -18.5 -17t-20.5 -22 q-43 -61 -94 -112t-92 -117l59 -98l57 -97l7 2l49 -84l45 -71l45 -74l55 -84l-4 -2q4 -6 7 -10t11 -6l-6 -4l9 -9q-92 -8 -192.5 -10t-197.5 -12q-6 4 -6 10v10q0 6 -2 10.5t-12 4.5q-43 72 -81 150.5t-87 150.5h-6q4 -4 4 -8.5t4 -4.5l-25 -4q-8 4 -2.5 0t7.5 0l-5 17 q-6 0 -8 -6.5t-6 -10.5q0 -4 10 -8q-14 -8 -11 -28.5t-5 -30.5q-6 -39 -13 -72t-12 -63l-6 -2q4 -18 -2 -42t-12 -42q4 -10 0 -21.5t-6 -21.5q-90 -6 -179 -10.5t-182 -6.5l6 2q0 4 -10 8q-4 2 -5 -2t-3 -6zM66 137l8 -4l2 4l-8 4zM223 1004l6 -5l2 5l-6 4zM360 1411l9 -2v2 l-7 4zM371 1389l8 -5v2l-6 5zM428 952l6 -2v2l-6 4v-4zM455 340l6 -4l2 2l-6 4zM502 432l4 -12l2 -2zM645 1440l8 -4l2 6zM719 90l8 -4q2 2 6 2t4 6q-4 -2 -10 3t-8 -7zM793 145l8 -2l2 4l-8 5zM795 369l6 -4l2 2l-8 4v-2zM799 401l6 -4v4l-6 2v-2zM877 791v2l8 -5l-2 -2z M930 104l6 -4l2 4l-6 2zM1024 199l2 4l6 -2l-2 -6zM1051 100l4 -2l2 2l-6 4v-4zM1178 1157l2 -4l2 8zM1192 1169l2 2l6 -2l-2 -4z" />
<glyph unicode="L" horiz-adv-x="999" d="M90 41l21 127l75 418l25 141l27 147h4q23 143 53 304l57 303q11 -1 22 -1q22 0 43 3q32 4 60 -6q10 8 29 10q6 1 12 1q12 0 23 -3q61 0 117 2q19 1 38 1q37 0 72 -3l-182 -1049l8 -8q72 4 153.5 4t159.5 8q-14 -98 -35.5 -190t-40.5 -189q-193 -4 -372 -10t-369 -10z M168 268h2l2 8h-4v-8zM270 739h2l2 9h-4v-9zM506 809h4v8l-4 2v-10z" />
<glyph unicode="M" horiz-adv-x="1398" d="M88 12l64 467l14 88q2 -2 12 2l-6 17l141 876q8 4 7 6t-3 3.5t-3 4.5t5 7q84 10 168 11t170 1l76 -172l74 -174l10 10l101 172l96 176q25 -1 49 0q73 0 144 4q95 6 192 11l-111 -709l-49 -360l-63 -410q-79 -7 -158 -7q-20 0 -40 1q-33 1 -66 1q-65 0 -126 -3l-2 -4l2 4 q-6 4 -12 -2v18h4q16 168 43 317.5t43 317.5q-57 -35 -95 -85t-87 -91q-27 29 -48.5 65.5t-49.5 65.5l-6 -6l-82 -612q-37 -3 -73 -3h-35q-52 2 -105 3v-9q-10 -2 -24.5 2t-25.5 4v-8q-20 1 -45 2q-13 0 -27 -1q-42 -1 -63 7zM672 516l6 4l2 -2l-6 -6zM989 920l2 -5l6 7 l-2 2zM1184 680l6 6h-4z" />
<glyph unicode="N" horiz-adv-x="1382" d="M96 49l146 694l90 453l33 164q16 84 38 168q60 -8 120 -8l36 1q14 1 28 0q64 0 130 -12l149 -340q29 78 45.5 161t36.5 167q98 -4 194.5 -10t194.5 -10q-23 -123 -49 -248t-61 -242l4 -4l-19 -100q-2 4 -4 2t-4 -2q4 -16 0 -35t-8 -35l-49 -217l-119 -528q-4 -6 -4 -19.5 t-6 -23.5h-31q-16 0 -26 8q-16 -6 -35 -5t-39 3q-16 0 -40 2t-42 6q-14 -4 -27 -4h-33q-29 -2 -60.5 2t-55.5 4l102 432q-10 55 -38.5 102.5t-55.5 102.5q-43 -158 -71.5 -313.5t-76.5 -317.5q-42 1 -80 1h-37h-22q-45 0 -96 3l-2 6q-29 -7 -62 -7h-8q-37 1 -73 1l-3 4z M506 545q4 0 8 4l-6 2zM674 1151l2 -2l2 8h-2zM1151 795l6 -2l2 6l-6 2z" />
<glyph unicode="O" horiz-adv-x="1161" d="M77 239q-5 31 -5 62q0 37 7 76q13 72 38.5 146.5t32.5 144.5l-5 10q23 70 35 147l21 160q12 82 28.5 160t50 144.5t90 117.5t146.5 78q61 18 133 22q17 1 34 1q55 0 109 -10q71 -13 134 -45t108 -83q45 -84 48 -171q1 -15 1 -29q0 -73 -13 -146q-15 -88 -38.5 -177 t-32.5 -175q-8 -80 -24.5 -158t-47 -148.5t-79.5 -132t-119 -104.5q-68 -43 -142.5 -68.5t-149.5 -28.5q-10 0 -19 -1q-65 0 -128 18q-73 20 -136 72q-66 51 -77 118zM213 682l6 -2l2 4l-8 2v-4zM367 977l8 -6l2 8q-6 2 -10 -2zM453 432q39 0 80.5 14.5t68.5 49.5 q47 143 65.5 286.5t45.5 286.5l-4 31q-6 18 -30 20t-42 4q-35 -6 -60 -33q-19 -21 -20 -49q0 -9 2 -18l-55 -299q-28 -146 -51 -293zM524 180l8 -2v4l-8 2v-4zM696 963l9 -2v4l-9 2v-4z" />
<glyph unicode="P" horiz-adv-x="1210" d="M74 68q10 57 23.5 118.5t29.5 116.5l4 53l107 480q31 135 56 269t58 259q2 27 10.5 57.5t14.5 42.5l-4 9l508 -15q51 -8 99 -32.5t87 -61.5t65.5 -83t34.5 -97q5 -35 6 -70q0 -43 -9 -84q-15 -74 -52 -139.5t-91 -119.5t-120 -93q-86 -51 -179 -86t-192 -68 q-25 -113 -45 -227l-43 -229h-368zM319 1225l7 -6l4 4l-6 6zM600 1143l6 -4l4 2l-8 4zM602 825q39 14 80 36t77 51.5t59.5 68.5t25.5 86q-8 16 -20.5 31.5t-30.5 23.5q-23 17 -57 18h-4q-36 -1 -58 -14l-39 -149q-19 -74 -33 -152z" />
<glyph unicode="Q" horiz-adv-x="1251" d="M117 362l69 521q2 72 15.5 153.5t44 158.5t81 138.5t128.5 89.5l14 2l-2 7q92 55 192 54q16 0 32 -1q118 -10 229 -76q53 -33 84.5 -94.5t39.5 -124.5q11 -94 11.5 -189t-11.5 -190l-40 -381q-53 10 -109.5 25.5t-116.5 19.5q57 -10 119 -29l119 -38l123 -119 q61 -61 114 -131l-172 -35q-92 -16 -182 -41q-18 33 -44 55.5t-48 52.5q-51 -47 -113.5 -80.5t-129.5 -48.5q-47 -10 -94 -10q-21 0 -42 2q-70 6 -133 39q-78 39 -124 111.5t-54 158.5zM465 1149l4 -2l4 8l-6 2zM526 485l4 -8l88 6q10 -4 20.5 -1t16.5 -1q27 4 54.5 1 t46.5 -7q-16 4 -38 5t-26 20q10 141 26 276q12 107 12 217q0 29 -1 60q-6 29 -34.5 43t-51.5 12l4 -6q-33 -2 -45 -37l-24 -59q-16 -129 -29 -259.5t-23 -261.5zM569 1354l2 -2l2 6l-2 2zM774 477l4 -2l2 8l-2 2zM834 637l2 -2l4 8h-4z" />
<glyph unicode="R" horiz-adv-x="1372" d="M92 25l51 270l50 272l116 625l29 139l27 139l401 21q40 1 82 1h43q66 -1 127 -16.5t113.5 -51t87.5 -101.5q54 -106 54 -213q0 -22 -2 -44q-13 -130 -83 -247q-82 -113 -187 -201l13 -53l211 -426l24 -49l23 -51h-32q-57 0 -122 -5q-35 -3 -67 -3q-46 0 -86 6l-4 2 q-16 -10 -46 -7t-57 1l-20 18l-72 228q-37 115 -78 225q-23 4 -49.5 -3t-48.5 -18l-74 -446l-8 -8l-140 -2q-35 0 -71 1h-42q-84 0 -163 -3zM647 809q33 14 60.5 32.5t54.5 41.5l37 51q18 27 28.5 55.5t10.5 58t-15 60.5q-21 21 -46 21q-4 0 -9 -1q-31 -4 -68 -8 q-18 -74 -30.5 -153.5t-22.5 -157.5zM889 287l8 2l-2 2h-6v-4zM1120 246l2 -4l6 6zM1155 209l2 -4l6 2l-2 2h-6z" />
<glyph unicode="S" horiz-adv-x="1173" d="M150 258l2 -2l6 2v4zM152 237l-2 30q0 31 6 64q8 48 20 98t17 99l18 9h287q-4 -18 -9.5 -38t-8.5 -38.5t0 -38t18 -37.5q23 -16 49 -18t51 4q25 8 33 34.5t24 36.5q8 30 9 61q0 15 -2 32q-6 47 -41 81q-43 41 -95 74l-102 64q-49 33 -92 73.5t-70 100.5q10 6 4 10t-2 12 q12 49 20.5 100.5t20.5 100.5t34.5 94t66.5 80q104 86 235 121q57 15 113 15q72 0 143 -25q78 -29 133 -90.5t72 -147.5q1 -25 1 -50v-26q-1 -39 -11 -73l6 -2l-8 -41q-57 -3 -115 -4h-29q-14 0 -28 1q-57 0 -113 -4q-4 20 -9 53t-32 52q-23 17 -45 17q-9 0 -18 -3 q-30 -10 -64 -16l-2 -10q-6 2 -14 -2q-4 -16 -18.5 -46t-6.5 -59q27 -47 69 -79t89 -56l98 -53q49 -27 86 -64q53 -66 78 -158q10 -38 10 -75q0 -53 -20 -103q-16 -123 -92 -210t-193 -121q-61 -18 -132 -27q-35 -4 -71 -4l-71 4q-71 8 -137 34.5t-122 76.5q-32 41 -36 87z M625 406l8 4l2 -4l-8 -5z" />
<glyph unicode="T" horiz-adv-x="1202" d="M133 1139q18 88 32.5 176t31.5 176q193 0 393 12q151 9 296 9q49 0 97 -1l135 -2q-10 -90 -21.5 -166.5t-27.5 -164.5q-38 -9 -81 -10q-14 0 -29 1l-39 2q-39 0 -78 -6l-80 -524q-37 -256 -88 -528l-4 -54l-398 -14l-4 14l107 750l24 166q12 84 27 170q-24 1 -48 1 q-48 0 -97 -3q-74 -4 -148 -4zM516 1014h4q0 2 1 4t1 6zM676 1155l4 14zM1049 1178h4q4 8 2 10zM1057 1206l2 -4l8 2l-2 4z" />
<glyph unicode="U" horiz-adv-x="1224" d="M109 334q6 137 22 261l33 261l51 434q6 27 9 58.5t12 62.5l-5 4q92 2 183.5 5t181.5 5l-82 -895q4 -23 5 -45t6 -43.5t16.5 -39t36.5 -27.5q27 -2 47 11t32 34q25 123 40.5 243.5t27.5 241.5l27 246q12 123 30 252l4 29l179 4q92 2 190 6l-92 -713q-18 -139 -40 -280.5 t-85 -262.5q-59 -63 -132 -106t-155 -65q-72 -19 -146 -18h-22q-86 3 -168 34q-41 14 -77.5 42.5t-64.5 65.5t-43 79t-15 85q-8 -2 -8 5q0 3 1.5 12t0.5 14zM164 664h4v8h-4v-8zM305 1114h4v8h-4v-8zM594 354h2v8h-2v-8zM903 1081h2v9h-2v-9zM1067 1169h4v25h-4v-25z" />
<glyph unicode="V" horiz-adv-x="1353" d="M133 1415q104 10 205 12l203 5q6 -51 6 -99.5t4 -101.5l20 -449l4 -112l11 -4l180 329l231 451q2 14 16.5 11t24.5 3q96 6 194 11q69 4 139 4h56l-718 -1477q-121 -6 -248 -15.5t-250 -11.5l-57 1069zM170 840l2 -9l4 3l-2 8zM188 838q1 -3 4.5 -3t8.5 3l-2 8zM453 1294 l2 -8l2 2l-2 8zM502 1341l2 -6h2l-2 8z" />
<glyph unicode="W" horiz-adv-x="1605" d="M96 1384l10 9l390 10q4 -117 13 -232.5t26 -226.5q59 98 104 186l96 193q6 8 13.5 25.5t15.5 31.5q4 8 10 19l10 18q70 4 135.5 5t131.5 8l16 -441l4 -6l121 229q59 106 117 228q104 0 205.5 7t205.5 11l-166 -350l-522 -1081q2 -35 -12 -46.5t-35.5 -11.5t-45.5 3 t-40 -3q-35 -4 -78 -5t-84 -3q-6 78 -7 156t-17 153q-18 -12 -26.5 -38.5t-24.5 -45.5l-142 -239l-151.5 -11.5t-149.5 -7.5q-18 160 -28.5 319t-22.5 318l-43 543l-11.5 139t-17.5 137zM401 1319l7 -2v8l-5 2zM715 295l2 -2l2 8l-4 2v-8zM717 553l2 -2l2 8h-4v-6zM819 922 l4 -2l2 8h-4zM856 1415l2 8h2v-8h-4zM868 471l4 -2v8l-2 2zM1012 119l4 -2l2 8l-4 2zM1454 1001h4v9h-2zM1536 1112l4 8z" />
<glyph unicode="X" horiz-adv-x="1488" d="M27 -68q59 102 135 204t137 202l121 184l121 176q-35 119 -74 225.5t-76 227.5l-35 109l-39 108l7 -2q2 8 -7 12h7q-2 10 -8.5 12.5t-2.5 12.5h-6v16l6 2l-2 11h-4h43v4l29 2v-6q84 8 155.5 13t151.5 7q27 -90 57 -174l62 -170q66 80 122 167t126 161q-4 10 7 17t13 20 l78 2v-7q96 16 195.5 16.5t191.5 10.5l-227 -321l-236 -326l-63 -88q-31 -43 -66 -86l33 -127l168 -535v-6l-39 2l2 -6l-348 -27q-29 63 -47.5 129t-46.5 129q-49 -63 -88 -135l-82 -141l-459 -29v11q-4 1 -12 -7zM303 1423l4 2l6 -4l-4 -4zM311 1401l2 2l6 -4l-2 -4z M836 96l6 -6l4 4l-6 6zM901 240l2 -7l4 5z" />
<glyph unicode="Y" horiz-adv-x="1349" d="M111 1452q93 15 188 15q12 0 24 -1q36 -1 71 0q72 0 145 2q35 -76 65.5 -158.5t71.5 -156.5l96 158q49 80 94 164q10 -10 20.5 -1t24.5 1l420 8l-237 -410l-248 -403l-35 -535l-8 -100q-109 -10 -217.5 -14.5t-218.5 -6.5l90 807l-312 565zM406 1346l2 -7l6 -4zM487 1087 l2 -2l5 9l-2 2zM553 641h2l4 6l-2 2zM672 1137h2l4 6h-4zM788 639h3l4 6l-4 2z" />
<glyph unicode="Z" horiz-adv-x="1280" d="M84 63q12 119 37.5 235t48.5 232l401 525l64 88q-12 10 -30.5 7t-35.5 -1q-76 -2 -138 -8q-37 -4 -77 -4q-27 0 -55 2q10 33 14 66.5t19 64.5q0 47 20.5 98t22.5 98q8 6 9 17.5t3 22t7 17.5t22 3l102 -2l-2 -4l47 2l414 -17q30 5 61 5q23 0 46 -3q27 -3 55 -3t57 3l2 -10 l-47 -207l-47 -205l-494 -647q29 -2 64 -8t53 2q29 -3 61 -3q16 0 33 1q51 2 94 2v-4q10 -4 22.5 0t18.5 0l-84 -381l-32 2l-721 14q-10 4 -18.5 1t-16.5 -1zM473 1526l2 2l2 -8l-2 -2zM793 1386l8 11zM1130 1262h5l-2 6h-3v-6z" />
<glyph unicode="^" horiz-adv-x="1599" d="M412 897l467 565h288l465 -565h-131l-479 315l-477 -315h-133z" />
<glyph unicode="_" horiz-adv-x="956" d="M0 -201h1024v-282h-1024v282z" />
<glyph unicode="`" horiz-adv-x="872" d="M336 1374q0 66 27.5 116t56.5 50q18 0 35 -4l34 -12l342 -123q53 -18 78 -32.5t25 -43.5q0 -47 -20.5 -79t-59.5 -32q-10 0 -27.5 2.5t-42.5 8.5l-376 90q-43 10 -57.5 21t-14.5 38z" />
<glyph unicode="a" horiz-adv-x="1476" d="M47 -23l293 539q143 272 307 549l-6 2q57 96 106.5 191.5t108.5 187.5l-4 4q57 2 113 2t110 -2q43 -2 89 -2q69 0 143 4q23 -270 36 -522t33 -520l31 -414l-406 -10l-22 239q-31 -1 -63 -1l-109 4q-67 6 -129 6q-18 0 -35 -1q-41 -59 -74 -122l-63 -131q-68 -4 -136 -4 q-46 0 -91 1q-57 2 -115.5 2t-116.5 -2zM506 227l4 2l-2 9l-2 -2v-9zM657 1065h5v8h-5v-8zM823 532q37 -4 68 -4h67q-5 54 -5 109v13v13q0 60 -15 115q-10 4 -3 9.5t5 9.5l-117 -248v-17zM889 1438h4v8h-4v-8zM1036 1446l2 -6h2v8zM1102 106l2 -8l2 2v9z" />
<glyph unicode="b" horiz-adv-x="1386" d="M139 51l226 1221l43 237l18 9l371 2l12 -7l6 11q25 -3 50 -4q21 0 42 3q47 5 94 7h19l76 -6q47 -8 90 -41q59 -45 96 -102.5t47 -127.5q-2 -2 -6 -8q2 -8 6 -4t4 0q7 -34 7 -66t-7 -63q-14 -61 -47 -117.5t-80 -105.5t-96 -90q14 -27 32.5 -36t41.5 -32l-2 -6q10 4 11 -6 t5 -12q0 -6 6 -7l2 7q37 -51 64.5 -108.5t39.5 -119.5q7 -36 6 -71q0 -26 -3 -53q-8 -62 -41 -124q-47 -59 -106.5 -107t-145.5 -67zM340 899l2 -4l8 4l-2 4zM637 438q25 8 51 11l49 2q25 0 48.5 7t43.5 27q23 23 19 51.5t-21 53.5q-16 20 -35.5 27.5t-42 7.5t-45 -4.5 t-42.5 -6.5q-2 -35 -17 -85q-10 -35 -10 -65q0 -14 2 -26zM692 1300l2 -4l8 4l-2 3zM715 956q41 14 90 35t78 60q7 16 6 31q0 13 -4 26q-10 29 -31 49q-27 16 -56.5 16.5t-52.5 -10.5z" />
<glyph unicode="c" horiz-adv-x="1247" d="M216 325q-1 14 -1 28q0 53 9 109q11 71 24 132q25 139 56.5 274.5t60.5 278.5q20 63 61 116.5t95 93.5t117.5 65.5t129.5 33.5q35 4 70 7l29 2l40 -3l11 -12l8 12q86 -8 157.5 -62t104.5 -136q16 -41 18 -82q1 -12 1 -24q0 -29 -4 -58q-5 -41 -14 -82t-13 -82l-7 -8 q-88 -4 -166.5 -6t-166.5 -4q2 23 2 47t-4.5 45.5t-15.5 39t-34 29.5q-66 0 -100 -57l4 -2q-10 -6 -10 -18.5t-2 -22.5q-14 -45 -23.5 -100.5t-13.5 -100.5h-6q0 -35 -8 -69l-17 -76q-10 -39 -15 -80q-2 -16 -2 -32q0 -25 5 -50q12 -27 39 -32t53 1q31 14 46.5 37t24.5 50.5 t14 57t13 56.5q86 10 174.5 15.5t174.5 7.5q-12 -84 -31 -170t-53.5 -166t-92 -145.5t-145.5 -104.5q-53 -23 -115 -34q-52 -10 -104 -9h-20q-62 2 -123.5 18.5t-110.5 46.5q-68 39 -94.5 98.5t-29.5 126.5zM571 944l13 4h-13v-4z" />
<glyph unicode="d" horiz-adv-x="1306" d="M160 -20q10 156 28.5 300t32.5 298l86 897q-2 10 6.5 10t12.5 4q76 4 141 8l131 8l127 8l137 9q35 -8 68 -12.5t59 -32.5q-4 -4 -10 -8.5t-6 -10.5q18 0 22 15q33 -23 54.5 -46.5t37 -50t27.5 -55.5l27 -59q4 -14 8 -36t10 -34l-2 -14h4q18 -135 20 -280v-10 q0 -139 -27 -274q-28 -139 -90.5 -267t-170.5 -230q-43 -27 -89 -49.5t-97 -32.5l-527 -51q-4 -4 -10 -4h-10zM535 1128l4 -2l4 7l-2 2zM586 406q45 10 80.5 35.5t52.5 70.5q23 63 33 132t14 140.5t4 144t4 144.5q-4 23 -14 41.5t-33 34.5q-16 10 -40.5 9t-45.5 -3z M813 1065l4 -4l6 6l-4 2zM823 213l4 -4l7 6l-5 4zM971 528l4 -2l4 6l-2 3zM973 584l4 -4l6 6l-4 4zM977 1454l2 -2l6 6l-2 2z" />
<glyph unicode="e" horiz-adv-x="1159" d="M174 4l12 96l211 1143l33 197l53 4l572 -12l43 2q-10 -82 -25.5 -164t-32.5 -160q-62 -3 -123 -3h-30h-17q-68 0 -137 -7q-12 -57 -20 -113.5t-23 -114.5q2 -6 8.5 -7t14.5 0t15 2t11 -5q8 6 23 6q20 -1 39 0l80 2q40 3 80 3q20 0 40 -1l-30 -149l-31 -154 q-52 -1 -104 -1h-52h-22l-133 -5q-12 -57 -20.5 -116.5t-14.5 -112.5q42 1 80 1t72 -1q23 -1 48 -1q49 0 105 3q-20 -88 -35.5 -170t-34.5 -168q-77 -3 -152 -3q-88 0 -175 4q-126 6 -254 6q-37 -1 -74 -1zM377 606q-1 -2 -1 -3q0 -5 7 -11q-4 4 -3 8t-3 6zM569 334l9 4h-7z M569 983l6 -4l5 4l-9 4zM629 864l55 4zM717 1104l6 -4l2 4l-6 4z" />
<glyph unicode="f" horiz-adv-x="1103" d="M131 -55q12 166 33 336l37 344l41 401q10 104 16 200.5t23 205.5l489 20l219 12l4 -10l-32 -336l-164 -12q-84 -6 -166 -10q-8 -45 -13 -97l-8 -102q20 -1 40 -1q45 0 92 6q69 9 135 13l4 -4q10 4 26.5 7.5t32.5 3.5q-8 -86 -13 -172t-12 -168l-346 -29l-53 -451 l-14 -125q-94 -4 -186.5 -13t-184.5 -19zM430 6l4 -2l2 8l-4 2zM453 258l4 -2l2 8h-4zM471 82l4 -2l2 8l-4 2zM494 0h6l2 6l-6 2zM518 1432h4l2 8h-4zM520 1321q4 -3 8 -3q2 0 3 1q5 2 8 4q-4 2 -10.5 3t-8.5 -5zM926 1368h2l4 8h-4z" />
<glyph unicode="g" horiz-adv-x="1056" d="M100 356l52 707q39 158 149.5 267.5t263.5 150.5q51 6 108.5 6t112 -14.5t100.5 -44t77 -82.5q23 -33 34 -67t21 -69q-2 -30 -2 -59.5t2 -59.5q1 -15 1 -31q0 -45 -9 -89q-84 -4 -166 -9q-59 -4 -117 -4h-47q3 21 3 44q0 19 -2 39q-5 44 -44 67q-20 6 -44 7t-42 -15 q-29 -37 -40 -79t-14 -85q-2 -32 -3 -66q0 -11 1 -22v-13q0 -38 -6 -75l-6 -170q-4 2 -8 5t-10 -1q14 -18 13 -44t-1 -50.5t10.5 -45t44.5 -26.5q16 0 29.5 5t28.5 9q-2 -4 2 -8q31 29 56 70q18 29 18 60q0 13 -2 26q-18 10 -44 6t-49 2l41 188q72 10 140.5 15.5t138.5 15.5 l2 -8q25 10 52.5 9t55.5 7q-16 -74 -18 -149.5t-8 -151t-26.5 -149.5t-78.5 -144q-37 -59 -92 -102t-120.5 -70.5t-136.5 -36.5q-33 -4 -66 -5q-36 0 -72 6q-39 6 -79 21t-74.5 38.5t-61.5 55.5t-41 73q-16 37 -17.5 72.5t-9.5 72.5zM469 848l4 6l-4 4v-10zM680 1077l4 -2 l2 6l-2 2zM682 1157l2 -2l4 8l-2 2zM768 141l2 -2l4 6l-2 2zM872 969h5l4 6l-4 2zM993 1278l4 8l4 -2l-4 -8z" />
<glyph unicode="h" horiz-adv-x="1302" d="M76 -37l180 1036l66 431l362 2l-88 -535q-8 -6 -9 -12t1 -14.5t3 -15.5t-1 -15q39 -4 78 -4h73q16 29 19.5 59.5t9.5 58.5q4 43 14 80l-2 8h6q4 29 4.5 55.5t14.5 55.5h-6q6 2 6 8v15q0 6 1 13t7 13h-6l16 51h-4q4 31 14.5 63t6.5 58q6 16 8 28.5t6 29.5l369 2l-101 -609 l-147 -860l-336 2v6q-2 0 -3 1t-5 -1l-2 -6q4 4 2 6t-4 7l-4 2l-4 -13l10 35h-6q8 23 8 47.5t12 44.5l4 -2l-4 21l57 358q-39 5 -80 5h-14q-49 -1 -96 -5q-23 -121 -43 -250t-47 -258q-53 3 -107 3l-53 -1l-160 -4q-6 8 -13 4t-13 -4zM135 276l6 3l-2 4l-4 -4v-3zM477 1266 l10 -2v8zM649 1331l8 4l-2 4l-6 -4v-4z" />
<glyph unicode="i" horiz-adv-x="735" d="M109 25q6 86 13 175t25 171l-4 24l113 977h4q0 23 2 48.5t6 47.5q86 12 177.5 15.5t183.5 13.5q-4 -98 -17 -197l-24 -198l-131 -1063l-174 -8q-88 -4 -174 -6zM330 688l10 -8l2 4l-10 8zM424 496l6 -4l2 2l-6 6z" />
<glyph unicode="j" horiz-adv-x="1232" d="M82 346q0 70 14 143l29 148l162 41l162 41l-8.5 -60.5t-18.5 -56.5l6 -2q2 -16 -3 -35.5t-9 -42t-4 -44t12 -40.5q2 -29 25.5 -37t42.5 -22l12 -2q4 4 16 7t21 3q29 6 43 24.5t21 42t10 49t12 46.5l49 420q6 4 4 18t-2 25l12 112l-37 2q-38 0 -80 -6q-61 -8 -118 -10 l12 156l14 159l430 21l213 4l-112 -956q-10 -82 -38 -158t-74 -138.5t-110.5 -107.5t-144.5 -65q-57 -14 -120 -20q-28 -2 -56 -2q-34 0 -68 3q-61 6 -119.5 26.5t-103.5 57.5q-55 57 -75.5 121.5t-20.5 134.5zM465 1112l2 -2l6 6l-2 2zM502 1116l2 -2l6 6l-2 2zM508 371 l2 -2l6 4l-2 4zM659 262l5 -4l6 6l-2 4zM694 360l2 -2l9 7l-3 2zM948 494l4 -5l6 7l-4 4z" />
<glyph unicode="k" horiz-adv-x="1251" d="M61 74q31 172 68 334l78 340q20 88 37 174l32 174l37 170q18 86 45 172q82 -10 146.5 -11.5t148.5 -1.5h43q-57 -199 -92 -402.5t-82 -412.5q0 -10 11.5 -9t17.5 3q49 6 87 37t56 59q33 45 52.5 99.5t31.5 107.5q18 47 29 94l18 99l31 153q12 72 25 162h157q16 0 35 -3 t35 -3q10 0 22 -2q20 -4 68 -12q-16 -160 -46 -312.5t-71 -314.5q0 -10 -8 -24.5t-12 -30.5q-33 -47 -69 -87t-83 -71q-23 -10 -40 -26.5t-44 -20.5q41 -115 92.5 -224.5t88.5 -224.5q-70 3 -139 4q-17 0 -33.5 -0.5t-33.5 -0.5q-68 0 -138 4q-37 78 -51.5 161.5 t-47.5 161.5l-24 -14q-12 -6 -32 -14.5t-46 -18.5q-10 -61 -26.5 -120.5t-22.5 -127.5q-2 -2 -2 -6q-2 -6 0 -14q-55 3 -114 2h-59q-92 -2 -176 -2z" />
<glyph unicode="l" horiz-adv-x="999" d="M90 41l21 127l75 418l25 141l27 147h4q23 143 53 304l57 303q11 -1 22 -1q22 0 43 3q32 4 60 -6q10 8 29 10q6 1 12 1q12 0 23 -3q61 0 117 2q19 1 38 1q37 0 72 -3l-182 -1049l8 -8q72 4 153.5 4t159.5 8q-14 -98 -35.5 -190t-40.5 -189q-193 -4 -372 -10t-369 -10z M168 268h2l2 8h-4v-8zM270 739h2l2 9h-4v-9zM506 809h4v8l-4 2v-10z" />
<glyph unicode="m" horiz-adv-x="1398" d="M88 12l64 467l14 88q2 -2 12 2l-6 17l141 876q8 4 7 6t-3 3.5t-3 4.5t5 7q84 10 168 11t170 1l76 -172l74 -174l10 10l101 172l96 176q25 -1 49 0q73 0 144 4q95 6 192 11l-111 -709l-49 -360l-63 -410q-79 -7 -158 -7q-20 0 -40 1q-33 1 -66 1q-65 0 -126 -3l-2 -4l2 4 q-6 4 -12 -2v18h4q16 168 43 317.5t43 317.5q-57 -35 -95 -85t-87 -91q-27 29 -48.5 65.5t-49.5 65.5l-6 -6l-82 -612q-37 -3 -73 -3h-35q-52 2 -105 3v-9q-10 -2 -24.5 2t-25.5 4v-8q-20 1 -45 2q-13 0 -27 -1q-42 -1 -63 7zM672 516l6 4l2 -2l-6 -6zM989 920l2 -5l6 7 l-2 2zM1184 680l6 6h-4z" />
<glyph unicode="n" horiz-adv-x="1382" d="M96 49l146 694l90 453l33 164q16 84 38 168q60 -8 120 -8l36 1q14 1 28 0q64 0 130 -12l149 -340q29 78 45.5 161t36.5 167q98 -4 194.5 -10t194.5 -10q-23 -123 -49 -248t-61 -242l4 -4l-19 -100q-2 4 -4 2t-4 -2q4 -16 0 -35t-8 -35l-49 -217l-119 -528q-4 -6 -4 -19.5 t-6 -23.5h-31q-16 0 -26 8q-16 -6 -35 -5t-39 3q-16 0 -40 2t-42 6q-14 -4 -27 -4h-33q-29 -2 -60.5 2t-55.5 4l102 432q-10 55 -38.5 102.5t-55.5 102.5q-43 -158 -71.5 -313.5t-76.5 -317.5q-42 1 -80 1h-37h-22q-45 0 -96 3l-2 6q-29 -7 -62 -7h-8q-37 1 -73 1l-3 4z M506 545q4 0 8 4l-6 2zM674 1151l2 -2l2 8h-2zM1151 795l6 -2l2 6l-6 2z" />
<glyph unicode="o" horiz-adv-x="1161" d="M77 239q-5 31 -5 62q0 37 7 76q13 72 38.5 146.5t32.5 144.5l-5 10q23 70 35 147l21 160q12 82 28.5 160t50 144.5t90 117.5t146.5 78q61 18 133 22q17 1 34 1q55 0 109 -10q71 -13 134 -45t108 -83q45 -84 48 -171q1 -15 1 -29q0 -73 -13 -146q-15 -88 -38.5 -177 t-32.5 -175q-8 -80 -24.5 -158t-47 -148.5t-79.5 -132t-119 -104.5q-68 -43 -142.5 -68.5t-149.5 -28.5q-10 0 -19 -1q-65 0 -128 18q-73 20 -136 72q-66 51 -77 118zM213 682l6 -2l2 4l-8 2v-4zM367 977l8 -6l2 8q-6 2 -10 -2zM453 432q39 0 80.5 14.5t68.5 49.5 q47 143 65.5 286.5t45.5 286.5l-4 31q-6 18 -30 20t-42 4q-35 -6 -60 -33q-19 -21 -20 -49q0 -9 2 -18l-55 -299q-28 -146 -51 -293zM524 180l8 -2v4l-8 2v-4zM696 963l9 -2v4l-9 2v-4z" />
<glyph unicode="p" horiz-adv-x="1210" d="M74 68q10 57 23.5 118.5t29.5 116.5l4 53l107 480q31 135 56 269t58 259q2 27 10.5 57.5t14.5 42.5l-4 9l508 -15q51 -8 99 -32.5t87 -61.5t65.5 -83t34.5 -97q5 -35 6 -70q0 -43 -9 -84q-15 -74 -52 -139.5t-91 -119.5t-120 -93q-86 -51 -179 -86t-192 -68 q-25 -113 -45 -227l-43 -229h-368zM319 1225l7 -6l4 4l-6 6zM600 1143l6 -4l4 2l-8 4zM602 825q39 14 80 36t77 51.5t59.5 68.5t25.5 86q-8 16 -20.5 31.5t-30.5 23.5q-23 17 -57 18h-4q-36 -1 -58 -14l-39 -149q-19 -74 -33 -152z" />
<glyph unicode="q" horiz-adv-x="1251" d="M117 362l69 521q2 72 15.5 153.5t44 158.5t81 138.5t128.5 89.5l14 2l-2 7q92 55 192 54q16 0 32 -1q118 -10 229 -76q53 -33 84.5 -94.5t39.5 -124.5q11 -94 11.5 -189t-11.5 -190l-40 -381q-53 10 -109.5 25.5t-116.5 19.5q57 -10 119 -29l119 -38l123 -119 q61 -61 114 -131l-172 -35q-92 -16 -182 -41q-18 33 -44 55.5t-48 52.5q-51 -47 -113.5 -80.5t-129.5 -48.5q-47 -10 -94 -10q-21 0 -42 2q-70 6 -133 39q-78 39 -124 111.5t-54 158.5zM465 1149l4 -2l4 8l-6 2zM526 485l4 -8l88 6q10 -4 20.5 -1t16.5 -1q27 4 54.5 1 t46.5 -7q-16 4 -38 5t-26 20q10 141 26 276q12 107 12 217q0 29 -1 60q-6 29 -34.5 43t-51.5 12l4 -6q-33 -2 -45 -37l-24 -59q-16 -129 -29 -259.5t-23 -261.5zM569 1354l2 -2l2 6l-2 2zM774 477l4 -2l2 8l-2 2zM834 637l2 -2l4 8h-4z" />
<glyph unicode="r" horiz-adv-x="1372" d="M92 25l51 270l50 272l116 625l29 139l27 139l401 21q40 1 82 1h43q66 -1 127 -16.5t113.5 -51t87.5 -101.5q54 -106 54 -213q0 -22 -2 -44q-13 -130 -83 -247q-82 -113 -187 -201l13 -53l211 -426l24 -49l23 -51h-32q-57 0 -122 -5q-35 -3 -67 -3q-46 0 -86 6l-4 2 q-16 -10 -46 -7t-57 1l-20 18l-72 228q-37 115 -78 225q-23 4 -49.5 -3t-48.5 -18l-74 -446l-8 -8l-140 -2q-35 0 -71 1h-42q-84 0 -163 -3zM647 809q33 14 60.5 32.5t54.5 41.5l37 51q18 27 28.5 55.5t10.5 58t-15 60.5q-21 21 -46 21q-4 0 -9 -1q-31 -4 -68 -8 q-18 -74 -30.5 -153.5t-22.5 -157.5zM889 287l8 2l-2 2h-6v-4zM1120 246l2 -4l6 6zM1155 209l2 -4l6 2l-2 2h-6z" />
<glyph unicode="s" horiz-adv-x="1173" d="M150 258l2 -2l6 2v4zM152 237l-2 30q0 31 6 64q8 48 20 98t17 99l18 9h287q-4 -18 -9.5 -38t-8.5 -38.5t0 -38t18 -37.5q23 -16 49 -18t51 4q25 8 33 34.5t24 36.5q8 30 9 61q0 15 -2 32q-6 47 -41 81q-43 41 -95 74l-102 64q-49 33 -92 73.5t-70 100.5q10 6 4 10t-2 12 q12 49 20.5 100.5t20.5 100.5t34.5 94t66.5 80q104 86 235 121q57 15 113 15q72 0 143 -25q78 -29 133 -90.5t72 -147.5q1 -25 1 -50v-26q-1 -39 -11 -73l6 -2l-8 -41q-57 -3 -115 -4h-29q-14 0 -28 1q-57 0 -113 -4q-4 20 -9 53t-32 52q-23 17 -45 17q-9 0 -18 -3 q-30 -10 -64 -16l-2 -10q-6 2 -14 -2q-4 -16 -18.5 -46t-6.5 -59q27 -47 69 -79t89 -56l98 -53q49 -27 86 -64q53 -66 78 -158q10 -38 10 -75q0 -53 -20 -103q-16 -123 -92 -210t-193 -121q-61 -18 -132 -27q-35 -4 -71 -4l-71 4q-71 8 -137 34.5t-122 76.5q-32 41 -36 87z M625 406l8 4l2 -4l-8 -5z" />
<glyph unicode="t" horiz-adv-x="1202" d="M133 1139q18 88 32.5 176t31.5 176q193 0 393 12q151 9 296 9q49 0 97 -1l135 -2q-10 -90 -21.5 -166.5t-27.5 -164.5q-38 -9 -81 -10q-14 0 -29 1l-39 2q-39 0 -78 -6l-80 -524q-37 -256 -88 -528l-4 -54l-398 -14l-4 14l107 750l24 166q12 84 27 170q-24 1 -48 1 q-48 0 -97 -3q-74 -4 -148 -4zM516 1014h4q0 2 1 4t1 6zM676 1155l4 14zM1049 1178h4q4 8 2 10zM1057 1206l2 -4l8 2l-2 4z" />
<glyph unicode="u" horiz-adv-x="1224" d="M109 334q6 137 22 261l33 261l51 434q6 27 9 58.5t12 62.5l-5 4q92 2 183.5 5t181.5 5l-82 -895q4 -23 5 -45t6 -43.5t16.5 -39t36.5 -27.5q27 -2 47 11t32 34q25 123 40.5 243.5t27.5 241.5l27 246q12 123 30 252l4 29l179 4q92 2 190 6l-92 -713q-18 -139 -40 -280.5 t-85 -262.5q-59 -63 -132 -106t-155 -65q-72 -19 -146 -18h-22q-86 3 -168 34q-41 14 -77.5 42.5t-64.5 65.5t-43 79t-15 85q-8 -2 -8 5q0 3 1.5 12t0.5 14zM164 664h4v8h-4v-8zM305 1114h4v8h-4v-8zM594 354h2v8h-2v-8zM903 1081h2v9h-2v-9zM1067 1169h4v25h-4v-25z" />
<glyph unicode="v" horiz-adv-x="1353" d="M133 1415q104 10 205 12l203 5q6 -51 6 -99.5t4 -101.5l20 -449l4 -112l11 -4l180 329l231 451q2 14 16.5 11t24.5 3q96 6 194 11q69 4 139 4h56l-718 -1477q-121 -6 -248 -15.5t-250 -11.5l-57 1069zM170 840l2 -9l4 3l-2 8zM188 838q1 -3 4.5 -3t8.5 3l-2 8zM453 1294 l2 -8l2 2l-2 8zM502 1341l2 -6h2l-2 8z" />
<glyph unicode="w" horiz-adv-x="1605" d="M96 1384l10 9l390 10q4 -117 13 -232.5t26 -226.5q59 98 104 186l96 193q6 8 13.5 25.5t15.5 31.5q4 8 10 19l10 18q70 4 135.5 5t131.5 8l16 -441l4 -6l121 229q59 106 117 228q104 0 205.5 7t205.5 11l-166 -350l-522 -1081q2 -35 -12 -46.5t-35.5 -11.5t-45.5 3 t-40 -3q-35 -4 -78 -5t-84 -3q-6 78 -7 156t-17 153q-18 -12 -26.5 -38.5t-24.5 -45.5l-142 -239l-151.5 -11.5t-149.5 -7.5q-18 160 -28.5 319t-22.5 318l-43 543l-11.5 139t-17.5 137zM401 1319l7 -2v8l-5 2zM715 295l2 -2l2 8l-4 2v-8zM717 553l2 -2l2 8h-4v-6zM819 922 l4 -2l2 8h-4zM856 1415l2 8h2v-8h-4zM868 471l4 -2v8l-2 2zM1012 119l4 -2l2 8l-4 2zM1454 1001h4v9h-2zM1536 1112l4 8z" />
<glyph unicode="x" horiz-adv-x="1488" d="M27 -68q59 102 135 204t137 202l121 184l121 176q-35 119 -74 225.5t-76 227.5l-35 109l-39 108l7 -2q2 8 -7 12h7q-2 10 -8.5 12.5t-2.5 12.5h-6v16l6 2l-2 11h-4h43v4l29 2v-6q84 8 155.5 13t151.5 7q27 -90 57 -174l62 -170q66 80 122 167t126 161q-4 10 7 17t13 20 l78 2v-7q96 16 195.5 16.5t191.5 10.5l-227 -321l-236 -326l-63 -88q-31 -43 -66 -86l33 -127l168 -535v-6l-39 2l2 -6l-348 -27q-29 63 -47.5 129t-46.5 129q-49 -63 -88 -135l-82 -141l-459 -29v11q-4 1 -12 -7zM303 1423l4 2l6 -4l-4 -4zM311 1401l2 2l6 -4l-2 -4z M836 96l6 -6l4 4l-6 6zM901 240l2 -7l4 5z" />
<glyph unicode="y" horiz-adv-x="1349" d="M111 1452q93 15 188 15q12 0 24 -1q36 -1 71 0q72 0 145 2q35 -76 65.5 -158.5t71.5 -156.5l96 158q49 80 94 164q10 -10 20.5 -1t24.5 1l420 8l-237 -410l-248 -403l-35 -535l-8 -100q-109 -10 -217.5 -14.5t-218.5 -6.5l90 807l-312 565zM406 1346l2 -7l6 -4zM487 1087 l2 -2l5 9l-2 2zM553 641h2l4 6l-2 2zM672 1137h2l4 6h-4zM788 639h3l4 6l-4 2z" />
<glyph unicode="z" horiz-adv-x="1280" d="M84 63q12 119 37.5 235t48.5 232l401 525l64 88q-12 10 -30.5 7t-35.5 -1q-76 -2 -138 -8q-37 -4 -77 -4q-27 0 -55 2q10 33 14 66.5t19 64.5q0 47 20.5 98t22.5 98q8 6 9 17.5t3 22t7 17.5t22 3l102 -2l-2 -4l47 2l414 -17q30 5 61 5q23 0 46 -3q27 -3 55 -3t57 3l2 -10 l-47 -207l-47 -205l-494 -647q29 -2 64 -8t53 2q29 -3 61 -3q16 0 33 1q51 2 94 2v-4q10 -4 22.5 0t18.5 0l-84 -381l-32 2l-721 14q-10 4 -18.5 1t-16.5 -1zM473 1526l2 2l2 -8l-2 -2zM793 1386l8 11zM1130 1262h5l-2 6h-3v-6z" />
<glyph unicode="|" horiz-adv-x="757" d="M373 -483v2048h280v-2048h-280z" />
<glyph unicode="~" d="M178 379v299q111 70 208 106.5t200 36.5q70 0 138.5 -15t139.5 -38l148 -51q72 -25 151 -25q90 0 179.5 38t187.5 112v-299q-98 -66 -188.5 -99.5t-182.5 -33.5q-74 0 -139.5 17t-126.5 40q-78 27 -158 48.5t-174 21.5q-90 0 -182 -40t-201 -118z" />
<glyph unicode="&#xa6;" horiz-adv-x="745" d="M373 -350v758h280v-758h-280zM373 674v758h280v-758h-280z" />
<glyph unicode="&#xa8;" horiz-adv-x="933" d="M307 1333q0 66 44 114t108 48q53 0 83.5 -32.5t30.5 -90.5q0 -72 -43 -116t-112 -44q-47 0 -79 34t-32 87zM735 1333q0 63 44 112.5t108 49.5q53 0 83.5 -34t30.5 -91q0 -72 -43 -115t-106 -43q-53 0 -85 34t-32 87z" />
<glyph unicode="&#xaa;" horiz-adv-x="1476" d="M47 -23l293 539q143 272 307 549l-6 2q57 96 106.5 191.5t108.5 187.5l-4 4q57 2 113 2t110 -2q43 -2 89 -2q69 0 143 4q23 -270 36 -522t33 -520l31 -414l-406 -10l-22 239q-31 -1 -63 -1l-109 4q-67 6 -129 6q-18 0 -35 -1q-41 -59 -74 -122l-63 -131q-68 -4 -136 -4 q-46 0 -91 1q-57 2 -115.5 2t-116.5 -2zM506 227l4 2l-2 9l-2 -2v-9zM657 1065h5v8h-5v-8zM823 532q37 -4 68 -4h67q-5 54 -5 109v13v13q0 60 -15 115q-10 4 -3 9.5t5 9.5l-117 -248v-17zM889 1438h4v8h-4v-8zM1036 1446l2 -6h2v8zM1102 106l2 -8l2 2v9z" />
<glyph unicode="&#xac;" horiz-adv-x="1548" d="M254 602v266h1198v-501h-272v235h-926z" />
<glyph unicode="&#xad;" horiz-adv-x="755" d="M84 385q0 -4 6 16.5t14 55.5l19 75l16 76q8 33 15.5 55.5t9.5 18.5q2 2 43 3t88 1t88 -1t45 -1q59 -2 135 2t137 2l-30 -149l-31 -154q-39 0 -115 2l-162 2q-84 0 -161.5 -1t-116.5 -3z" />
<glyph unicode="&#xaf;" horiz-adv-x="882" d="M371 1307q0 86 23.5 113.5t70.5 27.5h395q47 0 66.5 -5t19.5 -36q0 -45 -6 -72.5t-17.5 -43t-28.5 -20.5t-42 -5h-412q-39 0 -54 6t-15 35z" />
<glyph unicode="&#x2c9;" horiz-adv-x="882" d="M371 1307q0 86 23.5 113.5t70.5 27.5h395q47 0 66.5 -5t19.5 -36q0 -45 -6 -72.5t-17.5 -43t-28.5 -20.5t-42 -5h-412q-39 0 -54 6t-15 35z" />
<glyph unicode="&#xb0;" horiz-adv-x="616" d="M14 1149q0 68 26 127t70 102t103 69t125 26q68 0 126 -26t101 -69t68.5 -102t25.5 -127q0 -66 -25.5 -124t-68.5 -102t-102.5 -70t-127 -26t-125.5 25t-101 69t-69 102t-26 126zM186 1150.5q0 -63.5 43 -108.5t109 -45q63 0 107 46.5t44 107.5t-45 106.5t-108 45.5 q-61 0 -105.5 -44.5t-44.5 -108z" />
<glyph unicode="&#xb1;" horiz-adv-x="1490" d="M254 -41v272h1198v-272h-1198zM254 680v272h459v310h280v-310h459v-272h-459v-309h-280v309h-459z" />
<glyph unicode="&#xb2;" horiz-adv-x="1284" d="M133 29q6 84 31.5 163.5t66.5 149.5q2 16 13.5 32.5t15.5 35.5q188 319 516 551q31 29 56.5 64.5t11.5 78.5q-8 23 -28.5 33l-39.5 20q-25 6 -45 0t-38.5 -19.5t-35 -30.5t-28.5 -34q-14 -25 -23.5 -49.5t-17.5 -52.5l-142 78q-72 37 -141 81q6 63 37 121t75 104t97 78.5 t107 49.5q29 8 50 9t52 11q92 10 183 -6t163 -76l4 4q45 -33 76 -79t45 -100t13 -110.5t-19 -109.5q-29 -84 -85 -154.5t-122 -136.5l-131 -131q-68 -68 -115 -143q-16 -23 -18 -49.5t-15 -49.5q92 2 187 21l184 33q-27 -90 -41 -185.5t-33 -187.5q-92 2 -174 0l-172 -4 l-467 -6zM709 1436h4v8h-4v-8zM862 692h2l2 8h-4v-8zM991 1339l8 52z" />
<glyph unicode="&#xb3;" horiz-adv-x="1320" d="M159 304q3 50 12 101.5t15 98.5q70 10 148 13t151 13l-8 -73.5t29 -61.5q18 -16 37.5 -7t42.5 9l55 52q2 31 12.5 68.5t16.5 75.5t2 72.5t-29 63.5q-45 23 -93 13.5t-85 -37.5l-223 174q72 66 147.5 127t147.5 133l-140 -17q-74 -8 -145 -14l10 100l4 -6q2 4 4 4t0 4 q-12 12 -4 34t6 44q10 47 11.5 92t19.5 86q0 8 -8 4l446 9q90 2 180.5 7t188.5 1q-10 -82 -18.5 -172t-14.5 -168l-88 -70q-43 -35 -88 -63q49 -16 91 -56t46 -94l-67 -534q-10 -49 -37 -95.5t-65 -84t-84 -65.5t-97 -38q-55 -12 -120.5 -20.5t-130 -4t-123 26t-101.5 68.5 q-37 39 -47 88t-7 99zM528 1473v8h7v-8h-7zM897 1001l4 5zM1077 1247h6v8h-6v-8z" />
<glyph unicode="&#xb4;" horiz-adv-x="948" d="M418 1325q0 29 24.5 43t77.5 33l342 123l35 10q16 6 35 6q29 0 56.5 -50t27.5 -116q0 -27 -14.5 -38t-57.5 -21l-377 -90q-25 -6 -42 -8.5t-27 -2.5q-39 0 -59.5 32t-20.5 79z" />
<glyph unicode="&#xb7;" horiz-adv-x="604" d="M68 633q0 51 18 96t51 78t78 51.5t96 18.5t96.5 -18.5t78 -51.5t51 -78t18.5 -96t-18.5 -96t-51 -78t-78 -51.5t-96.5 -18.5t-96 18.5t-78 51.5t-51 78t-18 96z" />
<glyph unicode="&#x2219;" horiz-adv-x="604" d="M68 633q0 51 18 96t51 78t78 51.5t96 18.5t96.5 -18.5t78 -51.5t51 -78t18.5 -96t-18.5 -96t-51 -78t-78 -51.5t-96.5 -18.5t-96 18.5t-78 51.5t-51 78t-18 96z" />
<glyph unicode="&#xb8;" horiz-adv-x="722" d="M137 -348q0 29 18.5 48t47.5 19q18 0 39 -6l49 -16q25 -8 54.5 -15.5t64.5 -7.5q98 0 98 64q0 39 -38 48t-120 9q-25 0 -34 9.5t-9 41.5q0 10 6 50l17 104h119q-6 -55 -7 -96q39 8 80 8q92 0 142.5 -45t50.5 -119q0 -94 -73 -151.5t-206 -57.5q-137 0 -218 34t-81 79z " />
<glyph unicode="&#xb9;" horiz-adv-x="1013" d="M88 836q27 80 39 164.5t33 168.5q66 53 133 100.5t133 100.5l4 -4l70 64q39 33 90 32h330l-134 -755l-96 -445q-14 -63 -25.5 -127.5t-31.5 -124.5l-377 -8q31 217 76 456.5t78 473.5h-33l-144 -47zM633 20v11h6v-11h-6z" />
<glyph unicode="&#xba;" horiz-adv-x="1161" d="M77 239q-5 31 -5 62q0 37 7 76q13 72 38.5 146.5t32.5 144.5l-5 10q23 70 35 147l21 160q12 82 28.5 160t50 144.5t90 117.5t146.5 78q61 18 133 22q17 1 34 1q55 0 109 -10q71 -13 134 -45t108 -83q45 -84 48 -171q1 -15 1 -29q0 -73 -13 -146q-15 -88 -38.5 -177 t-32.5 -175q-8 -80 -24.5 -158t-47 -148.5t-79.5 -132t-119 -104.5q-68 -43 -142.5 -68.5t-149.5 -28.5q-10 0 -19 -1q-65 0 -128 18q-73 20 -136 72q-66 51 -77 118zM213 682l6 -2l2 4l-8 2v-4zM367 977l8 -6l2 8q-6 2 -10 -2zM453 432q39 0 80.5 14.5t68.5 49.5 q47 143 65.5 286.5t45.5 286.5l-4 31q-6 18 -30 20t-42 4q-35 -6 -60 -33q-19 -21 -20 -49q0 -9 2 -18l-55 -299q-28 -146 -51 -293zM524 180l8 -2v4l-8 2v-4zM696 963l9 -2v4l-9 2v-4z" />
<glyph unicode="&#xc0;" d="M47 -23l293 539q143 272 307 549l-6 2q57 96 106.5 191.5t108.5 187.5l-4 4q115 4 223.5 0t231.5 2q23 -270 36 -522t33 -520l31 -414l-406 -10l-22 239q-86 -4 -172 3.5t-164 4.5q-41 -59 -74 -122l-63 -131q-113 -6 -227.5 -2.5t-231.5 -0.5zM506 227l4 2l-2 9l-2 -2 v-9zM657 1065h5v8h-5v-8zM737 1790q0 66 28 116t56 50q18 0 35 -6l35 -11l342 -122q53 -18 77.5 -33t24.5 -43q0 -47 -20.5 -79t-59.5 -32q-10 0 -27.5 2t-41.5 8l-377 91q-43 10 -57.5 21t-14.5 38zM823 532q37 -4 68 -4h67q-6 63 -5 127t-15 123q-10 4 -3 9.5t5 9.5 l-117 -248v-17zM889 1438h4v8h-4v-8zM1036 1446l2 -6h2v8zM1102 106l2 -8l2 2v9z" />
<glyph unicode="&#xc1;" d="M47 -23l293 539q143 272 307 549l-6 2q57 96 106.5 191.5t108.5 187.5l-4 4q115 4 223.5 0t231.5 2q23 -270 36 -522t33 -520l31 -414l-406 -10l-22 239q-86 -4 -172 3.5t-164 4.5q-41 -59 -74 -122l-63 -131q-113 -6 -227.5 -2.5t-231.5 -0.5zM506 227l4 2l-2 9l-2 -2 v-9zM657 1065h5v8h-5v-8zM819 1741q0 29 24.5 43t78.5 33l342 122l34 11q16 6 35 6q29 0 56.5 -50.5t27.5 -115.5q0 -27 -14 -38t-57 -21l-377 -91q-25 -6 -42.5 -8t-27.5 -2q-39 0 -59.5 32t-20.5 79zM823 532q37 -4 68 -4h67q-6 63 -5 127t-15 123q-10 4 -3 9.5t5 9.5 l-117 -248v-17zM889 1438h4v8h-4v-8zM1036 1446l2 -6h2v8zM1102 106l2 -8l2 2v9z" />
<glyph unicode="&#xc2;" d="M47 -23l293 539q143 272 307 549l-6 2q57 96 106.5 191.5t108.5 187.5l-4 4q115 4 223.5 0t231.5 2q23 -270 36 -522t33 -520l31 -414l-406 -10l-22 239q-86 -4 -172 3.5t-164 4.5q-41 -59 -74 -122l-63 -131q-113 -6 -227.5 -2.5t-231.5 -0.5zM506 227l4 2l-2 9l-2 -2 v-9zM639 1626q0 10 13.5 26.5l35.5 41.5l209 219q18 20 42 24.5t58 4.5h19q35 0 56.5 -2.5t33.5 -8.5t19.5 -15t15.5 -24l131 -227q4 -10 10 -17.5t6 -19.5q0 -18 -21.5 -23.5t-64.5 -5.5h-22q-31 0 -50.5 3.5t-29.5 17.5q-12 16 -37 57t-59 113l-78 -94q-35 -41 -66 -68 q-25 -20 -47 -25.5t-49 -5.5h-49q-37 0 -56.5 9.5t-19.5 19.5zM657 1065h5v8h-5v-8zM823 532q37 -4 68 -4h67q-6 63 -5 127t-15 123q-10 4 -3 9.5t5 9.5l-117 -248v-17zM889 1438h4v8h-4v-8zM1036 1446l2 -6h2v8zM1102 106l2 -8l2 2v9z" />
<glyph unicode="&#xc3;" d="M47 -23l293 539q143 272 307 549l-6 2q57 96 106.5 191.5t108.5 187.5l-4 4q115 4 223.5 0t231.5 2q23 -270 36 -522t33 -520l31 -414l-406 -10l-22 239q-86 -4 -172 3.5t-164 4.5q-41 -59 -74 -122l-63 -131q-113 -6 -227.5 -2.5t-231.5 -0.5zM506 227l4 2l-2 9l-2 -2 v-9zM657 1065h5v8h-5v-8zM666 1656.5q0 16.5 12 56.5t45 91q80 125 176 125q35 0 74 -12l82 -29q43 -16 88 -29.5t94 -13.5q51 0 71.5 19.5t37.5 56.5q6 16 14 23.5t26 7.5q33 0 46.5 -7.5t13.5 -33.5q0 -43 -19.5 -89t-53.5 -85t-79 -63.5t-96 -24.5q-45 0 -89 12t-85 27.5 t-81 29t-77 13.5q-41 0 -62.5 -21.5t-37.5 -60.5q-6 -16 -13.5 -23.5t-29.5 -7.5q-25 0 -41 11t-16 27.5zM823 532q37 -4 68 -4h67q-6 63 -5 127t-15 123q-10 4 -3 9.5t5 9.5l-117 -248v-17zM889 1438h4v8h-4v-8zM1036 1446l2 -6h2v8zM1102 106l2 -8l2 2v9z" />
<glyph unicode="&#xc4;" d="M47 -23l293 539q143 272 307 549l-6 2q57 96 106.5 191.5t108.5 187.5l-4 4q115 4 223.5 0t231.5 2q23 -270 36 -522t33 -520l31 -414l-406 -10l-22 239q-86 -4 -172 3.5t-164 4.5q-41 -59 -74 -122l-63 -131q-113 -6 -227.5 -2.5t-231.5 -0.5zM506 227l4 2l-2 9l-2 -2 v-9zM657 1065h5v8h-5v-8zM709 1749q0 66 44 114t107 48q53 0 84 -33t31 -90q0 -72 -43 -116t-113 -44q-47 0 -78.5 34t-31.5 87zM823 532q37 -4 68 -4h67q-6 63 -5 127t-15 123q-10 4 -3 9.5t5 9.5l-117 -248v-17zM889 1438h4v8h-4v-8zM1036 1446l2 -6h2v8zM1102 106l2 -8 l2 2v9zM1137 1749q0 63 44 112.5t107 49.5q53 0 84 -34t31 -91q0 -72 -43 -115t-107 -43q-53 0 -84.5 34t-31.5 87z" />
<glyph unicode="&#xc5;" horiz-adv-x="1476" d="M918 1773.5q0 59.5 21.5 111.5t60.5 90t90 60.5t110.5 22.5t111.5 -22.5t91 -60.5t61.5 -90t22.5 -111.5t-22.5 -112t-60.5 -91t-90 -60t-114 -21.5q-59 0 -111 21.5t-90 60t-59.5 91t-21.5 112zM1088 1773q0 -47 32.5 -80.5t81.5 -33.5q47 0 81 33.5t34 80.5t-33.5 81 t-81 34t-81 -34t-33.5 -81zM47 -23l293 539q143 272 307 549l-6 2q57 96 106.5 191.5t108.5 187.5l-4 4q57 2 113 2t110 -2q43 -2 89 -2q69 0 143 4q23 -270 36 -522t33 -520l31 -414l-406 -10l-22 239q-31 -1 -63 -1l-109 4q-67 6 -129 6q-18 0 -35 -1q-41 -59 -74 -122 l-63 -131q-68 -4 -136 -4q-46 0 -91 1q-57 2 -115.5 2t-116.5 -2zM506 227l4 2l-2 9l-2 -2v-9zM657 1065h5v8h-5v-8zM823 532q37 -4 68 -4h67q-5 54 -5 109v13v13q0 60 -15 115q-10 4 -3 9.5t5 9.5l-117 -248v-17zM889 1438h4v8h-4v-8zM1036 1446l2 -6h2v8zM1102 106l2 -8 l2 2v9z" />
<glyph unicode="&#xc7;" horiz-adv-x="1169" d="M87 387.5q5 61.5 5 120.5l64 418l20 141q10 74 31.5 141.5t57.5 127t99.5 102.5t134 75.5t142.5 47t143.5 7.5t139.5 -44q37 -20 71.5 -48t62 -64t45 -76t17.5 -85q2 -63 -10 -133l-20 -125q-70 -4 -150 1t-154 -1q2 31 8.5 65t6.5 66.5t-10.5 60t-36.5 48.5 q-8 12 -24.5 14t-29.5 2q-61 -20 -83.5 -74.5t-41.5 -111.5q-29 -147 -53 -289.5t-41 -300.5q0 -23 10.5 -45t26.5 -35q23 -10 48.5 -14t45.5 12q33 20 51.5 52t30 69t17.5 76t14 76q76 6 151.5 -3.5t151.5 -5.5q-10 -100 -40 -193t-82 -170t-125.5 -136.5t-172.5 -92.5 q-16 -4 -38.5 -8t-12.5 -32q8 -29 3 -60t-17.5 -57.5t-29.5 -48t-38 -33.5l-47 -27l-4 4l-10 -6q4 4 1 7t-5 8l4 2q-16 29 -22.5 61.5t-37.5 50.5q-27 12 -51 7t-49 -9q-10 35 -2 74l16 80l11 6q-59 29 -106.5 77t-74.5 107q-16 60 -11 121.5zM414 -193l2 -4l-2 4l10 7z M430 -205l2 8h4l-2 -8h-4zM537 1110q4 0 4 -2t4 -4l12 10q0 4 -5 4t-9 2q-4 0 -5 -4t-1 -6zM848 1296h2l2 9h-2zM977 1464l4 -8z" />
<glyph unicode="&#xc8;" horiz-adv-x="1359" d="M174 4l12 96l211 1143l33 197l53 4l572 -12l43 2q-10 -82 -25.5 -164t-32.5 -160q-78 -4 -153.5 -3t-153.5 -7q-12 -57 -20 -113.5t-23 -114.5q2 -6 8.5 -7t14.5 0t15 2t11 -5q8 6 23 6q59 -2 118.5 2t120.5 2l-30 -149l-31 -154q-78 -2 -155.5 -1t-155.5 -5 q-12 -57 -20.5 -116.5t-14.5 -112.5q84 2 152.5 0t152.5 2q-20 -88 -35.5 -170t-34.5 -168q-166 -6 -327.5 1t-327.5 5zM377 606q-4 -6 6 -14q-4 4 -3 8t-3 6zM567 1790q0 66 28 116t56 50q18 0 35 -4l35 -13l342 -122q53 -18 77.5 -33t24.5 -43q0 -47 -20.5 -79t-59.5 -32 q-10 0 -27.5 2t-41.5 8l-377 91q-43 10 -57.5 21t-14.5 38zM569 334l9 4h-7zM569 983l6 -4l5 4l-9 4zM629 864l55 4zM717 1104l6 -4l2 4l-6 4z" />
<glyph unicode="&#xc9;" horiz-adv-x="1087" d="M106 25q20 121 43 231.5t39 232.5h2l33 187l33 188q4 2 5 15.5t9 21.5q14 119 40 254t46 268l152 9l16 55q8 27 13 57l319 6q-10 -29 -18.5 -59.5t-12.5 -65.5q55 0 98.5 -5t90.5 5l-26.5 -165.5l-26.5 -167.5q-68 -4 -132.5 0t-132.5 0l-8 -11l-39 -237q72 -2 133.5 -3 t132.5 -3q-10 -72 -21 -142.5l-22 -142.5q-66 -6 -139.5 -3t-144.5 -1q-8 -14 -9 -38t-6 -38l-16 -141q74 -10 136.5 -6t140.5 6q-8 -78 -22.5 -152t-23.5 -151q-174 -6 -341 0t-341 -4zM254 786h8v5h-8v-5zM262 907v4h8v-4h-8zM266 924v4h8v-4h-8zM293 831l8 3v2h-8v-5z M301 821h8v4l-8 -2v-2zM516 905l4 -4v8zM549 176h8v4l-8 -2v-2zM616 1241l17 -39l10 2z" />
<glyph unicode="&#xca;" horiz-adv-x="1359" d="M174 4l12 96l211 1143l33 197l53 4l572 -12l43 2q-10 -82 -25.5 -164t-32.5 -160q-78 -4 -153.5 -3t-153.5 -7q-12 -57 -20 -113.5t-23 -114.5q2 -6 8.5 -7t14.5 0t15 2t11 -5q8 6 23 6q59 -2 118.5 2t120.5 2l-30 -149l-31 -154q-78 -2 -155.5 -1t-155.5 -5 q-12 -57 -20.5 -116.5t-14.5 -112.5q84 2 152.5 0t152.5 2q-20 -88 -35.5 -170t-34.5 -168q-166 -6 -327.5 1t-327.5 5zM377 606q-4 -6 6 -14q-4 4 -3 8t-3 6zM469 1626q0 10 13.5 26.5l35.5 41.5l209 219q18 20 42 24.5t58 4.5h19q35 0 56.5 -2.5t33.5 -8.5t19.5 -15 t15.5 -24l131 -227q4 -10 10 -17.5t6 -19.5q0 -18 -21.5 -23.5t-64.5 -5.5h-22q-31 0 -50.5 3.5t-29.5 17.5q-12 16 -37 57t-59 113l-78 -94q-35 -41 -66 -68q-25 -20 -47 -25.5t-49 -5.5h-49q-37 0 -56.5 9.5t-19.5 19.5zM569 334l9 4h-7zM569 983l6 -4l5 4l-9 4zM629 864 l55 4zM717 1104l6 -4l2 4l-6 4z" />
<glyph unicode="&#xcb;" horiz-adv-x="1359" d="M174 4l12 96l211 1143l33 197l53 4l572 -12l43 2q-10 -82 -25.5 -164t-32.5 -160q-78 -4 -153.5 -3t-153.5 -7q-12 -57 -20 -113.5t-23 -114.5q2 -6 8.5 -7t14.5 0t15 2t11 -5q8 6 23 6q59 -2 118.5 2t120.5 2l-30 -149l-31 -154q-78 -2 -155.5 -1t-155.5 -5 q-12 -57 -20.5 -116.5t-14.5 -112.5q84 2 152.5 0t152.5 2q-20 -88 -35.5 -170t-34.5 -168q-166 -6 -327.5 1t-327.5 5zM377 606q-4 -6 6 -14q-4 4 -3 8t-3 6zM539 1749q0 66 44 114t107 48q53 0 84 -33t31 -90q0 -72 -43 -116t-113 -44q-47 0 -78.5 34t-31.5 87zM569 334 l9 4h-7zM569 983l6 -4l5 4l-9 4zM629 864l55 4zM717 1104l6 -4l2 4l-6 4zM967 1749q0 63 44 112.5t107 49.5q53 0 84 -34t31 -91q0 -72 -43 -115t-107 -43q-53 0 -84.5 34t-31.5 87z" />
<glyph unicode="&#xcc;" horiz-adv-x="1050" d="M109 25q6 86 13 175t25 171l-4 24l113 977h4q0 23 2 48.5t6 47.5q86 12 177.5 15.5t183.5 13.5q-4 -98 -17 -197l-24 -198l-131 -1063l-174 -8q-88 -4 -174 -6zM330 688l10 -8l2 4l-10 8zM375 1790q0 66 27.5 116t56.5 50q18 0 35 -4l34 -13l342 -122q53 -18 78 -33 t25 -43q0 -47 -20.5 -79t-59.5 -32q-10 0 -27.5 2t-42.5 8l-377 91q-43 10 -57 21t-14 38zM424 496l6 -4l2 2l-6 6z" />
<glyph unicode="&#xcd;" horiz-adv-x="1050" d="M109 25q6 86 13 175t25 171l-4 24l113 977h4q0 23 2 48.5t6 47.5q86 12 177.5 15.5t183.5 13.5q-4 -98 -17 -197l-24 -198l-131 -1063l-174 -8q-88 -4 -174 -6zM330 688l10 -8l2 4l-10 8zM424 496l6 -4l2 2l-6 6zM457 1741q0 29 24.5 43t77.5 33l342 122l35 13q16 4 35 4 q29 0 56.5 -50.5t27.5 -115.5q0 -27 -14.5 -38t-57.5 -21l-377 -91q-25 -6 -42 -8t-27 -2q-39 0 -59.5 32t-20.5 79z" />
<glyph unicode="&#xce;" horiz-adv-x="1050" d="M109 25q6 86 13 175t25 171l-4 24l113 977h4q0 23 2 48.5t6 47.5q86 12 177.5 15.5t183.5 13.5q-4 -98 -17 -197l-24 -198l-131 -1063l-174 -8q-88 -4 -174 -6zM276 1626q0 10 13.5 26.5t36.5 41.5l209 219q18 20 41.5 24.5t58.5 4.5h18q35 0 56.5 -2.5t34 -8.5t19.5 -15 t15 -24l131 -227q4 -10 10.5 -17.5t6.5 -19.5q0 -18 -21.5 -23.5t-64.5 -5.5h-23q-31 0 -50 3.5t-30 17.5q-12 16 -36.5 57t-59.5 113l-78 -94q-35 -41 -65 -68q-25 -20 -47.5 -25.5t-49.5 -5.5h-49q-37 0 -56.5 9.5t-19.5 19.5zM330 688l10 -8l2 4l-10 8zM424 496l6 -4l2 2 l-6 6z" />
<glyph unicode="&#xcf;" horiz-adv-x="1050" d="M109 25q6 86 13 175t25 171l-4 24l113 977h4q0 23 2 48.5t6 47.5q86 12 177.5 15.5t183.5 13.5q-4 -98 -17 -197l-24 -198l-131 -1063l-174 -8q-88 -4 -174 -6zM330 688l10 -8l2 4l-10 8zM346 1749q0 66 44 114t108 48q53 0 83.5 -33t30.5 -90q0 -72 -43 -116t-112 -44 q-47 0 -79 34t-32 87zM424 496l6 -4l2 2l-6 6zM774 1749q0 63 44 112.5t108 49.5q53 0 83.5 -34t30.5 -91q0 -72 -43 -115t-106 -43q-53 0 -85 34t-32 87z" />
<glyph unicode="&#xd1;" horiz-adv-x="1650" d="M96 49l146 694l90 453l33 164q16 84 38 168q78 -10 156 -7t158 -12l149 -340q29 78 45.5 161t36.5 167q98 -4 194.5 -10t194.5 -10q-23 -123 -49 -248t-61 -242l4 -4l-19 -100q-2 4 -4 2t-4 -2q4 -16 0 -35t-8 -35l-49 -217l-119 -528q-4 -6 -4 -19.5t-6 -23.5h-31 q-16 0 -26 8q-16 -6 -35 -5t-39 3q-16 0 -40 2t-42 6q-14 -4 -27 -4h-33q-29 -2 -60.5 2t-55.5 4l102 432q-10 55 -38.5 102.5t-55.5 102.5q-43 -158 -71.5 -313.5t-76.5 -317.5q-63 2 -117.5 1t-117.5 3l-2 6q-33 -8 -70 -7t-73 1l-3 4zM506 545q4 0 8 4l-6 2zM659 1656.5 q0 16.5 12.5 56.5t45.5 91q80 125 176 125q35 0 74 -12l82 -29q43 -16 88 -29.5t94 -13.5q51 0 71.5 19.5t36.5 56.5q6 16 14.5 23.5t26.5 7.5q33 0 46.5 -7.5t13.5 -33.5q0 -43 -19.5 -89t-53.5 -85t-79 -63.5t-96 -24.5q-45 0 -89 12t-85 27.5t-81 29t-77 13.5 q-41 0 -62.5 -21.5t-37.5 -60.5q-6 -16 -13.5 -23.5t-29.5 -7.5q-25 0 -41.5 11t-16.5 27.5zM674 1151l2 -2l2 8h-2zM1151 795l6 -2l2 6l-6 2z" />
<glyph unicode="&#xd2;" horiz-adv-x="1521" d="M77 238.5q-11 66.5 2 138.5t38.5 146.5t32.5 144.5l-5 10q23 70 35 147l21 160q12 82 28.5 160t50 144.5t90 117.5t146.5 78q61 18 133 22t142.5 -9t134 -45t108.5 -83q45 -84 48 -171t-12 -175t-38.5 -177t-32.5 -175q-8 -80 -24.5 -158t-47 -148.5t-79.5 -132 t-119 -104.5q-68 -43 -142.5 -68.5t-149.5 -28.5t-147.5 17.5t-135.5 71.5q-66 51 -77 117.5zM213 682l6 -2l2 4l-8 2v-4zM367 977l8 -6l2 8q-6 2 -10 -2zM453 432q39 0 80.5 14.5t68.5 49.5q47 143 65.5 286.5t45.5 286.5l-4 31q-6 18 -30 20t-42 4q-35 -6 -60.5 -33.5 t-17.5 -66.5l-55 -299q-28 -146 -51 -293zM524 180l8 -2v4l-8 2v-4zM696 963l9 -2v4l-9 2v-4zM711 1790q0 66 27.5 116t56.5 50q18 0 34 -6l35 -11l342 -122q53 -18 78 -33t25 -43q0 -47 -20.5 -79t-59.5 -32q-10 0 -27.5 2t-42.5 8l-377 91q-43 10 -57 21t-14 38z" />
<glyph unicode="&#xd3;" horiz-adv-x="1521" d="M77 238.5q-11 66.5 2 138.5t38.5 146.5t32.5 144.5l-5 10q23 70 35 147l21 160q12 82 28.5 160t50 144.5t90 117.5t146.5 78q61 18 133 22t142.5 -9t134 -45t108.5 -83q45 -84 48 -171t-12 -175t-38.5 -177t-32.5 -175q-8 -80 -24.5 -158t-47 -148.5t-79.5 -132 t-119 -104.5q-68 -43 -142.5 -68.5t-149.5 -28.5t-147.5 17.5t-135.5 71.5q-66 51 -77 117.5zM213 682l6 -2l2 4l-8 2v-4zM367 977l8 -6l2 8q-6 2 -10 -2zM453 432q39 0 80.5 14.5t68.5 49.5q47 143 65.5 286.5t45.5 286.5l-4 31q-6 18 -30 20t-42 4q-35 -6 -60.5 -33.5 t-17.5 -66.5l-55 -299q-28 -146 -51 -293zM524 180l8 -2v4l-8 2v-4zM696 963l9 -2v4l-9 2v-4zM793 1741q0 29 24.5 43t77.5 33l342 122l35 11q16 6 35 6q29 0 56.5 -50.5t27.5 -115.5q0 -27 -14.5 -38t-57.5 -21l-377 -91q-25 -6 -42 -8t-28 -2q-39 0 -59 32t-20 79z" />
<glyph unicode="&#xd4;" horiz-adv-x="1521" d="M77 238.5q-11 66.5 2 138.5t38.5 146.5t32.5 144.5l-5 10q23 70 35 147l21 160q12 82 28.5 160t50 144.5t90 117.5t146.5 78q61 18 133 22t142.5 -9t134 -45t108.5 -83q45 -84 48 -171t-12 -175t-38.5 -177t-32.5 -175q-8 -80 -24.5 -158t-47 -148.5t-79.5 -132 t-119 -104.5q-68 -43 -142.5 -68.5t-149.5 -28.5t-147.5 17.5t-135.5 71.5q-66 51 -77 117.5zM213 682l6 -2l2 4l-8 2v-4zM367 977l8 -6l2 8q-6 2 -10 -2zM453 432q39 0 80.5 14.5t68.5 49.5q47 143 65.5 286.5t45.5 286.5l-4 31q-6 18 -30 20t-42 4q-35 -6 -60.5 -33.5 t-17.5 -66.5l-55 -299q-28 -146 -51 -293zM524 180l8 -2v4l-8 2v-4zM612 1626q0 10 13.5 26.5t36.5 41.5l208 219q18 20 42 24.5t59 4.5h18q35 0 56.5 -2.5t34 -8.5t19.5 -15t15 -24l131 -227q4 -10 10.5 -17.5t6.5 -19.5q0 -18 -21.5 -23.5t-64.5 -5.5h-23q-31 0 -50.5 3.5 t-29.5 17.5q-12 16 -36.5 57t-59.5 113l-78 -94q-35 -41 -65 -68q-25 -20 -47.5 -25.5t-49.5 -5.5h-49q-37 0 -56.5 9.5t-19.5 19.5zM696 963l9 -2v4l-9 2v-4z" />
<glyph unicode="&#xd5;" horiz-adv-x="1521" d="M77 238.5q-11 66.5 2 138.5t38.5 146.5t32.5 144.5l-5 10q23 70 35 147l21 160q12 82 28.5 160t50 144.5t90 117.5t146.5 78q61 18 133 22t142.5 -9t134 -45t108.5 -83q45 -84 48 -171t-12 -175t-38.5 -177t-32.5 -175q-8 -80 -24.5 -158t-47 -148.5t-79.5 -132 t-119 -104.5q-68 -43 -142.5 -68.5t-149.5 -28.5t-147.5 17.5t-135.5 71.5q-66 51 -77 117.5zM213 682l6 -2l2 4l-8 2v-4zM367 977l8 -6l2 8q-6 2 -10 -2zM453 432q39 0 80.5 14.5t68.5 49.5q47 143 65.5 286.5t45.5 286.5l-4 31q-6 18 -30 20t-42 4q-35 -6 -60.5 -33.5 t-17.5 -66.5l-55 -299q-28 -146 -51 -293zM524 180l8 -2v4l-8 2v-4zM639 1656.5q0 16.5 12.5 56.5t44.5 91q80 125 176 125q35 0 74 -14l82 -29l88 -27.5t94 -13.5q51 0 72 19.5t37 56.5q6 16 14 23.5t27 7.5q33 0 46 -7.5t13 -33.5q0 -43 -19.5 -89t-53 -85t-78.5 -63.5 t-97 -24.5q-45 0 -89 12t-85 27.5t-80.5 29t-76.5 13.5q-41 0 -62.5 -21.5t-38.5 -60.5q-6 -16 -13 -23.5t-30 -7.5q-25 0 -41 11t-16 27.5zM696 963l9 -2v4l-9 2v-4z" />
<glyph unicode="&#xd6;" horiz-adv-x="1521" d="M77 238.5q-11 66.5 2 138.5t38.5 146.5t32.5 144.5l-5 10q23 70 35 147l21 160q12 82 28.5 160t50 144.5t90 117.5t146.5 78q61 18 133 22t142.5 -9t134 -45t108.5 -83q45 -84 48 -171t-12 -175t-38.5 -177t-32.5 -175q-8 -80 -24.5 -158t-47 -148.5t-79.5 -132 t-119 -104.5q-68 -43 -142.5 -68.5t-149.5 -28.5t-147.5 17.5t-135.5 71.5q-66 51 -77 117.5zM213 682l6 -2l2 4l-8 2v-4zM367 977l8 -6l2 8q-6 2 -10 -2zM453 432q39 0 80.5 14.5t68.5 49.5q47 143 65.5 286.5t45.5 286.5l-4 31q-6 18 -30 20t-42 4q-35 -6 -60.5 -33.5 t-17.5 -66.5l-55 -299q-28 -146 -51 -293zM524 180l8 -2v4l-8 2v-4zM682 1749q0 66 44 114t108 48q53 0 83.5 -33t30.5 -90q0 -72 -43 -116t-112 -44q-47 0 -79 34t-32 87zM696 963l9 -2v4l-9 2v-4zM1110 1749q0 63 44 112.5t108 49.5q53 0 83.5 -34t30.5 -91 q0 -72 -43 -115t-106 -43q-53 0 -85 34t-32 87z" />
<glyph unicode="&#xd7;" horiz-adv-x="1572" d="M256 182l428 428l-428 428l190 193l428 -428l429 428l192 -193l-428 -428l428 -428l-192 -190l-429 428l-428 -428z" />
<glyph unicode="&#xd9;" horiz-adv-x="1591" d="M107.5 312.5q3.5 11.5 1.5 21.5q6 137 22 261l33 261l51 434q6 27 9 58.5t12 62.5l-5 4q92 2 183.5 5t181.5 5l-82 -895q4 -23 5 -45t6 -43.5t16.5 -39t36.5 -27.5q27 -2 47 11t32 34q25 123 40.5 243.5t27.5 241.5l27 246q12 123 30 252l4 29l179 4q92 2 190 6l-92 -713 q-18 -139 -40 -280.5t-85 -262.5q-59 -63 -132 -106t-155 -64.5t-168 -18.5t-168 34q-41 14 -77.5 42.5t-64.5 65.5t-43 79t-15 85q-11 -2 -7.5 9.5zM164 664h4v8h-4v-8zM305 1114h4v8h-4v-8zM594 354h2v8h-2v-8zM733 1790q0 66 27.5 116t56.5 50q18 0 35 -6l35 -11 l342 -122q53 -18 77.5 -33t24.5 -43q0 -47 -20.5 -79t-59.5 -32q-10 0 -27.5 2t-41.5 8l-377 91q-43 10 -57.5 21t-14.5 38zM903 1081h2v9h-2v-9zM1067 1169h4v25h-4v-25z" />
<glyph unicode="&#xda;" horiz-adv-x="1591" d="M107.5 312.5q3.5 11.5 1.5 21.5q6 137 22 261l33 261l51 434q6 27 9 58.5t12 62.5l-5 4q92 2 183.5 5t181.5 5l-82 -895q4 -23 5 -45t6 -43.5t16.5 -39t36.5 -27.5q27 -2 47 11t32 34q25 123 40.5 243.5t27.5 241.5l27 246q12 123 30 252l4 29l179 4q92 2 190 6l-92 -713 q-18 -139 -40 -280.5t-85 -262.5q-59 -63 -132 -106t-155 -64.5t-168 -18.5t-168 34q-41 14 -77.5 42.5t-64.5 65.5t-43 79t-15 85q-11 -2 -7.5 9.5zM164 664h4v8h-4v-8zM305 1114h4v8h-4v-8zM594 354h2v8h-2v-8zM815 1741q0 29 24.5 43t78.5 33l342 122l34 11q16 6 35 6 q29 0 56.5 -50.5t27.5 -115.5q0 -27 -14.5 -38t-57.5 -21l-376 -91q-25 -6 -42.5 -8t-27.5 -2q-39 0 -59.5 32t-20.5 79zM903 1081h2v9h-2v-9zM1067 1169h4v25h-4v-25z" />
<glyph unicode="&#xdb;" horiz-adv-x="1591" d="M107.5 312.5q3.5 11.5 1.5 21.5q6 137 22 261l33 261l51 434q6 27 9 58.5t12 62.5l-5 4q92 2 183.5 5t181.5 5l-82 -895q4 -23 5 -45t6 -43.5t16.5 -39t36.5 -27.5q27 -2 47 11t32 34q25 123 40.5 243.5t27.5 241.5l27 246q12 123 30 252l4 29l179 4q92 2 190 6l-92 -713 q-18 -139 -40 -280.5t-85 -262.5q-59 -63 -132 -106t-155 -64.5t-168 -18.5t-168 34q-41 14 -77.5 42.5t-64.5 65.5t-43 79t-15 85q-11 -2 -7.5 9.5zM164 664h4v8h-4v-8zM305 1114h4v8h-4v-8zM594 354h2v8h-2v-8zM635 1626q0 10 13.5 26.5l35.5 41.5l209 219 q18 20 41.5 24.5t58.5 4.5h19q35 0 56.5 -2.5t33.5 -8.5t19 -15t16 -24l131 -227q4 -10 10 -17.5t6 -19.5q0 -18 -21.5 -23.5t-64.5 -5.5h-22q-31 0 -50.5 3.5t-29.5 17.5q-12 16 -37 57t-60 113l-77 -94q-35 -41 -66 -68q-25 -20 -47.5 -25.5t-48.5 -5.5h-49 q-37 0 -56.5 9.5t-19.5 19.5zM903 1081h2v9h-2v-9zM1067 1169h4v25h-4v-25z" />
<glyph unicode="&#xdc;" horiz-adv-x="1591" d="M107.5 312.5q3.5 11.5 1.5 21.5q6 137 22 261l33 261l51 434q6 27 9 58.5t12 62.5l-5 4q92 2 183.5 5t181.5 5l-82 -895q4 -23 5 -45t6 -43.5t16.5 -39t36.5 -27.5q27 -2 47 11t32 34q25 123 40.5 243.5t27.5 241.5l27 246q12 123 30 252l4 29l179 4q92 2 190 6l-92 -713 q-18 -139 -40 -280.5t-85 -262.5q-59 -63 -132 -106t-155 -64.5t-168 -18.5t-168 34q-41 14 -77.5 42.5t-64.5 65.5t-43 79t-15 85q-11 -2 -7.5 9.5zM164 664h4v8h-4v-8zM305 1114h4v8h-4v-8zM594 354h2v8h-2v-8zM705 1749q0 66 44 114t107 48q53 0 84 -33t31 -90 q0 -72 -43 -116t-113 -44q-47 0 -78.5 34t-31.5 87zM903 1081h2v9h-2v-9zM1067 1169h4v25h-4v-25zM1133 1749q0 63 44 112.5t107 49.5q53 0 84 -34t31 -91q0 -72 -43 -115t-107 -43q-53 0 -84.5 34t-31.5 87z" />
<glyph unicode="&#xdd;" horiz-adv-x="1441" d="M111 1452q104 16 211.5 14t216.5 2q35 -76 65.5 -158.5t71.5 -156.5l96 158q49 80 94 164q10 -10 20.5 -1t24.5 1l420 8l-237 -410l-248 -403l-35 -535l-8 -100q-109 -10 -217.5 -14.5t-218.5 -6.5l90 807l-312 565zM406 1346l2 -7l6 -4zM487 1087l2 -2l5 9l-2 2z M553 641h2l4 6l-2 2zM672 1137h2l4 6h-4zM680 1741q0 29 24.5 43t77.5 33l342 122l35 11q16 6 35 6q29 0 56.5 -50.5t27.5 -115.5q0 -27 -14.5 -38t-57.5 -21l-377 -91q-25 -6 -42 -8t-27 -2q-39 0 -59.5 32t-20.5 79zM788 639h3l4 6l-4 2z" />
<glyph unicode="&#xe0;" d="M47 -23l293 539q143 272 307 549l-6 2q57 96 106.5 191.5t108.5 187.5l-4 4q115 4 223.5 0t231.5 2q23 -270 36 -522t33 -520l31 -414l-406 -10l-22 239q-86 -4 -172 3.5t-164 4.5q-41 -59 -74 -122l-63 -131q-113 -6 -227.5 -2.5t-231.5 -0.5zM506 227l4 2l-2 9l-2 -2 v-9zM657 1065h5v8h-5v-8zM737 1790q0 66 28 116t56 50q18 0 35 -6l35 -11l342 -122q53 -18 77.5 -33t24.5 -43q0 -47 -20.5 -79t-59.5 -32q-10 0 -27.5 2t-41.5 8l-377 91q-43 10 -57.5 21t-14.5 38zM823 532q37 -4 68 -4h67q-6 63 -5 127t-15 123q-10 4 -3 9.5t5 9.5 l-117 -248v-17zM889 1438h4v8h-4v-8zM1036 1446l2 -6h2v8zM1102 106l2 -8l2 2v9z" />
<glyph unicode="&#xe1;" horiz-adv-x="1599" d="M47 -23l293 539q143 272 307 549l-6 2q57 96 106.5 191.5t108.5 187.5l-4 4q115 4 223.5 0t231.5 2q23 -270 36 -522t33 -520l31 -414l-406 -10l-22 239q-86 -4 -172 3.5t-164 4.5q-41 -59 -74 -122l-63 -131q-113 -6 -227.5 -2.5t-231.5 -0.5zM506 227l4 2l-2 9l-2 -2 v-9zM657 1065h5v8h-5v-8zM725 1632q0 29 24.5 43.5t77.5 32.5l342 123l35 10q16 6 35 6q29 0 56.5 -50t27.5 -116q0 -27 -14.5 -38t-57.5 -21l-377 -90q-25 -6 -42 -8t-27 -2q-39 0 -59.5 31.5t-20.5 78.5zM823 532q37 -4 68 -4h67q-6 63 -5 127t-15 123q-10 4 -3 9.5t5 9.5 l-117 -248v-17zM889 1438h4v8h-4v-8zM1036 1446l2 -6h2v8zM1102 106l2 -8l2 2v9z" />
<glyph unicode="&#xe2;" d="M47 -23l293 539q143 272 307 549l-6 2q57 96 106.5 191.5t108.5 187.5l-4 4q115 4 223.5 0t231.5 2q23 -270 36 -522t33 -520l31 -414l-406 -10l-22 239q-86 -4 -172 3.5t-164 4.5q-41 -59 -74 -122l-63 -131q-113 -6 -227.5 -2.5t-231.5 -0.5zM506 227l4 2l-2 9l-2 -2 v-9zM639 1626q0 10 13.5 26.5l35.5 41.5l209 219q18 20 42 24.5t58 4.5h19q35 0 56.5 -2.5t33.5 -8.5t19.5 -15t15.5 -24l131 -227q4 -10 10 -17.5t6 -19.5q0 -18 -21.5 -23.5t-64.5 -5.5h-22q-31 0 -50.5 3.5t-29.5 17.5q-12 16 -37 57t-59 113l-78 -94q-35 -41 -66 -68 q-25 -20 -47 -25.5t-49 -5.5h-49q-37 0 -56.5 9.5t-19.5 19.5zM657 1065h5v8h-5v-8zM823 532q37 -4 68 -4h67q-6 63 -5 127t-15 123q-10 4 -3 9.5t5 9.5l-117 -248v-17zM889 1438h4v8h-4v-8zM1036 1446l2 -6h2v8zM1102 106l2 -8l2 2v9z" />
<glyph unicode="&#xe3;" d="M47 -23l293 539q143 272 307 549l-6 2q57 96 106.5 191.5t108.5 187.5l-4 4q115 4 223.5 0t231.5 2q23 -270 36 -522t33 -520l31 -414l-406 -10l-22 239q-86 -4 -172 3.5t-164 4.5q-41 -59 -74 -122l-63 -131q-113 -6 -227.5 -2.5t-231.5 -0.5zM506 227l4 2l-2 9l-2 -2 v-9zM657 1065h5v8h-5v-8zM666 1656.5q0 16.5 12 56.5t45 91q80 125 176 125q35 0 74 -12l82 -29q43 -16 88 -29.5t94 -13.5q51 0 71.5 19.5t37.5 56.5q6 16 14 23.5t26 7.5q33 0 46.5 -7.5t13.5 -33.5q0 -43 -19.5 -89t-53.5 -85t-79 -63.5t-96 -24.5q-45 0 -89 12t-85 27.5 t-81 29t-77 13.5q-41 0 -62.5 -21.5t-37.5 -60.5q-6 -16 -13.5 -23.5t-29.5 -7.5q-25 0 -41 11t-16 27.5zM823 532q37 -4 68 -4h67q-6 63 -5 127t-15 123q-10 4 -3 9.5t5 9.5l-117 -248v-17zM889 1438h4v8h-4v-8zM1036 1446l2 -6h2v8zM1102 106l2 -8l2 2v9z" />
<glyph unicode="&#xe4;" d="M47 -23l293 539q143 272 307 549l-6 2q57 96 106.5 191.5t108.5 187.5l-4 4q115 4 223.5 0t231.5 2q23 -270 36 -522t33 -520l31 -414l-406 -10l-22 239q-86 -4 -172 3.5t-164 4.5q-41 -59 -74 -122l-63 -131q-113 -6 -227.5 -2.5t-231.5 -0.5zM506 227l4 2l-2 9l-2 -2 v-9zM657 1065h5v8h-5v-8zM709 1749q0 66 44 114t107 48q53 0 84 -33t31 -90q0 -72 -43 -116t-113 -44q-47 0 -78.5 34t-31.5 87zM823 532q37 -4 68 -4h67q-6 63 -5 127t-15 123q-10 4 -3 9.5t5 9.5l-117 -248v-17zM889 1438h4v8h-4v-8zM1036 1446l2 -6h2v8zM1102 106l2 -8 l2 2v9zM1137 1749q0 63 44 112.5t107 49.5q53 0 84 -34t31 -91q0 -72 -43 -115t-107 -43q-53 0 -84.5 34t-31.5 87z" />
<glyph unicode="&#xe5;" horiz-adv-x="1476" d="M942 1915.5q0 59.5 21.5 111.5t60.5 90t90 60.5t110.5 22.5t111.5 -22.5t91 -60.5t61.5 -90t22.5 -111.5t-22.5 -112t-60.5 -91t-90 -60t-114 -21.5q-59 0 -111 21.5t-90 60t-59.5 91t-21.5 112zM1112 1915q0 -47 32.5 -80.5t81.5 -33.5q47 0 81 33.5t34 80.5t-33.5 81 t-81 34t-81 -34t-33.5 -81zM47 -23l293 539q143 272 307 549l-6 2q57 96 106.5 191.5t108.5 187.5l-4 4q57 2 113 2t110 -2q43 -2 89 -2q69 0 143 4q23 -270 36 -522t33 -520l31 -414l-406 -10l-22 239q-31 -1 -63 -1l-109 4q-67 6 -129 6q-18 0 -35 -1q-41 -59 -74 -122 l-63 -131q-68 -4 -136 -4q-46 0 -91 1q-57 2 -115.5 2t-116.5 -2zM506 227l4 2l-2 9l-2 -2v-9zM657 1065h5v8h-5v-8zM823 532q37 -4 68 -4h67q-5 54 -5 109v13v13q0 60 -15 115q-10 4 -3 9.5t5 9.5l-117 -248v-17zM889 1438h4v8h-4v-8zM1036 1446l2 -6h2v8zM1102 106l2 -8 l2 2v9z" />
<glyph unicode="&#xe7;" horiz-adv-x="1169" d="M87 387.5q5 61.5 5 120.5l64 418l20 141q10 74 31.5 141.5t57.5 127t99.5 102.5t134 75.5t142.5 47t143.5 7.5t139.5 -44q37 -20 71.5 -48t62 -64t45 -76t17.5 -85q2 -63 -10 -133l-20 -125q-70 -4 -150 1t-154 -1q2 31 8.5 65t6.5 66.5t-10.5 60t-36.5 48.5 q-8 12 -24.5 14t-29.5 2q-61 -20 -83.5 -74.5t-41.5 -111.5q-29 -147 -53 -289.5t-41 -300.5q0 -23 10.5 -45t26.5 -35q23 -10 48.5 -14t45.5 12q33 20 51.5 52t30 69t17.5 76t14 76q76 6 151.5 -3.5t151.5 -5.5q-10 -100 -40 -193t-82 -170t-125.5 -136.5t-172.5 -92.5 q-16 -4 -38.5 -8t-12.5 -32q8 -29 3 -60t-17.5 -57.5t-29.5 -48t-38 -33.5l-47 -27l-4 4l-10 -6q4 4 1 7t-5 8l4 2q-16 29 -22.5 61.5t-37.5 50.5q-27 12 -51 7t-49 -9q-10 35 -2 74l16 80l11 6q-59 29 -106.5 77t-74.5 107q-16 60 -11 121.5zM414 -193l2 -4l-2 4l10 7z M430 -205l2 8h4l-2 -8h-4zM537 1110q4 0 4 -2t4 -4l12 10q0 4 -5 4t-9 2q-4 0 -5 -4t-1 -6zM848 1296h2l2 9h-2zM977 1464l4 -8z" />
<glyph unicode="&#xe8;" horiz-adv-x="1159" d="M174 4l12 96l211 1143l33 197l53 4l572 -12l43 2q-10 -82 -25.5 -164t-32.5 -160q-78 -4 -153.5 -3t-153.5 -7q-12 -57 -20 -113.5t-23 -114.5q2 -6 8.5 -7t14.5 0t15 2t11 -5q8 6 23 6q59 -2 118.5 2t120.5 2l-30 -149l-31 -154q-78 -2 -155.5 -1t-155.5 -5 q-12 -57 -20.5 -116.5t-14.5 -112.5q84 2 152.5 0t152.5 2q-20 -88 -35.5 -170t-34.5 -168q-166 -6 -327.5 1t-327.5 5zM377 606q-4 -6 6 -14q-4 4 -3 8t-3 6zM567 1790q0 66 28 116t56 50q18 0 35 -4l35 -13l342 -122q53 -18 77.5 -33t24.5 -43q0 -47 -20.5 -79t-59.5 -32 q-10 0 -27.5 2t-41.5 8l-377 91q-43 10 -57.5 21t-14.5 38zM569 334l9 4h-7zM569 983l6 -4l5 4l-9 4zM629 864l55 4zM717 1104l6 -4l2 4l-6 4z" />
<glyph unicode="&#xe9;" horiz-adv-x="1087" d="M106 25q20 121 43 231.5t39 232.5h2l33 187l33 188q4 2 5 15.5t9 21.5q14 119 40 254t46 268l152 9l16 55q8 27 13 57l319 6q-10 -29 -18.5 -59.5t-12.5 -65.5q55 0 98.5 -5t90.5 5l-26.5 -165.5l-26.5 -167.5q-68 -4 -132.5 0t-132.5 0l-8 -11l-39 -237q72 -2 133.5 -3 t132.5 -3q-10 -72 -21 -142.5l-22 -142.5q-66 -6 -139.5 -3t-144.5 -1q-8 -14 -9 -38t-6 -38l-16 -141q74 -10 136.5 -6t140.5 6q-8 -78 -22.5 -152t-23.5 -151q-174 -6 -341 0t-341 -4zM254 786h8v5h-8v-5zM262 907v4h8v-4h-8zM266 924v4h8v-4h-8zM293 831l8 3v2h-8v-5z M301 821h8v4l-8 -2v-2zM516 905l4 -4v8zM549 176h8v4l-8 -2v-2zM616 1241l17 -39l10 2z" />
<glyph unicode="&#xea;" horiz-adv-x="1159" d="M174 4l12 96l211 1143l33 197l53 4l572 -12l43 2q-10 -82 -25.5 -164t-32.5 -160q-78 -4 -153.5 -3t-153.5 -7q-12 -57 -20 -113.5t-23 -114.5q2 -6 8.5 -7t14.5 0t15 2t11 -5q8 6 23 6q59 -2 118.5 2t120.5 2l-30 -149l-31 -154q-78 -2 -155.5 -1t-155.5 -5 q-12 -57 -20.5 -116.5t-14.5 -112.5q84 2 152.5 0t152.5 2q-20 -88 -35.5 -170t-34.5 -168q-166 -6 -327.5 1t-327.5 5zM377 606q-4 -6 6 -14q-4 4 -3 8t-3 6zM469 1626q0 10 13.5 26.5l35.5 41.5l209 219q18 20 42 24.5t58 4.5h19q35 0 56.5 -2.5t33.5 -8.5t19.5 -15 t15.5 -24l131 -227q4 -10 10 -17.5t6 -19.5q0 -18 -21.5 -23.5t-64.5 -5.5h-22q-31 0 -50.5 3.5t-29.5 17.5q-12 16 -37 57t-59 113l-78 -94q-35 -41 -66 -68q-25 -20 -47 -25.5t-49 -5.5h-49q-37 0 -56.5 9.5t-19.5 19.5zM569 334l9 4h-7zM569 983l6 -4l5 4l-9 4zM629 864 l55 4zM717 1104l6 -4l2 4l-6 4z" />
<glyph unicode="&#xeb;" horiz-adv-x="1159" d="M174 4l12 96l211 1143l33 197l53 4l572 -12l43 2q-10 -82 -25.5 -164t-32.5 -160q-78 -4 -153.5 -3t-153.5 -7q-12 -57 -20 -113.5t-23 -114.5q2 -6 8.5 -7t14.5 0t15 2t11 -5q8 6 23 6q59 -2 118.5 2t120.5 2l-30 -149l-31 -154q-78 -2 -155.5 -1t-155.5 -5 q-12 -57 -20.5 -116.5t-14.5 -112.5q84 2 152.5 0t152.5 2q-20 -88 -35.5 -170t-34.5 -168q-166 -6 -327.5 1t-327.5 5zM377 606q-4 -6 6 -14q-4 4 -3 8t-3 6zM539 1749q0 66 44 114t107 48q53 0 84 -33t31 -90q0 -72 -43 -116t-113 -44q-47 0 -78.5 34t-31.5 87zM569 334 l9 4h-7zM569 983l6 -4l5 4l-9 4zM629 864l55 4zM717 1104l6 -4l2 4l-6 4zM967 1749q0 63 44 112.5t107 49.5q53 0 84 -34t31 -91q0 -72 -43 -115t-107 -43q-53 0 -84.5 34t-31.5 87z" />
<glyph unicode="&#xec;" horiz-adv-x="815" d="M203 1790q0 66 27.5 116t56.5 50q18 0 35 -4l34 -12l342 -123q53 -18 78 -32.5t25 -43.5q0 -47 -20.5 -79t-59.5 -32q-10 0 -27.5 2.5t-42.5 8.5l-376 90q-43 10 -57.5 21t-14.5 38zM68 856q0 84 137 152q90 43 192.5 67.5t184.5 24.5q53 0 84.5 -29t31.5 -82 q0 -47 -34 -227l-35 -176q-20 -98 -28.5 -156.5t-8.5 -79.5q0 -33 14 -33q16 0 28.5 2.5t22.5 2.5q51 0 52 -66q0 -37 -26 -77t-77 -77q-82 -59 -169 -88.5t-165 -29.5q-190 0 -190 145q0 37 6 82t16 98l70 340q8 37 12 60.5t4 38.5q0 18 -4 25t-12 10t-21.5 4t-31.5 6 q-53 12 -53 63z" />
<glyph unicode="&#xed;" horiz-adv-x="815" d="M572 1741q0 29 24.5 43t77.5 33l342 123l35 10q16 6 35 6q29 0 56.5 -50t27.5 -116q0 -27 -14.5 -38t-57.5 -21l-377 -90q-25 -6 -42 -8.5t-27 -2.5q-39 0 -59.5 32t-20.5 79zM68 856q0 84 137 152q90 43 192.5 67.5t184.5 24.5q53 0 84.5 -29t31.5 -82q0 -47 -34 -227 l-35 -176q-20 -98 -28.5 -156.5t-8.5 -79.5q0 -33 14 -33q16 0 28.5 2.5t22.5 2.5q51 0 52 -66q0 -37 -26 -77t-77 -77q-82 -59 -169 -88.5t-165 -29.5q-190 0 -190 145q0 37 6 82t16 98l70 340q8 37 12 60.5t4 38.5q0 18 -4 25t-12 10t-21.5 4t-31.5 6q-53 12 -53 63z" />
<glyph unicode="&#xee;" horiz-adv-x="815" d="M367 1659.5q0 10.5 13 26.5t36 41l209 219q18 20 41.5 24.5t58.5 4.5h18q35 0 56.5 -2t34 -8.5t19.5 -15.5t15 -23l131 -228q4 -10 10.5 -17t6.5 -20q0 -18 -21.5 -23t-64.5 -5h-23q-31 0 -50 3t-30 17q-12 16 -36.5 57.5t-59.5 112.5l-78 -94q-35 -41 -65 -68 q-25 -20 -47.5 -25t-49.5 -5h-49q-37 0 -56 9t-19 19.5zM68 856q0 84 137 152q90 43 192.5 67.5t184.5 24.5q53 0 84.5 -29t31.5 -82q0 -47 -34 -227l-35 -176q-20 -98 -28.5 -156.5t-8.5 -79.5q0 -33 14 -33q16 0 28.5 2.5t22.5 2.5q51 0 52 -66q0 -37 -26 -77t-77 -77 q-82 -59 -169 -88.5t-165 -29.5q-190 0 -190 145q0 37 6 82t16 98l70 340q8 37 12 60.5t4 38.5q0 18 -4 25t-12 10t-21.5 4t-31.5 6q-53 12 -53 63z" />
<glyph unicode="&#xef;" horiz-adv-x="815" d="M364 1751q0 66 44 114t108 48q53 0 83.5 -32.5t30.5 -90.5q0 -72 -43 -116t-112 -44q-47 0 -79 34t-32 87zM792 1751q0 63 44 112.5t108 49.5q53 0 83.5 -34t30.5 -91q0 -72 -43 -115t-106 -43q-53 0 -85 34t-32 87zM68 856q0 84 137 152q90 43 192.5 67.5t184.5 24.5 q53 0 84.5 -29t31.5 -82q0 -47 -34 -227l-35 -176q-20 -98 -28.5 -156.5t-8.5 -79.5q0 -33 14 -33q16 0 28.5 2.5t22.5 2.5q51 0 52 -66q0 -37 -26 -77t-77 -77q-82 -59 -169 -88.5t-165 -29.5q-190 0 -190 145q0 37 6 82t16 98l70 340q8 37 12 60.5t4 38.5q0 18 -4 25 t-12 10t-21.5 4t-31.5 6q-53 12 -53 63z" />
<glyph unicode="&#xf1;" horiz-adv-x="1384" d="M96 49l146 694l90 453l33 164q16 84 38 168q78 -10 156 -7t158 -12l149 -340q29 78 45.5 161t36.5 167q98 -4 194.5 -10t194.5 -10q-23 -123 -49 -248t-61 -242l4 -4l-19 -100q-2 4 -4 2t-4 -2q4 -16 0 -35t-8 -35l-49 -217l-119 -528q-4 -6 -4 -19.5t-6 -23.5h-31 q-16 0 -26 8q-16 -6 -35 -5t-39 3q-16 0 -40 2t-42 6q-14 -4 -27 -4h-33q-29 -2 -60.5 2t-55.5 4l102 432q-10 55 -38.5 102.5t-55.5 102.5q-43 -158 -71.5 -313.5t-76.5 -317.5q-63 2 -117.5 1t-117.5 3l-2 6q-33 -8 -70 -7t-73 1l-3 4zM506 545q4 0 8 4l-6 2zM659 1656.5 q0 16.5 12.5 56.5t45.5 91q80 125 176 125q35 0 74 -12l82 -29q43 -16 88 -29.5t94 -13.5q51 0 71.5 19.5t36.5 56.5q6 16 14.5 23.5t26.5 7.5q33 0 46.5 -7.5t13.5 -33.5q0 -43 -19.5 -89t-53.5 -85t-79 -63.5t-96 -24.5q-45 0 -89 12t-85 27.5t-81 29t-77 13.5 q-41 0 -62.5 -21.5t-37.5 -60.5q-6 -16 -13.5 -23.5t-29.5 -7.5q-25 0 -41.5 11t-16.5 27.5zM674 1151l2 -2l2 8h-2zM1151 795l6 -2l2 6l-6 2z" />
<glyph unicode="&#xf2;" horiz-adv-x="1288" d="M77 238.5q-11 66.5 2 138.5t38.5 146.5t32.5 144.5l-5 10q23 70 35 147l21 160q12 82 28.5 160t50 144.5t90 117.5t146.5 78q61 18 133 22t142.5 -9t134 -45t108.5 -83q45 -84 48 -171t-12 -175t-38.5 -177t-32.5 -175q-8 -80 -24.5 -158t-47 -148.5t-79.5 -132 t-119 -104.5q-68 -43 -142.5 -68.5t-149.5 -28.5t-147.5 17.5t-135.5 71.5q-66 51 -77 117.5zM213 682l6 -2l2 4l-8 2v-4zM367 977l8 -6l2 8q-6 2 -10 -2zM453 432q39 0 80.5 14.5t68.5 49.5q47 143 65.5 286.5t45.5 286.5l-4 31q-6 18 -30 20t-42 4q-35 -6 -60.5 -33.5 t-17.5 -66.5l-55 -299q-28 -146 -51 -293zM524 180l8 -2v4l-8 2v-4zM696 963l9 -2v4l-9 2v-4zM711 1790q0 66 27.5 116t56.5 50q18 0 34 -6l35 -11l342 -122q53 -18 78 -33t25 -43q0 -47 -20.5 -79t-59.5 -32q-10 0 -27.5 2t-42.5 8l-377 91q-43 10 -57 21t-14 38z" />
<glyph unicode="&#xf3;" horiz-adv-x="1298" d="M77 238.5q-11 66.5 2 138.5t38.5 146.5t32.5 144.5l-5 10q23 70 35 147l21 160q12 82 28.5 160t50 144.5t90 117.5t146.5 78q61 18 133 22t142.5 -9t134 -45t108.5 -83q45 -84 48 -171t-12 -175t-38.5 -177t-32.5 -175q-8 -80 -24.5 -158t-47 -148.5t-79.5 -132 t-119 -104.5q-68 -43 -142.5 -68.5t-149.5 -28.5t-147.5 17.5t-135.5 71.5q-66 51 -77 117.5zM213 682l6 -2l2 4l-8 2v-4zM367 977l8 -6l2 8q-6 2 -10 -2zM453 432q39 0 80.5 14.5t68.5 49.5q47 143 65.5 286.5t45.5 286.5l-4 31q-6 18 -30 20t-42 4q-35 -6 -60.5 -33.5 t-17.5 -66.5l-55 -299q-28 -146 -51 -293zM524 180l8 -2v4l-8 2v-4zM696 963l9 -2v4l-9 2v-4zM793 1741q0 29 24.5 43t77.5 33l342 122l35 11q16 6 35 6q29 0 56.5 -50.5t27.5 -115.5q0 -27 -14.5 -38t-57.5 -21l-377 -91q-25 -6 -42 -8t-28 -2q-39 0 -59 32t-20 79z" />
<glyph unicode="&#xf4;" horiz-adv-x="1288" d="M77 238.5q-11 66.5 2 138.5t38.5 146.5t32.5 144.5l-5 10q23 70 35 147l21 160q12 82 28.5 160t50 144.5t90 117.5t146.5 78q61 18 133 22t142.5 -9t134 -45t108.5 -83q45 -84 48 -171t-12 -175t-38.5 -177t-32.5 -175q-8 -80 -24.5 -158t-47 -148.5t-79.5 -132 t-119 -104.5q-68 -43 -142.5 -68.5t-149.5 -28.5t-147.5 17.5t-135.5 71.5q-66 51 -77 117.5zM213 682l6 -2l2 4l-8 2v-4zM367 977l8 -6l2 8q-6 2 -10 -2zM453 432q39 0 80.5 14.5t68.5 49.5q47 143 65.5 286.5t45.5 286.5l-4 31q-6 18 -30 20t-42 4q-35 -6 -60.5 -33.5 t-17.5 -66.5l-55 -299q-28 -146 -51 -293zM524 180l8 -2v4l-8 2v-4zM612 1626q0 10 13.5 26.5t36.5 41.5l208 219q18 20 42 24.5t59 4.5h18q35 0 56.5 -2.5t34 -8.5t19.5 -15t15 -24l131 -227q4 -10 10.5 -17.5t6.5 -19.5q0 -18 -21.5 -23.5t-64.5 -5.5h-23q-31 0 -50.5 3.5 t-29.5 17.5q-12 16 -36.5 57t-59.5 113l-78 -94q-35 -41 -65 -68q-25 -20 -47.5 -25.5t-49.5 -5.5h-49q-37 0 -56.5 9.5t-19.5 19.5zM696 963l9 -2v4l-9 2v-4z" />
<glyph unicode="&#xf5;" horiz-adv-x="1325" d="M77 238.5q-11 66.5 2 138.5t38.5 146.5t32.5 144.5l-5 10q23 70 35 147l21 160q12 82 28.5 160t50 144.5t90 117.5t146.5 78q61 18 133 22t142.5 -9t134 -45t108.5 -83q45 -84 48 -171t-12 -175t-38.5 -177t-32.5 -175q-8 -80 -24.5 -158t-47 -148.5t-79.5 -132 t-119 -104.5q-68 -43 -142.5 -68.5t-149.5 -28.5t-147.5 17.5t-135.5 71.5q-66 51 -77 117.5zM213 682l6 -2l2 4l-8 2v-4zM367 977l8 -6l2 8q-6 2 -10 -2zM453 432q39 0 80.5 14.5t68.5 49.5q47 143 65.5 286.5t45.5 286.5l-4 31q-6 18 -30 20t-42 4q-35 -6 -60.5 -33.5 t-17.5 -66.5l-55 -299q-28 -146 -51 -293zM524 180l8 -2v4l-8 2v-4zM639 1656.5q0 16.5 12.5 56.5t44.5 91q80 125 176 125q35 0 74 -14l82 -29l88 -27.5t94 -13.5q51 0 72 19.5t37 56.5q6 16 14 23.5t27 7.5q33 0 46 -7.5t13 -33.5q0 -43 -19.5 -89t-53 -85t-78.5 -63.5 t-97 -24.5q-45 0 -89 12t-85 27.5t-80.5 29t-76.5 13.5q-41 0 -62.5 -21.5t-38.5 -60.5q-6 -16 -13 -23.5t-30 -7.5q-25 0 -41 11t-16 27.5zM696 963l9 -2v4l-9 2v-4z" />
<glyph unicode="&#xf6;" horiz-adv-x="1288" d="M77 238.5q-11 66.5 2 138.5t38.5 146.5t32.5 144.5l-5 10q23 70 35 147l21 160q12 82 28.5 160t50 144.5t90 117.5t146.5 78q61 18 133 22t142.5 -9t134 -45t108.5 -83q45 -84 48 -171t-12 -175t-38.5 -177t-32.5 -175q-8 -80 -24.5 -158t-47 -148.5t-79.5 -132 t-119 -104.5q-68 -43 -142.5 -68.5t-149.5 -28.5t-147.5 17.5t-135.5 71.5q-66 51 -77 117.5zM213 682l6 -2l2 4l-8 2v-4zM367 977l8 -6l2 8q-6 2 -10 -2zM453 432q39 0 80.5 14.5t68.5 49.5q47 143 65.5 286.5t45.5 286.5l-4 31q-6 18 -30 20t-42 4q-35 -6 -60.5 -33.5 t-17.5 -66.5l-55 -299q-28 -146 -51 -293zM524 180l8 -2v4l-8 2v-4zM682 1749q0 66 44 114t108 48q53 0 83.5 -33t30.5 -90q0 -72 -43 -116t-112 -44q-47 0 -79 34t-32 87zM696 963l9 -2v4l-9 2v-4zM1110 1749q0 63 44 112.5t108 49.5q53 0 83.5 -34t30.5 -91 q0 -72 -43 -115t-106 -43q-53 0 -85 34t-32 87z" />
<glyph unicode="&#xf9;" horiz-adv-x="1243" d="M107.5 312.5q3.5 11.5 1.5 21.5q6 137 22 261l33 261l51 434q6 27 9 58.5t12 62.5l-5 4q92 2 183.5 5t181.5 5l-82 -895q4 -23 5 -45t6 -43.5t16.5 -39t36.5 -27.5q27 -2 47 11t32 34q25 123 40.5 243.5t27.5 241.5l27 246q12 123 30 252l4 29l179 4q92 2 190 6l-92 -713 q-18 -139 -40 -280.5t-85 -262.5q-59 -63 -132 -106t-155 -64.5t-168 -18.5t-168 34q-41 14 -77.5 42.5t-64.5 65.5t-43 79t-15 85q-11 -2 -7.5 9.5zM164 664h4v8h-4v-8zM305 1114h4v8h-4v-8zM594 354h2v8h-2v-8zM733 1790q0 66 27.5 116t56.5 50q18 0 35 -6l35 -11 l342 -122q53 -18 77.5 -33t24.5 -43q0 -47 -20.5 -79t-59.5 -32q-10 0 -27.5 2t-41.5 8l-377 91q-43 10 -57.5 21t-14.5 38zM903 1081h2v9h-2v-9zM1067 1169h4v25h-4v-25z" />
<glyph unicode="&#xfa;" horiz-adv-x="1318" d="M107.5 312.5q3.5 11.5 1.5 21.5q6 137 22 261l33 261l51 434q6 27 9 58.5t12 62.5l-5 4q92 2 183.5 5t181.5 5l-82 -895q4 -23 5 -45t6 -43.5t16.5 -39t36.5 -27.5q27 -2 47 11t32 34q25 123 40.5 243.5t27.5 241.5l27 246q12 123 30 252l4 29l179 4q92 2 190 6l-92 -713 q-18 -139 -40 -280.5t-85 -262.5q-59 -63 -132 -106t-155 -64.5t-168 -18.5t-168 34q-41 14 -77.5 42.5t-64.5 65.5t-43 79t-15 85q-11 -2 -7.5 9.5zM164 664h4v8h-4v-8zM305 1114h4v8h-4v-8zM594 354h2v8h-2v-8zM815 1741q0 29 24.5 43t78.5 33l342 122l34 11q16 6 35 6 q29 0 56.5 -50.5t27.5 -115.5q0 -27 -14.5 -38t-57.5 -21l-376 -91q-25 -6 -42.5 -8t-27.5 -2q-39 0 -59.5 32t-20.5 79zM903 1081h2v9h-2v-9zM1067 1169h4v25h-4v-25z" />
<glyph unicode="&#xfb;" horiz-adv-x="1239" d="M107.5 312.5q3.5 11.5 1.5 21.5q6 137 22 261l33 261l51 434q6 27 9 58.5t12 62.5l-5 4q92 2 183.5 5t181.5 5l-82 -895q4 -23 5 -45t6 -43.5t16.5 -39t36.5 -27.5q27 -2 47 11t32 34q25 123 40.5 243.5t27.5 241.5l27 246q12 123 30 252l4 29l179 4q92 2 190 6l-92 -713 q-18 -139 -40 -280.5t-85 -262.5q-59 -63 -132 -106t-155 -64.5t-168 -18.5t-168 34q-41 14 -77.5 42.5t-64.5 65.5t-43 79t-15 85q-11 -2 -7.5 9.5zM164 664h4v8h-4v-8zM305 1114h4v8h-4v-8zM594 354h2v8h-2v-8zM635 1626q0 10 13.5 26.5l35.5 41.5l209 219 q18 20 41.5 24.5t58.5 4.5h19q35 0 56.5 -2.5t33.5 -8.5t19 -15t16 -24l131 -227q4 -10 10 -17.5t6 -19.5q0 -18 -21.5 -23.5t-64.5 -5.5h-22q-31 0 -50.5 3.5t-29.5 17.5q-12 16 -37 57t-60 113l-77 -94q-35 -41 -66 -68q-25 -20 -47.5 -25.5t-48.5 -5.5h-49 q-37 0 -56.5 9.5t-19.5 19.5zM903 1081h2v9h-2v-9zM1067 1169h4v25h-4v-25z" />
<glyph unicode="&#xfc;" horiz-adv-x="1304" d="M107.5 312.5q3.5 11.5 1.5 21.5q6 137 22 261l33 261l51 434q6 27 9 58.5t12 62.5l-5 4q92 2 183.5 5t181.5 5l-82 -895q4 -23 5 -45t6 -43.5t16.5 -39t36.5 -27.5q27 -2 47 11t32 34q25 123 40.5 243.5t27.5 241.5l27 246q12 123 30 252l4 29l179 4q92 2 190 6l-92 -713 q-18 -139 -40 -280.5t-85 -262.5q-59 -63 -132 -106t-155 -64.5t-168 -18.5t-168 34q-41 14 -77.5 42.5t-64.5 65.5t-43 79t-15 85q-11 -2 -7.5 9.5zM164 664h4v8h-4v-8zM305 1114h4v8h-4v-8zM594 354h2v8h-2v-8zM705 1749q0 66 44 114t107 48q53 0 84 -33t31 -90 q0 -72 -43 -116t-113 -44q-47 0 -78.5 34t-31.5 87zM903 1081h2v9h-2v-9zM1067 1169h4v25h-4v-25zM1133 1749q0 63 44 112.5t107 49.5q53 0 84 -34t31 -91q0 -72 -43 -115t-107 -43q-53 0 -84.5 34t-31.5 87z" />
<glyph unicode="&#xfd;" horiz-adv-x="1349" d="M111 1452q104 16 211.5 14t216.5 2q35 -76 65.5 -158.5t71.5 -156.5l96 158q49 80 94 164q10 -10 20.5 -1t24.5 1l420 8l-237 -410l-248 -403l-35 -535l-8 -100q-109 -10 -217.5 -14.5t-218.5 -6.5l90 807l-312 565zM406 1346l2 -7l6 -4zM487 1087l2 -2l5 9l-2 2z M553 641h2l4 6l-2 2zM672 1137h2l4 6h-4zM680 1741q0 29 24.5 43t77.5 33l342 122l35 11q16 6 35 6q29 0 56.5 -50.5t27.5 -115.5q0 -27 -14.5 -38t-57.5 -21l-377 -91q-25 -6 -42 -8t-27 -2q-39 0 -59.5 32t-20.5 79zM788 639h3l4 6l-4 2z" />
<glyph unicode="&#xff;" horiz-adv-x="1349" d="M111 1452q104 16 211.5 14t216.5 2q35 -76 65.5 -158.5t71.5 -156.5l96 158q49 80 94 164q10 -10 20.5 -1t24.5 1l420 8l-237 -410l-248 -403l-35 -535l-8 -100q-109 -10 -217.5 -14.5t-218.5 -6.5l90 807l-312 565zM406 1346l2 -7l6 -4zM487 1087l2 -2l5 9l-2 2z M553 641h2l4 6l-2 2zM569 1749q0 66 44 114t108 48q53 0 84 -33t31 -90q0 -72 -43 -116t-113 -44q-47 0 -79 34t-32 87zM672 1137h2l4 6h-4zM788 639h3l4 6l-4 2zM997 1749q0 63 44 112.5t108 49.5q53 0 84 -34t31 -91q0 -72 -43 -115t-107 -43q-53 0 -85 34t-32 87z" />
<glyph unicode="&#x131;" horiz-adv-x="815" d="M68 856q0 84 137 152q90 43 192.5 67.5t184.5 24.5q53 0 84.5 -29t31.5 -82q0 -47 -34 -227l-35 -176q-20 -98 -28.5 -156.5t-8.5 -79.5q0 -33 14 -33q16 0 28.5 2.5t22.5 2.5q51 0 52 -66q0 -37 -26 -77t-77 -77q-82 -59 -169 -88.5t-165 -29.5q-190 0 -190 145 q0 37 6 82t16 98l70 340q8 37 12 60.5t4 38.5q0 18 -4 25t-12 10t-21.5 4t-31.5 6q-53 12 -53 63z" />
<glyph unicode="&#x152;" horiz-adv-x="2320" d="M1335 4l12 96l211 1143l33 197l53 4l572 -12l43 2q-10 -82 -25.5 -164t-32.5 -160q-62 -3 -123 -3h-30h-17q-68 0 -137 -7q-12 -57 -20 -113.5t-23 -114.5q2 -6 8.5 -7t14.5 0t15 2t11 -5q8 6 23 6q20 -1 39 0l80 2q40 3 80 3q20 0 40 -1l-30 -149l-31 -154 q-52 -1 -104 -1h-52h-22l-133 -5q-12 -57 -20.5 -116.5t-14.5 -112.5q42 1 80 1t72 -1q23 -1 48 -1q49 0 105 3q-20 -88 -35.5 -170t-34.5 -168q-77 -3 -152 -3q-88 0 -175 4q-126 6 -254 6q-37 -1 -74 -1zM1538 606q-1 -2 -1 -3q0 -5 7 -11q-4 4 -3 8t-3 6zM1730 334l9 4 h-7zM1730 983l6 -4l5 4l-9 4zM1790 864l55 4zM1878 1104l6 -4l2 4l-6 4zM77 239q-5 31 -5 62q0 37 7 76q13 72 38.5 146.5t32.5 144.5l-5 10q23 70 35 147l21 160q12 82 28.5 160t50 144.5t90 117.5t146.5 78q61 18 133 22q17 1 34 1q55 0 109 -10q71 -13 134 -45t108 -83 q45 -84 48 -171q1 -15 1 -29q0 -73 -13 -146q-15 -88 -38.5 -177t-32.5 -175q-8 -80 -24.5 -158t-47 -148.5t-79.5 -132t-119 -104.5q-68 -43 -142.5 -68.5t-149.5 -28.5q-10 0 -19 -1q-65 0 -128 18q-73 20 -136 72q-66 51 -77 118zM213 682l6 -2l2 4l-8 2v-4zM367 977 l8 -6l2 8q-6 2 -10 -2zM453 432q39 0 80.5 14.5t68.5 49.5q47 143 65.5 286.5t45.5 286.5l-4 31q-6 18 -30 20t-42 4q-35 -6 -60 -33q-19 -21 -20 -49q0 -9 2 -18l-55 -299q-28 -146 -51 -293zM524 180l8 -2v4l-8 2v-4zM696 963l9 -2v4l-9 2v-4z" />
<glyph unicode="&#x153;" horiz-adv-x="2320" d="M1335 4l12 96l211 1143l33 197l53 4l572 -12l43 2q-10 -82 -25.5 -164t-32.5 -160q-62 -3 -123 -3h-30h-17q-68 0 -137 -7q-12 -57 -20 -113.5t-23 -114.5q2 -6 8.5 -7t14.5 0t15 2t11 -5q8 6 23 6q20 -1 39 0l80 2q40 3 80 3q20 0 40 -1l-30 -149l-31 -154 q-52 -1 -104 -1h-52h-22l-133 -5q-12 -57 -20.5 -116.5t-14.5 -112.5q42 1 80 1t72 -1q23 -1 48 -1q49 0 105 3q-20 -88 -35.5 -170t-34.5 -168q-77 -3 -152 -3q-88 0 -175 4q-126 6 -254 6q-37 -1 -74 -1zM1538 606q-1 -2 -1 -3q0 -5 7 -11q-4 4 -3 8t-3 6zM1730 334l9 4 h-7zM1730 983l6 -4l5 4l-9 4zM1790 864l55 4zM1878 1104l6 -4l2 4l-6 4zM77 239q-5 31 -5 62q0 37 7 76q13 72 38.5 146.5t32.5 144.5l-5 10q23 70 35 147l21 160q12 82 28.5 160t50 144.5t90 117.5t146.5 78q61 18 133 22q17 1 34 1q55 0 109 -10q71 -13 134 -45t108 -83 q45 -84 48 -171q1 -15 1 -29q0 -73 -13 -146q-15 -88 -38.5 -177t-32.5 -175q-8 -80 -24.5 -158t-47 -148.5t-79.5 -132t-119 -104.5q-68 -43 -142.5 -68.5t-149.5 -28.5q-10 0 -19 -1q-65 0 -128 18q-73 20 -136 72q-66 51 -77 118zM213 682l6 -2l2 4l-8 2v-4zM367 977 l8 -6l2 8q-6 2 -10 -2zM453 432q39 0 80.5 14.5t68.5 49.5q47 143 65.5 286.5t45.5 286.5l-4 31q-6 18 -30 20t-42 4q-35 -6 -60 -33q-19 -21 -20 -49q0 -9 2 -18l-55 -299q-28 -146 -51 -293zM524 180l8 -2v4l-8 2v-4zM696 963l9 -2v4l-9 2v-4z" />
<glyph unicode="&#x178;" horiz-adv-x="1441" d="M111 1452q104 16 211.5 14t216.5 2q35 -76 65.5 -158.5t71.5 -156.5l96 158q49 80 94 164q10 -10 20.5 -1t24.5 1l420 8l-237 -410l-248 -403l-35 -535l-8 -100q-109 -10 -217.5 -14.5t-218.5 -6.5l90 807l-312 565zM406 1346l2 -7l6 -4zM487 1087l2 -2l5 9l-2 2z M553 641h2l4 6l-2 2zM569 1749q0 66 44 114t108 48q53 0 84 -33t31 -90q0 -72 -43 -116t-113 -44q-47 0 -79 34t-32 87zM672 1137h2l4 6h-4zM788 639h3l4 6l-4 2zM997 1749q0 63 44 112.5t108 49.5q53 0 84 -34t31 -91q0 -72 -43 -115t-107 -43q-53 0 -85 34t-32 87z" />
<glyph unicode="&#x2c6;" horiz-adv-x="827" d="M238 1210.5q0 10.5 13 26.5t36 41l209 219q18 20 41.5 24.5t58.5 4.5h18q35 0 56.5 -2t34 -8.5t19.5 -15.5t15 -23l131 -228q4 -10 10.5 -17t6.5 -20q0 -18 -21.5 -23t-64.5 -5h-23q-31 0 -50 3t-30 17q-12 16 -36.5 57.5t-59.5 112.5l-78 -94q-35 -41 -65 -68 q-25 -20 -47.5 -25t-49.5 -5h-49q-37 0 -56 9t-19 19.5z" />
<glyph unicode="&#x2da;" horiz-adv-x="878" d="M373 1460.5q0 59.5 21.5 111.5t60.5 90t90 60.5t110.5 22.5t111.5 -22.5t91 -60.5t61.5 -90t22.5 -111.5t-22.5 -112t-60.5 -91t-90 -60t-114 -21.5q-59 0 -111 21.5t-90 60t-59.5 91t-21.5 112zM543 1460q0 -47 32.5 -80.5t81.5 -33.5q47 0 81 33.5t34 80.5t-33.5 81 t-81 34t-81 -34t-33.5 -81z" />
<glyph unicode="&#x2dc;" horiz-adv-x="974" d="M264 1241q0 16 12.5 56t45.5 92q80 125 176 124q35 0 73 -12l82 -28q43 -16 88 -29.5t95 -13.5q51 0 71.5 19t36.5 56q6 16 14.5 23.5t26.5 7.5q33 0 46 -7t13 -34q0 -43 -19 -89t-53 -85t-79 -63.5t-96 -24.5q-45 0 -89 12t-85 27.5t-81 29t-77 13.5q-41 0 -62.5 -21.5 t-37.5 -60.5q-6 -16 -13.5 -23.5t-29.5 -7.5q-25 0 -41.5 11.5t-16.5 27.5z" />
<glyph unicode="&#x2013;" horiz-adv-x="1097" d="M84 385q0 -4 6 16.5t14 55.5l19 75l16 74q8 35 15.5 57.5t9.5 18.5q2 2 43 3t88 1t88 -1t45 -1h113q82 0 175 2t177 2h113l-31 -151l-31 -152h-92q-66 0 -153 1t-184 1t-184 1t-153.5 0t-93.5 -3z" />
<glyph unicode="&#x2014;" horiz-adv-x="2109" d="M84 385q0 -4 6 16.5t14 55.5l19 75l16 74q8 35 15.5 57.5t9.5 18.5q2 2 57 2t145.5 -1t204 -3t233.5 -3t234.5 -3t204.5 -3t145.5 -2t57.5 -1h113q82 0 175 2t175 2h114q-16 -76 -30 -152l-31 -151q-18 0 -105.5 1t-216.5 2t-288 3l-328 4l-328 4q-160 2 -290 3t-216 1 t-106 -2z" />
<glyph unicode="&#x2018;" horiz-adv-x="552" d="M59 1153l35 197l70 133l106 14l76 -8l-49 -236h96q47 0 96 2l-8 -221h-6q0 -27 -2 -54.5t-6 -51.5q-96 -14 -185 -12t-190 -9l4 51z" />
<glyph unicode="&#x2019;" horiz-adv-x="557" d="M70 1118l8 221h6q0 27 2 53.5t6 53.5q96 14 185.5 11t189.5 9l-4 -51l37 -194l-35 -197l-70 -133l-106 -14l-76 8l49 235q-47 -2 -94 -2h-98z" />
<glyph unicode="&#x201a;" horiz-adv-x="579" d="M0 238q0 47 17.5 88t49 71.5t74.5 48t92 17.5q102 0 165 -73t63 -202q0 -213 -168 -411q-55 -63 -102.5 -95t-77.5 -32q-14 0 -33 9t-35 24.5t-27.5 35t-11.5 37.5q0 10 6 15.5t15 15.5l43 47q47 49 67.5 93t20.5 61q0 23 -12.5 32l-30.5 21q-59 39 -87 84t-28 113z" />
<glyph unicode="&#x201c;" horiz-adv-x="1077" d="M94 907l4 51l-2 207l27 178l43 140l98 -10l76 -9l-41 -211q47 0 85 -14t87 -12l12 -193h-4q0 -27 -2 -54.5t-8 -51.5q-96 -14 -185.5 -12.5t-189.5 -8.5zM578 1153l34 197l70 133l106 14l76 -8l-49 -236h94q49 0 99 2l-9 -221h-4q0 -27 -2 -54.5t-8 -51.5 q-96 -14 -185 -12t-190 -9l4 51z" />
<glyph unicode="&#x201d;" horiz-adv-x="1112" d="M70 1118l8 221h6q0 27 2 53.5t6 53.5q96 14 185.5 11t189.5 9l-4 -51l37 -194l-35 -197l-70 -133l-106 -14l-76 8l49 235q-47 -2 -94 -2h-98zM594 1339h6q0 27 2 53.5t6 53.5q96 14 185.5 11t189.5 9l-4 -51l2 -207l-27 -178l-43 -139l-98 10l-76 8l41 211 q-47 -2 -85 13.5t-87 13.5z" />
<glyph unicode="&#x201e;" horiz-adv-x="1138" d="M0 238q0 47 17.5 88t48 71.5t73.5 48t92 17.5q102 0 166 -73t64 -202q0 -211 -170 -411q-55 -63 -102.5 -95t-77.5 -32q-14 0 -33 9t-34 24.5t-26.5 35t-11.5 37.5q0 10 5 15.5l14 15.5l45 47q47 49 66.5 93t19.5 61q0 23 -12.5 32l-30.5 21q-59 39 -86 84t-27 113z M559 238q0 47 17.5 88t49 71.5t74.5 48t93 17.5q102 0 164.5 -73t62.5 -202q0 -217 -168 -411q-55 -63 -102.5 -95t-77.5 -32q-14 0 -32.5 9t-35 24.5t-28 35t-11.5 37.5q0 10 6.5 15.5t14.5 15.5l43 47q47 49 67.5 93t20.5 61q0 23 -12.5 32l-30.5 21q-59 39 -87 84 t-28 113z" />
<glyph unicode="&#x2022;" horiz-adv-x="927" d="M307 761.5q0 61.5 23.5 115t63.5 93.5t94.5 63.5t116 23.5t114.5 -23.5t93 -63.5t63.5 -93.5t23.5 -115t-23.5 -114.5t-63.5 -94t-94 -64.5t-115.5 -23.5t-116 23.5t-94.5 63.5t-62.5 94t-22.5 115.5z" />
<glyph unicode="&#x2026;" horiz-adv-x="2035" d="M63 215q0 51 19.5 96t52.5 78t78 52.5t96 19.5t96.5 -19.5t78 -52.5t51 -78t18.5 -96t-18.5 -96t-51 -78t-78 -51.5t-96.5 -18.5t-96 18.5t-78 51.5t-52.5 78t-19.5 96zM745 215q0 51 19.5 96t52.5 78t78 52.5t96 19.5t96.5 -19.5t78 -52.5t51 -78t18.5 -96t-18.5 -96 t-51 -78t-78 -51.5t-96.5 -18.5t-96 18.5t-78 51.5t-52.5 78t-19.5 96zM1430 215q0 51 19 96t52 78t78 52.5t96 19.5t96.5 -19.5t78 -52.5t51 -78t18.5 -96t-18.5 -96t-51 -78t-78 -51.5t-96.5 -18.5t-96 18.5t-78 51.5t-52 78t-19 96z" />
<glyph unicode="&#x2039;" horiz-adv-x="565" d="M37 539q0 37 53 100t154 168q94 98 152.5 149.5t99.5 51.5q35 0 54 -19.5t19 -54.5q0 -72 -149 -262q-43 -55 -69.5 -86t-26.5 -47q0 -10 16 -43l45 -95q43 -90 63.5 -150.5t20.5 -88.5q0 -41 -21.5 -65.5t-54.5 -24.5q-41 0 -81 46t-103 126q-90 117 -131 191.5 t-41 103.5z" />
<glyph unicode="&#x203a;" horiz-adv-x="604" d="M27 145q0 74 147 263q43 55 70.5 85.5t27.5 47.5q0 10 -18 43l-45 94q-43 90 -62.5 151.5t-19.5 90.5q0 41 20.5 64.5t53.5 23.5q41 0 81 -46.5l103 -125.5q90 -117 132 -192t42 -103q0 -37 -53 -99.5t-154 -167.5q-94 -98 -153.5 -150t-100.5 -52q-35 0 -53 19t-18 54z " />
<glyph unicode="&#x2122;" horiz-adv-x="1404" d="M207 1262l12 206h461l12 -206h-39q-6 74 -33.5 112.5t-84.5 40.5v-416q0 -41 24 -47l31 -8v-37h-281v37l33 8q25 6 25 47v416q-109 0 -121 -153h-39zM731 907v37l35 8q31 6 31 47v377q0 41 -31 47l-35 9v36h236l120 -342l111 342h221v-28l-20 -8q-18 -8 -23.5 -16.5 t-5.5 -31.5v-385q0 -23 5 -30.5t24 -16.5l20 -8v-37h-268v37l31 8q29 8 28 47v340l-135 -432h-53l-162 447v-355q0 -41 29 -47l37 -8v-37h-195z" />
<glyph unicode="&#xe000;" horiz-adv-x="1495" d="M0 1495h1495v-1495h-1495v1495z" />
<glyph unicode="&#xfb01;" horiz-adv-x="1581" d="M10 -258q0 37 18.5 57.5t34.5 40.5q20 29 35 70t29 96q33 139 53.5 251t30.5 193.5t14 130t4 60.5q0 16 -3 19.5t-19 3.5h-84h-29q-27 0 -36 4t-9 28v13l10 147q4 41 14.5 49t51.5 8h86q14 0 14 11q0 18 -17.5 31.5t-35.5 35.5q-57 66 -57 172q0 76 33.5 144.5t94 120 t142.5 82t180 30.5q139 0 215 -67.5t76 -174.5q0 -86 -52 -138t-126 -52q-82 0 -158 74q-23 23 -40 44t-46 21q-23 0 -37 -16.5t-14 -40.5q0 -45 49 -78q33 -23 82 -30t94 -33q35 -20 51.5 -44t27.5 -44.5t20.5 -34t31.5 -13.5h23q20 0 32.5 1t16.5 1q29 0 29 -28 q0 -4 -1 -10.5t-1 -12.5l-15 -164q0 -8 -1 -12t-1 -6q0 -18 -17.5 -24.5t-47.5 -6.5h-29q-20 0 -26.5 -15t-10.5 -44q-31 -180 -52.5 -338t-31.5 -293q-4 -43 -5 -80t-5 -67.5t-14.5 -55t-30.5 -43.5q-25 -23 -60.5 -42t-77.5 -34.5t-87 -24.5t-88 -9q-109 0 -168.5 39 t-59.5 98zM889 801q0 82 139 149q94 47 190.5 69.5t165.5 22.5q129 0 129 -110q0 -27 -9 -84t-25 -143l-33 -177q-12 -66 -21.5 -109.5t-9.5 -68.5q0 -33 16.5 -33t29 2.5t22.5 2.5q51 0 51 -66q0 -78 -104 -154q-82 -59 -168 -88.5t-162 -29.5q-186 0 -187 145q0 35 5.5 79 t17.5 101l61 283q14 59 15 98q0 18 -4 25.5t-11.5 10.5t-20.5 4t-32 5q-25 6 -40 24.5t-15 41.5zM967 1253q0 94 135 172q61 35 133 54.5t133 19.5q92 0 144.5 -34.5t52.5 -86.5q0 -43 -32 -88t-87 -79.5t-131 -57.5t-164 -23q-86 0 -135 35t-49 88z" />
<glyph unicode="&#xfb02;" horiz-adv-x="1628" d="M10 -258q0 37 18.5 57.5t34.5 40.5q20 29 35 70t29 96q33 139 53.5 251t30.5 193.5t14 130t4 60.5q0 16 -3 19.5t-19 3.5h-84h-29q-27 0 -36 4t-9 28v13l10 147q4 41 14.5 49t51.5 8h86q14 0 14 11q0 18 -17.5 31.5t-35.5 35.5q-57 66 -57 172q0 76 33.5 144.5t94 120 t142.5 82t180 30.5q139 0 215 -67.5t76 -174.5q0 -86 -52 -138t-126 -52q-82 0 -158 74q-23 23 -40 44t-46 21q-23 0 -37 -16.5t-14 -40.5q0 -45 49 -78q33 -23 82 -30t94 -33q35 -20 51.5 -44t27.5 -44.5t20.5 -34t31.5 -13.5h23q20 0 32.5 1t16.5 1q29 0 29 -28 q0 -4 -1 -10.5t-1 -12.5l-15 -164q0 -8 -1 -12t-1 -6q0 -18 -17.5 -24.5t-47.5 -6.5h-29q-20 0 -26.5 -15t-10.5 -44q-31 -180 -52.5 -338t-31.5 -293q-4 -43 -5 -80t-5 -67.5t-14.5 -55t-30.5 -43.5q-25 -23 -60.5 -42t-77.5 -34.5t-87 -24.5t-88 -9q-109 0 -168.5 39 t-59.5 98zM901 143q0 10 1 22.5t3 24.5l23 160q8 53 28.5 173t49.5 313l41 272q6 41 10 65.5t4 32.5q0 39 -35 39q-12 0 -23.5 -4t-23.5 -4q-59 0 -59 63q0 55 29.5 88t94.5 62q88 41 187.5 61.5t191.5 20.5q57 0 84 -19.5t27 -66.5q0 -18 -6 -76l-23 -209 q-12 -111 -29.5 -240.5t-41.5 -279.5l-33 -203q-6 -41 -6 -61q0 -29 8 -41t31 -12q12 0 24 4t23 4q53 0 53 -64q0 -98 -117 -178q-78 -53 -160.5 -81.5t-162.5 -28.5q-193 -1 -193 163z" />
<glyph unicode="&#xfb03;" horiz-adv-x="2942" d="M2317 25q6 86 13 175t25 171l-4 24l113 977h4q0 23 2 48.5t6 47.5q86 12 177.5 15.5t183.5 13.5q-4 -98 -17 -197l-24 -198l-131 -1063l-174 -8q-88 -4 -174 -6zM2538 688l10 -8l2 4l-10 8zM2632 496l6 -4l2 2l-6 6zM1235 -55q12 166 33 336l37 344l41 401 q10 104 16 200.5t23 205.5l489 20l219 12l4 -10l-32 -336l-164 -12q-84 -6 -166 -10q-8 -45 -13 -97l-8 -102q20 -1 40 -1q45 0 92 6q69 9 135 13l4 -4q10 4 26.5 7.5t32.5 3.5q-8 -86 -13 -172t-12 -168l-346 -29l-53 -451l-14 -125q-94 -4 -186.5 -13t-184.5 -19zM1534 6 l4 -2l2 8l-4 2zM1557 258l4 -2l2 8h-4zM1575 82l4 -2l2 8l-4 2zM1598 0h6l2 6l-6 2zM1622 1432h4l2 8h-4zM1624 1321q4 -3 8 -3q2 0 3 1q5 2 8 4q-4 2 -10.5 3t-8.5 -5zM2030 1368h2l4 8h-4zM131 -55q12 166 33 336l37 344l41 401q10 104 16 200.5t23 205.5l489 20l219 12 l4 -10l-32 -336l-164 -12q-84 -6 -166 -10q-8 -45 -13 -97l-8 -102q20 -1 40 -1q45 0 92 6q69 9 135 13l4 -4q10 4 26.5 7.5t32.5 3.5q-8 -86 -13 -172t-12 -168l-346 -29l-53 -451l-14 -125q-94 -4 -186.5 -13t-184.5 -19zM430 6l4 -2l2 8l-4 2zM453 258l4 -2l2 8h-4z M471 82l4 -2l2 8l-4 2zM494 0h6l2 6l-6 2zM518 1432h4l2 8h-4zM520 1321q4 -3 8 -3q2 0 3 1q5 2 8 4q-4 2 -10.5 3t-8.5 -5zM926 1368h2l4 8h-4z" />
<glyph unicode="&#xfb04;" horiz-adv-x="3207" d="M2298 41l21 127l75 418l25 141l27 147h4q23 143 53 304l57 303q11 -1 22 -1q22 0 43 3q32 4 60 -6q10 8 29 10q6 1 12 1q12 0 23 -3q61 0 117 2q19 1 38 1q37 0 72 -3l-182 -1049l8 -8q72 4 153.5 4t159.5 8q-14 -98 -35.5 -190t-40.5 -189q-193 -4 -372 -10t-369 -10z M2376 268h2l2 8h-4v-8zM2478 739h2l2 9h-4v-9zM2714 809h4v8l-4 2v-10zM1235 -55q12 166 33 336l37 344l41 401q10 104 16 200.5t23 205.5l489 20l219 12l4 -10l-32 -336l-164 -12q-84 -6 -166 -10q-8 -45 -13 -97l-8 -102q20 -1 40 -1q45 0 92 6q69 9 135 13l4 -4 q10 4 26.5 7.5t32.5 3.5q-8 -86 -13 -172t-12 -168l-346 -29l-53 -451l-14 -125q-94 -4 -186.5 -13t-184.5 -19zM1534 6l4 -2l2 8l-4 2zM1557 258l4 -2l2 8h-4zM1575 82l4 -2l2 8l-4 2zM1598 0h6l2 6l-6 2zM1622 1432h4l2 8h-4zM1624 1321q4 -3 8 -3q2 0 3 1q5 2 8 4 q-4 2 -10.5 3t-8.5 -5zM2030 1368h2l4 8h-4zM131 -55q12 166 33 336l37 344l41 401q10 104 16 200.5t23 205.5l489 20l219 12l4 -10l-32 -336l-164 -12q-84 -6 -166 -10q-8 -45 -13 -97l-8 -102q20 -1 40 -1q45 0 92 6q69 9 135 13l4 -4q10 4 26.5 7.5t32.5 3.5 q-8 -86 -13 -172t-12 -168l-346 -29l-53 -451l-14 -125q-94 -4 -186.5 -13t-184.5 -19zM430 6l4 -2l2 8l-4 2zM453 258l4 -2l2 8h-4zM471 82l4 -2l2 8l-4 2zM494 0h6l2 6l-6 2zM518 1432h4l2 8h-4zM520 1321q4 -3 8 -3q2 0 3 1q5 2 8 4q-4 2 -10.5 3t-8.5 -5zM926 1368h2 l4 8h-4z" />
</font>
</defs>
</svg>
