<?xml version="1.0" standalone="no"?>
<!DOCTYPE svg PUBLIC "-//W3C//DTD SVG 1.1//EN" "http://www.w3.org/Graphics/SVG/1.1/DTD/svg11.dtd" >
<svg xmlns="http://www.w3.org/2000/svg">
<metadata>
This is a custom SVG webfont generated by Font Squirrel.
Copyright   : Libertinage is based on Linux LibertineIt was designed by OSP Harrisson and Ludivine Loiseau in August 2008 It is based on Linux LibertineLinux Libertine by Philipp H Poll Open Font under Terms of following Free Software LicensesGPL General Public License and OFL Open Font LicenseCreated with FontForge 10 httpfontforgesfnet Sept 2003 2004 2005 2006 2007
Designer    : OSP
Foundry     : OSP
Foundry URL : httpopenfontlibraryorg
</metadata>
<defs>
<font id="LibertinageFull" horiz-adv-x="899" >
<font-face units-per-em="2048" ascent="1638" descent="-410" />
<missing-glyph horiz-adv-x="512" />
<glyph unicode=" "  horiz-adv-x="512" />
<glyph unicode="&#x09;" horiz-adv-x="512" />
<glyph unicode="&#xa0;" horiz-adv-x="512" />
<glyph unicode="!" horiz-adv-x="466" d="M120 1198q0 75 35 112t77 37q46 0 80 -38.5t34 -110.5q0 -76 -23 -207t-30 -189q-11 -97 -18.5 -182t-10 -134.5t-3.5 -54.5q-3 -41 -29 -41q-27 0 -29 26q0 1 -10.5 146t-20.5 240q-7 72 -29.5 194t-22.5 202zM122 84q0 45 32 77t77 32t77 -32t32 -77t-32 -77t-77 -32 t-77 32t-32 77z" />
<glyph unicode="&#x22;" horiz-adv-x="690" d="M128 1217q0 36 30.5 69t74.5 33q37 0 54 -20t17 -48q0 -14 -17 -107t-33 -178l-17 -86l-55 -7q-54 325 -54 344zM387 1219q0 36 30.5 69t74.5 33q37 0 54 -20t17 -48q0 -14 -16.5 -107t-33.5 -178l-17 -86l-55 -7q-54 325 -54 344z" />
<glyph unicode="#" d="M49 374l15 100h186l35 225h-185l16 100h185l55 347h69l-57 -347h227l54 347h68l-55 -347h185l-15 -100h-185l-37 -225h185l-14 -100h-184l-57 -348h-67l54 348h-224l-57 -348h-67l54 348h-184zM317 474h227l35 225h-225z" />
<glyph unicode="$" d="M83 299l55 6q26 -101 95.5 -175.5t169.5 -85.5v497q-32 14 -56 25.5t-58.5 31.5t-59.5 39.5t-52.5 47t-44.5 57t-28.5 67.5t-11.5 80q0 51 19.5 95.5t51 76t72.5 55t83.5 36.5t84.5 17v115h70v-113q47 -2 123.5 -9t114.5 -7q4 -76 41 -293l-53 -8l-11 37 q-31 103 -81.5 156t-133.5 61v-437q31 -12 56 -23t62.5 -30.5t66.5 -39t60.5 -48t52 -58.5t34 -70t13.5 -83q0 -19 -1.5 -39t-9.5 -54.5t-21.5 -64t-39.5 -63.5t-61 -58.5t-90 -42t-122 -21.5v-141h-70v141q-63 4 -133 24t-84 20q-15 0 -31 -11t-39 -11q0 80 -33 301z M223 897q0 -114 180 -197v407q-77 -12 -128.5 -68t-51.5 -142zM473 45q34 5 65.5 18t63 37t50 65.5t18.5 94.5q0 47 -13 86.5t-32 64.5t-47.5 46.5t-51.5 33t-53 22.5v-468z" />
<glyph unicode="%" horiz-adv-x="1305" d="M120 844q0 78 36 153.5t99 124t135 48.5q40 0 79.5 -16t56.5 -35q110 -52 219 -52q83 0 174 26.5t133 84.5l65 -33l-832 -1161l-68 31l727 1015q-99 -39 -218 -39q-36 0 -86 13.5t-79 30.5q6 -24 6 -52q0 -41 -10.5 -88.5t-32.5 -96t-52 -88t-73.5 -64.5t-92.5 -25 q-89 0 -137.5 67.5t-48.5 155.5zM225 815q0 -71 29 -103t64 -32q53 0 97 51.5t66.5 119.5t22.5 130q0 68 -28.5 96t-64.5 28q-47 0 -91 -48t-69.5 -115t-25.5 -127zM779 200q0 77 35.5 151.5t98.5 123.5t136 49q34 0 63 -8.5t55.5 -28t42 -58t15.5 -91.5q0 -54 -17.5 -115.5 t-49 -117.5t-83 -93t-111.5 -37q-88 0 -136.5 68t-48.5 157zM884 170q0 -71 28.5 -103.5t63.5 -32.5q53 0 98 52.5t67 120.5t22 128q0 70 -29.5 97.5t-62.5 27.5q-47 0 -91.5 -48t-70 -115t-25.5 -127z" />
<glyph unicode="&#x26;" horiz-adv-x="1444" d="M91 319q0 123 87.5 230t287.5 220q-101 175 -101 290q0 99 84.5 179.5t228.5 80.5q110 0 184.5 -60t74.5 -155q0 -81 -84.5 -173.5t-218.5 -171.5l9 -15q58 -100 249 -361q209 308 209 396q0 32 -32 32h-58q-10 1 -10 14v35l3 5q108 -4 177 -4l179 4l4 -5v-33 q-1 -16 -19 -16h-57q-45 0 -77.5 -39t-93.5 -153q-94 -180 -174 -306l69 -93q46 -64 88.5 -99t68.5 -35q52 0 89 27t68 88l31 -16q-33 -103 -88 -156.5t-112 -53.5q-29 0 -51 4t-53 16.5t-64 43t-67 77.5l-59 77q-79 -106 -169 -162t-212 -56q-177 0 -284 83.5t-107 260.5z M252 320q0 -142 68.5 -209t175.5 -67q53 0 95 13.5t80.5 45.5t67 66t71.5 94q-85 113 -183 255t-114 175q-150 -83 -205.5 -169.5t-55.5 -203.5zM512 1063q0 -72 77 -222q98 65 155 136t57 127q0 70 -35 108t-98 38q-51 0 -103.5 -48.5t-52.5 -138.5z" />
<glyph unicode="'" horiz-adv-x="391" d="M108 1217q0 36 30.5 69t74.5 33q37 0 54 -20t17 -48q0 -14 -16.5 -107t-33.5 -178l-17 -86l-55 -7q-54 325 -54 344z" />
<glyph unicode="(" horiz-adv-x="606" d="M90 516q0 275 121 521.5t314 410.5l36 -36q-33 -37 -59 -70.5t-77.5 -121t-86 -178.5t-62 -232.5t-27.5 -293.5q0 -128 17.5 -246.5t49 -210.5t63 -164t72.5 -132.5t62.5 -88t47.5 -57.5l-36 -34q-87 75 -158 163t-115 166t-76.5 164t-48.5 149t-25 130.5t-10.5 98.5 t-1.5 62z" />
<glyph unicode=")" horiz-adv-x="606" d="M45 -380q33 37 59 70.5t77.5 121t86 178.5t62 232.5t27.5 293.5q0 128 -17.5 246.5t-49 210.5t-63 164t-72.5 132.5t-62.5 88t-47.5 57.5l36 34q87 -75 158 -163t115 -166t76.5 -164t48.5 -149t25 -130.5t10.5 -98.5t1.5 -62q0 -275 -121 -521.5t-314 -410.5z" />
<glyph unicode="*" horiz-adv-x="887" d="M153 1246q0 24 17.5 42.5t50.5 18.5q30 0 58.5 -17.5t65.5 -45t73 -42.5q-4 42 -26 102t-22 86q0 34 18 57t45 23q29 0 48 -18t19 -53q0 -29 -19 -99.5t-21 -98.5q37 16 74 43.5t64.5 44.5t57.5 17q36 0 52 -20t16 -41q0 -75 -140 -75q-58 0 -112 -9q25 -27 71.5 -58 t72.5 -57t26 -62q0 -27 -18.5 -44t-41.5 -17q-36 0 -59.5 33t-46.5 94t-39 87q-16 -28 -40.5 -91t-46.5 -93t-57 -30q-25 0 -42.5 17.5t-17.5 41.5q0 39 26.5 65.5t74 56.5t72.5 58q-38 7 -87 7q-82 0 -124 16.5t-42 60.5z" />
<glyph unicode="+" horiz-adv-x="1080" d="M135 424v101h355v356h101v-356h354v-101h-354v-354h-101v354h-355z" />
<glyph unicode="," horiz-adv-x="450" d="M104 90q0 44 31 74t79 30q60 0 97 -55.5t37 -147.5q0 -101 -62.5 -158t-162.5 -75l-11 52q75 18 116 56t41 74q0 23 -11.5 36t-25.5 17.5t-37 7.5q-91 15 -91 89z" />
<glyph unicode="-" horiz-adv-x="682" d="M68 518q0 25 16.5 50t34.5 25h468q29 0 29 -35q0 -20 -18 -47.5t-36 -27.5h-464q-14 0 -22 10.5t-8 24.5z" />
<glyph unicode="." horiz-adv-x="450" d="M116 84q0 45 32 77t77 32t77 -32t32 -77t-32 -77t-77 -32t-77 32t-32 77z" />
<glyph unicode="/" horiz-adv-x="598" d="M8 -44l485 1440h85l-485 -1440h-85z" />
<glyph unicode="0" d="M74 570q0 275 111.5 444.5t262.5 169.5q65 0 127.5 -37t109.5 -99q131 -173 131 -460q0 -131 -25 -238t-64 -175t-90 -114.5t-100 -66t-97 -19.5q-106 0 -191 83t-130 218.5t-45 293.5zM231 548q0 -58 4.5 -117.5t18.5 -132t36 -127t61.5 -91.5t90.5 -37q17 0 37 6.5 t47.5 24t52 56.5t39.5 95q42 147 42 400q0 179 -37 295.5t-88 161.5q-34 30 -87 30q-29 0 -56 -12t-57.5 -49t-52.5 -96.5t-36.5 -164.5t-14.5 -242z" />
<glyph unicode="1" d="M187 984q126 58 196.5 99t154.5 101h39v-1030q0 -57 14 -76t64 -19h107q17 0 17 -17v-44l-281 4l-284 -4v45q2 16 16 16h122q28 0 44.5 5.5t23.5 20.5t8.5 28t1.5 41v704q0 34 -1 49.5t-5 35t-13.5 27t-26.5 7.5q-26 0 -80 -19t-93 -39z" />
<glyph unicode="2" d="M116 0q0 65 11.5 112t59 119.5t138.5 166.5l144 140q86 89 124 169t38 173q0 66 -20.5 115.5t-52.5 75t-63.5 37.5t-60.5 12q-50 0 -87.5 -12t-56.5 -31.5t-27.5 -39.5t-8.5 -40t9 -47q8 -28 8 -44q0 -37 -23 -55.5t-52 -18.5q-33 0 -55.5 22t-22.5 54q0 45 22 92.5 t61.5 89t104 68t141.5 26.5q51 0 96.5 -8t91.5 -28.5t79 -52.5t53.5 -85.5t20.5 -121.5q0 -45 -10.5 -85t-23.5 -68.5t-42.5 -65t-50 -57.5t-63.5 -63l-194 -189q-12 -12 -28.5 -31t-47.5 -57t-51 -80t-20 -74h347q53 0 83 32.5t52 115.5l52 -8l-41 -258h-634z" />
<glyph unicode="3" d="M91 105q0 24 21 45t50 21q43 0 75 -48q17 -24 30.5 -39t48 -30.5t79.5 -15.5q23 0 53 8.5t67.5 32t67.5 58.5t51 94.5t21 132.5q0 63 -17.5 110.5t-43.5 74t-63 43t-69.5 21.5t-69.5 5q-27 0 -64 -8l-9 61q113 19 201.5 109t88.5 167q0 82 -49.5 128t-116.5 46 q-23 0 -53.5 -7t-66 -22.5t-59 -48t-23.5 -76.5q0 -37 -16 -68.5t-53 -31.5q-24 0 -38 16.5t-16.5 28t-2.5 19.5q0 22 10.5 51.5t37.5 65.5t66.5 66t106 50t147.5 20q70 0 123 -20.5t81 -53t41 -66.5t13 -68q0 -142 -201 -269q47 -7 91 -27.5t85 -56.5t65.5 -95.5 t24.5 -135.5q0 -131 -61.5 -227.5t-159 -143t-215.5 -46.5q-60 0 -123.5 15.5t-109.5 46.5t-46 68z" />
<glyph unicode="4" d="M66 396q0 3 3 6q89 98 229.5 352.5t213.5 418.5q4 11 15 11q2 0 29 -10t41 -12q-118 -317 -393 -753h325v318q0 29 19 41q51 34 90 34q19 0 24 -13.5t5 -49.5v-330h166l-12 -95h-154v-170q0 -48 13 -67.5t56 -19.5h54q15 0 15 -15v-44q-132 4 -217 4l-199 -4v45 q0 14 14 14h56q45 0 57.5 18.5t12.5 67.5v171h-403q-9 0 -17 11l-17 23l-25 43q-1 1 -1 5z" />
<glyph unicode="5" d="M103 121q0 28 20.5 46.5t49.5 18.5q28 0 47.5 -15.5t44.5 -47.5q19 -24 32.5 -37.5t39.5 -27t56 -13.5q101 0 170.5 85t69.5 216q0 151 -69.5 233.5t-171.5 82.5q-133 0 -247 -47l66 559q100 -9 209 -9q158 0 320 19l12 -6l-31 -134q-114 -10 -203 -10q-98 0 -234 17 l-38 -323q81 30 196 30q104 0 183.5 -55.5t117.5 -140.5t38 -182q0 -173 -110 -289t-281 -116q-95 0 -191 44.5t-96 101.5z" />
<glyph unicode="6" d="M94 471q0 307 204 514q98 99 208 145t263 54l6 -53q-109 -11 -193 -43t-154 -101q-149 -146 -185 -393q34 42 106 71.5t132 29.5q86 0 151.5 -27.5t100.5 -66t57 -89.5t28 -88.5t6 -72.5q0 -46 -9 -93.5t-34 -99.5t-63 -91.5t-101.5 -65.5t-144.5 -26q-50 0 -97.5 12 t-100 46t-91.5 87t-64 143.5t-25 207.5zM235 464q0 -99 17 -176.5t43.5 -123.5t62 -76.5t68 -41.5t66.5 -11q79 0 136.5 75.5t57.5 224.5q0 42 -11.5 88t-37 94.5t-76.5 79.5t-120 31q-117 0 -204 -92q-2 -40 -2 -72z" />
<glyph unicode="7" d="M95 907q43 152 50 277h43q6 -13 17 -17.5t44 -4.5h391q109 0 149 11l31 -13q-253 -614 -444 -1178l-132 -7l-6 13q187 422 437 1053h-368q-65 0 -96.5 -30t-62.5 -111z" />
<glyph unicode="8" d="M91 282q0 137 111 235q85 73 142 115l-34 21q-91 56 -134.5 119t-43.5 144q0 114 93.5 191t239.5 77q139 0 220.5 -68.5t81.5 -175.5q0 -44 -21.5 -86.5t-61.5 -80.5t-70 -61t-73 -52l119 -78q150 -98 150 -268q0 -58 -23.5 -116t-67.5 -109t-117.5 -82.5t-164.5 -31.5 q-157 0 -251.5 80.5t-94.5 226.5zM210 282q0 -61 23.5 -111t59 -79t74.5 -44.5t74 -15.5q29 0 59 6.5t63.5 23.5t59 43t42.5 70t17 99q0 150 -179 259l-90 55q-109 -74 -156 -160t-47 -146zM262 952q0 -115 148 -210l59 -38q179 132 179 238q0 74 -52.5 133t-141.5 59 q-84 0 -138 -55.5t-54 -126.5z" />
<glyph unicode="9" d="M66 808q0 46 9 93.5t34 99.5t63 91.5t101.5 65.5t144.5 26q50 0 97.5 -12t100 -46t91.5 -87t64 -143.5t25 -207.5q0 -307 -204 -514q-98 -99 -208 -145t-263 -54l-6 53q109 11 193 43t154 101q149 146 185 393q-34 -42 -106 -71.5t-132 -29.5q-86 0 -151.5 27.5 t-100.5 66t-57 89.5t-28 88.5t-6 72.5zM204 824q0 -42 11.5 -88t37 -94.5t76.5 -79.5t120 -31q117 0 204 92q2 40 2 72q0 99 -17 176.5t-43.5 123.5t-62 76.5t-68 41.5t-66.5 11q-79 0 -136.5 -75.5t-57.5 -224.5z" />
<glyph unicode=":" horiz-adv-x="450" d="M132 185q0 45 32 77t77 32t77 -32t32 -77t-32 -77t-77 -32t-77 32t-32 77zM132 723q0 45 32 77t77 32t77 -32t32 -77t-32 -77t-77 -32t-77 32t-32 77z" />
<glyph unicode=";" horiz-adv-x="450" d="M106 90q0 44 31 74t79 30q60 0 97 -55.5t37 -147.5q0 -101 -62.5 -158t-162.5 -75l-11 52q75 18 116 56t41 74q0 23 -11.5 36t-25.5 17.5t-37 7.5q-91 15 -91 89zM112 723q0 45 32 77t77 32t77 -32t32 -77t-32 -77t-77 -32t-77 32t-32 77z" />
<glyph unicode="&#x3c;" horiz-adv-x="999" d="M100 441v97l799 290v-102l-649 -237l649 -237v-102z" />
<glyph unicode="=" horiz-adv-x="1080" d="M135 294v101h810v-101h-810zM135 551v101h810v-101h-810z" />
<glyph unicode="&#x3e;" horiz-adv-x="999" d="M100 145v102l649 237l-649 237v102l799 -291v-97z" />
<glyph unicode="?" horiz-adv-x="831" d="M60 1085q0 100 103 185q95 79 254 79q156 0 247 -84t91 -224q0 -47 -14.5 -90t-33 -73t-52 -63t-56 -50.5t-60.5 -45.5q-86 -63 -107 -102q-37 -70 -37 -150v-90q0 -21 -27 -21q-25 0 -25 21v94q0 34 1.5 57t8.5 61.5t20.5 69t40.5 69t65 73.5q66 60 95 111.5t29 120.5 q0 102 -59.5 179t-146.5 77q-85 0 -142 -35.5t-57 -82.5q0 -35 13 -53t13 -49q0 -33 -24.5 -52.5t-56.5 -19.5t-57.5 20t-25.5 68zM260 84q0 45 32 77t77 32t77 -32t32 -77t-32 -77t-77 -32t-77 32t-32 77z" />
<glyph unicode="@" horiz-adv-x="1833" d="M120 457q0 162 67 309.5t180 254t268.5 169t325.5 62.5q162 0 303 -52t240.5 -141.5t156.5 -214.5t57 -267q0 -74 -18 -144t-62 -139.5t-109 -121.5t-168.5 -84t-231.5 -32q-40 0 -57 26t-17 58q0 35 31 128l-5 2q-62 -105 -137 -157.5t-135 -52.5q-58 0 -104 19 t-72.5 46.5t-44 63.5t-23.5 66.5t-6 57.5q0 106 44 205.5t113 169t154 111t166 41.5q52 0 97.5 -24.5t60.5 -63.5l10 49l108 26l31 -10l-122 -529q-27 -122 -27 -136q0 -13 8 -18.5t14 -5.5q83 0 142.5 20.5t105.5 69.5t69 135t23 211q0 122 -39.5 226.5t-103.5 176.5 t-145.5 123.5t-165 75.5t-162.5 24q-96 0 -188 -25.5t-177 -81t-149 -135t-102.5 -197t-38.5 -258.5q0 -69 10 -138.5t33.5 -144.5t59 -141.5t90.5 -127t123.5 -104t163 -69t203.5 -25.5q238 0 412 136l27 -37q-71 -54 -128.5 -86t-148.5 -56t-201 -24q-179 0 -331.5 60.5 t-256.5 165.5t-162.5 248.5t-58.5 306.5zM709 332q0 -188 160 -188q53 0 120 76.5t115 188.5q62 149 62 239q0 56 -39 92t-95 36q-35 0 -89 -20t-96 -62q-138 -138 -138 -362z" />
<glyph unicode="A" horiz-adv-x="1280" d="M5 4v38q0 17 16 17q65 0 97.5 18.5t52.5 70.5l431 1154q18 47 50 47q31 0 48 -48l403 -1149q20 -57 55.5 -75t93.5 -18q17 0 17 -17v-38l-4 -4q-159 4 -239 4l-255 -4l-4 4v38q0 17 16 17h55q100 0 100 52q0 12 -9 41l-66 192h-458q-36 0 -52 -8.5t-23 -27.5l-60 -160 q-15 -38 -15 -54q0 -22 27 -28.5t86 -6.5h36q17 0 17 -17v-38l-4 -4q-149 4 -229 4l-149 -5zM383 443q0 -19 53 -19h399l-161 458l-65 178l-62 -173l-160 -427q-4 -10 -4 -17z" />
<glyph unicode="B" horiz-adv-x="1203" d="M34 20q0 11 1 22q0 16 15 16h61q60 0 83 20t23 74v1019q0 49 -24 70.5t-82 21.5h-61q-16 0 -16 14v41l4 4h354q92 0 165.5 -13.5t121 -38t81 -54t51 -67t24.5 -71t7 -71.5q0 -42 -14 -82.5t-31 -66.5t-39.5 -50t-31.5 -31t-15 -11q17 -1 44.5 -6.5t66.5 -19t78.5 -33.5 t79.5 -53t70 -73t49.5 -98.5t19.5 -124.5v-1q0 -54 -16 -103.5t-54.5 -97t-96 -81.5t-148 -55t-203.5 -21h-9q-49 1 -131.5 2.5t-135.5 1.5h-27q-48 0 -124.5 -2t-125.5 -2h-10q-3 0 -3 4q-1 7 -1 17zM371 149q0 -37 11 -52t48 -22t123 -7q91 0 158 14.5t109.5 40t68 65.5 t35.5 85.5t11 106.5v7q0 139 -94.5 222t-263.5 83h-13h-193v-543zM371 760l8 1q137 0 221 59.5t84 182.5q0 60 -18.5 106t-46 72t-66.5 42t-73.5 21.5t-73.5 5.5q-6 0 -17 -0.5t-18 -0.5v-489z" />
<glyph unicode="C" horiz-adv-x="1319" d="M75 644q0 147 54.5 279t145 224t209.5 145.5t245 53.5q70 0 142 -9.5t124.5 -23t95 -27.5t64.5 -24l22 -9q-84 -155 -143 -284l-57 28q31 93 31 179q-116 95 -302 95q-42 0 -90 -15t-99.5 -44.5t-98 -79t-84 -112t-59.5 -150t-22 -187.5q0 -91 18.5 -179.5t57 -169 t93 -142t133.5 -97.5t171 -36q142 0 253 53.5t221 172.5l47 -30q-104 -136 -237.5 -208.5t-281.5 -72.5q-128 0 -237 38t-184.5 103t-128.5 151t-78 182t-25 196z" />
<glyph unicode="D" horiz-adv-x="1206" d="M35 1281v38l4 4q178 -4 258 -4l237 4h11q109 0 202.5 -34.5t161 -96.5t115 -146t71 -184t23.5 -210q0 -186 -70.5 -332.5t-210 -233t-327.5 -87.5l-213 -1l-258 -4l-3 4v37q0 18 15 18h61q57 0 81.5 22t24.5 72v532v496q0 48 -26 68.5t-86 20.5h-54q-17 0 -17 17z M383 147q0 -44 23 -62.5t83 -18.5h25q82 0 154.5 35.5t132 106.5t94.5 190t35 272q0 127 -19.5 227.5t-53.5 166.5t-81.5 109t-100.5 61t-115 18h-71q-61 0 -83.5 -15t-22.5 -62v-1028z" />
<glyph unicode="E" horiz-adv-x="1167" d="M25 0v41q0 14 16 14h61q59 0 82.5 22.5t23.5 67.5v1026q0 49 -24 70.5t-82 21.5h-61q-16 0 -16 14v41l4 4l262 -4l159 2l390 2q13 -163 43 -318l-60 -10q-12 38 -19 58.5t-20 51t-24 47t-28.5 36.5t-37.5 29.5t-47 16.5t-59 7h-141q-38 0 -56 -15.5t-18 -51.5v-409h204 q50 0 71 21.5t32 69.5l14 61q2 17 15 17h45q7 0 7 -9q-16 -117 -16 -195q0 -84 16 -196l-5 -7h-47q-15 0 -17 15l-12 63q-9 47 -31.5 68.5t-71.5 21.5h-204v-549q0 -38 18.5 -52.5t55.5 -14.5h339q56 0 99.5 20t73 59.5t48.5 83.5t36 105l62 -10q-43 -198 -54 -338h-602 l-159 2l-262 -4z" />
<glyph unicode="F" horiz-adv-x="1004" d="M25 4v40q0 15 16 15h61q28 0 43.5 4.5t22.5 18t8.5 26t1.5 40.5v1030q0 55 -14 72t-62 17h-61q-16 0 -16 14v40l4 5q23 0 74.5 -2t78.5 -2q32 0 59 2h751l27 -392h-59q-7 37 -23 85.5t-39 99.5t-53.5 85.5t-61.5 34.5h-440v-471h204q50 0 71 21.5t32 69.5l14 61 q2 17 15 17h45q7 0 7 -9q-16 -117 -16 -195q0 -84 16 -196l-5 -7h-47q-15 0 -17 15l-12 63q-9 47 -31.5 68.5t-71.5 21.5h-204v-549q0 -56 13.5 -72t61.5 -16h60q17 0 17 -15v-40l-2 -4q-151 4 -247 4l-218 -4z" />
<glyph unicode="G" horiz-adv-x="1377" d="M65 629q0 131 39 247t107 201t157 146.5t191 92.5t208 31q108 0 193.5 -23t146 -46t107.5 -23q16 -169 45 -315l-61 -12q-23 73 -54 129t-83 107.5t-133.5 79.5t-188.5 28q-210 0 -353 -169t-143 -434q0 -104 37.5 -211t106 -199t178 -150.5t239.5 -58.5q87 0 169 26.5 t133 74.5v314q0 55 -18.5 79t-71.5 24q-14 0 -34 -2l-6 3v53l6 5q138 -4 204 -4l75 4v-112l1 -431v-4q0 -108 -12 -198t-31.5 -153t-47.5 -112t-58 -78.5t-64 -48t-63.5 -25.5t-60.5 -7q-30 0 -63 6.5t-69 20.5t-59 42.5t-23 66.5q0 62 65 62q9 0 18 -2t21.5 -9t22.5 -23.5 t15 -41.5q3 -14 6 -22.5t10 -18t21 -14t34 -4.5q35 0 60.5 12t49 46t38.5 91.5t23.5 150.5t8.5 221q-153 -67 -346 -67q-151 0 -281.5 52.5t-220 141.5t-140.5 208.5t-51 251.5z" />
<glyph unicode="H" horiz-adv-x="1434" d="M35 -5v38q0 17 16 17h54q61 0 86.5 22.5t25.5 67.5v921q0 81 -13.5 115t-41.5 34h-6l-66 -7q-11 0 -11 10l-4 52q52 0 142 18q54 10 108 34h56l1 -580h669v580h56q54 -24 108 -34q90 -18 142 -18l-4 -52q0 -10 -11 -10l-66 7h-6q-28 0 -41.5 -34t-13.5 -115l1 -921 q0 -48 26 -69t86 -21h54q17 0 17 -17v-38l-4 -4q-178 4 -258 4l-264 -4l-4 4v38q0 17 16 17h54q61 0 86.5 22.5t25.5 67.5v517h-669v-517q0 -48 26 -69t86 -21h54q17 0 17 -17v-38l-4 -4q-178 4 -258 4l-264 -4z" />
<glyph unicode="I" horiz-adv-x="600" d="M35 0v38q0 17 16 17h54q61 0 86.5 22t25.5 67v1050q0 46 -7 57.5t-31 11.5h-30q-17 0 -17 17v38l4 4q80 -4 160 -4l158 4l4 -4v-38q0 -17 -16 -17h-26q-24 0 -29 -11.5t-5 -57.5v-1050q0 -48 26 -68.5t86 -20.5h54q17 0 17 -17v-38l-4 -4q-178 4 -258 4l-264 -4z" />
<glyph unicode="J" horiz-adv-x="933" d="M-10 365l62 6q69 -314 319 -314q122 0 198 67.5t76 188.5l1 831q0 50 -34 85.5t-92 35.5h-74q-17 0 -17 17v38l4 4q212 -4 292 -4l244 4l4 -4v-38q0 -17 -16 -17h-34q-61 0 -86.5 -22t-25.5 -67v-792q0 -122 -52 -213.5t-143.5 -140t-208.5 -48.5q-88 0 -148 9t-90 17.5 t-46 8.5q-21 0 -49 -5t-44 -5q-6 115 -40 358z" />
<glyph unicode="K" horiz-adv-x="1362" d="M35 -1v38q0 17 16 17h54q61 0 86.5 22t25.5 67l-1 922q0 81 -13.5 115t-41.5 34h-6l-66 -7q-11 0 -11 10l-4 52q52 0 142 18q54 10 108 34h56l2 -663v-130l377 468q40 50 40 60q0 25 -16 36.5t-54 11.5h-55q-7 0 -12 4.5t-5 10.5v38l5 6q123 -4 209 -4q30 0 58 1t42 2 l13 1l63 -4v-38q0 -7 -6 -11.5t-10 -5t-7 -0.5h-23q-41 0 -73.5 -24t-75.5 -78l-191 -241l515 -620q77 -92 160 -92h14q7 0 13.5 -4.5t6.5 -12.5v-38l-7 -4q-153 4 -233 4l-123 -4l-4 4v13q0 26 -1.5 41.5t-11.5 42.5t-29 50l-401 492l-178 -234l1 -277q5 -36 31 -52t80 -16 h54q17 0 17 -17v-38l-4 -4q-178 5 -258 5l-264 -5z" />
<glyph unicode="L" horiz-adv-x="999" d="M35 1283v38l4 4q178 -4 258 -4l264 4l4 -4v-38q0 -17 -16 -17h-54q-61 0 -86.5 -22.5t-25.5 -67.5v-1001q0 -50 21 -67.5t77 -18.5l238 -2q31 0 61.5 34.5t53.5 85.5t39 99.5t23 85.5h59l-27 -392h-670l-212 -2l-4 5v40q0 14 16 14h61q56 0 77.5 17t21.5 64v1038 q0 48 -26 69t-86 21h-54q-17 0 -17 17z" />
<glyph unicode="M" horiz-adv-x="1570" d="M35 -2v38q0 17 20 17h54q76 0 87 119v1003q0 48 -15.5 69t-61.5 21h-60q-20 1 -20 14v38l6 7h301l419 -1044q11 -26 17 -26q7 0 19 28l445 1042h253l5 -7v-36q-1 -16 -22 -16h-56q-32 0 -50 -24.5t-18 -65.5l1 -999q4 -58 23 -89.5t66 -31.5h54q24 0 24 -17v-38l-5 -4 q-149 4 -229 4l-220 -4l-5 4l6 38q0 17 19 17h54q67 0 67 121v918l-462 -1084q-9 -23 -29 -23q-21 0 -30 23l-428 1063v-901q0 -55 14 -87t55 -32h54q7 0 13.5 -4.5t6.5 -12.5l8 -36l-4 -6q-108 4 -188 4l-185 -4z" />
<glyph unicode="N" horiz-adv-x="1312" d="M18 0v37q0 8 9 13t18 5h54q57 0 84 36.5t27 84.5v1084q0 60 43 60q50 -2 81 -44q22 -27 196.5 -275t336 -473.5t168.5 -225.5q14 0 14 78v759q0 51 -26 88t-84 37h-54q-9 0 -18 4.5t-9 12.5v38l10 4q152 -4 225 -4l227 4l4 -4v-38q0 -17 -17 -17h-54q-57 0 -84.5 -35.5 t-27.5 -89.5l-1 -1079q0 -60 -43 -60q-50 2 -81 44q-22 27 -196.5 275t-336 473.5t-168.5 225.5q-14 0 -14 -78v-761q0 -52 27.5 -88t84.5 -36h54q17 0 17 -17v-38l-4 -4q-147 4 -227 4l-220 -4z" />
<glyph unicode="O" horiz-adv-x="1458" d="M75 657q0 199 85 359.5t234.5 251.5t334.5 91t334.5 -91t234.5 -251.5t85 -359.5q0 -122 -51.5 -243t-137.5 -215.5t-208.5 -153t-255.5 -58.5q-107 0 -208 38t-180.5 103.5t-140.5 150t-93.5 182.5t-32.5 196zM253 696q0 -114 32.5 -224t91.5 -200t151.5 -145t203.5 -55 q89 0 166 36t132.5 97.5t95.5 141.5t59.5 169t19.5 180q0 157 -58.5 290.5t-168 215.5t-247.5 82q-9 0 -27 -1.5t-67 -13t-94.5 -32t-100.5 -64.5t-95 -103.5t-67 -156.5t-27 -217z" />
<glyph unicode="P" horiz-adv-x="1052" d="M35 1277v41l3 4l260 -4q187 4 259 4q92 0 165.5 -13.5t121 -38t81 -54t51 -67t24.5 -71t7 -71.5q0 -41 -11.5 -82t-42 -84t-77 -75.5t-122 -53.5t-170.5 -21h-9h-193l1 -544q0 -48 26 -69.5t86 -21.5h54q17 0 17 -17v-38l-4 -4q-178 4 -258 4l-264 -4l-4 4v38q0 17 16 17 h54q60 0 86 23t26 68l-1 1027q0 52 -21.5 70.5t-84.5 18.5h-61q-15 0 -15 14zM382 761h162q137 0 221 59.5t84 182.5q0 60 -18.5 106t-46 72t-66.5 42t-73.5 21.5t-73.5 5.5q-93 0 -129.5 -5t-48 -19t-11.5 -50v-415z" />
<glyph unicode="Q" horiz-adv-x="1403" d="M75 622q0 199 82 362t228 256.5t326 93.5q135 0 255.5 -54t205.5 -145.5t134 -215t50 -258.5v-2q0 -127 -38 -244t-107 -210t-172.5 -156t-226.5 -81q123 -69 199 -69q50 0 98 18.5t79 56.5l36 -25q-61 -87 -129.5 -127.5t-164.5 -40.5q-30 0 -88.5 17.5t-138 54 t-164.5 87t-168 122.5t-149 154t-106.5 188t-40.5 218zM263 657q0 -180 63.5 -317.5t169.5 -217.5q118 -90 257 -90q180 0 297.5 160t117.5 429q0 312 -131 477.5t-352 165.5q-61 0 -119.5 -21.5t-114 -69t-97 -116.5t-66.5 -172.5t-25 -227.5z" />
<glyph unicode="R" horiz-adv-x="1289" d="M35 0v38q0 17 16 17h54q60 0 86 23t26 68v1028q0 49 -12 71t-49 22q-10 0 -14 -1l-62 -6q-16 0 -16 14v38q36 9 171.5 17.5t302.5 8.5q121 0 213 -20.5t159 -83.5q108 -102 108 -254q0 -76 -30.5 -142.5t-77.5 -109.5t-90.5 -70t-82.5 -40l21 -28l279 -382 q50 -69 103 -110t114 -41q15 0 15 -15v-40l-3 -4q-114 4 -216 4l-256 -4l-7 4v41q0 14 13 14h42q66 0 66 23q0 14 -40 70l-285 404q-12 17 -49.5 21t-151.5 4v-433q0 -48 26 -69.5t86 -21.5h54q17 0 17 -17v-38l-4 -4q-178 4 -258 4l-264 -4zM382 663h104q226 0 300 105 q66 96 66 215q0 70 -18.5 124.5t-48 87t-69 54t-77.5 29.5t-78 8q-103 0 -179 -17v-606z" />
<glyph unicode="S" horiz-adv-x="949" d="M69 5q13 77 20 140q3 33 5 108.5t6 128.5l62 6l-1 -19v-12q0 -116 74.5 -204t189.5 -98q12 -1 23 -1q105 0 178 71t73 186q0 67 -16.5 115.5t-51.5 81t-69.5 52t-89.5 40.5q-42 16 -69.5 27.5t-73 34.5t-77 44t-68 53t-59 65.5t-37.5 79t-15 94.5q0 105 55.5 187 t144 124.5t192.5 42.5q63 0 160.5 -24.5t135.5 -29.5l-14 -293l-65 -11q-5 127 -69.5 207.5t-172.5 80.5q-93 0 -159 -67.5t-66 -161.5q0 -175 289 -278q43 -15 74.5 -28t71.5 -33t68.5 -41t58 -51.5t47.5 -64t29.5 -78.5t11.5 -97q0 -161 -116.5 -281.5t-287.5 -120.5 q-69 0 -122 11.5t-77.5 25t-47 25t-37.5 11.5q-18 0 -28 -10.5t-16 -34.5z" />
<glyph unicode="T" horiz-adv-x="1263" d="M15 972q26 167 32 352h774h395q6 -185 32 -352l-61 -10q-6 30 -17 63.5t-30.5 73.5t-43 71.5t-58 52.5t-72.5 21h-135q-56 0 -77 -18t-21 -68v-1009q0 -48 26 -69t86 -21h54q17 0 17 -17v-38l-4 -4q-179 4 -259 4l-263 -4l-4 4v38q0 17 16 17h54q61 0 86.5 22.5 t25.5 67.5v1014q0 47 -21.5 64t-77.5 17h-172q-38 0 -72.5 -21t-58 -52.5t-43 -71.5t-30.5 -73.5t-17 -63.5z" />
<glyph unicode="U" horiz-adv-x="1352" d="M0 1286v38l4 4q178 -4 258 -4l264 4l4 -4v-38q0 -17 -16 -17h-54q-61 0 -86.5 -22t-25.5 -67v-606q0 -66 2 -104t11.5 -94.5t33 -102t62.5 -84.5q104 -103 215 -103q14 0 29 2q98 11 163 47t149 117v927q0 46 -21.5 68t-73.5 22h-42q-19 0 -19 17v38l5 4q151 -4 237 -4 l228 4l5 -4v-38q0 -17 -18 -17h-42q-53 0 -73.5 -22t-20.5 -68v-929q0 -81 11.5 -103.5t37.5 -22.5q45 0 93 10l11 -56q-102 -16 -142.5 -26.5t-87.5 -32.5q-36 -17 -55 -17h-33l6 177h-6q-184 -177 -356 -177q-61 0 -120 11.5t-125.5 46t-115 88t-81 146t-32.5 212.5v674 q0 48 -26 68.5t-86 20.5h-54q-17 0 -17 17z" />
<glyph unicode="V" horiz-adv-x="1335" d="M0 1286v38l7 4q156 -4 236 -4l272 4l4 -4v-38q0 -17 -16 -17h-57q-96 0 -96 -56q0 -17 7 -34l131 -353l231 -626l212 510l195 469q9 21 9 38q0 52 -95 52h-59q-17 0 -17 17v38l4 4q118 -3 168 -3l130 -3l4 -4v-38l-530 -1241q-15 -34 -27.5 -47t-28.5 -13q-26 0 -42 14 t-28 46l-419 1110q-23 62 -58 91t-94 29h-23q-7 0 -13.5 4.5t-6.5 12.5z" />
<glyph unicode="W" horiz-adv-x="1650" d="M0 1284v38l5 4q149 -4 229 -4l220 4l5 -4v-38q0 -17 -19 -17h-54q-36 0 -52 -29t-16 -71q0 -10 1 -21l60 -916l462 1084q9 23 29 23q21 0 30 -23l428 -1063l85 897q0 55 -14 87t-55 32h-54q-7 0 -13.5 4.5t-6.5 12.5v36l4 6q108 -4 188 -4l185 4l3 -4v-38q0 -17 -20 -17 h-54q-76 0 -87 -119l-107 -1148h-136l-419 1044q-11 26 -17 26q-7 0 -19 -28l-445 -1042h-102l-77 1146q-5 59 -23.5 90t-65.5 31h-54q-24 0 -24 17z" />
<glyph unicode="X" horiz-adv-x="1351" d="M6 0v41q0 14 22 14q43 0 80.5 14t68 42t47 47.5t40.5 51.5l281 383q21 27 21 49q0 23 -30 61l-294 419q-31 45 -62 75.5t-53.5 42.5t-42 18.5t-31.5 6t-19 2t-7 10.5v41l10 4q104 -4 206 -4q121 0 245 4q8 -4 9 -4v-40q0 -15 -10 -15h-66q-46 0 -46 -21q0 -23 37 -72 l243 -360q16 -23 25 -23t27 25l264 358q31 43 31 69q0 24 -43 24h-63q-14 2 -14 14v41l4 4q176 -4 204 -4q127 0 199 4l5 -4v-40q0 -15 -19 -15q-36 0 -66.5 -7.5t-50.5 -17.5t-41.5 -31t-33 -35.5t-33.5 -43.5l-268 -362q-26 -36 -26 -61q0 -23 33 -69l360 -488 q69 -92 160 -92h14q7 0 13.5 -4.5t6.5 -12.5v-38l-7 -4q-153 4 -233 4l-123 -4l-4 4v13q0 74 -42 134l-271 384q-17 24 -28 24q-7 0 -30 -30l-272 -371q-27 -37 -27 -62q0 -38 59 -38h39q12 -1 12 -15v-40l-6 -4q-200 4 -230 4l-171 -4z" />
<glyph unicode="Y" horiz-adv-x="1210" d="M42 1280v41l3 3q190 -4 217 -4l234 4l3 -3v-39q0 -17 -13 -17h-58q-29 0 -40.5 -6t-11.5 -20q0 -17 25 -60l284 -477l258 477q23 43 23 59t-10 21.5t-42 5.5h-60q-12 1 -12 15v40l3 4q162 -4 188 -4l179 4l3 -3v-40q0 -16 -19 -16h-44q-45 0 -70.5 -19.5t-53.5 -70.5 l-346 -646l-196 -371q-23 -48 -23 -62q0 -38 59 -38h39q12 -1 12 -15v-40l-6 -4q-200 4 -230 4l-171 -4l-3 4v41q0 14 22 14q81 0 140 47.5t92 107.5l170 314l-373 648q-35 61 -68 81q-13 9 -58 9h-25q-21 3 -21 15z" />
<glyph unicode="Z" horiz-adv-x="1208" d="M83 30q0 24 18 48l795 1107q18 24 18 40q0 17 -22 17h-502q-53 0 -95.5 -40t-70.5 -143l-55 6q28 157 31 282h51q3 -10 18 -17.5t37 -7.5h688q36 0 78.5 5t50.5 5q28 0 36.5 -5t8.5 -17q0 -33 -48 -100l-767 -1063q-18 -25 -18 -41q0 -26 52 -26h477q43 0 80 20.5 t60.5 51t41.5 69t26 73t11 64.5l54 -5l-43 -398q-13 3 -76.5 24t-92.5 21h-803q-39 0 -39 30z" />
<glyph unicode="[" horiz-adv-x="685" d="M180 -410v1822h440v-90h-300v-1642h300v-90h-440z" />
<glyph unicode="\" horiz-adv-x="588" d="M23 1429h90l471 -1528h-90z" />
<glyph unicode="]" horiz-adv-x="685" d="M65 -320h300v1642h-300v90h440v-1822h-440v90z" />
<glyph unicode="^" horiz-adv-x="1061" d="M229 710l259 621h86l258 -621h-91l-211 505l-210 -505h-91z" />
<glyph unicode="_" horiz-adv-x="997" d="M10 -226h978v-90h-978v90z" />
<glyph unicode="`" horiz-adv-x="803" d="M197 1365l5 22q59 48 133 48q18 0 30 -5l143 -257q13 -24 13 -49q0 -8 -9 -15t-21 -7q-16 0 -59 40z" />
<glyph unicode="a" horiz-adv-x="1001" d="M50 424q0 135 51 244t147 173t218 64q156 0 256 -88l31 50q25 38 44 38q26 0 26 -50v-610q0 -84 8 -108q4 -13 17.5 -21.5t27.5 -8.5q70 0 101 5l8 -56q-109 -20 -174 -38t-95 -43h-49l3 67q-82 -67 -213 -67q-85 0 -155 28.5t-116 74.5t-77.5 106t-45 120t-13.5 120z M206 465q0 -89 20 -160t51 -115t72 -73t79.5 -40.5t77.5 -11.5q103 0 164 45v578q-90 147 -212 147q-119 0 -185.5 -102.5t-66.5 -267.5z" />
<glyph unicode="b" horiz-adv-x="1079" d="M10 1376q52 0 142 18q41 8 101 34h45v-729q15 30 30.5 55t43 54.5t59.5 49.5t79.5 33.5t103.5 13.5q104 0 182 -38.5t121.5 -104.5t64.5 -142.5t21 -163.5q0 -198 -137.5 -339.5t-330.5 -141.5q-78 0 -141.5 28.5t-113.5 88t-78 160.5t-28 236l3 691q-7 142 -87 142 l-65 -7q-4 -1 -7.5 2t-3.5 8zM340 481q0 -133 22 -228.5t75 -153.5t135 -58q44 0 89 20t87 60.5t68.5 114.5t26.5 170q0 189 -67.5 310t-183.5 121q-60 0 -106.5 -27t-73 -67t-44 -91t-23 -92.5t-5.5 -78.5z" />
<glyph unicode="c" horiz-adv-x="826" d="M75 427q0 217 110 347.5t294 130.5q108 0 230 -59q17 -95 22 -209l-55 -3q-31 123 -70 162t-124 39q-124 0 -186.5 -96.5t-62.5 -267.5q0 -176 83.5 -291t204.5 -115q125 0 229 150l36 -29q-65 -113 -140 -162t-170 -49q-183 0 -292 125.5t-109 326.5z" />
<glyph unicode="d" horiz-adv-x="999" d="M70 455q0 60 13.5 120t45 120t77.5 106t116 74.5t155 28.5q131 0 213 -67v366q0 46 -19.5 68t-68.5 22h-60q-16 0 -16 17v38l4 4q160 -4 233 -4l220 4l4 -4v-38q0 -17 -17 -17h-39q-48 0 -68 -22t-20 -68v-1179q0 -50 -26 -50q-19 0 -44 38l-31 50q-100 -88 -256 -88 q-122 0 -218 64t-147 173t-51 244zM226 414q0 -165 66.5 -267.5t185.5 -102.5q122 0 212 147v578q-61 45 -164 45q-39 0 -77.5 -11.5t-79.5 -40.5t-72 -73t-51 -115t-20 -160z" />
<glyph unicode="e" horiz-adv-x="957" d="M70 408q0 112 35 208t92 158t128 96.5t145 34.5q88 0 153 -29t101.5 -79.5t54.5 -106.5t23 -122h111q16 0 16 -12v-42q0 -13 -15 -20t-33 -7h-115h-539q-2 -22 -2 -41q0 -153 89.5 -261.5t204.5 -108.5q82 0 141 27.5t114 87.5l41 -34q-60 -83 -149.5 -132.5 t-195.5 -49.5q-102 0 -181 36t-125.5 97.5t-70 137.5t-23.5 162zM234 567h376q30 0 30 28q0 68 -16 117.5t-42.5 75t-54.5 36.5t-59 11q-19 0 -39.5 -3.5t-53 -19.5t-58.5 -42.5t-49.5 -79t-33.5 -123.5z" />
<glyph unicode="f" horiz-adv-x="623" d="M-41 -238q0 26 17.5 47t44.5 21q48 0 69 -42q4 -8 6.5 -26.5t9.5 -28t26 -9.5t31.5 29.5t17.5 89.5t6.5 111.5t1.5 133.5v30v29v653h-141q-11 0 -11 12v28q0 15 11.5 27.5t35.5 12.5h105v81q0 116 28 207.5t76 147t107.5 84.5t125.5 29q106 0 182 -55q60 -45 60 -99 q0 -31 -20 -52t-50 -21q-57 0 -84 58q-40 99 -127 99q-23 0 -41.5 -7t-38.5 -30t-33.5 -61.5t-22.5 -106t-9 -158.5v-116h226q16 0 16 -12v-41q0 -13 -15 -20t-33 -7h-194v-632q0 -268 -58.5 -394t-173.5 -126q-76 0 -113.5 38t-37.5 76z" />
<glyph unicode="g" horiz-adv-x="953" d="M55 400q0 121 42 220.5t108 159.5t142.5 92.5t150.5 32.5q132 0 220 -76q14 28 36 51.5t38 24.5h26v-840q0 -368 -149 -473q-95 -67 -225 -67q-59 0 -130.5 23.5t-127 68t-55.5 94.5q0 33 19 53t51 20q26 0 44.5 -11t26 -23t18.5 -36q59 -124 164 -124q62 0 104 31.5 t65 93.5t32.5 139t9.5 184v54q-108 -117 -259 -117q-62 0 -125 32t-113 87t-81.5 135.5t-31.5 170.5zM213 427q0 -143 70.5 -253t164.5 -110q49 0 109 20t108 71v607q-64 78 -156 78q-94 0 -162 -57.5t-101 -149.5t-33 -206z" />
<glyph unicode="h" horiz-adv-x="1048" d="M38 4v38q0 17 16 17h39q49 0 68.5 22t19.5 68v1281h45q54 -24 108 -34q90 -18 142 -18l-4 -52q0 -10 -11 -10l-66 7q-32 0 -46.5 -31t-14.5 -110v-8v-188v-248q169 169 337 169q219 0 221 -324l1 -419q0 -55 18.5 -79t71.5 -24q14 0 34 2l6 -3v-53l-6 -5q-138 4 -204 4 l-75 -4l2 163l-1 441q0 121 -35 163t-124 42q-94 0 -246 -150v-512q0 -46 19.5 -68t68.5 -22h39q17 0 17 -17v-38l-4 -4q-140 4 -220 4l-212 -4z" />
<glyph unicode="i" horiz-adv-x="613" d="M59 829q93 16 129.5 26.5t83.5 32.5q36 17 51 17h31v-629q0 -100 14.5 -143.5t54.5 -43.5q74 0 146 56l37 -35q-120 -135 -255 -135q-74 0 -112 48t-38 156v478q0 76 -11 101t-35 25q-36 0 -86 -10zM158 1169q0 41 29 69.5t69 28.5t69 -28.5t29 -69.5t-29 -69.5 t-69 -28.5t-69 28.5t-29 69.5z" />
<glyph unicode="j" horiz-adv-x="504" d="M34 867v38l4 4q148 -4 221 -4l229 4l4 -4v-38q0 -17 -17 -17h-48q-48 0 -68 -22t-20 -68v-1282h-45q-54 24 -108 34q-90 18 -142 18l4 52q0 10 11 10l66 -7q32 0 46.5 32t14.5 117v1026q0 46 -19.5 68t-68.5 22h-48q-16 0 -16 17z" />
<glyph unicode="k" horiz-adv-x="912" d="M38 0v38q0 17 16 17h39q49 0 68.5 22t19.5 68v1026q0 85 -14.5 117t-46.5 32l-66 -7q-11 0 -11 10l-4 52q52 0 142 18q54 10 108 34h45v-1066l273 372q33 45 33 68q0 24 -42 24h-32q-14 0 -14 15v38l6 6q98 -4 160 -4l166 4l3 -4v-39q0 -16 -25 -16q-57 0 -91.5 -23 t-90.5 -97l-143 -188v-6l75 -209q99 -263 171 -264h21q21 0 21 -17v-38l-5 -4l-139 2q-32 1 -60.5 23t-52 64.5t-35.5 70t-29 73.5l-48 127q-11 27 -23 41q-95 -125 -99 -131v-104q0 -46 20 -68t68 -22h4q17 0 17 -17v-38l-4 -4q-105 4 -185 4l-212 -4z" />
<glyph unicode="l" horiz-adv-x="586" d="M42 1377q52 0 142 18q54 10 108 34h45v-1153q0 -100 14.5 -143.5t54.5 -43.5q74 0 146 56l37 -35q-120 -135 -255 -135q-74 0 -112 48.5t-38 155.5v994q0 85 -14.5 117t-46.5 32l-45 -5l-21 -2q-11 0 -11 10z" />
<glyph unicode="m" horiz-adv-x="1557" d="M48 827q95 16 132 26.5t81 32.5q32 17 51 17h31l-6 -177h6q42 44 73 71.5t70 54t80 39t87 12.5q81 0 134.5 -51t63.5 -125q89 92 166 134t160 42q52 0 90.5 -17.5t61 -46t36 -73t18 -90t4.5 -105.5v-426q0 -46 20 -68t68 -22h39q17 0 17 -17v-38l-4 -4q-140 4 -220 4 l-213 -4l-4 4v38q0 17 16 17h39q50 0 69.5 22t19.5 68v472q0 187 -131 187q-60 0 -113.5 -33t-127.5 -115q3 -26 3 -83v-428q0 -46 20 -68t68 -22h36q17 0 17 -17v-38l-4 -4q-137 4 -217 4l-215 -4l-4 4v38q0 17 16 17h42q49 0 68.5 22t19.5 68v468q0 98 -36 144.5t-97 46.5 q-52 0 -106 -35.5t-130 -115.5l2 -382v-275q-46 4 -75 4l-207 -4l-6 5v53l6 3q20 -2 37 -2q53 0 71.5 24t18.5 79v497q0 56 -6.5 84.5t-15 35t-24.5 6.5q-42 0 -86 -10z" />
<glyph unicode="n" horiz-adv-x="1055" d="M37 826q78 15 119.5 24t86 24.5t66.5 32.5h46l-6 -152h6q141 152 288 152q73 0 125.5 -23t80 -64t39.5 -87.5t12 -103.5v-467q0 -55 18.5 -79t71.5 -24q14 0 34 2l6 -3v-53l-6 -5q-138 4 -204 4l-75 -4l2 163v437q0 52 -10.5 91.5t-26.5 62.5t-38 37.5t-41.5 19 t-39.5 4.5q-67 0 -133 -49q-70 -53 -103 -92v-507q0 -60 16 -84t70 -24q27 0 41 2l4 -5v-50l-4 -6q-145 4 -202 4l-81 -4l3 161v483q0 78 -10.5 107t-41.5 29q-47 0 -105 -10z" />
<glyph unicode="o" horiz-adv-x="1038" d="M70 454q0 121 56.5 225t160.5 167.5t232 63.5q110 0 197.5 -37t141.5 -100.5t82 -144.5t28 -174q0 -204 -122.5 -339t-326.5 -135q-200 0 -324.5 133.5t-124.5 340.5zM223 454q0 -164 84.5 -278t211.5 -114q141 0 218.5 107.5t77.5 284.5q0 163 -77 268.5t-219 105.5 q-133 0 -214.5 -107t-81.5 -267z" />
<glyph unicode="p" horiz-adv-x="980" d="M10 -492l4 52q0 10 11 10l66 -7q32 0 46.5 32t14.5 117v1024q0 103 -6 161l42 10q42 -44 64 -76q88 76 212 76q80 0 157.5 -34.5t141 -97t102.5 -161t39 -216.5q0 -91 -29.5 -171t-78 -134t-111 -85t-129.5 -31q-147 0 -251 113v-634h-45q-54 24 -108 34q-90 18 -142 18z M305 153q36 -37 86 -58.5t76 -25t47 -3.5q96 0 164 102.5t68 256.5q0 182 -76 297t-217 115q-49 0 -83.5 -14.5t-64.5 -50.5v-619z" />
<glyph unicode="q" horiz-adv-x="990" d="M73 482q0 109 40.5 205t117.5 157t173 61q162 0 269 -164h6l-6 164h31q19 0 51 -17q46 -22 82.5 -32.5t130.5 -26.5l-10 -56q-50 10 -86 10q-23 0 -34.5 -19.5t-11.5 -73.5v-1014q0 -46 19.5 -68t68.5 -22h39q16 0 16 -17v-38l-4 -4q-139 4 -212 4l-220 -4l-4 4v38 q0 17 17 17h39q48 0 68 22t20 68v344q-81 -45 -184 -45q-152 0 -272 120q-144 144 -144 387zM233 427q0 -74 12 -136t40 -120t83 -91.5t133 -33.5q99 0 172 87v511q-32 76 -95 121.5t-120 45.5q-97 0 -161 -102.5t-64 -281.5z" />
<glyph unicode="r" horiz-adv-x="812" d="M40 -4q140 4 230 4l228 -4v43q0 16 -17 16h-60q-48 0 -61.5 17.5t-13.5 70.5v648h238q46 0 80.5 -35.5t49.5 -75.5t24 -86l54 4l-17 280h-735v-38q1 -19 16 -19h61q52 -2 64 -20.5t12 -71.5v-586q0 -50 -13 -69t-63 -19h-61q-16 0 -16 -15v-44z" />
<glyph unicode="s" horiz-adv-x="760" d="M88 287l55 2q6 -50 24.5 -107.5t49.5 -89.5q21 -22 60.5 -41t90.5 -19q61 0 120 45t59 114q0 68 -46.5 116.5t-165.5 100.5q-65 28 -100 47.5t-68 49.5t-46 69t-13 95q0 99 83.5 166.5t194.5 70.5h8q69 0 134.5 -30t107 -81t41.5 -108q0 -37 -23 -59t-59 -22 q-40 0 -60.5 21.5t-20.5 45.5q0 17 7 37q6 18 6 35q0 44 -39.5 70t-94.5 26q-63 0 -110.5 -36t-47.5 -103q0 -62 32.5 -98t116.5 -67q70 -26 118.5 -50.5t93 -60t67 -82.5t22.5 -107q0 -58 -23.5 -105t-58.5 -75.5t-78.5 -47.5t-81.5 -26.5t-70 -7.5q-102 0 -184 22 q-17 5 -39 5q-18 0 -48 -6q0 114 -14 291z" />
<glyph unicode="t" horiz-adv-x="610" d="M40 810v64q0 8 8 8q98 0 134 56t36 180v39l117 41v-316h226q16 0 16 -12v-41q0 -13 -15 -20t-33 -7h-194l1 -655q0 -56 13 -75t65 -20l33 -2q17 -2 17 -12v-42q-9 0 -96 3.5t-112 3.5q-18 0 -53 -1.5t-80.5 -3t-66.5 -2.5v40q0 13 12 14l37 2q52 2 65 19t13 76v655h-133 q-10 0 -10 8z" />
<glyph unicode="u" horiz-adv-x="1081" d="M40 844v38l4 4q140 -4 220 -4l202 4l4 -4v-38q0 -17 -16 -17h-29q-49 0 -68.5 -22t-19.5 -68v-448q0 -114 27.5 -162.5t104.5 -48.5q71 0 134.5 34t138.5 122v503q0 46 -20 68t-68 22h-29q-17 0 -17 17v38l4 4q130 -4 210 -4l212 4l4 -4v-38q0 -17 -16 -17h-39 q-49 0 -68.5 -22t-19.5 -68v-510q0 -77 11 -101.5t35 -24.5q36 0 85 10l11 -56q-147 -25 -211 -59q-34 -17 -53 -17h-31l6 182h-6q-91 -107 -168.5 -144.5t-165.5 -37.5q-54 0 -94 16.5t-64.5 44.5t-39.5 70.5t-20.5 88t-5.5 104.5v434q0 46 -20 68t-68 22h-39q-17 0 -17 17 z" />
<glyph unicode="v" horiz-adv-x="1026" d="M18 838v40l5 4q99 -4 161 -4l243 4l4 -6v-37q0 -7 -7 -11.5t-15 -4.5h-37q-30 -1 -42 -8t-12 -23q0 -23 15 -61l249 -613q262 429 262 539q0 63 -35 110q-28 37 -28 80q0 30 23.5 56.5t65.5 26.5q45 0 73 -32t28 -77q0 -51 -25 -131q-45 -145 -125 -292t-252 -398h-96 l-308 758q-27 65 -112 65h-15q-20 0 -20 15z" />
<glyph unicode="w" horiz-adv-x="1519" d="M17 822v53l6 5q138 -4 204 -4l75 4l-2 -163v-437q0 -51 10.5 -91t26.5 -62.5t38 -37t41.5 -19.5t39.5 -5q67 0 133 49q70 54 103 92q-19 64 -19 142v284v91q0 98 -109 98q-19 0 -19 15v40l4 4q115 -4 186 -4l204 4l6 -4v-39q0 -16 -19 -16h-38q-58 0 -58 -29q0 -6 -2 -27 t-2 -38v-385q0 -119 58.5 -198t182.5 -79q86 0 155 62.5t104 156t35 195.5q0 134 -36 196.5t-89 71.5q-85 11 -85 77q0 30 22 52.5t62 22.5q201 0 201 -395q0 -129 -31.5 -233.5t-83.5 -169t-117.5 -98.5t-136.5 -34q-245 0 -340 157l-13 26l-22 -27q-79 -85 -148.5 -118.5 t-139.5 -33.5q-59 0 -104.5 16t-74 41.5t-46.5 62.5t-25 75.5t-7 82.5v467q0 55 -18.5 79t-71.5 24q-14 0 -34 -2z" />
<glyph unicode="x" horiz-adv-x="1061" d="M45 0v35q0 20 27 20q44 0 83.5 22.5t98.5 98.5l192 251q5 6 5 14t-6 17l-159 233q-49 73 -82.5 102.5t-83.5 29.5q-11 0 -19.5 4.5t-8.5 10.5v38l4 6l162 -4l226 4l6 -6v-37q0 -7 -4.5 -11.5t-10.5 -4.5h-32q-29 0 -38.5 -6t-9.5 -18q0 -19 31 -66l133 -200 q11 -17 21 -17q8 0 18 13l148 203q33 46 33 68q0 24 -42 24h-32q-14 0 -14 15v38l6 6l160 -4l166 4l3 -4v-39q0 -16 -25 -16h-7q-24 0 -42.5 -4.5t-31.5 -10t-31 -24t-30 -32t-40 -49.5l-185 -235q-7 -9 -7 -15t7 -16l174 -246q28 -40 49.5 -65t37 -39.5t33.5 -21t30.5 -8 t36.5 -1.5q29 0 29 -17v-38l-4 -4q-110 4 -180 4l-213 -4l-4 4v39q0 16 16 16h24q46 0 46 22q0 18 -54 93l-139 192q-11 15 -17 15t-20 -20l-150 -215q-36 -52 -36 -67q0 -22 43 -22h28q14 0 14 -16v-39l-3 -4q-106 4 -173 4l-152 -4z" />
<glyph unicode="y" horiz-adv-x="1040" d="M22 826v38l4 4q140 -4 220 -4l212 4l4 -4v-38q0 -17 -16 -17h-39q-49 0 -68.5 -22t-19.5 -68v-457q0 -121 35 -163t124 -42q94 0 246 150v512q0 46 -19.5 68t-68.5 22h-39q-17 0 -17 17v38l4 4q140 -4 220 -4l212 4l4 -4v-38q0 -17 -16 -17h-39q-49 0 -68.5 -22 t-19.5 -68v-719q0 -205 -28 -307.5t-112 -186.5q-79 -79 -164 -79q-68 0 -129.5 30.5t-61.5 73.5q0 37 18.5 58t46.5 21q33 0 54.5 -26.5t31.5 -63.5q8 -33 32 -33q71 0 114 105.5t49 315.5l-4 222q-169 -169 -337 -169q-221 0 -221 324v434q0 46 -20 68t-68 22h-39 q-17 0 -17 17z" />
<glyph unicode="z" horiz-adv-x="869" d="M44 49l134 187q135 186 270.5 373t137.5 189h-231q-121 0 -172 -183l-55 6q28 157 31 282h51q3 -10 18 -17.5t37 -7.5h400q26 0 50.5 14t58.5 53l55 -32l-265 -363l-265 -362q6 1 18 1q93 0 145 -28q87 -48 138 -48q49 0 93 31.5t100 127.5l51 -21q-68 -158 -125 -217 t-127 -59q-91 0 -175 51q-90 57 -156 57q-53 0 -117 -108q-100 72 -100 74z" />
<glyph unicode="{" horiz-adv-x="560" d="M80 499v11q137 39 137 247v388q0 167 57 237q58 70 226 75v-30q-62 -17 -101 -84q-32 -55 -32 -182v-371q0 -92 -14.5 -147t-43 -85t-81.5 -53q84 -36 111.5 -104t27.5 -206v-337q0 -127 35 -190q18 -32 39.5 -51.5t32 -23.5t26.5 -8v-30q-176 5 -228 75q-55 75 -55 259 v358q0 69 -10.5 117t-42 85.5t-84.5 49.5z" />
<glyph unicode="|" horiz-adv-x="421" d="M166 -477v1906h91v-1906h-91z" />
<glyph unicode="}" horiz-adv-x="560" d="M60 -415q62 17 101 84q32 55 32 182v371q0 92 14.5 147t43 85t81.5 53q-84 36 -111.5 104t-27.5 206v337q0 127 -35 190q-18 32 -39.5 51.5t-32 23.5t-26.5 8v30q176 -5 228 -75q55 -75 55 -259v-358q0 -69 10.5 -117t42 -85.5t84.5 -49.5v-11q-137 -39 -137 -247v-388 q0 -167 -57 -237q-58 -70 -226 -75v30z" />
<glyph unicode="~" horiz-adv-x="920" d="M54 429q19 103 95 182.5t166 79.5q22 0 50.5 -11t47 -22t54.5 -34q35 -22 53.5 -33t46.5 -22t49 -11q33 0 69 12t75 44.5t60 80.5l34 -14q-18 -62 -45.5 -109t-54 -71.5t-56.5 -40t-50.5 -19.5t-38.5 -4q-36 0 -71.5 17t-83.5 50q-32 21 -51.5 33t-47.5 22.5t-52 10.5 q-57 0 -123 -41.5t-100 -107.5z" />
<glyph unicode="&#xa1;" horiz-adv-x="466" d="M120 -318q0 76 23 207t30 189q11 97 18.5 182t10 134.5t3.5 54.5q3 41 29 41q27 0 29 -26q0 -1 10.5 -146t20.5 -240q7 -72 29.5 -194t22.5 -202q0 -75 -35 -112t-77 -37q-46 0 -80 38.5t-34 110.5zM126 796q0 45 32 77t77 32t77 -32t32 -77t-32 -77t-77 -32t-77 32 t-32 77z" />
<glyph unicode="&#xa2;" d="M95 572q0 98 27.5 183t75 145t112 98.5t138.5 48.5v150h70v-147q132 -5 207 -65.5t75 -143.5q0 -43 -22.5 -66t-56.5 -23q-36 0 -61.5 18t-29.5 54q-2 23 -5 39t-10.5 38t-18.5 36t-31 25.5t-47 15.5v-767q11 -1 23 -1q125 0 229 150l36 -29q-62 -107 -131.5 -156 t-156.5 -54v-145h-70v146q-162 17 -257.5 140t-95.5 310zM253 616q0 -139 54 -242.5t141 -143.5v746q-87 -20 -141 -117t-54 -243z" />
<glyph unicode="&#xa3;" d="M35 28q0 50 98 101q80 59 109 162.5t29 253.5v32h-124q-7 0 -9 2.5t-2 9.5v28q0 15 11.5 27.5t35.5 12.5h88v40q0 121 36 207.5t117 167.5q105 105 259 105q27 0 60.5 -8t64 -30.5t30.5 -54.5q0 -36 -22.5 -58t-58.5 -22q-28 0 -69 37q-51 45 -96 45q-69 0 -118 -83.5 t-49 -207.5v-138h242q16 0 16 -12v-42q0 -12 -15 -19t-33 -7h-210q-2 -276 -141 -400h10q62 0 108 -10t72.5 -24t49 -28t50.5 -24t63 -10q52 0 109 21t91 67l35 -19q-36 -79 -106.5 -127t-163.5 -48q-48 0 -85.5 12.5t-63.5 30t-51 35t-62 30t-84 12.5q-45 0 -63.5 -16 t-18.5 -37q0 -32 -21.5 -49.5t-56.5 -17.5q-27 0 -44 15t-17 38z" />
<glyph unicode="&#xa4;" d="M54 278l109 88q-80 98 -80 224q0 132 81 226l-106 84l76 80l93 -103q100 72 220 72q124 0 222 -77l95 114l80 -84l-112 -91q76 -92 76 -221q0 -122 -75 -220l107 -90l-74 -78l-94 106q-101 -77 -225 -77t-222 74l-87 -109zM207 592q0 -115 67 -194.5t173 -79.5 q105 0 171 79.5t66 192.5q0 114 -68.5 193t-164.5 79q-105 0 -174.5 -79t-69.5 -191z" />
<glyph unicode="&#xa5;" d="M-9 1133v42l3 3q37 -5 182 -5q125 0 175 5l4 -3v-40q0 -17 -14 -17h-27q-46 0 -46 -26q0 -19 20 -61l212 -438l186 438q21 47 21 64q0 13 -11 18t-40 5h-26q-12 1 -12 15v42l4 3q96 -6 154 -6t138 6l2 -3v-41q0 -5 -0.5 -8t-5 -5.5t-12.5 -2.5q-53 0 -80.5 -23t-57.5 -90 l-201 -455h245q16 0 16 -12v-42q0 -12 -15 -19t-33 -7h-238v-130h270q16 0 16 -12v-42q0 -12 -15 -19t-33 -7h-238v-113q0 -47 26 -68.5t86 -21.5h54q18 0 18 -17v-38l-4 -4q-178 4 -258 4l-264 -4l-4 4v38q0 17 16 17h54q61 0 86.5 22.5t25.5 67.5v113h-274q-7 0 -9 2.5 t-2 9.5v28q0 15 11.5 27.5t35.5 12.5h238v130h-274q-7 0 -9 2.5t-2 9.5v28q0 15 11.5 27.5t35.5 12.5h227l-219 452q-31 63 -61 89.5t-68 26.5q-20 0 -20 15z" />
<glyph unicode="&#xa6;" horiz-adv-x="420" d="M165 330h100v-742h-100v742zM165 639v742h100v-742h-100z" />
<glyph unicode="&#xa7;" horiz-adv-x="955" d="M100 565q0 177 121 274q-51 62 -51 194q0 51 24.5 106t66.5 101.5t105.5 76.5t133.5 30q116 0 204 -74t88 -182q0 -32 -23 -55t-52 -23q-34 0 -55 17.5t-25.5 33.5t-4.5 30q0 34 15 55q9 16 9 27q0 4 -4 15t-14.5 27.5t-26.5 31t-43 25t-60 10.5q-85 0 -143 -64.5 t-58 -147.5q0 -67 36 -103.5t118 -74.5q42 -20 73 -35.5t75 -41.5t75.5 -51t66 -60.5t56 -72.5t35.5 -85t14 -100q0 -180 -125 -278q40 -36 54.5 -83.5t14.5 -114.5t-45.5 -140.5t-127 -126t-171.5 -52.5q-114 0 -202.5 74.5t-88.5 182.5q0 34 23 56t52 22q25 0 43.5 -9.5 t26.5 -24t11.5 -26.5t3.5 -21q0 -25 -12.5 -48.5t-12.5 -33.5q0 -5 4 -16t15.5 -27.5t28 -31t44.5 -25t61 -10.5q76 0 136.5 58t60.5 155q0 55 -30.5 102t-80.5 72q-247 122 -343 222t-96 240zM191 664q0 -99 82 -197.5t189 -148.5q114 -53 235 -117q68 59 68 149 q0 215 -370 400q-37 19 -135 63q-69 -59 -69 -149z" />
<glyph unicode="&#xa8;" horiz-adv-x="769" d="M112 1177q0 38 27.5 65.5t65.5 27.5t65.5 -27.5t27.5 -65.5t-27.5 -65.5t-65.5 -27.5t-65.5 27.5t-27.5 65.5zM441 1177q0 38 27.5 65.5t65.5 27.5t65.5 -27.5t27.5 -65.5t-27.5 -65.5t-65.5 -27.5t-65.5 27.5t-27.5 65.5z" />
<glyph unicode="&#xa9;" horiz-adv-x="1297" d="M70 627q0 157 77.5 290t211 210.5t290.5 77.5t290 -77.5t210.5 -210.5t77.5 -290t-77.5 -290.5t-210.5 -211t-290 -77.5q-118 0 -225.5 46t-185 124t-123 185t-45.5 224zM134 627q0 -139 68.5 -257.5t187 -188t259.5 -69.5q139 0 257.5 68.5t187.5 187t69 259.5 q0 140 -69 258.5t-187 187t-258 68.5q-141 0 -259.5 -69t-187 -187t-68.5 -258zM345 628q0 120 85.5 213t222.5 93q81 0 133.5 -14.5t78.5 -14.5l23 -160l-54 -8q-6 34 -10.5 51.5t-16.5 40.5t-29 34.5t-48 19.5t-74 8q-33 0 -64 -12t-62.5 -39.5t-51 -83t-19.5 -132.5 q0 -109 54 -182.5t153 -73.5q117 0 186 106l43 -30q-35 -55 -96 -92.5t-139 -37.5q-142 0 -228.5 93t-86.5 221z" />
<glyph unicode="&#xaa;" horiz-adv-x="609" d="M55 876q0 123 212 176l119 31q0 171 -111 171q-51 0 -81 -15.5t-30 -39.5q0 -19 4 -27q5 -8 5 -25q0 -16 -14 -30t-40 -14q-24 0 -39 14.5t-15 38.5q0 57 72 102.5t141 45.5q42 0 77 -10t68.5 -34t53 -72t19.5 -117v-154q0 -117 28 -117q13 0 25 10l20 -32 q-15 -17 -42 -30.5t-53 -13.5q-36 0 -59 24t-28 56q-52 -47 -87.5 -63.5t-85.5 -16.5q-67 0 -113 39t-46 103zM162 882q0 -36 22 -60t70 -24q31 0 60 15.5t72 53.5v162q-129 -34 -176.5 -66t-47.5 -81z" />
<glyph unicode="&#xab;" horiz-adv-x="1098" d="M140 401v79q219 152 449 399v-104q-139 -206 -295 -335q150 -112 295 -334v-104q-247 286 -449 399zM511 401v79q216 151 448 399v-104q-137 -205 -294 -335q151 -113 294 -334v-104q-248 287 -448 399z" />
<glyph unicode="&#xac;" horiz-adv-x="1148" d="M50 731v90h1049v-549h-109v459h-940z" />
<glyph unicode="&#xad;" horiz-adv-x="682" d="M68 518q0 25 16.5 50t34.5 25h468q29 0 29 -35q0 -20 -18 -47.5t-36 -27.5h-464q-14 0 -22 10.5t-8 24.5z" />
<glyph unicode="&#xae;" horiz-adv-x="1297" d="M70 627q0 157 77.5 290t211 210.5t290.5 77.5t290 -77.5t210.5 -210.5t77.5 -290t-77.5 -290.5t-210.5 -211t-290 -77.5q-118 0 -225.5 46t-185 124t-123 185t-45.5 224zM134 627q0 -139 68.5 -257.5t187 -188t259.5 -69.5q139 0 257.5 68.5t187.5 187t69 259.5 q0 140 -69 258.5t-187 187t-258 68.5q-141 0 -259.5 -69t-187 -187t-68.5 -258zM423 342v24q0 11 22 11h24q10 0 13.5 3t3.5 14v456q0 23 -9 23l-33 -2q-20 1 -20 12v22q79 11 235 11q55 0 95.5 -15t61 -39.5t29.5 -49.5t9 -51q0 -30 -12 -56.5t-29 -43.5t-34 -30t-29 -19 l-12 -5l98 -169q37 -63 81 -63v-27q-25 -8 -46 -8q-89 0 -128 77l-98 163q-9 7 -56 7v-194q0 -6 1 -9t4.5 -5t10.5 -2h24q22 0 22 -12v-23q-86 5 -114 5zM589 631q25 0 42.5 1.5t42 8.5t39.5 20t26.5 38.5t11.5 61.5q0 54 -27 86.5t-77 32.5q-41 0 -58 -6v-243z" />
<glyph unicode="&#xaf;" horiz-adv-x="814" d="M120 1114q0 19 14 39.5t31 20.5h501q14 0 21 -9t7 -21q0 -19 -15 -39.5t-33 -20.5h-501q-25 0 -25 30z" />
<glyph unicode="&#xb0;" horiz-adv-x="548" d="M70 1076q0 85 59.5 144.5t144.5 59.5t144.5 -59.5t59.5 -144.5t-59.5 -144.5t-144.5 -59.5t-144.5 59.5t-59.5 144.5zM138 1074q0 -58 37.5 -101.5t98.5 -43.5t98.5 44t37.5 101q0 56 -36 102.5t-100 46.5q-62 0 -99 -45t-37 -104z" />
<glyph unicode="&#xb1;" horiz-adv-x="1080" d="M135 36v101h810v-101h-810zM135 598v101h355v356h101v-356h354v-101h-354v-354h-101v354h-355z" />
<glyph unicode="&#xb2;" horiz-adv-x="630" d="M92 746q0 67 49.5 129t136.5 131q53 42 79 69.5t42.5 67.5t16.5 93q0 64 -35.5 93.5t-73.5 29.5q-60 0 -85 -17.5t-25 -41.5q0 -8 4.5 -24t4.5 -25q0 -22 -19 -35.5t-37 -13.5q-20 0 -37 14.5t-17 34.5q0 22 12 47.5t36.5 51t69.5 42.5t102 17q56 0 103 -14t82 -54 t35 -101q0 -67 -44 -122.5t-138 -122.5q-135 -97 -135 -184h165q23 0 42.5 12.5t34 35.5t23.5 43t19 47l49 -12q-26 -95 -38 -191h-422z" />
<glyph unicode="&#xb3;" horiz-adv-x="630" d="M79 809q0 15 16.5 27.5t33.5 12.5q29 0 53 -28q28 -37 103 -37q14 0 31.5 3.5t40 15t41 29.5t31 49.5t12.5 71.5q0 41 -17.5 69t-45.5 40t-51 16.5t-47 4.5q-20 0 -41 -4l-4 50q69 9 110 47.5t41 100.5q0 44 -24 63t-59 19q-37 0 -74 -18.5t-39 -52.5q-2 -60 -52 -60 q-18 0 -30 8.5t-15 16.5t-3 13q0 15 13 37.5t38.5 47t74.5 41.5t112 17q80 0 126.5 -32.5t46.5 -87.5q0 -84 -104 -140q61 -6 112.5 -53t51.5 -128q0 -103 -86.5 -168.5t-211.5 -65.5q-63 0 -123.5 22.5t-60.5 52.5z" />
<glyph unicode="&#xb4;" horiz-adv-x="700" d="M182 1136q0 26 13 46l163 257q12 5 30 5q60 0 100 -38l13 -10l5 -22l-235 -223q-43 -40 -59 -40q-12 0 -21 7.5t-9 17.5z" />
<glyph unicode="&#xb5;" horiz-adv-x="996" d="M90 878q27 0 86.5 9.5t81.5 11.5q6 -131 6 -197v-400q0 -234 141 -234q79 0 151 40t108 94v676q22 0 47.5 3.5t57 9.5t48.5 8v-645q0 -39 0.5 -59t2 -45t4.5 -36t9 -22.5t15.5 -15.5t22.5 -4q33 0 70 89l49 -21q-32 -85 -72.5 -125t-115.5 -40q-57 0 -97.5 44t-40.5 104 q-133 -148 -298 -148q-32 0 -65.5 15.5t-51.5 35.5q-9 0 -16 -5t-7 -12q0 -72 32 -199.5t32 -166.5q0 -61 -23 -92t-61 -31q-31 0 -70 39t-39 95q0 49 16.5 155.5t16.5 174.5q0 27 -9.5 126t-9.5 165v385q0 25 -5.5 79.5t-10.5 96.5z" />
<glyph unicode="&#xb6;" horiz-adv-x="1233" d="M55 900q0 192 109 308t308 116q89 0 203.5 -5.5t129.5 -5.5l142 5l226 6v-44q0 -14 -11 -14h-61q-52 0 -66.5 -26.5t-14.5 -101.5v-1433q0 -58 7.5 -83.5t22.5 -33.5t51 -9h61q11 0 11 -16v-43h-673v43q0 16 12 16h60q50 2 65 25t15 103v758q-48 -25 -159 -25 q-55 0 -110.5 12t-116 45t-106.5 82.5t-75.5 132.5t-29.5 188zM772 -293q0 -131 61 -131q42 0 54.5 28.5t12.5 98.5v1435q0 43 -4 69t-14 37t-18 13.5t-24 3.5q-19 0 -32.5 -8t-20 -18.5t-10.5 -30t-4.5 -33.5t-0.5 -38v-1426z" />
<glyph unicode="&#xb7;" horiz-adv-x="512" d="M145 528q0 44 33.5 78t78.5 34q42 0 76 -33.5t34 -78.5q0 -44 -32 -77t-78 -33q-49 0 -80.5 33t-31.5 77z" />
<glyph unicode="&#xb8;" horiz-adv-x="1108" d="M424 -336l22 45q77 -28 117 -28q50 0 86.5 22.5t36.5 61.5q0 32 -24.5 52t-60.5 20q-50 0 -92 -14l-13 13l81 178h69l-49 -119q24 6 53 6q63 0 104 -34.5t41 -92.5q0 -65 -61.5 -105t-156.5 -40q-74 0 -153 35z" />
<glyph unicode="&#xb9;" horiz-adv-x="630" d="M124 1294q137 51 238 115h33v-535q0 -33 15.5 -54.5t36.5 -21.5h57q12 0 12 -10v-42q-107 2 -176 2l-200 -2v43q0 9 15 9h73q25 0 43.5 21.5t18.5 54.5v311q0 52 -5.5 69.5t-24.5 17.5q-43 0 -117 -32z" />
<glyph unicode="&#xba;" horiz-adv-x="716" d="M80 879q0 130 75.5 205.5t207.5 75.5q73 0 127.5 -22.5t85.5 -61.5t46 -85.5t15 -100.5q0 -112 -74.5 -190.5t-210.5 -78.5q-114 0 -193 74t-79 184zM198 900q0 -87 45.5 -155t130.5 -68q24 0 47.5 8t47 26.5t38 56.5t14.5 90q0 120 -46.5 184.5t-124.5 64.5 q-73 0 -112.5 -59.5t-39.5 -147.5z" />
<glyph unicode="&#xbb;" horiz-adv-x="1098" d="M98 2v104q137 205 294 335q-151 113 -294 334v104q248 -287 448 -399v-79q-216 -151 -448 -399zM468 2v104q139 206 295 335q-150 112 -295 334v104q247 -286 449 -399v-79q-219 -152 -449 -399z" />
<glyph unicode="&#xbc;" horiz-adv-x="1352" d="M117 1193q137 51 238 115h33v-535q0 -33 15.5 -54.5t36.5 -21.5h57q12 0 12 -10v-42q-107 2 -176 2l-200 -2v43q0 9 15 9h73q25 0 43.5 21.5t18.5 54.5v311q0 52 -5.5 69.5t-24.5 17.5q-43 0 -117 -32zM151 -110l939 1340l85 -15l-939 -1341zM779 60l315 447l61 -20 l-259 -381h186v157q0 15 14 36q38 43 54 43q26 0 26 -20v-216h112l-6 -70h-106v-102q0 -29 9 -40t37 -11h32q10 0 10 -9v-41q-87 2 -142 2l-126 -2v42q0 8 10 8h30q29 0 37.5 9t8.5 41v103h-295z" />
<glyph unicode="&#xbd;" horiz-adv-x="1352" d="M122 1193q137 51 238 115h33v-535q0 -33 15.5 -54.5t36.5 -21.5h57q12 0 12 -10v-42q-107 2 -176 2l-200 -2v43q0 9 15 9h73q25 0 43.5 21.5t18.5 54.5v311q0 52 -5.5 69.5t-24.5 17.5q-43 0 -117 -32zM151 -110l939 1340l85 -15l-939 -1341zM826 -161q0 67 49.5 129 t136.5 131q53 42 79 69.5t42.5 67.5t16.5 93q0 64 -35.5 93.5t-73.5 29.5q-60 0 -85 -17.5t-25 -41.5q0 -9 4.5 -25t4.5 -24q0 -22 -19 -35.5t-37 -13.5q-20 0 -37 14.5t-17 34.5q0 22 12 47.5t36.5 51t69.5 42.5t102 17q56 0 103 -14t82 -54t35 -101q0 -67 -44 -122.5 t-138 -122.5q-135 -97 -135 -184h165q23 0 42.5 12.5t34 35.5t23.5 43t19 47l49 -12q-26 -95 -38 -191h-422z" />
<glyph unicode="&#xbe;" horiz-adv-x="1352" d="M75 705q0 15 16.5 27.5t33.5 12.5q29 0 53 -28q28 -37 103 -37q14 0 31.5 3.5t40 15t41 29.5t31 49.5t12.5 71.5q0 41 -17.5 69t-45.5 40t-51 16.5t-47 4.5q-20 0 -41 -4l-4 50q69 9 110 47.5t41 100.5q0 44 -24 63t-59 19q-37 0 -74 -18.5t-39 -52.5q-2 -60 -52 -60 q-18 0 -30 8.5t-15 16.5t-3 13q0 15 13 37.5t38.5 47t74.5 41.5t112 17q80 0 126.5 -32.5t46.5 -87.5q0 -84 -104 -140q61 -6 112.5 -53t51.5 -128q0 -103 -86.5 -168.5t-211.5 -65.5q-63 0 -123.5 22.5t-60.5 52.5zM151 -110l939 1340l85 -15l-939 -1341zM787 65l315 447 l61 -20l-259 -381h186v157q0 15 14 36q38 43 54 43q26 0 26 -20v-216h112l-6 -70h-106v-102q0 -29 9 -40t37 -11h32q10 0 10 -9v-41q-87 2 -142 2l-126 -2v42q0 8 10 8h30q29 0 37.5 9t8.5 41v103h-295z" />
<glyph unicode="&#xbf;" horiz-adv-x="831" d="M76 -161q0 47 14.5 90t33 73t52 63t56 50.5t60.5 45.5q86 63 107 102q37 70 37 150v90q0 21 27 21q25 0 25 -21v-94q0 -34 -1.5 -57t-8.5 -61.5t-20.5 -69t-40.5 -69t-65 -73.5q-66 -60 -95 -111.5t-29 -120.5q0 -102 59.5 -179t146.5 -77q85 0 142 35.5t57 82.5 q0 35 -13 53t-13 49q0 33 24.5 52.5t56.5 19.5t57.5 -20t25.5 -68q0 -100 -103 -185q-95 -79 -254 -79q-156 0 -247 84t-91 224zM353 796q0 45 32 77t77 32t77 -32t32 -77t-32 -77t-77 -32t-77 32t-32 77z" />
<glyph unicode="&#xc0;" horiz-adv-x="1280" d="M5 4v38q0 17 16 17q65 0 97.5 18.5t52.5 70.5l431 1154q18 47 50 47q31 0 48 -48l403 -1149q20 -57 55.5 -75t93.5 -18q17 0 17 -17v-38l-4 -4q-159 4 -239 4l-255 -4l-4 4v38q0 17 16 17h55q100 0 100 52q0 12 -9 41l-66 192h-458q-36 0 -52 -8.5t-23 -27.5l-60 -160 q-15 -38 -15 -54q0 -22 27 -28.5t86 -6.5h36q17 0 17 -17v-38l-4 -4q-149 4 -229 4l-149 -5zM375 1581l156 94l248 -173q31 -23 31 -43q0 -30 -30 -30q-31 0 -88 24zM383 443q0 -19 53 -19h399l-161 458l-65 178l-62 -173l-160 -427q-4 -10 -4 -17z" />
<glyph unicode="&#xc1;" horiz-adv-x="1280" d="M5 4v38q0 17 16 17q65 0 97.5 18.5t52.5 70.5l431 1154q18 47 50 47q31 0 48 -48l403 -1149q20 -57 55.5 -75t93.5 -18q17 0 17 -17v-38l-4 -4q-159 4 -239 4l-255 -4l-4 4v38q0 17 16 17h55q100 0 100 52q0 12 -9 41l-66 192h-458q-36 0 -52 -8.5t-23 -27.5l-60 -160 q-15 -38 -15 -54q0 -22 27 -28.5t86 -6.5h36q17 0 17 -17v-38l-4 -4q-149 4 -229 4l-149 -5zM383 443q0 -19 53 -19h399l-161 458l-65 178l-62 -173l-160 -427q-4 -10 -4 -17zM535 1459q0 21 31 43l254 177l128 -107l-295 -119q-60 -24 -88 -24q-30 0 -30 30z" />
<glyph unicode="&#xc2;" horiz-adv-x="1280" d="M5 4v38q0 17 16 17q65 0 97.5 18.5t52.5 70.5l431 1154q18 47 50 47q31 0 48 -48l403 -1149q20 -57 55.5 -75t93.5 -18q17 0 17 -17v-38l-4 -4q-159 4 -239 4l-255 -4l-4 4v38q0 17 16 17h55q100 0 100 52q0 12 -9 41l-66 192h-458q-36 0 -52 -8.5t-23 -27.5l-60 -160 q-15 -38 -15 -54q0 -22 27 -28.5t86 -6.5h36q17 0 17 -17v-38l-4 -4q-149 4 -229 4l-149 -5zM383 443q0 -19 53 -19h399l-161 458l-65 178l-62 -173l-160 -427q-4 -10 -4 -17zM407 1455q92 70 204 193h88q78 -97 206 -193l-32 -42q-120 53 -218 126q-103 -75 -219 -126z" />
<glyph unicode="&#xc3;" horiz-adv-x="1280" d="M5 4v38q0 17 16 17q65 0 97.5 18.5t52.5 70.5l431 1154q18 47 50 47q31 0 48 -48l403 -1149q20 -57 55.5 -75t93.5 -18q17 0 17 -17v-38l-4 -4q-159 4 -239 4l-255 -4l-4 4v38q0 17 16 17h55q100 0 100 52q0 12 -9 41l-66 192h-458q-36 0 -52 -8.5t-23 -27.5l-60 -160 q-15 -38 -15 -54q0 -22 27 -28.5t86 -6.5h36q17 0 17 -17v-38l-4 -4q-149 4 -229 4l-149 -5zM383 443q0 -19 53 -19h399l-161 458l-65 178l-62 -173l-160 -427q-4 -10 -4 -17zM389 1440q22 93 60 137.5t102 44.5q67 0 148 -57q66 -46 107 -46q35 0 58 23t44 85l49 -13 q-38 -185 -178 -185q-46 0 -130 53q-73 46 -112 46t-62 -23t-38 -75z" />
<glyph unicode="&#xc4;" horiz-adv-x="1280" d="M5 4v38q0 17 16 17q65 0 97.5 18.5t52.5 70.5l431 1154q18 47 50 47q31 0 48 -48l403 -1149q20 -57 55.5 -75t93.5 -18q17 0 17 -17v-38l-4 -4q-159 4 -239 4l-255 -4l-4 4v38q0 17 16 17h55q100 0 100 52q0 12 -9 41l-66 192h-458q-36 0 -52 -8.5t-23 -27.5l-60 -160 q-15 -38 -15 -54q0 -22 27 -28.5t86 -6.5h36q17 0 17 -17v-38l-4 -4q-149 4 -229 4l-149 -5zM326 1408q0 38 27.5 65.5t65.5 27.5t65.5 -27.5t27.5 -65.5t-27.5 -65.5t-65.5 -27.5t-65.5 27.5t-27.5 65.5zM383 443q0 -19 53 -19h399l-161 458l-65 178l-62 -173l-160 -427 q-4 -10 -4 -17zM781 1409q0 38 27.5 65.5t65.5 27.5t65.5 -27.5t27.5 -65.5t-27.5 -65.5t-65.5 -27.5t-65.5 27.5t-27.5 65.5z" />
<glyph unicode="&#xc5;" horiz-adv-x="1424" d="M5 0v38q0 17 16 17h24q59 0 92 27t58 84l478 1121q2 5 6 13q-53 17 -86.5 61.5t-33.5 100.5q0 70 51 120t123 50q71 0 123.5 -49.5t52.5 -120.5q0 -54 -32 -98t-84 -62l6 -15l419 -1110q24 -63 58.5 -92.5t93.5 -29.5h23q7 0 13.5 -4.5t6.5 -12.5v-38l-7 -4 q-156 4 -236 4l-272 -4l-4 4v38q0 17 16 17h57q47 0 71.5 16t24.5 42q0 17 -7 34l-131 353h-431q-36 0 -51.5 -8.5t-23.5 -27.5l-132 -317q-9 -21 -9 -38q0 -54 95 -54h59q17 0 17 -17v-38l-4 -4q-203 4 -253 4l-183 -4zM478 599q0 -19 53 -19h365l-202 546l-212 -510 q-4 -9 -4 -17zM624 1462q0 -45 31.5 -80t78.5 -35t78.5 35t31.5 80q0 47 -32.5 81t-77.5 34q-46 0 -78 -34.5t-32 -80.5z" />
<glyph unicode="&#xc6;" horiz-adv-x="1772" d="M5 0v39q0 16 20 16h46q45 0 69.5 17.5t53.5 71.5l546 1038q8 15 8 29q0 24 -20.5 39t-45.5 15h-64q-16 0 -16 14v41l4 4l360 -4h159h455q13 -156 43 -314l-60 -10q-17 53 -27.5 81t-30 64.5t-41.5 54.5t-56.5 31t-79.5 13h-206q-35 0 -54.5 -26.5t-19.5 -65.5v-405h210 q50 0 71 21.5t32 69.5l14 61q2 17 15 17h45q7 0 7 -9q-16 -117 -16 -195q0 -84 16 -196l-5 -7h-47q-15 0 -17 15l-12 63q-9 47 -31.5 68.5t-71.5 21.5h-210v-522q0 -71 74 -71h269q56 0 99.5 20.5t73 61t48.5 84.5t36 106l62 -10q-42 -196 -54 -342h-691l-265 -4l-4 4v36 q0 19 16 19h54q60 0 86 23.5t26 68.5v397h-366l-216 -404q-26 -49 -26 -62t14.5 -18t51.5 -5h60q12 0 12 -12v-43l-3 -4q-132 4 -212 4l-185 -4zM554 624h324v554q0 35 -3 46z" />
<glyph unicode="&#xc7;" horiz-adv-x="1319" d="M75 645q0 147 54.5 279t145 224t209.5 145.5t245 53.5q85 0 159 -13.5t115.5 -30t89.5 -31.5t85 -17q9 -128 45 -316l-62 -10q-103 343 -455 343q-51 0 -109.5 -20.5t-120 -67.5t-111 -113t-81 -167t-31.5 -220q0 -91 18.5 -179.5t57 -169t93 -142t133.5 -97.5t171 -36 q142 0 253 53.5t221 172.5l47 -30q-97 -127 -220 -198.5t-260 -81.5l-37 -90q24 6 53 6q63 0 104 -34.5t41 -92.5q0 -65 -61.5 -105t-156.5 -40q-74 0 -153 35l22 45q77 -28 117 -28q50 0 86.5 22.5t36.5 61.5q0 32 -24.5 52t-60.5 20q-50 0 -92 -14l-13 13l68 149 q-123 4 -226 44.5t-175 105t-122.5 149.5t-74.5 178.5t-24 191.5z" />
<glyph unicode="&#xc8;" horiz-adv-x="1167" d="M25 0v41q0 14 16 14h61q59 0 82.5 22.5t23.5 67.5v1026q0 49 -24 70.5t-82 21.5h-61q-16 0 -16 14v41l4 4l262 -4l159 2l390 2q13 -163 43 -318l-60 -10q-12 38 -19 58.5t-20 51t-24 47t-28.5 36.5t-37.5 29.5t-47 16.5t-59 7h-141q-38 0 -56 -15.5t-18 -51.5v-409h204 q50 0 71 21.5t32 69.5l14 61q2 17 15 17h45q7 0 7 -9q-16 -117 -16 -195q0 -84 16 -196l-5 -7h-47q-15 0 -17 15l-12 63q-9 47 -31.5 68.5t-71.5 21.5h-204v-549q0 -38 18.5 -52.5t55.5 -14.5h339q56 0 99.5 20t73 59.5t48.5 83.5t36 105l62 -10q-43 -198 -54 -338h-602 l-159 2l-262 -4zM345 1581l156 94l248 -173q31 -23 31 -43q0 -30 -30 -30q-31 0 -88 24z" />
<glyph unicode="&#xc9;" horiz-adv-x="1167" d="M25 0v41q0 14 16 14h61q59 0 82.5 22.5t23.5 67.5v1026q0 49 -24 70.5t-82 21.5h-61q-16 0 -16 14v41l4 4l262 -4l159 2l390 2q13 -163 43 -318l-60 -10q-12 38 -19 58.5t-20 51t-24 47t-28.5 36.5t-37.5 29.5t-47 16.5t-59 7h-141q-38 0 -56 -15.5t-18 -51.5v-409h204 q50 0 71 21.5t32 69.5l14 61q2 17 15 17h45q7 0 7 -9q-16 -117 -16 -195q0 -84 16 -196l-5 -7h-47q-15 0 -17 15l-12 63q-9 47 -31.5 68.5t-71.5 21.5h-204v-549q0 -38 18.5 -52.5t55.5 -14.5h339q56 0 99.5 20t73 59.5t48.5 83.5t36 105l62 -10q-43 -198 -54 -338h-602 l-159 2l-262 -4zM432 1461q0 21 31 43l254 177l128 -107l-295 -119q-60 -24 -88 -24q-30 0 -30 30z" />
<glyph unicode="&#xca;" horiz-adv-x="1167" d="M25 0v41q0 14 16 14h61q59 0 82.5 22.5t23.5 67.5v1026q0 49 -24 70.5t-82 21.5h-61q-16 0 -16 14v41l4 4l262 -4l159 2l390 2q13 -163 43 -318l-60 -10q-12 38 -19 58.5t-20 51t-24 47t-28.5 36.5t-37.5 29.5t-47 16.5t-59 7h-141q-38 0 -56 -15.5t-18 -51.5v-409h204 q50 0 71 21.5t32 69.5l14 61q2 17 15 17h45q7 0 7 -9q-16 -117 -16 -195q0 -84 16 -196l-5 -7h-47q-15 0 -17 15l-12 63q-9 47 -31.5 68.5t-71.5 21.5h-204v-549q0 -38 18.5 -52.5t55.5 -14.5h339q56 0 99.5 20t73 59.5t48.5 83.5t36 105l62 -10q-43 -198 -54 -338h-602 l-159 2l-262 -4zM358 1456q92 70 204 193h88q78 -97 206 -193l-32 -42q-120 52 -218 126q-103 -75 -219 -126z" />
<glyph unicode="&#xcb;" horiz-adv-x="1167" d="M25 0v41q0 14 16 14h61q59 0 82.5 22.5t23.5 67.5v1026q0 49 -24 70.5t-82 21.5h-61q-16 0 -16 14v41l4 4l262 -4l159 2l390 2q13 -163 43 -318l-60 -10q-12 38 -19 58.5t-20 51t-24 47t-28.5 36.5t-37.5 29.5t-47 16.5t-59 7h-141q-38 0 -56 -15.5t-18 -51.5v-409h204 q50 0 71 21.5t32 69.5l14 61q2 17 15 17h45q7 0 7 -9q-16 -117 -16 -195q0 -84 16 -196l-5 -7h-47q-15 0 -17 15l-12 63q-9 47 -31.5 68.5t-71.5 21.5h-204v-549q0 -38 18.5 -52.5t55.5 -14.5h339q56 0 99.5 20t73 59.5t48.5 83.5t36 105l62 -10q-43 -198 -54 -338h-602 l-159 2l-262 -4zM303 1536q0 38 27.5 65.5t65.5 27.5t65.5 -27.5t27.5 -65.5t-27.5 -65.5t-65.5 -27.5t-65.5 27.5t-27.5 65.5zM691 1537q0 38 27.5 65.5t65.5 27.5t65.5 -27.5t27.5 -65.5t-27.5 -65.5t-65.5 -27.5t-65.5 27.5t-27.5 65.5z" />
<glyph unicode="&#xcc;" horiz-adv-x="601" d="M35 0v38q0 17 16 17h54q61 0 86.5 22t25.5 67v1050q0 46 -7 57.5t-31 11.5h-30q-17 0 -17 17v38l4 4q80 -4 160 -4l158 4l4 -4v-38q0 -17 -16 -17h-26q-24 0 -29 -11.5t-5 -57.5v-1050q0 -48 26 -68.5t86 -20.5h54q17 0 17 -17v-38l-4 -4q-178 4 -258 4l-264 -4zM47 1581 l156 94l248 -173q31 -23 31 -43q0 -30 -30 -30q-31 0 -88 24z" />
<glyph unicode="&#xcd;" horiz-adv-x="601" d="M35 0v38q0 17 16 17h54q61 0 86.5 22t25.5 67v1050q0 46 -7 57.5t-31 11.5h-30q-17 0 -17 17v38l4 4q80 -4 160 -4l158 4l4 -4v-38q0 -17 -16 -17h-26q-24 0 -29 -11.5t-5 -57.5v-1050q0 -48 26 -68.5t86 -20.5h54q17 0 17 -17v-38l-4 -4q-178 4 -258 4l-264 -4z M145 1459q0 21 31 43l254 177l128 -107l-295 -119q-60 -24 -88 -24q-30 0 -30 30z" />
<glyph unicode="&#xce;" horiz-adv-x="601" d="M35 0v38q0 17 16 17h54q61 0 86.5 22t25.5 67v1050q0 46 -7 57.5t-31 11.5h-30q-17 0 -17 17v38l4 4q80 -4 160 -4l158 4l4 -4v-38q0 -17 -16 -17h-26q-24 0 -29 -11.5t-5 -57.5v-1050q0 -48 26 -68.5t86 -20.5h54q17 0 17 -17v-38l-4 -4q-178 4 -258 4l-264 -4zM51 1456 q92 70 204 193h88q78 -97 206 -193l-32 -42q-120 52 -218 126q-103 -75 -219 -126z" />
<glyph unicode="&#xcf;" horiz-adv-x="601" d="M13 1533q0 38 27.5 65.5t65.5 27.5t65.5 -27.5t27.5 -65.5t-27.5 -65.5t-65.5 -27.5t-65.5 27.5t-27.5 65.5zM35 0v38q0 17 16 17h54q61 0 86.5 22t25.5 67v1050q0 46 -7 57.5t-31 11.5h-30q-17 0 -17 17v38l4 4q80 -4 160 -4l158 4l4 -4v-38q0 -17 -16 -17h-26 q-24 0 -29 -11.5t-5 -57.5v-1050q0 -48 26 -68.5t86 -20.5h54q17 0 17 -17v-38l-4 -4q-178 4 -258 4l-264 -4zM401 1534q0 38 27.5 65.5t65.5 27.5t65.5 -27.5t27.5 -65.5t-27.5 -65.5t-65.5 -27.5t-65.5 27.5t-27.5 65.5z" />
<glyph unicode="&#xd0;" horiz-adv-x="1428" d="M35 0v37q0 18 15 18h61q57 0 81.5 23t24.5 73v437h-182v80h182v503q0 56 -21 75t-85 19h-58q-18 0 -18 18v37l3 4l258 -4q66 0 168 2t168 2q194 0 357 -93.5t257 -253t94 -346.5q0 -145 -42.5 -258.5t-109.5 -183t-158 -114.5t-179 -62t-182 -17q-113 0 -210.5 2 t-162.5 2q-166 0 -258 -4zM382 147q0 -35 15 -51t61.5 -23t148.5 -7q92 0 168 13.5t148 49t121 92.5t78.5 148.5t29.5 211.5q0 99 -19 191.5t-64 181.5t-112 154.5t-170 105.5t-231 40q-44 0 -71 -2t-53 -9.5t-38 -24.5t-12 -43v-507h207v-80h-207v-441z" />
<glyph unicode="&#xd1;" horiz-adv-x="1312" d="M18 0v37q0 8 9 13t18 5h54q57 0 84 36.5t27 84.5v1084q0 60 43 60q50 -2 81 -44q22 -27 196.5 -275t336 -473.5t168.5 -225.5q14 0 14 78v759q0 51 -26 88t-84 37h-54q-9 0 -18 4.5t-9 12.5v38l10 4q152 -4 225 -4l227 4l4 -4v-38q0 -17 -17 -17h-54q-57 0 -84.5 -35.5 t-27.5 -89.5l-1 -1079q0 -60 -43 -60q-50 2 -81 44q-22 27 -196.5 275t-336 473.5t-168.5 225.5q-14 0 -14 -78v-761q0 -52 27.5 -88t84.5 -36h54q17 0 17 -17v-38l-4 -4q-147 4 -227 4l-220 -4zM436 1440q22 93 60 137.5t102 44.5q67 0 148 -57q66 -46 107 -46q35 0 58 23 t44 85l49 -13q-38 -185 -178 -185q-46 0 -130 53q-73 46 -112 46t-62 -23t-38 -75z" />
<glyph unicode="&#xd2;" horiz-adv-x="1458" d="M75 657q0 199 85 359.5t234.5 251.5t334.5 91t334.5 -91t234.5 -251.5t85 -359.5q0 -122 -51.5 -243t-137.5 -215.5t-208.5 -153t-255.5 -58.5q-107 0 -208 38t-180.5 103.5t-140.5 150t-93.5 182.5t-32.5 196zM253 696q0 -114 32.5 -224t91.5 -200t151.5 -145t203.5 -55 q89 0 166 36t132.5 97.5t95.5 141.5t59.5 169t19.5 180q0 157 -58.5 290.5t-168 215.5t-247.5 82q-9 0 -27 -1.5t-67 -13t-94.5 -32t-100.5 -64.5t-95 -103.5t-67 -156.5t-27 -217zM465 1584l156 94l248 -173q31 -23 31 -43q0 -30 -30 -30q-31 0 -88 24z" />
<glyph unicode="&#xd3;" horiz-adv-x="1458" d="M75 657q0 199 85 359.5t234.5 251.5t334.5 91t334.5 -91t234.5 -251.5t85 -359.5q0 -122 -51.5 -243t-137.5 -215.5t-208.5 -153t-255.5 -58.5q-107 0 -208 38t-180.5 103.5t-140.5 150t-93.5 182.5t-32.5 196zM253 696q0 -114 32.5 -224t91.5 -200t151.5 -145t203.5 -55 q89 0 166 36t132.5 97.5t95.5 141.5t59.5 169t19.5 180q0 157 -58.5 290.5t-168 215.5t-247.5 82q-9 0 -27 -1.5t-67 -13t-94.5 -32t-100.5 -64.5t-95 -103.5t-67 -156.5t-27 -217zM507 1461q0 21 31 43l254 177l128 -107l-295 -119q-60 -24 -88 -24q-30 0 -30 30z" />
<glyph unicode="&#xd4;" horiz-adv-x="1458" d="M75 657q0 199 85 359.5t234.5 251.5t334.5 91t334.5 -91t234.5 -251.5t85 -359.5q0 -122 -51.5 -243t-137.5 -215.5t-208.5 -153t-255.5 -58.5q-107 0 -208 38t-180.5 103.5t-140.5 150t-93.5 182.5t-32.5 196zM253 696q0 -114 32.5 -224t91.5 -200t151.5 -145t203.5 -55 q89 0 166 36t132.5 97.5t95.5 141.5t59.5 169t19.5 180q0 157 -58.5 290.5t-168 215.5t-247.5 82q-9 0 -27 -1.5t-67 -13t-94.5 -32t-100.5 -64.5t-95 -103.5t-67 -156.5t-27 -217zM493 1456q92 70 204 193h88q78 -97 206 -193l-32 -42q-120 52 -218 126q-103 -75 -219 -126 z" />
<glyph unicode="&#xd5;" horiz-adv-x="1458" d="M75 657q0 199 85 359.5t234.5 251.5t334.5 91t334.5 -91t234.5 -251.5t85 -359.5q0 -122 -51.5 -243t-137.5 -215.5t-208.5 -153t-255.5 -58.5q-107 0 -208 38t-180.5 103.5t-140.5 150t-93.5 182.5t-32.5 196zM253 696q0 -114 32.5 -224t91.5 -200t151.5 -145t203.5 -55 q89 0 166 36t132.5 97.5t95.5 141.5t59.5 169t19.5 180q0 157 -58.5 290.5t-168 215.5t-247.5 82q-9 0 -27 -1.5t-67 -13t-94.5 -32t-100.5 -64.5t-95 -103.5t-67 -156.5t-27 -217zM463 1440q22 93 60 137.5t102 44.5q67 0 148 -57q66 -46 107 -46q35 0 58 23t44 85l49 -13 q-38 -185 -178 -185q-46 0 -130 53q-73 46 -112 46t-62 -23t-38 -75z" />
<glyph unicode="&#xd6;" horiz-adv-x="1458" d="M75 657q0 199 85 359.5t234.5 251.5t334.5 91t334.5 -91t234.5 -251.5t85 -359.5q0 -122 -51.5 -243t-137.5 -215.5t-208.5 -153t-255.5 -58.5q-107 0 -208 38t-180.5 103.5t-140.5 150t-93.5 182.5t-32.5 196zM224 1409q0 38 27.5 65.5t65.5 27.5t65.5 -27.5t27.5 -65.5 t-27.5 -65.5t-65.5 -27.5t-65.5 27.5t-27.5 65.5zM253 696q0 -114 32.5 -224t91.5 -200t151.5 -145t203.5 -55q89 0 166 36t132.5 97.5t95.5 141.5t59.5 169t19.5 180q0 157 -58.5 290.5t-168 215.5t-247.5 82q-9 0 -27 -1.5t-67 -13t-94.5 -32t-100.5 -64.5t-95 -103.5 t-67 -156.5t-27 -217zM1055 1403q0 38 27.5 65.5t65.5 27.5t65.5 -27.5t27.5 -65.5t-27.5 -65.5t-65.5 -27.5t-65.5 27.5t-27.5 65.5z" />
<glyph unicode="&#xd7;" horiz-adv-x="1080" d="M218 221l250 250l-250 251l72 72l250 -251l250 251l72 -71l-251 -252l251 -250l-72 -71l-250 250l-250 -250z" />
<glyph unicode="&#xd8;" horiz-adv-x="1431" d="M75 635q0 199 82 362t228 256.5t326 93.5q235 0 405 -134l130 160l59 -50l-131 -162q87 -90 134.5 -214t47.5 -273q0 -204 -78.5 -362.5t-225.5 -247.5t-339 -89q-227 0 -396 130l-152 -187l-59 54l151 186q-86 88 -134 209.5t-48 267.5zM263 670q0 -222 98 -384l674 828 q-128 163 -350 163q-61 0 -119.5 -21.5t-114 -69t-97 -116.5t-66.5 -172.5t-25 -227.5zM409 218q69 -83 159 -128t185 -45q180 0 297.5 160t117.5 429q0 251 -88 412z" />
<glyph unicode="&#xd9;" horiz-adv-x="1352" d="M0 1286v38l4 4q178 -4 258 -4l264 4l4 -4v-38q0 -17 -16 -17h-54q-61 0 -86.5 -22t-25.5 -67v-606q0 -66 2 -104t11.5 -94.5t33 -102t62.5 -84.5q104 -103 215 -103q14 0 29 2q98 11 163 47t149 117v927q0 46 -21.5 68t-73.5 22h-42q-19 0 -19 17v38l5 4q151 -4 237 -4 l228 4l5 -4v-38q0 -17 -18 -17h-42q-53 0 -73.5 -22t-20.5 -68v-929q0 -81 11.5 -103.5t37.5 -22.5q45 0 93 10l11 -56q-102 -16 -142.5 -26.5t-87.5 -32.5q-36 -17 -55 -17h-33l6 177h-6q-184 -177 -356 -177q-61 0 -120 11.5t-125.5 46t-115 88t-81 146t-32.5 212.5v674 q0 48 -26 68.5t-86 20.5h-54q-17 0 -17 17zM408 1583l156 94l248 -173q31 -23 31 -43q0 -30 -30 -30q-31 0 -88 24z" />
<glyph unicode="&#xda;" horiz-adv-x="1352" d="M0 1286v38l4 4q178 -4 258 -4l264 4l4 -4v-38q0 -17 -16 -17h-54q-61 0 -86.5 -22t-25.5 -67v-606q0 -66 2 -104t11.5 -94.5t33 -102t62.5 -84.5q104 -103 215 -103q14 0 29 2q98 11 163 47t149 117v927q0 46 -21.5 68t-73.5 22h-42q-19 0 -19 17v38l5 4q151 -4 237 -4 l228 4l5 -4v-38q0 -17 -18 -17h-42q-53 0 -73.5 -22t-20.5 -68v-929q0 -81 11.5 -103.5t37.5 -22.5q45 0 93 10l11 -56q-102 -16 -142.5 -26.5t-87.5 -32.5q-36 -17 -55 -17h-33l6 177h-6q-184 -177 -356 -177q-61 0 -120 11.5t-125.5 46t-115 88t-81 146t-32.5 212.5v674 q0 48 -26 68.5t-86 20.5h-54q-17 0 -17 17zM544 1459q0 21 31 43l254 177l128 -107l-295 -119q-60 -24 -88 -24q-30 0 -30 30z" />
<glyph unicode="&#xdb;" horiz-adv-x="1352" d="M0 1286v38l4 4q178 -4 258 -4l264 4l4 -4v-38q0 -17 -16 -17h-54q-61 0 -86.5 -22t-25.5 -67v-606q0 -66 2 -104t11.5 -94.5t33 -102t62.5 -84.5q104 -103 215 -103q14 0 29 2q98 11 163 47t149 117v927q0 46 -21.5 68t-73.5 22h-42q-19 0 -19 17v38l5 4q151 -4 237 -4 l228 4l5 -4v-38q0 -17 -18 -17h-42q-53 0 -73.5 -22t-20.5 -68v-929q0 -81 11.5 -103.5t37.5 -22.5q45 0 93 10l11 -56q-102 -16 -142.5 -26.5t-87.5 -32.5q-36 -17 -55 -17h-33l6 177h-6q-184 -177 -356 -177q-61 0 -120 11.5t-125.5 46t-115 88t-81 146t-32.5 212.5v674 q0 48 -26 68.5t-86 20.5h-54q-17 0 -17 17zM467 1456q92 70 204 193h88q78 -97 206 -193l-32 -42q-120 52 -218 126q-103 -75 -219 -126z" />
<glyph unicode="&#xdc;" horiz-adv-x="1354" d="M21 1282v38l4 4q156 -4 236 -4q41 0 187 4q12 0 12 -22v-20q0 -15 -16 -17q-58 -8 -77.5 -30.5t-19.5 -68.5v-619q0 -66 2 -104t11.5 -94.5t33 -102t62.5 -84.5q105 -103 244 -103q72 0 129.5 16.5t96.5 43t67.5 67.5t44 82t25 95.5t12 99.5t2.5 101v602q0 46 -22 67.5 t-76 31.5q-17 4 -17 17v23q0 8 6.5 13.5t11.5 5.5q112 -4 144 -4l206 4l4 -4v-38q0 -17 -51 -17q-112 0 -112 -94v-571q0 -116 -13 -205.5t-47.5 -171t-91 -134.5t-148.5 -83.5t-215 -30.5q-61 0 -120 11.5t-125.5 46t-115 88t-81 146t-32.5 212.5v692q0 29 -12 49t-34 29 t-45 12.5t-53 3.5q-17 0 -17 17zM475 1407q0 38 27.5 65.5t65.5 27.5t64 -27t26 -66t-26 -66t-64 -27t-65.5 27.5t-27.5 65.5zM771 1406q0 39 26 66t64 27t65.5 -27.5t27.5 -65.5t-27.5 -65.5t-65.5 -27.5t-64 27t-26 66z" />
<glyph unicode="&#xdd;" horiz-adv-x="1177" d="M0 1280v41l3 3q190 -4 217 -4l234 4l3 -3v-39q0 -17 -13 -17h-58q-29 0 -40.5 -6t-11.5 -20q0 -17 25 -60l286 -480l260 480q23 43 23 59t-10 21.5t-42 5.5h-60q-12 1 -12 15v40l3 4q162 -4 188 -4l179 4l3 -3v-40q0 -16 -19 -16h-44q-45 0 -71 -19.5t-53 -70.5 l-305 -575v-453q0 -48 26 -70t86 -22h54q17 0 17 -17v-38l-4 -4q-178 4 -258 4l-264 -4l-4 4v38q0 17 16 17h54q60 0 86 23.5t26 68.5v429l-348 599q-32 59 -68 81q-13 9 -58 9h-25q-21 3 -21 15zM451 1461q0 21 31 43l254 177l128 -107l-295 -119q-60 -24 -88 -24 q-30 0 -30 30z" />
<glyph unicode="&#xde;" horiz-adv-x="1072" d="M18 1282v38l4 4q178 -4 258 -4l264 4l4 -4v-38q0 -17 -16 -17h-54q-61 0 -86.5 -21.5t-25.5 -66.5v-114q100 4 184 4q109 0 192 -24.5t131 -61.5t78.5 -88t40.5 -96.5t10 -94.5t-14.5 -100t-50 -104t-88 -93.5t-137.5 -66.5t-189 -26q-116 0 -157 14v-179q0 -48 26 -70 t86 -22h54q17 0 17 -17v-38l-4 -4q-178 4 -258 4l-264 -4l-4 4v38q0 17 16 17h54q60 0 86 23.5t26 68.5v1030q0 47 -26 67.5t-86 20.5h-54q-17 0 -17 17zM366 385q32 -10 146 -10q47 0 89.5 8.5t85 31.5t72.5 58.5t49 94.5t19 135q0 71 -17.5 125.5t-45 87t-65.5 53 t-74.5 28t-76.5 7.5q-31 0 -90.5 -7t-91.5 -15v-597z" />
<glyph unicode="&#xdf;" horiz-adv-x="1096" d="M45 0v38q0 17 16 17h39q49 0 68.5 23t19.5 69v630q0 19 -5 25t-26 6h-90q-11 0 -11 12v18q0 15 11.5 27.5t35.5 12.5q85 0 85 99q0 97 27.5 176t70.5 129t98.5 84.5t108.5 48.5t104 14q147 0 225.5 -70.5t78.5 -156.5q0 -57 -18 -106t-57 -94.5t-76.5 -78.5t-101.5 -81 v-5q43 -28 71 -47.5t70 -52t69.5 -60t59 -66t50 -76t31 -85t12.5 -96.5q0 -163 -88 -271t-227 -108q-61 0 -105 17.5t-66.5 47.5t-32 62.5t-9.5 69.5q0 25 20 48t43 23q59 0 59 -61q0 -19 -9 -42.5t-9 -34.5q0 -22 9.5 -36t28.5 -20t34 -7.5t37 -1.5q51 0 93.5 75t42.5 205 q0 135 -83.5 260t-224.5 232v26q114 88 164.5 160.5t50.5 177.5q0 86 -40.5 137t-119.5 51q-52 0 -91.5 -18t-65 -52.5t-42.5 -75t-25 -96.5t-11 -105t-3 -111v-730q0 -55 24 -88t66 -33q17 0 17 -17v-38l-4 -4q-103 4 -183 4l-212 -4z" />
<glyph unicode="&#xe0;" horiz-adv-x="925" d="M50 424q0 135 51 244t147 173t218 64q156 0 256 -88l31 50q25 38 44 38q26 0 26 -50v-610q0 -84 8 -108q4 -13 17.5 -21.5t27.5 -8.5q70 0 101 5l8 -56q-109 -20 -174 -38t-95 -43h-49l3 67q-82 -67 -213 -67q-85 0 -155 28.5t-116 74.5t-77.5 106t-45 120t-13.5 120z M206 465q0 -89 20 -160t51 -115t72 -73t79.5 -40.5t77.5 -11.5q103 0 164 45v578q-90 147 -212 147q-119 0 -185.5 -102.5t-66.5 -267.5zM250 1308l5 22q59 48 133 48q18 0 30 -5l143 -257q13 -24 13 -49q0 -8 -9 -15t-21 -7q-16 0 -59 40z" />
<glyph unicode="&#xe1;" horiz-adv-x="1001" d="M50 424q0 135 51 244t147 173t218 64q156 0 256 -88l31 50q25 38 44 38q26 0 26 -50v-610q0 -84 8 -108q4 -13 17.5 -21.5t27.5 -8.5q70 0 101 5l8 -56q-109 -20 -174 -38t-95 -43h-49l3 67q-82 -67 -213 -67q-85 0 -155 28.5t-116 74.5t-77.5 106t-45 120t-13.5 120z M206 465q0 -89 20 -160t51 -115t72 -73t79.5 -40.5t77.5 -11.5q103 0 164 45v578q-90 147 -212 147q-119 0 -185.5 -102.5t-66.5 -267.5zM378 1061q0 26 13 46l163 257q12 5 30 5q60 0 100 -38l13 -10l5 -22l-235 -223q-43 -40 -59 -40q-12 0 -21 7.5t-9 17.5z" />
<glyph unicode="&#xe2;" horiz-adv-x="1001" d="M50 424q0 135 51 244t147 173t218 64q156 0 256 -88l31 50q25 38 44 38q26 0 26 -50v-610q0 -84 8 -108q4 -13 17.5 -21.5t27.5 -8.5q70 0 101 5l8 -56q-109 -20 -174 -38t-95 -43h-49l3 67q-82 -67 -213 -67q-85 0 -155 28.5t-116 74.5t-77.5 106t-45 120t-13.5 120z M205 1058q147 166 210 264h102q62 -102 207 -264l-42 -29q-149 110 -218 184q-87 -89 -218 -184zM206 465q0 -89 20 -160t51 -115t72 -73t79.5 -40.5t77.5 -11.5q103 0 164 45v578q-90 147 -212 147q-119 0 -185.5 -102.5t-66.5 -267.5z" />
<glyph unicode="&#xe3;" horiz-adv-x="1001" d="M50 424q0 135 51 244t147 173t218 64q156 0 256 -88l31 50q25 38 44 38q26 0 26 -50v-610q0 -84 8 -108q4 -13 17.5 -21.5t27.5 -8.5q70 0 101 5l8 -56q-109 -20 -174 -38t-95 -43h-49l3 67q-82 -67 -213 -67q-85 0 -155 28.5t-116 74.5t-77.5 106t-45 120t-13.5 120z M190 1087q22 93 60 137.5t102 44.5q67 0 148 -57q66 -46 107 -46q35 0 58 23t44 85l49 -13q-38 -185 -178 -185q-46 0 -130 53q-73 46 -112 46t-62 -23t-38 -75zM206 465q0 -89 20 -160t51 -115t72 -73t79.5 -40.5t77.5 -11.5q103 0 164 45v578q-90 147 -212 147 q-119 0 -185.5 -102.5t-66.5 -267.5z" />
<glyph unicode="&#xe4;" horiz-adv-x="1001" d="M50 424q0 135 51 244t147 173t218 64q156 0 256 -88l31 50q25 38 44 38q26 0 26 -50v-610q0 -84 8 -108q4 -13 17.5 -21.5t27.5 -8.5q70 0 101 5l8 -56q-109 -20 -174 -38t-95 -43h-49l3 67q-82 -67 -213 -67q-85 0 -155 28.5t-116 74.5t-77.5 106t-45 120t-13.5 120z M206 465q0 -89 20 -160t51 -115t72 -73t79.5 -40.5t77.5 -11.5q103 0 164 45v578q-90 147 -212 147q-119 0 -185.5 -102.5t-66.5 -267.5zM210 1172q0 38 27.5 65.5t65.5 27.5t65.5 -27.5t27.5 -65.5t-27.5 -65.5t-65.5 -27.5t-65.5 27.5t-27.5 65.5zM539 1172 q0 38 27.5 65.5t65.5 27.5t65.5 -27.5t27.5 -65.5t-27.5 -65.5t-65.5 -27.5t-65.5 27.5t-27.5 65.5z" />
<glyph unicode="&#xe5;" horiz-adv-x="1001" d="M50 424q0 135 51 244t147 173t218 64q156 0 256 -88l31 50q25 38 44 38q26 0 26 -50v-610q0 -84 8 -108q4 -13 17.5 -21.5t27.5 -8.5q70 0 101 5l8 -56q-109 -20 -174 -38t-95 -43h-49l3 67q-82 -67 -213 -67q-85 0 -155 28.5t-116 74.5t-77.5 106t-45 120t-13.5 120z M206 465q0 -89 20 -160t51 -115t72 -73t79.5 -40.5t77.5 -11.5q103 0 164 45v578q-90 147 -212 147q-119 0 -185.5 -102.5t-66.5 -267.5zM290 1193q0 70 51 120t123 50q71 0 123.5 -49.5t52.5 -120.5q0 -69 -51.5 -119.5t-124.5 -50.5q-71 0 -122.5 49.5t-51.5 120.5z M355 1193q0 -45 31.5 -80t78.5 -35t78.5 35t31.5 80q0 47 -32 81t-78 34t-78 -34.5t-32 -80.5z" />
<glyph unicode="&#xe6;" horiz-adv-x="1409" d="M80 213q0 141 131 210.5t400 87.5q-2 120 -18 183.5t-50 97.5q-51 51 -119 51q-66 0 -119.5 -24.5t-53.5 -68.5q0 -32 7 -42q7 -12 7 -37t-22 -46t-58 -21q-44 0 -63.5 27.5t-19.5 64.5q0 88 99 148.5t229 60.5q28 0 56 -3.5t73 -16t85.5 -44.5t67.5 -80 q51 69 127.5 106.5t164.5 37.5q83 0 148.5 -22t102 -55t55 -66t18.5 -62q0 -85 -49 -134t-171 -77.5t-349 -41.5q1 -160 82.5 -265.5t198.5 -105.5q80 0 134.5 27.5t103.5 85.5l34 -21q-46 -87 -124.5 -140t-176.5 -53q-200 0 -315 142q-45 -63 -123.5 -102.5t-162.5 -39.5 q-158 0 -244 65.5t-86 172.5zM228 223q0 -73 45.5 -117t139.5 -44q60 0 107.5 34t71.5 106q17 51 19 238q-185 -15 -284 -75t-99 -142zM762 519q224 12 317 49t93 127q0 52 -50 96t-120 44q-101 0 -164 -89t-76 -227z" />
<glyph unicode="&#xe7;" horiz-adv-x="826" d="M75 427q0 212 117 345t287 133q140 0 220.5 -61.5t80.5 -147.5q0 -43 -22.5 -66t-56.5 -23q-36 0 -61.5 18t-29.5 54q-3 33 -8.5 54.5t-19.5 48t-42.5 40t-71.5 13.5q-102 0 -168.5 -100.5t-66.5 -263.5q0 -176 83.5 -291t204.5 -115q125 0 229 150l36 -29 q-65 -113 -140 -162t-170 -49h-19l-31 -75q24 6 53 6q63 0 104 -34.5t41 -92.5q0 -65 -61.5 -105t-156.5 -40q-74 0 -153 35l22 45q77 -28 117 -28q50 0 86.5 22.5t36.5 61.5q0 32 -24.5 52t-60.5 20q-50 0 -92 -14l-13 13l65 142q-146 29 -230.5 149t-84.5 295z" />
<glyph unicode="&#xe8;" horiz-adv-x="957" d="M70 408q0 112 35 208t92 158t128 96.5t145 34.5q88 0 153 -29t101.5 -79.5t54.5 -106.5t23 -122h111q16 0 16 -12v-42q0 -13 -15 -20t-33 -7h-115h-539q-2 -22 -2 -41q0 -153 89.5 -261.5t204.5 -108.5q82 0 141 27.5t114 87.5l41 -34q-60 -83 -149.5 -132.5 t-195.5 -49.5q-102 0 -181 36t-125.5 97.5t-70 137.5t-23.5 162zM234 567h376q30 0 30 28q0 68 -16 117.5t-42.5 75t-54.5 36.5t-59 11q-19 0 -39.5 -3.5t-53 -19.5t-58.5 -42.5t-49.5 -79t-33.5 -123.5zM261 1308l5 22q59 48 133 48q18 0 30 -5l143 -257q13 -24 13 -49 q0 -8 -9 -15t-21 -7q-16 0 -59 40z" />
<glyph unicode="&#xe9;" horiz-adv-x="957" d="M70 408q0 112 35 208t92 158t128 96.5t145 34.5q88 0 153 -29t101.5 -79.5t54.5 -106.5t23 -122h111q16 0 16 -12v-42q0 -13 -15 -20t-33 -7h-115h-539q-2 -22 -2 -41q0 -153 89.5 -261.5t204.5 -108.5q82 0 141 27.5t114 87.5l41 -34q-60 -83 -149.5 -132.5 t-195.5 -49.5q-102 0 -181 36t-125.5 97.5t-70 137.5t-23.5 162zM234 567h376q30 0 30 28q0 68 -16 117.5t-42.5 75t-54.5 36.5t-59 11q-19 0 -39.5 -3.5t-53 -19.5t-58.5 -42.5t-49.5 -79t-33.5 -123.5zM376 1070q0 26 13 46l163 257q12 5 30 5q60 0 100 -38l13 -10l5 -22 l-235 -223q-43 -40 -59 -40q-12 0 -21 7.5t-9 17.5z" />
<glyph unicode="&#xea;" horiz-adv-x="957" d="M70 408q0 112 35 208t92 158t128 96.5t145 34.5q88 0 153 -29t101.5 -79.5t54.5 -106.5t23 -122h111q16 0 16 -12v-42q0 -13 -15 -20t-33 -7h-115h-539q-2 -22 -2 -41q0 -153 89.5 -261.5t204.5 -108.5q82 0 141 27.5t114 87.5l41 -34q-60 -83 -149.5 -132.5 t-195.5 -49.5q-102 0 -181 36t-125.5 97.5t-70 137.5t-23.5 162zM217 1058q147 166 210 264h102q62 -102 207 -264l-42 -29q-149 110 -218 184q-87 -89 -218 -184zM234 567h376q30 0 30 28q0 68 -16 117.5t-42.5 75t-54.5 36.5t-59 11q-19 0 -39.5 -3.5t-53 -19.5 t-58.5 -42.5t-49.5 -79t-33.5 -123.5z" />
<glyph unicode="&#xeb;" horiz-adv-x="957" d="M70 408q0 112 35 208t92 158t128 96.5t145 34.5q88 0 153 -29t101.5 -79.5t54.5 -106.5t23 -122h111q16 0 16 -12v-42q0 -13 -15 -20t-33 -7h-115h-539q-2 -22 -2 -41q0 -153 89.5 -261.5t204.5 -108.5q82 0 141 27.5t114 87.5l41 -34q-60 -83 -149.5 -132.5 t-195.5 -49.5q-102 0 -181 36t-125.5 97.5t-70 137.5t-23.5 162zM212 1172q0 38 27.5 65.5t65.5 27.5t65.5 -27.5t27.5 -65.5t-27.5 -65.5t-65.5 -27.5t-65.5 27.5t-27.5 65.5zM234 567h376q30 0 30 28q0 68 -16 117.5t-42.5 75t-54.5 36.5t-59 11q-19 0 -39.5 -3.5 t-53 -19.5t-58.5 -42.5t-49.5 -79t-33.5 -123.5zM541 1172q0 38 27.5 65.5t65.5 27.5t65.5 -27.5t27.5 -65.5t-27.5 -65.5t-65.5 -27.5t-65.5 27.5t-27.5 65.5z" />
<glyph unicode="&#xec;" horiz-adv-x="542" d="M34 1308l5 22q59 48 133 48q18 0 30 -5l143 -257q13 -24 13 -49q0 -8 -9 -15t-21 -7q-16 0 -59 40zM59 829q93 16 129.5 26.5t83.5 32.5q36 17 51 17h31v-629q0 -100 14.5 -143.5t54.5 -43.5q74 0 146 56l37 -35q-120 -135 -255 -135q-74 0 -112 48t-38 156v478 q0 76 -11 101t-35 25q-36 0 -86 -10z" />
<glyph unicode="&#xed;" horiz-adv-x="613" d="M59 829q93 16 129.5 26.5t83.5 32.5q36 17 51 17h31v-629q0 -100 14.5 -143.5t54.5 -43.5q74 0 146 56l37 -35q-120 -135 -255 -135q-74 0 -112 48t-38 156v478q0 76 -11 101t-35 25q-36 0 -86 -10zM157 1070q0 26 13 46l163 257q12 5 30 5q60 0 100 -38l13 -10l5 -22 l-235 -223q-43 -40 -59 -40q-12 0 -21 7.5t-9 17.5z" />
<glyph unicode="&#xee;" horiz-adv-x="613" d="M-5 1058q147 166 210 264h102q62 -102 207 -264l-42 -29q-149 110 -218 184q-87 -89 -218 -184zM59 829q93 16 129.5 26.5t83.5 32.5q36 17 51 17h31v-629q0 -100 14.5 -143.5t54.5 -43.5q74 0 146 56l37 -35q-120 -135 -255 -135q-74 0 -112 48t-38 156v478 q0 76 -11 101t-35 25q-36 0 -86 -10z" />
<glyph unicode="&#xef;" horiz-adv-x="613" d="M1 1172q0 38 27.5 65.5t65.5 27.5t65.5 -27.5t27.5 -65.5t-27.5 -65.5t-65.5 -27.5t-65.5 27.5t-27.5 65.5zM59 829q93 16 129.5 26.5t83.5 32.5q36 17 51 17h31v-629q0 -100 14.5 -143.5t54.5 -43.5q74 0 146 56l37 -35q-120 -135 -255 -135q-74 0 -112 48t-38 156v478 q0 76 -11 101t-35 25q-36 0 -86 -10zM330 1172q0 38 27.5 65.5t65.5 27.5t65.5 -27.5t27.5 -65.5t-27.5 -65.5t-65.5 -27.5t-65.5 27.5t-27.5 65.5z" />
<glyph unicode="&#xf0;" horiz-adv-x="980" d="M70 425q0 102 28 185.5t72 137t101 90t112 52t109 15.5q88 0 158 -29q-58 139 -185 296l-224 -150l-45 66l216 144l-33 34q-76 76 -139 121l32 42q112 -59 217 -145l218 146l45 -66l-200 -134l38 -36q310 -314 310 -708q0 -126 -36.5 -225.5t-99 -160.5t-141 -93 t-166.5 -32q-74 0 -138 26.5t-109 71t-77 102.5t-47.5 121.5t-15.5 128.5zM229 461q0 -173 76.5 -289.5t185.5 -116.5q32 0 62.5 9.5t64.5 36.5t58.5 70t41 117t16.5 169q0 142 -37 279q-36 45 -91 71.5t-118 26.5q-59 0 -106 -24t-75 -62t-46 -89t-25 -99t-7 -99z" />
<glyph unicode="&#xf1;" horiz-adv-x="1055" d="M37 826q78 15 119.5 24t86 24.5t66.5 32.5h46l-6 -152h6q141 152 288 152q73 0 125.5 -23t80 -64t39.5 -87.5t12 -103.5v-467q0 -55 18.5 -79t71.5 -24q14 0 34 2l6 -3v-53l-6 -5q-138 4 -204 4l-75 -4l2 163v437q0 52 -10.5 91.5t-26.5 62.5t-38 37.5t-41.5 19 t-39.5 4.5q-67 0 -133 -49q-70 -53 -103 -92v-507q0 -60 16 -84t70 -24q27 0 41 2l4 -5v-50l-4 -6q-145 4 -202 4l-81 -4l3 161v483q0 78 -10.5 107t-41.5 29q-47 0 -105 -10zM292 1087q22 93 60 137.5t102 44.5q67 0 148 -57q66 -46 107 -46q35 0 58 23t44 85l49 -13 q-38 -185 -178 -185q-46 0 -130 53q-73 46 -112 46t-62 -23t-38 -75z" />
<glyph unicode="&#xf2;" horiz-adv-x="1038" d="M70 454q0 121 56.5 225t160.5 167.5t232 63.5q110 0 197.5 -37t141.5 -100.5t82 -144.5t28 -174q0 -204 -122.5 -339t-326.5 -135q-200 0 -324.5 133.5t-124.5 340.5zM223 454q0 -164 84.5 -278t211.5 -114q141 0 218.5 107.5t77.5 284.5q0 163 -77 268.5t-219 105.5 q-133 0 -214.5 -107t-81.5 -267zM322 1308l5 22q59 48 133 48q18 0 30 -5l143 -257q13 -24 13 -49q0 -8 -9 -15t-21 -7q-16 0 -59 40z" />
<glyph unicode="&#xf3;" horiz-adv-x="1038" d="M70 454q0 121 56.5 225t160.5 167.5t232 63.5q110 0 197.5 -37t141.5 -100.5t82 -144.5t28 -174q0 -204 -122.5 -339t-326.5 -135q-200 0 -324.5 133.5t-124.5 340.5zM223 454q0 -164 84.5 -278t211.5 -114q141 0 218.5 107.5t77.5 284.5q0 163 -77 268.5t-219 105.5 q-133 0 -214.5 -107t-81.5 -267zM407 1070q0 26 13 46l163 257q12 5 30 5q60 0 100 -38l13 -10l5 -22l-235 -223q-43 -40 -59 -40q-12 0 -21 7.5t-9 17.5z" />
<glyph unicode="&#xf4;" horiz-adv-x="1038" d="M70 454q0 121 56.5 225t160.5 167.5t232 63.5q110 0 197.5 -37t141.5 -100.5t82 -144.5t28 -174q0 -204 -122.5 -339t-326.5 -135q-200 0 -324.5 133.5t-124.5 340.5zM223 454q0 -164 84.5 -278t211.5 -114q141 0 218.5 107.5t77.5 284.5q0 163 -77 268.5t-219 105.5 q-133 0 -214.5 -107t-81.5 -267zM261 1058q147 166 210 264h102q62 -102 207 -264l-42 -29q-149 110 -218 184q-87 -89 -218 -184z" />
<glyph unicode="&#xf5;" horiz-adv-x="1038" d="M70 454q0 121 56.5 225t160.5 167.5t232 63.5q110 0 197.5 -37t141.5 -100.5t82 -144.5t28 -174q0 -204 -122.5 -339t-326.5 -135q-200 0 -324.5 133.5t-124.5 340.5zM223 454q0 -164 84.5 -278t211.5 -114q141 0 218.5 107.5t77.5 284.5q0 163 -77 268.5t-219 105.5 q-133 0 -214.5 -107t-81.5 -267zM234 1087q22 93 60 137.5t102 44.5q67 0 148 -57q66 -46 107 -46q35 0 58 23t44 85l49 -13q-38 -185 -178 -185q-46 0 -130 53q-73 46 -112 46t-62 -23t-38 -75z" />
<glyph unicode="&#xf6;" horiz-adv-x="1038" d="M70 454q0 121 56.5 225t160.5 167.5t232 63.5q110 0 197.5 -37t141.5 -100.5t82 -144.5t28 -174q0 -204 -122.5 -339t-326.5 -135q-200 0 -324.5 133.5t-124.5 340.5zM223 454q0 -164 84.5 -278t211.5 -114q141 0 218.5 107.5t77.5 284.5q0 163 -77 268.5t-219 105.5 q-133 0 -214.5 -107t-81.5 -267zM266 1172q0 38 27.5 65.5t65.5 27.5t65.5 -27.5t27.5 -65.5t-27.5 -65.5t-65.5 -27.5t-65.5 27.5t-27.5 65.5zM595 1172q0 38 27.5 65.5t65.5 27.5t65.5 -27.5t27.5 -65.5t-27.5 -65.5t-65.5 -27.5t-65.5 27.5t-27.5 65.5z" />
<glyph unicode="&#xf7;" horiz-adv-x="1080" d="M135 425v101h810v-101h-810zM452 196.5q0 37.5 27 64.5t64.5 27t64.5 -27t27 -64.5t-27 -64.5t-64.5 -27t-64.5 27t-27 64.5zM452 746.5q0 37.5 27 64.5t64.5 27t64.5 -27t27 -64.5t-27 -64.5t-64.5 -27t-64.5 27t-27 64.5z" />
<glyph unicode="&#xf8;" horiz-adv-x="983" d="M70 420q0 141 48.5 250t145.5 172t229 63q156 0 262 -87l92 112l64 -48l-100 -122q51 -65 76.5 -149.5t25.5 -171.5q0 -63 -16 -127t-50 -125t-82.5 -108t-119.5 -75.5t-155 -28.5q-146 0 -253 85l-97 -118l-62 54l100 121q-53 63 -80.5 142.5t-27.5 160.5zM232 467 q0 -114 49 -225l392 477q-74 118 -201 118q-59 0 -106 -32.5t-75.5 -86t-43.5 -118t-15 -133.5zM323 165q81 -117 201 -117q31 0 59.5 7.5t60 29.5t54.5 56.5t38 94.5t15 137q0 156 -39 266z" />
<glyph unicode="&#xf9;" horiz-adv-x="1081" d="M40 844v38l4 4q140 -4 220 -4l202 4l4 -4v-38q0 -17 -16 -17h-29q-49 0 -68.5 -22t-19.5 -68v-448q0 -114 27.5 -162.5t104.5 -48.5q71 0 134.5 34t138.5 122v503q0 46 -20 68t-68 22h-29q-17 0 -17 17v38l4 4q130 -4 210 -4l212 4l4 -4v-38q0 -17 -16 -17h-39 q-49 0 -68.5 -22t-19.5 -68v-510q0 -77 11 -101.5t35 -24.5q36 0 85 10l11 -56q-147 -25 -211 -59q-34 -17 -53 -17h-31l6 182h-6q-91 -107 -168.5 -144.5t-165.5 -37.5q-54 0 -94 16.5t-64.5 44.5t-39.5 70.5t-20.5 88t-5.5 104.5v434q0 46 -20 68t-68 22h-39q-17 0 -17 17 zM280 1308l5 22q59 48 133 48q18 0 30 -5l143 -257q13 -24 13 -49q0 -8 -9 -15t-21 -7q-16 0 -59 40z" />
<glyph unicode="&#xfa;" horiz-adv-x="1081" d="M40 844v38l4 4q140 -4 220 -4l202 4l4 -4v-38q0 -17 -16 -17h-29q-49 0 -68.5 -22t-19.5 -68v-448q0 -114 27.5 -162.5t104.5 -48.5q71 0 134.5 34t138.5 122v503q0 46 -20 68t-68 22h-29q-17 0 -17 17v38l4 4q130 -4 210 -4l212 4l4 -4v-38q0 -17 -16 -17h-39 q-49 0 -68.5 -22t-19.5 -68v-510q0 -77 11 -101.5t35 -24.5q36 0 85 10l11 -56q-147 -25 -211 -59q-34 -17 -53 -17h-31l6 182h-6q-91 -107 -168.5 -144.5t-165.5 -37.5q-54 0 -94 16.5t-64.5 44.5t-39.5 70.5t-20.5 88t-5.5 104.5v434q0 46 -20 68t-68 22h-39q-17 0 -17 17 zM432 1070q0 26 13 46l163 257q12 5 30 5q60 0 100 -38l13 -10l5 -22l-235 -223q-43 -40 -59 -40q-12 0 -21 7.5t-9 17.5z" />
<glyph unicode="&#xfb;" horiz-adv-x="1081" d="M40 844v38l4 4q140 -4 220 -4l202 4l4 -4v-38q0 -17 -16 -17h-29q-49 0 -68.5 -22t-19.5 -68v-448q0 -114 27.5 -162.5t104.5 -48.5q71 0 134.5 34t138.5 122v503q0 46 -20 68t-68 22h-29q-17 0 -17 17v38l4 4q130 -4 210 -4l212 4l4 -4v-38q0 -17 -16 -17h-39 q-49 0 -68.5 -22t-19.5 -68v-510q0 -77 11 -101.5t35 -24.5q36 0 85 10l11 -56q-147 -25 -211 -59q-34 -17 -53 -17h-31l6 182h-6q-91 -107 -168.5 -144.5t-165.5 -37.5q-54 0 -94 16.5t-64.5 44.5t-39.5 70.5t-20.5 88t-5.5 104.5v434q0 46 -20 68t-68 22h-39q-17 0 -17 17 zM283 1058q147 166 210 264h102q62 -102 207 -264l-42 -29q-149 110 -218 184q-87 -89 -218 -184z" />
<glyph unicode="&#xfc;" horiz-adv-x="1081" d="M40 844v38l4 4q140 -4 220 -4l202 4l4 -4v-38q0 -17 -16 -17h-29q-49 0 -68.5 -22t-19.5 -68v-448q0 -114 27.5 -162.5t104.5 -48.5q71 0 134.5 34t138.5 122v503q0 46 -20 68t-68 22h-29q-17 0 -17 17v38l4 4q130 -4 210 -4l212 4l4 -4v-38q0 -17 -16 -17h-39 q-49 0 -68.5 -22t-19.5 -68v-510q0 -77 11 -101.5t35 -24.5q36 0 85 10l11 -56q-147 -25 -211 -59q-34 -17 -53 -17h-31l6 182h-6q-91 -107 -168.5 -144.5t-165.5 -37.5q-54 0 -94 16.5t-64.5 44.5t-39.5 70.5t-20.5 88t-5.5 104.5v434q0 46 -20 68t-68 22h-39q-17 0 -17 17 zM262 1172q0 38 27.5 65.5t65.5 27.5t65.5 -27.5t27.5 -65.5t-27.5 -65.5t-65.5 -27.5t-65.5 27.5t-27.5 65.5zM591 1172q0 38 27.5 65.5t65.5 27.5t65.5 -27.5t27.5 -65.5t-27.5 -65.5t-65.5 -27.5t-65.5 27.5t-27.5 65.5z" />
<glyph unicode="&#xfd;" horiz-adv-x="1040" d="M22 826v38l4 4q140 -4 220 -4l212 4l4 -4v-38q0 -17 -16 -17h-39q-49 0 -68.5 -22t-19.5 -68v-457q0 -121 35 -163t124 -42q94 0 246 150v512q0 46 -19.5 68t-68.5 22h-39q-17 0 -17 17v38l4 4q140 -4 220 -4l212 4l4 -4v-38q0 -17 -16 -17h-39q-49 0 -68.5 -22 t-19.5 -68v-719q0 -205 -28 -307.5t-112 -186.5q-79 -79 -164 -79q-68 0 -129.5 30.5t-61.5 73.5q0 37 18.5 58t46.5 21q33 0 54.5 -26.5t31.5 -63.5q8 -33 32 -33q71 0 114 105.5t49 315.5l-4 222q-169 -169 -337 -169q-221 0 -221 324v434q0 46 -20 68t-68 22h-39 q-17 0 -17 17zM468 1070q0 26 13 46l163 257q12 5 30 5q60 0 100 -38l13 -10l5 -22l-235 -223q-43 -40 -59 -40q-12 0 -21 7.5t-9 17.5z" />
<glyph unicode="&#xfe;" horiz-adv-x="1016" d="M34 -431q0 17 16 17h39q49 0 68.5 22t19.5 68v1497q0 85 -14.5 117t-46.5 32q-3 0 -31 -3.5t-35 -3.5q-11 0 -11 10l-4 52q39 0 114 12.5t136 39.5h45v-620l-3 -68q21 32 62 73q91 91 215 91q96 0 174.5 -61t120 -157.5t41.5 -205.5q0 -243 -144 -387 q-119 -119 -277 -119q-108 0 -189 45v-344q0 -46 20 -68t68 -22h39q17 0 17 -17v-38l-4 -4q-140 4 -220 4l-212 -4l-4 4v38zM330 133q73 -87 177 -87q78 0 134 33.5t85 91t41.5 120t12.5 135.5q0 225 -111 336q-49 49 -119 49q-58 0 -123 -45.5t-97 -121.5v-511z" />
<glyph unicode="&#xff;" horiz-adv-x="1040" d="M22 826v38l4 4q140 -4 220 -4l212 4l4 -4v-38q0 -17 -16 -17h-39q-49 0 -68.5 -22t-19.5 -68v-457q0 -121 35 -163t124 -42q94 0 246 150v512q0 46 -19.5 68t-68.5 22h-39q-17 0 -17 17v38l4 4q140 -4 220 -4l212 4l4 -4v-38q0 -17 -16 -17h-39q-49 0 -68.5 -22 t-19.5 -68v-719q0 -205 -28 -307.5t-112 -186.5q-79 -79 -164 -79q-68 0 -129.5 30.5t-61.5 73.5q0 37 18.5 58t46.5 21q33 0 54.5 -26.5t31.5 -63.5q8 -33 32 -33q71 0 114 105.5t49 315.5l-4 222q-169 -169 -337 -169q-221 0 -221 324v434q0 46 -20 68t-68 22h-39 q-17 0 -17 17zM278 1172q0 38 27.5 65.5t65.5 27.5t65.5 -27.5t27.5 -65.5t-27.5 -65.5t-65.5 -27.5t-65.5 27.5t-27.5 65.5zM607 1172q0 38 27.5 65.5t65.5 27.5t65.5 -27.5t27.5 -65.5t-27.5 -65.5t-65.5 -27.5t-65.5 27.5t-27.5 65.5z" />
<glyph unicode="&#x152;" horiz-adv-x="1739" d="M85 652q0 187 65.5 337t200 242.5t318.5 92.5q143 -4 234 -4h159h527l29 -284l-55 -6q-13 77 -65 143.5t-125 66.5h-314q-38 0 -56 -15t-18 -51v-425h216q50 0 71 21.5t32 69.5l14 61q2 17 15 17h45q7 0 7 -9q-1 -11 -8.5 -82.5t-7.5 -112.5q0 -45 16 -196l-5 -7h-47 q-15 0 -17 15l-12 63q-9 47 -31.5 68.5t-71.5 21.5h-216v-532q0 -38 18.5 -52.5t55.5 -14.5h321q94 0 145.5 67t78.5 190l54 -9l-52 -328h-704l-209 -4q-188 0 -327.5 87.5t-210 235t-70.5 333.5zM273 670q0 -153 35 -272t94.5 -190t132 -106.5t154.5 -35.5h25q60 0 83 18.5 t23 62.5v1028q0 47 -22.5 62t-83.5 15h-71q-62 0 -115 -18t-100.5 -61t-81.5 -109t-53.5 -166.5t-19.5 -227.5z" />
<glyph unicode="&#x153;" horiz-adv-x="1589" d="M70 422q0 116 34.5 209.5t94.5 152.5t136.5 90t162.5 31q71 0 128.5 -15.5t98 -44.5t68 -59t51.5 -71q56 83 141 136.5t184 53.5q173 0 258.5 -114t85.5 -303h-590q-2 -19 -2 -42q0 -97 26.5 -173t68.5 -118t87.5 -63t90.5 -21q63 0 142 29.5t124 77.5l34 -25 q-21 -28 -32.5 -42.5t-44 -45t-62.5 -46.5t-79.5 -30t-104.5 -14q-228 0 -339 187q-57 -85 -147.5 -136t-195.5 -51q-184 0 -301.5 128t-117.5 319zM233 496q0 -118 30.5 -219t97 -168.5t157.5 -67.5q114 0 187 119q52 85 52 250q0 181 -61 286q-85 142 -201 142 q-139 0 -200 -103q-62 -107 -62 -239zM929 568h431q-1 37 -10 78t-29 86t-60.5 74t-95.5 29q-50 0 -91.5 -25t-66.5 -59t-43.5 -75t-25.5 -67t-9 -41z" />
<glyph unicode="&#x178;" horiz-adv-x="1177" d="M0 1280v41l3 3q190 -4 217 -4l234 4l3 -3v-39q0 -17 -13 -17h-58q-29 0 -40.5 -6t-11.5 -20q0 -17 25 -60l286 -480l260 480q23 43 23 59t-10 21.5t-42 5.5h-60q-12 1 -12 15v40l3 4q162 -4 188 -4l179 4l3 -3v-40q0 -16 -19 -16h-44q-45 0 -71 -19.5t-53 -70.5 l-305 -575v-453q0 -48 26 -70t86 -22h54q17 0 17 -17v-38l-4 -4q-178 4 -258 4l-264 -4l-4 4v38q0 17 16 17h54q60 0 86 23.5t26 68.5v429l-348 599q-32 59 -68 81q-13 9 -58 9h-25q-21 3 -21 15zM369 1537q0 38 27.5 65.5t65.5 27.5t65.5 -27.5t27.5 -65.5t-27.5 -65.5 t-65.5 -27.5t-65.5 27.5t-27.5 65.5zM698 1537q0 38 27.5 65.5t65.5 27.5t65.5 -27.5t27.5 -65.5t-27.5 -65.5t-65.5 -27.5t-65.5 27.5t-27.5 65.5z" />
<glyph unicode="&#x2c6;" horiz-adv-x="715" d="M104 1104q147 166 210 264h102q62 -102 207 -264l-42 -29q-149 110 -218 184q-87 -89 -218 -184z" />
<glyph unicode="&#x2dc;" horiz-adv-x="600" d="M11 1186q22 93 60 137.5t102 44.5q67 0 148 -57q66 -46 107 -46q35 0 58 23t44 85l49 -13q-38 -185 -178 -185q-46 0 -130 53q-73 46 -112 46t-62 -23t-38 -75z" />
<glyph unicode="&#x2000;" horiz-adv-x="840" />
<glyph unicode="&#x2001;" horiz-adv-x="1681" />
<glyph unicode="&#x2002;" horiz-adv-x="840" />
<glyph unicode="&#x2003;" horiz-adv-x="1681" />
<glyph unicode="&#x2004;" horiz-adv-x="560" />
<glyph unicode="&#x2005;" horiz-adv-x="420" />
<glyph unicode="&#x2006;" horiz-adv-x="280" />
<glyph unicode="&#x2007;" horiz-adv-x="280" />
<glyph unicode="&#x2008;" horiz-adv-x="210" />
<glyph unicode="&#x2009;" horiz-adv-x="336" />
<glyph unicode="&#x200a;" horiz-adv-x="93" />
<glyph unicode="&#x2010;" horiz-adv-x="682" d="M68 518q0 25 16.5 50t34.5 25h468q29 0 29 -35q0 -20 -18 -47.5t-36 -27.5h-464q-14 0 -22 10.5t-8 24.5z" />
<glyph unicode="&#x2011;" horiz-adv-x="682" d="M68 518q0 25 16.5 50t34.5 25h468q29 0 29 -35q0 -20 -18 -47.5t-36 -27.5h-464q-14 0 -22 10.5t-8 24.5z" />
<glyph unicode="&#x2012;" horiz-adv-x="682" d="M68 518q0 25 16.5 50t34.5 25h468q29 0 29 -35q0 -20 -18 -47.5t-36 -27.5h-464q-14 0 -22 10.5t-8 24.5z" />
<glyph unicode="&#x2013;" horiz-adv-x="1095" d="M81 488v100h933v-100h-933z" />
<glyph unicode="&#x2014;" horiz-adv-x="1520" d="M60 488v100h1400v-100h-1400z" />
<glyph unicode="&#x2018;" horiz-adv-x="549" d="M149 1241q0 101 62.5 158t162.5 75l11 -52q-75 -18 -116 -56t-41 -74q0 -23 11.5 -36t25.5 -17.5t37 -7.5q91 -15 91 -89q0 -44 -31 -74t-79 -30q-60 0 -97 55.5t-37 147.5z" />
<glyph unicode="&#x2019;" horiz-adv-x="549" d="M156 1325q0 44 31 74t79 30q60 0 97 -55.5t37 -147.5q0 -101 -62.5 -158t-162.5 -75l-11 52q75 18 116 56t41 74q0 23 -11.5 36t-25.5 17.5t-37 7.5q-91 15 -91 89z" />
<glyph unicode="&#x201a;" horiz-adv-x="549" d="M155 90q0 44 31 74t79 30q60 0 97 -55.5t37 -147.5q0 -101 -62.5 -158t-162.5 -75l-11 52q75 18 116 56t41 74q0 23 -11.5 36t-25.5 17.5t-37 7.5q-91 15 -91 89z" />
<glyph unicode="&#x201c;" horiz-adv-x="770" d="M99 1243q0 101 62.5 158t162.5 75l11 -52q-75 -18 -116 -56t-41 -74q0 -23 11.5 -36t25.5 -17.5t37 -7.5q91 -15 91 -89q0 -44 -31 -74t-79 -30q-60 0 -97 55.5t-37 147.5zM420 1243q0 101 62.5 158t162.5 75l11 -52q-75 -18 -116 -56t-41 -74q0 -23 11.5 -36t25.5 -17.5 t37 -7.5q91 -15 91 -89q0 -44 -31 -74t-79 -30q-60 0 -97 55.5t-37 147.5z" />
<glyph unicode="&#x201d;" horiz-adv-x="770" d="M106 1325q0 44 31 74t79 30q60 0 97 -55.5t37 -147.5q0 -101 -62.5 -158t-162.5 -75l-11 52q75 18 116 56t41 74q0 23 -11.5 36t-25.5 17.5t-37 7.5q-91 15 -91 89zM427 1325q0 44 31 74t79 30q60 0 97 -55.5t37 -147.5q0 -101 -62.5 -158t-162.5 -75l-11 52 q75 18 116 56t41 74q0 23 -11.5 36t-25.5 17.5t-37 7.5q-91 15 -91 89z" />
<glyph unicode="&#x201e;" horiz-adv-x="770" d="M106 88q0 44 31 74t79 30q60 0 97 -55.5t37 -147.5q0 -101 -62.5 -158t-162.5 -75l-11 52q75 18 116 56t41 74q0 23 -11.5 36t-25.5 17.5t-37 7.5q-91 15 -91 89zM427 88q0 44 31 74t79 30q60 0 97 -55.5t37 -147.5q0 -101 -62.5 -158t-162.5 -75l-11 52q75 18 116 56 t41 74q0 23 -11.5 36t-25.5 17.5t-37 7.5q-91 15 -91 89z" />
<glyph unicode="&#x2022;" horiz-adv-x="719" d="M100 480q0 103 79 179t180 76q104 0 182 -76t78 -185q0 -101 -73 -179.5t-187 -78.5q-107 0 -183 77t-76 187z" />
<glyph unicode="&#x2026;" horiz-adv-x="1534" d="M116 84q0 45 32 77t77 32t77 -32t32 -77t-32 -77t-77 -32t-77 32t-32 77zM658 84q0 45 32 77t77 32t77 -32t32 -77t-32 -77t-77 -32t-77 32t-32 77zM1200 84q0 45 32 77t77 32t77 -32t32 -77t-32 -77t-77 -32t-77 32t-32 77z" />
<glyph unicode="&#x202f;" horiz-adv-x="336" />
<glyph unicode="&#x2039;" horiz-adv-x="729" d="M140 402v79q219 152 449 399v-110q-143 -205 -285 -329q137 -113 285 -328v-110q-247 286 -449 399z" />
<glyph unicode="&#x203a;" horiz-adv-x="729" d="M140 1v110q143 205 285 329q-137 113 -285 328v110q247 -286 449 -399v-79q-219 -152 -449 -399z" />
<glyph unicode="&#x205f;" horiz-adv-x="420" />
<glyph unicode="&#x20ac;" d="M0 450v18l40 52h76q-1 22 -1 44q0 30 2 60h-88l2 20l39 50h53q27 228 144.5 359t292.5 131q57 0 139.5 -15.5t117.5 -15.5q4 -104 41 -299l-62 -9q-14 57 -31.5 100.5t-45 83.5t-69 61.5t-94.5 21.5q-77 0 -135.5 -56.5t-91 -148.5t-42.5 -213h452l-37 -70h-419 q-1 -18 -1 -37q0 -35 1 -67h385l-38 -70h-343q17 -199 87 -293.5t196 -94.5q31 0 57.5 8.5t46.5 20t38.5 35t30 41.5t26 51t21.5 53t20 58l62 -13q-59 -205 -77 -310q-21 0 -103.5 -15.5t-141.5 -15.5q-180 0 -292.5 126.5t-136.5 348.5h-121z" />
<glyph unicode="&#x2122;" horiz-adv-x="1630" d="M26 1190l39 185l49 -17q-3 -22 -6 -23h478q-3 1 -6 23l50 16l39 -186l-47 -11q-17 68 -32 86.5t-49 18.5h-89q-17 0 -23 -9t-6 -34v-541q0 -49 62 -49h30q9 0 9 -11v-26l-2 -2q-129 2 -169 2l-169 -2l-2 2v26q0 11 10 11h30q33 0 47.5 11t14.5 38v544q0 23 -6.5 31.5 t-22.5 8.5h-103q-34 0 -49 -18.5t-32 -86.5zM684 612v17q0 14 36 14h29q16 0 23 61l41 546v5v5q0 34 -18 34h-34q-34 3 -34 12v17l11 12h182l228 -542l220 542h169l6 -11v-17q-1 -13 -36 -13h-31q-18 0 -18 -33v-11l47 -545q4 -31 9 -46.5t16 -15.5h29q38 0 38 -14v-17 l-11 -11q-90 3 -134 3l-136 -3l-12 11v17q0 14 36 14h28q13 0 13 47q0 10 -1 14l-34 403l-203 -496q-9 -22 -33 -22t-34 22l-205 486q-18 -259 -29 -394v-13q0 -47 15 -47h29q35 0 35 -14v-16l-6 -12q-79 3 -124 3l-97 -3z" />
<glyph unicode="&#xe000;" horiz-adv-x="885" d="M0 885h885v-885h-885v885z" />
<glyph unicode="&#xfb01;" horiz-adv-x="1112" d="M-41 -238q0 26 17.5 47t44.5 21q48 0 69 -42q4 -8 6.5 -26.5t9.5 -28t26 -9.5t31.5 29.5t17.5 89.5t6.5 111.5t1.5 133.5v30v29v653h-141q-11 0 -11 12v28q0 15 11.5 27.5t35.5 12.5h105v30q0 117 23.5 209t61.5 149t89.5 94.5t103 52t106.5 14.5q99 0 182 -55 q61 -41 102.5 -96.5t41.5 -109.5q0 -31 -25 -55t-56 -24q-48 0 -76 38t-46 123q-23 111 -148 111q-24 0 -47.5 -7t-53.5 -31t-52 -62t-37.5 -106.5t-15.5 -158.5v-116h387q42 0 99.5 12.5t65.5 12.5h31v-758q0 -46 20 -68t68 -22h39q17 0 17 -17v-38l-4 -4q-140 4 -220 4 l-212 -4l-4 4v38q0 17 16 17h39q49 0 68.5 22t19.5 68v510q0 90 -10 116.5t-49 26.5h-371v-632q0 -268 -58.5 -394t-173.5 -126q-76 0 -113.5 38t-37.5 76z" />
<glyph unicode="&#xfb02;" horiz-adv-x="1079" d="M-41 -238q0 26 17.5 47t44.5 21q48 0 69 -42q4 -8 6.5 -26.5t9.5 -28t26 -9.5t31.5 29.5t17.5 89.5t6.5 111.5t1.5 133.5v30v29v653h-141q-11 0 -11 12v28q0 15 11.5 27.5t35.5 12.5h105v81q0 114 38.5 207t99 148t129.5 84t136 29q100 0 170 -47q15 5 42 22.5t43 24.5 h45v-1282q0 -46 20 -68t68 -22h48q17 0 17 -17v-38l-4 -4q-149 4 -229 4l-191 -4l-4 4v38q0 17 16 17h18q49 0 68.5 22t19.5 68v1032q0 18 -1 26q-38 12 -58 55q-40 99 -127 99q-24 0 -48 -7t-54.5 -30.5t-53.5 -61t-39 -106t-16 -158.5v-116h226q16 0 16 -12v-41 q0 -13 -15 -20t-33 -7h-194v-632q0 -268 -58.5 -394t-173.5 -126q-76 0 -113.5 38t-37.5 76z" />
<glyph unicode="&#xfb03;" horiz-adv-x="1656" d="M-41 -238q0 26 17.5 47t44.5 21q48 0 69 -42q4 -8 6.5 -26.5t9.5 -28t26 -9.5t31.5 29.5t17.5 89.5t6.5 111.5t1.5 133.5v30v29v653h-141q-11 0 -11 12v28q0 15 11.5 27.5t35.5 12.5h105q0 190 44.5 302.5t148.5 173.5q67 39 146 39q112 0 183.5 -36.5t95.5 -82.5 q47 60 131.5 106.5t178.5 46.5q99 0 182 -55q61 -41 102.5 -96.5t41.5 -109.5q0 -31 -25 -55t-56 -24q-48 0 -76 38t-46 123q-23 111 -148 111q-24 0 -47.5 -7t-53.5 -31t-52 -62t-37.5 -106.5t-15.5 -158.5v-116h387q42 0 99.5 14.5t65.5 14.5h31v-762q0 -46 20 -68t68 -22 h39q17 0 17 -17v-38l-4 -4q-140 4 -220 4l-212 -4l-4 4v38q0 17 16 17h39q49 0 68.5 22t19.5 68v548q0 64 -10.5 84.5t-48.5 20.5h-371v-632q0 -268 -58.5 -394t-173.5 -126q-76 0 -113.5 38t-37.5 76q0 26 17.5 47t44.5 21q48 0 69 -42q4 -8 6.5 -26.5t9.5 -28t26 -9.5 t31.5 29.5t17.5 89.5t6.5 111.5t1.5 133.5v30v29v653h-391v-632q0 -268 -58.5 -394t-173.5 -126q-76 0 -113.5 38t-37.5 76zM342 880h391l1 81q0 114 20 196l-7 -4q-35 0 -56.5 19t-30 43.5t-25.5 54t-40 44.5q-38 24 -70 24q-15 0 -33 -7.5t-42 -25.5t-47.5 -59t-38.5 -98 q-22 -78 -22 -245v-23z" />
<glyph unicode="&#xfb04;" horiz-adv-x="1607" d="M-41 -238q0 26 17.5 47t44.5 21q48 0 69 -42q4 -8 6.5 -26.5t9.5 -28t26 -9.5t31.5 29.5t17.5 89.5t6.5 111.5t1.5 133.5v30v29v653h-141q-11 0 -11 12v28q0 15 11.5 27.5t35.5 12.5h105q0 215 53 321q39 80 112.5 136.5t173.5 56.5q109 0 177 -34t94 -74q30 55 96 99 t146 44q75 0 139.5 -26t83.5 -48q40 13 120 74h45v-1282q0 -46 20 -68t68 -22h39q17 0 17 -17v-38l-4 -4q-140 4 -220 4l-212 -4l-4 4v38q0 17 16 17h39q49 0 68.5 22t19.5 68v1067q-20 -14 -45 -14q-64 0 -84 58q-38 101 -113 101q-43 0 -80.5 -43.5t-52.5 -125.5 q-15 -81 -15 -203v-107h226q16 0 16 -12v-41q0 -13 -15 -20t-33 -7h-194v-632q0 -268 -58.5 -394t-173.5 -126q-76 0 -113.5 38t-37.5 76q0 26 17.5 47t44.5 21q48 0 69 -42q4 -8 6.5 -26.5t9.5 -28t26 -9.5t31.5 29.5t17.5 89.5t6.5 111.5t1.5 133.5v30v29v653h-391v-632 q0 -268 -58.5 -394t-173.5 -126q-76 0 -113.5 38t-37.5 76zM342 880h391l1 80q0 107 17 192h-4q-59 0 -84 58q-20 51 -50.5 82.5t-85.5 31.5q-51 0 -95 -44.5t-68 -132.5q-22 -78 -22 -250v-17z" />
</font>
</defs>
</svg>
