<?xml version="1.0" standalone="no"?>
<!DOCTYPE svg PUBLIC "-//W3C//DTD SVG 1.1//EN" "http://www.w3.org/Graphics/SVG/1.1/DTD/svg11.dtd" >
<svg xmlns="http://www.w3.org/2000/svg">
<metadata>
This is a custom SVG webfont generated by Font Squirrel.
Copyright   : 2011  Sebastien SanfilippoThis Font Software is licensed under the SIL Open Font License Version 11httpscriptssilorgOFL
</metadata>
<defs>
<font id="RegloBold" horiz-adv-x="1064" >
<font-face units-per-em="2048" ascent="1536" descent="-512" />
<missing-glyph horiz-adv-x="962" />
<glyph unicode=" "  horiz-adv-x="962" />
<glyph unicode="&#x09;" horiz-adv-x="962" />
<glyph unicode="&#xa0;" horiz-adv-x="962" />
<glyph unicode="!" d="M328 205q0 -84 60.5 -144.5t144 -60.5t144 60.5t60.5 144.5t-60.5 144.5t-144 60.5t-144 -60.5t-60.5 -144.5zM389 532h287v1106h-287v-1106z" />
<glyph unicode="#" horiz-adv-x="1187" d="M102 483h84l-63 -483h287l63 483h152l-64 -483h287l63 483h174v262h-139l21 148h118v262h-84l64 483h-287l-63 -483h-152l64 483h-287l-64 -483h-174v-262h140l-21 -148h-119v-262zM508 745l20 148h152l-21 -148h-151z" />
<glyph unicode="&#x26;" horiz-adv-x="1409" d="M102 494q0 193 127 329q-127 139 -127 332q0 205 144.5 349.5t349.5 144.5t350.5 -144.5t145.5 -349.5h-310q0 80 -53 142.5t-133 62.5q-88 0 -146.5 -57.5t-58.5 -147.5q0 -78 59.5 -131t131.5 -55h125h600v-289h-215v-184q0 -82 62.5 -144.5t143.5 -62.5v-289 q-207 0 -350 145q-145 -145 -352 -145q-205 0 -349.5 144.5t-144.5 349.5zM391 494q0 -90 57.5 -147.5t147.5 -57.5q84 0 145.5 63.5t61.5 141.5v2v184h-96h-123q-72 0 -132.5 -54t-60.5 -132z" />
<glyph unicode="'" d="M221 1067h283l205 571h-324z" />
<glyph unicode="(" d="M268 328q0 -178 126 -304t304 -126h97v286h-97q-61 0 -102 41t-41 103v880q0 59 43 101.5t100 42.5h97v286h-97q-178 0 -304 -126t-126 -304v-880z" />
<glyph unicode=")" d="M266 -102h96q178 0 304.5 126t126.5 304v880q0 178 -126 304t-305 126h-96v-286h96q57 0 100.5 -42t43.5 -102v-880q0 -59 -41 -101.5t-103 -42.5h-96v-286z" />
<glyph unicode="+" d="M102 512h287v-287h287v287h287v287h-287v286h-287v-286h-287v-287z" />
<glyph unicode="," horiz-adv-x="610" d="M41 -162h283l204 572h-323z" />
<glyph unicode="-" d="M102 512h861v287h-861v-287z" />
<glyph unicode="." horiz-adv-x="573" d="M82 205q0 -84 59.5 -144.5t145.5 -60.5q84 0 144.5 60.5t60.5 144.5t-60.5 144.5t-144.5 60.5q-86 0 -145.5 -60.5t-59.5 -144.5z" />
<glyph unicode="/" d="M102 0h287l655 1638h-286z" />
<glyph unicode="0" horiz-adv-x="1187" d="M102 479v676q0 205 144.5 349.5t345.5 144.5q205 0 349 -144.5t144 -349.5v-676q0 -201 -144 -345t-349 -144q-201 0 -345.5 144t-144.5 345zM389 680l326 639q-55 43 -123 43q-82 0 -142.5 -62.5t-60.5 -144.5v-475zM455 326q55 -49 137 -50q84 0 145.5 61.5t61.5 141.5 v522z" />
<glyph unicode="1" horiz-adv-x="1187" d="M102 0h983v287h-348v1351h-635v-286h349v-1065h-349v-287z" />
<glyph unicode="2" horiz-adv-x="1193" d="M102 0h990v289h-674q0 115 86 206t178 140q12 6 61.5 29.5t77 40t74.5 48t76.5 66.5t60.5 83t45.5 112.5t14.5 138.5q0 205 -144.5 350.5t-349.5 145.5t-350.5 -144.5t-145.5 -351.5h289q0 84 61.5 145.5t145.5 61.5q82 0 143.5 -62.5t61.5 -144.5q0 -172 -205 -266 q-252 -117 -374 -289t-122 -371v-227z" />
<glyph unicode="3" horiz-adv-x="1193" d="M102 494q0 -205 145.5 -349.5t350.5 -144.5t349.5 144.5t144.5 349.5q0 193 -127 329q127 139 127 332q0 205 -144.5 349.5t-349.5 144.5t-350.5 -144.5t-145.5 -349.5h310q0 80 53 142.5t133 62.5q90 0 147.5 -57.5t57.5 -147.5q0 -78 -59.5 -131t-131.5 -55h-125v-289 h123q72 0 132.5 -54.5t60.5 -131.5q0 -90 -57.5 -147.5t-147.5 -57.5q-84 0 -145.5 63.5t-61.5 141.5h-289z" />
<glyph unicode="4" horiz-adv-x="1263" d="M102 492v282l588 864h287v-880h184v-266h-184v-492h-287v492h-471h-61h-56zM395 758h295v446z" />
<glyph unicode="5" horiz-adv-x="1187" d="M102 492q0 -205 143.5 -348.5t348.5 -143.5t348 143.5t143 348t-143 348t-348 143.5h-205v369h635v286h-922v-942h492q82 0 143.5 -61.5t61.5 -143t-60.5 -143t-144.5 -61.5q-86 0 -145.5 59.5t-59.5 145.5h-287z" />
<glyph unicode="6" horiz-adv-x="1193" d="M102 494q0 -205 145.5 -349.5t350.5 -144.5t349.5 144.5t144.5 349t-144.5 350t-349.5 145.5q-78 0 -207 -41v205q0 84 61.5 145.5t145.5 61.5q82 0 143.5 -62.5t61.5 -144.5h289q0 205 -144.5 350.5t-349.5 145.5t-350.5 -144.5t-145.5 -351.5v-659zM391 494 q0 86 62.5 146t144.5 60t143.5 -62.5t61.5 -144t-61.5 -143t-143.5 -61.5q-88 0 -147.5 59.5t-59.5 145.5z" />
<glyph unicode="7" horiz-adv-x="1167" d="M102 0l635 1352h-635v286h963v-286l-635 -1352h-328z" />
<glyph unicode="8" horiz-adv-x="1193" d="M102 494q0 -205 145.5 -349.5t350.5 -144.5t349.5 144.5t144.5 349.5q0 193 -127 329q127 139 127 332q0 203 -144.5 348.5t-349.5 145.5t-350.5 -145.5t-145.5 -348.5q0 -190 125 -332q-125 -136 -125 -329zM391 494q0 86 61.5 146t145.5 60t144.5 -62.5t60.5 -144 t-61.5 -143t-143.5 -61.5q-86 0 -146.5 60.5t-60.5 144.5zM391 1155q0 82 61.5 142.5t145.5 60.5q82 0 143.5 -61.5t61.5 -141.5q0 -84 -61.5 -145.5t-143.5 -61.5q-86 0 -146.5 60.5t-60.5 146.5z" />
<glyph unicode="9" horiz-adv-x="1193" d="M102 496q0 -205 144.5 -350.5t349.5 -145.5q207 0 351.5 145.5t144.5 350.5v659q0 205 -145.5 349.5t-350.5 144.5t-349.5 -144.5t-144.5 -349.5t144.5 -350.5t349.5 -145.5q80 0 207 41v-204q0 -84 -61.5 -145.5t-145.5 -61.5q-82 0 -143.5 62.5t-61.5 144.5h-289z M391 1155q0 82 61.5 143.5t143.5 61.5q88 0 147.5 -59.5t59.5 -145.5t-62.5 -146.5t-144.5 -60.5t-143.5 62.5t-61.5 144.5z" />
<glyph unicode=":" horiz-adv-x="573" d="M82 205q0 -84 60.5 -144.5t144.5 -60.5q86 0 145.5 60.5t59.5 144.5t-59.5 144.5t-145.5 60.5q-84 0 -144.5 -60.5t-60.5 -144.5zM82 758q0 -84 60.5 -144.5t144.5 -60.5q86 0 145.5 60.5t59.5 144.5t-59.5 144.5t-145.5 60.5q-84 0 -144.5 -60.5t-60.5 -144.5z" />
<glyph unicode=";" horiz-adv-x="610" d="M41 -162h283l204 572h-323zM147 758q0 -84 60.5 -144.5t144.5 -60.5q86 0 145.5 60.5t59.5 144.5t-59.5 144.5t-145.5 60.5q-84 0 -144.5 -60.5t-60.5 -144.5z" />
<glyph unicode="=" d="M102 287h861v286h-861v-286zM102 737h861v287h-861v-287z" />
<glyph unicode="?" d="M10 1124h309q0 88 65 151.5t151 63.5t150.5 -63.5t64.5 -151.5t-64.5 -151.5t-150.5 -63.5h-259v-438h259v129q217 0 370.5 153.5t153.5 370.5t-153.5 371t-371 154t-371 -154t-153.5 -371zM205 205q0 -84 60.5 -144.5t144.5 -60.5t144 60.5t60 144.5t-60 144.5 t-144 60.5t-144.5 -60.5t-60.5 -144.5z" />
<glyph unicode="@" horiz-adv-x="1394" d="M102 299v686h2q4 209 179.5 355.5t414.5 146.5q256 0 423 -144.5t171 -357.5v-10v-737h-286v79q-92 -90 -205 -90q-156 0 -252 95.5t-96 259.5q0 186 119.5 282.5t340.5 96.5h93v14q0 96 -89.5 160.5t-218.5 64.5q-123 0 -215 -65.5t-92 -159.5h-2v-676h2q0 -123 91 -205 t216 -82q100 0 184.5 38t123.5 106l247 -115q-53 -123 -209.5 -219t-345.5 -96q-276 0 -435 161.5t-159 411.5h-2zM745 602q0 -53 32 -83t85 -30q59 0 101.5 42t42.5 126v64h-13q-33 0 -49 -1t-52 -3t-56.5 -10.5t-44 -20.5t-35 -33.5t-11.5 -50.5z" />
<glyph unicode="A" horiz-adv-x="1228" d="M20 0h287l101 410h413l101 -410h286l-399 1638h-102h-185h-102zM471 674l143 586l144 -586h-287z" />
<glyph unicode="B" horiz-adv-x="1187" d="M133 0v1638h21h266h203q205 0 349 -144t144 -349q0 -199 -145 -326q145 -129 145 -330t-144.5 -345t-348.5 -144h-203h-266h-21zM420 287h203q84 0 145 60.5t61 141.5q0 84 -61 145.5t-145 61.5h-203v-409zM420 942h203q84 0 145 60.5t61 142.5q0 84 -61 145.5t-145 61.5 h-203v-410z" />
<glyph unicode="C" horiz-adv-x="1157" d="M92 479v676q0 205 144.5 349.5t345.5 144.5q205 0 349 -144.5t144 -349.5v-162h-287v162q-2 84 -63 145.5t-143 61.5q-82 -2 -142.5 -62.5t-60.5 -144.5v-676q2 -94 59.5 -148.5t143.5 -54.5q84 2 145 61.5t61 141.5v166h287v-166q0 -201 -144.5 -345t-348.5 -144 q-201 0 -345.5 144t-144.5 345z" />
<glyph unicode="D" horiz-adv-x="1208" d="M133 0v1638h21h266h203q205 0 349 -144t144 -349v-656q0 -201 -144.5 -345t-348.5 -144h-203h-266h-21zM420 287h203q84 2 145 61.5t61 140.5v656q-2 86 -62 146.5t-144 60.5h-203v-1065z" />
<glyph unicode="E" horiz-adv-x="1075" d="M133 0v1638h21h266h553v-286h-553v-389h553v-287h-553v-389h553v-287h-553h-266h-21z" />
<glyph unicode="F" horiz-adv-x="1075" d="M133 0v1638h21h266h553v-286h-553v-389h553v-287h-553v-676h-287z" />
<glyph unicode="G" horiz-adv-x="1169" d="M92 492v653q0 205 144.5 349t347.5 144q205 0 349 -144t144 -349h-286q-2 84 -62.5 144.5t-144.5 60.5q-84 -2 -144.5 -63.5t-60.5 -141.5v-653q2 -84 62.5 -144.5t142.5 -60.5q86 2 146.5 61.5t60.5 143.5v165h-207v287h207h120h166v-452q0 -203 -144.5 -347.5 t-348.5 -144.5q-203 0 -347.5 144.5t-144.5 347.5z" />
<glyph unicode="H" horiz-adv-x="1249" d="M133 0v1638h287v-675h409v675h287v-1638h-287v676h-409v-676h-287z" />
<glyph unicode="I" horiz-adv-x="569" d="M141 0v1638h287v-1638h-287z" />
<glyph unicode="J" horiz-adv-x="1150" d="M68 479q0 -201 144 -345t349 -144q201 0 345.5 144.5t144.5 344.5v1159h-287v-1159q-2 -94 -59.5 -148.5t-143.5 -54.5q-84 2 -145.5 61.5t-61.5 141.5v166h-286v-166z" />
<glyph unicode="K" horiz-adv-x="1216" d="M133 0v1638h287v-651l428 651h328l-471 -704l471 -934h-328l-344 684l-84 -133v-551h-287z" />
<glyph unicode="L" horiz-adv-x="1040" d="M133 0v287v1351h287v-1351h553v-287h-553h-287z" />
<glyph unicode="M" horiz-adv-x="1454" d="M133 0v1638h146h141h84l229 -778l242 778h59h146h141v-1638h-287v1073l-141 -551h-62h-204h-62l-145 565v-1087h-287z" />
<glyph unicode="N" horiz-adv-x="1249" d="M133 0v1638h2h285h2l407 -964v964h287v-1638h-2h-285h-2l-407 965v-965h-287z" />
<glyph unicode="O" horiz-adv-x="1167" d="M92 479v676q0 205 144.5 349.5t345.5 144.5q205 0 349 -144.5t144 -349.5v-676q0 -201 -144.5 -345t-348.5 -144q-201 0 -345.5 144t-144.5 345zM379 479q2 -94 59.5 -148.5t143.5 -54.5q84 2 145 61.5t61 141.5v676q-2 84 -63 145.5t-143 61.5q-82 -2 -142.5 -62.5 t-60.5 -144.5v-676z" />
<glyph unicode="P" horiz-adv-x="1177" d="M133 0v594v287v471v286h490q205 0 349 -144t144 -349v-62q0 -201 -144.5 -345t-348.5 -144h-203v-594h-287zM420 881h203q84 2 145 61t61 141v62q-2 86 -62 146.5t-144 60.5h-203v-471z" />
<glyph unicode="Q" horiz-adv-x="1167" d="M92 479v676q0 205 144.5 349.5t345.5 144.5q205 0 349 -144.5t144 -349.5v-676q0 -209 -155 -354q115 -129 114 -301h-280q-2 68 -36 112t-93 56q-20 -2 -43 -2q-201 0 -345.5 144t-144.5 345zM379 479q2 -94 59.5 -148.5t143.5 -54.5q84 2 145 61.5t61 141.5v676 q-2 84 -63 145.5t-143 61.5q-82 -2 -142.5 -62.5t-60.5 -144.5v-676z" />
<glyph unicode="R" horiz-adv-x="1210" d="M133 0v1638h21h266h203q205 0 349 -144t144 -349v-62q0 -139 -74.5 -256.5t-197.5 -179.5l284 -647h-329l-260 594h-119v-594h-287zM420 881h203q84 2 145 61t61 141v62q-2 86 -62 146.5t-144 60.5h-203v-471z" />
<glyph unicode="S" horiz-adv-x="1146" d="M82 489h287q4 -84 62 -143t140 -59q84 0 137.5 45t53.5 117q0 51 -44 94t-97.5 69.5t-143.5 68.5t-141 71q-109 61 -181.5 167.5t-72.5 245.5q0 203 143.5 338t345.5 135q205 0 349.5 -144t144.5 -349h-287q-4 86 -63.5 146.5t-143.5 60.5q-86 0 -137 -42t-51 -124 q0 -35 21.5 -67t64.5 -60.5t83 -50t105.5 -52t102.5 -51.5q305 -166 305 -436q0 -199 -143.5 -334t-350.5 -135q-201 0 -345 144t-144 345z" />
<glyph unicode="T" d="M41 1352v286h983v-286h-348v-1352h-287v1352h-348z" />
<glyph unicode="U" horiz-adv-x="1228" d="M123 479v1159h287v-1159q2 -94 59 -148.5t143 -54.5q84 2 145.5 61.5t61.5 141.5v1159h287v-1159q0 -201 -144.5 -345t-349.5 -144q-201 0 -345 144t-144 345z" />
<glyph unicode="V" horiz-adv-x="1085" d="M41 1638l307 -1638h103h184h102l307 1638h-286l-215 -1146l-215 1146h-287z" />
<glyph unicode="W" horiz-adv-x="1630" d="M37 1638l307 -1638h62h204h41l164 936l164 -936h41h205h61l307 1638h-286l-181 -1032l-168 1032h-20h-246h-20l-168 -1032l-180 1032h-287z" />
<glyph unicode="X" horiz-adv-x="1142" d="M37 0l381 840l-381 798h307l227 -501l228 501h307l-381 -798l381 -840h-307l-228 528l-227 -528h-307z" />
<glyph unicode="Y" horiz-adv-x="1105" d="M20 1638h308l223 -600l227 600h307l-391 -983v-655h-286v655z" />
<glyph unicode="Z" horiz-adv-x="1044" d="M82 0v287l573 1065h-573v286h881v-286l-574 -1065h574v-287h-881z" />
<glyph unicode="_" d="M102 0h861v287h-861v-287z" />
<glyph unicode="`" d="M301 1638h307l135 -338h-266z" />
<glyph unicode="a" horiz-adv-x="1048" d="M61 344q0 186 120 282.5t341 96.5h133v96q0 59 -43 101.5t-100 42.5q-59 0 -101 -42t-42 -102h-287q0 178 126 304t304 126q176 0 301 -122.5t129 -297.5v-10v-819h-287v94q-106 -104 -245 -104q-156 0 -252.5 95t-96.5 259zM354 365q0 -53 32 -83t85 -30q72 0 128 48 t56 120v63h-53q-33 0 -49 -1t-52 -3t-56.5 -10t-44 -20.5t-35 -33.5t-11.5 -50z" />
<glyph unicode="b" horiz-adv-x="1087" d="M123 0h287v72q86 -82 204 -82q158 0 266 119q104 114 103 297v14v399v14q0 183 -103 297q-108 119 -266 119q-119 0 -204 -82v531h-287v-1698zM410 420v399q0 59 42 101.5t101 42.5q57 0 100 -42t43 -102v-399q0 -59 -43 -101.5t-100 -42.5q-59 0 -101 42.5t-42 101.5z " />
<glyph unicode="c" horiz-adv-x="1044" d="M102 410v10v399v10q4 174 129 297t301 123q178 0 304.5 -126t126.5 -304v-43h-287v43q0 59 -42 101.5t-102 42.5q-57 0 -100 -42t-43 -102v-399q0 -59 42 -101.5t101 -42.5q61 0 102.5 42t41.5 102v43h287v-43q0 -178 -126 -304t-305 -126q-176 0 -301 123t-129 297z" />
<glyph unicode="d" horiz-adv-x="1107" d="M104 420v399v13q0 184 118 298q122 119 302 119q94 0 174 -53v502h287v-1698h-287v78q-92 -88 -215 -88q-158 0 -270 120q-109 116 -109 297v13zM391 420q0 -59 46 -101.5t107.5 -42.5t107.5 42t46 102v399q0 59 -46 101.5t-107.5 42.5t-107.5 -42t-46 -102v-399z" />
<glyph unicode="e" horiz-adv-x="1044" d="M102 420v399q0 178 126 304t304.5 126t304.5 -126t126 -304v-20v-23v-217h-574v-139q0 -72 41 -113t102 -41q66 0 110 41t44 113h277q0 -176 -131.5 -303t-311.5 -127q-190 0 -304 123t-114 307zM389 799h297v20q0 72 -45 115t-109 43q-59 0 -101 -43t-42 -115v-20z" />
<glyph unicode="f" horiz-adv-x="737" d="M51 979v260h123v31q0 178 126 304t304 126h144v-287h-144q-57 0 -100 -42t-43 -101v-31h246v-260h-246v-981h-287v981h-123z" />
<glyph unicode="g" horiz-adv-x="1087" d="M104 -82h287q0 -59 42 -101t101.5 -42t101.5 41t42 102v176q-96 -94 -225 -94q-166 0 -259 116q-89 111 -90 297v17v389v14q0 183 104 297q108 119 265 119q119 0 205 -82v72h287v-1321q0 -178 -126 -304t-304.5 -126t-304.5 126t-126 304zM391 430q0 -59 43 -101 t101 -42q59 0 101 42t42 101v389q0 59 -42 101.5t-101 42.5q-57 0 -100.5 -42t-43.5 -102v-389z" />
<glyph unicode="h" horiz-adv-x="1118" d="M123 0h287v819q0 59 47 101.5t106 42.5q63 0 108.5 -42t45.5 -102v-819h287v819v13q0 181 -109 297q-113 120 -270 120q-123 0 -215 -88v537h-287v-1698z" />
<glyph unicode="i" horiz-adv-x="532" d="M92 1546.5q0 -71.5 51.5 -123t123 -51.5t123.5 51.5t52 123t-52 123.5t-123.5 52t-123 -52t-51.5 -123.5zM123 0h287v1239h-287v-1239z" />
<glyph unicode="j" horiz-adv-x="559" d="M0 -225q59 0 101 41t42 102v1321h287v-1321q0 -178 -126 -304t-304 -126v287zM106 1546.5q0 -71.5 51.5 -123t123 -51.5t124 51.5t52.5 123t-52.5 123.5t-124 52t-123 -52t-51.5 -123.5z" />
<glyph unicode="k" horiz-adv-x="1009" d="M123 0v1698h287v-944l258 485h321l-317 -573l311 -666h-321l-252 561v-561h-287z" />
<glyph unicode="l" horiz-adv-x="532" d="M123 0h287v1698h-287v-1698z" />
<glyph unicode="m" horiz-adv-x="1705" d="M123 0h287v819q0 59 47 101.5t106 42.5q63 0 108.5 -42t45.5 -102v-819h287v819v4q2 57 48 98.5t105 41.5q63 0 108.5 -42t45.5 -102v-819h286v819q0 7 1 13q0 183 -112 298q-116 119 -288 119q-76 0 -153.5 -34.5t-137.5 -98.5q-111 133 -282 133q-123 0 -215 -88v80 h-287v-1241z" />
<glyph unicode="n" horiz-adv-x="1112" d="M123 0h287v819q0 59 47 101.5t106 42.5q63 0 108.5 -42t45.5 -102v-819h287v819v13q0 181 -109 297q-113 120 -270 120q-123 0 -215 -88v78h-287v-1239z" />
<glyph unicode="o" horiz-adv-x="1067" d="M102 430v389q0 178 126 304t304.5 126t304.5 -126t126 -304h2v-389h-2q0 -178 -126 -304t-304.5 -126t-304.5 126t-126 304zM389 430q0 -59 42 -101t101 -42q61 0 102.5 42t41.5 101h2v389h-2q0 59 -42 101.5t-102 42.5q-57 0 -100 -42t-43 -102v-389z" />
<glyph unicode="p" horiz-adv-x="1087" d="M123 -508h287v590q86 -82 204 -82q158 0 266 119q104 114 103 297v14v389v14q0 183 -103 297q-108 119 -266 119q-119 0 -204 -82v74h-287v-1749zM410 430v389q0 59 42 101.5t101 42.5q57 0 100 -42t43 -102v-389q0 -59 -43 -101t-100 -42q-59 0 -101 42t-42 101z" />
<glyph unicode="q" horiz-adv-x="1087" d="M104 420v399v14q0 183 104 297q108 119 265 119q119 0 205 -82v70h287v-1749h-287v584q-86 -82 -205 -82q-158 0 -265 119q-104 114 -104 297v14zM391 420q0 -59 43 -101.5t101 -42.5q59 0 101 42t42 102v399q0 59 -42 101.5t-101 42.5q-57 0 -100.5 -42t-43.5 -102v-399 z" />
<glyph unicode="r" horiz-adv-x="747" d="M123 0h287v748q0 96 71.5 150t143.5 54h123v287h-123q-123 0 -215 -88v88h-287v-1239z" />
<glyph unicode="s" horiz-adv-x="933" d="M72 379q0 -158 111.5 -268.5t267.5 -110.5h32q156 0 267.5 112.5t111.5 270.5q0 74 -23.5 133t-65.5 100t-73.5 62.5t-76.5 44.5q-35 18 -81 38.5t-72 33t-51.5 28t-36.5 28.5t-11 28q0 41 21.5 72.5t58.5 31.5h32q37 0 64.5 -36t27.5 -77v-30h287v30q0 158 -111.5 268.5 t-267.5 110.5h-32q-156 0 -267.5 -112.5t-111.5 -270.5q0 -217 204 -307q162 -74 226.5 -112.5t64.5 -73.5q0 -41 -23.5 -74t-60.5 -33h-32q-37 0 -65 36t-28 77v31h-286v-31z" />
<glyph unicode="t" horiz-adv-x="747" d="M20 979h123v-612q0 -176 104.5 -272.5t284.5 -96.5h185v287h-144q-57 0 -100 42t-43 101v551h246v260h-246v317h-287v-317h-123v-260z" />
<glyph unicode="u" horiz-adv-x="1103" d="M100 420v-13q0 -181 109 -297q113 -120 270 -120q123 0 215 88v-78h287v1239h-287v-819q0 -59 -47 -101.5t-106 -42.5q-63 0 -108.5 42t-45.5 102v819h-287v-819z" />
<glyph unicode="v" horiz-adv-x="921" d="M10 1239h287l168 -780l180 780h266l-286 -1239h-62h-205h-61z" />
<glyph unicode="w" horiz-adv-x="1617" d="M10 1239h287l174 -752l174 752h62h204h62l174 -752l174 752h287l-287 -1239h-61h-226h-41l-184 797l-184 -797h-41h-226h-61z" />
<glyph unicode="x" horiz-adv-x="964" d="M0 0l315 647l-315 592h322l161 -338l160 338h322l-316 -592l316 -647h-322l-160 371l-161 -371h-322z" />
<glyph unicode="y" horiz-adv-x="964" d="M0 1239h287l194 -733l183 733h280l-450 -1749h-267l127 510h-6z" />
<glyph unicode="z" horiz-adv-x="940" d="M61 0v256l459 707h-459v276h476h67h275v-256l-461 -707h461v-276h-476h-67h-275z" />
<glyph unicode="&#xa8;" d="M225 1474.5q0 -51.5 41 -88t100.5 -36.5t101.5 36.5t42 88t-42 88t-101.5 36.5t-100.5 -36.5t-41 -88zM592 1474.5q0 -51.5 41 -88t100.5 -36.5t101.5 36.5t42 88t-42 88t-101.5 36.5t-100.5 -36.5t-41 -88z" />
<glyph unicode="&#xaa;" horiz-adv-x="1048" d="M61 344q0 186 120 282.5t341 96.5h133v96q0 59 -43 101.5t-100 42.5q-59 0 -101 -42t-42 -102h-287q0 178 126 304t304 126q176 0 301 -122.5t129 -297.5v-10v-819h-287v94q-106 -104 -245 -104q-156 0 -252.5 95t-96.5 259zM354 365q0 -53 32 -83t85 -30q72 0 128 48 t56 120v63h-53q-33 0 -49 -1t-52 -3t-56.5 -10t-44 -20.5t-35 -33.5t-11.5 -50z" />
<glyph unicode="&#xad;" d="M102 512h861v287h-861v-287z" />
<glyph unicode="&#xb2;" horiz-adv-x="1193" d="M102 0h990v289h-674q0 115 86 206t178 140q12 6 61.5 29.5t77 40t74.5 48t76.5 66.5t60.5 83t45.5 112.5t14.5 138.5q0 205 -144.5 350.5t-349.5 145.5t-350.5 -144.5t-145.5 -351.5h289q0 84 61.5 145.5t145.5 61.5q82 0 143.5 -62.5t61.5 -144.5q0 -172 -205 -266 q-252 -117 -374 -289t-122 -371v-227z" />
<glyph unicode="&#xb3;" horiz-adv-x="1193" d="M102 494q0 -205 145.5 -349.5t350.5 -144.5t349.5 144.5t144.5 349.5q0 193 -127 329q127 139 127 332q0 205 -144.5 349.5t-349.5 144.5t-350.5 -144.5t-145.5 -349.5h310q0 80 53 142.5t133 62.5q90 0 147.5 -57.5t57.5 -147.5q0 -78 -59.5 -131t-131.5 -55h-125v-289 h123q72 0 132.5 -54.5t60.5 -131.5q0 -90 -57.5 -147.5t-147.5 -57.5q-84 0 -145.5 63.5t-61.5 141.5h-289z" />
<glyph unicode="&#xb4;" d="M403 1300h267l176 338h-307z" />
<glyph unicode="&#xb9;" horiz-adv-x="1187" d="M102 0h983v287h-348v1351h-635v-286h349v-1065h-349v-287z" />
<glyph unicode="&#xba;" horiz-adv-x="1067" d="M102 430v389q0 178 126 304t304.5 126t304.5 -126t126 -304h2v-389h-2q0 -178 -126 -304t-304.5 -126t-304.5 126t-126 304zM389 430q0 -59 42 -101t101 -42q61 0 102.5 42t41.5 101h2v389h-2q0 59 -42 101.5t-102 42.5q-57 0 -100 -42t-43 -102v-389z" />
<glyph unicode="&#xc0;" horiz-adv-x="1228" d="M393 2027h307l135 -338h-266zM20 0h287l101 410h413l101 -410h286l-399 1638h-102h-185h-102zM471 674l143 586l144 -586h-287z" />
<glyph unicode="&#xc1;" horiz-adv-x="1228" d="M481 1771h267l176 338h-307zM20 0h287l101 410h413l101 -410h286l-399 1638h-102h-185h-102zM471 674l143 586l144 -586h-287z" />
<glyph unicode="&#xc2;" horiz-adv-x="1228" d="M290 1689l136 338h170h34h170l136 -338h-267l-57 259l-55 -259h-267zM20 0h287l101 410h413l101 -410h286l-399 1638h-102h-185h-102zM471 674l143 586l144 -586h-287z" />
<glyph unicode="&#xc4;" horiz-adv-x="1228" d="M288 1896.5q0 -51.5 41 -88t100.5 -36.5t101.5 36.5t42 88t-42 88t-101.5 36.5t-100.5 -36.5t-41 -88zM655 1896.5q0 -51.5 41 -88t100.5 -36.5t101.5 36.5t42 88t-42 88t-101.5 36.5t-100.5 -36.5t-41 -88zM20 0h287l101 410h413l101 -410h286l-399 1638h-102h-185h-102 zM471 674l143 586l144 -586h-287z" />
<glyph unicode="&#xc8;" horiz-adv-x="1075" d="M305 2027h307l135 -338h-266zM133 0v1638h21h266h553v-286h-553v-389h553v-287h-553v-389h553v-287h-553h-266h-21z" />
<glyph unicode="&#xc9;" horiz-adv-x="1075" d="M407 1689h267l176 338h-307zM133 0v1638h21h266h553v-286h-553v-389h553v-287h-553v-389h553v-287h-553h-266h-21z" />
<glyph unicode="&#xca;" horiz-adv-x="1075" d="M235 1689l136 338h170h34h170l136 -338h-267l-57 259l-55 -259h-267zM133 0v1638h21h266h553v-286h-553v-389h553v-287h-553v-389h553v-287h-553h-266h-21z" />
<glyph unicode="&#xcb;" horiz-adv-x="1075" d="M231 1863.5q0 -51.5 41 -88t100.5 -36.5t101.5 36.5t42 88t-42 88t-101.5 36.5t-100.5 -36.5t-41 -88zM598 1863.5q0 -51.5 41 -88t100.5 -36.5t101.5 36.5t42 88t-42 88t-101.5 36.5t-100.5 -36.5t-41 -88zM133 0v1638h21h266h553v-286h-553v-389h553v-287h-553v-389 h553v-287h-553h-266h-21z" />
<glyph unicode="&#xcc;" horiz-adv-x="569" d="M-25 2109h307l135 -338h-266zM141 0v1638h287v-1638h-287z" />
<glyph unicode="&#xcd;" horiz-adv-x="569" d="M151 1771h267l176 338h-307zM141 0v1638h287v-1638h-287z" />
<glyph unicode="&#xce;" horiz-adv-x="569" d="M-39 1771l136 338h170h34h170l136 -338h-267l-57 259l-55 -259h-267zM141 0v1638h287v-1638h-287z" />
<glyph unicode="&#xcf;" horiz-adv-x="569" d="M-41 1863.5q0 -51.5 41 -88t100.5 -36.5t101.5 36.5t42 88t-42 88t-101.5 36.5t-100.5 -36.5t-41 -88zM326 1863.5q0 -51.5 41 -88t100.5 -36.5t101.5 36.5t42 88t-42 88t-101.5 36.5t-100.5 -36.5t-41 -88zM141 0v1638h287v-1638h-287z" />
<glyph unicode="&#xd2;" horiz-adv-x="1167" d="M272 2109h307l135 -338h-266zM92 479v676q0 205 144.5 349.5t345.5 144.5q205 0 349 -144.5t144 -349.5v-676q0 -201 -144.5 -345t-348.5 -144q-201 0 -345.5 144t-144.5 345zM379 479q2 -94 59.5 -148.5t143.5 -54.5q84 2 145 61.5t61 141.5v676q-2 84 -63 145.5 t-143 61.5q-82 -2 -142.5 -62.5t-60.5 -144.5v-676z" />
<glyph unicode="&#xd3;" horiz-adv-x="1167" d="M448 1771h267l176 338h-307zM92 479v676q0 205 144.5 349.5t345.5 144.5q205 0 349 -144.5t144 -349.5v-676q0 -201 -144.5 -345t-348.5 -144q-201 0 -345.5 144t-144.5 345zM379 479q2 -94 59.5 -148.5t143.5 -54.5q84 2 145 61.5t61 141.5v676q-2 84 -63 145.5 t-143 61.5q-82 -2 -142.5 -62.5t-60.5 -144.5v-676z" />
<glyph unicode="&#xd4;" horiz-adv-x="1167" d="M260 1771l136 338h170h34h170l136 -338h-267l-57 259l-55 -259h-267zM92 479v676q0 205 144.5 349.5t345.5 144.5q205 0 349 -144.5t144 -349.5v-676q0 -201 -144.5 -345t-348.5 -144q-201 0 -345.5 144t-144.5 345zM379 479q2 -94 59.5 -148.5t143.5 -54.5 q84 2 145 61.5t61 141.5v676q-2 84 -63 145.5t-143 61.5q-82 -2 -142.5 -62.5t-60.5 -144.5v-676z" />
<glyph unicode="&#xd6;" horiz-adv-x="1167" d="M256 1896.5q0 -51.5 41 -88t100.5 -36.5t101.5 36.5t42 88t-42 88t-101.5 36.5t-100.5 -36.5t-41 -88zM623 1896.5q0 -51.5 41 -88t100.5 -36.5t101.5 36.5t42 88t-42 88t-101.5 36.5t-100.5 -36.5t-41 -88zM92 479v676q0 205 144.5 349.5t345.5 144.5q205 0 349 -144.5 t144 -349.5v-676q0 -201 -144.5 -345t-348.5 -144q-201 0 -345.5 144t-144.5 345zM379 479q2 -94 59.5 -148.5t143.5 -54.5q84 2 145 61.5t61 141.5v676q-2 84 -63 145.5t-143 61.5q-82 -2 -142.5 -62.5t-60.5 -144.5v-676z" />
<glyph unicode="&#xd9;" horiz-adv-x="1228" d="M305 2109h307l135 -338h-266zM123 479v1159h287v-1159q2 -94 59 -148.5t143 -54.5q84 2 145.5 61.5t61.5 141.5v1159h287v-1159q0 -201 -144.5 -345t-349.5 -144q-201 0 -345 144t-144 345z" />
<glyph unicode="&#xda;" horiz-adv-x="1228" d="M481 1771h267l176 338h-307zM123 479v1159h287v-1159q2 -94 59 -148.5t143 -54.5q84 2 145.5 61.5t61.5 141.5v1159h287v-1159q0 -201 -144.5 -345t-349.5 -144q-201 0 -345 144t-144 345z" />
<glyph unicode="&#xdb;" horiz-adv-x="1228" d="M292 1771l136 338h170h34h170l136 -338h-267l-57 259l-55 -259h-267zM123 479v1159h287v-1159q2 -94 59 -148.5t143 -54.5q84 2 145.5 61.5t61.5 141.5v1159h287v-1159q0 -201 -144.5 -345t-349.5 -144q-201 0 -345 144t-144 345z" />
<glyph unicode="&#xdc;" horiz-adv-x="1228" d="M288 1896.5q0 -51.5 41 -88t100.5 -36.5t101.5 36.5t42 88t-42 88t-101.5 36.5t-100.5 -36.5t-41 -88zM655 1896.5q0 -51.5 41 -88t100.5 -36.5t101.5 36.5t42 88t-42 88t-101.5 36.5t-100.5 -36.5t-41 -88zM123 479v1159h287v-1159q2 -94 59 -148.5t143 -54.5 q84 2 145.5 61.5t61.5 141.5v1159h287v-1159q0 -201 -144.5 -345t-349.5 -144q-201 0 -345 144t-144 345z" />
<glyph unicode="&#xdd;" horiz-adv-x="1105" d="M419 1771h267l176 338h-307zM20 1638h308l223 -600l227 600h307l-391 -983v-655h-286v655z" />
<glyph unicode="&#xe0;" horiz-adv-x="1048" d="M203 1710h307l135 -338h-266zM61 344q0 186 120 282.5t341 96.5h133v96q0 59 -43 101.5t-100 42.5q-59 0 -101 -42t-42 -102h-287q0 178 126 304t304 126q176 0 301 -122.5t129 -297.5v-10v-819h-287v94q-106 -104 -245 -104q-156 0 -252.5 95t-96.5 259zM354 365 q0 -53 32 -83t85 -30q72 0 128 48t56 120v63h-53q-33 0 -49 -1t-52 -3t-56.5 -10t-44 -20.5t-35 -33.5t-11.5 -50z" />
<glyph unicode="&#xe1;" horiz-adv-x="1048" d="M378 1372h267l176 338h-307zM61 344q0 186 120 282.5t341 96.5h133v96q0 59 -43 101.5t-100 42.5q-59 0 -101 -42t-42 -102h-287q0 178 126 304t304 126q176 0 301 -122.5t129 -297.5v-10v-819h-287v94q-106 -104 -245 -104q-156 0 -252.5 95t-96.5 259zM354 365 q0 -53 32 -83t85 -30q72 0 128 48t56 120v63h-53q-33 0 -49 -1t-52 -3t-56.5 -10t-44 -20.5t-35 -33.5t-11.5 -50z" />
<glyph unicode="&#xe2;" horiz-adv-x="1048" d="M190 1372l136 338h170h34h170l136 -338h-267l-57 259l-55 -259h-267zM61 344q0 186 120 282.5t341 96.5h133v96q0 59 -43 101.5t-100 42.5q-59 0 -101 -42t-42 -102h-287q0 178 126 304t304 126q176 0 301 -122.5t129 -297.5v-10v-819h-287v94q-106 -104 -245 -104 q-156 0 -252.5 95t-96.5 259zM354 365q0 -53 32 -83t85 -30q72 0 128 48t56 120v63h-53q-33 0 -49 -1t-52 -3t-56.5 -10t-44 -20.5t-35 -33.5t-11.5 -50z" />
<glyph unicode="&#xe4;" horiz-adv-x="1048" d="M186 1497.5q0 -51.5 41 -88t100.5 -36.5t101.5 36.5t42 88t-42 88t-101.5 36.5t-100.5 -36.5t-41 -88zM553 1497.5q0 -51.5 41 -88t100.5 -36.5t101.5 36.5t42 88t-42 88t-101.5 36.5t-100.5 -36.5t-41 -88zM61 344q0 186 120 282.5t341 96.5h133v96q0 59 -43 101.5 t-100 42.5q-59 0 -101 -42t-42 -102h-287q0 178 126 304t304 126q176 0 301 -122.5t129 -297.5v-10v-819h-287v94q-106 -104 -245 -104q-156 0 -252.5 95t-96.5 259zM354 365q0 -53 32 -83t85 -30q72 0 128 48t56 120v63h-53q-33 0 -49 -1t-52 -3t-56.5 -10t-44 -20.5 t-35 -33.5t-11.5 -50z" />
<glyph unicode="&#xe8;" horiz-adv-x="1044" d="M223 1710h307l135 -338h-266zM102 420v399q0 178 126 304t304.5 126t304.5 -126t126 -304v-20v-23v-217h-574v-139q0 -72 41 -113t102 -41q66 0 110 41t44 113h277q0 -176 -131.5 -303t-311.5 -127q-190 0 -304 123t-114 307zM389 799h297v20q0 72 -45 115t-109 43 q-59 0 -101 -43t-42 -115v-20z" />
<glyph unicode="&#xe9;" horiz-adv-x="1044" d="M399 1372h267l176 338h-307zM102 420v399q0 178 126 304t304.5 126t304.5 -126t126 -304v-20v-23v-217h-574v-139q0 -72 41 -113t102 -41q66 0 110 41t44 113h277q0 -176 -131.5 -303t-311.5 -127q-190 0 -304 123t-114 307zM389 799h297v20q0 72 -45 115t-109 43 q-59 0 -101 -43t-42 -115v-20z" />
<glyph unicode="&#xea;" horiz-adv-x="1044" d="M211 1372l136 338h170h34h170l136 -338h-267l-57 259l-55 -259h-267zM102 420v399q0 178 126 304t304.5 126t304.5 -126t126 -304v-20v-23v-217h-574v-139q0 -72 41 -113t102 -41q66 0 110 41t44 113h277q0 -176 -131.5 -303t-311.5 -127q-190 0 -304 123t-114 307z M389 799h297v20q0 72 -45 115t-109 43q-59 0 -101 -43t-42 -115v-20z" />
<glyph unicode="&#xeb;" horiz-adv-x="1044" d="M207 1497.5q0 -51.5 41 -88t100.5 -36.5t101.5 36.5t42 88t-42 88t-101.5 36.5t-100.5 -36.5t-41 -88zM574 1497.5q0 -51.5 41 -88t100.5 -36.5t101.5 36.5t42 88t-42 88t-101.5 36.5t-100.5 -36.5t-41 -88zM102 420v399q0 178 126 304t304.5 126t304.5 -126t126 -304 v-20v-23v-217h-574v-139q0 -72 41 -113t102 -41q66 0 110 41t44 113h277q0 -176 -131.5 -303t-311.5 -127q-190 0 -304 123t-114 307zM389 799h297v20q0 72 -45 115t-109 43q-59 0 -101 -43t-42 -115v-20z" />
<glyph unicode="&#xec;" horiz-adv-x="532" d="M-43 2183h307l135 -338h-266zM92 1546.5q0 -71.5 51.5 -123t123 -51.5t123.5 51.5t52 123t-52 123.5t-123.5 52t-123 -52t-51.5 -123.5zM123 0h287v1239h-287v-1239z" />
<glyph unicode="&#xed;" horiz-adv-x="532" d="M133 1845h267l176 338h-307zM92 1546.5q0 -71.5 51.5 -123t123 -51.5t123.5 51.5t52 123t-52 123.5t-123.5 52t-123 -52t-51.5 -123.5zM123 0h287v1239h-287v-1239z" />
<glyph unicode="&#xee;" horiz-adv-x="532" d="M-56 1845l136 338h170h34h170l136 -338h-267l-57 259l-55 -259h-267zM92 1546.5q0 -71.5 51.5 -123t123 -51.5t123.5 51.5t52 123t-52 123.5t-123.5 52t-123 -52t-51.5 -123.5zM123 0h287v1239h-287v-1239z" />
<glyph unicode="&#xef;" horiz-adv-x="532" d="M-60 1970.5q0 -51.5 41 -88t100.5 -36.5t101.5 36.5t42 88t-42 88t-101.5 36.5t-100.5 -36.5t-41 -88zM307 1970.5q0 -51.5 41 -88t100.5 -36.5t101.5 36.5t42 88t-42 88t-101.5 36.5t-100.5 -36.5t-41 -88zM92 1546.5q0 -71.5 51.5 -123t123 -51.5t123.5 51.5t52 123 t-52 123.5t-123.5 52t-123 -52t-51.5 -123.5zM123 0h287v1239h-287v-1239z" />
<glyph unicode="&#xf2;" horiz-adv-x="1067" d="M223 1710h307l135 -338h-266zM102 430v389q0 178 126 304t304.5 126t304.5 -126t126 -304h2v-389h-2q0 -178 -126 -304t-304.5 -126t-304.5 126t-126 304zM389 430q0 -59 42 -101t101 -42q61 0 102.5 42t41.5 101h2v389h-2q0 59 -42 101.5t-102 42.5q-57 0 -100 -42 t-43 -102v-389z" />
<glyph unicode="&#xf3;" horiz-adv-x="1067" d="M399 1372h267l176 338h-307zM102 430v389q0 178 126 304t304.5 126t304.5 -126t126 -304h2v-389h-2q0 -178 -126 -304t-304.5 -126t-304.5 126t-126 304zM389 430q0 -59 42 -101t101 -42q61 0 102.5 42t41.5 101h2v389h-2q0 59 -42 101.5t-102 42.5q-57 0 -100 -42 t-43 -102v-389z" />
<glyph unicode="&#xf4;" horiz-adv-x="1067" d="M211 1372l136 338h170h34h170l136 -338h-267l-57 259l-55 -259h-267zM102 430v389q0 178 126 304t304.5 126t304.5 -126t126 -304h2v-389h-2q0 -178 -126 -304t-304.5 -126t-304.5 126t-126 304zM389 430q0 -59 42 -101t101 -42q61 0 102.5 42t41.5 101h2v389h-2 q0 59 -42 101.5t-102 42.5q-57 0 -100 -42t-43 -102v-389z" />
<glyph unicode="&#xf6;" horiz-adv-x="1067" d="M207 1497.5q0 -51.5 41 -88t100.5 -36.5t101.5 36.5t42 88t-42 88t-101.5 36.5t-100.5 -36.5t-41 -88zM574 1497.5q0 -51.5 41 -88t100.5 -36.5t101.5 36.5t42 88t-42 88t-101.5 36.5t-100.5 -36.5t-41 -88zM102 430v389q0 178 126 304t304.5 126t304.5 -126t126 -304h2 v-389h-2q0 -178 -126 -304t-304.5 -126t-304.5 126t-126 304zM389 430q0 -59 42 -101t101 -42q61 0 102.5 42t41.5 101h2v389h-2q0 59 -42 101.5t-102 42.5q-57 0 -100 -42t-43 -102v-389z" />
<glyph unicode="&#xf9;" horiz-adv-x="1103" d="M231 1710h307l135 -338h-266zM100 420v-13q0 -181 109 -297q113 -120 270 -120q123 0 215 88v-78h287v1239h-287v-819q0 -59 -47 -101.5t-106 -42.5q-63 0 -108.5 42t-45.5 102v819h-287v-819z" />
<glyph unicode="&#xfa;" horiz-adv-x="1103" d="M407 1372h267l176 338h-307zM100 420v-13q0 -181 109 -297q113 -120 270 -120q123 0 215 88v-78h287v1239h-287v-819q0 -59 -47 -101.5t-106 -42.5q-63 0 -108.5 42t-45.5 102v819h-287v-819z" />
<glyph unicode="&#xfb;" horiz-adv-x="1103" d="M219 1372l136 338h170h34h170l136 -338h-267l-57 259l-55 -259h-267zM100 420v-13q0 -181 109 -297q113 -120 270 -120q123 0 215 88v-78h287v1239h-287v-819q0 -59 -47 -101.5t-106 -42.5q-63 0 -108.5 42t-45.5 102v819h-287v-819z" />
<glyph unicode="&#xfc;" horiz-adv-x="1103" d="M215 1497.5q0 -51.5 41 -88t100.5 -36.5t101.5 36.5t42 88t-42 88t-101.5 36.5t-100.5 -36.5t-41 -88zM582 1497.5q0 -51.5 41 -88t100.5 -36.5t101.5 36.5t42 88t-42 88t-101.5 36.5t-100.5 -36.5t-41 -88zM100 420v-13q0 -181 109 -297q113 -120 270 -120q123 0 215 88 v-78h287v1239h-287v-819q0 -59 -47 -101.5t-106 -42.5q-63 0 -108.5 42t-45.5 102v819h-287v-819z" />
<glyph unicode="&#xfd;" horiz-adv-x="964" d="M337 1372h267l176 338h-307zM0 1239h287l194 -733l183 733h280l-450 -1749h-267l127 510h-6z" />
<glyph unicode="&#xff;" horiz-adv-x="964" d="M147 1497.5q0 -51.5 41 -88t100.5 -36.5t101.5 36.5t42 88t-42 88t-101.5 36.5t-100.5 -36.5t-41 -88zM514 1497.5q0 -51.5 41 -88t100.5 -36.5t101.5 36.5t42 88t-42 88t-101.5 36.5t-100.5 -36.5t-41 -88zM0 1239h287l194 -733l183 733h280l-450 -1749h-267l127 510h-6 z" />
<glyph unicode="&#x152;" horiz-adv-x="2242" d="M1300 0v1638h21h266h553v-286h-553v-389h553v-287h-553v-389h553v-287h-553h-266h-21zM92 479v676q0 205 144.5 349.5t345.5 144.5q205 0 349 -144.5t144 -349.5v-676q0 -201 -144.5 -345t-348.5 -144q-201 0 -345.5 144t-144.5 345zM379 479q2 -94 59.5 -148.5 t143.5 -54.5q84 2 145 61.5t61 141.5v676q-2 84 -63 145.5t-143 61.5q-82 -2 -142.5 -62.5t-60.5 -144.5v-676z" />
<glyph unicode="&#x153;" horiz-adv-x="2111" d="M1169 420v399q0 178 126 304t304.5 126t304.5 -126t126 -304v-20v-23v-217h-574v-139q0 -72 41 -113t102 -41q66 0 110 41t44 113h277q0 -176 -131.5 -303t-311.5 -127q-190 0 -304 123t-114 307zM1456 799h297v20q0 72 -45 115t-109 43q-59 0 -101 -43t-42 -115v-20z M102 430v389q0 178 126 304t304.5 126t304.5 -126t126 -304h2v-389h-2q0 -178 -126 -304t-304.5 -126t-304.5 126t-126 304zM389 430q0 -59 42 -101t101 -42q61 0 102.5 42t41.5 101h2v389h-2q0 59 -42 101.5t-102 42.5q-57 0 -100 -42t-43 -102v-389z" />
<glyph unicode="&#x178;" horiz-adv-x="1105" d="M227 1896.5q0 -51.5 41 -88t100.5 -36.5t101.5 36.5t42 88t-42 88t-101.5 36.5t-100.5 -36.5t-41 -88zM594 1896.5q0 -51.5 41 -88t100.5 -36.5t101.5 36.5t42 88t-42 88t-101.5 36.5t-100.5 -36.5t-41 -88zM20 1638h308l223 -600l227 600h307l-391 -983v-655h-286v655z " />
<glyph unicode="&#x2c6;" d="M231 1300l136 338h170h34h170l136 -338h-267l-57 259l-55 -259h-267z" />
<glyph unicode="&#x2000;" horiz-adv-x="1091" />
<glyph unicode="&#x2001;" horiz-adv-x="2183" />
<glyph unicode="&#x2002;" horiz-adv-x="1091" />
<glyph unicode="&#x2003;" horiz-adv-x="2183" />
<glyph unicode="&#x2004;" horiz-adv-x="727" />
<glyph unicode="&#x2005;" horiz-adv-x="544" />
<glyph unicode="&#x2006;" horiz-adv-x="362" />
<glyph unicode="&#x2007;" horiz-adv-x="362" />
<glyph unicode="&#x2008;" horiz-adv-x="272" />
<glyph unicode="&#x2009;" horiz-adv-x="436" />
<glyph unicode="&#x200a;" horiz-adv-x="120" />
<glyph unicode="&#x2010;" d="M102 512h861v287h-861v-287z" />
<glyph unicode="&#x2011;" d="M102 512h861v287h-861v-287z" />
<glyph unicode="&#x2012;" d="M102 512h861v287h-861v-287z" />
<glyph unicode="&#x2013;" d="M102 512h861v287h-861v-287z" />
<glyph unicode="&#x2014;" d="M102 512h861v287h-861v-287z" />
<glyph unicode="&#x2018;" horiz-adv-x="630" d="M82 1067h324l163 571h-282z" />
<glyph unicode="&#x2019;" horiz-adv-x="630" d="M61 1067h283l205 571h-324z" />
<glyph unicode="&#x201c;" horiz-adv-x="995" d="M61 1067h242l205 571h-324zM426 1067h242l245 571h-323z" />
<glyph unicode="&#x201d;" horiz-adv-x="995" d="M82 1067h324l163 571h-241zM487 1067h324l123 571h-242z" />
<glyph unicode="&#x2026;" horiz-adv-x="1720" d="M1229 205q0 -84 59.5 -144.5t145.5 -60.5q84 0 144.5 60.5t60.5 144.5t-60.5 144.5t-144.5 60.5q-86 0 -145.5 -60.5t-59.5 -144.5zM655 205q0 -84 59.5 -144.5t145.5 -60.5q84 0 144.5 60.5t60.5 144.5t-60.5 144.5t-144.5 60.5q-86 0 -145.5 -60.5t-59.5 -144.5z M82 205q0 -84 59.5 -144.5t145.5 -60.5q84 0 144.5 60.5t60.5 144.5t-60.5 144.5t-144.5 60.5q-86 0 -145.5 -60.5t-59.5 -144.5z" />
<glyph unicode="&#x202f;" horiz-adv-x="436" />
<glyph unicode="&#x205f;" horiz-adv-x="544" />
<glyph unicode="&#x2122;" horiz-adv-x="2519" d="M1198 0v1638h146h141h84l229 -778l242 778h59h146h141v-1638h-287v1073l-141 -551h-62h-204h-62l-145 565v-1087h-287zM41 1352v286h983v-286h-348v-1352h-287v1352h-348z" />
<glyph unicode="&#xe000;" horiz-adv-x="1240" d="M0 1240h1240v-1240h-1240v1240z" />
<glyph unicode="&#xfb01;" horiz-adv-x="1269" d="M829 1546.5q0 -71.5 51.5 -123t123 -51.5t123.5 51.5t52 123t-52 123.5t-123.5 52t-123 -52t-51.5 -123.5zM860 0h287v1239h-287v-1239zM51 979v260h123v31q0 178 126 304t304 126h144v-287h-144q-57 0 -100 -42t-43 -101v-31h246v-260h-246v-981h-287v981h-123z" />
<glyph unicode="&#xfb02;" horiz-adv-x="1269" d="M860 0h287v1698h-287v-1698zM51 979v260h123v31q0 178 126 304t304 126h144v-287h-144q-57 0 -100 -42t-43 -101v-31h246v-260h-246v-981h-287v981h-123z" />
<glyph unicode="&#xfb03;" horiz-adv-x="2007" d="M1567 1546.5q0 -71.5 51.5 -123t123 -51.5t123.5 51.5t52 123t-52 123.5t-123.5 52t-123 -52t-51.5 -123.5zM1598 0h287v1239h-287v-1239zM788 979v260h123v31q0 178 126 304t304 126h144v-287h-144q-57 0 -100 -42t-43 -101v-31h246v-260h-246v-981h-287v981h-123z M51 979v260h123v31q0 178 126 304t304 126h144v-287h-144q-57 0 -100 -42t-43 -101v-31h246v-260h-246v-981h-287v981h-123z" />
<glyph unicode="&#xfb04;" horiz-adv-x="2007" d="M1598 0h287v1698h-287v-1698zM788 979v260h123v31q0 178 126 304t304 126h144v-287h-144q-57 0 -100 -42t-43 -101v-31h246v-260h-246v-981h-287v981h-123zM51 979v260h123v31q0 178 126 304t304 126h144v-287h-144q-57 0 -100 -42t-43 -101v-31h246v-260h-246v-981h-287 v981h-123z" />
</font>
</defs>
</svg>
