<?xml version="1.0" standalone="no"?>
<!DOCTYPE svg PUBLIC "-//W3C//DTD SVG 1.1//EN" "http://www.w3.org/Graphics/SVG/1.1/DTD/svg11.dtd" >
<svg xmlns="http://www.w3.org/2000/svg">
<metadata>
This is a custom SVG webfont generated by Font Squirrel.
Copyright   : Created by RCA Workshop Read the fucking manual with FontForge 20 httpfontforgesfnet
</metadata>
<defs>
<font id="SansGuilt2Medium" horiz-adv-x="187" >
<font-face units-per-em="1000" ascent="800" descent="-200" />
<missing-glyph horiz-adv-x="376" />
<glyph unicode=" "  horiz-adv-x="376" />
<glyph unicode="&#x09;" horiz-adv-x="376" />
<glyph unicode="&#xa0;" horiz-adv-x="376" />
<glyph unicode="'" d="M35 507l31 -25q5 4 13.5 12.5t30 37t37.5 61.5q3 7 6.5 21.5t2.5 19.5q-1 3 -1 13q0 12 -14 23q-17 14 -19 12q-7 0 -13 1q-5 3 -29 3h-20l-6 -7q-15 -15 -19 -35q0 -1 -1 -6.5t-1 -7.5q-3 -11 10 -29.5t15 -21.5q3 -9 -3 -26t-13 -31t-7 -15z" />
<glyph unicode="," d="M35 -76l31 -25q5 4 13.5 12.5t30 37t37.5 61.5q3 7 6.5 21.5t2.5 19.5q-1 3 -1 13q0 12 -14 23q-17 14 -19 12q-7 0 -13 1q-5 3 -29 3h-20l-6 -7q-15 -15 -19 -35q0 -1 -1 -6.5t-1 -7.5q-3 -11 10 -29.5t15 -21.5q3 -9 -3 -26t-13 -31t-7 -15z" />
<glyph unicode="." d="M35 61q0 -1 -1 -6.5t-1 -7.5q-3 -15 4 -30t21 -21q10 -7 11 -9q3 -3 9.5 -4.5t9.5 0.5q2 1 7 1.5t7 1.5q17 1 26 6t19 18q4 6 7 20.5t2 20.5q-1 3 -1 13q0 12 -14 23q-17 14 -19 12q-7 0 -13 1q-5 3 -29 3h-20l-6 -7q-15 -15 -19 -35z" />
<glyph unicode="A" horiz-adv-x="571" d="M250 597l-19 1l-6 -7q-6 -6 -6 -9q0 -4 -2 -6t-2 -6q0 -3 -2 -7q-2 -2 -2 -6q0 -3 -3 -8q0 -1 -2 -4q-1 -3 -1 -4q0 -2 -4 -8q-5 -5 -5 -8q0 -2 -5 -17q-2 -4 -2 -7q0 -1 -1 -2q-2 -2 -2 -3q-3 -3 -3 -8q0 -8 -7 -8q-3 0 -1 -5q1 -4 -2 -8q-2 -3 -2 -9v-5q-2 -2 -2 -3 q0 -4 -3 -5q-3 -6 -3 -8l-2 -6q-2 0 -2 -1q0 -3 -3 -6q-4 -6 -2 -8q2 -3 -2 -8q-3 -9 -3 -10q0 -4 -2 -8q-3 -3 -3 -6q0 -4 -3 -7q-3 -6 -3 -8q0 -4 -6 -7q-5 -3 -3 -6q3 -2 -2 -16q-5 -16 -7 -21q-2 -7 -7 -12q-5 -6 -7 -17q-2 -10 -4 -17q-1 -2 -4 -13q0 -6 -3 -9 q-2 -2 -2 -6t-2 -8q-3 -1 -3 -6q0 -13 -7 -20q-2 -2 -2 -5q0 -4 -2 -6q-2 -4 -2 -6t-2 -6q-12 -24 -12 -34q0 -3 -3 -6q-2 -4 -2 -7t-2 -5q-1 0 -1 -5t-2 -7q-2 -4 -2 -6q0 -3 -2 -5q-3 -6 -3 -7q-2 -9 -12 -33q-2 -3 -2 -7q0 -1 -2 -5q-3 -3 -5 -17q-1 -4 -3 -6t-2 -6 t-2 -8q-11 -23 2 -24q22 -4 48 -1.5t26 9.5q0 3 3 6q0 1 1.5 4t1.5 4q0 3 1 4q2 2 2 10q2 10 4 14l4 8q0 2 2 6q4 8 8 23q1 1 2 5t1 6q2 4 2 6l1 2l2 4q3 5 2 6q0 2 2 6q3 5 5 14q2 8 4 13q2 4 2 6q0 1 1 3l2 4q3 4 3 8q0 2 2 4q2 1 2 5q-2 3 2 7q2 4 2 5t4 11q4 9 8.5 11 t21.5 2q4 0 8 0.5t7 0.5h3l46 2q92 1 108 3q21 2 21 -15q0 -3 3 -6t3 -6t3 -9q2 -6 4.5 -11t4 -7.5t1.5 -4.5q1 -2 5 -8q3 -9 5 -12q3 -5 9 -17t10.5 -22.5t4.5 -11.5l3 -6q3 -3 3 -5q2 -4 3 -8q9 -17 12 -25q0 -3 3 -5q2 -2 2 -5t4 -9t4 -9t2 -5q3 -2 5 -7q1 -4 5 -4l4 -1 q2 -3 35 -3.5t36 2.5q4 4 -5 17q-4 6 -4 7t-4 9q-5 8 -5 10l-3 6q-3 3 -3 6q0 1 -1.5 4t-1.5 4q-4 6 -4 8t-3 5q-3 6 -3 7q0 4 -3 7q-4 6 -4 8t-2 6q-3 3 -3 5q-2 4 -3 7q-3 6 -7 16q-4 9 -7 14q-1 1 -2 4l-1 3l-4 8q-4 6 -4 9t-4 7q-3 3 -3 7t-4 8l-3 6q0 1 -2 5 q-4 8 -7 13q-5 10 -5 13t-3 6t-3 6q0 4 -3 7q-4 6 -4 8q0 3 -3 7q-4 6 -4 8q0 3 -3 6q-2 4 -2 7q0 2 -2 6q-10 20 -10 23q-1 0 -2 2t-1 3q-1 1 -5 9l-3 6l-2 3q-3 6 -3 8q-1 2 -3 5l-2 4q-4 4 -4 5q0 9 -10 22q-2 2 -2 5q0 2 -5 9q-4 6 -4 9q0 2 -3 7q-4 6 -4 8q0 3 -3 6 q-2 4 -2 5t-6 15q-6 12 -6 14t-2 6q-1 1 -4 7q0 2 -4 8q-2 4 -2 7t-3 6q-3 6 -4 9q-2 6 -4 8q-2 4 -2 6q0 3 -2 5t-2 5q0 1 -4 9q-4 6 -4 9t-2 5q-2 1 -4 7q-4 8 -6 11l-4 8q0 4 -5.5 13.5t-7.5 10.5q-4 2 -7 -1q-4 -2 -22 -1zM273 439q0 -2 3 -8q2 -6 4 -10q8 -16 14 -31 q2 -2 2 -5q0 -1 4 -7q2 -2 10 -18q7 -13 9 -18q7 -12 7 -18q0 -3 3 -6q2 -4 2 -6l4 -8q5 -8 -2 -9q-4 -1 -16 -1q-6 0 -16 -0.5t-12 -0.5q-88 -6 -93 -1q-5 6 8 33l4 12q1 4 4 13q2 6 2 11q0 4 2 8q2 2 2 6q0 3 3 8q1 1 3 5t2 6q3 13 9 26l3 9q0 4 1 4q1 1 1 4q0 2 4 10 q8 14 8 20q0 5 3 5q1 0 10 -16l4 -8l3 -6z" />
<glyph unicode="B" horiz-adv-x="447" d="M46 592q0 -2 -2 -3q-2 -4 -2 -14v-3v-9t0.5 -12t0.5 -16v-17q1 -30 1 -57v-21q-2 -68 2 -203q0 -9 0.5 -23.5t0.5 -16.5v-58v-67q0 -19 -2 -21q-2 -3 -1 -16t3 -15l2 -10q1 -9 7 -12.5t13 0.5q2 2 54 1q79 -1 102 0q4 0 14 0.5t14 1.5q33 1 35 3q3 3 22 6q3 1 8 2.5 t6 1.5q4 1 15 6.5t12 7.5q2 2 8 5q13 6 19 19q6 9 8 11q16 14 16 22q0 2 4 6l4 8q0 2 3 8q1 2 1 5q-2 2 2 5q9 14 5 55q-3 24 -3 28q-2 12 -3 14t-4 9q-1 5 -4 7q-3 4 -8 11q-5 10 -9 16q-3 5 -13.5 15.5t-15.5 12.5q-1 0 -5 3t-6 4q-12 10 -25 15q-10 5 1 19q5 6 11 12 q3 0 3 5q7 18 9 20q3 6 3 7q0 3 4 7q5 4 4 12q0 8 2 11l2 6q-1 1 1 10q1 8 1 24.5t-1 19.5q-2 4 -2 7q0 2 -2 6q-2 2 -2 5t-2 5q-3 6 -3 10q-2 8 -6 14q-2 2 -6 7.5t-5 7.5q-5 9 -21.5 24.5t-23.5 19.5q-7 3 -10 6q-2 2 -5 2q-5 0 -9 3l-4 2t-3 1q-2 0 -6 2q-3 3 -7 3 q-2 0 -6 2q-6 3 -10 3q-8 2 -11 2q-10 3 -52 4t-49 -1q-2 -1 -6 -1q-2 2 -14 2q-19 0 -28 1q-16 1 -22 -1zM211 526q10 0 13 -1l12 -3q2 0 8 -3l2 -1q1 -1 3 -2t3 -2q12 -6 28 -34q2 -4 4 -7q4 -5 7 -24.5t1 -32.5q-6 -32 -17 -36q-3 -2 -3 -5q0 -6 -9 -15q-2 -2 -4 -2 t-4 -2q-1 -3 -4 -3q-4 -2 -7 -5q-14 -9 -20 -9q-2 0 -6 -2q-6 -3 -58 -3q-34 0 -38 1.5t-4 13.5q0 27 -1 45q-1 31 -1 81.5t1 52.5h17q32 -2 49 1q11 2 19 -1q2 -2 9 -2zM230 265q2 -1 3.5 -1.5t1.5 0.5l10 -2q5 -2 11 -2q3 0 5 -2q4 -2 5 -1t11.5 -4t15.5 -9q3 -3 7 -3 q2 0 18 -15t18 -20l2 -4q-1 0 0.5 -2.5t3.5 -6.5q12 -25 -4 -73q-3 -9 -19.5 -25.5t-26.5 -20.5q-3 -2 -8 -4l-6 -2q-3 -3 -11 -3q-5 0 -27 -2q-10 -1 -42 -1q-6 0 -20.5 -0.5t-18.5 -0.5q-37 0 -39 2q-1 1 -1.5 96t0.5 102q1 6 7 5q7 0 8 1t21 1q4 0 20.5 -0.5t24.5 -0.5 q27 0 30 -2z" />
<glyph unicode="C" horiz-adv-x="592" d="M322 589q-7 0 -9 -2q-5 -2 -12 -1q-9 0 -11 -2q-3 -1 -11 -3q-11 -2 -13 -4q-27 -9 -29 -9q-4 0 -7 -3q-6 -4 -9 -4q-2 0 -8 -4t-8 -4q-4 0 -8 -4q-3 -4 -6 -4q-4 -3 -8 -5q-7 -5 -9 -5q-6 0 -16 -10q-21 -21 -27 -24q-3 -3 -3 -4l-10 -12q-19 -21 -22 -29q0 -1 -3 -4.5 t-5 -6.5q-7 -7 -7 -9q0 -4 -3 -7q-13 -16 -13 -26q0 -2 -4 -8t-4 -9q0 -2 -2 -6t-2 -6q0 -4 -2 -6q-6 -15 -6 -48q0 -17 -1 -21t-1 -9q1 -2 3 -18q3 -45 7 -55q2 -4 2 -8q3 -10 4 -11q3 -4 3 -8q0 -3 3 -9q1 -3 3 -8l2 -5q4 -12 14 -27l4 -7q0 -1 8 -13t8 -13q0 -3 30 -31.5 t38 -33.5q4 -2 13 -8t13 -8q10 -6 12 -7t16 -7q13 -6 14 -9q3 -3 9 -3q9 0 20 -3q3 0 7 -1t7 -1.5t4 -0.5q1 -1 3.5 -2t3.5 -1q2 -2 19 -2q15 0 17 -2h6q5 -1 10 -1q19 1 24 1q11 0 18 1q3 0 10.5 0.5t9.5 1.5q8 0 16 3q8 2 11 2q5 0 6 1q4 2 10 2q17 2 28 5q3 1 11 3 q15 3 21 7q2 1 6 1l9 3q8 4 12 4q9 1 10 6q2 7 1 69q0 10 -1 16t-3.5 8.5t-5.5 1.5t-8 -6q-9 -9 -31 -20q-12 -6 -17 -9q-10 -5 -13 -5q-4 0 -5 -3q-2 -2 -5 -2t-7 -2t-6 -1q-4 0 -7 -2q-4 -2 -14 -2q-12 -2 -15 -3q-2 -2 -9 -2q-4 1 -11 -1q-14 -5 -35 -2q-14 2 -25 2 t-23 2t-14 2q-4 0 -6 2t-5 2t-7 2t-6 2q-11 0 -22 11q-2 2 -7 2q-5 2 -12 7q-8 4 -10 6q-5 3 -11 7q-6 6 -8 6t-19.5 19t-17.5 21l-6 8q-10 13 -16 31q-2 6 -4 8t-2 5q2 3 -2 7q-3 6 -3 7q0 4 -1 4q-1 1 -1 6t-2 5q-2 2 -3.5 42.5t0.5 47.5l8 30q1 5 10 27q3 4 3 8q0 1 2 1 l2 6q2 5 5 8t3 4q0 6 26.5 33t38.5 33q4 1 10 7q3 3 5 3q1 0 9 4q14 7 34 10q9 2 10 3q4 2 12 2q7 0 11 2t16 2h31q19 1 29 -1q6 -1 18 -4q8 -2 9 -3q2 -2 5 -2q14 0 30 -8q4 -4 12 -4q9 -2 10 -3l3 -1q3 -2 5 -3q6 -2 8 -3q2 -2 5 -2q4 0 7 -3q6 -3 9 -4q4 0 11 -7 q17 -15 17 13q3 55 4 57q3 9 -1 16.5t-12 7.5q-4 0 -9 3q-6 4 -7 4q-5 0 -7 8q-3 9 -8.5 10t-8.5 -7q0 -4 -3 -2q-1 1 -6 1q-4 0 -6 2h-4q-3 0 -4 1q-6 2 -16 3q-13 1 -16 4h-3q-7 0 -15 2q-16 2 -25 2q-3 0 -7.5 0.5t-5.5 0.5q-3 2 -24 2t-23 -1q-3 -2 -8 0z" />
<glyph unicode="D" horiz-adv-x="603" d="M158 605h-14q0 -2 -11 0q-18 1 -30 -1q-9 -2 -10 -1l-2 1h-4.5h-5.5h-7l-4 1q-2 1 -6.5 1t-5.5 -1t-4 -1q-4 1 -7 -2.5t-2 -8.5q1 -6 1.5 -28t-0.5 -31q-2 -10 0 -16q2 -7 1 -25q0 -17 1 -24q0 -11 -2 -17q-1 -4 0 -22q3 -42 0 -47q-1 -2 -1 -6q2 -10 2 -167q0 -58 1 -75 v-27v-14v-8q0 -7 0.5 -18.5t0.5 -22.5q0 -37 1 -42t9 -6q10 -2 31 -1q14 1 117 1q19 0 25 1q13 0 14 -2t7 -1.5t9 2.5q4 2 29 2q28 0 30 1q2 2 10 2t10 2q4 2 9 2l6 2q5 1 7 2q8 4 10 4l3 1q0 1 5 3q6 0 8 2t7 2q3 0 6 3q2 4 7 4q23 10 50 31q5 5 15 11l9 7l11 13l11 12 q0 2 7 9q17 21 17 23q2 4 5 8q5 7 7 12q0 4 4 8q3 3 3 6q0 5 10 18q2 2 2 8t2 8q3 3 1 6q0 2 1 4v2q2 2 2 9q0 8 2 10q2 4 2 7t5 16q4 6 0 12q-1 1 1 9q2 16 0 34q-2 5 0 5q1 1 1 3q-1 1 -3 14q0 12 -2 14l-2 10q0 8 -2 12q-2 6 -2 11q0 7 -2 7q-3 0 -8 19q-5 15 -10 22 q-3 6 -4 9q0 4 -4 8q-9 9 -9 13q0 3 -7 10q-5 5 -8 11q-3 13 -11 17q-4 2 -4 5l-5 5q-1 0 -11 8q-39 37 -42 37q-5 0 -9 4q-5 5 -8 5q-2 0 -8 4l-4 2q-3 2 -5 3l-12 6q-7 5 -7 3q-2 0 -6 3q-3 3 -8 3l-5 1q-2 2 -7 2q-2 0 -5.5 0.5t-4.5 0.5q-4 2 -8 2q-2 0 -6 2q-2 2 -11 2 l-9 2q-3 3 -8 1q-6 0 -16 2q-8 2 -11 2q-28 0 -30 2t-14 2.5t-13 -0.5q-2 -1 -28 -1.5t-40 0.5zM226 527q7 1 18.5 1t13.5 -1q4 -2 18 -2q15 0 16 -1h2q3 0 6.5 -0.5t6.5 -0.5q13 0 22 -4q11 -5 20 -6q7 -1 17 -6q8 -5 10 -5q5 -2 11 -7q8 -8 10 -9q4 -1 4 -3q0 -1 4 -1 q3 0 11 -8t9 -8t18.5 -18.5t19.5 -21.5q1 -3 4 -9t3 -8q2 -6 5 -9t3 -5q-1 -1 2 -7q4 -6 4 -8q0 -4 3 -7t3 -5q0 -5 2 -7q1 -2 1 -6q-1 -1 0 -2.5t2 -2.5q5 -6 6 -51v-26q-2 -4 -2 -15q-2 -13 -3 -14l-3 -6l-2 -5q-1 0 -1 -4q1 -3 -2.5 -14t-5.5 -11q-1 -1 -1 -3 q-1 -1 -2 -3.5t-2 -3.5q-1 0 -4 -7q0 -3 -5 -10q-1 -1 -3 -4t-4.5 -6t-3.5 -6q-15 -21 -19 -21q-2 0 -5 -3q-6 -6 -10 -9q-2 -2 -7 -6t-7 -6q-11 -9 -15 -10q-2 -1 -6 -3.5t-5 -3.5q-4 -4 -12 -6q-4 -1 -17 -6q-21 -9 -34 -9q-3 0 -7 -0.5t-5 -0.5q-2 -2 -11 -2 q-11 -2 -12 -3q-3 -1 -57 -1q-30 -1 -72 -1q-21 0 -25 6q-2 4 -3 145t1 151q1 4 1 17q-2 9 0 26q2 15 0 25q0 2 -0.5 12t-0.5 16q0 17 -1 17v37q0 4 20 6q4 0 11.5 0.5t10.5 0.5q7 1 20 0.5t15 -1.5q14 -4 21 -1z" />
<glyph unicode="E" horiz-adv-x="420" d="M41 577v-45q0 -11 1 -22v-56v-40v-6v-7v-8q0 -8 0.5 -21.5t0.5 -25.5q3 -180 3 -190q0 -19 -1 -21l-2 -10q0 -8 -1 -8q-1 -1 0 -6t2 -5v-11q1 -11 1 -23v-21v-4v-15q-1 -29 3 -32t41 -3h47q8 0 26 0.5t24 0.5l22 1h3q3 0 8 -0.5t11.5 -0.5h15h16.5q16 0 42.5 -0.5 t30.5 -0.5q30 -2 36 1q4 3 6.5 14t-0.5 14q-2 2 -2 17q-1 17 -5 19q-7 4 -83 4q-80 2 -88 2q-8 1 -16 1q-2 0 -3 1q0 1 -4 1q-11 -3 -28 -1.5t-21 5.5q-4 5 -4.5 17.5t3.5 16.5q3 4 -2 13q-2 6 -2 27q-1 86 0 101.5t6 15.5h2q1 1 2 1q7 4 33 3h30q11 0 14 -1q6 -2 8 0 q1 1 13 1q14 0 17 1q10 0 15 -1q6 -1 54 -1q42 -1 48 2.5t7 27.5q0 18 2 22q3 7 -5.5 13.5t-18.5 5.5q-8 -1 -11 0q-3 2 -31.5 1t-32.5 -3q-12 -4 -15 -1q-6 5 -29 1q-4 -1 -6 1t-3 8q-2 6 -4 3q-2 -2 -1 -6q0 -2 -5 -2t-7 -2q-3 -1 -5 0q-8 0 -12 -1h-14q-6 2 -8 0 q-5 -3 -12 -3t-7 3h-12q-10 -1 -14 1t-3 7q0 4 -1 5q0 5 1 10q6 36 4 87v14q0 3 -0.5 12.5t-0.5 13.5q-1 41 0 45t18 4h12l7 -1h5q4 0 11.5 0.5t17 0.5h21.5h24q41 1 86 1q44 -1 45 0q0 1 3 1q2 -1 4.5 1.5t2.5 4.5q0 1 2 5q3 3 0 5q-2 2 -3 26q0 24 -1 25h-38q-41 0 -46 1 q-14 2 -130.5 1.5t-118.5 -2.5v-5q0 -4 -0.5 -11t-0.5 -14z" />
<glyph unicode="F" horiz-adv-x="389" d="M43 591v-11.5t-0.5 -13t-1 -12t-0.5 -8.5v-4v-7q2 -5 0 -9q-1 -3 0 -4t1.5 -5t-0.5 -5t-1 -8q0 -2 0.5 -24t1 -68.5t0.5 -99.5q0 -16 0.5 -55t1.5 -53v-93q0 -1 0.5 -4.5t0.5 -9.5v-12q1 -12 1 -26q-1 -44 2 -53.5t18 -9.5q55 0 58 3q4 6 1 13q-4 5 -4 14q2 7 0 24v62 q0 13 -1 47t-1 47q0 67 5 71q2 2 116 2h114l3 3q3 4 2.5 34t-3.5 33q-1 2 -3.5 2.5t-3.5 -1.5q-1 -1 -27 -1q-14 1 -38 1h-23h-75q-64 0 -64 2q-4 7 -4 34q1 33 3 35q0 3 -1 4l-1 3v4q3 24 3 66q0 27 -3 30q-1 2 -1 6t2 5q2 2 20 0q23 -1 116.5 -1t94.5 1q2 1 2 53 q-2 6 -5 8l-4 4h-48q-26 1 -51 1h-16h-42h-65h-48q-11 2 -21 -1q-6 -1 -8 -2t-2.5 -3t-0.5 -8z" />
<glyph unicode="G" horiz-adv-x="581" d="M328 586h-18l-10 -1q-6 -2 -15 -2q-6 -1 -13 -1q-3 0 -5 -1q-1 -2 -10 -4q-6 0 -10 -2q-2 -2 -5 -2q-4 0 -15.5 -4.5t-15.5 -7.5q-6 -4 -9 -4t-23 -11q-8 -6 -9 -6q-3 0 -8 -5q-4 -3 -13 -9q-11 -7 -35 -30.5t-30 -34.5q-6 -9 -7 -10q-4 -6 -7 -12q-2 -4 -8 -13 q-4 -6 -4 -7t-1 -3l-2 -4l-4 -8q0 -6 -3 -6q-2 -2 -2 -5q0 -4 -1 -6q-1 -1 -3 -8q0 -6 -4 -14q-9 -27 -6 -30q0 -3 -1 -4q-9 -16 -1 -70q2 -18 2 -22q0 -17 7 -28l1 -2v-4q0 -5 2 -6q2 -2 2 -6t1 -5t6 -13q4 -11 7 -16q4 -4 4 -7q0 -2 3 -7q3 -3 9 -15q4 -9 19 -27 q44 -48 53 -53q5 -3 17 -11q12 -7 19 -11q5 -2 7 -5q2 -2 5 -2q1 0 9 -4q1 0 4 -1.5t4 -1.5q3 0 5 -2q3 -3 8 -4q6 -2 7 -3q3 -1 5 -1q5 0 6 -1q0 -2 4 -2q5 0 7 -2q10 -5 75 -8t74 1q1 0 11 2q2 0 8 0.5t9 0.5q10 2 15 2q6 2 8 2q1 1 3.5 1t3.5 1q4 2 5 1q6 0 11 2 q12 2 16 2q2 0 8 3q2 2 6 2q2 -2 4 0l2 1q2 1 4 1.5t4 1.5q13 3 14.5 11t1.5 66q-1 29 -1 58v8v57q-1 55 -4 59l-3 3l-44 -1q-99 0 -111 -2q-7 0 -10 1q-6 1 -10 -3l-4 -3v-29l2 -33q4 -9 14 -5q2 1 41.5 2t45.5 0q9 -3 8 -43v-12q0 -44 -3 -50l-1 -2v-4.5v-5.5 q-1 -11 -5 -13q-2 -1 -8 -2q-2 0 -5.5 -1t-5.5 -1.5t-3 -0.5q-2 -1 -14 -3q-10 0 -14 -2q-7 -2 -19 -2.5t-15 1.5t-15 1q-24 -4 -33 -2h-2q-2 1 -5 1.5t-5 0.5q-26 0 -35 7q-4 2 -7 2t-5 2q-4 2 -10 2q-8 0 -12 4q-2 0 -3.5 1t-2.5 2h-2l-8 4q-4 4 -8 4t-17 13q-4 4 -6 4 q-1 0 -5 4q-2 3 -5 3q-2 0 -11.5 9.5t-9.5 11.5q0 4 -14 18q-10 9 -11 14q-1 1 -3.5 6t-3.5 6q-5 5 -5 8q0 1 -2 5q-1 2 -4 9q0 2 -3 8q-2 4 -2 5q0 2 -2 6q-5 12 -7 47.5t1 47.5q3 7 3 16q0 7 2 9q2 4 2 6q0 1 1 4v2q2 4 2 6q1 1 2 3.5t1 3.5q5 9 7 21q2 4 4 6t2 5q0 1 6 7 t6 8q0 6 29 33l8 8q17 17 24 19q5 2 14 9l10 6q2 0 4 2l6 3q5 0 9 3q20 10 21 9q3 0 7 2q8 2 33 4h8h7l2 1q2 1 20.5 1t27.5 -1q2 0 11 -1t12 -2h5.5h4.5l2 -1l10 -2q7 0 11 -2t6 -2l6 -3q2 -2 12 -4q8 0 11 -3q4 -2 7 -2q4 0 6 -1q2 -2 11 -4t17 -8q13 -9 17 -5q1 1 1 28 v37q0 11 -1 12q-9 11 -22 13q-2 0 -6 1t-5 1t-17 5q-3 2 -17 6q-6 2 -16 2q-15 2 -39 6q-3 1 -10.5 1.5t-10.5 0.5q-4 0 -11 0.5t-8 0.5q-6 2 -8 0q-11 -1 -23 -1z" />
<glyph unicode="H" horiz-adv-x="572" d="M74 605q-16 3 -23 0.5t-8.5 -5.5t-0.5 -16q2 -16 0 -34q-2 -48 1 -183v-39q0 -1 0.5 -48.5t0.5 -59.5q0 -16 -1 -19q0 -20 1 -37q1 -18 1 -98q0 -66 2 -68q1 -2 9 -2t10 2q12 1 26 1q27 2 28 2q1 2 0 171q-1 98 0 100q2 2 86 2t101 -2h23q11 1 64.5 0.5t55.5 -1.5 q4 0 4 -5q1 -2 2 -82t0 -86v-25v-30q-1 -38 5 -44t48 -4q17 0 19.5 7.5t-0.5 43.5v30v22v20q0 273 -2 333q-1 17 -1 99q2 45 -4 51q-2 1 -12.5 1.5t-13.5 -0.5h-21q-21 0 -22 -3q-2 -7 1 -172q2 -83 0 -86l-3 -1h-7.5h-9.5q-32 2 -58 0q-24 0 -28 6q-3 2 -5 -1t-150 -4 q-52 0 -62 1t-11 5q-3 5 -3 142l-2 41v8q3 8 1 19v29q0 14 -2 18t-7 3q-4 0 -5 1q-1 2 -5 1t-7 -3q-4 -2 -15 -1z" />
<glyph unicode="I" horiz-adv-x="129" d="M24 586q-7 3 -10 -1t-1 -13q3 -9 4 -126q0 -19 0.5 -41t0.5 -37v-17q2 -26 2 -136q0 -25 -1 -26q0 -3 1 -4v-3v-6t0.5 -9.5t0.5 -12v-12.5q0 -52 3 -85q2 -24 -1 -28q-2 -2 0 -8t2 -18v-11h4q6 0 8 1q3 2 52 2q12 0 14 2t7 2q7 1 8 4l-2 1q-3 0 -3 2q-3 1 -6 1q-6 0 -7 4 t-2 24v12v9l-1 4v15q2 12 -1 15q-2 2 -2 30v28h4q9 0 1 5q-7 4 -5 23q2 15 1 17q-2 8 -0.5 32.5t3.5 24.5q0 -1 5 -1t5 -2q0 -3 6 -3q1 1 0.5 4.5t-2.5 7.5q-5 8 -5 2q0 -2 -2 -2t-2 2t1 2q2 0 2 2q0 3 -2 3t-2 -3q-1 -2 -3.5 -1.5t-2.5 2.5v3q-1 4 -1 6q-1 9 0 28 q0 12 -1 12q-2 0 0 11q0 12 -1 14q-1 1 0 4t0 4q-6 6 -4 186q0 4 -0.5 12.5t-0.5 10.5q0 12 1 14q4 12 -7 16q-5 2 -5 4q-2 3 -5 0q-1 -2 -22.5 -3t-25.5 1z" />
<glyph unicode="J" horiz-adv-x="352" d="M226 568q-2 -2 0 -4q2 -3 3 -101q0 -11 0.5 -36t1.5 -34q0 -6 0.5 -43t0.5 -59q0 -19 0.5 -66.5t1.5 -64.5q2 -129 0 -146q-4 -27 -5 -29q-2 -4 -2 -6t-2 -4t-2 -6q0 -5 -11 -16q-20 -20 -48 -26q-6 -1 -22.5 -1t-21.5 2q-4 2 -10 4q-18 7 -36 21.5t-25 28.5q-5 9 -9 12 q-4 5 -5 12q-1 5 -3 7.5t-4 1.5q-3 -1 2 -18q2 -10 2 -15q0 -7 2 -9t2 -5q0 -5 1 -5q1 -4 2 -9q0 -6 3 -12t3 -13q2 -8 4 -12t4 -12q5 -18 23 -25q7 -2 12 -5q4 -4 7 -4t6 -3q4 -2 6 -2q1 1 10 -1t14 -4q7 -2 25.5 -2t25.5 2q15 5 24 6q3 0 7 2q2 2 5 2q1 0 7 3q6 4 8 5 q7 1 31 26t24 31q0 2 3 6q3 3 5 12q0 7 2 11t2 10v5l1 3q2 2 2 9t2 11q1 2 1 49.5t-1 56.5q0 1 -0.5 7t-0.5 9q0 11 -2 15t1 6q2 3 2 24q0 6 -0.5 23.5t-0.5 25.5q0 29 -2 31q-2 3 0 17q1 13 0.5 51.5t-1.5 48.5q0 10 1 11q1 3 0 7q-2 3 -2 19v27q-2 27 -2 65.5t2 40.5 q2 3 0 5q0 1 -2 15q-1 17 -5 17q-2 0 -4 2t-32 2h-30v-4q0 -4 -1 -6z" />
<glyph unicode="K" horiz-adv-x="550" d="M40 574l1 -53q1 -15 1.5 -55.5t0.5 -56.5t0.5 -58.5t0.5 -58.5q0 -15 0.5 -62.5t0.5 -68.5q0 -18 0.5 -60t1.5 -54q0 -43 1 -43q4 -6 67 -4q8 0 9.5 4t0.5 28q0 9 -0.5 23.5t-0.5 15.5q0 2 -0.5 15.5t-0.5 21.5q0 25 -2 31q0 11 2 20q1 15 0 25q-2 8 -2 52t1 45 q1 0 7.5 -5t6.5 -6q0 -5 35 -35q16 -14 23 -21q62 -63 66 -63t8 -6q8 -9 35 -34q11 -10 24 -23l3 -3q2 -3 6 -7l8 -8q45 -46 48 -51q1 -3 11 -10t15 -9q2 -1 28 -1h29q35 -1 35 4q1 2 -6 9l-50 50q-80 80 -93 86q-5 2 -10 7q-5 6 -110 108q-27 26 -29 29.5t5 12.5l7 9 q0 3 34 38q11 11 22 22.5t17.5 19t7.5 8.5q7 11 46 52q6 6 12 13t9.5 11t4.5 5q0 1 1.5 2.5l3.5 3.5t3 4q7 7 7 8q0 2 50 54q11 11 11 13q0 5 -39.5 6.5t-45.5 -3.5q-5 -3 -6 -2q-2 1 -20.5 -18.5t-22.5 -26.5q-3 -4 -66 -72q-6 -6 -27 -30q-16 -19 -34 -38q-16 -16 -32 -34 q-36 -38 -39 -35l-2 33q0 48 -2 176q-1 48 -7 49q-2 1 -32 1.5t-34 -0.5h-4z" />
<glyph unicode="L" horiz-adv-x="400" d="M51 575h-1q-6 0 -7 -4.5t-1 -32.5v-13v-209q0 -1 0.5 -7t0.5 -11q7 -146 4 -278q-1 -12 7 -17l5 -4h107q104 0 116 -2q5 -1 15 -1q12 3 23 3q10 0 20 -1q32 -2 39 3q1 1 1 31l1 29l-4 6q-6 9 -9 4q-5 -2 -49 -1q-191 0 -195 2q-2 2 -2 16q1 63 -1 65q-1 3 0 8q1 3 1 21 v17q0 84 -2 136q0 7 -0.5 43t-0.5 57q-2 137 -5 141q-2 2 -28 2t-28 -1q-2 -2 -7 -2z" />
<glyph unicode="M" horiz-adv-x="639" d="M516 578q0 -3 -7 -10q-9 -9 -11 -12q-2 -4 -8 -10q-6 -8 -7 -10q0 -2 -11 -13q-12 -14 -13 -16q-4 -5 -9 -9q-6 -6 -6 -7q0 -4 -7 -11q-1 -1 -13 -16q-10 -14 -27 -34q-15 -18 -17 -20q-3 -2 -6 -8q0 -4 -4 -4q-5 -2 -6 -6q-8 -12 -20 -24q-5 -5 -8 -11q-4 -9 -15 -15 q-3 -3 -3 -5q0 -3 -1 -3q-1 -1 -5.5 3t-4.5 5q0 3 -20 25q-9 9 -11 13q-2 5 -5 7q-4 4 -6 7q-1 2 -15 18q-10 9 -14 16l-6 9q-9 9 -13 14q-6 6 -12 15q-1 4 -15 18q-11 13 -16 20q-2 4 -17 21q-12 12 -20 24q-22 31 -33 31q-18 0 -20 -2t-5 0q-4 1 -15 0.5t-13 -1.5 q-3 -2 -2 -55v-57q-1 -6 -1 -43q0 -32 -1 -32q-1 -1 -1 -3q1 -5 2 -24.5t0 -26.5v-6q1 -3 0 -8q0 -9 1 -14q0 -1 0.5 -11t0.5 -16q1 -82 0 -95q-2 -13 -1 -18q1 -4 1 -12q-1 -3 -1 -14q1 -5 1 -17q0 -9 2 -11v-14v-32v-40q0 -20 3 -24l2 -6h23q44 0 46 5l2 28v37q0 16 -1 23 q-2 11 0 14q1 4 1 14.5t-1 15.5q-2 6 1 10q1 2 1 11q0 16 2 26q1 6 -1 8q-2 4 -1 5v4q-2 2 -2 14q0 4 -1 9v6q-2 2 0 9v5l1 4q-3 24 0 28q2 3 0 5t-2 21v24q-1 38 5 35h1q0 3 -5 5q-2 1 -2 8q2 5 0 7q-1 1 -0.5 23.5t1.5 23.5v8q0 8 6 2q24 -24 24 -27q0 -5 6 -9 q4 -3 15.5 -17t11.5 -16q0 -1 10 -11q9 -11 10 -11q0 -2 8 -10q8 -9 10 -13q1 -3 15 -17q12 -12 12 -13q0 -2 8.5 -12.5t14.5 -15.5q8 -8 12 -16q20 -30 30 -23q2 2 7 2t27 24q18 20 23 29q4 8 9 13t11 13l3 3q2 3 3 3l6 8q4 8 17 21q20 22 34 39q5 8 21 25q23 26 24 27 q2 2 4 6q3 12 5 -4q1 -10 2 -44q2 -60 3 -63q0 -2 -1 -3t-1 -26q1 -13 1 -30v-8l1 -46q1 -45 1 -49v-39v-26l-1 -15v-9q0 -53 2 -69q0 -7 9.5 -9t39.5 -1q15 0 20 5t3 85q-2 39 0 42q0 4 -1 5q-2 3 1 8q1 2 1 6q-2 2 1 4q1 2 -2 9t0 12q2 5 1 7q-2 1 -2 22v23q-2 55 -1 85 q0 43 -1 50v21q1 6 1 17q0 7 1 7q4 4 -1 13q-2 7 -1 31q3 38 1 40q-1 1 -1 34q0 58 -4 62q-2 2 -47 0q-18 -1 -21 -7z" />
<glyph unicode="N" horiz-adv-x="607" d="M46 -1q-2 3 0 9t1 7q-1 3 -1 13q1 5 1 15q-2 5 0 12q0 25 -1 52q0 2 0.5 4.5t0.5 3.5t-2 21q-1 18 1 27t0 12q-6 4 0 69v23q0 20 1 23v35q-1 17 -1 49v24q0 47 2 51q2 1 2 7.5t-2 6.5q-1 0 -1 7q2 6 0 8t-2 13q-1 16 2 16q2 0 2 2l-1 2q-2 0 -1 3t2 18.5t0 20.5 q-1 25 10 25h3l2 1q1 2 20.5 1.5t24.5 -2.5q6 -3 24.5 -21.5t19.5 -22.5q2 -5 5 -7l3 -4q0 -1 11 -12q10 -10 16 -20q12 -15 17 -20q11 -11 11 -13q2 -3 5 -7q6 -6 6 -7q0 -2 4 -6q20 -20 23 -28q1 -1 3 -3.5t4.5 -6t4.5 -5.5q10 -10 13 -16q2 -4 17 -21q14 -16 14 -18 q2 -6 30 -35q8 -8 10 -12q6 -8 8 -10q21 -19 27 -31q1 -2 8 -12q9 -9 13 -14l7 -9q2 0 2 -4q2 -5 8 -9q5 -5 13 -15q3 -3 7 -7.5t5 -5.5q4 -6 5 -8q0 -2 8.5 -11.5t16.5 -17t9 -6.5q2 1 2 64v16v20v12q0 42 -1 85q-2 244 2 247q7 4 14 1q6 -2 28 -2q25 0 25 -6l1 -6v-17v-19 q1 -11 1.5 -47.5t0.5 -52.5q0 -79 1 -100q0 -9 0.5 -18.5t0.5 -15.5v-7v-51q1 -24 1 -53v-93q0 -42 -1 -46v-9q4 -6 0 -28q-1 -9 -4.5 -10t-29.5 -2h-25l-8 8q-12 12 -14 19q-2 4 -11 13q-12 12 -13 17q-1 4 -20 23q-24 27 -24 29t-10 12q-11 11 -15 17q-2 2 -4 5l-3 4 q-5 5 -6 8l-3 4l-9 9l-9 9q-20 22 -22 25q-4 8 -35 39q-8 8 -8 10q1 1 -1 3q-2 0 -2 3q0 2 -7 9q-3 3 -12 15q-1 1 -2 3t-2 3.5t-2 2.5l-2 2q-28 25 -28 32q0 2 -5.5 7.5t-6.5 5.5q-2 0 -2 2q0 1 -8 11q-9 9 -9 10q0 2 -3 5q-5 5 -6 7q-3 6 -16 19q-16 16 -16 20 q0 2 -4.5 7.5t-9 9t-5.5 2.5q-2 -4 -4 -1q-2 2 -1 5v4q-2 0 -2 -3q0 -2 -1 -2q-2 0 0 -3q1 -3 -1 -5t-2.5 -36t0.5 -36q2 -2 0 -7q-2 -7 0 -12v-14q-2 -9 0 -12l1 -3v-5v-6q-2 -11 1 -11v-3q-1 -1 -2 -65v-21v-44v-87q1 -48 -0.5 -54.5t-10.5 -7.5q-38 -1 -42 -3q-1 -2 -6 1 q-4 2 -7 2q-1 0 -3 1t-3 1l-5 -0.5t-6 1.5z" />
<glyph unicode="O" horiz-adv-x="650" d="M286 -12q8 -2 13 -4q6 -2 8 -2q1 0 4 -0.5t5 -0.5q8 -2 15 -2q2 -1 7.5 -1h6.5q5 -1 19 3.5t20 5.5l14 2q1 -1 5 1q3 3 12 3q9 2 10 3q2 2 4 2q3 0 8 3q3 0 9 4q6 3 16 7q2 1 7 3t7 3q4 3 7 3l6 4q3 4 7 4q1 0 17 13q7 7 13 11q6 3 21.5 19t16.5 19q2 5 9 13t12 16 q1 3 10 17l6 11q2 3 4 5q3 3 3 7q0 2 3 8q3 4 3 8q0 3 2 5q2 4 2 7q0 2 2 6q7 11 9.5 59.5t-3.5 75.5q0 2 -0.5 6t-0.5 5q0 4 -3 7q-3 9 -3 11q0 7 -1 8t-5 14l-6 14l-1 2q0 1 -1 2.5t-1 3.5l-4 7q-2 3 -3 6q-2 6 -4 8l-1 1l-2 4t-2 3q-1 5 -8 12q-2 2 -8 11q-3 7 -29 33.5 t-37 34.5q-2 1 -19 11q-13 6 -15 9q-4 3 -21.5 11.5t-18.5 7.5t-5 1q-2 2 -6 2t-6 2t-5 2q-5 0 -8 3q-4 2 -10 2q-7 0 -9 1q-1 1 -14 3q-3 0 -8 1h-5q-6 4 -51 2l-15 -2q-2 -2 -12 -2q-11 0 -13 -2q-4 -2 -7 -2t-9 -2q-1 0 -5 -1t-5 -2q-15 -4 -19 -6q-2 -2 -6 -2l-3 -1 q-3 -2 -4 -2q-3 -3 -7 -3q-3 0 -6 -3l-8 -4q-6 -2 -9 -5q-4 -4 -10 -7q-4 -2 -13 -8l-12 -8q-7 -3 -35 -32.5t-28 -33.5q0 -3 -3 -6q-5 -8 -6 -10t-3 -5t-3 -5q-14 -21 -14 -30q0 -1 -2 -5q-2 -1 -2 -5q0 -2 -2 -6q-3 -3 -3 -7q-3 -17 -5 -19q-3 -4 -7 -36q-1 -9 -1 -32.5 t1 -25.5q2 0 2 -12q0 -6 3 -18l3 -15q0 -7 2 -11q3 -2 4 -7q2 -17 9 -28q0 -1 2 -5t2 -5q3 -6 5 -8q3 -3 3 -6q0 -4 5 -9q1 -1 2 -2.5t2 -3.5l1 -1q0 -3 13 -20q5 -4 8 -10q4 -7 17 -21t22 -20q5 -3 5 -5q3 -2 7 -4q2 -1 7 -5t7 -5q6 -6 14 -10q7 -3 11 -7q2 -2 6 -2 q2 0 8 -4q5 -3 8 -3l6 -3q3 -3 6 -3q2 2 5 -1q4 -2 6 -2t7 -3q6 -2 7 -2l12 -4q18 -6 30 -7zM372 505q8 -1 9 -3q2 -1 4 -1q5 0 7 -2q5 -2 6 -1q1 0 5 -2t6 -2q5 0 8 -3q6 -2 7 -2q3 0 7 -4q1 -1 4.5 -3t4.5 -2q6 -2 9 -5q4 -4 10 -7q7 -3 26 -21t24 -26q1 -1 5.5 -7.5 t6.5 -9.5q8 -12 8 -13q0 -4 3 -7q4 -6 4 -7t2 -7l2 -5q1 -2 3 -5q1 -1 2 -4.5t2 -4.5q0 -1 1 -5t2 -5q5 -17 7 -46q3 -39 -1 -52q-2 -5 -1 -6t-1.5 -11t-4.5 -13q-2 -4 -2 -7q0 -2 -2 -6q-3 -3 -6 -12q-7 -20 -18 -31q-12 -13 -12 -16q0 -2 -13.5 -15.5t-17.5 -15.5t-11 -8 q-15 -17 -22 -17q-4 0 -6 -2q-4 -2 -18 -6l-3 -1l-6 -3q-4 -3 -8 -3q-2 0 -4 -2q-1 -1 -10 -3q-9 0 -12 -3q-4 -2 -5 -1q-6 0 -14 -2q-19 -3 -34 -1q-2 1 -7 1.5t-7 0.5q-7 0 -15 2q-2 0 -5 0.5t-4 0.5q-2 0 -8 2q-5 2 -13 4q-8 0 -8 3q-1 1 -4 1q-6 -2 -25 12q-4 2 -7 2 q-4 0 -9 5q-4 6 -11 8q-6 0 -6 4q-2 2 -3 2q-2 0 -35 32q-8 6 -10 12l-9 15q-7 9 -7 12q0 4 -1 4t-3 4q-8 16 -8 19q0 1 -2 5q-3 6 -3 11q-2 9 -3 10q0 1 -0.5 3t-0.5 3q-1 2 -3 15q-2 12 -1 13q-1 3 -2 5q-3 9 0 38q0 1 0.5 6t0.5 6q0 6 2 10q2 5 1 6q0 5 4 12l4 12 q0 3 3 8q11 22 11 24l4 6q6 9 9 14q5 8 23 26.5t21 18.5q4 3 7 6q8 6 9 6q2 1 3 2q1 3 6 5l10 5q4 4 7 4l6 3q4 3 7 3t9 3q4 2 13 5q14 4 23 6q2 0 5 1t4 1q2 2 10 2t8 1q1 1 21.5 0t23.5 -2q4 -2 12 -2z" />
<glyph unicode="P" horiz-adv-x="385" d="M263 266l7 7q8 7 9 7q3 0 8 5q10 5 13 7q13 6 28.5 27t20.5 37q2 8 3 11q2 2 2 8q2 10 3 11q2 7 1.5 31.5t-3.5 35.5q-1 5 -2 8.5t-1.5 5.5l-1 4t-0.5 3l-5 10q-4 6 -4 8t-8.5 13.5t-11.5 12.5q-3 3 -3 5q-2 9 -13 11q-7 2 -14 9q-9 9 -12 9q-8 0 -8 5q0 2 -6 4t-10 2 q-6 0 -10 2q-2 2 -6 2t-6 2q-4 4 -19 4q-8 0 -9 1h-2q-2 1 -4 1.5t-4 0.5q-8 0 -10 1t-45 1.5t-70 -0.5q-30 -1 -30 -9l-1 -4q-2 -2 -1 -3q1 -3 2 -136l2 -57v-44q-1 -74 1 -91q1 -6 1 -43v-32l-3 -5q-7 -10 -1 -16q3 -3 3 -11q0 -10 1 -12q0 -2 0.5 -9t1 -20.5t0.5 -26.5 q0 -12 -1 -16q-1 -9 -1 -27q1 -11 1.5 -14t3.5 -5.5t10 0.5q6 1 32 1q19 0 23 2q3 4 3 61q0 31 1 33q2 3 0 6q-2 5 -1.5 76t2.5 73t10.5 3t9.5 -1q0 -2 11 -2q4 2 26 2q43 0 45 2q6 2 19.5 6t22.5 7zM201 511q5 0 11 -3q4 -2 4 0q2 0 6 -2q2 -1 8 -3q4 -1 22 -18.5t18 -21.5 q0 -3 3 -8q4 -5 5 -15q0 -15 1 -21q1 -11 -3 -30.5t-8 -24.5q-1 -1 -3 -4t-3 -4q-3 -5 -14 -14.5t-15 -10.5q-4 0 -7 -3q-7 -7 -47 -7q-22 0 -26 -2q-3 -1 -17 0t-18 3q-2 1 -2 33q0 58 -1 92q-1 61 3 65q2 2 16 3q17 0 17 1q21 0 35 -2q2 0 7.5 -1t7.5 -2z" />
<glyph unicode="Q" horiz-adv-x="700" d="M311 578q-2 -2 -12 -2q-11 0 -13 -2q-4 -2 -7 -2t-9 -2q-1 0 -5 -1t-5 -2q-15 -4 -19 -6q-2 -2 -6 -2q-1 0 -3 -1q-2 -2 -4 -2q-3 -3 -7 -3q-3 0 -6 -3l-8 -4q-6 -2 -9 -5q-4 -4 -10 -7q-4 -2 -13 -8l-12 -8q-7 -3 -35 -32.5t-28 -33.5q0 -3 -3 -6q-5 -8 -6 -10t-3 -5 t-3 -5q-14 -21 -14 -30q0 -1 -2 -5q-2 -1 -2 -5q0 -2 -2 -6q-3 -3 -3 -7q-3 -17 -5 -19q-3 -4 -7 -36q-1 -9 -1 -32.5t1 -25.5q2 0 2 -12q0 -6 3 -18l3 -15q0 -7 2 -11q2 -2 4 -7q2 -17 9 -28q1 -1 2 -5t2 -5q3 -6 5 -8q3 -3 3 -6q0 -4 5 -9q1 -1 2 -2.5t2 -3.5l1 -1 q0 -3 13 -20q5 -4 8 -10q4 -7 17 -21t22 -20q5 -3 5 -5q3 -2 7 -4q2 -1 7 -5t7 -5q6 -6 14 -10q7 -3 11 -7q2 -2 6 -2q2 0 8 -4q4 -3 8 -3l6 -3q3 -3 6 -3q2 2 5 -1q4 -2 6 -2q3 0 7 -3q6 -2 7 -2l12 -4q18 -6 30 -7q11 0 25 -11q5 -5 8 -5t11 -6q7 -7 11 -7q3 0 6 -3 q9 -6 19 -11q20 -10 27 -13q10 -7 13 -7q5 0 21 -8q4 -2 7 -2q1 0 7 -3l6 -3q4 0 16 -4q4 -2 45 -8q22 -4 29 -1q2 2 5 2q2 0 8 4t8 4t10 7t8 9q0 1 6 7q3 2 8 7l1 1q4 5 6 6q11 11 11 20q0 4 -11 2q-6 -2 -13 -2q-17 -1 -22 -3q-2 -2 -9 -1q-8 2 -13 2q-31 3 -43 7 q-11 4 -16 4q-4 0 -5 3q-3 3 -8 3l-8 4q-3 4 -8 5q-13 7 -15 14q3 0 9 4q6 3 16 7q2 1 7 3t7 3q5 3 7 3l6 4q3 4 7 4q1 0 17 13q7 7 13 11q6 3 21.5 19t16.5 19q2 5 9 13t12 16q1 3 10 17l6 11q2 3 4 5q3 3 3 7q0 2 3 8q3 4 3 8q0 3 2 5q2 4 2 7q0 2 2 6q7 11 9.5 59.5 t-3.5 75.5q0 2 -0.5 6t-0.5 5q0 4 -3 7q-3 9 -3 11q0 7 -1 8t-5 14l-6 14v2q-1 1 -2 2.5t-1 3.5q-3 7 -4 7q-2 3 -3 6q-2 6 -4 8l-1 1l-2 4t-2 3q-1 5 -8 12q-2 2 -8 11q-3 7 -29 33.5t-37 34.5q-1 1 -19 11q-13 6 -15 9q-4 3 -21.5 11.5t-18.5 7.5t-5 1q-2 2 -6 2t-6 2 t-5 2q-5 0 -8 3q-4 2 -10 2q-7 0 -9 1q-1 1 -14 3q-4 0 -8 0.5t-5 0.5q-6 4 -51 2zM393 505q7 -1 9 -3q2 -1 4 -1q5 0 7 -2q5 -2 6 -1q1 0 5 -2t6 -2q5 0 8 -3q6 -2 7 -2q3 0 7 -4q1 -1 4.5 -3t4.5 -2q6 -2 9 -5q4 -4 10 -7q7 -3 26 -21t24 -26q1 -1 5.5 -7.5t6.5 -9.5 q8 -12 8 -13q0 -4 3 -7q4 -6 4 -7t2 -7l2 -5q1 -2 3 -5q0 -1 2 -4.5t2 -4.5t1 -5t2 -5q5 -17 7 -46q4 -39 -1 -52q-2 -5 -1 -6t-1.5 -11t-4.5 -13q-2 -4 -2 -7q0 -2 -2 -6q-3 -3 -6 -12q-7 -20 -18 -31q-12 -13 -12 -16q0 -2 -13.5 -15.5t-17.5 -15.5q-5 -2 -11 -8 q-15 -17 -22 -17q-4 0 -6 -2q-4 -2 -18 -6l-4 -1q-3 -2 -5 -3q-5 -3 -8 -3q-2 0 -4 -2q-1 -1 -10 -3q-9 0 -12 -3q-4 -2 -5 -1q-6 0 -14 -2q-19 -3 -34 -1q-2 1 -7 1.5t-7 0.5q-7 0 -15 2q-2 0 -5 0.5t-4 0.5q-2 0 -8 2q-5 2 -13 4q-8 0 -8 3q-1 1 -4 1q-6 -2 -25 12 q-4 2 -7 2q-4 0 -9 5q-4 6 -11 8q-6 0 -6 4q-2 2 -3 2q-2 0 -35 32q-8 6 -10 12l-9 15q-7 9 -7 12q0 4 -1 4t-3 4q-8 16 -8 19q0 1 -2 5q-3 6 -3 11q-2 9 -3 10q0 1 -0.5 3t-0.5 3q-1 2 -3 15q-2 12 -1 13q-1 3 -2 5q-3 9 0 38q0 1 0.5 6t0.5 6q0 6 2 10q2 5 1 6q0 5 4 12 l4 12q0 3 3 8q11 22 11 24l4 6q6 9 9 14q5 8 23 26.5t21 18.5q4 3 7 6q8 6 9 6q2 1 3 2q1 3 6 5l10 5q4 4 7 4l6 3q5 3 7 3q3 0 9 3q4 2 13 5q14 4 23 6q2 0 5 1t4 1q2 2 10 2t8 1q1 1 21.5 0t23.5 -2q4 -2 12 -2z" />
<glyph unicode="R" horiz-adv-x="483" d="M44 569l-1 -4q-2 -2 -1 -3q1 -3 2 -136l2 -57v-44q-1 -74 1 -91q1 -6 1 -43v-32l-3 -5q-7 -10 -1 -16q3 -3 3 -11q0 -10 1 -12q0 -2 0.5 -9t1 -20.5t0.5 -26.5q0 -12 -1 -16q-1 -9 -1 -27q1 -11 1.5 -14t3.5 -5.5t10 0.5q6 1 32 1q19 0 23 2q3 4 3 61q0 31 1 33q2 3 0 6 q-2 5 -1.5 76t2.5 73t10.5 3t9.5 -1q0 -2 11 -2q17 2 28 -5q2 -2 6 -2q7 0 21 -14q1 -3 5 -3q3 0 23 -20t24 -27q7 -9 11 -16q7 -7 9 -11t5 -7t10 -13.5t7 -12.5q0 -1 2 -3q3 -1 5 -8q3 -6 7 -12q14 -20 14 -21q2 -3 5 -5q6 -10 7 -12q4 -8 5 -9q0 -1 2 -3.5t2 -3.5 q2 -6 7 -11q6 -6 6 -9t6.5 -11.5t10.5 -10.5q5 -3 44 -3q42 1 43 5q0 3 -8 10q-7 7 -7 10q0 4 -5 9q-6 9 -9 14q-3 7 -8 12q-3 3 -3 7t-6 10q-5 5 -12 16q-3 7 -10 12q-7 9 -7 12q0 2 -6 10q-2 2 -5.5 7.5t-4.5 6.5q-1 3 -4 8t-3 6q-6 9 -8 11q-5 6 -7 11q-3 5 -4 5t-5 6 q-1 1 -2.5 3.5l-3 5t-2.5 3.5q-6 8 -10 12q-21 28 -51 54q-9 7 -9 9q9 9 14 9q3 0 8 5q10 5 13 7q13 6 28.5 27t20.5 37q2 8 3 11q2 2 2 8q2 10 3 11q2 7 1.5 31.5t-3.5 35.5q-1 5 -2 8.5t-1.5 5.5l-1 4t-0.5 3l-5 10q-4 6 -4 8t-8.5 13.5t-11.5 12.5q-3 3 -3 5q-2 9 -13 11 q-7 2 -14 9q-9 9 -12 9q-8 0 -8 5q0 2 -6 4t-10 2q-6 0 -10 2q-2 2 -6 2t-6 2q-4 4 -19 4q-8 0 -9 1h-2q-2 1 -4 1.5t-4 0.5q-8 0 -10 1t-45 1.5t-70 -0.5q-30 -1 -30 -9zM205 511q5 0 11 -3q4 -2 4 0q2 0 6 -2q2 -1 8 -3q4 -1 22 -18.5t18 -21.5q0 -3 3 -8q4 -5 5 -15 q0 -15 1 -21q1 -11 -3 -30.5t-8 -24.5q-1 -1 -3 -4t-3 -4q-3 -5 -14 -14.5t-15 -10.5q-4 0 -7 -3q-7 -7 -47 -7q-22 0 -26 -2q-3 -1 -17 0t-18 3q-2 1 -2 33q0 58 -1 92q-1 61 3 65q2 2 16 3q17 0 17 1q21 0 35 -2q2 0 7.5 -1t7.5 -2z" />
<glyph unicode="S" horiz-adv-x="386" d="M137 577l-9 -3q-6 0 -8 -2q-4 -2 -6 -2l-3 -1q-3 -1 -4 -2q-3 -3 -7 -5q-8 -2 -29.5 -24t-21.5 -27q0 -3 -3 -6q-4 -4 -4 -8t-2 -6q-2 -4 -2 -7t-2 -5q-8 -7 -5.5 -47.5t12.5 -54.5q3 -5 3 -7t5 -7l4 -6q0 -4 21.5 -26t29.5 -27q6 -3 12 -7q3 -4 8 -4q2 0 9 -5q5 -5 8 -5 t10 -5t9 -5t8 -4q4 -4 9 -4q2 0 10 -6q12 -8 32 -18q5 -2 23 -19.5t19 -22.5l4 -8q0 -1 2 -5l3 -6q6 -14 6 -34q0 -16 -3 -20q-3 -3 -1 -6q2 -6 -7 -12l-5 -4q0 -1 -11.5 -11t-12.5 -10t-9 -4q-6 -3 -10 -3l-6 -3q-5 -3 -6 -2q-3 -1 -5 -2q-5 -2 -24.5 -2.5t-24.5 1.5 q-1 1 -5 2t-5 1q-2 0 -5 1h-4q-4 2 -7 2t-5 3q-3 2 -8 -1q-5 -2 -9 1l-8 4q-3 0 -7 4q-1 0 -5 3t-6 4q-7 4 -9 7q0 3 -9 10q-7 5 -11 13q-12 15 -17 15l-3 -1l1 -32q0 -36 1 -38q0 -1 0.5 -5.5t0.5 -6.5q1 -6 7 -12t13 -8q6 -2 9 -5q12 -12 22 -12q2 0 8 -4q2 -1 7.5 -2 t7.5 -2q7 0 9 -2q0 -1 4 -1t6 -2q1 0 15 -2q12 0 14 -2q3 -2 35.5 -1.5t35.5 2.5q4 2 10 2q8 0 8 1q2 2 9 4q8 3 10 5q1 1 3.5 2t3.5 2q6 2 9 5l9 6q8 4 23 19t17 21q4 9 6 11q4 6 4 8q0 1 2 5q2 3 6 14t4 15q0 2 2 6q5 10 4 36t-8 39q-2 4 -2 6q0 4 -5 9t-5 8q0 5 -8 13 q-1 1 -1 4q2 5 -12 14q-3 1 -10 8q-8 8 -12 10q-6 3 -17 14q-11 10 -14 10t-11 6q-9 6 -11 7q-3 1 -9 4q-1 2 -8 4q-6 2 -9 5q-1 3 -8 5q-8 3 -13 8l-10 6q-3 0 -10 5l-9 5q-5 0 -26.5 21t-25.5 29l-3 6q-3 6 -5 20.5t0 17.5q2 4 2 10q1 10 10.5 26t17.5 21q1 0 3.5 2t3.5 2 q6 5 25 10t32 4q25 0 34 -3q2 0 7 -1t7 -1q20 -7 30 -13q3 -3 11 -6q9 -6 34 -29q9 -9 12 -5q1 4 1 34t-1 37q-2 6 -2 11q-1 4 -6 9t-8 5t-9 4q-8 5 -11 5l-5 2q0 2 -3 2q-2 0 -6 2q-5 3 -8 1q-4 0 -6 2t-9 2q-8 0 -9 1q-2 2 -16 2q-3 0 -7 0.5t-6.5 1t-3.5 0.5 q-24 2 -50 -1q-10 -1 -31 -7z" />
<glyph unicode="T" horiz-adv-x="576" d="M47 586q-1 2 -6 2t-7 -2q-1 -1 -1 -34t2 -35t17 -2q32 0 37 -3q1 -1 5 1q4 3 7 1q1 -1 12 -1t11 1t9 1t10 -1q2 -2 8 0h12q4 -1 12 -1q4 1 76 3q10 0 11.5 -5t1.5 -44v-14v-12.5t0.5 -10t0.5 -6.5v-3q1 -1 1 -20q-1 -10 -1 -28q2 -8 -1 -11q-1 -2 0 -6q2 -4 2 -10 q0 -40 -1 -49q0 -15 1 -23v-19q-2 -6 1 -10q1 -2 1 -7q-4 -8 -2 -167q1 -30 1 -59q0 -5 5 -9q6 -4 37 -4h24q6 0 9 7t-1 14q-1 1 -1 17v19v22q2 25 1 97q-1 91 -3 100q-2 5 0 7q1 1 1 11q-1 6 -1 16q1 20 0.5 94.5t-1.5 98.5q0 10 1.5 12t9.5 3q12 0 60.5 -1t53.5 -1 q74 -6 82 0q4 2 4 39v25l-6 1q-17 2 -56 1q-177 0 -201 3q-5 0 -20 0.5t-22 0.5q-89 0 -94 4q-1 0 -1 -1q-2 -3 -49 -4t-52 2z" />
<glyph unicode="U" horiz-adv-x="563" d="M44 535q1 -4 0 -11q-2 -10 -2 -34q2 -81 0 -144q-1 -33 0 -46q1 -10 1 -36q0 -36 3 -52q2 -14 2 -20t2 -8t3 -25q0 -3 4 -11l3 -9q0 -3 2 -7q2 -2 2 -5t3 -7q3 -2 5 -10q3 -6 4 -7q3 -3 3 -4q0 -5 19 -25t31 -27q7 -4 16 -11q19 -15 28 -15q2 0 8 -4q6 -3 7 -3q4 0 7 -3 q2 -2 6 -2q1 1 5 -1q6 -3 11 -3q9 0 11 -2q6 -3 27 -5q15 -2 53.5 -0.5t42.5 3.5q13 5 17 5q4 2 5 3q2 2 7 2q14 -2 30 14q2 2 12 7q13 7 30.5 24t25.5 31q2 4 14 16q9 7 15 36q2 10 4 14q4 12 4 22q0 8 2 10q1 3 2 63q1 32 1 103q-2 9 1 14q1 5 0 6q-4 9 -2 167q1 31 -1 35 q-6 8 -13 6q-1 -1 -29 -1l-27 -1v-15q0 -14 -2 -20q-1 -4 1 -8t2 -54q1 -170 0 -174q-2 -4 -1 -64q0 -32 -3 -37q-2 -4 -2 -11q0 -8 -3 -11q-3 -5 -4 -15q-3 -24 -16 -38q-1 -1 -3.5 -5t-3.5 -5q-4 -12 -15 -14q-6 -3 -13 -10q-9 -9 -14 -9q-2 0 -8 -4q-5 -5 -11 -5 q-8 -2 -11 -2q-1 0 -3 -0.5t-3 -0.5q-3 0 -9 -2q-33 -8 -53 -1q-3 1 -17 1q-34 2 -63 19q-2 2 -6 2q-5 2 -24 21.5t-19 23.5q0 3 -2 5q-12 10 -19 51q-3 12 -4 18q-2 12 -1 49q0 15 -2 17q-2 4 -2 38v94q-1 32 -1 76q2 87 -2 91q-2 2 -33 1.5t-34 -2.5q-3 -3 -3.5 -19.5 t2.5 -22.5z" />
<glyph unicode="V" horiz-adv-x="552" d="M477 598q19 2 38 -1q8 -1 10.5 -3.5t1.5 -7.5q0 -5 -3 -10.5t-3.5 -9.5t-2.5 -8.5t-3.5 -11t-4 -11t-2.5 -6t-5 -15t-7 -20.5t-4 -11t-2 -5t-2 -5.5t-2.5 -8t-1.5 -5.5t-1 -4t-2.5 -7t-5.5 -14t-7 -20t-4 -12.5t-2 -5t-2 -5.5t-3.5 -9t-5 -14t-3.5 -8.5t-2.5 -6.5t-2 -8 t-3 -10t-3 -9.5t-4 -16t-5.5 -17.5q-8 -11 -16 -36l-5 -13l2 -2q4 -3 -2 -6q-6 -4 -6 -9q0 -2 -2.5 -6t-2.5 -6t-2 -6t-3 -9.5t-3.5 -10.5t-1.5 -7.5t-2 -7t-3 -5.5t-2 -2q-3 -2 -3 -8q0 -2 -3 -5q-5 -7 -5 -15q0 -4 -2.5 -9t-1.5 -7q2 -5 -1 -5t-5 -3t-2 -5q0 -4 -3 -8 q-2 -4 -6 -15.5t-4 -13.5t-4 -6q-7 -11 -11 -26q-1 -5 -2.5 -8.5t-1.5 -6t-2 -5.5t-2 -5t-6.5 -9.5t-9.5 -9.5q-3 -1 -5 1q-11 7 -17 21q-2 5 -3.5 7t-6 11t-6 11.5t-1.5 4t-4 9.5t-4 9.5t-2 4.5t-2 5q0 4 -11 24q-2 4 -2.5 7.5t-6 14t-5.5 11.5t-6 14.5t-6 15t-2.5 6 t-6 11.5t-4 10t-4.5 9t-4 7.5t-5 10.5t-6 12.5t-5.5 10.5t-4.5 8t-5.5 11.5t-7.5 14.5q-2 2 -4.5 8.5t-6.5 15t-4 10.5q0 3 -9 20q-3 6 -3 7.5t-3 6t-3.5 7.5t-3.5 7.5t-3 6.5t-10.5 22.5t-11 23.5t-3.5 7t-3 5.5t-7.5 16.5t-14 30.5t-8 17t-3 6.5t-4.5 9.5t-3 6.5t-5 10 q-8 14 -8 18q0 2 -3 6.5t-3 5.5t-7 15q-11 20 -11 24q-1 3 0 4q3 3 32 2.5t37 -2.5q4 -2 6.5 -2t4.5 -4t4.5 -6.5t3 -6t3.5 -8t3.5 -8t3 -6.5t2.5 -4t5.5 -12.5t7.5 -17t3.5 -7t9 -18t16 -34t8.5 -18.5t2 -4q2 -2 9 -18.5t7 -18t4 -7t5.5 -9t5.5 -8.5t5 -9t4 -8.5t3 -6 t3 -7.5q9 -17 9 -20q0 -2 3.5 -9.5t6 -13.5t5.5 -13q8 -16 9 -22q2 -5 11.5 -25t14.5 -26q4 -6 4 -8t1 -3q3 -4 18 -41q2 -4 2 -6l1 1q2 4 2 5.5t4.5 13.5t6.5 18.5t5.5 13.5t3.5 9t1.5 6.5t3.5 11.5q2 16 15 46q4 10 9.5 26.5t6.5 18.5t2.5 9t3 10t2.5 7.5t3 7.5t2 5 q0 10 6 19q2 3 5 11t5 11t2 7t1 5.5t3 7t5.5 14t5.5 17.5t4.5 13t2.5 6t2 6q3 5 9 26q3 12 6 17.5t3 7t3 9t4.5 15t2.5 9.5t1 4t3 8t3 7q0 7 30 9z" />
<glyph unicode="W" horiz-adv-x="892" d="M62 601q5 4 19 -2q11 -4 12 -11q1 -4 4.5 -11t3.5 -8.5t3 -7.5t3 -7.5t3.5 -6.5t3.5 -7t2 -6t3 -7.5t4.5 -13t4 -13t1.5 -4t1 -3.5t4 -11t4 -9.5t2.5 -8t2.5 -9t6 -14.5t6 -13.5t2.5 -5.5t3 -8t7 -17t7.5 -18t3.5 -9.5t4 -10t7 -18.5t7 -20t12.5 -30q15 -30 15 -39 q0 -3 2.5 -6t2.5 -6t5.5 -15t5.5 -13.5t2 -6t4 -8.5q4 -7 8 -4q6 6 19 36q7 17 8.5 19t1.5 3.5t3 8.5q19 38 19 49q0 1 3 5.5t3 6t10 22t11 27.5t4.5 15.5l7 17t3.5 11t2 4.5q6 8 10 22q1 5 4.5 13.5t3.5 10t7 16t7.5 18.5t3 7.5t4 8t8.5 21t9 20.5q3 10 6 16q2 4 2 6t1 4.5 t1.5 6.5t3.5 5q4 4 20 4t24 -3q19 -7 23 -32q2 -12 10 -25t8 -18q0 -2 8 -17q4 -8 4 -10t3 -7.5t3 -7.5t2 -6t2 -5t3 -5.5t3 -7.5t2.5 -8t2.5 -6t5.5 -12.5t5.5 -13t3 -6t5.5 -12t9 -21t6.5 -15.5t3 -6t6.5 -13.5t6 -15.5t2.5 -8t4 -8q8 -13 9 -18q1 -3 2.5 -7t1.5 -6 t2.5 -6.5t2.5 -6t3 -5.5t3.5 -8t3 -8t2.5 -6q0 -6 13 -25l4 -6l2 5q4 7 15 35q3 5 4 9.5t4.5 12t3.5 10t2.5 8t4.5 12.5t2.5 8t0.5 2.5t3 4.5t3 4.5t2 7t2 7.5t8 17q11 24 11 31q0 3 5 17.5t7.5 21t4 8.5t4 8.5t2.5 8.5t5 13t5 13.5t3.5 7.5t8.5 18t7 16.5t2 5.5t4 9t5 10.5 t4 11t3 9t2.5 5t3.5 8.5q1 9 6.5 16t11.5 8q4 0 14 1q9 1 32.5 0.5t25.5 -2.5t2 -8q-1 -12 -16 -44q-4 -10 -4.5 -13.5t-3 -8t-3 -7.5t-7 -17.5t-8 -20.5t-4 -11.5t-2.5 -7t-1 -2.5q-3 -3 -11 -23t-8 -25q0 -4 -11 -24q-2 -2 -2.5 -6t-7.5 -17.5t-8.5 -19t-4.5 -10.5t-3 -6 t-3.5 -8.5t-3.5 -9t-4 -9.5t-4 -10t-4 -8.5t-4 -8.5q0 -10 -6 -21q-6 -13 -11 -32q-1 -4 -6.5 -15.5t-6.5 -14.5t-5 -10t-5 -14q-2 -17 -13 -36q-2 -4 -6 -15t-4 -14q0 -1 -4 -6.5t-4 -8t-1 -5.5q-7 -12 -7 -19q0 -2 -5 -13t-7 -16q-1 -7 -5.5 -12.5t-9.5 -5.5q-6 0 -6 7 q0 2 -2.5 5.5t-2.5 4.5t-3.5 6.5t-4 9t-4 9.5t-4 9t-2.5 5.5t-3 7.5t-7 17t-7 17q-3 13 -9 22q-3 5 -5 11q-6 17 -10 19q-1 1 -1 3.5t-3 9t-3 8t-2.5 5t-3.5 8.5q-4 12 -9 19q-3 4 -3 8q-2 5 -7.5 18.5t-7.5 16.5q-2 2 -2 4t-3.5 8t-4 8.5t-3.5 7t-3 6.5t-3 6.5t-4 11.5 t-11 26q-12 25 -12 32q0 2 -3.5 8.5t-4 8.5t-2.5 6t-2 6t-4.5 11.5t-5 12t-3.5 8t-3 7.5t-3 6.5t-3 6.5q0 6 -5 7.5t-5 -3.5q0 -2 -4.5 -9t-4.5 -9.5t-1 -2.5t-9 -18.5t-8 -20.5q0 -1 -4 -8.5t-4 -9t-2.5 -4.5t-2.5 -4q0 -8 -14 -36q-10 -21 -11.5 -28.5t-5.5 -12.5 q-6 -10 -7 -20q-1 -5 -6 -14q-13 -23 -14 -30q-1 -4 -3 -7t-2 -4.5t-6.5 -17t-7.5 -19.5q-2 -3 -2 -4.5t-3 -7.5t-3.5 -10t-7 -18.5t-7.5 -17t-6 -13.5q-15 -34 -18 -45q-1 -4 -2.5 -5.5t-2.5 -11.5q-3 -23 -13 -33q-8 -7 -16 -4q-10 2 -13 12q-1 3 -4 8t-3 7q0 3 -13 37 q-3 10 -8.5 25.5t-9.5 25.5t-4 11t-2.5 4.5t-2.5 6t-2 6.5t-3 8q-2 8 -5 15q-2 4 -2 5.5t-5 11.5t-6 14.5t-5.5 15t-5 15.5t-5 15.5t-5 13.5t-3.5 8t-3 7t-3 8.5t-4.5 11.5t-4 9.5t-3.5 9.5t-4.5 11t-4.5 13q-2 10 -14 35q-7 15 -7 16.5t-3.5 7.5t-3.5 7.5t-4 11t-4 11.5 t-3 7t-3 7t-1 4q-2 2 -4.5 10.5t-2.5 10t-5.5 12t-5.5 13.5t-2.5 7t-2.5 6t-2 5t-2 5q0 4 -7 16q-1 2 -4.5 14t-6.5 16.5t-3 6t-2 5.5t-2 7t-1 8q-2 5 1 6.5t22 1.5q21 1 23 2z" />
<glyph unicode="X" horiz-adv-x="595" d="M335 189q-1 0 -2.5 4t-3.5 6q-7 6 -7 2h-1q-1 0 -1.5 1t0.5 2q0 2 -7 11q-13 13 -9 14q2 0 -3 5q-5 3 -5 6q-1 1 -2 1t-1.5 -1.5l-1.5 -4.5t-3 -6q-1 -1 -2.5 -4t-3.5 -5.5l-2 -2.5q-6 0 -14 -17q-3 -6 -15 -20q-12 -12 -12 -14q0 -7 -20 -25q-2 -3 -5 -7l-3 -4 q0 -2 -3 -5t-3 -5t-1 -2q-2 0 -2 -2q0 -3 -8 -9q-8 -7 -6 -9q1 -1 0.5 -2.5t-2.5 -3.5t-3 -2q-5 0 -10 -10l-3 -4l-6 -6q-8 -10 -8 -11q-4 -7 -8 -11q-2 -4 -5 -7q-1 -2 -20 -21q-15 -15 -20.5 -17t-35.5 -2q-29 0 -29 -1q-2 -2 -3 0q-3 2 -8 0q-10 -3 -14.5 1.5t0.5 13.5 q4 6 5 7q2 0 6.5 6.5t4.5 8.5t3.5 5t5.5 3t6 4.5t4 5.5q0 2 4 4q5 5 6 7q2 8 21 26q13 13 13 15q0 5 25 32q7 7 9 12q0 5 3 5t5 4t22 26q8 10 8 11q3 5 4 6q2 2 2 3q0 2 11 13q10 10 10 13q0 1 7 10q6 8 10 14l3 3q2 3 3 3t3 5q3 7 19 25q1 1 2 3q2 2 2 3t2 3q6 7 6 10.5 t-6 10.5l-7 8q0 2 -4 4l-3 4l-1 2l-2 2q-3 3 -5 7q-3 6 -15 17.5t-14 11.5q-1 -1 -1.5 0t0.5 2q0 2 -9 11t-11 10h-3l-2 1q-3 0 -1 2q0 10 -11 16q-5 4 -5 7q0 5 -5 8q-4 6 -4 8t-6 10q-15 15 -12 17q0 1 -7 8t-9 11l-3 4q-2 0 -5 3t-2 5q1 3 -18 23l-12 14q0 2 -13 17 q-10 12 -18 22q-6 11 -10 13q-9 10 1 12q62 3 83 1q5 -1 20.5 -15t15.5 -18q0 -1 3 -4q4 -2 4 -4q0 -3 9.5 -13.5t13.5 -10.5q6 0 6 -5q0 -3 4 -7q4 -6 3 -8q0 -2 14 -16q1 -1 7 -8.5t9 -11.5l12 -18q1 -1 3 -3.5t3 -3.5q6 -4 10 -13q4 -5 9 -10q9 -9 13 -17q10 -18 16 -18 q1 2 1 5q3 12 6 2v-11q0 -13 2 -14t10 10q3 1 3 4q0 2 4 6q15 15 15 17l4 4q3 4 5 6q8 10 8 11q0 7 8 12q4 4 19 24q10 15 18 23q1 2 3.5 5.5t3.5 5.5l3 3l1 2q11 13 11 18q-1 3 1 5t5 1q3 0 9 8q7 9 9 10q1 1 2 2.5t3 4t3 4.5q9 11 13 15q4 5 10 14q6 8 8 10q4 3 11 2h10 q11 -1 19 -1q37 -1 56 -5q7 -1 7.5 -3.5t-4.5 -4.5t-6 -6q-2 -5 -5 -6q-3 -2 -5 -5q0 -1 -5 -6l-8 -8q-9 -11 -9 -13q-5 -10 -22 -27q-2 -2 -4.5 -5.5t-3.5 -4.5q-6 -12 -21 -27q-5 -5 -10 -15q-4 -8 -16 -20q-3 -3 -6.5 -7t-6 -6.5t-2.5 -3.5q-2 -4 -7 -10q-3 -3 -11 -13 q-7 -8 -9 -13q-8 -12 -13 -17q-12 -14 -14 -20q-4 -8 -5 -8t-7 -8q-3 -4 -8 -9q-3 -3 -3 -4q0 -3 -1 -4q-1 0 -8 -9q-5 -8 -4 -13t11 -16q8 -8 11 -14q11 -17 17 -19l4 -4l4 -6q1 -1 3.5 -5t3.5 -5q4 -3 4 -6q0 -2 7 -9q2 -2 6 -7t5 -6q8 -12 20 -26q21 -21 21 -26 q0 -1 6 -7t8 -6l1 -1q0 -2 5 -7q1 -1 4 -5.5t3 -5.5q2 -4 9.5 -12t9.5 -8t2 -2t5 -7q6 -6 6 -7q0 -2 21 -29q10 -10 10 -13t15 -18q18 -18 13 -21q-2 -1 -8 -1q-10 -2 -17 -2q-4 -1 -12 -1l-6 -1q-1 -1 -9.5 -1t-9.5 1q-2 2 -4 0q-5 -2 -17.5 -1t-14.5 4q-4 7 -8 9 q-7 10 -7 11l-9 12l-7 7q0 1 -9 15l-9 9q-13 15 -19 24t-9 12q-4 4 -12 13l-9 10l-2 3q0 5 -19 22q-12 12 -12 17q0 3 -3 6q-5 2 -6 5l-2.5 1t-5 2.5t-4.5 4.5z" />
<glyph unicode="Y" horiz-adv-x="536" d="M427 566q-6 -6 -6 -7q0 -3 -3 -6q-4 -2 -10 -11q-6 -8 -8 -10t-2 -4q0 -4 -22 -26q-4 -4 -4 -7t-2 -3q-1 0 -5 -6t-11 -13t-7 -9q0 -3 -7 -8q-4 -3 -10 -12q-2 -6 -9 -13t-13 -17q-5 -8 -22 -27q-8 -9 -21 12q-4 6 -5 6q-2 2 -5 6q-4 6 -17 19q-13 15 -13 16q0 2 -3 4 q-1 1 -3 4t-3 4t-7 8t-11 12q-13 13 -13 15q0 4 -18 22q-3 3 -8 8.5t-6 6.5q-2 2 -7.5 8.5t-7.5 9.5q-10 14 -12 15q-4 4 -7 10t-10 7t-45 0q-42 0 -44 -4t26 -33q24 -24 24 -30l17 -17q17 -17 17 -21q1 -4 23 -27q18 -18 27 -30q8 -10 15 -19q13 -13 15 -17q4 -7 5 -7 q3 -2 5 -5q1 -3 21 -23q17 -19 17 -20t3 -4q3 -5 3 -197q1 -125 3 -126q1 -2 19 -2q4 0 17.5 0.5t19.5 0.5q26 0 26 7q0 1 -1 3q-1 3 0 18.5t2 16.5q0 3 -1 5q-1 1 0 16q1 13 0 16q-4 6 0 12q1 1 1 5.5t-1 5.5v7v9q-2 2 -2 26q0 7 -0.5 21.5t-0.5 17.5q-2 15 0 18q3 3 0 7 q-2 5 0 8t1 7q-2 6 -1 12q1 8 0 19q0 6 -2 32l-1 23l6 7q5 6 7 11q0 2 11 15q16 17 16 21q0 2 6 8q21 24 21 27q0 2 8 12q18 18 18 23q0 1 9 12q18 20 21 26q1 1 10 13q3 3 7.5 8t5.5 6q4 6 7 9t3 5q0 3 9 12q10 10 13 16q9 11 19 20q9 9 7 17q-1 3 -5 1q-2 -1 -35.5 -0.5 t-37.5 2.5q-4 0 -7 -5q-7 -7 -9 -11z" />
<glyph unicode="Z" horiz-adv-x="584" d="M45 580q-15 1 -17.5 -1.5t-3.5 -17.5q-3 -19 0 -41l1 -9l7 -2q5 -2 23 -1h19h242h31q9 1 30 1q25 0 26 -3q2 0 -3 -7l-5 -10q-3 -6 -9 -12q-11 -13 -12 -16q-1 -1 -3.5 -4.5t-4.5 -6.5t-4 -5q-6 -8 -10 -12q-4 -7 -11 -14q-3 -1 -3 -4q0 -1 -9 -12q-9 -9 -9 -11 q-3 -4 -6 -7q-7 -7 -7 -9q0 -3 -12 -15t-15 -19q-4 -9 -16 -22q-13 -13 -15 -20q-6 -9 -14 -17q-10 -10 -12 -14q-1 -2 -7 -8q-4 -4 -4 -6q0 -3 -7 -10t-9 -11q-3 -5 -6 -7t-7 -8q-2 -5 -3 -5l-6 -6q-3 -6 -11 -14q-7 -7 -7 -10q0 -1 -4 -5q-4 -5 -6 -9q-6 -9 -10 -12 q-6 -8 -6 -9t-4 -5.5t-6 -4.5t-2 -3t-4 -7q-6 -6 -8 -9q-11 -16 -26 -30q-6 -6 -6 -9q0 -1 -2 -3q-2 -3 -3 -4q-2 -2 -4.5 -5t-3.5 -4q-3 -6 -11 -16t-10 -10q-3 -3 -4 -5q-2 -6 -7 -9q-9 -8 -9 -16q0 -7 5.5 -8.5t36.5 -1.5q36 2 36 -1q1 -1 6.5 -1t6.5 1q1 2 71 4 q41 2 70 0q14 -1 109 -1q62 2 67 -2q9 0 20 1q32 3 78 1q34 -2 35 4q0 1 -1 4q-1 2 -1 32q0 28 -1 28q-1 1 -25 1h-75q-22 2 -42 2h-12t-10 0.5t-5 0.5q-2 2 -4 0t-45 -2h-12h-45h-74q-43 0 -44 6q-1 4 15 18q4 4 4 5q0 6 9 15q23 23 23 28q0 1 3 4q4 4 5 6q1 3 6 8 q3 3 9 13q4 8 12 16q1 2 2.5 3.5l3 3t1.5 2.5q0 2 6 8t6 7q0 2 7 11q2 3 7 10t7 9q5 8 18 23q10 11 13 18q3 6 9 12q1 1 13 17q6 10 13 17q10 13 11 14q2 3 18 24q19 23 20 27q6 9 23 26q1 1 2.5 3l3 4t1.5 3l6 9q4 2 4 4q2 3 4 5q6 6 16 22q3 4 19 22l6 8q0 2 5 7 q1 1 2 2.5t2 2.5l1 2q0 1 7 10q24 27 31 42q5 11 -2 11q-15 -2 -71 -2t-84 1q-27 1 -45 1q-6 -1 -34 -1h-28h-60h-28h-3q-4 1 -10.5 1.5t-11.5 0.5q-17 1 -58.5 1.5t-41.5 -0.5q-1 -1 -17 -1z" />
<glyph unicode="[" horiz-adv-x="892" d="M17 583q0 -2 2 -6t2 -6q0 -3 3 -6t3 -6q7 -14 7 -23q8 -16 8 -17q0 -2 2 -5t2 -6t2.5 -6t2.5 -5q0 -5 5.5 -14.5t5.5 -13.5q0 -1 2 -6.5t2 -6.5q0 -2 2 -5.5t2 -5.5t3 -6.5t3 -6.5q0 -3 4 -12t4 -11q0 -1 3.5 -7.5t3.5 -8.5t3 -6.5t3 -6.5q0 -1 3.5 -8t7.5 -16t4 -15 q0 -4 4.5 -11.5t4.5 -10.5t3 -8.5t4 -8.5q0 -3 4 -11.5t4 -11.5q0 -2 3 -6.5t3 -7.5q2 -6 6.5 -16t4.5 -17q0 -2 2.5 -6.5t2.5 -6.5q0 -1 1.5 -4t2.5 -5.5t1 -3.5q1 -6 6 -15t5 -13q0 -2 2 -4.5t2 -4.5t2 -6t2 -7t2 -6.5t2 -6.5t2.5 -6t2.5 -4t5 -13t5 -14q1 -3 3 -8t3 -8 q0 -2 3.5 -10.5t3.5 -10.5l1 -3t3 -7.5t4 -9.5t3 -9t1 -6q0 -3 3.5 -8t3.5 -7q2 -6 3 -6q13 -13 26 -1t13 39q0 2 2 5t2 5q0 1 6 15t6 15t6 13.5l6 12.5q0 2 7.5 19t7.5 21q0 2 3 8t3 7q0 2 2.5 6.5t2.5 5.5l5.5 14t5.5 15q0 3 2.5 5.5t2.5 4.5q0 8 10 25t10 22q-1 1 0 2.5 t2 4t1 3.5q0 2 4.5 9t4.5 10q0 7 13 32t13 35q0 2 2 4q3 0 3 6q8 16 8 17t8 20t9 19t1 3q0 1 4.5 8t4.5 9q0 8 6 4q3 -2 4 -7q0 -2 3 -7t3 -7q0 -3 3.5 -7.5t3.5 -6.5q0 -5 4.5 -13t4.5 -12q0 -2 2.5 -5.5t2.5 -6.5q0 -2 3.5 -8t3.5 -8q0 -9 12 -31.5t12 -30.5 q0 -2 3.5 -7.5t3.5 -7.5q0 -3 3 -6t3 -6q0 -2 4 -9t4 -9t2 -5t2 -4l4.5 -9.5t4.5 -10.5q0 -2 1.5 -5t1.5 -4q0 -3 7 -13q0 -2 3 -8t3 -8t3 -6.5t3 -5.5t3 -7.5t3 -8.5q0 -4 1 -4q1 -1 6 -11t5 -12q0 -1 4.5 -8.5t4.5 -8.5t2 -5.5t2 -6.5q0 -4 7.5 -18.5t7.5 -18.5 q0 -2 2.5 -5t2.5 -6q0 -2 4 -9t4 -9t1.5 -5t3.5 -6.5t3 -4.5q0 -2 2.5 -4.5t2.5 -5.5q0 -12 9 -6q9 4 12 17q0 4 6 15t6 13q0 3 2.5 10t2.5 8q3 6 3 9q0 2 4 7t4 6q0 2 2.5 9.5t2.5 8.5t0.5 3l0.5 2q17 27 17 44q0 3 5 11.5t5 12.5q0 1 6.5 13.5t6.5 15.5q0 2 1.5 5.5 t1.5 5.5q6 21 10 23q0 1 0.5 2.5l0.5 1.5q0 2 1.5 7t1.5 8q0 1 4 7.5t4 9.5q0 2 1.5 4t1.5 4q1 2 3 5t2 6q0 2 3.5 9t3.5 9q0 1 3.5 6.5t3.5 7.5q0 5 8.5 20.5t8.5 21.5q0 4 2 4q1 1 6.5 12t4.5 12q13 39 16 42q0 4 2 4t2 5q0 1 3 7t3 9t8 20t8 20q0 1 2.5 5.5t2.5 6.5 q0 1 10 27q12 33 11 38t-22 5q-8 0 -18.5 0.5t-15.5 0.5q-4 -2 -14 -2t-16.5 -8t-6.5 -20q0 -1 -2.5 -4.5t-2.5 -5.5q0 -1 -3.5 -9t-3.5 -9q0 -3 -3 -8.5t-5 -9.5t-1 -5q0 -1 -3.5 -8l-3.5 -7q0 -1 -3.5 -9t-3.5 -9t-3.5 -5.5t-3.5 -5.5q1 -1 -1.5 -7t-5.5 -12.5t-3 -8.5 q0 -3 -3 -10.5t-4 -7.5q-2 0 -2 -3q0 -2 -3.5 -11l-3.5 -9q0 -1 -3.5 -10t-3.5 -12q0 -8 -9 -27t-10 -22q0 -3 -2 -7.5t-2 -7.5q0 -2 -3 -5t-3 -4q0 -3 -2 -3q0 -1 -2 -9q0 -3 -3 -9.5t-3 -8.5q0 -3 -3.5 -10t-4.5 -10q0 -4 -3 -10t-3 -8l-2 -4t-1.5 -4t-2.5 -6t-4 -9 l-6 -11q-1 1 -3 4.5t-4 6.5t-2 4t-3.5 7t-3.5 8t-3 6.5t-3 6.5q0 1 -6 13q0 2 -3 7.5t-3 8.5q0 2 -2 5t-2 6q0 5 -6.5 14.5t-6.5 13.5q0 2 -3 7.5t-3 6.5q0 2 -2.5 8t-2.5 7t-3.5 6t-3.5 7q0 1 -1 3v2q-3 3 -9.5 17.5t-6.5 17.5q0 2 -3 6.5t-3 6.5q0 4 -5.5 14t-5.5 13 q0 1 -2.5 5.5t-2.5 6.5q1 2 -2.5 7.5t-3.5 6.5q0 2 -2 5.5t-2 5.5q0 3 -3 8t-3 7t-1.5 5t-4 6.5t-2.5 4.5q0 3 -2 5.5t-2 4.5q0 6 -9.5 20.5t-9.5 21.5q0 16 -11 27t-27 11q-21 0 -27 -2t-6 -8v-3l-1 -2q-2 0 -2 -5q0 -3 -2 -6.5t-2 -5.5t-2 -6t-2 -5q0 -3 -8.5 -21 t-8.5 -23q0 -1 -2 -3.5t-3.5 -5t-0.5 -3.5q0 -2 -3.5 -8.5t-3.5 -7.5t-4 -8t-4 -8q0 -4 -4 -12.5t-4 -12.5q0 -2 -4.5 -12.5t-6.5 -10.5q-2 -2 -2 -5q0 -2 -1.5 -5.5t-3 -7.5t-2.5 -6q0 -3 -3.5 -11t-3.5 -10q0 -8 -10.5 -28.5t-11.5 -24.5q0 -2 -3 -6.5t-3 -6.5t-2 -6.5 t-2 -6.5q0 -1 -5.5 -14t-5.5 -14t-3.5 -7.5t-3.5 -8.5q0 -4 -2 -4l-6 -14t-12.5 -27.5t-10.5 -13.5q-2 0 -4 3t-2 5t-2.5 5.5t-2.5 5.5q0 7 -7 17l-0.5 2.5t-2 5t-1.5 3.5q1 2 -2 6t-3 5q0 12 -14 39.5t-14 36.5q0 1 -7 17t-7 21q-1 2 -4 6.5t-3 7.5q0 6 -7.5 19.5 t-7.5 19.5q0 1 -1.5 4t-3 5.5t-0.5 3.5q-1 2 -6.5 12.5t-5.5 13.5t-2 8t-3 8q0 4 -4 11t-4 10q0 4 -1 5q-1 0 -1 4l-2 4q-1 3 -2.5 6.5t-0.5 3.5q0 1 -2.5 6t-2.5 7t-2 5.5t-2 5.5t-1 3.5l-2 3t-2 3.5t-2 3q0 3 -3 8.5t-3 7.5q0 3 -4 10t-4 12q0 6 -14.5 10t-18.5 0l-3 -1 h-8h-10q-13 0 -17.5 -1t-6 -2t0 -5.5t1.5 -8.5z" />
<glyph unicode="\" horiz-adv-x="538" d="M302 -5l4 2q3 2 8.5 9.5t5.5 8.5q0 4 2 6t2 6q0 3 2 7q2 2 2 6t3 8q0 1 2 4q1 3 1 4q0 2 4 8q5 5 5 8q0 2 5 17q2 4 2 7q0 1 1 2q2 2 2 3q3 3 3 8q0 8 7 8q3 0 1 5q-1 4 2 8q2 3 2 9v5q2 2 2 3q0 3 3 5q3 6 3 8l2 6q2 0 2 1q0 3 3 6q4 6 2 8q-2 3 2 8q3 9 3 10q0 4 2 8 q3 3 3 6q0 4 3 7q3 6 3 8q0 4 6 7q5 3 3 6q-3 2 2 16q5 16 7 21q2 7 7 12q5 6 7 17q2 10 4 17q1 2 4 13q0 6 3 9q2 2 2 6t2 8q3 2 3 6q0 13 7 20q2 2 2 5q0 4 2 6q2 4 2 6t2 6q12 24 12 34q0 3 3 6q2 4 2 7t2 5q1 0 1 5t2 7q2 4 2 6q0 3 2 5q3 6 3 7q2 9 12 33q2 3 2 7 q0 1 2 5q3 3 5 17q2 5 3 6q2 2 2 6t2 8q11 23 -2 24q-22 4 -48 1.5t-26 -9.5q0 -3 -3 -6q0 -1 -1.5 -4t-1.5 -4q0 -3 -1 -4q-2 -2 -2 -10q-2 -10 -4 -14l-4 -8q0 -2 -2 -6q-4 -8 -8 -23q0 -2 -1 -6t-2 -5q-2 -4 -2 -6l-1 -2l-2 -4q-3 -5 -2 -6q0 -2 -2 -6q-3 -5 -5 -14 q-2 -8 -4 -13q-2 -4 -2 -6l-1 -3q-2 -3 -2 -4q-3 -5 -3 -8q0 -2 -2 -4q-2 -1 -2 -5q2 -3 -2 -7q-2 -4 -2 -5t-4 -11q0 -3 -2 -5q-7 -7 -7 -20q0 -4 -3 -6q-2 -4 -2 -8t-2 -6q-3 -3 -3 -9q-3 -11 -4 -13q0 -1 -1.5 -4.5l-3 -7t-1.5 -6.5q-6 -19 -15 -38l-4 -12q-1 -4 -4 -13 q-2 -6 -2 -11q0 -4 -2 -8q-2 -2 -2 -6t-3 -8q0 -2 -2 -6t-3 -5q-3 -13 -9 -26l-3 -9q0 -4 -1 -4q-2 -2 -2 -6q0 3 -2 8q-2 6 -4 10q-8 16 -14 31q-2 2 -2 5q0 1 -4 7q-2 2 -10 18q-7 13 -9 18q-7 12 -7 18q0 3 -3 6q-2 4 -2 6l-4 8q-1 1 -2 3l-1 2q0 3 -10 23q-2 4 -2 6 q0 3 -2 7q-3 3 -3 6q0 2 -4 8q-3 4 -3 7q0 2 -4 8q-3 3 -3 7q0 3 -3 6q-8 8 -8 10q0 4 -6 11q-3 3 -3 6t-3 9q-2 6 -4.5 11t-4 7.5t-1.5 4.5q-1 2 -5 8q-3 9 -5 12q-3 5 -9 17t-10.5 22.5t-4.5 11.5l-3 6q-3 3 -3 5q-2 4 -3 8q-9 17 -12 25q0 4 -3 5q-2 2 -2 5t-4 9t-4 9 t-2 5q-3 2 -5 7q-1 4 -5 4l-4 1q-2 3 -35 3.5t-36 -2.5q-4 -4 5 -17q4 -6 4 -7t4 -9q5 -8 5 -10l3 -6q3 -3 3 -6q0 -1 1.5 -4t1.5 -4q4 -6 4 -8t3 -5q3 -6 3 -7q0 -4 3 -7q4 -6 4 -8t2 -6q3 -3 3 -5q2 -4 3 -7q3 -6 7 -16q4 -9 7 -14l2 -4t1 -3l4 -8q4 -6 4 -9t4 -7 q3 -3 3 -7t4 -8l3 -6q0 -1 2 -5q4 -8 7 -13q5 -10 5 -13t3 -6t3 -6q0 -4 3 -7q4 -6 4 -8t3 -7q4 -6 4 -8q0 -3 3 -6q2 -4 2 -7q0 -2 2 -6q10 -20 10 -23q1 -1 2 -3l1 -2q1 -1 5 -9q1 -2 3 -5l2 -4q3 -6 3 -8l3 -6l2 -3q4 -4 4 -5q0 -10 10 -22q2 -2 2 -5q0 -2 5 -9 q4 -6 4 -9t3 -7q4 -6 4 -8q0 -3 3 -6q2 -4 2 -5t6 -15q6 -12 6 -14t2 -6q1 -1 4 -7q0 -2 4 -8q2 -4 2 -7t3 -6q3 -6 4 -9q2 -6 4 -8q2 -4 2 -6q0 -3 2 -5t2 -5q0 -1 4 -9q4 -6 4 -9t2 -5q2 -1 4 -7q4 -8 6 -11l4 -8q0 -4 9 -15t13 -12z" />
<glyph unicode="a" horiz-adv-x="396" d="M68 187q10 9 12 10q3 0 7 4q6 4 15 6q3 1 13 6q4 4 10 5q5 1 11 4q4 6 17 6q3 0 9 4q3 5 7 5t6 1q1 0 3.5 1t3.5 2q4 0 12 4q5 2 14 5q8 2 8 3q11 5 27 10q13 4 14.5 7t0.5 17l-2 17l-1 4q-1 4 -2 10.5t-2 11.5t-15 19.5t-18 15.5q-1 0 -3.5 1t-6 2t-6.5 2q-16 5 -44 2.5 t-38 -10.5q-4 -4 -11 -3q-6 1 -9 -3q-3 -5 -6 -5q-5 -2 -5 -3l-16 -18q-16 -16 -16 -19t-3 -5q-2 -2 -4 -7q-3 -8 -7 -1q-2 3 -1 8v12q-2 9 -2.5 33t1.5 30q2 9 17.5 25.5t21.5 16.5q2 0 4 2q4 3 8 5q8 4 10 6l6 3q2 0 8 2q12 6 17 6q4 0 6 1q4 2 18 2l15 2q1 1 19 -0.5 t19 -2.5q2 -2 8 -2q7 0 11 -2q1 0 5.5 -1.5t6.5 -1.5q8 -2 13 -5q4 -4 8 -4q2 0 13 -9q10 -8 12 -8q5 0 14 -11q17 -22 20 -32q2 -4 2 -6q10 -13 10 -23q0 -4 2 -18q1 -6 3 -44q0 -19 0.5 -44t1 -38t0.5 -19v-87v-24q-3 -38 3 -44q1 -3 -1 -6q-2 -4 -2 -6q0 -8 -16 -11 q-54 -12 -59 -7q-1 8 -1 17q0 19 -3 19q-2 0 -6 -4l-10 -5q-2 -1 -5 -3l-4 -2q-4 -4 -6 -4q-1 0 -11 -4t-11 -4q-19 -7 -22 -4q-1 1 -6 -1q-16 -9 -59 2q-16 3 -20 6q-4 2 -6 2t-5 3q-1 0 -5.5 4t-7.5 6q-20 16 -20 21q0 1 -4 7q-5 5 -5 9q-3 6 -4 9q-4 6 -4 7q0 3 -3 5 q-2 3 -1 13q1 11 0 12q-2 3 -1 15t4 16q0 1 1.5 4t1.5 4q0 3 2.5 8.5t4.5 6.5q1 0 1 2q0 3 3 5q1 1 2 3.5t2 3.5q0 3 2 4.5t5 4t4 3.5zM148 180q-8 -8 -19 -24q-6 -6 -6 -10q0 -2 -3 -7t-3 -12q0 -8 -2 -10q-6 -4 1 -11q3 -3 5 -7q1 -7 17 -21t24 -16q4 0 10 -3q4 -1 18 -1 t16 2t6 2t10 2t8 2q3 0 10 5q5 7 10 7q2 0 9 5l5 5v26q-1 14 -1 60q0 9 -0.5 18.5t-0.5 15.5v7q-1 8 -12 4q-10 -3 -11 -3q-5 0 -11 -3q-13 -6 -22 -7q-4 0 -6 -2t-7 -2.5t-7 -1.5t-8 -3q-2 -1 -3 -2.5t-2 -1.5q-2 0 -5 -3q-2 -2 -9 -5t-11 -5z" />
<glyph unicode="b" horiz-adv-x="499" d="M93 667q-33 -3 -30 -14v-2q0 -2 0.5 -5.5t0.5 -8v-10v-10.5l1 -35q2 -3 2.5 -119t-0.5 -120q-3 -5 -1 -102q0 -99 -1 -102q-2 -5 -1 -9q0 -24 2 -54q0 -5 0.5 -15t0.5 -13q0 -21 16 -22q9 -2 12 -4q6 -4 8 -4q6 0 22 -6q2 -1 7 -2t6 -1q8 0 14 -2q12 -3 56.5 -4.5 t49.5 0.5q6 3 13 3q14 1 38 8q12 2 13 3q14 3 21 8q1 3 8 5q4 0 8 4l8 4q8 4 33.5 28.5t29.5 32.5q5 10 7 13q4 4 4 8q3 7 7 14l6 14q0 4 5 16q2 5 6 28q1 4 1 17q-1 6 -1 32q-2 33 -5 42q0 1 -3 11q0 7 -2 11t-2 6q0 3 -3 6q-3 1 -5 8q-6 17 -19 32q-8 8 -8 10t-10.5 13.5 t-15.5 15.5q-1 1 -4.5 3.5t-5.5 4.5q-22 16 -27 18q-6 3 -9 5q-6 4 -8 4t-8 4q-4 3 -8 3q-3 0 -5 2t-5 2q-5 0 -8 3q-4 1 -31 1t-31 -1q-1 -1 -11 -3t-16 -5q-10 -4 -12 -4q-3 -1 -11 -5q-3 -1 -9 -4l-8 -4q-1 -1 -7 -3q-1 -1 -5.5 -4t-6.5 -5q-9 -8 -10 -3q-2 5 -1 45 q1 68 0 93q-1 17 -1 48.5t1 36.5q2 6 0 19q-1 15 0 18q5 9 -8 9q-5 0 -11 -1q-28 -6 -33 -6zM285 364q1 -1 5 -1q1 0 11 -5q8 -5 10 -5q4 0 27.5 -23t23.5 -27t4 -8q4 -6 4 -10q1 -1 2 -5t1 -5l3 -12q2 -6 2 -34t-1 -33q-5 -28 -10 -35l-1 -3q-1 -2 -1 -3q-2 -4 -5 -7l-4 -8 q-3 -6 -6 -9q-6 -6 -7 -8q-3 -5 -15 -15t-14 -10t-9 -5t-9 -5q-1 0 -7 -2q-4 -3 -11 -5q-8 -2 -10 -3q-3 -1 -32 -1.5t-37 0.5q-24 5 -25 7q-1 1 -5 1q-10 0 -18 11.5t-4 19.5q1 3 0 13q-3 24 -3 112q0 1 0.5 23.5t0.5 34.5v22l5 7q6 9 10 11q1 1 5 4.5t6 4.5q10 6 11 6 q2 0 8 4q5 5 9 5q5 0 6 1q2 2 12 4q8 2 10 2q2 1 21.5 0t26.5 -3q10 -2 10 -3z" />
<glyph unicode="c" horiz-adv-x="416" d="M202 443q-6 0 -6 -2q-1 -1 -4 -1q-1 0 -4 -1.5t-4 -1.5q-7 -3 -7 -2q-2 0 -4 -2t-5 -2q-2 0 -9 -5l-10 -5q-3 0 -10 -5q-8 -6 -9 -6q-4 0 -26 -21.5t-29 -31.5q0 -1 -3.5 -6.5t-5.5 -7.5l-6 -10q0 -4 -4 -8l-4 -8v-1l-2 -4t-1 -3q-4 -8 -4 -9q0 -3 -2 -5q-1 -2 -3 -10 q0 -2 -1 -5.5t-1 -4.5q-7 -13 -5.5 -52t9.5 -63q2 -4 6 -17q0 -4 3 -7q2 -2 2 -6t3 -6q2 -2 5 -8q2 -6 8 -12q5 -7 10 -15q7 -10 25 -27t22 -17q1 0 7 -6q8 -6 31 -17t32 -12q7 0 9 -2q11 -5 49.5 -6.5t49.5 2.5q2 1 12 3q59 9 66 24q3 6 3 68q-1 18 -6 14q-2 -1 -3 -4 q-2 -3 -10 -9t-11 -6q-2 0 -6 -2q-2 -2 -5 -2q-4 0 -9 -5q-5 -4 -12 -4q-6 0 -8 -2q-4 -2 -6 -2q-1 0 -3 -1h-3q-4 -2 -25.5 -2.5t-24.5 1.5q-2 2 -9 2q-13 0 -34.5 8t-32.5 17q-2 1 -5.5 3.5t-4.5 2.5q-4 2 -14 12t-14 16q-6 9 -9 13q-5 7 -5 9q0 3 -7 17q-2 4 -2 6 q0 3 -2 7t-2 10q0 7 -2 11q-2 3 -1.5 19t2.5 20q2 2 0 6q0 2 2 6t2 6t2 6t2 6q0 3 3 6t3 7q0 2 4 8q4 4 10 14q13 20 27 27q4 2 12 8t11 6t6 3q11 7 25 9q7 0 13 2q32 9 70 -2q10 -3 26.5 -11.5t19.5 -12.5q5 -5 8 -5t3 -1q0 -7 8 -5q11 3 9 20q-2 8 -2 21v21q0 8 1 10 q4 5 2 11t-7 6q-1 0 -7 4l-8 4q-4 0 -8 4q-4 3 -18 6q-4 0 -6 2q-4 2 -33 8q-9 1 -31.5 2t-23.5 0q-2 -2 -34 -7z" />
<glyph unicode="d" horiz-adv-x="463" d="M399 673q-1 -1 -5 -1t-6 -1t-7 -2t-7 -1q-18 -1 -24.5 -3.5t-5.5 -7.5q1 -2 1 -36q2 -34 2 -35q2 -2 1 -17v-73q0 -57 -2 -59q-2 -5 -18 3q-14 5 -30 7q-13 0 -15 2q-4 2 -26.5 1t-34.5 -3q-16 -4 -19 -4q-6 -2 -8 -3q-3 -2 -4 -1q-3 0 -7 -2q-4 -3 -8 -3l-4 -1 q0 -1 -16 -9t-19 -11l-12 -9q-9 -5 -27 -23t-18 -22q0 -1 -7 -10q-4 -4 -8 -12q0 -4 -5 -9q-4 -6 -4 -9t-1 -4q-3 -3 -4 -7q-1 -3 -4 -9q-2 -4 -2 -10q-3 -10 -3 -11q-5 -11 -7 -57q0 -21 4 -37q2 -8 2 -11l1 -4q2 -2 2 -4q0 -3 3 -8q2 -6 2 -7q0 -3 2 -5q3 -6 3 -7 q0 -2 2 -6q4 -2 4 -8q2 -6 4 -8q2 -1 6 -9q5 -10 10 -15q25 -30 30 -33q4 -1 12 -9q12 -9 17 -12t14 -9q4 -4 8 -4q2 0 8 -4t7 -3l6 -2q5 -3 12 -5q1 0 4 -1t5 -1.5t3 -0.5l9 -2q9 -1 17 -3q4 -1 29 -1l25 -2q4 -1 35 -1t42 1q10 2 12 0h3q4 0 9.5 -0.5t10.5 -0.5 q21 1 24.5 3.5t3.5 16.5q0 35 2 37q0 7 -1 15q-2 21 -3 208.5t0 226.5q1 5 1 12q-1 13 0 64t2 55q0 7 -1 9q-3 4 -1 10q2 15 -3 18q-3 2 -12 1q-8 -2 -11 -2zM302 364q3 -1 10 -1t19.5 -7t14.5 -12q2 -7 4 -228v-11.5v-10t-0.5 -8t-0.5 -5.5v-2q-2 -2 -43 -2.5t-50 1.5 q-2 1 -8 2t-8 1q-8 0 -12 2q-3 3 -10 3q-8 1 -37 17q-9 4 -23 18.5t-19 23.5q-4 8 -8 12q-2 2 -2 5t-3 6q-2 4 -2 6q0 3 -5 16t-3.5 43.5t6.5 35.5q2 2 2 4q0 3 8 19q9 18 26 35q14 15 21 19q6 3 12 7q5 4 11 5q6 2 6 3q2 2 4 2q4 0 6 1q13 7 42 6q26 0 32 -2l4 -2 q4 -1 6 -2z" />
<glyph unicode="e" horiz-adv-x="443" d="M203 448q-18 -2 -20 -3q-1 0 -5 -1t-5 -2q-9 -3 -14 -5q-6 -1 -11 -4q-2 -2 -6 -2q-6 -3 -8 -5q-1 -1 -7.5 -5.5t-9.5 -6.5q-11 -8 -25 -22.5t-14 -18.5q0 -2 -4 -6t-8 -12q-1 -1 -3.5 -6t-3.5 -6q-3 -5 -5 -12q-2 -6 -5 -13q-8 -20 -8 -28l-1 -2v-5q-4 -12 -6 -45t1 -37 q1 -1 3 -9q0 -4 3 -16q4 -8 4 -12q1 -2 2 -6t1 -5t1 -5t2 -5q0 -3 4 -9l3 -6q0 -3 3 -6q0 -1 2.5 -5t3.5 -6q3 -5 12 -17q8 -10 8 -12q0 -4 30 -29q1 -1 4 -2.5t6 -3.5t5 -4q9 -7 14 -9q6 -2 9 -5q4 -2 5 -2q2 0 8 -4q7 -6 20 -7l6 -3q2 -2 6 -2q5 0 7 -2q4 -2 10 -2t10 -2 q3 -2 31.5 -1.5t36.5 2.5l16 4q9 2 10 3q1 0 7 2q5 0 5 2q1 1 4 1t8 3q3 3 7 3t16 7q14 7 16 7q3 0 11 8q2 2 7 6l4 4q3 2 4 40q0 40 -3 40q-2 0 -7 -5q-4 -4 -21.5 -13.5t-20.5 -9.5q-1 0 -3 -2q-8 -10 -31 -12q-10 0 -14 -2t-7 -2q-2 0 -4 -2q-5 -6 -36.5 -5.5t-47.5 7.5 q-22 7 -47 25t-28 28q-4 9 -6 11q-5 7 -5 9t-1 3q-4 2 -8.5 24t-4.5 41q0 13 1 15t6 2q1 0 4.5 0.5t4.5 1.5q10 2 95 3h22.5t20.5 0.5t16 0.5h11h5h24h79l5 1v14q0 17 -1 22q-1 2 -2 8t-1 8q0 7 -4 15t-4 12q-2 6 -4 7l-2 4q0 10 -26 40t-43 38q-1 1 -3.5 2.5l-5 3t-3.5 2.5 q-7 5 -9 5t-4 1q-3 3 -7 3q-3 0 -7 2q-7 5 -28 5q-3 0 -7.5 0.5t-7 1t-3.5 0.5q-4 1 -9.5 1.5t-7.5 -0.5q-2 -2 -17 -2zM271 368q5 0 19 -14q3 -3 9 -7q5 -4 13 -14.5t8 -12.5t2 -4t2 -7.5t-3 -6.5q-15 -3 -173 -3q-15 1 -17 2.5t2 11.5q3 8 19.5 28.5t20.5 21.5q1 0 4 2 t5 3q5 3 10 5q1 0 3 0.5t5.5 1.5t5.5 1q11 2 11 3q2 2 18 0t23 -6q10 -5 13 -5z" />
<glyph unicode="f" horiz-adv-x="325" d="M243 683q-18 -1 -36 -9q-5 -3 -8 -3t-3 -2q-2 -2 -10 -5q-7 -3 -13 -9q-4 -4 -6 -4q-5 0 -23.5 -22t-21.5 -32q-3 -6 -4 -7q-4 -2 -2 -5q0 -2 -2 -8q-3 -5 -3 -8q0 -4 -2 -4l-1 -1v-3q0 -3 -2 -9q-3 -9 -3 -18q0 -12 -2 -16q-1 -1 -1 -5v-4q-1 -4 -1 -6q-2 -10 -2 -27v-9 q-2 -18 -5 -19h-2q-8 0 -10 1q-4 1 -7 0l-22 -2q-20 0 -21 -1q-2 -2 -0.5 -37.5t3.5 -37.5q2 -1 38 -1q21 0 23 -5q2 -3 4 -86q0 -56 2 -58q1 -2 1 -8.5t-1 -7.5t-1 -23.5t2 -28.5l1 -13v-24q-1 -16 -1 -34v-63q-1 -15 2.5 -16.5t32.5 -2.5q35 0 40 3t4 24q0 7 -0.5 24 t-1 47.5t-0.5 53.5q0 18 1 19q2 2 2.5 8t-1.5 8q-1 2 -2 18t0 25v82q-1 47 0.5 52t16.5 5q3 0 13.5 0.5t15.5 0.5q8 1 21 1q12 0 18 -1l12 -1l2 6q4 11 1 41q0 1 -0.5 8t-0.5 11q0 12 -2 13.5t-18 1.5q-5 0 -17 0.5t-16 0.5q-23 0 -31 -1q-14 0 -15 1q-2 1 -1.5 22.5 t2.5 32.5q2 12 1 13q0 1 2 5t2 9q0 15 7 23q5 7 6 11q4 10 18 20t25 12q10 1 18.5 2t12.5 1t5 -1l2 -1q2 0 4 -0.5t4 -0.5q12 0 22 -5q13 -6 16 -6q2 0 7 -3q6 -5 7 3q1 5 1 35t-1.5 36.5t-7.5 6.5q-2 0 -6 2q-3 3 -7 3q-2 0 -6 2q-2 2 -8 4q-3 0 -9 2q-18 4 -28 5h-10 q-6 -1 -13 -1z" />
<glyph unicode="g" horiz-adv-x="473" d="M292 451q-83 0 -98 -3q-26 -6 -34 -11q-4 -2 -6 -2q-4 0 -6 -2q-1 -1 -7 -4q-3 0 -13 -8q-8 -8 -11 -8q-5 0 -27 -29.5t-22 -36.5q0 -2 -2 -4t-2 -5q0 -2 -2 -8q-2 -2 -2 -5q1 -1 -1 -8q-2 -6 -2.5 -31.5t1.5 -28.5q2 -4 2 -11q2 -9 3 -10q2 -4 2 -7t2 -5q1 -1 3 -5 q0 -3 4 -9l6 -12q3 -6 25.5 -28.5t28.5 -25.5q14 -7 8 -11q-1 -1 -5 -1q-2 0 -28 -22q-4 -3 -9 -10q-4 -6 -11 -13q-16 -19 -16 -46q0 -20 2 -22q1 -1 1 -5q0 -3 2 -7t2 -7t5 -8q3 -3 6 -9q1 -5 14 -18t20 -16q4 -2 5 -5t-1.5 -5t-7.5 -2q-3 0 -15 -6.5t-17 -10.5 q-5 -7 -11 -9q-5 -3 -12.5 -10.5t-7.5 -8.5q0 -2 -3 -5q-2 -2 -4 -6q-2 -6 -5 -9q-3 -4 -3 -6q-1 -2 -2 -3q-5 -7 -10 -26q0 -2 -1 -5q-2 -5 -2 -6q-1 -4 -1 -21t2 -22q2 -6 2 -10q0 -3 2 -5q1 0 5 -9t7 -11q2 -2 2 -4t5 -7l6 -7q0 -2 12 -14t17 -14q6 -2 10 -6q3 -2 13 -7 l22 -11q6 -3 21 -8q1 0 4 -1t7 -2t7 -2q16 -4 19 -4q1 0 4.5 -0.5t4.5 -1.5q5 -3 41.5 -1.5t43.5 5.5q2 2 5 2q1 -1 5 1t10 2q19 3 23 7q2 2 4 2q5 0 16 6q14 6 15 6q3 0 21.5 15.5t22.5 22.5q6 9 9 12q18 23 25 48q1 4 2.5 19.5t0.5 17.5l-1 2v5.5v6.5q0 13 -2 15 q-3 3 -3 11q-1 8 -4 11t-6 9t-19 22.5t-20 17.5q-5 2 -12 7q-6 5 -11 7q-3 0 -10 5q-5 5 -9 5q-2 0 -6 2q-2 2 -5 2q-1 0 -9 4q-6 3 -9 3q-2 0 -5 3q-2 2 -6 2q-5 0 -5 1t-5 1q-4 0 -6 3q-4 2 -7 2q-5 0 -6 1q-2 2 -9 2q-9 2 -10 3q-4 2 -8 2q-4 2 -9 2l-10 5q-6 4 -7 4 q-2 0 -20 9q-8 4 -11 4q-3 1 -15 12t-14 15q-3 6 -4.5 19.5t0.5 17.5t2 6q0 3 10.5 14t16.5 13q1 1 5 3t5 3q3 3 7 3q3 0 7 4q5 3 7 3t6 2q5 2 23 4q4 2 9 2q1 0 4.5 2t4.5 2h5l2 1q12 3 20 9l8 4q5 0 11 6q2 2 11 8q5 2 14.5 12t14.5 18q1 1 3 4t3.5 5t2.5 3q2 3 5 9 q0 1 5 9q4 8 4 9q0 4 1 6q4 7 6 20q2 10 3 11q3 5 1 29.5t-6 35.5q-1 1 -1 3.5t-1 3.5q0 7 -6 17q-2 6 -2 7l-3 6q-6 7 -1 7q1 0 7 0.5t17 0.5h22q16 1 19.5 6t-0.5 23q-1 4 -1 26q0 11 -0.5 14.5t-2.5 6.5t-4 3h-8q-1 0 -6 0.5t-7 0.5q-9 2 -25.5 2t-18.5 -1q-1 -1 -67 -2z M297 333q0 -4 4 -8q3 -3 3 -7q0 -1 6 -17q3 -9 -1 -30.5t-11 -29.5q0 -1 -3 -5t-4 -6q-15 -19 -38 -29q-12 -5 -35 -4.5t-29 5.5q-4 2 -6 2q-8 0 -33 27q-11 14 -13 26q-1 1 -2 4t-1 4q-4 5 -2 27t6 26q1 1 1 4q0 7 15.5 23t26.5 21q13 5 15 5t6 2q3 1 16.5 1t20.5 -1 q19 -5 37.5 -17.5t20.5 -22.5zM272 -99q4 -2 7 -2q5 0 21 -8l2 -1q2 -1 4.5 -2.5t4.5 -2.5q8 -4 22 -17.5t16 -19.5q0 -1 2 -7l3 -9q4 -9 2 -13v-3q-1 -4 -1 -6q0 -6 -2 -10q-3 -5 -4 -12q-1 -8 -10.5 -18.5t-18.5 -14.5q-3 -1 -9 -4q-3 -3 -6 -3t-7 -3q-13 -5 -28 -8 q-23 -5 -30 -3q-8 2 -15 2q-27 0 -55 12q-2 1 -7 1l-6 3q-3 3 -9 5q-4 1 -10.5 7t-8.5 11q-1 2 -6 10q-5 5 -5 8q0 1 -2 11q-4 16 0 28q4 10 4 13q2 9 5 12q5 5 5 9q2 4 6 6q5 3 5 4q0 2 16 10.5t20 8.5q1 0 5 2t5 2q2 -2 5 1q2 1 12 3q8 0 10 2q2 1 21 0.5t26 -1.5 q8 -2 11 -3z" />
<glyph unicode="h" horiz-adv-x="446" d="M110 677q-2 0 -6 -0.5t-5 -0.5q-2 -1 -18 -3q-22 -2 -28 -3q-4 -1 -5.5 -23.5t2.5 -29.5q1 -3 0 -25q-3 -22 0 -33q2 -10 0 -17q-2 -10 0 -114v-29v-20v-31q0 -11 0.5 -53t0.5 -51v-62q0 -158 1 -165q1 -10 4 -12t15 -3q12 0 14 -2q2 -1 19.5 -0.5t19.5 1.5q2 2 6 2 q5 0 7.5 7.5t-0.5 13.5q-1 1 -3 139v43.5v39.5t-0.5 31t-0.5 22v9q0 7 2 9q6 6 8 10q6 8 7 8l2 3l4 4q7 7 11 9q6 6 12 10q5 5 13 9t9 5q4 2 11 2q2 0 7 0.5t7 1.5q5 1 15 1t12 -2q1 -1 5 -1q8 0 24 -13t20 -22q2 -6 5 -9q3 -6 4 -9q2 -6 4 -8t2 -4q0 -5 6 -26q2 -4 2 -17 q0 -5 0.5 -12t0.5 -9q3 -43 1 -51v-13q1 -3 1 -39q1 -78 0 -117l-1 -24l4 -2q4 -2 27 1h15q22 -6 33 3l4 3v114q0 165 -3 181q0 2 -1 7t-2 7q0 6 -2 12q-2 5 -4 16q-1 8 -5 16q-1 1 -3 7t-9 13q-6 8 -6 9q0 2 -10.5 14t-12.5 12l-22 14q-11 9 -20 9q-3 0 -5 2t-6 2h-3 q-2 1 -3 1q-5 3 -28 3.5t-28 -2.5q-11 -4 -13 -4q-9 -2 -17 -5q-7 -4 -12 -4q-3 0 -10 -7q-8 -6 -10 -6q-5 0 -28 -23q-11 -12 -12 -7q-1 3 -1.5 54.5t0.5 58.5q1 4 1 52q0 120 -2 121q-1 1 -7.5 2t-7.5 0t-8 -1z" />
<glyph unicode="i" d="M53 584q-1 -1 -1.5 -5t-0.5 -5q-2 -11 3 -22t15 -15q7 -5 8 -6q7 -7 14 -3q1 1 4.5 1.5t5.5 0.5q20 1 32 17q10 14 7 30q-1 2 -1 9q0 9 -10 17q-12 10 -14 8q-5 0 -9 1q-4 2 -21 2h-14l-5 -5q-11 -11 -13 -25zM50 377q1 -124 1 -170v-47q0 -34 -1 -42q0 -18 1 -23 q0 -3 0.5 -10t1 -18t0.5 -19q0 -42 7 -43q9 -4 52 0q20 2 22.5 7t2.5 38q-1 36 -1 120q0 92 -2 222q0 43 1 47q1 10 -3.5 14t-15.5 3q-4 -1 -10 -1q-48 1 -51 0q-5 -2 -5 -78z" />
<glyph unicode="j" horiz-adv-x="186" d="M56 558q1 -5 6.5 -11.5t9.5 -6.5q2 0 6 -2q11 -8 30 1.5t22 23.5q1 2 2 7t1 6q3 14 -3.5 25t-20.5 14q-10 3 -11 3q-9 3 -19 -3q-29 -19 -23 -57zM55 412q1 -69 2 -219t0 -200v-55q0 -29 -1 -32q-2 -4 -2 -22q0 -22 -5 -36q-2 -6 -9 -19q-12 -19 -20 -22q-2 0 -8 -4 q-12 -9 -26 -9q-24 0 -9 -16q7 -7 7 -9q2 -4 34 -38q12 -13 17 -15t12 2q1 1 5 3t5 3q10 5 14 8q2 2 5.5 4.5t4.5 3.5q13 6 19 19q6 9 7 10q7 8 15 27t8 28q0 8 1 10q2 2 5 57q0 3 0.5 19t1 48.5t0.5 54.5v112v36q0 4 -3 204q0 6 0.5 18.5t0.5 16.5q3 56 -2 56q-1 0 -3 -1 q-4 -2 -18 -1h-28q-3 0 -11 0.5t-10 1.5q-8 0 -9 -1v-43z" />
<glyph unicode="k" horiz-adv-x="488" d="M83 676q-4 0 -5 -1q0 -2 -5 -2q-17 -3 -20.5 -5.5t-2.5 -12.5q1 -14 0 -41q0 -21 1 -22q2 -4 2 -42q2 -100 2 -155q0 -371 -1 -382q0 -12 1 -14t8 -1q6 2 32 2q45 -1 44 11q0 1 -1 3q-2 4 -1 11q1 10 0 97q-1 42 -1 198v130v25q0 45 1 79q0 60 2 66q2 4 -2 12q-4 6 -2 18 v12q0 1 2 7q3 6 0 8t-13 1q-13 -1 -26 0q-7 2 -9 0q-4 -2 -6 -2zM397 451q-1 1 -9 1q-3 0 -54 -3q-5 0 -9 -4q-70 -71 -70 -77q-5 -7 -11 -14q-16 -18 -22 -28q-15 -20 -28 -33q-5 -5 -9 -11q-6 -9 -23 -26q-21 -21 -22.5 -27.5t14.5 -16.5q18 -13 44 -43q24 -28 73 -77 q84 -83 87 -84q2 -1 6 -5q2 -5 9 -4q15 3 68 3q20 0 23 3q2 2 2 5t-2 3q-3 0 -27 26q-11 14 -85 86q-76 76 -82 86q-9 12 -13 16q-7 7 -7 11q0 5 28 35q12 12 21 24q14 18 43 48q58 60 71 74q7 9 15 15q11 12 7 15q-2 0 -6 2q-5 4 -8 2q-1 -1 -12 -2t-12 0z" />
<glyph unicode="l" horiz-adv-x="182" d="M107 673q-7 0 -9 -1q-2 -2 -14 -2q-11 0 -14 -3q-4 -2 -11 -2l-8 -1v-5q-2 -10 0 -113q0 -11 -1 -22q-4 -71 0 -80q1 -2 1.5 -32.5t0.5 -67.5v-70v-113q0 -24 -1 -25q-1 -2 -1 -61t2 -68q3 -7 4 -7h13q62 -1 64 7q3 14 1 21q-1 5 -3 321q0 42 -0.5 118t-0.5 92 q-1 80 -0.5 93.5t6.5 18.5t-4 6q-6 0 -12 -2q-8 -2 -13 -2z" />
<glyph unicode="m" horiz-adv-x="736" d="M90 447q-6 -1 -18 -4q-8 -2 -11 -2q-6 0 -7 -5t-2 -35v-39q0 -112 2 -172v-11v-10t0.5 -8t0.5 -6v-2v-25q-1 -124 2 -127q2 -2 4.5 -2t3.5 1q2 2 10 3t14 0q12 -1 22 1q5 0 9 -3q7 -5 12 1q1 2 1 23.5t-2 29.5q-1 4 -2 64.5t0 97.5v8v44v40l4 8q6 11 23 28.5t24 19.5 q6 2 8 4q6 6 16 6q4 0 8 2q3 2 19.5 2t19.5 -2q4 -2 9 -2q24 -4 41 -28l6 -9q7 -10 9 -26q0 -2 1 -7t2 -7q2 -6 2 -28q0 -7 0.5 -17.5t0.5 -11.5q2 -7 1 -88q0 -128 3 -134q0 -4 -2 -7q-2 -5 1.5 -7.5t11.5 -1.5q17 2 47 1q10 -1 15 1q3 3 5 1q2 -1 4 3q5 15 0 29 q-2 5 -1 21q2 17 0 20q0 7 1 12q1 8 0 11q-2 2 -1 8q2 6 1 9t-1 7q1 1 1 8q-2 23 0 25v27q0 28 2 32q2 5 0 7t-1 9q0 6 -2 14q-2 10 0 53q0 17 4 21q3 5 5 10q2 4 14 16t16 14q5 2 12 7q6 5 18 8q8 1 16 4q41 12 72 -19q12 -12 12 -16t2 -6q2 -3 7 -15.5t4 -14.5q-1 -1 1 -5 t2 -21q0 -19 2 -23v-3l1 -3q0 -20 1 -41q0 -7 0.5 -51t0.5 -70l1 -82l3 -3q4 -3 40.5 -2t40.5 4q6 6 1 17q-1 5 -1.5 48.5t0.5 51.5q1 4 1 16q0 45 -2 91q0 7 -0.5 26t-0.5 26q-1 35 -3 37q-2 4 -2 15q0 3 -2 7q-2 2 -2 5v3q-3 6 -3 7q-3 13 -10 22l-4 6q0 4 -13.5 18 t-17.5 14q-1 0 -8 5q-17 14 -37 19q-30 6 -37 5q-5 -2 -7 0q-3 1 -6 0q-1 0 -15 -2q-23 -2 -31 -7l-9 -3q-4 -1 -11 -6q-2 -1 -6 -3.5t-5 -3.5q-14 -5 -47 -43q-5 -6 -7.5 -8t-4.5 -2.5t-3.5 1.5t-3.5 7q0 4 -5 9q-3 3 -7 11q-7 13 -27 28q-13 8 -16 10q-5 4 -14 6 q-11 2 -22 6q-17 6 -51 1q-45 -6 -76 -35q-13 -11 -15 -12q-5 -3 -5 -5t-5.5 -7t-7.5 -4q-3 1 -3 26.5t2 29.5q6 10 -10 10q-6 0 -14 -2q-1 0 -8 -1.5t-11 -2.5z" />
<glyph unicode="n" horiz-adv-x="457" d="M247 449q-15 -1 -23 -6q-6 -2 -7 -2q-8 0 -25 -14q-6 -4 -7 -4q-3 0 -24 -19q-2 -1 -6.5 -4.5t-6.5 -4.5q-6 -4 -8 -6q-6 -6 -6 1v19v13q2 2 2 14t-2 14q-5 3 -42 -4q-7 -1 -8.5 -1h-4.5t-4 -2q-2 -1 -12 -3q-10 -1 -11.5 -5t-1.5 -33q0 -35 1 -36q1 -2 1 -10 q-1 -11 -1 -36t1 -27l2 -18v-96q0 -41 1 -73q0 -19 0.5 -48t0.5 -32q0 -19 2.5 -21t21.5 -3q48 -2 55.5 1t4.5 23q-5 65 -3 112v101q-1 22 -1 61l1 20l4 6q14 19 28 29q2 1 6 4t5 4q4 4 7 4q4 0 7 3q6 4 8 4t6 2q6 4 22.5 5.5t22.5 -1.5q4 -2 7 -2q4 0 6 -2q4 -2 5 -2 q3 0 10 -5t10 -9q1 -1 4.5 -5t5.5 -6q16 -19 17 -41q0 -8 1 -9q1 -2 3 -23q1 -23 0 -42q0 -15 1 -17q2 -2 3 -23q0 -31 1 -44v-48q0 -13 1 -21q0 -4 0.5 -11t0.5 -9q0 -5 -1 -20t-1 -18q-1 -9 6.5 -11.5t29.5 -1.5h25h20l1 4q1 2 1 5q1 1 -1 9q-5 29 -1 38q2 2 0.5 12 t-0.5 12q3 5 -1 56v20v23v32q1 14 0.5 40.5t-1.5 31.5l-0.5 7t-0.5 12q0 15 -2 19t-2 12t-2 14q-2 4 -2 7l-1 3t-2 4q-4 6 -4 8q0 4 -5 9q-3 3 -9 12q-5 11 -21 22q-4 2 -13 8q-8 7 -30 14q-10 2 -12 4q-4 2 -10 2q-8 0 -10 1q-5 3 -19 1q-4 -1 -14 -3z" />
<glyph unicode="o" horiz-adv-x="516" d="M202 442q-4 -2 -7 -2t-7 -2q-26 -9 -28 -11q0 -1 -3 -1l-1 -1l-4 -2l-4 -2q-7 -5 -8 -5t-13 -8q-2 -2 -8 -6t-7 -5q-5 -4 -16 -15.5t-15 -17.5q-1 -2 -5 -6.5t-5 -6.5q-5 -5 -9 -13l-5 -10q-9 -17 -12 -26q-3 -6 -3 -10l-1 -4q-2 -2 -2 -9q-2 -9 -3 -10q-4 -16 -4 -45 q0 -13 4 -37q2 -21 6 -25q2 -5 7 -20q2 -7 4 -8q2 -2 2 -4q0 -5 3 -8q5 -7 6 -11q6 -9 8 -11q1 -1 6 -7.5t8 -10.5q22 -28 37 -36q3 -1 13 -9q8 -6 10 -6q3 0 9 -4q5 -5 7 -5q3 0 9 -3q11 -6 19 -6q4 0 5 -3q2 -2 5 -2t9 -2q4 -2 5 -1l12 -2q10 -2 35 -2.5t30 1.5q1 0 11 3 q7 0 11 2q1 1 11 3q18 6 22 8t7 2q4 0 8 4t7 4q4 0 9 5q1 0 6.5 3.5t7.5 5.5q8 4 27 24t27 31l10 15q3 2 4 7l4 8q3 1 3 6v3l1 2q2 1 6 12.5t5 16.5q2 6 2 8q2 2 2 9q0 8 2 10q2 5 1 31t-3 39q-5 25 -7 28q-2 4 -1 4q0 3 -1 4q-3 6 -3 7q-3 6 -5 9q0 1 -1.5 4t-1.5 4 q0 3 -3 6q-5 4 -6 9q-2 5 -9 14t-7 10q0 2 -13.5 16t-21.5 19q-9 6 -17 12q-6 6 -9 6q-6 2 -10 6q-6 4 -8 4q-3 0 -21 9q-4 2 -7 2q-2 0 -6 2q-2 2 -6 2l-5 1q0 2 -11 2q-10 2 -10 3l-2 1h-3h-25h-31q-20 -2 -29 -6zM292 365q2 0 5 -1q4 -1 5 -1q0 -1 6 -3q5 -1 8 -4 q4 -2 7 -2q2 -1 14 -9q8 -7 13 -9q14 -9 20 -20q2 -5 9 -13q7 -7 7 -10q0 -2 4 -8q3 -5 3 -9q0 -3 2 -5q3 -3 3 -6q0 -5 1 -5q6 -6 3 -43.5t-10 -45.5q-1 -2 -1 -5q0 -4 -5 -9q0 -1 -3 -6t-4 -7q-4 -7 -19.5 -22t-23.5 -19q-19 -12 -33 -16l-6 -3q0 -1 -5 -1q-3 0 -15 -2 q-36 -6 -58 4q-4 2 -7 2q-2 0 -6 2q-2 2 -5 2t-8 3q-3 2 -9 5q-8 3 -26 21t-25 30q-10 20 -13 31q0 1 -1 4t-1.5 5t-0.5 3q-4 10 -2.5 38.5t6.5 39.5q2 4 2 6q0 3 3 6q0 1 1.5 4t1.5 4q2 7 18 26q3 3 3 4q0 2 25 21q13 9 14 9t7 4q9 5 29 10q13 3 14 3q5 1 22 1t20 -2 q2 -2 11 -2z" />
<glyph unicode="p" horiz-adv-x="462" d="M69 449q-20 0 -23 -1l-4 -2v-65q0 -74 -1 -87q-3 -74 -1 -76q4 -8 4 -236q1 -310 0 -316q-2 -7 4 -9t14 2q1 1 6.5 1.5t9.5 0.5h5q0 -1 1.5 -1t3.5 0.5t3 1.5q1 3 -1 4q-2 2 -1 3q2 0 7.5 1.5t10 2.5t5.5 1q3 0 9 4l7 4l-1 86v164q0 54 -1 64q0 14 1 16.5t9 -0.5 q58 -20 115 -6l10 2q1 -1 5 1t7 2q2 0 6 2q2 2 6 2q2 0 8 4q5 3 7 3q4 0 14 7q3 2 10 5.5l9 4.5q7 4 28 24.5t28 30.5q1 1 3 4t3.5 5t2.5 3t3 5t3 5q1 3 4 9l4 8q2 5 5 10l2 6q-1 0 1 4t2 8t2 6q2 0 2 5q0 4 2 10t2 12q0 5 2 17q1 10 -0.5 33.5t-3.5 28.5q-2 2 -2 6t-1 4 q-1 1 -1 4q0 7 -8 23q-2 4 -2 5q2 1 -2 5t-4 9q-4 8 -6 10q-4 4 -6 10q-3 6 -13 16q-13 13 -14 17l-4 4l-19 15q-17 15 -19 15q-1 0 -11 6q-8 6 -11 6q-1 0 -7 4q-4 3 -7 3t-5 2q-3 3 -6 3q-5 0 -7 1q-6 4 -35 6q-14 2 -19 2q-6 2 -48 2h-44q-1 1 -4.5 1.5t-4.5 -0.5 q0 -3 -49 -3zM243 367q20 -5 43 -19.5t32 -28.5q6 -10 11 -15q3 -3 6 -9q0 -2 4 -8q3 -5 3 -9t2 -4q1 -1 1 -5q0 -3 2 -7q3 -4 4 -31.5t-1 -34.5q-1 -2 -3 -10q-3 -9 -5 -12q-2 -6 -2 -7t-5 -8q-4 -6 -4 -8q0 -5 -23 -28t-29 -24q-8 -4 -9 -5q-4 -3 -8 -3q-2 0 -6 -2 q-16 -9 -52.5 -8t-57.5 10q-14 7 -17 12t-4 21q0 6 -2 22q0 21 1 32q4 48 1 52q-1 3 -1 14.5t1 13.5q1 1 1 8q-1 8 0 84q0 13 3 16.5t14 4.5t47.5 0.5t40.5 -1.5z" />
<glyph unicode="q" horiz-adv-x="488" d="M301 450q-36 0 -48 -2q-3 0 -8.5 -0.5t-12 -1.5t-10.5 -1q-25 -2 -33 -7q-3 -3 -6 -3t-4 -1q-1 0 -17 -8q-11 -5 -19 -10q-3 -4 -7 -4t-31 -27t-30 -34q-1 -2 -3 -5.5t-3 -5.5q-5 -5 -7 -11l-4 -8q-3 -3 -3 -7t-3 -7l-4 -8q0 -2 -4 -16q-15 -56 -2 -100q2 -8 2 -11t2 -5 t2 -7q0 -4 2 -6q2 -1 2 -5q0 -2 2 -6q2 -2 4 -8q1 -3 4 -9q3 -3 3 -6q0 -2 5 -9t7 -12q3 -6 29 -31.5t32 -28.5q7 -2 12 -7q6 -4 9 -4t5 -2t6 -4q9 -3 11 -4t8.5 -3t8.5 -3q4 0 4 -2q5 -3 35 -5q11 -1 37.5 -1t29.5 2l10 2q22 4 36 11q7 4 8 -6v-10v-71v-85q0 -8 -0.5 -26.5 t-0.5 -24.5q0 -118 3 -121q2 -2 2 -7q1 -4 6 -4.5t10 3.5q9 6 29 12q22 8 27.5 14t5.5 24q0 16 6 16q5 0 6 2t-1 3h-5q-3 0 -6 5t-3 12t2 15q1 8 0 14q-2 8 -2 21q0 2 0.5 21t0.5 31v18.5v15.5l1 6v9v30q0 27 -1 28q-2 6 -2 100v56v277v26v19q2 4 -0.5 6t-9.5 1q-9 -2 -34 1 q-8 1 -30 1.5t-23 -0.5h-3q-2 0 -5.5 -0.5t-8 -0.5h-10h-11.5zM352 364q3 -10 4 -74q0 -18 0.5 -51t0.5 -40q1 -17 1 -35q-1 -30 0 -40q1 -16 -9 -24q-8 -6 -23.5 -11t-18.5 -3q-2 2 -6 -2q-5 -3 -27.5 -3.5t-35.5 2.5q-21 5 -22 6q-2 2 -5 2q-8 0 -34.5 18.5t-26.5 24.5 q0 2 -3 5l-4 4q0 3 -4 6q-4 4 -4 6q0 1 -1.5 4t-1.5 4q-4 6 -4 9t-3 6q-2 4 -2 6q1 1 -1 5q-3 6 -3 11q0 3 -1 8v2q-5 7 0 39q4 14 4 16l3 9q3 3 3 7q0 2 4 8q0 1 2 4l1 3q0 3 5 8q9 12 10 13q4 6 13 13q2 1 8 6t8 7q6 6 8 6q3 0 15 5q12 6 15 6h3l2 1q3 5 38 8q7 0 11 2 q2 2 9 0h33q27 0 32.5 -1t6.5 -6z" />
<glyph unicode="r" horiz-adv-x="362" d="M239 454q-2 1 -9.5 -2t-9.5 -5t-10 -6q-8 -3 -28 -24t-31 -37q-13 -17 -14 -13q-2 4 -1 35q0 36 3 40q3 6 -0.5 9t-12.5 3q-11 0 -11 -2q-1 -1 -5 -1q-3 0 -9 -2t-10 -2q-6 0 -12 -3q-12 -3 -17 -4q-10 -2 -11 -3q-1 -2 -1 -152v-75t-0.5 -64t-0.5 -26q-1 -20 -1.5 -47.5 t0.5 -28.5q2 -2 2 -14q0 -4 0.5 -11t0.5 -9q0 -10 8 -11.5t51 -1.5h11q10 0 11 4.5t1 40.5q0 167 2 183q2 10 2 12q2 30 5 39q2 6 2 8l5 10q4 8 4 9q0 2 4 6q1 4 6 11q2 5 13.5 16.5t17.5 14.5q31 17 53 12q17 -3 36 -19q16 -13 24 -5q14 17 14 21l6 8q7 10 8 11q2 2 5.5 7 t6.5 10q7 8 5.5 12.5t-12.5 15.5q-15 14 -19 14q-2 0 -8 4q-5 5 -7 5q-4 0 -11 3q-8 4 -11 4q-4 0 -6 1q-4 2 -16 2t-16 -2q-3 -1 -7 -1z" />
<glyph unicode="s" horiz-adv-x="336" d="M136 468q-1 -1 -10 -3q-9 0 -11 -2t-6 -2q-2 0 -8 -4l-6 -3q-3 0 -15 -9.5t-14 -12.5q-1 -1 -5 -6t-7 -8q-9 -9 -11 -16l-4 -8q-2 -2 -2 -6q0 -2 -2 -6q-1 -2 -3 -14q0 -10 -2 -14t-0.5 -18t5.5 -18q3 -3 1 -5q-3 -6 6 -18q2 -4 2 -6q0 -4 6 -10q5 -5 5 -8q0 -2 8 -12 t9 -10t8 -5l6 -6l5 -3q5 -1 8 -5q5 -5 18 -11q2 -1 6 -5q1 0 4.5 -2.5t5.5 -3.5t12 -7q33 -26 38 -12q1 1 2 3q1 3 2 3t1 -2t-1 -4.5t-2 -3.5q-5 -5 6 -13q28 -21 28 -33q0 -3 3 -6q2 -4 2.5 -15t-1.5 -18q-5 -15 -8 -15l-4 -4q-2 -4 -11.5 -11t-13.5 -8q-5 -1 -27 -1t-28 2 q-28 8 -32 12q-4 2 -6 2q-4 0 -9 5q-10 7 -12 8q-13 7 -29 25q-13 13 -14 6q-1 -1 -1 -3v-11q-1 -3 -1 -39q-1 -31 2.5 -37t29.5 -18l4 -2t3.5 -2t3.5 -2l1 -1q3 -3 3 -1q4 0 12 -5q12 -6 16 -6l12 -3q23 -7 57 -8q38 0 56 8q7 5 7 3q2 0 4 1q1 1 4 2t4 1q3 1 24 21t23 24 q14 30 16 52q1 10 1 24.5t-2 17.5l-2 5q0 2 -3 10q-1 3 -2.5 8t-1.5 6q0 2 -5 9q-5 5 -5 6q0 4 -15 20.5t-19 16.5l-6 4q-11 10 -25 17q-8 5 -18 11q-17 10 -18 10q-16 8 -38.5 27t-23.5 26l-2 3q-1 4 -2 6q-3 6 -3 11q0 2 -1 5v3q-2 2 1 17q4 17 16 23q6 3 8 5q5 5 9 5 t18 4q22 3 46 -3l12 -3q6 -1 11 -4q3 -3 5 -3t13.5 -5.5t13.5 -7.5t9.5 -4.5t8.5 -1.5q0 18 1 38v38l-4 4q-4 4 -6 4q-3 0 -9 3q-12 6 -32 11q-4 0 -13 3q-13 5 -43 6q-32 0 -37 -1q-3 0 -8 -1h-2z" />
<glyph unicode="t" horiz-adv-x="356" d="M107 478q-6 -8 -20 -22q-63 -66 -65 -72v-4t3.5 -2t10 -1h19.5q33 0 34 -1q1 -2 1 -173q0 -65 1 -67q3 -6 3 -38q0 -4 2 -8t1 -5q0 -3 4 -7q4 -6 4 -8t10 -14t11 -14q2 -4 9 -9q2 -2 14 -11q5 -5 8 -5q5 -2 9 -4q10 -5 25 -10q4 -2 11 -2q9 -2 10 -3q4 -2 26.5 -1.5 t26.5 2.5t9 2t16.5 4.5t14.5 7.5q4 4 7 4q4 0 12.5 9t9.5 14q1 9 0 44t-2 36q-4 0 -11 -9q-9 -9 -15 -11q-2 -1 -10 -6q-6 -3 -7 -3q-11 0 -17 -6q0 -1 -7 -1q-2 0 -7.5 -0.5t-7.5 -0.5q-13 -3 -37 3q-7 2 -19 12.5t-13 16.5q0 2 -2 8q-3 6 -3 23q0 4 -0.5 9t-1 8t-0.5 4 q0 6 1 12q2 9 0 11q-4 6 -2 121q1 16 1 33q-1 24 4 28q7 4 67 5q59 1 62 3l4 2v35l-1 34l-12 1h-69h-55v9q-1 78 -6 79q-2 0 -8 -6q-10 -9 -53 -56z" />
<glyph unicode="u" horiz-adv-x="488" d="M109 447q-9 -5 -15 1q-3 2 -5 -1q-4 -6 -13 -6l-3 -1h-5q-6 -2 -9 -2q-6 -2 -8 -4l-3 -3l1 -73q0 -23 0.5 -59.5t0.5 -40.5q0 -31 1 -35q1 -7 0 -12q-2 -5 0 -11q2 -8 2 -22q0 -13 2 -21q1 -2 2 -7t1 -6l4 -16q1 -5 1 -11q-1 -1 3 -6q3 -5 3 -8t3 -8l2 -5q-1 0 0 -2 t3.5 -5.5t4.5 -6.5l5 -6q0 -3 13.5 -17t16.5 -14t8 -5q3 -2 10 -9q13 -11 29 -14l12 -4q11 -5 43 -5q33 0 42 5q5 3 9 3q3 0 5 2t6 2t10 6q7 5 9 5q3 0 8 5q1 1 5.5 4.5t6.5 4.5q7 5 10 11q4 5 9 10.5t9.5 8.5t4.5 2q2 -2 2 -47v-19l3 -5l4 -4l10 2q12 2 21 5q8 1 16 4 q4 2 7 2q12 5 17 5q9 0 9 25q-1 11 -1 23v15v22v5t-0.5 4.5t-0.5 3.5v1q-3 3 -3 161q-2 98 -2 100q-1 5 -1 18q4 43 -1 49.5t-37 0.5q-42 -7 -43 -12t-0.5 -37t2.5 -35q1 -4 0 -8q-1 -2 -1 -13q1 -14 1 -21v-33q1 -31 0 -64q0 -39 -1 -52v-22l-5 -9q-26 -44 -56 -59 q-6 -2 -8 -4q-8 -4 -15 -4q-3 0 -7 -2q-5 -3 -26.5 -3t-33.5 3q-21 6 -44 41q-11 20 -11 26q0 2 -3 14q-8 21 -8 31l1 3v6q0 10 -1 14t-3 47q0 39 -2 51q-1 9 -0.5 39.5t1.5 31.5t0.5 19t-1.5 20q-2 2 -1.5 14.5t2.5 16.5q2 6 -0.5 7.5t-12.5 0.5q-9 0 -11 -2z" />
<glyph unicode="v" horiz-adv-x="466" d="M389 451h-37q-3 -4 -5 -8q-1 -3 -5 -12l-3 -9q-1 -3 -4 -9q-15 -30 -15 -33q0 -1 -4 -7t-4 -7q0 -4 -6 -15q-6 -14 -9 -23q-1 -2 -2 -5t-2 -5t-1 -3l-2 -6q0 -1 -1 -2q-2 -2 -2 -3q-2 -2 -6 -14q-3 -10 -17 -42q-4 -6 -4 -8t-3 -7q-2 -4 -2 -6l-3 -6q-3 -3 -3 -6t-3 -8 l-6 -15l-3 -9q-2 1 -6 7t-5 9q-2 4 -5 7q-3 6 -3 7q0 4 -3 7q-2 4 -2 6q0 4 -4 8q-3 4 -3 9q0 2 -2 6q-3 1 -3 5q0 2 -2 6q-2 2 -2 5q0 9 -11 24q-1 1 -1 5t-2 6l-3 6q0 2 -3 7q-4 6 -4 9q0 4 -2 6q-2 4 -2 6t-2 6q-2 2 -2 6q0 3 -4 7l-4 8q0 1 -3 7q-3 3 -3 5l-1 1 q0 2 -1 4t-1 4q-2 2 -7 16l-6 12q-2 4 -2 7q0 4 -2 6t-2 6t-2 4q-1 0 -2.5 3t-2.5 6l-1 3q0 1 -1 3q-2 3 -6 3h-39q-55 1 -55 -4q0 -2 7 -6q6 -4 6 -8q0 -5 2 -5l1 -2q0 -1 1 -2.5t1 -3.5l5 -10q3 -3 3 -5v-1l2 -4t1 -4q4 -8 4 -9q0 -2 4 -6q4 -6 4 -8q0 -4 3 -7q2 -4 1 -4 q0 -3 2 -6q3 -6 4 -9q3 -6 5 -8q2 -4 2 -7t4 -7q3 -5 3 -8q0 -4 2 -4q0 -1 1 -3q0 -6 9 -22q4 -6 4 -9q0 -2 2 -6q3 -3 3 -7q0 -3 4 -9q3 -5 3 -7t2 -6q4 -8 6 -13q2 -3 5.5 -11.5t5.5 -11.5q6 -14 6 -15t1 -2q2 -2 2 -3q3 -1 5 -8t5 -10l3 -6q0 -2 3 -7q2 -4 2 -6 q0 -3 4 -7q3 -4 3 -9q0 -4 2 -6q3 -1 3 -4q1 -5 4 -9q4 -10 4 -11q0 -2 2 -4t2 -5l1 -4q3 -3 4 -8q2 -8 4 -10t2 -6q0 -3 3 -6q2 -2 2 -5t3 -8q4 -4 4 -7q5 -19 14 -26q4 -6 4 -8q0 -3 3.5 -6.5t5.5 -2.5q2 2 8 0q8 -2 17 14q10 16 13 28q0 5 3 9t3 7q0 7 10 20q3 6 3 7 q0 5 2 6q2 4 2 7q0 2 2 6q2 2 2 6q0 3 2 5q2 4 2 6q0 4 3 7l4 8q0 5 2 7q2 0 2 6q0 4 2 6q2 1 4 7q1 3 4 9q3 4 3 8l1 3q1 1 3 7q2 7 5 9q2 2 2 6t2 6q2 4 2 6t5 9q4 6 4 8q0 3 9 20q2 4 2 6q0 3 3 6q2 4 4 10q2 8 3 8q3 3 3 5q0 5 1 7t4 10q5 14 8 17q2 4 2 6q0 1 1.5 4 t1.5 4q4 6 4 9q0 11 6 17q2 2 2 5l1 2q1 3 3 7t3 7q7 12 7 15l3 6q3 3 3 6q0 1 1 3l2 4q4 8 4 9t3 7q2 2 7 12l2 7l-5 2q-6 2 -11 0z" />
<glyph unicode="w" horiz-adv-x="726" d="M353 454q14 1 26 -1q5 -1 9 -4.5t4 -6t3.5 -9t3.5 -8.5t3 -6.5t6 -10.5q3 -12 9 -23q5 -9 17 -36q4 -10 6.5 -14t4.5 -10q6 -17 19 -45l8 -16q21 -38 21 -41q0 -7 14 -34q2 -3 3 -4q2 0 9 18q3 9 9 22t7 16.5t2 5t4.5 11t4.5 11.5t3 7q5 19 16 40q3 6 4 13q3 10 6 13 q1 2 1.5 5.5t5.5 14t5.5 12.5t1.5 4t3 8.5t4 9.5t2 4.5t6 14t7.5 17t4.5 11.5t8 8q7 4 43.5 4.5t42.5 -2.5q7 -4 0.5 -11.5t-10.5 -19.5q-7 -25 -22 -54q-6 -13 -6.5 -15.5t-3.5 -9l-6 -13t-7 -14.5t-5 -12q-3 -11 -8 -18q-4 -5 -4 -6t-5 -12.5t-8 -14.5q-2 -3 -2 -5t-2 -6 t-2 -7t-3 -7.5t-5.5 -13t-5 -12t-3.5 -7.5t-4 -9t-3 -7t-2 -5.5t-2 -5.5t-3.5 -8t-3.5 -8t-2.5 -6.5t-3.5 -7.5t-3 -7.5t-3 -8t-2.5 -5t-2.5 -5.5t-4 -8.5t-3 -6.5t-2 -5.5t-2 -5.5t-1.5 -6t-2.5 -7q-1 -6 -11 -23q-2 -4 -2 -6t-1.5 -6t-3 -11t-4 -11t-2.5 -6q0 -6 -7 -9 t-16 0q-12 5 -14 14q-2 13 -7 19q-3 5 -5 10.5t-4 10t-5 13.5q-5 15 -11 23q-2 3 -3 7q-2 8 -9 20q-2 5 -2 7t-6 13.5t-6 13.5t-3.5 8.5t-3.5 8.5t-1.5 2.5t-6 11t-5.5 13.5t-2.5 6t-1.5 5t-2.5 5.5t-3.5 6.5t-11 23q-4 8 -5 10.5t-9.5 20.5t-10 23t-5.5 9l-4 5l-4 -4 q-3 -3 -6.5 -12.5t-7.5 -17.5q-7 -15 -11 -28q-1 -4 -2.5 -7.5t-1.5 -6.5q0 -6 -8 -19q-3 -5 -3 -7q0 -4 -8 -18q-3 -7 -4.5 -11t-2.5 -6t-1.5 -6.5t-4 -12.5t-3.5 -10t-3.5 -9.5t-5.5 -14.5t-4 -10t-4 -8q-2 -8 -5 -16q-2 -4 -2 -6t-2.5 -7t-6 -15.5t-5 -13t-1.5 -5t-4 -8 t-5 -10.5q-1 -10 -8 -16q-6 -5 -13 -5q-10 0 -13 11q-2 4 -5 8.5t-4 6.5q-6 19 -12 26q-2 2 -4 8q-6 16 -11 23q-2 4 -2 5.5t-3.5 9t-3.5 8.5t-2 3.5t-2 4.5t-3 7q-10 18 -13 28l-5 7.5t-3.5 8t-2.5 7.5q-6 12 -12 26q-3 7 -8.5 18t-6.5 15t-2 5q-3 2 -6 12q-1 6 -6 16 t-5 12t-1.5 3.5t-2.5 6.5t-5 13t-6 13.5t-5 8.5q-5 7 -5 10q0 2 -12 26q-7 15 -7 16t-6 13t-6.5 16t-2.5 7.5t-5 10.5q-11 23 -10 26t21 3q18 0 38 1q29 1 33 -5q2 -2 5 -13q15 -44 29 -70q3 -4 3 -6t2.5 -6t2.5 -5.5t2 -4t3 -7.5t4 -9t3 -6.5t2.5 -6.5t2.5 -7q3 -8 14 -32 q5 -10 8 -19q1 -3 3.5 -8.5t2.5 -7t4.5 -10.5t7.5 -18q10 -26 15 -24q0 1 2.5 6.5t2.5 7.5q0 3 6 16q7 16 10 27q2 6 7 18t9 23t6 14t2 5.5t1 6.5q4 9 6 17q1 4 6.5 17t7 18t2.5 9q3 6 8 22q3 6 4.5 8.5t3 9.5t4.5 12.5t3 7.5t1.5 3.5t1.5 3.5q0 7 5 12q5 6 18 5q8 -1 18 0z " />
<glyph unicode="x" horiz-adv-x="526" d="M39 420q3 -3 12 -15q6 -9 27 -31q10 -12 10 -13q0 -2 26 -31q14 -14 20 -23q2 -5 15 -18q23 -26 23 -28q0 -1 11 -14q10 -11 10.5 -16t-6.5 -14q-8 -10 -8 -13q-3 -7 -13 -15q-13 -15 -15 -19q-10 -15 -33 -39q-19 -22 -21 -25t-9 -11.5t-10 -12.5q-11 -13 -11 -14 t-13 -16q-13 -13 -19 -21l-13 -13q-19 -14 -5 -16q1 0 4.5 -0.5t5.5 -0.5q3 -1 47 -1q34 0 40.5 1t6.5 6q0 2 11 15q21 21 24 27q2 4 6 6t13 15q13 18 30 36q4 4 8 12q15 24 39 37q10 6 10 1q2 -5 5 -6q1 0 3.5 -1t3.5 -2l5 -5q0 -3 2 -3q4 0 12 -13q8 -12 26 -30 q14 -14 17 -20q3 -4 16 -20q12 -12 17 -20q6 -8 9 -11q5 -5 6 -8q2 -4 10 -10l7 -7l22 1q31 1 42 0q9 -1 13 1q3 1 14 -1q16 -1 17 3q1 1 -15.5 18.5t-24.5 24.5q-3 3 -7 9q-2 2 -4.5 5.5t-3.5 4.5q-1 2 -11 12q-8 10 -17 19q-10 8 -10 12q0 3 -20 25q-9 9 -15 19 q0 1 -22 25q-18 20 -20 22q-2 5 -6 7q-4 1 -4 5q0 3 -2 5q-11 10 -8.5 18.5t23.5 30.5q8 10 8 11q0 3 7 10q24 28 24 30q0 4 12 14q8 8 17 20q4 7 6 7l6 8q6 10 14 18q10 9 14 16q19 27 31 33q2 1 6 7q3 5 5 5t3 2.5t0 3.5t-11 1q-10 -1 -22 -1q-3 1 -27 1h-31 q-3 0 -7.5 0.5t-5.5 0.5q-6 -3 -8 -6q-3 -5 -7 -7q-24 -24 -41 -46q-2 -3 -9.5 -12.5t-10.5 -12.5t-7 -7.5t-6.5 -7t-2.5 -3.5q-2 -3 -10 -11q-1 -2 -5 -6t-5 -6q-4 -7 -14 -17t-12 -10t-7 7q-1 1 -6 6.5t-7 7.5q-7 7 -11 13t-17 19q-22 24 -27 33q-2 4 -22 24 q-16 16 -28 31q-7 8 -11.5 9t-31.5 2q-57 2 -61 0q-3 -2 -2 -6.5t5.5 -12t11.5 -14.5z" />
<glyph unicode="y" horiz-adv-x="475" d="M14 449l-5 -2l4 -4q6 -6 7 -11q1 -1 3 -4q1 -3 2 -4q2 -2 2 -5q0 -4 6 -10q7 -7 7 -10l5 -10q4 -4 4 -8q0 -3 4 -7l4 -8q2 -5 5 -10q4 -6 4 -7q0 -4 3 -7q3 -4 3 -7q0 -2 4 -8t4 -8q0 -4 4 -8q3 -5 3 -8t2 -5t2 -4q0 -6 8 -14q4 -6 4 -7q0 -3 10 -23q3 -5 5.5 -11 t4.5 -9.5t2 -4.5l6 -12q5 -6 9 -15q5 -10 6 -11q3 -3 3 -6t3 -8q2 -2 6 -10q0 -1 5 -9q4 -6 4 -8t4 -8q4 -4 4 -8q0 -3 5 -8q4 -6 4 -7q0 -2 4 -8q5 -10 -3 -29q-5 -10 -5 -12q0 -4 -3 -5q-1 -1 -5 -9q-1 -1 -3.5 -6.5t-4.5 -7.5l-4 -8q0 -1 -8 -15t-18 -34q-17 -34 -20 -38 q-4 -4 -11 -21q-9 -17 -14 -23q-1 -2 -2 -3.5t-2 -3.5l-1 -1q0 -2 -4 -10q-5 -8 -5 -11q0 -2 -3 -5q-3 -1 -3 -6l-1 -3q-3 0 -9 -14q-1 -4 -4 -7q-1 -2 -3 -8t-4 -8l-6 -9q-6 -13 -8 -15l-3 -6q-1 -3 -3 -3q-1 0 -2 -2.5t-0.5 -5.5t2.5 -4q4 -4 13 -1q8 1 11 0q4 -2 6 0 q1 0 9.5 0.5t20 1t18.5 0.5q5 0 11 5t5 8q-1 2 2 9q1 1 2 3q2 2 2 3q0 2 5 10q6 8 6 11q0 4 3 6q3 3 3 4q0 4 4 9q2 5 5 11q0 4 4 8q3 3 7 11t5 9q2 1 4 7q0 1 2 5t2 5q3 5 3 7q2 4 4 7t5 9l4 8q2 4 2 7q0 1 4 7q0 1 2 4t3 4q1 3 4 9q3 3 3 5q0 7 8 15q4 4 7 13q1 3 4 8t3 6 q12 22 17 33q2 6 8 14l8 16q4 8 6 9q3 3 3 7q2 7 5 10q2 6 2 7q0 2 4 6q3 5 5 10q1 2 3.5 6t3.5 5q4 8 4 9q0 2 2 4q8 11 19 37q1 3 3.5 7t2.5 6q3 3 5 9q1 3 4 9q3 3 3 5v1l2 4t1 3q4 6 4 8q0 3 4 9q3 4 6 10q2 4 4 6l5 10q2 6 4 8t2 3q0 7 14 28q1 1 3 7t4 8l1 1q0 1 1 3 l2 4t2.5 4.5t2.5 4.5l10 20q2 4 2 7q0 2 3 4q0 1 2.5 4.5t3.5 5.5l5 10q2 2 6 11t4 12q0 2 2 4q2 3 4 7q2 8 7 12q4 7 4 11l-1 6h-42h-43l-3 -4q-3 -3 -5 -9q-2 -7 -4 -8q-2 -4 -2 -6q0 -3 -3 -6q-4 -4 -5 -8q-2 -6 -3 -7q-6 -9 -15 -27q-5 -10 -6 -11q-3 -6 -3 -7 q-3 -6 -4 -9q-4 -6 -4 -7t-1.5 -4t-1.5 -4q-4 -6 -4 -8q0 -1 -4 -9q-4 -4 -4 -9q0 -1 -2 -3t-4 -6q-1 -3 -4.5 -11.5t-5.5 -12.5q-1 -2 -2 -5q-2 -4 -2 -5q0 -2 -2 -4t-2 -4q0 -5 -6 -12l-3 -6q0 -2 -2 -6q-4 -4 -4 -9q-2 -6 -5 -9t-5 -9q-4 -14 -11 -14q-5 0 -5 9q0 2 -2 4 t-6 10q-2 4 -8 13q-6 5 -4 7q0 2 -2 6q-13 22 -13 26q0 1 -3 6q-4 4 -4 6q0 8 -13 25q-5 7 -5 10q0 1 -1.5 4t-1.5 4q-4 4 -4 7q0 4 -3 7q-2 2 -4 8q-2 7 -3 8l-16 32q-6 14 -8 15q-2 4 -2 6q0 1 -4 7q-13 20 -13 26q0 5 -5.5 8.5t-11.5 2.5q-8 -1 -31 -0.5t-29 1.5h-12 q-2 0 -11 -3z" />
<glyph unicode="z" horiz-adv-x="484" d="M350 452q-2 0 -6 0.5t-5 0.5q-2 -1 -47 -1h-56h-108q-56 1 -66.5 0t-11.5 -7q-1 -7 0 -39.5t2 -33.5t9 -3q9 -1 105 -1t106 2q9 1 9 -3q-1 -5 -15 -25q-3 -3 -11 -15q-11 -20 -23 -35q-4 -2 -8 -11q-1 -1 -2.5 -3.5l-3 -5t-2.5 -3.5l-8 -12q-2 -5 -8 -11q-8 -13 -9 -14 q-3 -6 -9 -14q-5 -5 -7 -11q-3 -5 -11 -17t-8 -13q-2 -3 -4 -5q-3 -3 -3 -6q0 -2 -3 -4q-3 -3 -4 -5q-2 -4 -7 -9t-9 -13q-1 -2 -5 -7l-4 -6q-1 -1 -3.5 -4.5t-5 -6.5t-3.5 -5q-2 -4 -7 -10l-6 -7q-1 -1 -10 -13q-3 -6 -5 -8q-7 -7 -15 -23q-1 -2 -9 -10q-11 -11 -10 -16 q1 -1 -2 -5q-7 -7 -4 -10.5t16 -2.5h15q43 0 98 1q47 0 52 -1q12 -5 19 -1q6 2 85 2h52q3 1 36 1l30 1l4 4l4 4l-1 30q0 32 -1 34v5q-2 5 -62 2q-35 0 -55 1q-41 0 -58 -1q-21 -1 -49.5 -0.5t-30.5 1.5t2 7l5 6q0 5 14 21q2 2 8 11q5 10 8 12l12 18q0 2 8 10q14 16 14 20 q5 6 10 13q2 3 4.5 6.5t4.5 5.5t2 3q0 4 6 10q11 14 11 17q0 2 9 11q10 12 13 18q2 2 5 7t5 7q5 5 9 11q1 4 8 13q6 8 7 10q4 7 15 22q9 11 9 13q0 1 4 7q10 14 10 15q0 3 6 9q7 9 11 17q5 4 9 12q7 8 9 13l4 6q4 2 6.5 9t0.5 9q-2 1 -27.5 1.5t-26.5 -0.5q-2 -2 -36 -2z " />
<glyph unicode="&#xaa;" horiz-adv-x="396" d="M68 187q10 9 12 10q3 0 7 4q6 4 15 6q3 1 13 6q4 4 10 5q5 1 11 4q4 6 17 6q3 0 9 4q3 5 7 5t6 1q1 0 3.5 1t3.5 2q4 0 12 4q5 2 14 5q8 2 8 3q11 5 27 10q13 4 14.5 7t0.5 17l-2 17l-1 4q-1 4 -2 10.5t-2 11.5t-15 19.5t-18 15.5q-1 0 -3.5 1t-6 2t-6.5 2q-16 5 -44 2.5 t-38 -10.5q-4 -4 -11 -3q-6 1 -9 -3q-3 -5 -6 -5q-5 -2 -5 -3l-16 -18q-16 -16 -16 -19t-3 -5q-2 -2 -4 -7q-3 -8 -7 -1q-2 3 -1 8v12q-2 9 -2.5 33t1.5 30q2 9 17.5 25.5t21.5 16.5q2 0 4 2q4 3 8 5q8 4 10 6l6 3q2 0 8 2q12 6 17 6q4 0 6 1q4 2 18 2l15 2q1 1 19 -0.5 t19 -2.5q2 -2 8 -2q7 0 11 -2q1 0 5.5 -1.5t6.5 -1.5q8 -2 13 -5q4 -4 8 -4q2 0 13 -9q10 -8 12 -8q5 0 14 -11q17 -22 20 -32q2 -4 2 -6q10 -13 10 -23q0 -4 2 -18q1 -6 3 -44q0 -19 0.5 -44t1 -38t0.5 -19v-87v-24q-3 -38 3 -44q1 -3 -1 -6q-2 -4 -2 -6q0 -8 -16 -11 q-54 -12 -59 -7q-1 8 -1 17q0 19 -3 19q-2 0 -6 -4l-10 -5q-2 -1 -5 -3l-4 -2q-4 -4 -6 -4q-1 0 -11 -4t-11 -4q-19 -7 -22 -4q-1 1 -6 -1q-16 -9 -59 2q-16 3 -20 6q-4 2 -6 2t-5 3q-1 0 -5.5 4t-7.5 6q-20 16 -20 21q0 1 -4 7q-5 5 -5 9q-3 6 -4 9q-4 6 -4 7q0 3 -3 5 q-2 3 -1 13q1 11 0 12q-2 3 -1 15t4 16q0 1 1.5 4t1.5 4q0 3 2.5 8.5t4.5 6.5q1 0 1 2q0 3 3 5q1 1 2 3.5t2 3.5q0 3 2 4.5t5 4t4 3.5zM148 180q-8 -8 -19 -24q-6 -6 -6 -10q0 -2 -3 -7t-3 -12q0 -8 -2 -10q-6 -4 1 -11q3 -3 5 -7q1 -7 17 -21t24 -16q4 0 10 -3q4 -1 18 -1 t16 2t6 2t10 2t8 2q3 0 10 5q5 7 10 7q2 0 9 5l5 5v26q-1 14 -1 60q0 9 -0.5 18.5t-0.5 15.5v7q-1 8 -12 4q-10 -3 -11 -3q-5 0 -11 -3q-13 -6 -22 -7q-4 0 -6 -2t-7 -2.5t-7 -1.5t-8 -3q-2 -1 -3 -2.5t-2 -1.5q-2 0 -5 -3q-2 -2 -9 -5t-11 -5z" />
<glyph unicode="&#xba;" horiz-adv-x="516" d="M202 442q-4 -2 -7 -2t-7 -2q-26 -9 -28 -11q0 -1 -3 -1l-1 -1l-4 -2l-4 -2q-7 -5 -8 -5t-13 -8q-2 -2 -8 -6t-7 -5q-5 -4 -16 -15.5t-15 -17.5q-1 -2 -5 -6.5t-5 -6.5q-5 -5 -9 -13l-5 -10q-9 -17 -12 -26q-3 -6 -3 -10l-1 -4q-2 -2 -2 -9q-2 -9 -3 -10q-4 -16 -4 -45 q0 -13 4 -37q2 -21 6 -25q2 -5 7 -20q2 -7 4 -8q2 -2 2 -4q0 -5 3 -8q5 -7 6 -11q6 -9 8 -11q1 -1 6 -7.5t8 -10.5q22 -28 37 -36q3 -1 13 -9q8 -6 10 -6q3 0 9 -4q5 -5 7 -5q3 0 9 -3q11 -6 19 -6q4 0 5 -3q2 -2 5 -2t9 -2q4 -2 5 -1l12 -2q10 -2 35 -2.5t30 1.5q1 0 11 3 q7 0 11 2q1 1 11 3q18 6 22 8t7 2q4 0 8 4t7 4q4 0 9 5q1 0 6.5 3.5t7.5 5.5q8 4 27 24t27 31l10 15q3 2 4 7l4 8q3 1 3 6v3l1 2q2 1 6 12.5t5 16.5q2 6 2 8q2 2 2 9q0 8 2 10q2 5 1 31t-3 39q-5 25 -7 28q-2 4 -1 4q0 3 -1 4q-3 6 -3 7q-3 6 -5 9q0 1 -1.5 4t-1.5 4 q0 3 -3 6q-5 4 -6 9q-2 5 -9 14t-7 10q0 2 -13.5 16t-21.5 19q-9 6 -17 12q-6 6 -9 6q-6 2 -10 6q-6 4 -8 4q-3 0 -21 9q-4 2 -7 2q-2 0 -6 2q-2 2 -6 2l-5 1q0 2 -11 2q-10 2 -10 3l-2 1h-3h-25h-31q-20 -2 -29 -6zM292 365q2 0 5 -1q4 -1 5 -1q0 -1 6 -3q5 -1 8 -4 q4 -2 7 -2q2 -1 14 -9q8 -7 13 -9q14 -9 20 -20q2 -5 9 -13q7 -7 7 -10q0 -2 4 -8q3 -5 3 -9q0 -3 2 -5q3 -3 3 -6q0 -5 1 -5q6 -6 3 -43.5t-10 -45.5q-1 -2 -1 -5q0 -4 -5 -9q0 -1 -3 -6t-4 -7q-4 -7 -19.5 -22t-23.5 -19q-19 -12 -33 -16l-6 -3q0 -1 -5 -1q-3 0 -15 -2 q-36 -6 -58 4q-4 2 -7 2q-2 0 -6 2q-2 2 -5 2t-8 3q-3 2 -9 5q-8 3 -26 21t-25 30q-10 20 -13 31q0 1 -1 4t-1.5 5t-0.5 3q-4 10 -2.5 38.5t6.5 39.5q2 4 2 6q0 3 3 6q0 1 1.5 4t1.5 4q2 7 18 26q3 3 3 4q0 2 25 21q13 9 14 9t7 4q9 5 29 10q13 3 14 3q5 1 22 1t20 -2 q2 -2 11 -2z" />
<glyph unicode="&#x152;" horiz-adv-x="1070" d="M691 577v-45q0 -11 1 -22v-56v-40v-6v-7v-8q0 -8 0.5 -21.5t0.5 -25.5q3 -180 3 -190q0 -19 -1 -21l-2 -10q0 -8 -1 -8q-1 -1 0 -6t2 -5v-11q1 -11 1 -23v-21v-4v-15q-1 -29 3 -32t41 -3h47q8 0 26 0.5t24 0.5l22 1h3q3 0 8 -0.5t11.5 -0.5h15h16.5q16 0 42.5 -0.5 t30.5 -0.5q30 -2 36 1q4 3 6.5 14t-0.5 14q-2 2 -2 17q-1 17 -5 19q-7 4 -83 4q-80 2 -88 2q-8 1 -16 1q-2 0 -3 1q0 1 -4 1q-11 -3 -28 -1.5t-21 5.5q-4 5 -4.5 17.5t3.5 16.5q3 4 -2 13q-2 6 -2 27q-1 86 0 101.5t6 15.5h2q1 1 2 1q7 4 33 3h30q11 0 14 -1q6 -2 8 0 q1 1 13 1q14 0 17 1q10 0 15 -1q6 -1 54 -1q42 -1 48 2.5t7 27.5q0 18 2 22q3 7 -5.5 13.5t-18.5 5.5q-8 -1 -11 0q-3 2 -31.5 1t-32.5 -3q-12 -4 -15 -1q-6 5 -29 1q-4 -1 -6 1t-3 8q-2 6 -4 3q-2 -2 -1 -6q0 -2 -5 -2t-7 -2q-3 -1 -5 0q-8 0 -12 -1h-14q-6 2 -8 0 q-5 -3 -12 -3t-7 3h-12q-10 -1 -14 1t-3 7q0 4 -1 5q0 5 1 10q6 36 4 87v14q0 3 -0.5 12.5t-0.5 13.5q-1 41 0 45t18 4h12l7 -1h5q4 0 11.5 0.5t17 0.5h21.5h24q41 1 86 1q44 -1 45 0q0 1 3 1q2 -1 4.5 1.5t2.5 4.5q0 1 2 5q3 3 0 5q-2 2 -3 26q0 24 -1 25h-38q-41 0 -46 1 q-14 2 -130.5 1.5t-118.5 -2.5v-5q0 -4 -0.5 -11t-0.5 -14zM286 -12q8 -2 13 -4q6 -2 8 -2q1 0 4 -0.5t5 -0.5q8 -2 15 -2q2 -1 7.5 -1h6.5q5 -1 19 3.5t20 5.5l14 2q1 -1 5 1q3 3 12 3q9 2 10 3q2 2 4 2q3 0 8 3q3 0 9 4q6 3 16 7q2 1 7 3t7 3q4 3 7 3l6 4q3 4 7 4 q1 0 17 13q7 7 13 11q6 3 21.5 19t16.5 19q2 5 9 13t12 16q1 3 10 17l6 11q2 3 4 5q3 3 3 7q0 2 3 8q3 4 3 8q0 3 2 5q2 4 2 7q0 2 2 6q7 11 9.5 59.5t-3.5 75.5q0 2 -0.5 6t-0.5 5q0 4 -3 7q-3 9 -3 11q0 7 -1 8t-5 14l-6 14l-1 2q0 1 -1 2.5t-1 3.5l-4 7q-2 3 -3 6 q-2 6 -4 8l-1 1l-2 4t-2 3q-1 5 -8 12q-2 2 -8 11q-3 7 -29 33.5t-37 34.5q-2 1 -19 11q-13 6 -15 9q-4 3 -21.5 11.5t-18.5 7.5t-5 1q-2 2 -6 2t-6 2t-5 2q-5 0 -8 3q-4 2 -10 2q-7 0 -9 1q-1 1 -14 3q-3 0 -8 1h-5q-6 4 -51 2l-15 -2q-2 -2 -12 -2q-11 0 -13 -2 q-4 -2 -7 -2t-9 -2q-1 0 -5 -1t-5 -2q-15 -4 -19 -6q-2 -2 -6 -2l-3 -1q-3 -2 -4 -2q-3 -3 -7 -3q-3 0 -6 -3l-8 -4q-6 -2 -9 -5q-4 -4 -10 -7q-4 -2 -13 -8l-12 -8q-7 -3 -35 -32.5t-28 -33.5q0 -3 -3 -6q-5 -8 -6 -10t-3 -5t-3 -5q-14 -21 -14 -30q0 -1 -2 -5q-2 -1 -2 -5 q0 -2 -2 -6q-3 -3 -3 -7q-3 -17 -5 -19q-3 -4 -7 -36q-1 -9 -1 -32.5t1 -25.5q2 0 2 -12q0 -6 3 -18l3 -15q0 -7 2 -11q3 -2 4 -7q2 -17 9 -28q0 -1 2 -5t2 -5q3 -6 5 -8q3 -3 3 -6q0 -4 5 -9q1 -1 2 -2.5t2 -3.5l1 -1q0 -3 13 -20q5 -4 8 -10q4 -7 17 -21t22 -20q5 -3 5 -5 q3 -2 7 -4q2 -1 7 -5t7 -5q6 -6 14 -10q7 -3 11 -7q2 -2 6 -2q2 0 8 -4q5 -3 8 -3l6 -3q3 -3 6 -3q2 2 5 -1q4 -2 6 -2t7 -3q6 -2 7 -2l12 -4q18 -6 30 -7zM372 505q8 -1 9 -3q2 -1 4 -1q5 0 7 -2q5 -2 6 -1q1 0 5 -2t6 -2q5 0 8 -3q6 -2 7 -2q3 0 7 -4q1 -1 4.5 -3t4.5 -2 q6 -2 9 -5q4 -4 10 -7q7 -3 26 -21t24 -26q1 -1 5.5 -7.5t6.5 -9.5q8 -12 8 -13q0 -4 3 -7q4 -6 4 -7t2 -7l2 -5q1 -2 3 -5q1 -1 2 -4.5t2 -4.5q0 -1 1 -5t2 -5q5 -17 7 -46q3 -39 -1 -52q-2 -5 -1 -6t-1.5 -11t-4.5 -13q-2 -4 -2 -7q0 -2 -2 -6q-3 -3 -6 -12 q-7 -20 -18 -31q-12 -13 -12 -16q0 -2 -13.5 -15.5t-17.5 -15.5t-11 -8q-15 -17 -22 -17q-4 0 -6 -2q-4 -2 -18 -6l-3 -1l-6 -3q-4 -3 -8 -3q-2 0 -4 -2q-1 -1 -10 -3q-9 0 -12 -3q-4 -2 -5 -1q-6 0 -14 -2q-19 -3 -34 -1q-2 1 -7 1.5t-7 0.5q-7 0 -15 2q-2 0 -5 0.5t-4 0.5 q-2 0 -8 2q-5 2 -13 4q-8 0 -8 3q-1 1 -4 1q-6 -2 -25 12q-4 2 -7 2q-4 0 -9 5q-4 6 -11 8q-6 0 -6 4q-2 2 -3 2q-2 0 -35 32q-8 6 -10 12l-9 15q-7 9 -7 12q0 4 -1 4t-3 4q-8 16 -8 19q0 1 -2 5q-3 6 -3 11q-2 9 -3 10q0 1 -0.5 3t-0.5 3q-1 2 -3 15q-2 12 -1 13q-1 3 -2 5 q-3 9 0 38q0 1 0.5 6t0.5 6q0 6 2 10q2 5 1 6q0 5 4 12l4 12q0 3 3 8q11 22 11 24l4 6q6 9 9 14q5 8 23 26.5t21 18.5q4 3 7 6q8 6 9 6q2 1 3 2q1 3 6 5l10 5q4 4 7 4l6 3q4 3 7 3t9 3q4 2 13 5q14 4 23 6q2 0 5 1t4 1q2 2 10 2t8 1q1 1 21.5 0t23.5 -2q4 -2 12 -2z" />
<glyph unicode="&#x153;" horiz-adv-x="959" d="M719 448q-18 -2 -20 -3q-1 0 -5 -1t-5 -2q-9 -3 -14 -5q-6 -1 -11 -4q-2 -2 -6 -2q-6 -3 -8 -5q-1 -1 -7.5 -5.5t-9.5 -6.5q-11 -8 -25 -22.5t-14 -18.5q0 -2 -4 -6t-8 -12q-1 -1 -3.5 -6t-3.5 -6q-3 -5 -5 -12q-2 -6 -5 -13q-8 -20 -8 -28l-1 -2v-5q-4 -12 -6 -45t1 -37 q1 -1 3 -9q0 -4 3 -16q4 -8 4 -12q1 -2 2 -6t1 -5t1 -5t2 -5q0 -3 4 -9l3 -6q0 -3 3 -6q0 -1 2.5 -5t3.5 -6q3 -5 12 -17q8 -10 8 -12q0 -4 30 -29q1 -1 4 -2.5t6 -3.5t5 -4q9 -7 14 -9q6 -2 9 -5q4 -2 5 -2q2 0 8 -4q7 -6 20 -7l6 -3q2 -2 6 -2q5 0 7 -2q4 -2 10 -2t10 -2 q3 -2 31.5 -1.5t36.5 2.5l16 4q9 2 10 3q1 0 7 2q5 0 5 2q1 1 4 1t8 3q3 3 7 3t16 7q14 7 16 7q3 0 11 8q2 2 7 6l4 4q3 2 4 40q0 40 -3 40q-2 0 -7 -5q-4 -4 -21.5 -13.5t-20.5 -9.5q-1 0 -3 -2q-8 -10 -31 -12q-10 0 -14 -2t-7 -2q-2 0 -4 -2q-5 -6 -36.5 -5.5t-47.5 7.5 q-22 7 -47 25t-28 28q-4 9 -6 11q-5 7 -5 9t-1 3q-4 2 -8.5 24t-4.5 41q0 13 1 15t6 2q1 0 4.5 0.5t4.5 1.5q10 2 95 3h22.5t20.5 0.5t16 0.5h11h5h24h79l5 1v14q0 17 -1 22q-1 2 -2 8t-1 8q0 7 -4 15t-4 12q-2 6 -4 7l-2 4q0 10 -26 40t-43 38q-1 1 -3.5 2.5l-5 3t-3.5 2.5 q-7 5 -9 5t-4 1q-3 3 -7 3q-3 0 -7 2q-7 5 -28 5q-3 0 -7.5 0.5t-7 1t-3.5 0.5q-4 1 -9.5 1.5t-7.5 -0.5q-2 -2 -17 -2zM787 368q5 0 19 -14q3 -3 9 -7q5 -4 13 -14.5t8 -12.5t2 -4t2 -7.5t-3 -6.5q-15 -3 -173 -3q-15 1 -17 2.5t2 11.5q3 8 19.5 28.5t20.5 21.5q1 0 4 2 t5 3q5 3 10 5q1 0 3 0.5t5.5 1.5t5.5 1q11 2 11 3q2 2 18 0t23 -6q10 -5 13 -5zM202 442q-4 -2 -7 -2t-7 -2q-26 -9 -28 -11q0 -1 -3 -1l-1 -1l-4 -2l-4 -2q-7 -5 -8 -5t-13 -8q-2 -2 -8 -6t-7 -5q-5 -4 -16 -15.5t-15 -17.5q-1 -2 -5 -6.5t-5 -6.5q-5 -5 -9 -13l-5 -10 q-9 -17 -12 -26q-3 -6 -3 -10l-1 -4q-2 -2 -2 -9q-2 -9 -3 -10q-4 -16 -4 -45q0 -13 4 -37q2 -21 6 -25q2 -5 7 -20q2 -7 4 -8q2 -2 2 -4q0 -5 3 -8q5 -7 6 -11q6 -9 8 -11q1 -1 6 -7.5t8 -10.5q22 -28 37 -36q3 -1 13 -9q8 -6 10 -6q3 0 9 -4q5 -5 7 -5q3 0 9 -3 q11 -6 19 -6q4 0 5 -3q2 -2 5 -2t9 -2q4 -2 5 -1l12 -2q10 -2 35 -2.5t30 1.5q1 0 11 3q7 0 11 2q1 1 11 3q18 6 22 8t7 2q4 0 8 4t7 4q4 0 9 5q1 0 6.5 3.5t7.5 5.5q8 4 27 24t27 31l10 15q3 2 4 7l4 8q3 1 3 6v3l1 2q2 1 6 12.5t5 16.5q2 6 2 8q2 2 2 9q0 8 2 10q2 5 1 31 t-3 39q-5 25 -7 28q-2 4 -1 4q0 3 -1 4q-3 6 -3 7q-3 6 -5 9q0 1 -1.5 4t-1.5 4q0 3 -3 6q-5 4 -6 9q-2 5 -9 14t-7 10q0 2 -13.5 16t-21.5 19q-9 6 -17 12q-6 6 -9 6q-6 2 -10 6q-6 4 -8 4q-3 0 -21 9q-4 2 -7 2q-2 0 -6 2q-2 2 -6 2l-5 1q0 2 -11 2q-10 2 -10 3l-2 1h-3 h-25h-31q-20 -2 -29 -6zM292 365q2 0 5 -1q4 -1 5 -1q0 -1 6 -3q5 -1 8 -4q4 -2 7 -2q2 -1 14 -9q8 -7 13 -9q14 -9 20 -20q2 -5 9 -13q7 -7 7 -10q0 -2 4 -8q3 -5 3 -9q0 -3 2 -5q3 -3 3 -6q0 -5 1 -5q6 -6 3 -43.5t-10 -45.5q-1 -2 -1 -5q0 -4 -5 -9q0 -1 -3 -6t-4 -7 q-4 -7 -19.5 -22t-23.5 -19q-19 -12 -33 -16l-6 -3q0 -1 -5 -1q-3 0 -15 -2q-36 -6 -58 4q-4 2 -7 2q-2 0 -6 2q-2 2 -5 2t-8 3q-3 2 -9 5q-8 3 -26 21t-25 30q-10 20 -13 31q0 1 -1 4t-1.5 5t-0.5 3q-4 10 -2.5 38.5t6.5 39.5q2 4 2 6q0 3 3 6q0 1 1.5 4t1.5 4q2 7 18 26 q3 3 3 4q0 2 25 21q13 9 14 9t7 4q9 5 29 10q13 3 14 3q5 1 22 1t20 -2q2 -2 11 -2z" />
<glyph unicode="&#x2000;" horiz-adv-x="343" />
<glyph unicode="&#x2001;" horiz-adv-x="686" />
<glyph unicode="&#x2002;" horiz-adv-x="343" />
<glyph unicode="&#x2003;" horiz-adv-x="686" />
<glyph unicode="&#x2004;" horiz-adv-x="228" />
<glyph unicode="&#x2005;" horiz-adv-x="171" />
<glyph unicode="&#x2006;" horiz-adv-x="114" />
<glyph unicode="&#x2007;" horiz-adv-x="114" />
<glyph unicode="&#x2008;" horiz-adv-x="85" />
<glyph unicode="&#x2009;" horiz-adv-x="137" />
<glyph unicode="&#x200a;" horiz-adv-x="38" />
<glyph unicode="&#x2013;" horiz-adv-x="500" d="M100 250v100h300v-100h-300z" />
<glyph unicode="&#x2014;" horiz-adv-x="1000" d="M100 250v100h800v-100h-800z" />
<glyph unicode="&#x2019;" d="M35 507l31 -25q5 4 13.5 12.5t30 37t37.5 61.5q3 7 6.5 21.5t2.5 19.5q-1 3 -1 13q0 12 -14 23q-17 14 -19 12q-7 0 -13 1q-5 3 -29 3h-20l-6 -7q-15 -15 -19 -35q0 -1 -1 -6.5t-1 -7.5q-3 -11 10 -29.5t15 -21.5q3 -9 -3 -26t-13 -31t-7 -15z" />
<glyph unicode="&#x2026;" horiz-adv-x="561" d="M409 61q0 -1 -1 -6.5t-1 -7.5q-3 -15 4 -30t21 -21q10 -7 11 -9q3 -3 9.5 -4.5t9.5 0.5q2 1 7 1.5t7 1.5q17 1 26 6t19 18q4 6 7 20.5t2 20.5q-1 3 -1 13q0 12 -14 23q-17 14 -19 12q-7 0 -13 1q-5 3 -29 3h-20l-6 -7q-15 -15 -19 -35zM222 61q0 -1 -1 -6.5t-1 -7.5 q-3 -15 4 -30t21 -21q10 -7 11 -9q3 -3 9.5 -4.5t9.5 0.5q2 1 7 1.5t7 1.5q17 1 26 6t19 18q4 6 7 20.5t2 20.5q-1 3 -1 13q0 12 -14 23q-17 14 -19 12q-7 0 -13 1q-5 3 -29 3h-20l-6 -7q-15 -15 -19 -35zM35 61q0 -1 -1 -6.5t-1 -7.5q-3 -15 4 -30t21 -21q10 -7 11 -9 q3 -3 9.5 -4.5t9.5 0.5q2 1 7 1.5t7 1.5q17 1 26 6t19 18q4 6 7 20.5t2 20.5q-1 3 -1 13q0 12 -14 23q-17 14 -19 12q-7 0 -13 1q-5 3 -29 3h-20l-6 -7q-15 -15 -19 -35z" />
<glyph unicode="&#x202f;" horiz-adv-x="137" />
<glyph unicode="&#x205f;" horiz-adv-x="171" />
<glyph unicode="&#x2122;" horiz-adv-x="1215" d="M1092 578q0 -3 -7 -10q-9 -9 -11 -12q-2 -4 -8 -10q-6 -8 -7 -10q0 -2 -11 -13q-12 -14 -13 -16q-4 -5 -9 -9q-6 -6 -6 -7q0 -4 -7 -11q-1 -1 -13 -16q-10 -14 -27 -34q-15 -18 -17 -20q-3 -2 -6 -8q0 -4 -4 -4q-5 -2 -6 -6q-8 -12 -20 -24q-5 -5 -8 -11q-4 -9 -15 -15 q-3 -3 -3 -5q0 -3 -1 -3q-1 -1 -5.5 3t-4.5 5q0 3 -20 25q-9 9 -11 13q-2 5 -5 7q-4 4 -6 7q-1 2 -15 18q-10 9 -14 16l-6 9q-9 9 -13 14q-6 6 -12 15q-1 4 -15 18q-11 13 -16 20q-2 4 -17 21q-12 12 -20 24q-22 31 -33 31q-18 0 -20 -2t-5 0q-4 1 -15 0.5t-13 -1.5 q-3 -2 -2 -55v-57q-1 -6 -1 -43q0 -32 -1 -32q-1 -1 -1 -3q1 -5 2 -24.5t0 -26.5v-6q1 -3 0 -8q0 -9 1 -14q0 -1 0.5 -11t0.5 -16q1 -82 0 -95q-2 -13 -1 -18q1 -4 1 -12q-1 -3 -1 -14q1 -5 1 -17q0 -9 2 -11v-14v-32v-40q0 -20 3 -24l2 -6h23q44 0 46 5l2 28v37q0 16 -1 23 q-2 11 0 14q1 4 1 14.5t-1 15.5q-2 6 1 10q1 2 1 11q0 16 2 26q1 6 -1 8q-2 4 -1 5v4q-2 2 -2 14q0 4 -1 9v6q-2 2 0 9v5l1 4q-3 24 0 28q2 3 0 5t-2 21v24q-1 38 5 35h1q0 3 -5 5q-2 1 -2 8q2 5 0 7q-1 1 -0.5 23.5t1.5 23.5v8q0 8 6 2q24 -24 24 -27q0 -5 6 -9 q4 -3 15.5 -17t11.5 -16q0 -1 10 -11q9 -11 10 -11q0 -2 8 -10q8 -9 10 -13q1 -3 15 -17q12 -12 12 -13q0 -2 8.5 -12.5t14.5 -15.5q8 -8 12 -16q20 -30 30 -23q2 2 7 2t27 24q18 20 23 29q4 8 9 13t11 13l3 3q2 3 3 3l6 8q4 8 17 21q20 22 34 39q5 8 21 25q23 26 24 27 q2 2 4 6q3 12 5 -4q1 -10 2 -44q2 -60 3 -63q0 -2 -1 -3t-1 -26q1 -13 1 -30v-8l1 -46q1 -45 1 -49v-39v-26l-1 -15v-9q0 -53 2 -69q0 -7 9.5 -9t39.5 -1q15 0 20 5t3 85q-2 39 0 42q0 4 -1 5q-2 3 1 8q1 2 1 6q-2 2 1 4q1 2 -2 9t0 12q2 5 1 7q-2 1 -2 22v23q-2 55 -1 85 q0 43 -1 50v21q1 6 1 17q0 7 1 7q4 4 -1 13q-2 7 -1 31q3 38 1 40q-1 1 -1 34q0 58 -4 62q-2 2 -47 0q-18 -1 -21 -7zM47 586q-1 2 -6 2t-7 -2q-1 -1 -1 -34t2 -35t17 -2q32 0 37 -3q1 -1 5 1q4 3 7 1q1 -1 12 -1t11 1t9 1t10 -1q2 -2 8 0h12q4 -1 12 -1q4 1 76 3 q10 0 11.5 -5t1.5 -44v-14v-12.5t0.5 -10t0.5 -6.5v-3q1 -1 1 -20q-1 -10 -1 -28q2 -8 -1 -11q-1 -2 0 -6q2 -4 2 -10q0 -40 -1 -49q0 -15 1 -23v-19q-2 -6 1 -10q1 -2 1 -7q-4 -8 -2 -167q1 -30 1 -59q0 -5 5 -9q6 -4 37 -4h24q6 0 9 7t-1 14q-1 1 -1 17v19v22q2 25 1 97 q-1 91 -3 100q-2 5 0 7q1 1 1 11q-1 6 -1 16q1 20 0.5 94.5t-1.5 98.5q0 10 1.5 12t9.5 3q12 0 60.5 -1t53.5 -1q74 -6 82 0q4 2 4 39v25l-6 1q-17 2 -56 1q-177 0 -201 3q-5 0 -20 0.5t-22 0.5q-89 0 -94 4q-1 0 -1 -1q-2 -3 -49 -4t-52 2z" />
<glyph unicode="&#xe000;" horiz-adv-x="455" d="M0 455h455v-455h-455v455z" />
<glyph unicode="&#xfb01;" horiz-adv-x="512" d="M378 584q-1 -1 -1.5 -5t-0.5 -5q-2 -11 3 -22t15 -15q7 -5 8 -6q7 -7 14 -3q1 1 4.5 1.5t5.5 0.5q20 1 32 17q10 14 7 30q-1 2 -1 9q0 9 -10 17q-12 10 -14 8q-5 0 -9 1q-4 2 -21 2h-14l-5 -5q-11 -11 -13 -25zM375 377q1 -124 1 -170v-47q0 -34 -1 -42q0 -18 1 -23 q0 -3 0.5 -10t1 -18t0.5 -19q0 -42 7 -43q9 -4 52 0q20 2 22.5 7t2.5 38q-1 36 -1 120q0 92 -2 222q0 43 1 47q1 10 -3.5 14t-15.5 3q-4 -1 -10 -1q-48 1 -51 0q-5 -2 -5 -78zM243 683q-18 -1 -36 -9q-5 -3 -8 -3t-3 -2q-2 -2 -10 -5q-7 -3 -13 -9q-4 -4 -6 -4 q-5 0 -23.5 -22t-21.5 -32q-3 -6 -4 -7q-4 -2 -2 -5q0 -2 -2 -8q-3 -5 -3 -8q0 -4 -2 -4l-1 -1v-3q0 -3 -2 -9q-3 -9 -3 -18q0 -12 -2 -16q-1 -1 -1 -5v-4q-1 -4 -1 -6q-2 -10 -2 -27v-9q-2 -18 -5 -19h-2q-8 0 -10 1q-4 1 -7 0l-22 -2q-20 0 -21 -1q-2 -2 -0.5 -37.5 t3.5 -37.5q2 -1 38 -1q21 0 23 -5q2 -3 4 -86q0 -56 2 -58q1 -2 1 -8.5t-1 -7.5t-1 -23.5t2 -28.5l1 -13v-24q-1 -16 -1 -34v-63q-1 -15 2.5 -16.5t32.5 -2.5q35 0 40 3t4 24q0 7 -0.5 24t-1 47.5t-0.5 53.5q0 18 1 19q2 2 2.5 8t-1.5 8q-1 2 -2 18t0 25v82q-1 47 0.5 52 t16.5 5q3 0 13.5 0.5t15.5 0.5q8 1 21 1q12 0 18 -1l12 -1l2 6q4 11 1 41q0 1 -0.5 8t-0.5 11q0 12 -2 13.5t-18 1.5q-5 0 -17 0.5t-16 0.5q-23 0 -31 -1q-14 0 -15 1q-2 1 -1.5 22.5t2.5 32.5q2 12 1 13q0 1 2 5t2 9q0 15 7 23q5 7 6 11q4 10 18 20t25 12q10 1 18.5 2 t12.5 1t5 -1l2 -1q2 0 4 -0.5t4 -0.5q12 0 22 -5q13 -6 16 -6q2 0 7 -3q6 -5 7 3q1 5 1 35t-1.5 36.5t-7.5 6.5q-2 0 -6 2q-3 3 -7 3q-2 0 -6 2q-2 2 -8 4q-3 0 -9 2q-18 4 -28 5h-10q-6 -1 -13 -1z" />
<glyph unicode="&#xfb02;" horiz-adv-x="507" d="M432 673q-7 0 -9 -1q-2 -2 -14 -2q-11 0 -14 -3q-4 -2 -11 -2l-8 -1v-5q-2 -10 0 -113q0 -11 -1 -22q-4 -71 0 -80q1 -2 1.5 -32.5t0.5 -67.5v-70v-113q0 -24 -1 -25q-1 -2 -1 -61t2 -68q3 -7 4 -7h13q62 -1 64 7q3 14 1 21q-1 5 -3 321q0 42 -0.5 118t-0.5 92 q-1 80 -0.5 93.5t6.5 18.5t-4 6q-6 0 -12 -2q-8 -2 -13 -2zM243 683q-18 -1 -36 -9q-5 -3 -8 -3t-3 -2q-2 -2 -10 -5q-7 -3 -13 -9q-4 -4 -6 -4q-5 0 -23.5 -22t-21.5 -32q-3 -6 -4 -7q-4 -2 -2 -5q0 -2 -2 -8q-3 -5 -3 -8q0 -4 -2 -4l-1 -1v-3q0 -3 -2 -9q-3 -9 -3 -18 q0 -12 -2 -16q-1 -1 -1 -5v-4q-1 -4 -1 -6q-2 -10 -2 -27v-9q-2 -18 -5 -19h-2q-8 0 -10 1q-4 1 -7 0l-22 -2q-20 0 -21 -1q-2 -2 -0.5 -37.5t3.5 -37.5q2 -1 38 -1q21 0 23 -5q2 -3 4 -86q0 -56 2 -58q1 -2 1 -8.5t-1 -7.5t-1 -23.5t2 -28.5l1 -13v-24q-1 -16 -1 -34v-63 q-1 -15 2.5 -16.5t32.5 -2.5q35 0 40 3t4 24q0 7 -0.5 24t-1 47.5t-0.5 53.5q0 18 1 19q2 2 2.5 8t-1.5 8q-1 2 -2 18t0 25v82q-1 47 0.5 52t16.5 5q3 0 13.5 0.5t15.5 0.5q8 1 21 1q12 0 18 -1l12 -1l2 6q4 11 1 41q0 1 -0.5 8t-0.5 11q0 12 -2 13.5t-18 1.5q-5 0 -17 0.5 t-16 0.5q-23 0 -31 -1q-14 0 -15 1q-2 1 -1.5 22.5t2.5 32.5q2 12 1 13q0 1 2 5t2 9q0 15 7 23q5 7 6 11q4 10 18 20t25 12q10 1 18.5 2t12.5 1t5 -1l2 -1q2 0 4 -0.5t4 -0.5q12 0 22 -5q13 -6 16 -6q2 0 7 -3q6 -5 7 3q1 5 1 35t-1.5 36.5t-7.5 6.5q-2 0 -6 2q-3 3 -7 3 q-2 0 -6 2q-2 2 -8 4q-3 0 -9 2q-18 4 -28 5h-10q-6 -1 -13 -1z" />
<glyph unicode="&#xfb03;" horiz-adv-x="837" d="M703 584q-1 -1 -1.5 -5t-0.5 -5q-2 -11 3 -22t15 -15q7 -5 8 -6q7 -7 14 -3q1 1 4.5 1.5t5.5 0.5q20 1 32 17q10 14 7 30q-1 2 -1 9q0 9 -10 17q-12 10 -14 8q-5 0 -9 1q-4 2 -21 2h-14l-5 -5q-11 -11 -13 -25zM700 377q1 -124 1 -170v-47q0 -34 -1 -42q0 -18 1 -23 q0 -3 0.5 -10t1 -18t0.5 -19q0 -42 7 -43q9 -4 52 0q20 2 22.5 7t2.5 38q-1 36 -1 120q0 92 -2 222q0 43 1 47q1 10 -3.5 14t-15.5 3q-4 -1 -10 -1q-48 1 -51 0q-5 -2 -5 -78zM568 683q-18 -1 -36 -9q-5 -3 -8 -3t-3 -2q-2 -2 -10 -5q-7 -3 -13 -9q-4 -4 -6 -4 q-5 0 -23.5 -22t-21.5 -32q-3 -6 -4 -7q-4 -2 -2 -5q0 -2 -2 -8q-3 -5 -3 -8q0 -4 -2 -4l-1 -1v-3q0 -3 -2 -9q-3 -9 -3 -18q0 -12 -2 -16q-1 -1 -1 -5v-4q-1 -4 -1 -6q-2 -10 -2 -27v-9q-2 -18 -5 -19h-2q-8 0 -10 1q-4 1 -7 0l-22 -2q-20 0 -21 -1q-2 -2 -0.5 -37.5 t3.5 -37.5q2 -1 38 -1q21 0 23 -5q2 -3 4 -86q0 -56 2 -58q1 -2 1 -8.5t-1 -7.5t-1 -23.5t2 -28.5l1 -13v-24q-1 -16 -1 -34v-63q-1 -15 2.5 -16.5t32.5 -2.5q35 0 40 3t4 24q0 7 -0.5 24t-1 47.5t-0.5 53.5q0 18 1 19q2 2 2.5 8t-1.5 8q-1 2 -2 18t0 25v82q-1 47 0.5 52 t16.5 5q3 0 13.5 0.5t15.5 0.5q8 1 21 1q12 0 18 -1l12 -1l2 6q4 11 1 41q0 1 -0.5 8t-0.5 11q0 12 -2 13.5t-18 1.5q-5 0 -17 0.5t-16 0.5q-23 0 -31 -1q-14 0 -15 1q-2 1 -1.5 22.5t2.5 32.5q2 12 1 13q0 1 2 5t2 9q0 15 7 23q5 7 6 11q4 10 18 20t25 12q10 1 18.5 2 t12.5 1t5 -1l2 -1q2 0 4 -0.5t4 -0.5q12 0 22 -5q13 -6 16 -6q2 0 7 -3q6 -5 7 3q1 5 1 35t-1.5 36.5t-7.5 6.5q-2 0 -6 2q-3 3 -7 3q-2 0 -6 2q-2 2 -8 4q-3 0 -9 2q-18 4 -28 5h-10q-6 -1 -13 -1zM243 683q-18 -1 -36 -9q-5 -3 -8 -3t-3 -2q-2 -2 -10 -5q-7 -3 -13 -9 q-4 -4 -6 -4q-5 0 -23.5 -22t-21.5 -32q-3 -6 -4 -7q-4 -2 -2 -5q0 -2 -2 -8q-3 -5 -3 -8q0 -4 -2 -4l-1 -1v-3q0 -3 -2 -9q-3 -9 -3 -18q0 -12 -2 -16q-1 -1 -1 -5v-4q-1 -4 -1 -6q-2 -10 -2 -27v-9q-2 -18 -5 -19h-2q-8 0 -10 1q-4 1 -7 0l-22 -2q-20 0 -21 -1 q-2 -2 -0.5 -37.5t3.5 -37.5q2 -1 38 -1q21 0 23 -5q2 -3 4 -86q0 -56 2 -58q1 -2 1 -8.5t-1 -7.5t-1 -23.5t2 -28.5l1 -13v-24q-1 -16 -1 -34v-63q-1 -15 2.5 -16.5t32.5 -2.5q35 0 40 3t4 24q0 7 -0.5 24t-1 47.5t-0.5 53.5q0 18 1 19q2 2 2.5 8t-1.5 8q-1 2 -2 18t0 25 v82q-1 47 0.5 52t16.5 5q3 0 13.5 0.5t15.5 0.5q8 1 21 1q12 0 18 -1l12 -1l2 6q4 11 1 41q0 1 -0.5 8t-0.5 11q0 12 -2 13.5t-18 1.5q-5 0 -17 0.5t-16 0.5q-23 0 -31 -1q-14 0 -15 1q-2 1 -1.5 22.5t2.5 32.5q2 12 1 13q0 1 2 5t2 9q0 15 7 23q5 7 6 11q4 10 18 20t25 12 q10 1 18.5 2t12.5 1t5 -1l2 -1q2 0 4 -0.5t4 -0.5q12 0 22 -5q13 -6 16 -6q2 0 7 -3q6 -5 7 3q1 5 1 35t-1.5 36.5t-7.5 6.5q-2 0 -6 2q-3 3 -7 3q-2 0 -6 2q-2 2 -8 4q-3 0 -9 2q-18 4 -28 5h-10q-6 -1 -13 -1z" />
<glyph unicode="&#xfb04;" horiz-adv-x="832" d="M757 673q-7 0 -9 -1q-2 -2 -14 -2q-11 0 -14 -3q-4 -2 -11 -2l-8 -1v-5q-2 -10 0 -113q0 -11 -1 -22q-4 -71 0 -80q1 -2 1.5 -32.5t0.5 -67.5v-70v-113q0 -24 -1 -25q-1 -2 -1 -61t2 -68q3 -7 4 -7h13q62 -1 64 7q3 14 1 21q-1 5 -3 321q0 42 -0.5 118t-0.5 92 q-1 80 -0.5 93.5t6.5 18.5t-4 6q-6 0 -12 -2q-8 -2 -13 -2zM568 683q-18 -1 -36 -9q-5 -3 -8 -3t-3 -2q-2 -2 -10 -5q-7 -3 -13 -9q-4 -4 -6 -4q-5 0 -23.5 -22t-21.5 -32q-3 -6 -4 -7q-4 -2 -2 -5q0 -2 -2 -8q-3 -5 -3 -8q0 -4 -2 -4l-1 -1v-3q0 -3 -2 -9q-3 -9 -3 -18 q0 -12 -2 -16q-1 -1 -1 -5v-4q-1 -4 -1 -6q-2 -10 -2 -27v-9q-2 -18 -5 -19h-2q-8 0 -10 1q-4 1 -7 0l-22 -2q-20 0 -21 -1q-2 -2 -0.5 -37.5t3.5 -37.5q2 -1 38 -1q21 0 23 -5q2 -3 4 -86q0 -56 2 -58q1 -2 1 -8.5t-1 -7.5t-1 -23.5t2 -28.5l1 -13v-24q-1 -16 -1 -34v-63 q-1 -15 2.5 -16.5t32.5 -2.5q35 0 40 3t4 24q0 7 -0.5 24t-1 47.5t-0.5 53.5q0 18 1 19q2 2 2.5 8t-1.5 8q-1 2 -2 18t0 25v82q-1 47 0.5 52t16.5 5q3 0 13.5 0.5t15.5 0.5q8 1 21 1q12 0 18 -1l12 -1l2 6q4 11 1 41q0 1 -0.5 8t-0.5 11q0 12 -2 13.5t-18 1.5q-5 0 -17 0.5 t-16 0.5q-23 0 -31 -1q-14 0 -15 1q-2 1 -1.5 22.5t2.5 32.5q2 12 1 13q0 1 2 5t2 9q0 15 7 23q5 7 6 11q4 10 18 20t25 12q10 1 18.5 2t12.5 1t5 -1l2 -1q2 0 4 -0.5t4 -0.5q12 0 22 -5q13 -6 16 -6q2 0 7 -3q6 -5 7 3q1 5 1 35t-1.5 36.5t-7.5 6.5q-2 0 -6 2q-3 3 -7 3 q-2 0 -6 2q-2 2 -8 4q-3 0 -9 2q-18 4 -28 5h-10q-6 -1 -13 -1zM243 683q-18 -1 -36 -9q-5 -3 -8 -3t-3 -2q-2 -2 -10 -5q-7 -3 -13 -9q-4 -4 -6 -4q-5 0 -23.5 -22t-21.5 -32q-3 -6 -4 -7q-4 -2 -2 -5q0 -2 -2 -8q-3 -5 -3 -8q0 -4 -2 -4l-1 -1v-3q0 -3 -2 -9q-3 -9 -3 -18 q0 -12 -2 -16q-1 -1 -1 -5v-4q-1 -4 -1 -6q-2 -10 -2 -27v-9q-2 -18 -5 -19h-2q-8 0 -10 1q-4 1 -7 0l-22 -2q-20 0 -21 -1q-2 -2 -0.5 -37.5t3.5 -37.5q2 -1 38 -1q21 0 23 -5q2 -3 4 -86q0 -56 2 -58q1 -2 1 -8.5t-1 -7.5t-1 -23.5t2 -28.5l1 -13v-24q-1 -16 -1 -34v-63 q-1 -15 2.5 -16.5t32.5 -2.5q35 0 40 3t4 24q0 7 -0.5 24t-1 47.5t-0.5 53.5q0 18 1 19q2 2 2.5 8t-1.5 8q-1 2 -2 18t0 25v82q-1 47 0.5 52t16.5 5q3 0 13.5 0.5t15.5 0.5q8 1 21 1q12 0 18 -1l12 -1l2 6q4 11 1 41q0 1 -0.5 8t-0.5 11q0 12 -2 13.5t-18 1.5q-5 0 -17 0.5 t-16 0.5q-23 0 -31 -1q-14 0 -15 1q-2 1 -1.5 22.5t2.5 32.5q2 12 1 13q0 1 2 5t2 9q0 15 7 23q5 7 6 11q4 10 18 20t25 12q10 1 18.5 2t12.5 1t5 -1l2 -1q2 0 4 -0.5t4 -0.5q12 0 22 -5q13 -6 16 -6q2 0 7 -3q6 -5 7 3q1 5 1 35t-1.5 36.5t-7.5 6.5q-2 0 -6 2q-3 3 -7 3 q-2 0 -6 2q-2 2 -8 4q-3 0 -9 2q-18 4 -28 5h-10q-6 -1 -13 -1z" />
</font>
</defs>
</svg>
