<?xml version="1.0" standalone="no"?>
<!DOCTYPE svg PUBLIC "-//W3C//DTD SVG 1.1//EN" "http://www.w3.org/Graphics/SVG/1.1/DTD/svg11.dtd" >
<svg xmlns="http://www.w3.org/2000/svg">
<metadata>
This is a custom SVG webfont generated by Font Squirrel.
Copyright   : OSP BETA GOTHIC
</metadata>
<defs>
<font id="whiskyjazzDemi" horiz-adv-x="1228" >
<font-face units-per-em="2048" ascent="1638" descent="-410" />
<missing-glyph horiz-adv-x="573" />
<glyph unicode=" "  horiz-adv-x="573" />
<glyph unicode="&#x09;" horiz-adv-x="573" />
<glyph unicode="&#xa0;" horiz-adv-x="573" />
<glyph unicode="!" horiz-adv-x="573" d="M147 0v262h273v-262h-273zM147 385v1128h273v-1128h-273z" />
<glyph unicode="&#x22;" horiz-adv-x="737" d="M152 1051v462h155v-462h-155zM424 1051v462h156v-462h-156z" />
<glyph unicode="#" horiz-adv-x="1146" d="M70 477v205h225l24 182h-196v203h225l60 446h184l-60 -446h179l59 446h184l-59 -446h182v-203h-211l-24 -182h182v-205h-209l-65 -477h-185l66 477h-178l-64 -477h-186l65 477h-198zM479 682h178l25 182h-176z" />
<glyph unicode="$" horiz-adv-x="1146" d="M121 483v27h274q4 -80 51.5 -128t121 -48t122.5 49t49 121q0 92 -80 143q-37 25 -215 92q-264 96 -264 369q0 180 115 295q57 55 156 78v272h260v-272q104 -20 177 -120.5t77 -232.5h-258q-25 127 -134 127q-53 0 -86.5 -36.5t-33.5 -94.5q0 -80 59 -123q39 -31 174 -81 q150 -51 213 -107q113 -100 113 -299q0 -158 -79 -269.5t-222 -150.5v-270h-260v270q-106 31 -177 86q-72 57 -112.5 138t-40.5 165z" />
<glyph unicode="%" horiz-adv-x="1761" d="M43 1169q0 156 108.5 263.5t264.5 107.5q150 0 259 -108.5t109 -260.5q0 -154 -108.5 -262t-262 -108t-262 108t-108.5 260zM264 1171.5q0 -63.5 44 -107.5t105.5 -44t106.5 45t45 106.5t-45 106.5t-106.5 45t-105.5 -44t-44 -107.5zM457 0l624 1513h211l-626 -1513h-209 zM969 342q0 156 108.5 263.5t263.5 107.5q150 0 259.5 -108.5t109.5 -260.5q0 -154 -108.5 -262.5t-262 -108.5t-262 108.5t-108.5 260.5zM1190 344.5q0 -63.5 44 -107.5t105.5 -44t106.5 45t45 106.5t-45 106.5t-106.5 45t-105.5 -44t-44 -107.5z" />
<glyph unicode="&#x26;" horiz-adv-x="1392" d="M72 457q0 137 67.5 239.5t214.5 190.5q-74 84 -100.5 141t-26.5 137q0 158 111 266.5t272 108.5q166 0 277.5 -106.5t111.5 -266.5q0 -154 -92 -258q-41 -45 -145 -112l137 -154l148 244h305l-262 -449l270 -288l-195 -177l-215 228q-96 -129 -180 -178.5t-205 -49.5 q-207 0 -350 140.5t-143 343.5zM344 440q0 -84 58.5 -140t146.5 -56q68 0 115 34.5t98 127.5l-236 253q-182 -82 -182 -219zM487 1161q0 -41 22.5 -80t82.5 -96q86 47 116.5 82t30.5 92q0 55 -34.5 90t-90.5 35q-53 0 -90 -36t-37 -87z" />
<glyph unicode="'" horiz-adv-x="450" d="M152 1051v462h155v-462h-155z" />
<glyph unicode="(" horiz-adv-x="778" d="M152 614q0 217 83.5 415t231.5 331q104 94 248 153v-294q-287 -221 -287 -605q0 -180 81 -348t206 -250v-297q-92 33 -160 78t-141 125q-125 139 -193.5 320.5t-68.5 371.5z" />
<glyph unicode=")" horiz-adv-x="778" d="M76 14q287 221 286 604q0 180 -80.5 348.5t-205.5 250.5v296q92 -33 159.5 -77.5t141.5 -124.5q125 -139 193.5 -320.5t68.5 -372.5q0 -217 -84 -414.5t-231 -330.5q-104 -94 -248 -154v295z" />
<glyph unicode="*" horiz-adv-x="901" d="M143 1135v145l203 -10l-108 176l129 65l90 -176l94 178l121 -73l-111 -170l199 12v-147l-199 10l109 -164l-117 -78l-96 180l-88 -180l-131 64l106 182z" />
<glyph unicode="+" d="M104 639v242h394v399h245v-399h394v-242h-394v-399h-245v399h-394z" />
<glyph unicode="," horiz-adv-x="573" d="M147 0v262h273v-276q0 -168 -131 -240q-55 -33 -142 -33v137q66 12 93.5 39t27.5 76q0 23 -2 35h-119z" />
<glyph unicode="-" horiz-adv-x="860" d="M152 469v242h567v-242h-567z" />
<glyph unicode="." horiz-adv-x="573" d="M147 0v262h273v-262h-273z" />
<glyph unicode="/" horiz-adv-x="942" d="M53 -262l662 1775h192l-661 -1775h-193z" />
<glyph unicode="0" horiz-adv-x="1146" d="M61 506v514q0 240 137.5 380t370.5 140q229 0 367.5 -137t138.5 -369v-528q0 -211 -96 -346q-133 -186 -397 -187q-279 0 -424 193q-97 131 -97 340zM334 514q0 -141 61.5 -216t177.5 -75q123 0 181 84q49 66 49 201v512q0 131 -60.5 200.5t-171 69.5t-174 -72.5 t-63.5 -197.5v-506z" />
<glyph unicode="1" horiz-adv-x="1146" d="M313 1257v256h463v-1513h-272v1257h-191z" />
<glyph unicode="2" horiz-adv-x="1146" d="M70 991q0 201 80 326q63 104 175.5 163.5t245.5 59.5q211 0 352.5 -141.5t141.5 -349.5q0 -160 -90 -291q-57 -90 -203 -221l-309 -281h596v-256h-979v240l538 510q174 166 175 303q0 102 -62.5 169.5t-157.5 67.5q-106 0 -170.5 -82t-64.5 -217h-268z" />
<glyph unicode="3" horiz-adv-x="1146" d="M31 459h274q14 -106 81 -171t165 -65q102 0 169.5 72t67.5 180q0 115 -80.5 184.5t-215.5 69.5h-46v262q102 2 146 21q88 37 88 135q0 63 -37 103t-96 40q-109 0 -127 -137h-277q8 92 30 149.5t69 108.5q119 129 303 129q176 0 291.5 -116.5t115.5 -290.5 q0 -168 -127 -261q236 -104 236 -391q0 -219 -144.5 -363.5t-363.5 -144.5q-217 0 -363.5 136.5t-158.5 349.5z" />
<glyph unicode="4" horiz-adv-x="1146" d="M0 227v222l696 1064h230v-1042h159v-244h-159v-227h-273v227h-653zM276 471h377v584z" />
<glyph unicode="5" horiz-adv-x="1146" d="M25 453h272q20 -111 83.5 -170.5t162.5 -59.5q111 0 180.5 78t69.5 201q0 115 -71 192.5t-175 77.5q-119 0 -211 -115l-242 66l142 790h684v-256h-480l-49 -278q102 43 195 43q207 0 343 -146.5t136 -369.5q0 -227 -147.5 -380t-366.5 -153q-256 0 -416 195 q-102 125 -110 285z" />
<glyph unicode="6" horiz-adv-x="1146" d="M43 496q0 109 34 205t116 219l395 593h325l-362 -538q61 20 123 20q180 0 299 -136t119 -343q0 -236 -146.5 -389.5t-372.5 -153.5q-229 0 -379.5 149t-150.5 374zM315 489q0 -117 73 -191.5t185 -74.5q109 0 177.5 74t68.5 192q0 117 -70.5 193t-179.5 76 q-113 0 -183.5 -74t-70.5 -195z" />
<glyph unicode="7" horiz-adv-x="1146" d="M133 1257v256h891v-256l-553 -1257h-307l573 1257h-604z" />
<glyph unicode="8" horiz-adv-x="1146" d="M63 473q0 160 87 264q41 53 131 105q-70 76 -97.5 137t-27.5 145q0 174 120.5 295t294.5 121q178 0 296 -117.5t118 -294.5q0 -184 -127 -286q84 -51 121 -92q92 -109 92 -275q0 -215 -143.5 -358.5t-358.5 -143.5q-213 0 -359.5 144.5t-146.5 355.5zM336 463 q0 -102 67.5 -171t167.5 -69q96 0 162 68.5t66 169.5q0 98 -66.5 167.5t-161.5 69.5q-98 0 -166.5 -67.5t-68.5 -167.5zM416 1124q0 -68 46 -115.5t109.5 -47.5t108.5 48t45 117.5t-44 116.5t-108 47q-68 0 -112.5 -47t-44.5 -119z" />
<glyph unicode="9" horiz-adv-x="1146" d="M45 997q0 238 145.5 390.5t368.5 152.5q229 0 380 -149.5t151 -374.5q0 -199 -150 -422l-395 -594h-326l365 539q-66 -25 -123 -25q-176 0 -296 139t-120 344zM317 1024q0 -117 70 -192.5t178 -75.5q113 0 182.5 74.5t69.5 193.5q0 117 -72.5 191.5t-185.5 74.5 q-106 0 -174 -74.5t-68 -191.5z" />
<glyph unicode=":" horiz-adv-x="573" d="M147 0v262h273v-262h-273zM147 756v272h273v-272h-273z" />
<glyph unicode=";" horiz-adv-x="573" d="M147 0v262h273v-276q0 -137 -88 -211q-70 -61 -185 -62v137q66 12 93.5 39t27.5 76v35h-121zM147 756v272h273v-272h-273z" />
<glyph unicode="&#x3c;" d="M100 528v201l1043 463v-240l-699 -321l699 -326v-237z" />
<glyph unicode="=" d="M104 430v242h1033v-242h-1033zM104 829v242h1033v-242h-1033z" />
<glyph unicode="&#x3e;" d="M98 68v237l701 322l-701 325v240l1043 -463v-201z" />
<glyph unicode="?" horiz-adv-x="1146" d="M66 1065q14 190 98 297q63 84 161.5 131t206.5 47q197 0 329 -134t132 -335q0 -102 -45 -182t-164 -184q-84 -72 -107.5 -129.5t-25.5 -192.5h-272q-2 190 48 293.5t202 228.5q92 80 92 174q0 82 -55.5 136.5t-139.5 54.5q-162 0 -188 -205h-272zM379 0v262h272v-262 h-272z" />
<glyph unicode="@" horiz-adv-x="1515" d="M6 772q0 340 226.5 568.5t562.5 228.5q217 0 393 -102.5t262 -276.5q76 -156 76 -377q0 -236 -135 -377q-125 -121 -297 -121q-164 0 -203 111q-74 -111 -232 -111q-154 0 -245.5 105.5t-91.5 286.5q0 203 118.5 339t294.5 136q84 0 137.5 -27t104.5 -92l14 111h197 l-68 -605q-2 -10 -2 -30q0 -53 56 -54q82 0 142 107.5t60 253.5q0 256 -159.5 415.5t-417.5 159.5q-279 0 -463 -186t-184 -469q0 -137 54 -264t152 -217q178 -162 463 -162q176 0 305 96l95 -123q-158 -123 -404 -123q-393 0 -620 271q-191 219 -191 528zM567 727 q0 -90 43 -142.5t117 -52.5q90 0 147.5 66t57.5 168q0 86 -42 136t-114 50q-86 0 -147.5 -65.5t-61.5 -159.5z" />
<glyph unicode="A" horiz-adv-x="1515" d="M14 0h125h226h872h264l-635 1513h-221zM428 268l328 850l331 -850h-659z" />
<glyph unicode="B" horiz-adv-x="1433" d="M139 0v1513h561q170 0 256 -15t154 -58q172 -111 172 -330q0 -106 -39 -172t-129 -113q129 -53 184 -127q74 -96 74 -247q0 -117 -51 -213.5t-145 -153.5q-135 -84 -383 -84h-654zM420 268h389q147 0 214 45t67 144q0 199 -287 198h-383v-387zM420 930h340q127 0 184 37 t57 118q0 154 -217 154h-364v-309z" />
<glyph unicode="C" horiz-adv-x="1597" d="M61 762q0 322 228.5 550t550.5 228q287 0 501 -174q76 -63 123 -125.5t92 -161.5h-313q-78 100 -172 145.5t-225 45.5q-236 0 -377 -166q-125 -145 -125 -344q0 -213 149.5 -364.5t358.5 -151.5q111 0 197 41t178 137h329q-88 -207 -277 -328t-421 -121 q-332 0 -564.5 230.5t-232.5 558.5z" />
<glyph unicode="D" horiz-adv-x="1433" d="M139 0v1513h346q356 0 537 -108q158 -94 244 -265t86 -386q0 -229 -98.5 -406.5t-272.5 -263.5q-168 -84 -489 -84h-353zM420 268h61q248 0 369 68q100 55 159.5 167.5t59.5 250.5q0 145 -61.5 259.5t-169.5 170.5q-121 61 -363 61h-55v-977z" />
<glyph unicode="E" horiz-adv-x="1433" d="M139 0v1513h1194v-268h-913v-356h891v-268h-891v-353h913v-268h-1194z" />
<glyph unicode="F" horiz-adv-x="1431" d="M139 0v1513h1192v-268h-911v-356h889v-268h-889v-621h-281z" />
<glyph unicode="G" horiz-adv-x="1720" d="M61 760q0 326 232.5 553t564.5 227q248 0 457 -133t282 -338h-329q-143 201 -416 201q-229 0 -367 -150q-63 -68 -102 -167t-39 -197q0 -217 150.5 -364.5t373.5 -147.5q150 0 266.5 69.5t178.5 196.5h-428v262h790v-37q0 -301 -217 -528q-227 -233 -573 -234 q-348 0 -586 227.5t-238 559.5z" />
<glyph unicode="H" horiz-adv-x="1433" d="M139 0v1513h281v-610h622v610h281v-1513h-281v635h-622v-635h-281z" />
<glyph unicode="I" horiz-adv-x="1431" d="M18 0v268h555v977h-555v268h1395v-268h-559v-977h559v-268h-559h-281h-555z" />
<glyph unicode="J" horiz-adv-x="1720" d="M61 756h283q0 -215 148.5 -363.5t363.5 -148.5t357.5 145.5t142.5 364.5l-2 336v428h284v-428v-332q0 -332 -225 -558.5t-555 -226.5q-334 0 -565.5 227.5t-231.5 555.5z" />
<glyph unicode="K" horiz-adv-x="1433" d="M139 0v1513h281v-653l635 653h338l-736 -743l736 -770h-338l-635 666v-666h-281z" />
<glyph unicode="L" horiz-adv-x="1435" d="M139 0v1513h281v-1245h913v-268h-1194z" />
<glyph unicode="M" horiz-adv-x="1843" d="M139 0h281l2 1245h366v-1245h281v1245h373l-2 -1245h280v1513h-385h-1196v-1513z" />
<glyph unicode="N" horiz-adv-x="1380" d="M139 0v1513h1102v-1513h-280v1245h-541v-1245h-281z" />
<glyph unicode="O" horiz-adv-x="1720" d="M61 756q0 332 230.5 558t568.5 226q324 0 551 -229.5t227 -552.5q0 -332 -225 -558.5t-555 -226.5q-334 0 -565.5 227.5t-231.5 555.5zM344 756q0 -215 148.5 -363.5t363.5 -148.5t357.5 145.5t142.5 364.5q0 217 -144.5 366.5t-355.5 149.5q-219 0 -365.5 -147.5 t-146.5 -366.5z" />
<glyph unicode="P" horiz-adv-x="1437" d="M139 0v1513h668q270 0 387 -69q205 -125 205 -397q0 -131 -53.5 -239t-145.5 -165q-63 -39 -149 -53.5t-248 -14.5h-383v-575h-281zM420 844h375q164 0 229 35q92 51 92 163q0 72 -34.5 122t-96.5 67q-63 14 -178 14h-387v-401z" />
<glyph unicode="Q" horiz-adv-x="1720" d="M61 756q0 332 230.5 558t568.5 226q324 0 551 -229.5t227 -552.5q0 -332 -225 -558.5t-555 -226.5q-334 0 -565.5 227.5t-231.5 555.5zM344 756q0 -215 148.5 -363.5t363.5 -148.5t357.5 145.5t142.5 364.5q0 217 -144.5 366.5t-355.5 149.5q-219 0 -365.5 -147.5 t-146.5 -366.5zM346 -129h1008v-281h-1008v281z" />
<glyph unicode="R" horiz-adv-x="1437" d="M139 0v1513h697q156 0 248 -24.5t165 -87.5q160 -135 160 -373q0 -225 -156 -358q-86 -74 -239 -111l409 -559h-346l-397 580h-258l-2 -580h-281zM420 791h397q162 0 235.5 54t73.5 175q0 115 -73 172q-61 53 -248 53h-385v-454z" />
<glyph unicode="S" horiz-adv-x="1064" d="M29 432h293q18 -188 204 -188q90 0 147.5 51t57.5 133q0 96 -69 154q-51 39 -263 116q-152 57 -233.5 163t-81.5 249q0 180 129 305t311 125q225 0 355 -162q86 -104 94 -268h-291q-6 78 -47 119t-113 41q-70 0 -112.5 -43t-42.5 -111q0 -84 84 -137q23 -14 167 -68 q182 -68 256 -137q135 -125 136 -315q0 -205 -139.5 -345.5t-344.5 -140.5q-121 0 -226 48.5t-173 136.5q-84 108 -98 274z" />
<glyph unicode="T" horiz-adv-x="1431" d="M18 1245v268h1395v-268h-559v-1245h-281v1245h-555z" />
<glyph unicode="U" horiz-adv-x="1720" d="M57 1118v398h287v-398v-362q0 -215 148.5 -363.5t363.5 -148.5t357.5 145.5t142.5 364.5l-2 336v428h284v-428v-332q0 -332 -225 -558.5t-555 -226.5q-334 0 -565.5 227.5t-231.5 555.5z" />
<glyph unicode="V" horiz-adv-x="1433" d="M16 1513h295l408 -1151l407 1151h295l-585 -1513h-230z" />
<glyph unicode="W" horiz-adv-x="1843" d="M14 1513h287l266 -1056l258 1056h205l254 -1056l268 1056h287l-442 -1513h-223l-244 1001l-250 -1001h-221z" />
<glyph unicode="X" horiz-adv-x="1392" d="M10 0l520 754l-520 759h334l352 -528l363 528h325l-524 -759l524 -754h-325l-363 522l-352 -522h-334z" />
<glyph unicode="Y" horiz-adv-x="1269" d="M6 1513h303l336 -696l334 696h303l-498 -954v-559h-280v559z" />
<glyph unicode="Z" horiz-adv-x="1437" d="M37 0v238l921 1007h-890v268h1286v-251l-918 -994h957v-268h-1356z" />
<glyph unicode="[" horiz-adv-x="655" d="M152 383v530q0 279 155 443q55 57 117.5 91t173.5 66v-301q-98 -41 -129 -108q-41 -92 -41 -246v-522q0 -123 41 -209q35 -72 129 -107v-301q-121 29 -202 83.5t-144 150.5q-100 158 -100 430z" />
<glyph unicode="\" horiz-adv-x="1310" d="M172 1513h193l665 -1513h-192z" />
<glyph unicode="]" horiz-adv-x="655" d="M76 20q98 41 129 109q41 92 41 246v522q0 123 -41 209q-33 68 -129 106v301q123 -29 203.5 -83t142.5 -150q100 -158 100 -430v-531q0 -279 -155 -442q-98 -102 -291 -158v301z" />
<glyph unicode="^" d="M129 743l367 770h249l367 -770l-213 -102l-278 565l-279 -565z" />
<glyph unicode="_" horiz-adv-x="1024" d="M0 -98h1024v-185h-1024v185z" />
<glyph unicode="`" horiz-adv-x="860" d="M152 1509l116 181l455 -273l-109 -162z" />
<glyph unicode="a" horiz-adv-x="1351" d="M61 563q0 260 163 429t415 169q236 0 371 -178v152h250v-1135h-250v147q-82 -92 -170 -133t-207 -41q-248 0 -410 167t-162 423zM336 557q0 -150 93 -242t243 -92q162 0 248 103q82 96 81 233q0 156 -94 254t-239.5 98t-238.5 -99t-93 -255z" />
<glyph unicode="b" horiz-adv-x="1351" d="M111 0v1513h272v-483q78 78 160 112t192 34q244 0 408 -172.5t164 -428.5q0 -231 -133 -403q-156 -199 -420 -199q-127 0 -216 39t-178 133v-145h-249zM367 575q0 -156 94 -254t241 -98q145 0 237.5 97.5t92.5 252.5q0 152 -95 252.5t-241 100.5q-143 0 -236 -98.5 t-93 -252.5z" />
<glyph unicode="c" horiz-adv-x="1310" d="M61 567q0 250 173.5 422t424.5 172q246 0 418 -160q102 -94 154 -245h-307q-82 156 -265 155q-141 0 -232 -96t-91 -245.5t94 -248t236 -98.5q162 0 258 150h307q-72 -190 -218.5 -295t-344.5 -105q-252 0 -429.5 173t-177.5 421z" />
<glyph unicode="d" horiz-adv-x="1351" d="M61 569q0 254 165 430.5t403 176.5q225 0 354 -142v479h272v-1513h-249v147q-154 -174 -375 -174q-242 0 -406 172t-164 424zM336 582q0 -152 97 -255.5t241 -103.5q139 0 234.5 101.5t95.5 248.5q0 150 -96.5 251.5t-239.5 101.5q-139 0 -235.5 -99.5t-96.5 -244.5z" />
<glyph unicode="e" horiz-adv-x="1310" d="M61 563q0 250 174.5 424t423.5 174q254 0 420 -173t166 -437q0 -55 -10 -105h-879q25 -102 109 -162.5t205 -60.5q84 0 140 25.5t110 87.5h297q-25 -76 -91 -158q-178 -205 -450 -205q-260 0 -437.5 170t-177.5 420zM348 686h629q-27 109 -108 167t-205 58 q-248 0 -316 -225z" />
<glyph unicode="f" horiz-adv-x="573" d="M20 887v227h99q18 188 90 272q104 127 285 127q35 0 67 -4v-258h-26q-80 0 -111 -29.5t-33 -107.5h154v-227h-154v-887h-272v887h-99z" />
<glyph unicode="g" horiz-adv-x="1351" d="M61 575q0 -262 157 -432t400 -170q119 0 206 41t167 136q-14 -360 -315 -363v-240q301 4 461 207q115 150 114 461v920h-260v-144q-125 170 -370 170q-242 0 -401 -167t-159 -419zM336 563q0 158 86 253t229 95q145 0 236.5 -96t91.5 -252q0 -154 -89 -247t-234.5 -93 t-232.5 92t-87 248z" />
<glyph unicode="h" d="M111 0v1513h272v-456q119 106 289 106q252 0 368 -180q76 -115 76 -342v-641h-272v580q0 178 -51.5 254.5t-169.5 76.5q-139 0 -201 -108q-39 -70 -39 -228v-575h-272z" />
<glyph unicode="i" horiz-adv-x="491" d="M111 0v1135h272v-1135h-272zM111 1257v256h272v-256h-272z" />
<glyph unicode="j" horiz-adv-x="532" d="M35 -115q76 14 94 45t18 152v1053h273v-1059q0 -244 -121 -357q-104 -98 -264 -98v264zM147 1257v256h273v-256h-273z" />
<glyph unicode="k" horiz-adv-x="1187" d="M111 0v1513h272v-913l362 535h326l-405 -555l471 -580h-367l-387 530v-530h-272z" />
<glyph unicode="l" horiz-adv-x="491" d="M111 0v1513h272v-1513h-272z" />
<glyph unicode="m" horiz-adv-x="1925" d="M111 0v1135h249v-107q59 72 127 102.5t168 30.5q223 0 334 -176q133 176 365 176q129 0 230.5 -47t154.5 -133q74 -117 73 -326v-655h-272v623q0 160 -51 219q-57 70 -162 69q-135 0 -190 -108q-39 -72 -39 -244v-559h-273v623q0 156 -47 217q-59 72 -174 71 q-141 0 -192 -116q-29 -74 -29 -236v-559h-272z" />
<glyph unicode="n" d="M111 0v1135h251v-109q141 135 320 135q242 0 354 -164q45 -66 63.5 -151.5t18.5 -237.5v-608h-272v555q0 213 -53 285q-55 72 -164 71q-135 0 -201 -104q-45 -72 -45 -272v-535h-272z" />
<glyph unicode="o" horiz-adv-x="1310" d="M61 567q0 244 176.5 419t424.5 175q256 0 431 -174t175 -428q0 -240 -178.5 -413t-425.5 -173q-250 0 -426.5 174t-176.5 420zM336 571q0 -145 96 -246.5t234 -101.5q135 0 231 100.5t96 243.5q0 141 -96 242.5t-233 101.5q-133 0 -230.5 -100.5t-97.5 -239.5z" />
<glyph unicode="p" horiz-adv-x="1351" d="M111 -379v1514h249v-134q137 160 373 160q246 0 405.5 -167t159.5 -423q0 -258 -160.5 -428t-406.5 -170q-201 0 -348 133v-485h-272zM367 569q0 -150 95 -248t240 -98q135 0 228.5 99.5t93.5 242.5q0 147 -93 246.5t-233 99.5q-141 0 -236 -98.5t-95 -243.5z" />
<glyph unicode="q" horiz-adv-x="1351" d="M61 571q0 246 167 418t405 172q242 0 368 -172v146h250v-1514h-272v488q-135 -135 -342 -136q-244 0 -410 172t-166 426zM336 565q0 -147 95 -244.5t239 -97.5q139 0 232 97.5t93 242.5q0 150 -92 249t-231 99q-145 0 -240.5 -98t-95.5 -248z" />
<glyph unicode="r" horiz-adv-x="655" d="M111 0v1135h249v-111q53 78 105.5 107.5t140.5 29.5h21v-262q-244 -6 -244 -268v-631h-272z" />
<glyph unicode="s" horiz-adv-x="901" d="M39 360h274q20 -72 56.5 -104.5t95.5 -32.5q53 0 88 32t35 79q0 55 -51 88q-33 20 -142 57q-170 57 -242.5 134t-72.5 202q0 145 109.5 245.5t267.5 100.5q178 0 291 -125q76 -84 81 -215h-266q-18 90 -106 90q-45 0 -75 -27.5t-30 -68.5q0 -51 56 -76q27 -12 137 -47 q152 -47 209 -96q106 -84 106 -236q0 -162 -117.5 -274.5t-287.5 -112.5q-102 0 -193.5 42t-146.5 116q-60 79 -76 229z" />
<glyph unicode="t" horiz-adv-x="614" d="M18 887v248h134v378h272v-378h164v-248h-164v-887h-272v887h-134z" />
<glyph unicode="u" d="M111 526v609h272v-555q0 -215 55 -285q53 -72 160 -72q145 0 207 105q43 66 43 272v535h272v-1135h-252v109q-76 -76 -149.5 -106t-175.5 -30q-229 0 -346 168q-47 72 -66.5 157t-19.5 228z" />
<glyph unicode="v" horiz-adv-x="1146" d="M2 1135h303l262 -752l258 752h308l-457 -1135h-217z" />
<glyph unicode="w" horiz-adv-x="1638" d="M20 1135h293l203 -693l191 693h217l186 -693l207 693h291l-410 -1135h-170l-215 735l-219 -735h-168z" />
<glyph unicode="x" horiz-adv-x="1146" d="M2 0l401 586l-348 549h307l205 -342l201 342h307l-346 -549l404 -586h-328l-238 389l-237 -389h-328z" />
<glyph unicode="y" horiz-adv-x="1187" d="M12 1135h312l251 -736l275 736h313l-655 -1514h-293l213 485z" />
<glyph unicode="z" horiz-adv-x="942" d="M41 0v244l500 647h-443v244h768v-244l-499 -647h538v-244h-864z" />
<glyph unicode="{" horiz-adv-x="696" d="M76 543v166q166 20 166 200v322q0 152 68.5 218.5t224.5 66.5q53 0 83 -3v-163q-109 -8 -135 -43t-26 -166v-252q0 -121 -41 -179.5t-144 -84.5q102 -25 143.5 -84.5t41.5 -178.5v-251q0 -131 26.5 -166t134.5 -43v-164q-31 -2 -83 -2q-156 0 -224.5 66.5t-68.5 217.5 v322q0 181 -166 201z" />
<glyph unicode="|" d="M498 0v1513h243v-1513h-243z" />
<glyph unicode="}" horiz-adv-x="696" d="M78 -98q109 8 135.5 43t26.5 166v251q0 121 41 179.5t143 85.5q-102 25 -143 84t-41 178v252q0 131 -27 165.5t-135 43.5v163q31 2 84 3q156 0 224.5 -67t68.5 -218v-322q0 -180 166 -200v-166q-166 -20 -166 -201v-322q0 -152 -69 -218t-224 -66q-53 0 -84 2v164z" />
<glyph unicode="~" d="M104 592q68 111 99 147q82 104 205 105q80 0 157 -33l137 -55q111 -45 146 -45q74 0 158 151l131 -151q-80 -131 -146.5 -185.5t-150.5 -54.5q-68 0 -187 49l-110 45q-90 39 -131 39q-53 0 -97 -45q-12 -12 -67 -100q-6 -4 -15 -21z" />
<glyph unicode="&#xa1;" horiz-adv-x="573" d="M147 -379v1129h273v-1129h-273zM147 872v263h273v-263h-273z" />
<glyph unicode="&#xa2;" horiz-adv-x="1146" d="M80 780q0 213 151 359q82 80 215 112v213h256v-213q131 -33 223.5 -125t121.5 -219h-291q-68 94 -191 94q-90 0 -151.5 -64.5t-61.5 -160.5t62.5 -159.5t158.5 -63.5q100 0 175 82h299q-106 -268 -345 -332v-223h-256v223q-139 33 -229 127q-137 141 -137 350z" />
<glyph unicode="&#xa3;" horiz-adv-x="1146" d="M0 635v256h119q-35 78 -35 166q0 203 142.5 343t346.5 140q195 0 329 -120t151 -312h-277q-23 88 -75 135t-126 47q-92 0 -155.5 -70.5t-63.5 -172.5q0 -88 56 -156h424v-256h-220q66 -129 66 -225q0 -78 -27 -154q84 0 127 25q98 53 99 170q0 45 -21 110h270 q23 -59 23 -106q0 -211 -154 -344q-72 -61 -156.5 -86t-226.5 -25h-532v256h285q41 70 41 150q0 119 -119 229h-291z" />
<glyph unicode="&#xa4;" horiz-adv-x="1146" d="M55 469l86 88q-45 84 -59 135t-14 127t14 128t59 136l-86 93l164 163l92 -90q121 74 262 74q139 0 271 -74l92 88l158 -166l-86 -88q76 -131 75 -266q0 -139 -77 -262l86 -88l-158 -164l-90 86q-127 -76 -269 -76q-139 0 -268 76l-90 -86zM313 819q0 -106 78 -183 t184 -77q109 0 184 75t75 183q0 106 -75 183t-177 77q-113 0 -191 -74.5t-78 -183.5z" />
<glyph unicode="&#xa5;" horiz-adv-x="1146" d="M-72 1513h305l328 -698l330 698h315l-293 -555h189v-180h-287l-117 -215h404v-180h-404v-383h-272v383h-401v180h401l-115 215h-286v180h192z" />
<glyph unicode="&#xa6;" d="M498 0v618h243v-618h-243zM498 895v618h243v-618h-243z" />
<glyph unicode="&#xa7;" horiz-adv-x="1146" d="M82 711q0 180 160 299q-57 88 -58 190q0 150 115 245t297 95t289.5 -98.5t132.5 -288.5h-258q-27 137 -176 137q-63 0 -101.5 -26.5t-38.5 -71.5q0 -84 125 -143l336 -166q82 -41 130 -118t48 -167q0 -176 -153 -291q102 -104 102 -244q0 -170 -124 -277.5t-316 -107.5 q-246 0 -375 168q-80 102 -94 267h274q0 -59 13 -88q47 -96 184 -97q76 0 127 38t51 95q0 43 -29.5 73t-119.5 77l-334 172q-207 105 -207 328zM322 725q0 -66 122 -129l310 -156q76 53 75 129q0 37 -24.5 62.5t-97.5 62.5l-306 152q-79 -64 -79 -121z" />
<glyph unicode="&#xa8;" horiz-adv-x="1024" d="M152 1290v273h272v-273h-272zM582 1290v273h272v-273h-272z" />
<glyph unicode="&#xa9;" horiz-adv-x="1515" d="M-25 757.5q0 323.5 231.5 553t557.5 229.5q332 0 561 -230.5t229 -561.5q0 -317 -233.5 -546t-554.5 -229q-328 0 -559.5 230.5t-231.5 554zM139 758q0 -256 183.5 -438.5t441.5 -182.5q256 0 441.5 181.5t185.5 431.5q0 266 -182.5 449t-444.5 183q-258 0 -441.5 -183 t-183.5 -441zM330 764q0 184 128 312t314 128q158 0 283 -98t149 -242h-227q-25 70 -80 110t-125 40q-96 0 -161.5 -72t-65.5 -176q0 -106 65.5 -180t161.5 -74q137 0 205 143h227q-37 -150 -154.5 -241.5t-273.5 -91.5q-186 0 -316 129t-130 313z" />
<glyph unicode="&#xaa;" horiz-adv-x="737" d="M57 1212q0 135 88 229.5t213 94.5q119 0 199 -102v79h135v-610h-135v84q-80 -104 -209 -104q-123 0 -207 95t-84 234zM63 635v143h637v-143h-637zM213 1206q0 -72 48 -122t118 -50t118 51.5t48 125t-48 123.5t-118 50t-118 -52t-48 -126z" />
<glyph unicode="&#xab;" horiz-adv-x="942" d="M74 489v205l284 267v-252l-137 -117l137 -119v-252zM510 489v205l285 267v-252l-138 -117l138 -119v-252z" />
<glyph unicode="&#xac;" d="M104 735v234h1033v-596h-234v362h-799z" />
<glyph unicode="&#xad;" horiz-adv-x="860" d="M152 469v242h567v-242h-567z" />
<glyph unicode="&#xae;" horiz-adv-x="1515" d="M-25 757.5q0 323.5 231.5 553t557.5 229.5q332 0 561 -230.5t229 -561.5q0 -317 -233.5 -546t-554.5 -229q-328 0 -559.5 230.5t-231.5 554zM139 758q0 -256 183.5 -438.5t441.5 -182.5q256 0 441.5 181.5t185.5 431.5q0 266 -182.5 449t-444.5 183q-258 0 -441.5 -183 t-183.5 -441zM469 340v846h268q106 0 160.5 -13.5t97.5 -48.5q104 -82 105 -229q0 -104 -57.5 -177t-151.5 -89l229 -289h-248l-196 274v-274h-207zM676 762h76q141 0 141 119q0 115 -139 114h-78v-233z" />
<glyph unicode="&#xaf;" horiz-adv-x="860" d="M152 1327v205h567v-205h-567z" />
<glyph unicode="&#xb0;" horiz-adv-x="819" d="M102 1094q0 131 91.5 221t224.5 90q127 0 213 -91t86 -222t-89 -222.5t-218 -91.5t-218.5 91.5t-89.5 224.5zM217 1092q0 -82 57.5 -139.5t135.5 -57.5q80 0 135 57.5t55 139.5t-54 139t-132 57q-82 0 -139.5 -57t-57.5 -139z" />
<glyph unicode="&#xb1;" d="M104 0v242h1033v-242h-1033zM104 696v242h394v399h245v-399h394v-242h-394v-338h-245v338h-394z" />
<glyph unicode="&#xb2;" horiz-adv-x="688" d="M20 1192q0 125 52 205q43 61 115.5 97t158.5 36q137 0 229.5 -86t92.5 -213q0 -162 -183 -307l-192 -154h371v-164h-637v152l348 303q63 57 87.5 95t24.5 79q0 57 -39.5 95t-99.5 38q-70 0 -108.5 -46t-40.5 -130h-179z" />
<glyph unicode="&#xb3;" horiz-adv-x="688" d="M8 891h180q10 -66 52.5 -102.5t108 -36.5t108.5 39.5t43 101.5q0 66 -52.5 104.5t-142.5 38.5h-43v168q94 2 132 21.5t38 64.5q0 35 -24.5 56.5t-63.5 21.5q-72 0 -86 -82h-182q10 106 65 164q82 78 201 78q117 0 193.5 -71t76.5 -177q0 -98 -69 -152q135 -63 135 -229 q0 -133 -93 -221t-236.5 -88t-238 84t-102.5 217z" />
<glyph unicode="&#xb4;" horiz-adv-x="860" d="M152 1415l458 275l111 -189l-465 -246z" />
<glyph unicode="&#xb5;" horiz-adv-x="1179" d="M111 -379v1514h272v-535q0 -125 8 -172t37 -92q74 -113 199 -113t184 105q37 68 37 272v535h272v-1135h-252v109q-61 -74 -118.5 -105t-135.5 -31q-135 0 -231 133v-485h-272z" />
<glyph unicode="&#xb6;" d="M76 1092q0 119 52 213t146 145q115 63 359 63h446v-1775h-207v1556h-172v-1556h-206v938q-186 2 -302 118t-116 298z" />
<glyph unicode="&#xb7;" horiz-adv-x="573" d="M147 614v273h273v-273h-273z" />
<glyph unicode="&#xb8;" horiz-adv-x="696" d="M152 -340h124q27 -61 78 -61q33 0 56.5 27.5t23.5 66.5q0 37 -23.5 63.5t-56.5 26.5q-39 0 -78 -55l-106 53l74 219h106l-43 -119q37 14 60 15q76 0 131 -61.5t55 -145.5q0 -90 -54.5 -146.5t-142.5 -56.5q-78 0 -135 48t-69 126z" />
<glyph unicode="&#xb9;" horiz-adv-x="688" d="M193 1350v163h301v-907h-181v744h-120z" />
<glyph unicode="&#xba;" horiz-adv-x="737" d="M63 637v143h629v-143h-629zM63 1227q0 127 93.5 218t222.5 91q131 0 222 -92t91 -223t-92 -223.5t-223 -92.5q-129 0 -221.5 94.5t-92.5 227.5zM213 1227q0 -74 46 -122t118 -48q70 0 118 47t48 119q0 70 -49.5 120t-114.5 50q-68 0 -117 -49t-49 -117z" />
<glyph unicode="&#xbb;" horiz-adv-x="942" d="M150 221v252l137 119l-137 117v252l284 -267v-205zM586 221v252l137 119l-137 117v252l284 -267v-205z" />
<glyph unicode="&#xbc;" horiz-adv-x="1720" d="M193 1350v163h301v-907h-181v744h-120zM451 0l626 1513h195l-627 -1513h-194zM1036 135v137l426 635h152v-616h98v-156h-98v-135h-180v135h-398zM1225 291h209v315z" />
<glyph unicode="&#xbd;" horiz-adv-x="1720" d="M193 1350v163h301v-907h-181v744h-120zM408 0l626 1513h195l-627 -1513h-194zM1053 586q0 125 51 205q43 61 115.5 97t158.5 36q137 0 229.5 -86t92.5 -213q0 -162 -182 -308l-193 -153h371v-164h-637v152l348 303q63 57 88 95t25 79q0 57 -40 95t-100 38 q-70 0 -108.5 -46t-40.5 -130h-178z" />
<glyph unicode="&#xbe;" horiz-adv-x="1720" d="M8 891h180q10 -66 52.5 -102.5t108 -36.5t108.5 39.5t43 101.5q0 66 -52.5 104.5t-142.5 38.5h-43v168q94 2 132 21.5t38 64.5q0 35 -24.5 56.5t-63.5 21.5q-72 0 -86 -82h-182q10 106 65 164q82 78 201 78q117 0 193.5 -71t76.5 -177q0 -98 -69 -152q135 -63 135 -229 q0 -133 -93 -221t-236.5 -88t-238 84t-102.5 217zM512 0l627 1513h194l-626 -1513h-195zM1036 135v137l426 635h152v-616h98v-156h-98v-135h-180v135h-398zM1225 291h209v315z" />
<glyph unicode="&#xbf;" horiz-adv-x="1146" d="M141 63q0 102 45 182.5t164 184.5q94 84 113 143q20 57 20 142v37h273v-41q0 -184 -78 -303q-33 -49 -60.5 -78t-111.5 -101q-92 -78 -92 -174q0 -82 55 -136t139 -54q164 0 189 205h272q-16 -195 -98 -297q-63 -84 -161.5 -131.5t-207.5 -47.5q-197 0 -329 134t-132 335 zM483 872v263h273v-263h-273z" />
<glyph unicode="&#xc0;" horiz-adv-x="1515" d="M14 0l631 1513h221l635 -1513h-309l-162 391h-538l-168 -391h-310zM403 1868l117 180l455 -272l-109 -162zM594 659h324l-162 459z" />
<glyph unicode="&#xc1;" horiz-adv-x="1515" d="M14 0l631 1513h221l635 -1513h-309l-162 391h-538l-168 -391h-310zM541 1774l458 274l111 -188l-465 -246zM594 659h324l-162 459z" />
<glyph unicode="&#xc2;" horiz-adv-x="1515" d="M14 0l631 1513h221l635 -1513h-309l-162 391h-538l-168 -391h-310zM350 1649l301 282h219l297 -282h-297l-108 131l-111 -131h-301zM594 659h324l-162 459z" />
<glyph unicode="&#xc3;" horiz-adv-x="1515" d="M14 0l631 1513h221l635 -1513h-309l-162 391h-538l-168 -391h-310zM420 1825q53 53 100 74.5t111 21.5q53 0 123 -29q57 -23 96 -22q76 0 137 69l111 -165q-92 -113 -193 -113q-43 0 -121 27q-70 25 -110 24q-37 0 -60.5 -8t-83.5 -43zM594 659h324l-162 459z" />
<glyph unicode="&#xc4;" horiz-adv-x="1515" d="M14 0l631 1513h221l635 -1513h-309l-162 391h-538l-168 -391h-310zM408 1649v272h272v-272h-272zM594 659h324l-162 459zM838 1649v272h272v-272h-272z" />
<glyph unicode="&#xc5;" horiz-adv-x="1515" d="M14 0l631 1513h221l635 -1513h-309l-162 391h-538l-168 -391h-310zM547 1819q0 88 62.5 149.5t150.5 61.5q86 0 147.5 -62.5t61.5 -148.5q0 -88 -62.5 -149.5t-148.5 -61.5q-88 0 -149.5 61.5t-61.5 149.5zM594 659h324l-162 459zM684 1818.5q0 -30.5 21.5 -52t52 -21.5 t52 21.5t21.5 52t-21.5 52t-52 21.5t-52 -21.5t-21.5 -52z" />
<glyph unicode="&#xc6;" horiz-adv-x="1843" d="M35 0l997 1513h694v-268h-446v-356h424v-268h-424v-353h446v-268h-727v391h-397l-229 -391h-338zM764 659h235v392z" />
<glyph unicode="&#xc7;" horiz-adv-x="1597" d="M61 762q0 322 228.5 550t550.5 228q287 0 501 -174q76 -63 123 -125.5t92 -161.5h-313q-78 100 -172 145.5t-225 45.5q-236 0 -377 -166q-125 -145 -125 -344q0 -213 149.5 -364.5t358.5 -151.5q111 0 197 41t178 137h329q-94 -217 -291.5 -337t-447.5 -112l-33 -92 q41 14 60 15q78 0 133 -61.5t55 -145.5q0 -90 -54 -146.5t-142 -56.5q-80 0 -137.5 48t-69.5 126h127q25 -61 78 -61q33 0 56 27.5t23 66.5q0 37 -23.5 63.5t-55.5 26.5q-41 0 -78 -55l-109 53l68 205q-274 41 -464 266t-190 510z" />
<glyph unicode="&#xc8;" horiz-adv-x="1064" d="M139 0v1513h813v-268h-532v-356h510v-268h-510v-353h532v-268h-813zM178 1868l117 180l455 -272l-109 -162z" />
<glyph unicode="&#xc9;" horiz-adv-x="1064" d="M139 0v1513h813v-268h-532v-356h510v-268h-510v-353h532v-268h-813zM356 1774l459 274l111 -188l-465 -246z" />
<glyph unicode="&#xca;" horiz-adv-x="1064" d="M131 1649l301 282h219l297 -282h-297l-108 131l-111 -131h-301zM139 0v1513h813v-268h-532v-356h510v-268h-510v-353h532v-268h-813z" />
<glyph unicode="&#xcb;" horiz-adv-x="1064" d="M139 0v1513h813v-268h-532v-356h510v-268h-510v-353h532v-268h-813zM195 1649v272h272v-272h-272zM625 1649v272h272v-272h-272z" />
<glyph unicode="&#xcc;" horiz-adv-x="573" d="M8 1868l117 180l455 -272l-109 -162zM139 0v1513h281v-1513h-281z" />
<glyph unicode="&#xcd;" horiz-adv-x="573" d="M8 1774l459 274l111 -188l-465 -246zM139 0v1513h281v-1513h-281z" />
<glyph unicode="&#xce;" horiz-adv-x="573" d="M-115 1649l301 282h220l296 -282h-296l-109 131l-111 -131h-301zM139 0v1513h281v-1513h-281z" />
<glyph unicode="&#xcf;" horiz-adv-x="573" d="M-74 1649v272h273v-272h-273zM139 0v1513h281v-1513h-281zM356 1649v272h273v-272h-273z" />
<glyph unicode="&#xd0;" horiz-adv-x="1519" d="M29 645v219h196v649h346q356 0 537 -108q158 -94 244 -265t86 -388q0 -229 -98.5 -405.5t-272.5 -262.5q-168 -84 -489 -84h-353v645h-196zM506 268h61q248 0 369 68q102 55 160.5 167.5t58.5 250.5q0 145 -62.5 259.5t-168.5 170.5q-121 61 -363 61h-55v-381h315v-219 h-315v-377z" />
<glyph unicode="&#xd1;" horiz-adv-x="1515" d="M139 0v1513h320l626 -1101v1101h281v-1513h-313l-633 1100v-1100h-281zM428 1825q53 53 100 74.5t111 21.5q53 0 123 -29q57 -23 96 -22q76 0 137 69l111 -165q-92 -113 -193 -113q-43 0 -120 27q-70 25 -111 24q-37 0 -60.5 -8t-82.5 -43z" />
<glyph unicode="&#xd2;" horiz-adv-x="1720" d="M61 756q0 332 230.5 558t568.5 226q324 0 551 -229.5t227 -552.5q0 -332 -225 -558.5t-555 -226.5q-334 0 -565.5 227.5t-231.5 555.5zM344 756q0 -215 148.5 -363.5t363.5 -148.5t357.5 145.5t142.5 364.5q0 217 -144.5 366.5t-355.5 149.5q-219 0 -365.5 -147.5 t-146.5 -366.5zM565 1868l117 180l455 -272l-109 -162z" />
<glyph unicode="&#xd3;" horiz-adv-x="1720" d="M61 756q0 332 230.5 558t568.5 226q324 0 551 -229.5t227 -552.5q0 -332 -225 -558.5t-555 -226.5q-334 0 -565.5 227.5t-231.5 555.5zM344 756q0 -215 148.5 -363.5t363.5 -148.5t357.5 145.5t142.5 364.5q0 217 -144.5 366.5t-355.5 149.5q-219 0 -365.5 -147.5 t-146.5 -366.5zM565 1774l459 274l111 -188l-465 -246z" />
<glyph unicode="&#xd4;" horiz-adv-x="1720" d="M61 756q0 332 230.5 558t568.5 226q324 0 551 -229.5t227 -552.5q0 -332 -225 -558.5t-555 -226.5q-334 0 -565.5 227.5t-231.5 555.5zM344 756q0 -215 148.5 -363.5t363.5 -148.5t357.5 145.5t142.5 364.5q0 217 -144.5 366.5t-355.5 149.5q-219 0 -365.5 -147.5 t-146.5 -366.5zM442 1649l301 282h220l297 -282h-297l-109 131l-111 -131h-301z" />
<glyph unicode="&#xd5;" horiz-adv-x="1720" d="M61 756q0 332 230.5 558t568.5 226q324 0 551 -229.5t227 -552.5q0 -332 -225 -558.5t-555 -226.5q-334 0 -565.5 227.5t-231.5 555.5zM344 756q0 -215 148.5 -363.5t363.5 -148.5t357.5 145.5t142.5 364.5q0 217 -144.5 366.5t-355.5 149.5q-219 0 -365.5 -147.5 t-146.5 -366.5zM512 1825q53 53 100 74.5t111 21.5q53 0 123 -29q55 -23 96 -22q76 0 137 69l111 -165q-92 -113 -193 -113q-43 0 -120 27q-70 25 -111 24q-37 0 -60.5 -8t-82.5 -43z" />
<glyph unicode="&#xd6;" horiz-adv-x="1720" d="M61 756q0 332 230.5 558t568.5 226q324 0 551 -229.5t227 -552.5q0 -332 -225 -558.5t-555 -226.5q-334 0 -565.5 227.5t-231.5 555.5zM344 756q0 -215 148.5 -363.5t363.5 -148.5t357.5 145.5t142.5 364.5q0 217 -144.5 366.5t-355.5 149.5q-219 0 -365.5 -147.5 t-146.5 -366.5zM500 1649v272h272v-272h-272zM930 1649v272h272v-272h-272z" />
<glyph unicode="&#xd7;" d="M104 401l349 349l-349 348l168 168l349 -348l348 348l168 -168l-349 -348l349 -349l-168 -168l-348 349l-349 -349z" />
<glyph unicode="&#xd8;" horiz-adv-x="1720" d="M61 758q0 326 230.5 554t560.5 228q174 0 338 -72l127 189l194 -135l-125 -185q258 -236 259 -579q0 -332 -226.5 -558.5t-556.5 -226.5q-182 0 -344 74l-123 -180l-196 133l120 178q-123 111 -190.5 263.5t-67.5 316.5zM344 758q0 -195 133 -346l557 827q-88 31 -182 31 q-213 0 -360.5 -148.5t-147.5 -363.5zM674 276q92 -33 186 -32q215 0 358.5 145.5t143.5 364.5q0 199 -131 352z" />
<glyph unicode="&#xd9;" horiz-adv-x="1310" d="M139 555v958h281v-958q0 -145 37 -209q63 -102 194 -102q129 0 193 102q37 63 37 209v958h280v-958q0 -250 -102 -387q-68 -90 -177.5 -142.5t-232.5 -52.5q-133 0 -247.5 60.5t-180.5 165.5q-82 131 -82 356zM283 1868l116 180l455 -272l-109 -162z" />
<glyph unicode="&#xda;" horiz-adv-x="1310" d="M139 555v958h281v-958q0 -145 37 -209q63 -102 194 -102q129 0 193 102q37 63 37 209v958h280v-958q0 -250 -102 -387q-68 -90 -177.5 -142.5t-232.5 -52.5q-133 0 -247.5 60.5t-180.5 165.5q-82 131 -82 356zM449 1774l458 274l111 -188l-465 -246z" />
<glyph unicode="&#xdb;" horiz-adv-x="1310" d="M139 555v958h281v-958q0 -145 37 -209q63 -102 194 -102q129 0 193 102q37 63 37 209v958h280v-958q0 -250 -102 -387q-68 -90 -177.5 -142.5t-232.5 -52.5q-133 0 -247.5 60.5t-180.5 165.5q-82 131 -82 356zM242 1649l301 282h219l297 -282h-297l-109 131l-110 -131 h-301z" />
<glyph unicode="&#xdc;" horiz-adv-x="1310" d="M139 555v958h281v-958q0 -145 37 -209q63 -102 194 -102q129 0 193 102q37 63 37 209v958h280v-958q0 -250 -102 -387q-68 -90 -177.5 -142.5t-232.5 -52.5q-133 0 -247.5 60.5t-180.5 165.5q-82 131 -82 356zM299 1649v272h272v-272h-272zM729 1649v272h272v-272h-272z " />
<glyph unicode="&#xdd;" horiz-adv-x="1269" d="M6 1513h303l336 -696l334 696h303l-498 -954v-559h-280v559zM442 1774l459 274l111 -188l-465 -246z" />
<glyph unicode="&#xde;" horiz-adv-x="1146" d="M139 0v1513h281v-268h94q270 0 387 -69q205 -125 205 -398q0 -131 -53.5 -238.5t-145.5 -166.5q-63 -39 -149 -53.5t-248 -14.5h-90v-305h-281zM420 573h82q164 0 229 35q92 51 92 164q0 72 -34.5 123t-96.5 68q-59 14 -178 14h-94v-404z" />
<glyph unicode="&#xdf;" d="M104 0v997q0 188 66 320q55 104 158.5 163.5t228.5 59.5q188 0 317.5 -121t129.5 -301q0 -197 -154 -282q129 -29 203 -91q143 -113 143 -303q0 -207 -134 -338t-345 -131q-248 0 -363 189v-162h-250zM377 387h168q14 -70 68.5 -117t121.5 -47q80 0 133.5 56.5 t53.5 140.5q0 135 -117 190q-74 35 -260 35h-23v242h23q80 0 132 60.5t52 150.5q0 88 -48 140t-126 52q-178 0 -178 -260v-643z" />
<glyph unicode="&#xe0;" horiz-adv-x="1351" d="M61 563q0 260 163 429t415 169q236 0 371 -178v152h250v-1135h-250v147q-82 -92 -170 -133t-207 -41q-248 0 -410 167t-162 423zM336 557q0 -150 93 -242t243 -92q162 0 248 103q82 96 81 233q0 156 -94 254t-239.5 98t-238.5 -99t-93 -255zM348 1509l117 181l455 -273 l-109 -162z" />
<glyph unicode="&#xe1;" horiz-adv-x="1351" d="M61 563q0 260 163 429t415 169q236 0 371 -178v152h250v-1135h-250v147q-82 -92 -170 -133t-207 -41q-248 0 -410 167t-162 423zM336 557q0 -150 93 -242t243 -92q162 0 248 103q82 96 81 233q0 156 -94 254t-239.5 98t-238.5 -99t-93 -255zM500 1415l458 275l111 -189 l-465 -246z" />
<glyph unicode="&#xe2;" horiz-adv-x="1351" d="M61 563q0 260 163 429t415 169q236 0 371 -178v152h250v-1135h-250v147q-82 -92 -170 -133t-207 -41q-248 0 -410 167t-162 423zM299 1290l301 283h219l297 -283h-297l-108 131l-111 -131h-301zM336 557q0 -150 93 -242t243 -92q162 0 248 103q82 96 81 233 q0 156 -94 254t-239.5 98t-238.5 -99t-93 -255z" />
<glyph unicode="&#xe3;" horiz-adv-x="1351" d="M61 563q0 260 163 429t415 169q236 0 371 -178v152h250v-1135h-250v147q-82 -92 -170 -133t-207 -41q-248 0 -410 167t-162 423zM336 557q0 -150 93 -242t243 -92q162 0 248 103q82 96 81 233q0 156 -94 254t-239.5 98t-238.5 -99t-93 -255zM369 1466q53 53 100 75 t111 22q53 0 122 -29q55 -23 97 -23q76 0 137 70l111 -166q-92 -113 -193 -112q-43 0 -121 26q-70 25 -110 25q-37 0 -60.5 -8.5t-83.5 -42.5z" />
<glyph unicode="&#xe4;" horiz-adv-x="1351" d="M61 563q0 260 163 429t415 169q236 0 371 -178v152h250v-1135h-250v147q-82 -92 -170 -133t-207 -41q-248 0 -410 167t-162 423zM336 557q0 -150 93 -242t243 -92q162 0 248 103q82 96 81 233q0 156 -94 254t-239.5 98t-238.5 -99t-93 -255zM356 1290v273h273v-273h-273z M786 1290v273h273v-273h-273z" />
<glyph unicode="&#xe5;" horiz-adv-x="1351" d="M61 563q0 260 163 429t415 169q236 0 371 -178v152h250v-1135h-250v147q-82 -92 -170 -133t-207 -41q-248 0 -410 167t-162 423zM336 557q0 -150 93 -242t243 -92q162 0 248 103q82 96 81 233q0 156 -94 254t-239.5 98t-238.5 -99t-93 -255zM498 1460q0 88 62.5 149.5 t150.5 61.5q86 0 147.5 -62.5t61.5 -148.5q0 -88 -62.5 -149.5t-148.5 -61.5q-88 0 -149.5 61.5t-61.5 149.5zM635 1460.5q0 -30.5 21.5 -52.5t52 -22t52 22t21.5 52.5t-21.5 52t-52 21.5t-52 -21.5t-21.5 -52z" />
<glyph unicode="&#xe6;" horiz-adv-x="2211" d="M61 563q0 254 170 426t420 172q209 0 342 -139v113h250v-113q137 139 342 139q238 0 402.5 -166t164.5 -405q0 -61 -18 -141h-877q35 -106 120 -166t200 -60q145 0 240 113h297q-51 -156 -201 -259.5t-324 -103.5q-217 0 -346 150v-123h-250v123q-70 -82 -145.5 -116 t-192.5 -34q-256 0 -425 168t-169 422zM336 573q0 -152 93 -251t237 -99q137 0 228 98.5t91 243.5q0 147 -93 246.5t-230.5 99.5t-231.5 -98.5t-94 -239.5zM1243 690h623q-59 221 -307 221q-238 0 -316 -221z" />
<glyph unicode="&#xe7;" horiz-adv-x="1310" d="M61 567q0 250 173.5 422t424.5 172q246 0 418 -160q102 -94 154 -245h-307q-82 156 -265 155q-141 0 -232 -96t-91 -245.5t94 -248t236 -98.5q162 0 258 150h307q-66 -190 -219.5 -297t-358.5 -103l-39 -92q37 14 64 15q78 0 129 -58.5t51 -146.5q0 -92 -53 -148.5 t-141 -56.5q-78 0 -135.5 49t-67.5 125h123q25 -61 78 -61q35 0 56 24.5t21 63.5t-22.5 64.5t-54.5 25.5q-41 0 -78 -49l-107 53l86 201q-219 39 -360.5 203.5t-141.5 381.5z" />
<glyph unicode="&#xe8;" horiz-adv-x="1310" d="M61 563q0 250 174.5 424t423.5 174q254 0 420 -173t166 -437q0 -55 -10 -105h-879q25 -102 109 -162.5t205 -60.5q84 0 140 25.5t110 87.5h297q-25 -76 -91 -158q-178 -205 -450 -205q-260 0 -437.5 170t-177.5 420zM293 1509l117 181l454 -273l-108 -162zM348 686h629 q-27 109 -108 167t-205 58q-248 0 -316 -225z" />
<glyph unicode="&#xe9;" horiz-adv-x="1310" d="M61 563q0 250 174.5 424t423.5 174q254 0 420 -173t166 -437q0 -55 -10 -105h-879q25 -102 109 -162.5t205 -60.5q84 0 140 25.5t110 87.5h297q-25 -76 -91 -158q-178 -205 -450 -205q-260 0 -437.5 170t-177.5 420zM348 686h629q-27 109 -108 167t-205 58 q-248 0 -316 -225zM465 1415l459 275l110 -189l-465 -246z" />
<glyph unicode="&#xea;" horiz-adv-x="1310" d="M61 563q0 250 174.5 424t423.5 174q254 0 420 -173t166 -437q0 -55 -10 -105h-879q25 -102 109 -162.5t205 -60.5q84 0 140 25.5t110 87.5h297q-25 -76 -91 -158q-178 -205 -450 -205q-260 0 -437.5 170t-177.5 420zM258 1290l301 283h219l297 -283h-297l-108 131 l-111 -131h-301zM348 686h629q-27 109 -108 167t-205 58q-248 0 -316 -225z" />
<glyph unicode="&#xeb;" horiz-adv-x="1310" d="M61 563q0 250 174.5 424t423.5 174q254 0 420 -173t166 -437q0 -55 -10 -105h-879q25 -102 109 -162.5t205 -60.5q84 0 140 25.5t110 87.5h297q-25 -76 -91 -158q-178 -205 -450 -205q-260 0 -437.5 170t-177.5 420zM317 1290v273h273v-273h-273zM348 686h629 q-27 109 -108 167t-205 58q-248 0 -316 -225zM748 1290v273h272v-273h-272z" />
<glyph unicode="&#xec;" horiz-adv-x="491" d="M-33 1509l117 181l455 -273l-109 -162zM111 0v1135h272v-1135h-272z" />
<glyph unicode="&#xed;" horiz-adv-x="491" d="M-33 1415l459 275l111 -189l-465 -246zM111 0v1135h272v-1135h-272z" />
<glyph unicode="&#xee;" horiz-adv-x="491" d="M-156 1290l301 283h220l297 -283h-297l-109 131l-111 -131h-301zM111 0v1135h272v-1135h-272z" />
<glyph unicode="&#xef;" horiz-adv-x="491" d="M-115 1290v273h273v-273h-273zM111 0v1135h272v-1135h-272zM315 1290v273h273v-273h-273z" />
<glyph unicode="&#xf0;" horiz-adv-x="1310" d="M61 569q0 154 79 291t210 209q129 70 260 70q53 0 138 -19l-58 58q-57 57 -100 94l-178 -82l-82 94l159 76q-88 74 -143 117l211 71q8 -6 19.5 -13t13.5 -9l61 -47q2 0 39 -27l178 82l84 -100l-159 -72q178 -154 264 -260q211 -262 211 -520q0 -256 -174 -432.5 t-428 -176.5q-250 0 -427.5 175t-177.5 421zM336 571q0 -145 96 -246.5t234 -101.5q135 0 231 100.5t96 243.5q0 141 -96 242.5t-233 101.5q-133 0 -230.5 -100.5t-97.5 -239.5z" />
<glyph unicode="&#xf1;" d="M111 0v1135h251v-109q141 135 320 135q242 0 354 -164q45 -66 63.5 -151.5t18.5 -237.5v-608h-272v555q0 213 -53 285q-55 72 -164 71q-135 0 -201 -104q-45 -72 -45 -272v-535h-272zM256 1466q53 53 100 75t111 22q53 0 123 -29q57 -23 96 -23q76 0 137 70l111 -166 q-92 -113 -193 -112q-43 0 -120 26q-70 25 -111 25q-37 0 -60.5 -8.5t-82.5 -42.5z" />
<glyph unicode="&#xf2;" horiz-adv-x="1310" d="M61 567q0 244 176.5 419t424.5 175q256 0 431 -174t175 -428q0 -240 -178.5 -413t-425.5 -173q-250 0 -426.5 174t-176.5 420zM311 1509l117 181l455 -273l-109 -162zM336 571q0 -145 96 -246.5t234 -101.5q135 0 231 100.5t96 243.5q0 141 -96 242.5t-233 101.5 q-133 0 -230.5 -100.5t-97.5 -239.5z" />
<glyph unicode="&#xf3;" horiz-adv-x="1310" d="M61 567q0 244 176.5 419t424.5 175q256 0 431 -174t175 -428q0 -240 -178.5 -413t-425.5 -173q-250 0 -426.5 174t-176.5 420zM336 571q0 -145 96 -246.5t234 -101.5q135 0 231 100.5t96 243.5q0 141 -96 242.5t-233 101.5q-133 0 -230.5 -100.5t-97.5 -239.5zM449 1415 l458 275l111 -189l-465 -246z" />
<glyph unicode="&#xf4;" horiz-adv-x="1310" d="M61 567q0 244 176.5 419t424.5 175q256 0 431 -174t175 -428q0 -240 -178.5 -413t-425.5 -173q-250 0 -426.5 174t-176.5 420zM256 1290l301 283h219l297 -283h-297l-108 131l-111 -131h-301zM336 571q0 -145 96 -246.5t234 -101.5q135 0 231 100.5t96 243.5 q0 141 -96 242.5t-233 101.5q-133 0 -230.5 -100.5t-97.5 -239.5z" />
<glyph unicode="&#xf5;" horiz-adv-x="1310" d="M61 567q0 244 176.5 419t424.5 175q256 0 431 -174t175 -428q0 -240 -178.5 -413t-425.5 -173q-250 0 -426.5 174t-176.5 420zM332 1466q53 53 100 75t111 22q53 0 123 -29q55 -23 96 -23q76 0 137 70l111 -166q-92 -113 -193 -112q-43 0 -121 26q-70 25 -110 25 q-37 0 -60.5 -8.5t-83.5 -42.5zM336 571q0 -145 96 -246.5t234 -101.5q135 0 231 100.5t96 243.5q0 141 -96 242.5t-233 101.5q-133 0 -230.5 -100.5t-97.5 -239.5z" />
<glyph unicode="&#xf6;" horiz-adv-x="1310" d="M61 567q0 244 176.5 419t424.5 175q256 0 431 -174t175 -428q0 -240 -178.5 -413t-425.5 -173q-250 0 -426.5 174t-176.5 420zM313 1290v273h273v-273h-273zM336 571q0 -145 96 -246.5t234 -101.5q135 0 231 100.5t96 243.5q0 141 -96 242.5t-233 101.5 q-133 0 -230.5 -100.5t-97.5 -239.5zM743 1290v273h273v-273h-273z" />
<glyph unicode="&#xf7;" d="M104 639v242h1033v-242h-1033zM481 150v268h277v-268h-277zM481 1102v268h277v-268h-277z" />
<glyph unicode="&#xf8;" horiz-adv-x="1351" d="M61 567q0 246 178.5 420t428.5 174q115 0 223 -43l106 158l177 -119l-103 -149q199 -182 199 -441q0 -246 -176 -420t-426 -174q-135 0 -258 58l-115 -168l-174 117l117 172q-177 165 -177 415zM336 569q0 -102 55 -190l352 522q-39 10 -77 10q-135 0 -232.5 -100.5 t-97.5 -241.5zM555 244q55 -20 111 -21q137 0 233 100.5t96 241.5q0 121 -73 219z" />
<glyph unicode="&#xf9;" d="M111 526v609h272v-555q0 -215 55 -285q53 -72 160 -72q145 0 207 105q43 66 43 272v535h272v-1135h-252v109q-76 -76 -149.5 -106t-175.5 -30q-229 0 -346 168q-47 72 -66.5 157t-19.5 228zM248 1509l117 181l454 -273l-108 -162z" />
<glyph unicode="&#xfa;" d="M111 526v609h272v-555q0 -215 55 -285q53 -72 160 -72q145 0 207 105q43 66 43 272v535h272v-1135h-252v109q-76 -76 -149.5 -106t-175.5 -30q-229 0 -346 168q-47 72 -66.5 157t-19.5 228zM414 1415l458 275l111 -189l-465 -246z" />
<glyph unicode="&#xfb;" d="M111 526v609h272v-555q0 -215 55 -285q53 -72 160 -72q145 0 207 105q43 66 43 272v535h272v-1135h-252v109q-76 -76 -149.5 -106t-175.5 -30q-229 0 -346 168q-47 72 -66.5 157t-19.5 228zM207 1290l301 283h219l297 -283h-297l-109 131l-110 -131h-301z" />
<glyph unicode="&#xfc;" d="M111 526v609h272v-555q0 -215 55 -285q53 -72 160 -72q145 0 207 105q43 66 43 272v535h272v-1135h-252v109q-76 -76 -149.5 -106t-175.5 -30q-229 0 -346 168q-47 72 -66.5 157t-19.5 228zM264 1290v273h273v-273h-273zM694 1290v273h273v-273h-273z" />
<glyph unicode="&#xfd;" horiz-adv-x="1187" d="M12 1135h312l251 -736l275 736h313l-655 -1514h-293l213 485zM315 1415l459 275l111 -189l-465 -246z" />
<glyph unicode="&#xfe;" horiz-adv-x="1351" d="M111 -379v1892h272v-499q135 147 352 147q246 0 404.5 -168t158.5 -426q0 -260 -158.5 -427t-404.5 -167q-217 0 -352 148v-500h-272zM367 571q0 -150 94 -249t237 -99q137 0 231.5 99.5t94.5 245t-94 244.5t-232 99q-141 0 -236 -97.5t-95 -242.5z" />
<glyph unicode="&#xff;" horiz-adv-x="1187" d="M12 1135h312l251 -736l275 736h313l-655 -1514h-293l213 485zM238 1290v273h272v-273h-272zM668 1290v273h272v-273h-272z" />
<glyph unicode="&#x152;" horiz-adv-x="2170" d="M78 756q0 336 219 560t549 224q309 0 479 -194v167h731v-268h-446v-356h424v-268h-424v-353h446v-268h-731v166q-174 -193 -469 -193q-332 0 -555 224.5t-223 558.5zM360 748q0 -213 141.5 -358.5t350.5 -145.5q211 0 347 144t136 365.5t-138 369t-347 147.5 q-217 0 -352 -150q-138 -153 -138 -372z" />
<glyph unicode="&#x153;" horiz-adv-x="2211" d="M61 567q0 248 172.5 421t421.5 173q199 0 342 -110q53 -39 115 -117q98 121 204.5 174t244.5 53q190 0 344 -102q242 -162 241 -477q0 -66 -10 -136h-879q35 -102 118 -162.5t196 -60.5q70 0 138.5 31t109.5 80h290q-59 -164 -205.5 -262.5t-330.5 -98.5q-299 0 -461 232 q-160 -231 -448 -232q-258 0 -430.5 170t-172.5 424zM336 575q0 -152 96 -252t242 -100q137 0 229 98.5t92 243.5q0 147 -95 246.5t-234 99.5q-137 0 -233.5 -98.5t-96.5 -237.5zM1245 686h619q-66 225 -308 225q-233 0 -311 -225z" />
<glyph unicode="&#x178;" horiz-adv-x="1269" d="M6 1513h303l336 -696l334 696h303l-498 -954v-559h-280v559zM293 1649v272h272v-272h-272zM723 1649v272h272v-272h-272z" />
<glyph unicode="&#x2c6;" horiz-adv-x="1105" d="M152 1290l301 283h219l297 -283h-297l-109 131l-110 -131h-301z" />
<glyph unicode="&#x2dc;" horiz-adv-x="983" d="M152 1466q53 53 100 75t110 22q53 0 123 -29q55 -23 97 -23q76 0 137 70l110 -166q-92 -113 -192 -112q-43 0 -121 26q-70 25 -110 25q-37 0 -60.5 -8.5t-83.5 -42.5z" />
<glyph unicode="&#x3bc;" horiz-adv-x="1179" d="M111 -379v1514h272v-535q0 -125 8 -172t37 -92q74 -113 199 -113t184 105q37 68 37 272v535h272v-1135h-252v109q-61 -74 -118.5 -105t-135.5 -31q-135 0 -231 133v-485h-272z" />
<glyph unicode="&#x2000;" horiz-adv-x="1024" />
<glyph unicode="&#x2001;" horiz-adv-x="2048" />
<glyph unicode="&#x2002;" horiz-adv-x="1024" />
<glyph unicode="&#x2003;" horiz-adv-x="2048" />
<glyph unicode="&#x2004;" horiz-adv-x="681" />
<glyph unicode="&#x2005;" horiz-adv-x="512" />
<glyph unicode="&#x2006;" horiz-adv-x="339" />
<glyph unicode="&#x2007;" horiz-adv-x="339" />
<glyph unicode="&#x2008;" horiz-adv-x="256" />
<glyph unicode="&#x2009;" horiz-adv-x="409" />
<glyph unicode="&#x200a;" horiz-adv-x="112" />
<glyph unicode="&#x2010;" horiz-adv-x="860" d="M152 469v242h567v-242h-567z" />
<glyph unicode="&#x2011;" horiz-adv-x="860" d="M152 469v242h567v-242h-567z" />
<glyph unicode="&#x2012;" horiz-adv-x="860" d="M152 469v242h567v-242h-567z" />
<glyph unicode="&#x2013;" horiz-adv-x="1024" d="M0 469v242h1024v-242h-1024z" />
<glyph unicode="&#x2014;" horiz-adv-x="2048" d="M0 469v242h2048v-242h-2048z" />
<glyph unicode="&#x2018;" horiz-adv-x="573" d="M147 954v287q0 137 89 211q74 61 184 61v-137q-66 -12 -93.5 -38.5t-27.5 -77.5q0 -20 2 -33h119v-273h-273z" />
<glyph unicode="&#x2019;" horiz-adv-x="573" d="M147 954v138q66 12 93.5 40.5t27.5 81.5q0 23 -2 37h-119v262h273v-286q0 -172 -131 -240q-56 -33 -142 -33z" />
<glyph unicode="&#x201a;" horiz-adv-x="573" d="M143 0v262h273v-276q0 -168 -131 -240q-55 -33 -142 -33v137q66 12 93.5 39t27.5 76q0 23 -2 35h-119z" />
<glyph unicode="&#x201c;" horiz-adv-x="983" d="M143 954v287q0 137 88 211q74 61 185 61v-137q-66 -12 -93.5 -38.5t-27.5 -80.5q0 -18 2 -30h119v-273h-273zM567 954v287q0 137 88 211q74 61 185 61v-137q-66 -12 -93.5 -38.5t-27.5 -75.5q0 -23 2 -35h119v-273h-273z" />
<glyph unicode="&#x201d;" horiz-adv-x="983" d="M143 954v138q63 12 92 41.5t29 80.5q0 23 -2 37h-119v262h273v-286q0 -168 -131 -240q-58 -33 -142 -33zM567 954v138q66 12 93.5 40.5t27.5 81.5q0 23 -2 37h-119v262h273v-286q0 -168 -131 -240q-58 -33 -142 -33z" />
<glyph unicode="&#x201e;" horiz-adv-x="983" d="M143 0v262h273v-276q0 -168 -131 -240q-55 -33 -142 -33v137q66 12 93.5 39t27.5 76q0 23 -2 35h-119zM567 0v262h273v-276q0 -168 -131 -240q-57 -33 -142 -33v137q66 12 93.5 39t27.5 76q0 23 -2 35h-119z" />
<glyph unicode="&#x2022;" d="M274 647q0 141 101.5 242.5t242.5 101.5q143 0 245 -100t102 -244q0 -145 -101.5 -245.5t-249.5 -100.5q-139 0 -239.5 102.5t-100.5 243.5z" />
<glyph unicode="&#x2026;" horiz-adv-x="2048" d="M205 0v262h272v-262h-272zM885 0v262h272v-262h-272zM1567 0v262h274v-262h-274z" />
<glyph unicode="&#x202f;" horiz-adv-x="409" />
<glyph unicode="&#x2039;" horiz-adv-x="491" d="M74 489v205l284 267v-252l-137 -117l137 -119v-252z" />
<glyph unicode="&#x203a;" horiz-adv-x="491" d="M150 221v252l137 119l-137 117v252l284 -267v-205z" />
<glyph unicode="&#x205f;" horiz-adv-x="512" />
<glyph unicode="&#x20ac;" horiz-adv-x="1146" d="M-68 805l50 180h161q47 201 111 297q174 254 516 254q127 0 224.5 -29.5t224.5 -105.5l-80 -211q-201 119 -375 119q-76 0 -148.5 -33t-111.5 -84q-49 -63 -90 -207h645l-68 -180h-592v-92h557l-69 -181h-477q27 -102 71 -167q45 -70 125 -110t170 -40q100 0 299 82v-252 q-166 -68 -327 -68q-182 0 -338 95q-106 66 -167 170t-102 290h-207l50 181h141v39q0 31 2 53h-195z" />
<glyph unicode="&#x2122;" horiz-adv-x="2048" d="M145 1360v153h723v-153h-278v-653h-166v653h-279zM930 707v806h248l233 -526l250 526h242v-806h-166v587l-271 -587h-108l-262 585v-585h-166z" />
<glyph unicode="&#xe000;" horiz-adv-x="1135" d="M0 1135h1135v-1135h-1135v1135z" />
<glyph unicode="&#xfb01;" horiz-adv-x="1064" d="M16 887v227h99q18 188 90 272q104 127 284 127q35 0 68 -4v-258h-27q-80 0 -110.5 -29.5t-32.5 -107.5h154v-227h-154v-887h-272v887h-99zM672 0v1135h272v-1135h-272zM672 1257v256h272v-256h-272z" />
<glyph unicode="&#xfb02;" horiz-adv-x="1064" d="M16 887v227h99q18 188 90 272q104 127 284 127q35 0 68 -4v-258h-27q-80 0 -110.5 -29.5t-32.5 -107.5h154v-227h-154v-887h-272v887h-99zM672 0v1513h272v-1513h-272z" />
<glyph unicode="&#xfb03;" horiz-adv-x="1638" d="M1258 0v1135h272v-1135h-272zM1258 1257v256h272v-256h-272zM593 887v227h99q18 188 90 272q104 127 285 127q35 0 67 -4v-258h-26q-80 0 -111 -29.5t-33 -107.5h154v-227h-154v-887h-272v887h-99zM20 887v227h99q18 188 90 272q104 127 285 127q35 0 67 -4v-258h-26 q-80 0 -111 -29.5t-33 -107.5h154v-227h-154v-887h-272v887h-99z" />
<glyph unicode="&#xfb04;" horiz-adv-x="1638" d="M1258 0v1513h272v-1513h-272zM593 887v227h99q18 188 90 272q104 127 285 127q35 0 67 -4v-258h-26q-80 0 -111 -29.5t-33 -107.5h154v-227h-154v-887h-272v887h-99zM20 887v227h99q18 188 90 272q104 127 285 127q35 0 67 -4v-258h-26q-80 0 -111 -29.5t-33 -107.5h154 v-227h-154v-887h-272v887h-99z" />
</font>
</defs>
</svg>
